<svg width="32" height="32" viewBox="0 0 32 32" fill="none" xmlns="http://www.w3.org/2000/svg">
<mask id="path-1-inside-1_8590_5461" fill="white">
<path fill-rule="evenodd" clip-rule="evenodd" d="M16 29C23.1797 29 29 23.1797 29 16C29 8.8203 23.1797 3 16 3C8.8203 3 3 8.8203 3 16C3 23.1797 8.8203 29 16 29ZM8.77979 23.2244V8.78H12.6986L16.0103 12.0367L19.3238 8.78H23.2406V23.2244H19.3232L16.0103 19.9572L12.6991 23.2244H8.77979ZM12.2438 9.89113H9.89091V22.1133H12.2432L15.2303 19.1658L12.0669 16.0023L15.2358 12.8334L12.2438 9.89113ZM19.779 22.1133L16.7903 19.1659L19.9539 16.0023L16.7849 12.8333L19.7784 9.89113H22.1295V22.1133H19.779ZM13.6383 16.0023L16.0104 18.3745L18.3825 16.0023L16.0104 13.6302L13.6383 16.0023Z"/>
</mask>
<g filter="url(#filter0_i_8590_5461)">
<path fill-rule="evenodd" clip-rule="evenodd" d="M16 29C23.1797 29 29 23.1797 29 16C29 8.8203 23.1797 3 16 3C8.8203 3 3 8.8203 3 16C3 23.1797 8.8203 29 16 29ZM8.77979 23.2244V8.78H12.6986L16.0103 12.0367L19.3238 8.78H23.2406V23.2244H19.3232L16.0103 19.9572L12.6991 23.2244H8.77979ZM12.2438 9.89113H9.89091V22.1133H12.2432L15.2303 19.1658L12.0669 16.0023L15.2358 12.8334L12.2438 9.89113ZM19.779 22.1133L16.7903 19.1659L19.9539 16.0023L16.7849 12.8333L19.7784 9.89113H22.1295V22.1133H19.779ZM13.6383 16.0023L16.0104 18.3745L18.3825 16.0023L16.0104 13.6302L13.6383 16.0023Z" fill="#9497A2"/>
</g>
<path d="M8.77979 8.78V8.28H8.27979V8.78H8.77979ZM8.77979 23.2244H8.27979V23.7244H8.77979V23.2244ZM12.6986 8.78L13.0491 8.4235L12.9032 8.28H12.6986V8.78ZM16.0103 12.0367L15.6597 12.3932L16.0102 12.7378L16.3608 12.3933L16.0103 12.0367ZM19.3238 8.78V8.28H19.1192L18.9733 8.4234L19.3238 8.78ZM23.2406 8.78H23.7406V8.28H23.2406V8.78ZM23.2406 23.2244V23.7244H23.7406V23.2244H23.2406ZM19.3232 23.2244L18.9721 23.5804L19.1181 23.7244H19.3232V23.2244ZM16.0103 19.9572L16.3614 19.6012L16.0102 19.2548L15.6591 19.6013L16.0103 19.9572ZM12.6991 23.2244V23.7244H12.9043L13.0503 23.5803L12.6991 23.2244ZM9.89091 9.89113V9.39113H9.39091V9.89113H9.89091ZM12.2438 9.89113L12.5943 9.53462L12.4484 9.39113H12.2438V9.89113ZM9.89091 22.1133H9.39091V22.6133H9.89091V22.1133ZM12.2432 22.1133V22.6133H12.4484L12.5944 22.4692L12.2432 22.1133ZM15.2303 19.1658L15.5815 19.5217L15.9398 19.1682L15.5839 18.8122L15.2303 19.1658ZM12.0669 16.0023L11.7133 15.6488L11.3598 16.0023L11.7133 16.3559L12.0669 16.0023ZM15.2358 12.8334L15.5893 13.187L15.9459 12.8304L15.5864 12.4769L15.2358 12.8334ZM16.7903 19.1659L16.4368 18.8123L16.0808 19.1683L16.4392 19.5219L16.7903 19.1659ZM19.779 22.1133L19.4279 22.4693L19.5739 22.6133H19.779V22.1133ZM19.9539 16.0023L20.3074 16.3559L20.661 16.0023L20.3074 15.6488L19.9539 16.0023ZM16.7849 12.8333L16.4344 12.4767L16.0747 12.8303L16.4313 13.1869L16.7849 12.8333ZM19.7784 9.89113V9.39113H19.5738L19.4279 9.53453L19.7784 9.89113ZM22.1295 9.89113H22.6295V9.39113H22.1295V9.89113ZM22.1295 22.1133V22.6133H22.6295V22.1133H22.1295ZM16.0104 18.3745L15.6568 18.728L16.0104 19.0816L16.3639 18.728L16.0104 18.3745ZM13.6383 16.0023L13.2847 15.6488L12.9311 16.0023L13.2847 16.3559L13.6383 16.0023ZM18.3825 16.0023L18.7361 16.3559L19.0896 16.0023L18.7361 15.6488L18.3825 16.0023ZM16.0104 13.6302L16.3639 13.2767L16.0104 12.9231L15.6568 13.2767L16.0104 13.6302ZM28.5 16C28.5 22.9036 22.9036 28.5 16 28.5V29.5C23.4558 29.5 29.5 23.4558 29.5 16H28.5ZM16 3.5C22.9036 3.5 28.5 9.09644 28.5 16H29.5C29.5 8.54416 23.4558 2.5 16 2.5V3.5ZM3.5 16C3.5 9.09644 9.09644 3.5 16 3.5V2.5C8.54416 2.5 2.5 8.54416 2.5 16H3.5ZM16 28.5C9.09644 28.5 3.5 22.9036 3.5 16H2.5C2.5 23.4558 8.54416 29.5 16 29.5V28.5ZM8.27979 8.78V23.2244H9.27979V8.78H8.27979ZM12.6986 8.28H8.77979V9.28H12.6986V8.28ZM16.3609 11.6802L13.0491 8.4235L12.348 9.1365L15.6597 12.3932L16.3609 11.6802ZM18.9733 8.4234L15.6598 11.6801L16.3608 12.3933L19.6743 9.1366L18.9733 8.4234ZM23.2406 8.28H19.3238V9.28H23.2406V8.28ZM23.7406 23.2244V8.78H22.7406V23.2244H23.7406ZM19.3232 23.7244H23.2406V22.7244H19.3232V23.7244ZM15.6592 20.3132L18.9721 23.5804L19.6743 22.8684L16.3614 19.6012L15.6592 20.3132ZM13.0503 23.5803L16.3615 20.3131L15.6591 19.6013L12.3479 22.8685L13.0503 23.5803ZM8.77979 23.7244H12.6991V22.7244H8.77979V23.7244ZM9.89091 10.3911H12.2438V9.39113H9.89091V10.3911ZM10.3909 22.1133V9.89113H9.39091V22.1133H10.3909ZM12.2432 21.6133H9.89091V22.6133H12.2432V21.6133ZM14.8792 18.8099L11.892 21.7574L12.5944 22.4692L15.5815 19.5217L14.8792 18.8099ZM11.7133 16.3559L14.8768 19.5194L15.5839 18.8122L12.4204 15.6488L11.7133 16.3559ZM14.8822 12.4799L11.7133 15.6488L12.4204 16.3559L15.5893 13.187L14.8822 12.4799ZM11.8932 10.2476L14.8852 13.1899L15.5864 12.4769L12.5943 9.53462L11.8932 10.2476ZM16.4392 19.5219L19.4279 22.4693L20.13 21.7573L17.1414 18.8099L16.4392 19.5219ZM19.6003 15.6488L16.4368 18.8123L17.1439 19.5194L20.3074 16.3559L19.6003 15.6488ZM16.4313 13.1869L19.6003 16.3559L20.3074 15.6488L17.1384 12.4798L16.4313 13.1869ZM19.4279 9.53453L16.4344 12.4767L17.1354 13.1899L20.1289 10.2477L19.4279 9.53453ZM22.1295 9.39113H19.7784V10.3911H22.1295V9.39113ZM22.6295 22.1133V9.89113H21.6295V22.1133H22.6295ZM19.779 22.6133H22.1295V21.6133H19.779V22.6133ZM16.3639 18.0209L13.9918 15.6488L13.2847 16.3559L15.6568 18.728L16.3639 18.0209ZM18.0289 15.6488L15.6568 18.0209L16.3639 18.728L18.7361 16.3559L18.0289 15.6488ZM15.6568 13.9838L18.0289 16.3559L18.7361 15.6488L16.3639 13.2767L15.6568 13.9838ZM13.9918 16.3559L16.3639 13.9838L15.6568 13.2767L13.2847 15.6488L13.9918 16.3559Z" fill="#6F727E" fill-opacity="0.5" mask="url(#path-1-inside-1_8590_5461)"/>
<defs>
<filter id="filter0_i_8590_5461" x="3" y="3" width="26" height="30" filterUnits="userSpaceOnUse" color-interpolation-filters="sRGB">
<feFlood flood-opacity="0" result="BackgroundImageFix"/>
<feBlend mode="normal" in="SourceGraphic" in2="BackgroundImageFix" result="shape"/>
<feColorMatrix in="SourceAlpha" type="matrix" values="0 0 0 0 0 0 0 0 0 0 0 0 0 0 0 0 0 0 127 0" result="hardAlpha"/>
<feOffset dy="4"/>
<feGaussianBlur stdDeviation="2"/>
<feComposite in2="hardAlpha" operator="arithmetic" k2="-1" k3="1"/>
<feColorMatrix type="matrix" values="0 0 0 0 0 0 0 0 0 0 0 0 0 0 0 0 0 0 0.25 0"/>
<feBlend mode="normal" in2="shape" result="effect1_innerShadow_8590_5461"/>
</filter>
</defs>
</svg>
