<svg width="19" height="20" viewBox="0 0 19 20" fill="none" xmlns="http://www.w3.org/2000/svg">
<g filter="url(#filter0_i_5553_677)">
<path d="M8.97598 0.539603C9.58002 0.204023 10.3145 0.204023 10.9186 0.539603L17.9186 4.42849C18.5535 4.78123 18.9473 5.45047 18.9473 6.17681V13.8232C18.9473 14.5495 18.5535 15.2188 17.9186 15.5715L10.9186 19.4604C10.3145 19.796 9.58002 19.796 8.97598 19.4604L1.97598 15.5715C1.34105 15.2188 0.947266 14.5495 0.947266 13.8232V6.17681C0.947266 5.45047 1.34105 4.78123 1.97598 4.42849L8.97598 0.539603Z" fill="#0C50FF"/>
</g>
<path d="M9.2188 0.976682C9.67183 0.724996 10.2227 0.724996 10.6757 0.976682L17.6757 4.86557C18.1519 5.13013 18.4473 5.63206 18.4473 6.17681V13.8232C18.4473 14.3679 18.1519 14.8699 17.6757 15.1344L10.6757 19.0233C10.2227 19.275 9.67183 19.275 9.2188 19.0233L2.2188 15.1344C1.7426 14.8699 1.44727 14.3679 1.44727 13.8232V6.17681C1.44727 5.63206 1.7426 5.13013 2.2188 4.86557L9.2188 0.976682Z" stroke="white" stroke-opacity="0.2"/>
<path d="M9.94727 7.85714C10.4996 7.85714 10.9473 8.30486 10.9473 8.85714V14C10.9473 14.5523 10.4996 15 9.94727 15C9.39498 15 8.94727 14.5523 8.94727 14V8.85714C8.94727 8.30486 9.39498 7.85714 9.94727 7.85714ZM8.97543 5.88571C8.97543 5.39655 9.37198 5 9.86115 5H10.0193C10.5085 5 10.905 5.39655 10.905 5.88571C10.905 6.37488 10.5085 6.77143 10.0193 6.77143H9.86115C9.37198 6.77143 8.97543 6.37488 8.97543 5.88571Z" fill="#EEEEEE"/>
<defs>
<filter id="filter0_i_5553_677" x="0.947266" y="0.288086" width="20" height="21.4238" filterUnits="userSpaceOnUse" color-interpolation-filters="sRGB">
<feFlood flood-opacity="0" result="BackgroundImageFix"/>
<feBlend mode="normal" in="SourceGraphic" in2="BackgroundImageFix" result="shape"/>
<feColorMatrix in="SourceAlpha" type="matrix" values="0 0 0 0 0 0 0 0 0 0 0 0 0 0 0 0 0 0 127 0" result="hardAlpha"/>
<feOffset dx="2" dy="2"/>
<feGaussianBlur stdDeviation="2"/>
<feComposite in2="hardAlpha" operator="arithmetic" k2="-1" k3="1"/>
<feColorMatrix type="matrix" values="0 0 0 0 0.00392157 0 0 0 0 0.0196078 0 0 0 0 0.0862745 0 0 0 0.16 0"/>
<feBlend mode="normal" in2="shape" result="effect1_innerShadow_5553_677"/>
</filter>
</defs>
</svg>
