<svg viewBox="0 0 346 55" fill="none" xmlns="http://www.w3.org/2000/svg">
<path d="M7.44 35.704L0.6 28.864V0.423999L7.44 7.264V35.704ZM7.44 55L0.6 48.16V38.512L10.248 48.16H36.96L43.8 55H7.44ZM81.3261 9.496L87.0141 15.184V49.312L81.3261 55H56.7021L51.0141 49.312V15.184L56.7021 9.496H81.3261ZM80.1741 46.504V17.992L78.5181 16.336H59.5101L57.8541 17.992V46.504L59.5101 48.16H78.5181L80.1741 46.504ZM124.498 9.496L130.186 15.184V55H123.346V41.752H101.026V55H94.1859V15.184L99.8739 9.496H124.498ZM101.026 34.912H123.346V17.992L121.69 16.336H102.682L101.026 17.992V34.912ZM167.67 9.496L173.358 15.184V49.312L167.67 55H137.358V9.496H167.67ZM166.518 46.504V17.992L164.862 16.336H144.198V48.16H164.862L166.518 46.504ZM201.986 16.336V48.16H209.69L216.53 55H180.53L187.37 48.16H195.146V16.336H187.37L180.53 9.496H216.53L209.69 16.336H201.986ZM252.862 9.496H259.702V55H252.862L230.542 21.736V55H223.702V9.496H230.542L252.862 42.616V9.496ZM302.873 17.848L296.033 24.688V17.992L294.377 16.336H275.369L273.713 17.992V46.504L275.369 48.16H294.377L296.033 46.504V39.088H287.753L294.593 32.248H302.873V49.312L297.185 55H272.561L266.873 49.312V15.184L272.561 9.496H297.185L302.873 15.184V17.848ZM310.045 55V41.32L316.885 48.16V55H310.045ZM324.108 55V41.32L330.948 48.16V55H324.108ZM338.17 55V41.32L345.01 48.16V55H338.17Z" fill="currentColor"/>
</svg>
