<svg width="20" height="20" viewBox="0 0 20 20" fill="none" xmlns="http://www.w3.org/2000/svg">
<g filter="url(#filter0_i_6791_10351)">
<circle cx="10" cy="10" r="8.5" stroke="#8D8F96"/>
</g>
<path d="M10 7.85714C10.5523 7.85714 11 8.30486 11 8.85714V14C11 14.5523 10.5523 15 10 15C9.44772 15 9 14.5523 9 14V8.85714C9 8.30486 9.44772 7.85714 10 7.85714ZM9.02817 5.88571C9.02817 5.39655 9.42472 5 9.91388 5H10.072C10.5612 5 10.9577 5.39655 10.9577 5.88571C10.9577 6.37488 10.5612 6.77143 10.072 6.77143H9.91388C9.42472 6.77143 9.02817 6.37488 9.02817 5.88571Z" fill="#8D8F96"/>
<defs>
<filter id="filter0_i_6791_10351" x="1" y="1" width="20" height="20" filterUnits="userSpaceOnUse" color-interpolation-filters="sRGB">
<feFlood flood-opacity="0" result="BackgroundImageFix"/>
<feBlend mode="normal" in="SourceGraphic" in2="BackgroundImageFix" result="shape"/>
<feColorMatrix in="SourceAlpha" type="matrix" values="0 0 0 0 0 0 0 0 0 0 0 0 0 0 0 0 0 0 127 0" result="hardAlpha"/>
<feOffset dx="2" dy="2"/>
<feGaussianBlur stdDeviation="2"/>
<feComposite in2="hardAlpha" operator="arithmetic" k2="-1" k3="1"/>
<feColorMatrix type="matrix" values="0 0 0 0 0.00392157 0 0 0 0 0.0196078 0 0 0 0 0.0862745 0 0 0 0.16 0"/>
<feBlend mode="normal" in2="shape" result="effect1_innerShadow_6791_10351"/>
</filter>
</defs>
</svg>
