<svg width="20" height="20" viewBox="0 0 20 20" fill="none" xmlns="http://www.w3.org/2000/svg">
<path d="M17.4998 11.6665V12.9164M11.6665 17.4998V16.2496M14.1665 17.4998H15.4998C16.6044 17.4998 17.4998 16.6044 17.4998 15.4998V15.2084M14.9998 11.6665L13.6663 11.6667C12.5618 11.6668 11.6665 12.5622 11.6665 13.6667V13.969" stroke="white" stroke-width="1.2" stroke-linecap="round"/>
<path d="M6.33333 17.4998H4.5C3.39543 17.4998 2.5 16.6044 2.5 15.4998V13.6665C2.5 12.5619 3.39543 11.6665 4.5 11.6665H6.33333C7.4379 11.6665 8.33333 12.5619 8.33333 13.6665V15.4998C8.33333 16.6044 7.4379 17.4998 6.33333 17.4998Z" stroke="#EEEEEE" stroke-width="1.2" stroke-linecap="round" stroke-linejoin="round"/>
<path d="M15.4998 8.33333H13.6665C12.5619 8.33333 11.6665 7.4379 11.6665 6.33333V4.5C11.6665 3.39543 12.5619 2.5 13.6665 2.5H15.4998C16.6044 2.5 17.4998 3.39543 17.4998 4.5V6.33333C17.4998 7.4379 16.6044 8.33333 15.4998 8.33333Z" stroke="#EEEEEE" stroke-width="1.2" stroke-linecap="round" stroke-linejoin="round"/>
<path d="M6.33333 8.33333H4.5C3.39543 8.33333 2.5 7.4379 2.5 6.33333V4.5C2.5 3.39543 3.39543 2.5 4.5 2.5H6.33333C7.4379 2.5 8.33333 3.39543 8.33333 4.5V6.33333C8.33333 7.4379 7.4379 8.33333 6.33333 8.33333Z" stroke="#EEEEEE" stroke-width="1.2" stroke-linecap="round" stroke-linejoin="round"/>
</svg>
