<svg width="32" height="32" viewBox="0 0 32 32" fill="none" xmlns="http://www.w3.org/2000/svg">
<path d="M9.43843 23.4443H8.50382C8.16174 23.4443 7.88685 23.1693 7.88685 22.8271V21.8921C7.88685 21.4032 8.08233 20.9387 8.42441 20.5965L12.4438 16.5815L14.7529 18.8915L10.7396 22.9126C10.3975 23.2548 9.92711 23.4504 9.44454 23.4504L9.43843 23.4443ZM17.1902 16.4532C17.8255 15.8176 17.8255 14.7848 17.1902 14.1432C16.5549 13.5076 15.5226 13.5076 14.8812 14.1432L13.7389 15.2859L16.0479 17.5959L17.1902 16.4532ZM16.7504 26.4998C16.6465 26.4998 16.5305 26.3471 16.2922 25.9926C15.9379 25.4671 15.4065 24.6665 14.307 24.6665C13.2074 24.6665 12.676 25.4609 12.3217 25.9926C11.8452 26.7076 11.8819 26.7076 11.4054 25.9926C11.0511 25.4671 10.5196 24.6665 9.4201 24.6665C8.43662 24.6665 7.91129 25.3082 7.52645 25.7787C7.12939 26.2615 6.91559 26.4998 6.36582 26.4998C5.52284 26.4998 4.83868 25.8154 4.83868 24.9721C4.83868 24.2754 5.30904 23.6643 5.98098 23.4932C6.46967 23.3648 6.76899 22.8698 6.64071 22.3748C6.51243 21.8798 6.01763 21.5926 5.52284 21.7148C4.03846 22.0998 3 23.4382 3 24.9721C3 26.8237 4.50882 28.3332 6.35971 28.3332C7.80133 28.3332 8.48549 27.4959 8.93753 26.9398C9.2063 26.6098 9.31626 26.4998 9.41399 26.4998C9.51784 26.4998 9.6339 26.6526 9.87214 27.0071C10.2264 27.5326 10.7579 28.3332 11.8574 28.3332C12.957 28.3332 13.4884 27.5387 13.8427 27.0071C14.3192 26.2921 14.2825 26.2921 14.759 27.0071C15.1133 27.5326 15.6447 28.3332 16.7443 28.3332C17.2513 28.3332 17.6606 27.9237 17.6606 27.4165C17.6606 26.9093 17.2513 26.4998 16.7443 26.4998H16.7504Z" fill="#0CC2FF"/>
<g filter="url(#filter0_bi_6825_12741)">
<mask id="path-2-inside-1_6825_12741" fill="white">
<path fill-rule="evenodd" clip-rule="evenodd" d="M17.4474 12.5764C17.8115 12.7437 18.2424 12.8089 18.5714 12.58C19.9496 11.6212 20.8407 10.0624 20.8407 8.29146C20.8407 5.35401 18.3888 3 15.3293 3C12.2708 3 9.81784 5.35401 9.81784 8.29146C9.81784 10.6632 11.4169 12.6545 13.6427 13.3336C13.9293 13.4211 14.2358 13.3263 14.4477 13.1144C15.2589 12.3032 16.4626 12.1239 17.4474 12.5764ZM8.88323 18.6789C9.57181 17.9903 8.96448 16.9345 8.16122 17.485C7.42636 17.9886 7 18.6685 7 19.5749C7 20.0423 7.59917 20.0216 7.90452 19.6678C7.94741 19.6182 7.99243 19.5697 8.03959 19.5225L8.88323 18.6789ZM14.3411 22.988C13.4993 22.9667 13.1346 21.97 13.7301 21.3745L18.219 16.8856C18.2278 16.8767 18.2366 16.8678 18.2454 16.8588C18.5223 16.5741 18.8959 16.3658 19.2886 16.4256C21.8686 16.8185 23.6585 17.7359 23.6585 19.6005C23.6585 22.3197 19.8216 23 15.3292 23C14.9956 23 14.6658 22.9962 14.3411 22.988ZM21.7743 12.4385C22.5949 11.2791 23.0629 9.88326 23.0629 8.38739C23.0629 6.82443 22.5528 5.36902 21.6645 4.17338C21.6357 4.13612 21.6146 4.07969 21.6434 4.03604C21.6656 4.00197 21.71 3.9828 21.751 3.97429C22.0504 3.91573 22.3576 3.88379 22.6781 3.88379C25.6334 3.88379 27.9533 6.55188 27.1626 9.5234C26.6292 11.5261 24.6986 12.8558 22.5472 12.8015C22.331 12.7973 22.1192 12.7771 21.9129 12.7441C21.7643 12.7185 21.6889 12.5577 21.7743 12.4385ZM29.4163 16.5214C29.0227 15.7154 28.0723 15.1629 26.6262 14.8914C25.9442 14.7317 24.0967 14.5049 22.379 14.5368C22.3535 14.54 22.3391 14.5571 22.3369 14.5677C22.3335 14.5847 22.3413 14.6103 22.3746 14.6284C23.1686 15.0053 26.237 16.6449 25.8511 20.103C25.8345 20.2542 25.9598 20.3819 26.1161 20.3606C26.8713 20.2574 28.8142 19.856 29.4163 18.6082C29.7501 17.9481 29.7501 17.1815 29.4163 16.5214Z"/>
</mask>
<path fill-rule="evenodd" clip-rule="evenodd" d="M17.4474 12.5764C17.8115 12.7437 18.2424 12.8089 18.5714 12.58C19.9496 11.6212 20.8407 10.0624 20.8407 8.29146C20.8407 5.35401 18.3888 3 15.3293 3C12.2708 3 9.81784 5.35401 9.81784 8.29146C9.81784 10.6632 11.4169 12.6545 13.6427 13.3336C13.9293 13.4211 14.2358 13.3263 14.4477 13.1144C15.2589 12.3032 16.4626 12.1239 17.4474 12.5764ZM8.88323 18.6789C9.57181 17.9903 8.96448 16.9345 8.16122 17.485C7.42636 17.9886 7 18.6685 7 19.5749C7 20.0423 7.59917 20.0216 7.90452 19.6678C7.94741 19.6182 7.99243 19.5697 8.03959 19.5225L8.88323 18.6789ZM14.3411 22.988C13.4993 22.9667 13.1346 21.97 13.7301 21.3745L18.219 16.8856C18.2278 16.8767 18.2366 16.8678 18.2454 16.8588C18.5223 16.5741 18.8959 16.3658 19.2886 16.4256C21.8686 16.8185 23.6585 17.7359 23.6585 19.6005C23.6585 22.3197 19.8216 23 15.3292 23C14.9956 23 14.6658 22.9962 14.3411 22.988ZM21.7743 12.4385C22.5949 11.2791 23.0629 9.88326 23.0629 8.38739C23.0629 6.82443 22.5528 5.36902 21.6645 4.17338C21.6357 4.13612 21.6146 4.07969 21.6434 4.03604C21.6656 4.00197 21.71 3.9828 21.751 3.97429C22.0504 3.91573 22.3576 3.88379 22.6781 3.88379C25.6334 3.88379 27.9533 6.55188 27.1626 9.5234C26.6292 11.5261 24.6986 12.8558 22.5472 12.8015C22.331 12.7973 22.1192 12.7771 21.9129 12.7441C21.7643 12.7185 21.6889 12.5577 21.7743 12.4385ZM29.4163 16.5214C29.0227 15.7154 28.0723 15.1629 26.6262 14.8914C25.9442 14.7317 24.0967 14.5049 22.379 14.5368C22.3535 14.54 22.3391 14.5571 22.3369 14.5677C22.3335 14.5847 22.3413 14.6103 22.3746 14.6284C23.1686 15.0053 26.237 16.6449 25.8511 20.103C25.8345 20.2542 25.9598 20.3819 26.1161 20.3606C26.8713 20.2574 28.8142 19.856 29.4163 18.6082C29.7501 17.9481 29.7501 17.1815 29.4163 16.5214Z" fill="black" fill-opacity="0.1"/>
<path fill-rule="evenodd" clip-rule="evenodd" d="M17.4474 12.5764C17.8115 12.7437 18.2424 12.8089 18.5714 12.58C19.9496 11.6212 20.8407 10.0624 20.8407 8.29146C20.8407 5.35401 18.3888 3 15.3293 3C12.2708 3 9.81784 5.35401 9.81784 8.29146C9.81784 10.6632 11.4169 12.6545 13.6427 13.3336C13.9293 13.4211 14.2358 13.3263 14.4477 13.1144C15.2589 12.3032 16.4626 12.1239 17.4474 12.5764ZM8.88323 18.6789C9.57181 17.9903 8.96448 16.9345 8.16122 17.485C7.42636 17.9886 7 18.6685 7 19.5749C7 20.0423 7.59917 20.0216 7.90452 19.6678C7.94741 19.6182 7.99243 19.5697 8.03959 19.5225L8.88323 18.6789ZM14.3411 22.988C13.4993 22.9667 13.1346 21.97 13.7301 21.3745L18.219 16.8856C18.2278 16.8767 18.2366 16.8678 18.2454 16.8588C18.5223 16.5741 18.8959 16.3658 19.2886 16.4256C21.8686 16.8185 23.6585 17.7359 23.6585 19.6005C23.6585 22.3197 19.8216 23 15.3292 23C14.9956 23 14.6658 22.9962 14.3411 22.988ZM21.7743 12.4385C22.5949 11.2791 23.0629 9.88326 23.0629 8.38739C23.0629 6.82443 22.5528 5.36902 21.6645 4.17338C21.6357 4.13612 21.6146 4.07969 21.6434 4.03604C21.6656 4.00197 21.71 3.9828 21.751 3.97429C22.0504 3.91573 22.3576 3.88379 22.6781 3.88379C25.6334 3.88379 27.9533 6.55188 27.1626 9.5234C26.6292 11.5261 24.6986 12.8558 22.5472 12.8015C22.331 12.7973 22.1192 12.7771 21.9129 12.7441C21.7643 12.7185 21.6889 12.5577 21.7743 12.4385ZM29.4163 16.5214C29.0227 15.7154 28.0723 15.1629 26.6262 14.8914C25.9442 14.7317 24.0967 14.5049 22.379 14.5368C22.3535 14.54 22.3391 14.5571 22.3369 14.5677C22.3335 14.5847 22.3413 14.6103 22.3746 14.6284C23.1686 15.0053 26.237 16.6449 25.8511 20.103C25.8345 20.2542 25.9598 20.3819 26.1161 20.3606C26.8713 20.2574 28.8142 19.856 29.4163 18.6082C29.7501 17.9481 29.7501 17.1815 29.4163 16.5214Z" fill="url(#paint0_linear_6825_12741)"/>
<path d="M8.03959 19.5225L7.68604 19.169H7.68604L8.03959 19.5225ZM18.219 16.8856L17.8654 16.5321L18.219 16.8856ZM21.7743 12.4385L22.1808 12.7296L22.1824 12.7273L21.7743 12.4385ZM21.6645 4.17338L22.0659 3.87515L22.0599 3.86741L21.6645 4.17338ZM21.6434 4.03604L22.0606 4.31161L22.0625 4.30882L21.6434 4.03604ZM21.751 3.97429L21.655 3.48355L21.6494 3.48472L21.751 3.97429ZM27.1626 9.5234L27.6458 9.65209L27.6458 9.65197L27.1626 9.5234ZM22.5472 12.8015L22.5598 12.3017L22.5571 12.3016L22.5472 12.8015ZM21.9129 12.7441L21.8282 13.2369L21.8339 13.2378L21.9129 12.7441ZM26.6262 14.8914L26.5122 15.3782L26.5231 15.3807L26.534 15.3828L26.6262 14.8914ZM29.4163 16.5214L28.967 16.7409L28.9701 16.747L29.4163 16.5214ZM22.379 14.5368L22.3697 14.0369L22.3432 14.0374L22.3169 14.0407L22.379 14.5368ZM22.3369 14.5677L21.8473 14.4658L21.8461 14.4719L22.3369 14.5677ZM22.3746 14.6284L22.1356 15.0676L22.1477 15.0742L22.1602 15.0801L22.3746 14.6284ZM25.8511 20.103L25.3542 20.0475L25.3541 20.0483L25.8511 20.103ZM26.1161 20.3606L26.1836 20.8561L26.1839 20.856L26.1161 20.3606ZM29.4163 18.6082L28.97 18.3825L28.966 18.3909L29.4163 18.6082ZM7.90452 19.6678L8.28304 19.9945L7.90452 19.6678ZM8.16122 17.485L7.87856 17.0725L8.16122 17.485ZM8.88323 18.6789L8.52967 18.3253L8.88323 18.6789ZM13.6427 13.3336L13.7886 12.8554L13.6427 13.3336ZM13.7301 21.3745L14.0836 21.7281L13.7301 21.3745ZM14.3411 22.988L14.3538 22.4881L14.3411 22.988ZM18.2454 16.8588L18.6038 17.2075L18.2454 16.8588ZM19.2886 16.4256L19.2134 16.9199L19.2886 16.4256ZM18.5714 12.58L18.8569 12.9905L18.5714 12.58ZM17.4474 12.5764L17.2386 13.0307L17.4474 12.5764ZM20.3407 8.29146C20.3407 9.88828 19.5384 11.2981 18.2858 12.1696L18.8569 12.9905C20.3607 11.9443 21.3407 10.2364 21.3407 8.29146H20.3407ZM15.3293 3.5C18.1321 3.5 20.3407 5.64915 20.3407 8.29146H21.3407C21.3407 5.05887 18.6456 2.5 15.3293 2.5V3.5ZM10.3178 8.29146C10.3178 5.64921 12.5275 3.5 15.3293 3.5V2.5C12.0141 2.5 9.31784 5.0588 9.31784 8.29146H10.3178ZM13.7886 12.8554C11.7575 12.2357 10.3178 10.4272 10.3178 8.29146H9.31784C9.31784 10.8991 11.0764 13.0734 13.4968 13.8119L13.7886 12.8554ZM14.8013 13.4679C15.4598 12.8094 16.4378 12.6627 17.2386 13.0307L17.6561 12.1221C16.4875 11.585 15.058 11.797 14.0942 12.7608L14.8013 13.4679ZM7.5 19.5749C7.5 18.8592 7.82226 18.3234 8.44388 17.8974L7.87856 17.0725C7.03045 17.6538 6.5 18.4778 6.5 19.5749H7.5ZM8.28304 19.9945C8.31794 19.9541 8.35464 19.9146 8.39314 19.8761L7.68604 19.169C7.63022 19.2248 7.57687 19.2822 7.526 19.3412L8.28304 19.9945ZM8.39314 19.8761L9.23678 19.0324L8.52967 18.3253L7.68604 19.169L8.39314 19.8761ZM17.8654 16.5321L13.3765 21.021L14.0836 21.7281L18.5725 17.2392L17.8654 16.5321ZM17.887 16.5102C17.8798 16.5175 17.8727 16.5248 17.8654 16.5321L18.5725 17.2392C18.583 17.2287 18.5934 17.2181 18.6038 17.2075L17.887 16.5102ZM19.2134 16.9199C20.4756 17.1121 21.4837 17.4254 22.1644 17.8776C22.8202 18.3133 23.1585 18.8639 23.1585 19.6005H24.1585C24.1585 18.4724 23.6018 17.632 22.7177 17.0447C21.8584 16.4738 20.6816 16.132 19.3639 15.9313L19.2134 16.9199ZM23.1585 19.6005C23.1585 20.1482 22.9707 20.577 22.6287 20.9319C22.2749 21.2991 21.7371 21.6052 21.0195 21.8459C19.5793 22.3289 17.5647 22.5 15.3292 22.5V23.5C17.586 23.5 19.7362 23.331 21.3375 22.794C22.1406 22.5247 22.8429 22.1508 23.3488 21.6257C23.8666 21.0883 24.1585 20.4123 24.1585 19.6005H23.1585ZM15.3292 22.5C14.9994 22.5 14.6739 22.4962 14.3538 22.4881L14.3285 23.4878C14.6578 23.4961 14.9918 23.5 15.3292 23.5V22.5ZM22.5629 8.38739C22.5629 9.77701 22.1286 11.0724 21.3662 12.1496L22.1824 12.7273C23.0612 11.4858 23.5629 9.98951 23.5629 8.38739H22.5629ZM21.2631 4.47156C22.0896 5.58395 22.5629 6.93549 22.5629 8.38739H23.5629C23.5629 6.71338 23.016 5.15408 22.0659 3.8752L21.2631 4.47156ZM21.2262 3.76047C21.1188 3.92313 21.118 4.09488 21.1438 4.21335C21.1683 4.32626 21.2203 4.4164 21.269 4.47936L22.0599 3.86741C22.0798 3.89309 22.1069 3.9364 22.1209 4.00085C22.1361 4.07089 22.1392 4.19259 22.0606 4.31161L21.2262 3.76047ZM21.6494 3.48472C21.5656 3.50211 21.3567 3.55995 21.2244 3.76326L22.0625 4.30882C22.0143 4.38281 21.9561 4.4204 21.9252 4.43689C21.893 4.45401 21.8672 4.46082 21.8526 4.46385L21.6494 3.48472ZM22.6781 3.38379C22.3238 3.38379 21.9845 3.41914 21.655 3.48358L21.847 4.46499C22.1163 4.41231 22.3913 4.38379 22.6781 4.38379V3.38379ZM27.6458 9.65197C28.5295 6.33083 25.9276 3.38379 22.6781 3.38379V4.38379C25.3392 4.38379 27.3771 6.77292 26.6794 9.39483L27.6458 9.65197ZM22.5346 13.3014C24.8918 13.3609 27.0466 11.9018 27.6458 9.65209L26.6795 9.39471C26.2119 11.1503 24.5053 12.3508 22.5598 12.3017L22.5346 13.3014ZM21.8339 13.2378C22.0614 13.2742 22.2964 13.2967 22.5374 13.3015L22.5571 12.3016C22.3656 12.2979 22.1769 12.2799 21.9919 12.2503L21.8339 13.2378ZM21.3678 12.1474C21.0382 12.6077 21.367 13.1575 21.8282 13.2368L21.9976 12.2513C22.0869 12.2666 22.1686 12.3271 22.2103 12.4178C22.2536 12.5123 22.249 12.6343 22.1808 12.7296L21.3678 12.1474ZM26.534 15.3828C27.9255 15.6441 28.6779 16.1489 28.9671 16.7408L29.8656 16.302C29.3674 15.282 28.219 14.6817 26.7185 14.4L26.534 15.3828ZM22.3883 15.0367C24.072 15.0054 25.8773 15.2295 26.5122 15.3782L26.7402 14.4045C26.0112 14.2338 24.1215 14.0043 22.3697 14.0369L22.3883 15.0367ZM22.8264 14.6697C22.7988 14.8017 22.7253 14.8861 22.6724 14.931C22.608 14.9855 22.528 15.0221 22.4411 15.033L22.3169 14.0407C22.2044 14.0548 22.1045 14.1015 22.026 14.168C21.9589 14.2248 21.8771 14.323 21.8474 14.4658L22.8264 14.6697ZM22.6135 14.1892C22.738 14.2569 22.8731 14.4308 22.8276 14.6636L21.8461 14.4719C21.794 14.7387 21.9446 14.9637 22.1356 15.0676L22.6135 14.1892ZM26.348 20.1584C26.5606 18.2529 25.8147 16.8406 24.9233 15.8717C24.0418 14.9136 23.0096 14.3764 22.589 14.1767L22.1602 15.0801C22.5335 15.2573 23.4326 15.7284 24.1873 16.5488C24.9322 17.3584 25.5274 18.4949 25.3542 20.0475L26.348 20.1584ZM26.0487 19.8652C26.2216 19.8417 26.3663 19.9926 26.3481 20.1577L25.3541 20.0483C25.3027 20.5158 25.6979 20.9222 26.1836 20.8561L26.0487 19.8652ZM28.966 18.3909C28.7452 18.8485 28.2486 19.1985 27.6336 19.4511C27.0323 19.6981 26.4036 19.8167 26.0484 19.8652L26.1839 20.856C26.5838 20.8013 27.3042 20.6675 28.0136 20.3761C28.7094 20.0903 29.4853 19.6157 29.8666 18.8255L28.966 18.3909ZM28.9701 16.747C29.2322 17.2653 29.2322 17.8643 28.9701 18.3825L29.8625 18.8338C30.268 18.0318 30.268 17.0977 29.8625 16.2958L28.9701 16.747ZM6.5 19.5749C6.5 19.8045 6.57733 20.03 6.75289 20.1978C6.9213 20.3588 7.13105 20.42 7.31374 20.4287C7.66673 20.4457 8.0376 20.2789 8.28304 19.9945L7.526 19.3412C7.50025 19.371 7.4662 19.3958 7.43002 19.412C7.39225 19.4289 7.36672 19.4301 7.36177 19.4299C7.35649 19.4296 7.39737 19.4305 7.44389 19.4749C7.46704 19.4971 7.48302 19.5225 7.49207 19.5457C7.50072 19.5678 7.5 19.5799 7.5 19.5749H6.5ZM8.44388 17.8974C8.55741 17.8196 8.61011 17.8324 8.61021 17.8324C8.61304 17.833 8.63043 17.8365 8.6512 17.8716C8.69316 17.9426 8.7242 18.1308 8.52967 18.3253L9.23678 19.0324C9.73084 18.5384 9.80251 17.8543 9.51213 17.3629C9.36674 17.1168 9.12471 16.9165 8.80927 16.8525C8.4911 16.7878 8.16666 16.8751 7.87856 17.0725L8.44388 17.8974ZM13.4968 13.8119C13.9824 13.96 14.476 13.7932 14.8013 13.4679L14.0942 12.7608C13.9956 12.8594 13.8762 12.8821 13.7886 12.8554L13.4968 13.8119ZM13.3765 21.021C12.4971 21.9003 13.0099 23.4545 14.3285 23.4878L14.3538 22.4881C13.9887 22.4789 13.7721 22.0396 14.0836 21.7281L13.3765 21.021ZM18.6038 17.2075C18.8261 16.9789 19.0477 16.8947 19.2134 16.9199L19.3639 15.9313C18.7442 15.837 18.2186 16.1693 17.887 16.5102L18.6038 17.2075ZM18.2858 12.1696C18.176 12.246 17.9625 12.2629 17.6561 12.1221L17.2386 13.0307C17.6605 13.2246 18.3088 13.3718 18.8569 12.9905L18.2858 12.1696Z" fill="url(#paint1_linear_6825_12741)" fill-opacity="0.4" mask="url(#path-2-inside-1_6825_12741)"/>
</g>
<defs>
<filter id="filter0_bi_6825_12741" x="0.379311" y="-3.62069" width="35.9079" height="33.2414" filterUnits="userSpaceOnUse" color-interpolation-filters="sRGB">
<feFlood flood-opacity="0" result="BackgroundImageFix"/>
<feGaussianBlur in="BackgroundImageFix" stdDeviation="3.31034"/>
<feComposite in2="SourceAlpha" operator="in" result="effect1_backgroundBlur_6825_12741"/>
<feBlend mode="normal" in="SourceGraphic" in2="effect1_backgroundBlur_6825_12741" result="shape"/>
<feColorMatrix in="SourceAlpha" type="matrix" values="0 0 0 0 0 0 0 0 0 0 0 0 0 0 0 0 0 0 127 0" result="hardAlpha"/>
<feOffset dy="2.2069"/>
<feGaussianBlur stdDeviation="1.65517"/>
<feComposite in2="hardAlpha" operator="arithmetic" k2="-1" k3="1"/>
<feColorMatrix type="matrix" values="0 0 0 0 1 0 0 0 0 1 0 0 0 0 1 0 0 0 0.4 0"/>
<feBlend mode="normal" in2="shape" result="effect2_innerShadow_6825_12741"/>
</filter>
<linearGradient id="paint0_linear_6825_12741" x1="29.5241" y1="19.6583" x2="24.6853" y2="14.3861" gradientUnits="userSpaceOnUse">
<stop stop-color="#0CC2FF" stop-opacity="0.29"/>
<stop offset="1" stop-color="#0CC2FF"/>
</linearGradient>
<linearGradient id="paint1_linear_6825_12741" x1="29.5241" y1="19.6583" x2="24.6853" y2="14.3861" gradientUnits="userSpaceOnUse">
<stop stop-color="#96E5FF"/>
<stop offset="1" stop-color="#0CC2FF"/>
</linearGradient>
</defs>
</svg>
