<svg width="32" height="32" viewBox="0 0 32 32" fill="none" xmlns="http://www.w3.org/2000/svg">
<g filter="url(#filter0_b_8045_3293)">
<ellipse cx="16.0005" cy="16" rx="16" ry="16" fill="url(#paint0_linear_8045_3293)" fill-opacity="0.05"/>
</g>
<path d="M32.0005 16C32.0005 24.8365 24.837 32 16.0005 32C7.16393 32 0.000488281 24.8365 0.000488281 16C0.000488281 7.16344 7.16393 0 16.0005 0C24.837 0 32.0005 7.16344 32.0005 16ZM0.94364 16C0.94364 24.3156 7.68482 31.0568 16.0005 31.0568C24.3162 31.0568 31.0573 24.3156 31.0573 16C31.0573 7.68432 24.3162 0.943151 16.0005 0.943151C7.68482 0.943151 0.94364 7.68432 0.94364 16Z" fill="url(#paint1_linear_8045_3293)"/>
<g filter="url(#filter1_d_8045_3293)">
<path d="M22.294 9.6104V22.4046H9.71376V24.5326H24.4201V9.6104H22.294ZM22.294 9.6104V7.4668H10.2518C8.62908 7.4668 7.58008 8.79563 7.58008 10.3505V22.4046H9.71376V11.7333C9.71376 10.0271 10.189 9.6104 11.8307 9.6104H22.294Z" fill="url(#paint2_linear_8045_3293)"/>
</g>
<defs>
<filter id="filter0_b_8045_3293" x="-2.5668" y="-2.56729" width="37.1346" height="37.1346" filterUnits="userSpaceOnUse" color-interpolation-filters="sRGB">
<feFlood flood-opacity="0" result="BackgroundImageFix"/>
<feGaussianBlur in="BackgroundImageFix" stdDeviation="1.28364"/>
<feComposite in2="SourceAlpha" operator="in" result="effect1_backgroundBlur_8045_3293"/>
<feBlend mode="normal" in="SourceGraphic" in2="effect1_backgroundBlur_8045_3293" result="shape"/>
</filter>
<filter id="filter1_d_8045_3293" x="7.24473" y="7.4668" width="17.5105" height="17.7366" filterUnits="userSpaceOnUse" color-interpolation-filters="sRGB">
<feFlood flood-opacity="0" result="BackgroundImageFix"/>
<feColorMatrix in="SourceAlpha" type="matrix" values="0 0 0 0 0 0 0 0 0 0 0 0 0 0 0 0 0 0 127 0" result="hardAlpha"/>
<feOffset dy="0.335346"/>
<feGaussianBlur stdDeviation="0.167673"/>
<feComposite in2="hardAlpha" operator="out"/>
<feColorMatrix type="matrix" values="0 0 0 0 0 0 0 0 0 0 0 0 0 0 0 0 0 0 0.25 0"/>
<feBlend mode="normal" in2="BackgroundImageFix" result="effect1_dropShadow_8045_3293"/>
<feBlend mode="normal" in="SourceGraphic" in2="effect1_dropShadow_8045_3293" result="shape"/>
</filter>
<linearGradient id="paint0_linear_8045_3293" x1="16.0005" y1="0" x2="16.0005" y2="32" gradientUnits="userSpaceOnUse">
<stop stop-color="#38CDFF"/>
<stop offset="1" stop-color="#66D9FF"/>
</linearGradient>
<linearGradient id="paint1_linear_8045_3293" x1="16.0005" y1="0" x2="16.0005" y2="32" gradientUnits="userSpaceOnUse">
<stop stop-color="#38BDEE"/>
<stop offset="1" stop-color="#004471"/>
</linearGradient>
<linearGradient id="paint2_linear_8045_3293" x1="7.58112" y1="7.6897" x2="24.6512" y2="25.0664" gradientUnits="userSpaceOnUse">
<stop stop-color="#67D7FF"/>
<stop offset="1" stop-color="#00BBFF"/>
</linearGradient>
</defs>
</svg>
