<svg width="130" height="50" viewBox="0 0 130 50" fill="none"
  xmlns="http://www.w3.org/2000/svg">
  <path d="M21.4487 15.4275C21.597 8.08512 17.4394 1.68709 15.2738 0.149401C15.264 0.1395 15.0711 0.0356815 15.0859 0.322456C15.0859 0.327382 15.081 0.327382 15.081 0.332332C14.8586 14.2014 7.72951 17.9393 3.85858 23.0221C-4.74364 34.3248 2.4347 47.2198 11.7339 49.6622C11.8923 49.7019 12.3224 49.8304 13.1381 49.9984C13.5633 50.0876 13.6869 49.7265 13.3753 49.1876C12.263 47.2543 10.2854 43.991 9.89503 39.7982C9.00513 30.0627 21.2756 23.9713 21.4487 15.4275Z" fill="white"/>
  <path d="M26.1364 20.1297C26.0623 20.0753 25.9586 20.0802 25.9488 20.174C25.751 21.9393 23.9266 25.5982 21.5239 29.0196C13.4357 40.5548 17.5096 45.7859 20.6736 49.4152C21.2569 50.0876 21.5485 49.9393 21.8552 49.4598C22.1419 49.0048 22.5768 48.4263 24.4458 47.5413C24.7374 47.4029 31.7973 43.6551 32.5635 35.1211C33.3002 26.864 28.0052 21.6425 26.1364 20.1297Z" fill="#008CD6"/>
  <path d="M68.1316 18.0281V48.3815H61.6205V36.1197H49.1077V48.3815H42.4336V18.0281H49.1077V30.2901H61.6205V18.0281H68.1316Z" fill="white"/>
  <path d="M98.2361 18.0281V24.0305H95.1364H88.8874V48.3766H82.1886V24.0305H76.1076H73.0078V18.0281H98.2361Z" fill="white"/>
  <path fill-rule="evenodd" clip-rule="evenodd" d="M121.946 48.4113L114.293 37.85L106.699 48.3667L99.2734 48.3766L110.531 32.881L99.9062 18.0281H107.327L129.337 48.4113H121.946Z" fill="white"/>
  <path d="M116.375 24.8217L120.048 29.9244L128.75 18.0232H121.368L116.375 24.8217Z" fill="#008CD6"/>
</svg>
