<svg width="185" height="44" viewBox="0 0 185 44" fill="none" xmlns="http://www.w3.org/2000/svg">
<g clip-path="url(#clip0_557_14085)">
<mask id="mask0_557_14085" style="mask-type:luminance" maskUnits="userSpaceOnUse" x="0" y="0" width="185" height="44">
<path d="M185 0H0V43.9082H185V0Z" fill="white"/>
</mask>
<g mask="url(#mask0_557_14085)">
<path d="M34.0867 33.1841C32.9489 31.5663 31.3605 30.7812 28.6086 31.1067C28.5339 31.0205 28.7565 30.7482 28.9692 30.4689C29.858 29.2691 30.5247 29.2035 30.606 26.7037C30.0987 23.3975 28.9706 22.138 26.594 19.7376L26.5936 19.7368C26.2543 17.3511 26.1351 16.8747 24.5344 14.7977L24.5341 14.7971C24.3797 14.4706 24.8379 14.3325 24.903 13.6345C25.0767 11.7037 25.5267 8.50738 23.7398 7.95894C23.3947 7.44767 23.5551 6.32502 21.9467 4.64732C20.3425 3.13194 19.9225 2.9846 17.5035 3.28877L17.5025 3.28861C16.6061 2.81854 11.6928 3.30908 11.3414 7.1687C11.2505 7.81 11.1049 7.87674 10.1816 8.49555C9.25837 9.11443 9.95616 12.716 9.95616 12.716C9.91893 12.7818 10.3968 14.9643 9.75102 15.5125C9.74482 15.5178 9.73838 15.5223 9.73147 15.5268C9.17741 15.8889 8.20879 17.5314 8.26259 19.4802C8.05031 20.1301 6.51499 21.3068 6.17502 21.8814C6.01279 22.1615 5.22993 23.1581 4.6334 24.2831C3.85278 26.3541 3.58988 27.9831 4.67767 29.5043C4.67767 29.5043 5.38756 30.2922 5.88165 30.6868C6.289 31.0095 6.71866 31.8037 6.85964 32.0776C6.87743 32.1124 6.84523 32.1528 6.80613 32.1424C6.42418 32.0373 5.00041 31.7036 3.39543 32.0589C0.834994 32.7359 -0.603141 34.8715 0.243057 38.1918C0.893667 40.0258 2.26392 40.783 5.11706 42.1304C6.46984 43.0673 6.38859 43.2989 8.15551 43.8636C8.85389 43.9866 9.86712 43.8178 9.86712 43.8178C9.86712 43.8178 10.9394 43.5774 11.9242 43.283C14.5963 42.9556 20.6301 44.0168 23.1773 43.6872C23.6283 43.7309 25.4035 43.1965 25.8896 42.6693C26.2239 42.3582 26.9889 41.6082 27.372 40.9322C27.4066 40.8713 27.4681 40.8299 27.5372 40.8203C28.5893 40.7349 31.3512 40.1449 32.2984 39.3098C34.2349 37.8329 35.0117 35.7544 34.0867 33.1841ZM28.4804 23.9014C29.2017 25.4583 29.3255 26.0542 29.3467 26.2025C29.3944 26.4746 29.4916 26.9018 29.471 27.577C29.4117 28.2661 29.042 28.8775 28.8301 29.1681C28.6237 29.3232 27.2165 31.0918 26.0287 31.7176C25.8992 31.5693 27.7816 26.2078 25.8607 25.7074C25.3177 25.5694 24.1424 25.697 24.3334 25.4267C24.6296 24.9534 25.5189 23.4241 26.1955 21.1323C26.5447 21.0853 27.7245 22.3791 28.4804 23.9014ZM9.65753 31.434C9.61614 31.2771 9.5131 30.8715 9.37505 30.2626C9.37505 30.2606 9.37446 30.259 9.37388 30.2568C9.22547 29.6017 9.03737 28.7112 8.84294 27.6409C8.84236 27.6374 8.84177 27.6341 8.84118 27.6305C8.83949 27.6231 8.83773 27.6151 8.83662 27.6069C8.83662 27.6069 8.83662 27.6063 8.83603 27.6058C8.83545 27.6 8.83199 27.5726 8.82854 27.5287C8.82737 27.5172 8.82626 27.504 8.82567 27.4903C8.82052 27.4115 8.81759 27.2993 8.82737 27.1825C8.82854 27.1664 8.83024 27.1498 8.83199 27.1337C8.83375 27.117 8.83603 27.1003 8.83832 27.0836C8.8389 27.0796 8.83949 27.0762 8.84001 27.0727C8.84294 27.0537 8.8464 27.0348 8.85044 27.0163C8.85213 27.0066 8.85442 26.9974 8.8567 26.9882C8.85845 26.9795 8.86015 26.9715 8.86308 26.9634C8.86478 26.9548 8.86706 26.9467 8.86993 26.9387C8.87227 26.9295 8.87514 26.9203 8.87859 26.9111C8.88316 26.8984 8.88779 26.8864 8.89241 26.8743C8.89698 26.8622 8.90219 26.8507 8.90793 26.8392C8.91829 26.8191 8.92924 26.7995 8.9413 26.7817C8.96026 26.7633 8.98216 26.746 9.00628 26.7294C9.02642 26.7155 9.04773 26.7023 9.07126 26.6902C9.08508 26.6828 9.0989 26.6753 9.11388 26.6684C9.12483 26.6626 9.13631 26.6575 9.14784 26.6528C9.17137 26.6414 9.19614 26.6316 9.22202 26.6224C9.23636 26.6167 9.25135 26.6114 9.26686 26.6068C9.28302 26.6011 9.2997 26.5959 9.31692 26.5907C9.3336 26.5856 9.35087 26.5804 9.36873 26.5758C9.38307 26.5718 9.39747 26.5677 9.41187 26.5643C9.43371 26.5585 9.45555 26.5534 9.47862 26.5482C9.49583 26.5442 9.51368 26.5401 9.53148 26.5367C9.5378 26.535 9.54418 26.5338 9.55103 26.5326C9.55853 26.5309 9.56602 26.5292 9.57352 26.5281C9.60285 26.5223 9.63329 26.5165 9.66438 26.5114C9.669 26.5102 9.67415 26.5096 9.67878 26.5091C9.69312 26.5062 9.70811 26.5039 9.72362 26.5016C9.78404 26.4918 9.84791 26.4832 9.91407 26.4757C9.92788 26.474 9.94223 26.4723 9.95663 26.4705C9.97905 26.4677 10.0021 26.4654 10.0251 26.4631C10.0717 26.4579 10.1189 26.4538 10.1677 26.4493C10.1798 26.4481 10.1919 26.4469 10.2046 26.4464C10.2166 26.4452 10.2293 26.4447 10.242 26.4435C10.2753 26.4406 10.3092 26.4383 10.3437 26.436C10.3909 26.4326 10.4393 26.4297 10.4887 26.4268C10.6176 26.4194 10.7539 26.4136 10.8977 26.4096C10.9374 26.4084 10.9783 26.4073 11.0191 26.4061C11.0847 26.405 11.1514 26.4033 11.2198 26.4027C11.244 26.4021 11.2682 26.4015 11.2929 26.4015C11.3171 26.4009 11.3418 26.4009 11.3671 26.4009C11.3925 26.4009 11.4184 26.4004 11.4442 26.4004C11.7836 26.3975 12.1547 26.4009 12.5556 26.4078C12.6327 26.409 12.7115 26.4108 12.7909 26.4125C12.9399 26.4153 13.0935 26.4194 13.2505 26.4234C13.3472 26.4257 13.4449 26.4286 13.5439 26.4314C13.6158 26.4332 13.6882 26.4355 13.7614 26.4377C13.8569 26.44 13.954 26.443 14.0524 26.4464C14.0956 26.4481 14.1387 26.4493 14.1824 26.4504C14.2785 26.4533 14.3757 26.4567 14.4747 26.4596C14.5742 26.4631 14.6754 26.466 14.7772 26.4699C14.9826 26.4763 15.1925 26.4838 15.4072 26.4907C15.4894 26.4935 15.5723 26.4964 15.6556 26.4993C15.6666 26.4999 15.6781 26.4999 15.6896 26.5004C15.788 26.5039 15.8875 26.5074 15.9882 26.5108C16.0526 26.5125 16.1176 26.5148 16.1832 26.5171C16.2412 26.5189 16.2994 26.5206 16.3575 26.5229C16.4161 26.5246 16.4754 26.5269 16.5346 26.5286C16.5645 26.5298 16.5945 26.5309 16.6244 26.5315C16.6652 26.5326 16.706 26.5344 16.7469 26.5355C16.8378 26.5384 16.9298 26.5413 17.0225 26.5448C17.2847 26.5528 17.5529 26.5614 17.8266 26.5689C17.9009 26.5712 17.9757 26.5735 18.0504 26.5758C18.2984 26.5827 18.5515 26.5896 18.8086 26.5965C18.938 26.6 19.0686 26.6034 19.1998 26.6063C19.2648 26.6074 19.3303 26.6092 19.3965 26.6109C19.5231 26.6137 19.6508 26.6167 19.7796 26.6189C19.8521 26.6206 19.924 26.6224 19.9971 26.6235C20.1058 26.6258 20.2157 26.6281 20.3261 26.6299C20.4366 26.6322 20.5476 26.6339 20.6592 26.6356C20.8082 26.6385 20.9583 26.6408 21.1096 26.6425C21.1631 26.6436 21.2172 26.6442 21.2713 26.6448C21.3605 26.6459 21.4496 26.6471 21.5393 26.6483C21.7787 26.6511 22.0214 26.6534 22.2664 26.6552C22.3447 26.6558 22.4235 26.6563 22.5029 26.6569C22.7479 26.6586 22.9959 26.6592 23.2467 26.6597C23.7178 26.6609 24.1982 26.6597 24.6882 26.6552C24.7711 26.654 24.8539 26.6534 24.9374 26.6528C25.1042 26.6517 25.2716 26.65 25.4401 26.6477C25.4401 26.6477 25.454 26.6471 25.4758 26.6483C25.4856 26.6489 25.4971 26.65 25.5097 26.6523C25.5155 26.6528 25.5212 26.654 25.527 26.6552C25.5333 26.6563 25.5402 26.6575 25.5472 26.6592C25.558 26.6615 25.5696 26.6644 25.5811 26.6678C25.5891 26.6701 25.5972 26.673 25.6058 26.6764C25.6168 26.6799 25.6282 26.6845 25.6397 26.6902C25.6455 26.6931 25.6518 26.696 25.6576 26.6994C25.6685 26.7046 25.6795 26.711 25.6898 26.7178C25.6973 26.7236 25.7048 26.7288 25.7122 26.7345C25.7226 26.742 25.7324 26.7507 25.7422 26.7604C25.7479 26.7656 25.7536 26.7713 25.7583 26.7777C25.7697 26.7903 25.7807 26.8041 25.7905 26.8197C25.7951 26.8265 25.7997 26.834 25.8037 26.8415C25.8169 26.8645 25.8279 26.8904 25.8365 26.9192C25.8393 26.9289 25.8423 26.9387 25.8445 26.9491C25.8491 26.9675 25.8532 26.987 25.8549 27.0077C25.856 27.0175 25.8572 27.0273 25.8577 27.0376C25.8589 27.0445 25.8589 27.052 25.8589 27.0595C25.8607 27.0819 25.8607 27.1055 25.8589 27.1302C25.8589 27.1354 25.8589 27.1406 25.8583 27.1458V27.1492C25.8572 27.1642 25.856 27.1797 25.8537 27.1952C25.8043 27.6121 25.2675 30.1602 25.0121 31.349C24.9149 31.8002 24.9988 31.7549 24.5723 31.9313C23.2341 32.3663 19.9199 34.1234 17.6023 34.9234C17.5979 34.9229 12.4532 35.0751 12.4532 35.0751C12.36 35.0768 12.2703 35.0763 12.184 35.073H12.1828C11.6462 35.0527 11.2434 34.936 10.9334 34.7297C10.9317 34.7283 10.9305 34.7271 10.9288 34.7266C10.6676 34.5496 10.4709 34.3131 10.315 34.014C10.3138 34.0101 10.3127 34.0065 10.311 34.0027C10.0901 33.5707 9.95318 33.0172 9.82543 32.3553C9.7697 32.0682 9.71619 31.7601 9.65753 31.434ZM15.2375 16.3774C15.3704 16.4148 15.5015 16.4441 15.6338 16.4626C16.3954 16.5683 17.0317 16.3705 17.4976 15.907C18.0933 16.4795 18.9964 16.6176 19.752 16.3789C18.8647 16.8133 17.828 16.9794 16.8609 16.853C16.7498 16.8403 16.6429 16.8225 16.541 16.8035C16.094 16.7196 15.6402 16.5827 15.2375 16.3774ZM24.6134 16.942L24.6137 16.9413C24.9951 16.3143 25.3349 18.2784 25.3855 19.0627C25.4528 20.1774 25.2164 20.3395 24.8057 21.3018C24.3944 22.2639 23.6747 23.8675 23.4044 24.2499C22.9747 24.9125 22.9252 24.9435 22.5766 25.5664C22.4603 25.8183 21.1649 25.8327 20.8054 25.8316C20.6283 25.797 20.8184 25.3551 20.7812 24.9486L20.7813 24.9477C21.0465 23.8819 21.5359 24.2957 21.6602 22.4365C21.7936 20.8221 23.2773 20.4413 23.5304 19.1157C23.8007 18.4446 24.3809 17.6596 24.6134 16.942ZM23.2726 11.1856C23.3606 10.8705 23.6045 10.8187 23.5856 10.5334C23.5856 10.5334 23.3578 9.2842 23.7024 9.20253C24.3133 8.95922 24.0688 10.9912 24.0763 12.3485C24.0084 13.6687 23.38 13.3284 23.3624 13.2786C23.36 13.2111 23.0592 11.916 23.2726 11.1856ZM12.1501 11.0246C12.1501 11.0211 12.1507 11.0177 12.1507 11.0137C12.1513 11.0068 12.1519 10.9987 12.1519 10.9901C12.1524 10.9774 12.1536 10.9625 12.1541 10.9464C12.1541 10.9446 12.1541 10.9424 12.1547 10.94C12.1725 10.8014 12.172 10.7307 12.172 10.6151V10.6128C12.172 10.5605 12.1714 10.5092 12.1714 10.4581C12.172 10.1693 12.1933 9.87486 12.4389 9.36816C12.4475 9.35153 12.4556 9.33484 12.4642 9.31757C12.4642 9.31757 12.5321 9.70695 12.8697 10.3108C12.8697 10.3108 13.1102 9.91396 13.1804 9.58787C13.1804 9.58787 13.5221 9.95939 13.7252 10.1504C13.7252 10.1504 13.831 8.6329 14.0332 8.08375C14.0335 8.08287 14.0349 8.08282 14.0349 8.08375C14.0392 8.12813 14.1011 8.54374 14.963 9.08919L14.964 9.08878L15.007 8.78388C15.0326 8.60415 15.2763 8.56598 15.3553 8.72944C15.4456 8.91614 15.5769 9.12081 15.7677 9.31166C15.9468 7.41617 18.1144 6.47695 19.4006 6.24171C19.4006 6.24171 19.9569 7.47196 20.2485 9.02462C20.2518 9.02269 20.9775 8.58852 21.1338 7.84109C21.1364 7.8511 21.3451 8.65233 21.3594 9.06332C21.3609 9.06244 22.0723 8.68752 22.2222 8.43244C22.3108 8.99839 22.3988 9.70408 22.4609 10.4788C22.4753 10.6611 22.4886 10.848 22.5 11.0373C22.5657 12.1286 22.5731 13.3172 22.4598 14.4264C22.457 14.4106 22.3043 13.5792 21.5824 13.3995C21.5815 13.3992 21.5807 13.4002 21.5811 13.4009C21.6087 13.4399 21.9971 14.0133 21.5618 14.7227C21.5618 14.7227 21.4382 14.9626 21.1534 14.8286C20.4021 14.388 18.2662 13.4511 17.3682 14.4271C16.1677 13.5489 14.1221 13.9262 13.1804 14.7751C13.1804 14.7751 12.4469 14.449 12.9095 13.4362C12.9095 13.4362 12.4683 13.6668 12.1686 14.1561C12.0081 13.5062 12.1064 12.1731 12.1507 11.0263L12.1501 11.0246ZM10.6631 9.25083C10.6637 8.93159 10.9819 9.2095 11.0042 9.28994C11.0853 9.70473 11.3695 11.3237 11.3448 11.8717C11.32 12.3913 10.9512 13.2895 10.9444 13.2906C10.6821 12.5212 10.7677 12.1116 10.7815 11.5801C10.7453 11.1005 10.6338 9.71152 10.6631 9.25083ZM9.75828 17.1878C10.0701 17.2644 10.7833 18.3675 11.3407 19.8236C11.3781 19.9462 11.5823 20.7059 12.2576 21.4708C12.2582 21.4714 12.528 21.7262 12.6396 22.7764C12.6453 22.838 12.6609 22.8966 12.6856 22.953C12.7903 23.1894 13.1078 23.8692 13.533 24.4414C13.533 24.4414 13.6043 24.5214 13.7038 24.7963C13.755 24.9268 13.8838 25.0908 13.9196 25.2259C13.9609 25.4054 13.3374 25.4341 13.2344 25.4882C12.6154 25.5216 11.8929 25.5756 11.5334 24.9832C11.03 24.0705 8.69014 19.9945 9.75828 17.1878ZM6.19621 29.7282C4.7374 28.1788 5.06126 26.2157 5.84649 24.228C6.13298 23.4758 7.93755 21.4622 8.36897 20.9872C8.53927 20.7462 8.94077 22.2387 9.32447 22.8811C9.8002 23.8675 10.41 24.7112 10.4583 25.3496C10.4646 25.4359 10.3962 25.509 10.3093 25.5101C9.9705 25.5118 9.12729 25.5584 8.57446 25.9644C7.61849 26.7597 7.66544 26.7117 7.95535 28.8429C7.95652 29.1662 9.05405 31.42 8.40526 31.4431C7.77012 31.2603 6.69261 30.1283 6.19621 29.7282ZM10.5296 42.3466C9.917 42.6666 8.84874 42.9361 8.15153 42.3963C7.93521 42.2983 7.03896 41.8716 6.48847 41.3205C5.87638 40.7237 5.0883 40.4591 4.88178 40.393C3.86933 40.1836 2.04118 39.5958 1.4458 38.3834C0.503532 36.6619 1.08971 34.9434 2.32363 33.8265C5.37246 32.1311 9.42001 34.082 15.1955 38.6679C15.2657 38.7272 15.2628 38.8378 15.1892 38.893L10.5296 42.3466ZM26.0016 40.5609C25.7572 41.3041 24.5319 42.426 23.6966 42.5963C21.8777 43.0116 14.2544 42.5906 12.2571 42.5711C12.203 42.5686 12.18 42.5025 12.2197 42.4668C12.9077 41.9172 14.477 40.3474 15.3882 39.8855C16.9886 39.2409 18.3128 41.7053 20.2939 40.7876C20.4885 40.7168 24.1257 39.2594 24.8466 39.4136C24.8851 39.4215 24.9236 39.4284 24.9633 39.4303C25.3763 39.4462 26.218 39.8236 26.0016 40.5609ZM32.1167 38.1885C31.3871 38.7549 29.701 39.4536 27.4375 39.4157C27.1682 39.2961 26.6914 38.8647 25.9361 38.5634C24.8563 38.132 21.2334 39.3848 20.294 39.6756C19.897 39.7988 19.3954 40.1611 18.7137 39.947C18.3766 39.7206 17.2658 38.9649 16.2885 38.2097C16.2879 38.2097 16.2879 38.2097 16.2873 38.2091C16.1395 38.0947 15.9945 37.9802 15.8559 37.8674C15.8553 37.8674 15.8553 37.8669 15.8547 37.8669C15.8541 37.8664 15.8536 37.8664 15.8536 37.8658C15.7368 37.7709 15.6241 37.677 15.5176 37.5856C15.4515 37.5283 15.4642 37.4212 15.5424 37.3814C17.7577 36.1652 25.3309 32.748 27.8839 32.1838C28.2883 32.1604 28.795 32.0257 29.673 32.0929C32.9121 32.2518 34.391 36.1155 32.1167 38.1885Z" fill="#453025"/>
<path d="M25.8574 27.0369C25.8568 27.0266 25.8556 27.0168 25.8545 27.0071C25.8528 26.9863 25.8488 26.9668 25.8442 26.9484C25.8419 26.938 25.839 26.9283 25.8362 26.9185C25.8275 26.8897 25.8165 26.8638 25.8033 26.8409C25.7993 26.8334 25.7947 26.8259 25.7901 26.819C25.7804 26.8034 25.7694 26.7896 25.7579 26.777C25.7533 26.7707 25.7475 26.7649 25.7418 26.7597C25.732 26.75 25.7222 26.7413 25.7119 26.7338C25.7044 26.7281 25.6969 26.7229 25.6894 26.7171C25.6791 26.7102 25.6681 26.7039 25.6572 26.6988C25.6514 26.6953 25.6451 26.6924 25.6394 26.6896C25.6279 26.6838 25.6164 26.6792 25.6054 26.6758C25.5968 26.6723 25.5887 26.6694 25.5807 26.6672C25.5692 26.6637 25.5577 26.6608 25.5468 26.6585C25.5399 26.6568 25.5329 26.6556 25.5266 26.6545C25.5209 26.6533 25.5152 26.6522 25.5094 26.6516C25.4967 26.6493 25.4852 26.6481 25.4755 26.6476C25.4536 26.6464 25.4398 26.647 25.4398 26.647C25.2712 26.6493 25.1038 26.6511 24.937 26.6522C24.8536 26.6528 24.7708 26.6533 24.6879 26.6545C24.1978 26.6591 23.7175 26.6602 23.2463 26.6591C22.9955 26.6585 22.7476 26.6579 22.5025 26.6562C22.4231 26.6556 22.3443 26.655 22.2661 26.6545C22.0211 26.6528 21.7783 26.6505 21.5389 26.6476C21.4492 26.6464 21.3601 26.6453 21.2709 26.6441C21.2168 26.6436 21.1628 26.643 21.1093 26.6418C20.958 26.6401 20.8078 26.6378 20.6588 26.635C20.5473 26.6332 20.4362 26.6314 20.3258 26.6292C20.2153 26.6275 20.1054 26.6252 19.9967 26.6228C19.9237 26.6217 19.8518 26.62 19.7793 26.6183C19.6504 26.6159 19.5227 26.6131 19.3962 26.6102C19.33 26.6085 19.2644 26.6067 19.1995 26.6056C19.0683 26.6027 18.9377 26.5993 18.8083 26.5958C18.5511 26.5889 18.298 26.582 18.0501 26.5751C17.9753 26.5728 17.9005 26.5705 17.8263 26.5682C17.5525 26.5607 17.2844 26.5521 17.0221 26.544C16.9295 26.5406 16.8374 26.5377 16.7466 26.5348C16.7057 26.5337 16.6648 26.532 16.624 26.5309C16.5941 26.5303 16.5642 26.5291 16.5343 26.5279C16.475 26.5262 16.4158 26.5239 16.3571 26.5222C16.299 26.5199 16.2409 26.5182 16.1828 26.5165C16.1172 26.5142 16.0522 26.5118 15.9878 26.5101C15.8871 26.5067 15.7876 26.5032 15.6893 26.4998C15.6777 26.4992 15.6662 26.4992 15.6553 26.4986C15.5719 26.4957 15.489 26.4929 15.4068 26.49C15.1922 26.4831 14.9822 26.4756 14.7768 26.4693C14.675 26.4652 14.5738 26.4624 14.4743 26.4589C14.3753 26.456 14.2782 26.4526 14.1821 26.4497C14.1384 26.4486 14.0952 26.4474 14.0521 26.4457C13.9537 26.4422 13.8565 26.4394 13.761 26.4371C13.6879 26.4348 13.6154 26.4325 13.5435 26.4308C13.4446 26.4279 13.3468 26.425 13.2501 26.4227C13.0931 26.4187 12.9395 26.4147 12.7905 26.4118C12.7112 26.41 12.6323 26.4083 12.5553 26.4072C12.1543 26.4003 11.7833 26.3968 11.4439 26.3997C11.418 26.3997 11.3921 26.4003 11.3668 26.4003C11.3415 26.4003 11.3168 26.4003 11.2926 26.4008C11.2678 26.4008 11.2437 26.4014 11.2195 26.402C11.1511 26.4026 11.0843 26.4043 11.0187 26.4055C10.9779 26.4066 10.937 26.4077 10.8973 26.4089C10.7536 26.4129 10.6172 26.4187 10.4884 26.4261C10.4389 26.429 10.3905 26.4319 10.3434 26.4354C10.3089 26.4377 10.275 26.4399 10.2416 26.4428C10.2289 26.444 10.2162 26.4446 10.2042 26.4457C10.1915 26.4463 10.1795 26.4474 10.1674 26.4486C10.1185 26.4532 10.0713 26.4572 10.0247 26.4624C10.0017 26.4646 9.97867 26.467 9.95624 26.4699C9.94184 26.4716 9.9275 26.4733 9.91368 26.4751C9.84753 26.4825 9.78365 26.4912 9.72324 26.5009C9.70772 26.5032 9.69279 26.5055 9.67839 26.5084C9.67383 26.509 9.66862 26.5096 9.66405 26.5107C9.63296 26.5159 9.60246 26.5216 9.57313 26.5273C9.56564 26.5285 9.55814 26.5303 9.55071 26.532C9.5438 26.5331 9.53748 26.5343 9.53115 26.536C9.5133 26.5395 9.4955 26.5435 9.47823 26.5475C9.45522 26.5527 9.43338 26.5579 9.41149 26.5636C9.39709 26.567 9.38274 26.5711 9.36834 26.5751C9.35054 26.5797 9.33327 26.5849 9.31659 26.5901C9.29932 26.5953 9.28263 26.6004 9.26653 26.6062C9.25102 26.6108 9.23603 26.6159 9.22163 26.6217C9.19575 26.6309 9.17105 26.6407 9.14745 26.6522C9.13592 26.6568 9.12445 26.6619 9.1135 26.6677C9.09857 26.6746 9.08475 26.6821 9.07094 26.6896C9.04734 26.7016 9.02603 26.7149 9.00595 26.7287C8.98177 26.7454 8.95988 26.7626 8.94091 26.781C8.92885 26.7988 8.9179 26.8184 8.90754 26.8385C8.9018 26.85 8.89665 26.8615 8.89203 26.8736C8.88746 26.8857 8.88283 26.8978 8.87821 26.9104C8.87475 26.9196 8.87189 26.9288 8.8696 26.938C8.86673 26.9461 8.86439 26.9541 8.86269 26.9627C8.85983 26.9708 8.85813 26.9788 8.85637 26.9875C8.85409 26.9967 8.85175 27.0059 8.85005 27.0157C8.84601 27.034 8.84255 27.053 8.83969 27.072C8.8391 27.0755 8.83852 27.0789 8.83793 27.0829C8.83565 27.0996 8.83336 27.1163 8.83167 27.133C8.82991 27.1491 8.82815 27.1658 8.82704 27.1819C8.81726 27.2986 8.82013 27.4108 8.82528 27.4897C8.82587 27.5034 8.82704 27.5166 8.82815 27.5281C8.83167 27.5718 8.83506 27.5995 8.83565 27.6053C8.83623 27.6058 8.83623 27.6063 8.83623 27.6063C8.8374 27.6143 8.8391 27.6225 8.84086 27.6299C8.84138 27.6333 8.84197 27.6368 8.84255 27.6404C9.03698 28.7106 9.22508 29.6009 9.37349 30.2559C9.37408 30.2584 9.37466 30.26 9.37466 30.2617C9.51271 30.8709 9.61569 31.2762 9.65714 31.4332C9.7158 31.7595 9.76931 32.0672 9.8251 32.3542C9.95279 33.0161 10.0897 33.5699 10.3106 34.0019C10.3123 34.006 10.3135 34.0093 10.3147 34.0134C10.4706 34.3125 10.6673 34.5488 10.9284 34.7261C10.9301 34.7266 10.9313 34.7277 10.9331 34.7288C11.2431 34.9354 11.6458 35.0521 12.1824 35.0721H12.1836C12.2699 35.0757 12.3597 35.0762 12.4528 35.0746C12.4528 35.0746 17.602 34.922 17.602 34.9228C19.9197 34.1226 23.2337 32.3657 24.5717 31.9308C24.9986 31.7543 24.9145 31.7996 25.0118 31.3481C25.2672 30.1593 25.8039 27.6115 25.8534 27.1945C25.8556 27.179 25.8568 27.1635 25.858 27.1485V27.1451C25.8586 27.1399 25.8586 27.1347 25.8586 27.1295C25.8603 27.1048 25.8603 27.0812 25.8586 27.0588C25.8585 27.0513 25.8585 27.0438 25.8574 27.0369ZM19.9081 33.0438H14.8137L14.5812 28.5835H20.1934L19.9081 33.0438Z" fill="#00040F"/>
<path d="M26.0023 40.5607C25.7579 41.3039 24.5325 42.4257 23.6973 42.5961C21.8784 43.0113 14.2551 42.5904 12.2578 42.5709C12.2037 42.5684 12.1807 42.5023 12.2204 42.4666C12.9084 41.917 14.4777 40.3472 15.3889 39.8853C16.9893 39.2407 18.3135 41.7051 20.2947 40.7874C20.4897 40.7166 24.1265 39.2591 24.8473 39.4133C24.8858 39.4213 24.9243 39.4282 24.964 39.4298C25.377 39.446 26.2187 39.8233 26.0023 40.5607Z" fill="#F6BE9D"/>
<path d="M15.19 38.8927L10.5305 42.3463C9.91781 42.666 8.84956 42.9358 8.15235 42.3957C7.93609 42.298 7.03983 41.8713 6.48928 41.3203C5.8772 40.7234 5.08914 40.4589 4.88262 40.3927C3.87017 40.1834 2.04202 39.5955 1.44663 38.3831C0.504365 36.6616 1.09055 34.9432 2.32447 33.8263C5.37331 32.1308 9.42077 34.0815 15.1963 38.6677C15.2665 38.727 15.2637 38.8375 15.19 38.8927Z" fill="#F49636"/>
<path d="M32.1169 38.1875C31.3876 38.7542 29.7014 39.4529 27.4378 39.415C27.1686 39.2954 26.6917 38.864 25.9365 38.5627C24.8567 38.1313 21.2337 39.3838 20.2944 39.6749C19.8974 39.7978 19.3958 40.1603 18.7141 39.9463C18.377 39.7196 17.2662 38.9639 16.2888 38.209L17.4486 37.5424C17.5844 37.3484 15.9282 37.8857 15.8563 37.8667L15.8551 37.8662L15.854 37.8648C15.7372 37.7701 15.6245 37.6763 15.518 37.5849C15.4519 37.5273 15.4645 37.4202 15.5427 37.3807C17.7581 36.1642 25.3313 32.7473 27.8841 32.1831C28.2887 32.1594 28.7954 32.025 29.6732 32.0922C32.9126 32.2508 34.3915 36.1148 32.1169 38.1875Z" fill="#F49636"/>
<path d="M29.4703 27.5771C29.4111 28.2662 29.0413 28.8776 28.8294 29.1679C28.623 29.3232 27.2159 31.0917 26.028 31.7177C25.8986 31.5692 27.7809 26.2077 25.8601 25.7073C25.317 25.5693 24.1418 25.697 24.3328 25.4266C24.629 24.9533 25.5184 23.424 26.1948 21.1321C26.544 21.0849 27.7238 22.379 28.4798 23.9013C29.2011 25.4583 29.3248 26.0541 29.346 26.2025C29.3938 26.4745 29.4909 26.9019 29.4703 27.5771Z" fill="#F49636"/>
<path d="M10.4582 25.349C10.4645 25.4352 10.3961 25.5083 10.3092 25.5095C9.97034 25.5112 9.12706 25.5578 8.57423 25.9638C7.61814 26.7592 7.66533 26.7109 7.95524 28.8423C7.95641 29.1656 9.054 31.4197 8.4051 31.4425C7.77001 31.2598 6.69256 30.1277 6.1961 29.7276C4.73728 28.1782 5.06114 26.2152 5.84637 24.2275C6.13287 23.4752 7.93744 21.4616 8.36886 20.9866C8.53916 20.7456 8.94066 22.238 9.32436 22.8805C9.80009 23.8668 10.4099 24.7106 10.4582 25.349Z" fill="#F49636"/>
<path d="M13.2339 25.4875C12.6149 25.5209 11.8924 25.5749 11.5329 24.9825C11.0295 24.0698 8.68938 19.9938 9.75764 17.1871C10.0694 17.2636 10.7827 18.3667 11.3401 19.823C11.3776 19.9454 11.5818 20.7052 12.2571 21.4701C12.2571 21.4701 12.5275 21.7255 12.6391 22.7757C12.6448 22.8372 12.6604 22.8959 12.6851 22.9523C12.7898 23.1887 13.1073 23.8685 13.5325 24.4408C13.5325 24.4408 13.6038 24.5207 13.7033 24.7956C13.7545 24.9262 13.8833 25.0901 13.919 25.2252C13.9604 25.4047 13.3369 25.4334 13.2339 25.4875Z" fill="#F49636"/>
<path d="M24.8053 21.3015C24.394 22.2637 23.6744 23.8672 23.404 24.2497C22.9743 24.9122 22.9248 24.9432 22.5762 25.5662C22.46 25.8181 21.1645 25.8324 20.805 25.8313C20.6278 25.7968 20.8182 25.3545 20.7808 24.9479C21.046 23.8815 21.5356 24.2957 21.6598 22.4363C21.7933 20.8218 23.2769 20.4411 23.53 19.1154C23.8004 18.4442 24.3808 17.6592 24.6132 16.9414C24.9946 16.3133 25.3346 18.278 25.3852 19.0625C25.4525 20.1771 25.216 20.3393 24.8053 21.3015Z" fill="#F49636"/>
<path d="M19.7533 16.3787C18.8657 16.8135 17.8285 16.9797 16.8609 16.8532C16.7499 16.8405 16.6429 16.8227 16.5411 16.8037C16.0941 16.7198 15.6403 16.5828 15.2375 16.3775C15.3704 16.4149 15.5016 16.4442 15.634 16.4626C16.3956 16.5685 17.0318 16.3706 17.4978 15.907C18.0937 16.4799 18.9974 16.6179 19.7533 16.3787Z" fill="#F6BE9D"/>
<path d="M11.3457 11.8708C11.321 12.3907 10.9517 13.2897 10.9453 13.2897C10.6831 12.5202 10.7688 12.1107 10.7826 11.5793C10.7463 11.0996 10.6347 9.71058 10.664 9.24995C10.6646 8.93071 10.9828 9.2085 11.0052 9.289C11.0863 9.70373 11.3704 11.3227 11.3457 11.8708Z" fill="#F6BE9D"/>
<path d="M22.4591 14.427C22.4591 14.427 22.3101 13.5787 21.5789 13.3987C21.5789 13.3987 22.0121 13.9876 21.5611 14.7227C21.5611 14.7227 21.4374 14.9625 21.1526 14.8285C20.4013 14.3879 18.2655 13.451 17.3675 14.427C16.167 13.5488 14.1214 13.9261 13.1796 14.775C13.1796 14.775 12.4462 14.4489 12.9087 13.436C12.9087 13.436 12.4675 13.6667 12.1678 14.1561C12.0073 13.5062 12.1057 12.1731 12.1499 11.0262L12.1494 11.0245C12.1522 11.0268 12.6412 11.2252 12.6446 11.227C12.6446 11.227 12.808 12.2139 13.0094 12.9748C13.0767 13.2273 13.2924 13.4171 13.5524 13.4401C14.4003 13.4171 15.6423 13.7087 16.4183 13.2002C16.8382 12.8684 16.7359 12.0724 16.8503 11.6261C16.844 11.4484 17.9007 11.3248 17.9197 11.721C17.8881 12.0787 18.113 13.1416 18.4179 13.2227C19.2233 13.6028 19.9349 13.4441 21.1457 13.4182C21.6387 13.3659 21.6813 13.1531 21.6848 13.1243L21.6853 13.1232C21.698 13.0841 22.0587 11.8234 22.0759 11.231L22.4993 11.0372C22.5649 12.1288 22.5723 13.3176 22.4591 14.427Z" fill="#F6BE9D"/>
<path d="M22.4607 10.478L22.4601 10.4763L22.092 10.5855C21.8239 10.1018 18.7894 10.2859 18.1376 10.5844C17.4508 11.0652 18.4034 11.0267 16.971 10.9951C16.8428 10.9588 16.8974 10.8214 16.7789 10.6937C16.6627 10.5292 15.5594 10.386 15.5594 10.386C15.5594 10.386 14.6027 10.2813 13.2676 10.3716C13.2676 10.3716 12.9069 10.3635 12.6751 10.6039L12.1792 10.4613L12.1713 10.4574C12.1713 10.102 12.1481 9.9477 12.4639 9.31677C12.4639 9.31677 12.5318 9.70615 12.8695 10.31C12.8695 10.31 13.1099 9.91322 13.1801 9.58712C13.1801 9.58712 13.5218 9.95865 13.7249 10.1496C13.7249 10.1496 13.8313 8.62489 14.0344 8.07908C14.0344 8.07908 14.0504 8.51448 14.9737 9.09535C14.9737 9.09535 14.9962 8.62489 15.1601 8.07908C15.1601 8.07908 15.2108 8.75427 15.7676 9.31103C15.9465 7.41537 18.1141 6.4762 19.4003 6.24097C19.4003 6.24097 19.9566 7.47116 20.2483 9.02405C20.2483 9.02405 20.9771 8.58924 21.1336 7.83981C21.1336 7.83981 21.3447 8.64907 21.359 9.06257C21.359 9.06257 22.0718 8.68701 22.2219 8.43164C22.3106 8.99758 22.3986 9.70328 22.4607 10.478Z" fill="#F6BE9D"/>
<path d="M24.0759 12.3484C24.008 13.6684 23.3799 13.3285 23.362 13.2785C23.3597 13.2111 23.0588 11.916 23.2723 11.1855C23.3603 10.8704 23.6042 10.8185 23.5852 10.5333C23.5852 10.5333 23.3574 9.28409 23.702 9.20242C24.3129 8.95911 24.0684 10.9911 24.0759 12.3484Z" fill="#F6BE9D"/>
<path d="M20.0295 2.76191C17.6675 2.95673 14.6845 2.79102 14.7406 2.81487C14.5036 2.80793 14.5566 2.53359 14.5566 2.53359C14.602 1.94061 14.6992 1.64097 14.6992 1.64097C15.14 0.0126316 16.9837 -0.167215 18.4435 0.102986C19.3219 0.491665 19.4903 0.516166 19.952 1.45284C20.0806 1.97047 20.249 2.60162 20.0295 2.76191Z" fill="#453025"/>
<path d="M22.513 10.7377C22.5044 10.6336 22.4831 10.5462 22.4613 10.4778L22.4607 10.4761L22.0926 10.5854C21.8245 10.1016 18.79 10.2857 18.1382 10.5842C17.4514 11.065 18.404 11.0265 16.9716 10.9948C16.8434 10.9586 16.898 10.8211 16.7795 10.6935C16.6633 10.529 15.56 10.3857 15.56 10.3857C15.56 10.3857 14.6033 10.2811 13.2682 10.3714C13.2682 10.3714 12.9074 10.3633 12.6757 10.6038L12.1717 10.4571C12.1604 10.5017 12.149 10.5463 12.1377 10.5909C12.118 10.6591 12.0975 10.7662 12.117 10.8933C12.1247 10.9431 12.137 10.9868 12.1505 11.0236C12.1534 11.0259 12.6423 11.2243 12.6458 11.226C12.6458 11.226 12.8092 12.213 13.0105 12.9739C13.0778 13.2264 13.2935 13.4162 13.5535 13.4392C14.4015 13.4162 15.6434 13.7078 16.4194 13.1993C16.8394 12.8675 16.737 12.0715 16.8514 11.6252C16.8451 11.4474 17.9019 11.3239 17.9209 11.7201C17.8893 12.0778 18.1141 13.1407 18.419 13.2218C19.2244 13.6019 19.936 13.4432 21.1469 13.4173C21.6399 13.365 21.6825 13.1522 21.6859 13.1234L21.6865 13.1223C21.6991 13.0832 22.0598 11.8225 22.0771 11.2301L22.5004 11.0363C22.5136 10.9598 22.5234 10.8574 22.513 10.7377ZM16.3291 12.0439C16.2307 13.4995 14.3997 12.9567 13.8008 12.9216C13.1848 12.8565 13.2331 12.1894 13.1859 11.5412C13.2083 10.8591 13.5385 10.8177 13.5679 10.8067C13.737 10.7423 14.8766 10.7481 15.1711 10.759C16.4511 10.6797 16.5063 11.0771 16.3291 12.0439ZM21.5817 11.616C21.4983 12.1503 21.5322 12.7571 21.1497 12.8784C20.1718 12.9699 18.8033 13.2827 18.5047 12.3942C18.4011 12.0709 18.2194 10.9897 18.5726 10.8292C18.9557 10.7165 19.65 10.6998 20.3811 10.7015C21.0444 10.6682 21.6668 10.7889 21.5817 11.616Z" fill="#453025"/>
<path d="M20.3801 10.7024C19.649 10.7006 18.9547 10.7173 18.5715 10.8301C18.2183 10.9905 18.4001 12.0718 18.5037 12.395C18.8022 13.2836 20.1708 12.9707 21.1487 12.8793C21.5312 12.7579 21.4973 12.1511 21.5807 11.6168C21.6658 10.7898 21.0434 10.669 20.3801 10.7024ZM21.4231 11.7894C21.4231 11.7946 21.4219 11.7997 21.4208 11.8049C21.1809 12.7165 20.7587 11.3442 20.0385 11.6209C19.8992 11.6738 19.1951 11.9435 19.041 11.9843C19.0289 11.9872 19.0156 11.9872 19.0036 11.9832C18.4812 11.8083 19.2687 11.2913 19.7796 11.0894C19.7824 11.0883 19.7848 11.0877 19.7871 11.0871C20.5268 10.8628 21.4726 11.0607 21.4231 11.7894Z" fill="#F6BE9D"/>
<path d="M15.1715 10.7599C14.877 10.749 13.7374 10.7432 13.5683 10.8077C13.539 10.8186 13.2087 10.86 13.1863 11.5421C13.2335 12.1903 13.1852 12.8574 13.8012 12.9225C14.4001 12.9575 16.2311 13.5005 16.3295 12.0448C16.5067 11.078 16.4514 10.6806 15.1715 10.7599ZM14.6935 11.6813C14.1055 11.6813 14.0273 11.7837 13.7196 12.035C13.4572 12.188 13.2875 11.8688 13.3652 11.5743C13.4504 11.2701 13.7201 11.0906 13.7201 11.0906C14.4087 10.6035 16.0476 11.0331 16.089 11.9965C15.7865 12.4549 15.4356 11.6813 14.6935 11.6813Z" fill="#F6BE9D"/>
<path d="M16.089 11.9969C15.7864 12.4553 15.4355 11.6817 14.6934 11.6817C14.1055 11.6817 14.0273 11.7841 13.7195 12.0354C13.4572 12.1884 13.2874 11.8692 13.3651 11.5747C13.4503 11.2704 13.7201 11.0911 13.7201 11.0911C14.4086 10.6039 16.0475 11.0335 16.089 11.9969Z" fill="#453025"/>
<path d="M21.4239 11.789C21.4239 11.7942 21.4227 11.7995 21.4216 11.8046C21.1817 12.7162 20.7595 11.3439 20.0393 11.6205C19.9 11.6735 19.1959 11.9432 19.0418 11.984C19.0297 11.9869 19.0164 11.9869 19.0044 11.9829C18.482 11.8081 19.2696 11.291 19.7804 11.0891C19.7832 11.088 19.7856 11.0874 19.7879 11.0869C20.5276 10.8625 21.4734 11.0604 21.4239 11.789Z" fill="#453025"/>
<path d="M14.5811 28.5844L14.8135 33.0446H19.9079L20.1932 28.5844H14.5811ZM19.423 32.6903H15.3082L15.1207 29.0877H19.6536L19.423 32.6903Z" fill="#F6A652"/>
<path d="M15.1208 29.0869L15.3084 32.6896H19.4232L19.6539 29.0869H15.1208ZM17.1941 31.9069H16.8904L15.7674 30.3218L15.7536 31.9069H15.4856L15.416 29.8698H15.7082L16.9663 31.5112L16.9801 29.838H17.2591L17.1941 31.9069ZM19.2886 31.7711C17.0721 32.8172 16.846 29.1791 19.1591 29.9302V30.2274C18.8525 30.1113 18.2376 30.0537 18.0374 30.338C17.5898 31.0955 18.0696 31.9247 18.9946 31.5842V31.0148H18.4849V30.7906H19.2886V31.7711Z" fill="#00040F"/>
<path d="M17.2589 29.8365L17.1939 31.9051H16.8902L15.7673 30.32L15.7535 31.9051H15.4854L15.4158 29.868H15.708L16.9661 31.5094L16.9799 29.8365H17.2589Z" fill="#453025"/>
<path d="M19.2881 30.7889V31.7697C17.0717 32.8158 16.8456 29.1775 19.1587 29.9286V30.2258C18.852 30.1097 18.2371 30.0524 18.0369 30.3364C17.5894 31.0938 18.0691 31.9231 18.9942 31.5825V31.0134H18.4845V30.7889H19.2881Z" fill="#453025"/>
<path d="M17.4484 37.542L16.2887 38.2086L16.2876 38.2081C16.2174 38.1844 16.1075 38.1372 16.0005 38.0412C15.9327 37.9797 15.8855 37.9166 15.855 37.8658L15.8562 37.8664C15.928 37.8856 17.5842 37.3483 17.4484 37.542Z" fill="#453025"/>
<path d="M26.8938 39.0727C27.4264 39.0442 28.0487 38.9715 28.731 38.8156C29.6804 38.5991 30.4682 38.2849 31.0751 37.9899C31.3935 37.84 31.7841 37.6218 32.1922 37.306C32.6105 36.9819 32.9251 36.6498 33.1524 36.3735C33.0936 36.6605 32.9621 37.1185 32.6396 37.5914C32.5238 37.761 32.3528 37.9775 32.117 38.1877C31.4961 38.7418 30.8009 38.9196 30.1822 39.0777C29.6656 39.2097 28.9671 39.3263 28.9671 39.3263C28.7341 39.3579 28.4829 39.3834 28.2158 39.399C27.94 39.4155 27.68 39.4193 27.438 39.4152C27.4275 39.4108 27.4117 39.4043 27.3928 39.3955C27.2831 39.3458 27.2132 39.2947 27.1245 39.2322C27.0745 39.1968 26.9964 39.1422 26.8938 39.0727Z" fill="#C9772C"/>
<path d="M42.71 31.3265V13.1319H45.4274L54.9243 26.5239V13.1319H57.9711V31.3265H55.2537L45.7842 17.9618V31.3265H42.71Z" fill="#00040F"/>
<path d="M67.9629 31.6276C65.5474 31.6276 63.791 31.0239 62.6658 29.8164C61.54 28.6089 60.9915 26.8801 60.9915 24.6572C60.9915 22.4069 61.5675 20.678 62.6933 19.498C63.8186 18.2905 65.5749 17.6868 67.9904 17.6868C70.406 17.6868 72.1629 18.2905 73.3156 19.498C74.4408 20.7055 75.0175 22.4344 75.0175 24.6572C75.0175 26.9075 74.4684 28.6364 73.3431 29.8164C72.1898 31.0239 70.406 31.6276 67.9629 31.6276ZM67.9629 29.0205C69.3627 29.0205 70.3785 28.6638 70.9826 27.9777C71.5862 27.2917 71.8608 26.1666 71.8608 24.6298C71.8608 23.093 71.5587 21.9678 70.9826 21.2818C70.3785 20.5957 69.3902 20.2664 67.9629 20.2664C66.5631 20.2664 65.5749 20.5957 64.9713 21.2818C64.3671 21.9678 64.0931 23.0655 64.0931 24.6298C64.0931 26.1666 64.3946 27.2917 64.9713 27.9777C65.5749 28.6638 66.5906 29.0205 67.9629 29.0205Z" fill="#00040F"/>
<path d="M83.5252 31.6276C82.3174 31.6276 81.2472 31.4081 80.341 30.9964C79.4078 30.5848 78.6941 29.8987 78.2 28.9382C77.6789 27.9778 77.4319 26.6879 77.4319 25.0688C77.4319 23.4772 77.7065 22.105 78.255 21.0073C78.8042 19.9096 79.5729 19.0589 80.5336 18.51C81.4943 17.9337 82.592 17.6593 83.8273 17.6593C84.6504 17.6593 85.3641 17.7416 85.9957 17.9337C86.6269 18.1258 87.2304 18.4277 87.8071 18.8119V12.2806H90.8813V31.3257H88.2462L88.0542 30.0085C87.45 30.5573 86.7914 30.969 86.0777 31.216C85.3365 31.4904 84.5134 31.6276 83.5252 31.6276ZM84.3489 29.295C85.7212 29.295 86.8739 28.8285 87.8071 27.8954V21.1994C86.9289 20.4036 85.8031 20.0194 84.4584 20.0194C83.1686 20.0194 82.1804 20.4585 81.5212 21.3092C80.8626 22.1873 80.5336 23.4497 80.5336 25.0963C80.5336 26.6879 80.8351 27.8131 81.4392 28.4169C82.0428 28.9931 83.0311 29.295 84.3489 29.295Z" fill="#00040F"/>
<path d="M100.926 31.6284C98.5934 31.6284 96.7821 31.052 95.4917 29.8995C94.2014 28.7469 93.5703 26.9904 93.5703 24.6029C93.5703 22.4624 94.1195 20.7609 95.2172 19.526C96.3155 18.2911 97.9623 17.6599 100.185 17.6599C102.217 17.6599 103.754 18.1814 104.769 19.2516C105.785 20.3219 106.306 21.694 106.306 23.368V25.8653H96.5075C96.6445 27.1551 97.1386 28.0608 97.9348 28.5548C98.7304 29.0488 99.9382 29.2957 101.558 29.2957C102.244 29.2957 102.93 29.2409 103.644 29.1036C104.358 28.9664 104.989 28.8018 105.51 28.5822V30.8325C104.906 31.107 104.22 31.299 103.424 31.4363C102.656 31.546 101.832 31.6284 100.926 31.6284ZM96.535 23.8345H103.644V22.9015C103.644 21.9684 103.397 21.2549 102.875 20.7335C102.354 20.2121 101.503 19.9651 100.295 19.9651C98.868 19.9651 97.8798 20.267 97.3306 20.8982C96.7821 21.5293 96.535 22.5173 96.535 23.8345Z" fill="#00040F"/>
<path d="M113.664 31.6276C112.73 31.6276 111.852 31.5728 111.029 31.4355C110.178 31.2983 109.492 31.1337 108.943 30.9416V28.3345C109.574 28.5815 110.287 28.7736 111.056 28.9108C111.825 29.048 112.566 29.1029 113.252 29.1029C114.295 29.1029 115.063 29.0206 115.503 28.8285C115.942 28.6364 116.189 28.2796 116.189 27.7308C116.189 27.3466 116.052 27.0173 115.777 26.7977C115.503 26.5782 115.091 26.3586 114.569 26.1665C114.021 25.9745 113.362 25.7549 112.511 25.4805C111.715 25.2061 111.029 24.9316 110.452 24.6298C109.876 24.3279 109.409 23.9163 109.107 23.4223C108.778 22.9283 108.613 22.2971 108.613 21.5013C108.613 20.2664 109.053 19.3333 109.931 18.6473C110.809 17.9887 112.236 17.6319 114.213 17.6319C114.981 17.6319 115.722 17.6868 116.409 17.7965C117.095 17.9063 117.699 18.0435 118.193 18.2082V20.7878C117.671 20.5682 117.095 20.431 116.463 20.2938C115.832 20.1841 115.255 20.1292 114.707 20.1292C113.719 20.1292 112.978 20.2115 112.483 20.3762C111.989 20.5408 111.742 20.8976 111.742 21.3916C111.742 21.9129 111.989 22.2971 112.511 22.5167C113.033 22.7362 113.856 23.0381 115.008 23.3948C116.052 23.7241 116.902 24.0534 117.534 24.4102C118.165 24.767 118.604 25.2061 118.879 25.7C119.153 26.194 119.29 26.8526 119.29 27.6485C119.29 28.9657 118.797 29.9537 117.836 30.6123C116.875 31.2709 115.476 31.6276 113.664 31.6276Z" fill="#00040F"/>
<path d="M121.733 32.2462V28.9114H125.066V32.2462H121.733Z" fill="#F49636"/>
<path d="M135.84 31.6283C132.849 31.6283 130.598 30.8051 129.061 29.1859C127.551 27.5668 126.783 25.3713 126.783 22.5995C126.783 20.5963 127.112 18.8673 127.771 17.4129C128.43 15.9585 129.445 14.8333 130.79 14.0374C132.135 13.2416 133.837 12.8574 135.923 12.8574C136.994 12.8574 137.981 12.9397 138.86 13.077C139.738 13.2142 140.561 13.4337 141.33 13.6807V16.3426C139.793 15.7664 138.064 15.4919 136.197 15.4919C133.892 15.4919 132.245 16.0957 131.311 17.3306C130.378 18.5655 129.912 20.3218 129.912 22.627C129.912 24.7126 130.406 26.3043 131.394 27.4021C132.382 28.4999 133.892 29.0487 135.95 29.0487C137.57 29.0487 138.888 28.8566 139.875 28.4724V23.3679H135.319V21.3647H142.51V30.119C141.934 30.5031 141.083 30.8325 140.013 31.1618C138.915 31.4637 137.515 31.6283 135.84 31.6283Z" fill="#00040F"/>
<path d="M150.334 31.6283C148.742 31.6283 147.507 31.1892 146.656 30.3111C145.805 29.4329 145.366 28.1156 145.366 26.4141V17.9343H148.44V26.3867C148.44 27.3746 148.687 28.1156 149.182 28.5822C149.676 29.0487 150.416 29.2957 151.432 29.2957C152.173 29.2957 152.887 29.1585 153.518 28.884C154.15 28.6096 154.726 28.2254 155.192 27.7589V17.9343H158.239V31.3265H155.439L155.302 29.9543C154.698 30.4208 153.985 30.8325 153.161 31.1344C152.31 31.4637 151.377 31.6283 150.334 31.6283Z" fill="#00040F"/>
<path d="M161.834 31.3265V17.9344H164.661L164.826 19.4986C165.457 19.0869 166.225 18.7028 167.104 18.3734C167.982 18.0441 168.86 17.7971 169.739 17.6599V19.9926C169.218 20.0749 168.641 20.2121 168.037 20.4042C167.433 20.5963 166.857 20.7884 166.308 21.0079C165.759 21.2275 165.292 21.447 164.936 21.6666V31.3265H161.834Z" fill="#00040F"/>
<path d="M176.821 31.6283C175.229 31.6283 173.994 31.1892 173.143 30.3111C172.292 29.4329 171.853 28.1156 171.853 26.4141V17.9343H174.927V26.3867C174.927 27.3746 175.174 28.1156 175.668 28.5822C176.162 29.0487 176.903 29.2957 177.919 29.2957C178.66 29.2957 179.373 29.1585 180.005 28.884C180.636 28.6096 181.212 28.2254 181.679 27.7589V17.9343H184.726V31.3265H181.926L181.789 29.9543C181.185 30.4208 180.472 30.8325 179.648 31.1344C178.825 31.4637 177.864 31.6283 176.821 31.6283Z" fill="#00040F"/>
</g>
</g>
<defs>
<clipPath id="clip0_557_14085">
<rect width="185" height="43.9082" fill="white"/>
</clipPath>
</defs>
</svg>
