<svg width="32" height="32" viewBox="0 0 32 32" fill="none" xmlns="http://www.w3.org/2000/svg">
<g filter="url(#filter0_i_3019_3534)">
<path d="M27.4136 13.3335C27.1298 13.3335 26.8835 13.5212 26.8361 13.7814C26.4383 15.9066 24.2981 19.5222 18.9948 20.1338C18.4314 20.1987 17.9583 19.7408 17.9583 19.1736V17.3144C17.9583 17.1136 17.8357 16.9297 17.6405 16.8378C17.4453 16.7459 17.2104 16.7616 17.0318 16.8782L8.24535 22.6198C8.09137 22.7204 8 22.8829 8 23.056C8 23.2291 8.09137 23.3916 8.24535 23.4922L17.0318 29.2336C17.2104 29.3504 17.4454 29.366 17.6405 29.2741C17.8357 29.1822 17.9583 28.9982 17.9583 28.7975V26.7688C17.9583 26.2517 18.3519 25.8243 18.8617 25.7375C22.6351 25.0948 28 22.3353 28 13.8696C28 13.5906 27.7662 13.3583 27.4624 13.3354C27.446 13.3341 27.4297 13.3335 27.4136 13.3335Z" fill="#5A5D68"/>
</g>
<path d="M4.58644 18.6665C4.87016 18.6665 5.11648 18.4788 5.16391 18.2186C5.56174 16.0934 7.70187 12.4778 13.0052 11.8662C13.5686 11.8013 14.0417 12.2592 14.0417 12.8264V14.6856C14.0417 14.8864 14.1643 15.0703 14.3595 15.1622C14.5547 15.2541 14.7896 15.2384 14.9682 15.1218L23.7546 9.38025C23.9086 9.27962 24 9.11713 24 8.94402C24 8.77089 23.9086 8.60843 23.7546 8.50784L14.9682 2.76636C14.7896 2.64965 14.5546 2.63403 14.3595 2.72591C14.1643 2.81779 14.0417 3.00175 14.0417 3.20255V5.23121C14.0417 5.74828 13.6481 6.17569 13.1383 6.26251C9.36489 6.90521 4 9.66467 4 18.1304C4 18.4094 4.23379 18.6417 4.53762 18.6646C4.55398 18.6659 4.57027 18.6665 4.58644 18.6665Z" fill="#C0C1C5"/>
<defs>
<filter id="filter0_i_3019_3534" x="8" y="13.3335" width="20" height="20" filterUnits="userSpaceOnUse" color-interpolation-filters="sRGB">
<feFlood flood-opacity="0" result="BackgroundImageFix"/>
<feBlend mode="normal" in="SourceGraphic" in2="BackgroundImageFix" result="shape"/>
<feColorMatrix in="SourceAlpha" type="matrix" values="0 0 0 0 0 0 0 0 0 0 0 0 0 0 0 0 0 0 127 0" result="hardAlpha"/>
<feOffset dy="4"/>
<feGaussianBlur stdDeviation="2"/>
<feComposite in2="hardAlpha" operator="arithmetic" k2="-1" k3="1"/>
<feColorMatrix type="matrix" values="0 0 0 0 0 0 0 0 0 0 0 0 0 0 0 0 0 0 0.25 0"/>
<feBlend mode="normal" in2="shape" result="effect1_innerShadow_3019_3534"/>
</filter>
</defs>
</svg>
