<svg width="32" height="32" viewBox="0 0 32 32" fill="none" xmlns="http://www.w3.org/2000/svg">
<g filter="url(#filter0_i_6825_12750)">
<path d="M9.33333 5.3335C7.98175 5.3335 6.74758 5.83626 5.80767 6.66498C5.22997 7.17432 5.67706 8.00016 6.44723 8.00016H12C12.7364 8.00016 13.3333 8.59712 13.3333 9.3335C13.3333 10.0699 12.7364 10.6668 12 10.6668H5C4.44772 10.6668 4 11.1145 4 11.6668V21.3335C4 24.279 6.38781 26.6668 9.33333 26.6668H22.6667C25.6122 26.6668 28 24.279 28 21.3335V21.0002C28 20.4479 27.5523 20.0002 27 20.0002H22.6667C20.4575 20.0002 18.6667 18.2093 18.6667 16.0002C18.6667 13.791 20.4575 12.0002 22.6667 12.0002H27C27.5523 12.0002 28 11.5524 28 11.0002V10.6668C28 7.72131 25.6122 5.3335 22.6667 5.3335H9.33333Z" fill="#9497A2"/>
</g>
<path d="M5.973 6.8525C6.86901 6.0625 8.04493 5.5835 9.33333 5.5835H22.6667C25.4741 5.5835 27.75 7.85938 27.75 10.6668V11.0002C27.75 11.4144 27.4142 11.7502 27 11.7502H22.6667C20.3195 11.7502 18.4167 13.653 18.4167 16.0002C18.4167 18.3474 20.3195 20.2502 22.6667 20.2502H27C27.4142 20.2502 27.75 20.5859 27.75 21.0002V21.3335C27.75 24.1409 25.4741 26.4168 22.6667 26.4168H9.33333C6.52589 26.4168 4.25 24.1409 4.25 21.3335V11.6668C4.25 11.2526 4.58579 10.9168 5 10.9168H12C12.8745 10.9168 13.5833 10.2079 13.5833 9.3335C13.5833 8.45905 12.8745 7.75016 12 7.75016H6.44723C6.15326 7.75016 5.93724 7.594 5.84535 7.41126C5.75865 7.23885 5.77254 7.02925 5.973 6.8525Z" stroke="#6F727E" stroke-opacity="0.5" stroke-width="0.5"/>
<path fill-rule="evenodd" clip-rule="evenodd" d="M22.6667 13.3335C21.1939 13.3335 20 14.5274 20 16.0002C20 17.4729 21.1939 18.6668 22.6667 18.6668H26.6667C28.1394 18.6668 29.3333 17.4729 29.3333 16.0002C29.3333 14.5274 28.1394 13.3335 26.6667 13.3335H22.6667ZM22.6667 17.3335C23.403 17.3335 24 16.7365 24 16.0002C24 15.2638 23.403 14.6668 22.6667 14.6668C21.9303 14.6668 21.3333 15.2638 21.3333 16.0002C21.3333 16.7365 21.9303 17.3335 22.6667 17.3335Z" fill="#C0C1C5"/>
<defs>
<filter id="filter0_i_6825_12750" x="4" y="5.3335" width="24" height="25.3335" filterUnits="userSpaceOnUse" color-interpolation-filters="sRGB">
<feFlood flood-opacity="0" result="BackgroundImageFix"/>
<feBlend mode="normal" in="SourceGraphic" in2="BackgroundImageFix" result="shape"/>
<feColorMatrix in="SourceAlpha" type="matrix" values="0 0 0 0 0 0 0 0 0 0 0 0 0 0 0 0 0 0 127 0" result="hardAlpha"/>
<feOffset dy="4"/>
<feGaussianBlur stdDeviation="2"/>
<feComposite in2="hardAlpha" operator="arithmetic" k2="-1" k3="1"/>
<feColorMatrix type="matrix" values="0 0 0 0 0 0 0 0 0 0 0 0 0 0 0 0 0 0 0.25 0"/>
<feBlend mode="normal" in2="shape" result="effect1_innerShadow_6825_12750"/>
</filter>
</defs>
</svg>
