<svg width="227" height="54" viewBox="0 0 227 54" fill="none" xmlns="http://www.w3.org/2000/svg">
<g clip-path="url(#clip0_557_13902)">
<mask id="mask0_557_13902" style="mask-type:luminance" maskUnits="userSpaceOnUse" x="0" y="0" width="54" height="54">
<path d="M54 0H0V54H54V0Z" fill="white"/>
</mask>
<g mask="url(#mask0_557_13902)">
<path d="M27 54C41.9264 54 54 41.9264 54 27C54 12.0736 41.9264 0 27 0C12.0736 0 0 12.0736 0 27C0 41.9264 12.0736 54 27 54Z" fill="#181D23"/>
<path fill-rule="evenodd" clip-rule="evenodd" d="M27.0511 9.32268C25.1153 9.32268 23.587 10.0868 22.5681 11.3095C21.6002 12.5321 21.1926 14.0604 21.1926 15.5378C21.1926 17.117 21.8039 18.8491 22.7719 20.2246C23.6889 21.5491 25.1662 22.8227 27.0511 22.8227C28.936 22.8227 30.4134 21.5491 31.3304 20.2246C32.2983 18.8491 32.9096 17.117 32.9096 15.5378C32.9096 14.0604 32.5021 12.5321 31.5341 11.3095C30.5153 10.0868 28.987 9.32268 27.0511 9.32268ZM23.8417 15.5378C23.8417 14.5189 24.1473 13.6019 24.6058 12.9906C25.0643 12.4302 25.8285 11.9717 27.0002 11.9717C28.2228 11.9717 28.936 12.4302 29.3945 12.9906C29.9039 13.6019 30.1587 14.5189 30.1587 15.5378C30.1587 16.4548 29.7511 17.6774 29.0889 18.6963C28.3756 19.7151 27.6115 20.1736 27.0002 20.1736C26.3889 20.1736 25.6247 19.7151 24.9115 18.6963C24.2492 17.6774 23.8417 16.4548 23.8417 15.5378Z" fill="url(#paint0_linear_557_13902)"/>
<path d="M18.136 28.834C15.436 28.5283 13.1945 30.7189 13.1945 32.9094C13.1945 35.1 14.9265 37.0868 18.1869 37.0868C19.3586 37.0868 20.5813 36.5774 21.8548 35.6094C23.3831 34.4887 24.6567 33.1642 25.9303 31.8396C27.2039 30.5151 28.4775 29.1906 30.0567 28.0698C31.585 26.9491 33.3171 26.083 35.3039 26.083C39.7869 26.083 42.9964 29.0377 42.9964 32.9604C42.9964 36.8321 39.2775 40.1434 35.1001 39.6849C33.419 39.4811 31.4322 38.9208 29.853 37.3925L31.7379 35.5076C32.7567 36.4755 34.0813 36.934 35.4058 37.0868C38.1058 37.3925 40.3473 35.2019 40.3473 33.0113C40.3473 30.8208 38.6152 28.834 35.3548 28.834C34.1831 28.834 32.9605 29.3434 31.6869 30.3113C30.1586 31.4321 28.885 32.7566 27.6114 34.0811C26.3379 35.4057 25.0643 36.7302 23.485 37.851C21.9567 38.9717 20.2247 39.8377 18.2379 39.8377C13.7548 39.8377 10.5454 36.883 10.5454 32.9604C10.5454 29.0887 14.2643 25.7774 18.4416 26.2359C20.1228 26.4396 22.1096 27 23.6888 28.5283L21.8039 30.4132C20.785 29.4453 19.4605 28.9868 18.136 28.834Z" fill="url(#paint1_linear_557_13902)"/>
</g>
<path d="M160.166 33.9792H159.555C159.351 34.3868 159.147 34.7434 158.842 35.1C158.587 35.4566 158.23 35.7623 157.772 36.017C157.364 36.2717 156.855 36.5264 156.244 36.6792C155.632 36.8321 154.919 36.934 154.104 36.934C153.034 36.934 152.015 36.7302 151.098 36.3736C150.181 35.966 149.366 35.4057 148.653 34.6925C147.991 33.9283 147.43 33.0113 147.023 31.8906C146.666 30.8208 146.462 29.5472 146.462 28.1208V27.5094C146.462 26.134 146.666 24.8604 147.074 23.7906C147.481 22.7208 148.042 21.8038 148.755 21.0396C149.468 20.2755 150.334 19.7151 151.251 19.3075C152.219 18.9 153.238 18.6962 154.257 18.6962C155.683 18.6962 156.804 18.9509 157.619 19.5113C158.434 20.0208 159.096 20.734 159.555 21.7019H160.166V19.2057H164.598V44.5245H155.021V40.7547H160.166V33.9792ZM155.53 32.7566C156.906 32.7566 158.027 32.3491 158.893 31.483C159.759 30.617 160.217 29.4453 160.217 28.0698V27.6623C160.217 26.2359 159.759 25.1151 158.893 24.2491C158.027 23.383 156.957 22.9245 155.53 22.9245C154.155 22.9245 153.034 23.3321 152.168 24.1981C151.302 25.0132 150.894 26.1849 150.894 27.6113V28.0189C150.894 29.4962 151.302 30.617 152.168 31.483C153.034 32.3491 154.155 32.7566 155.53 32.7566Z" fill="#6046FF"/>
<path d="M180.391 19.2567H184.823V36.4755H180.391V33.9793H179.779C179.015 35.9661 177.334 36.985 174.787 36.985C173.921 36.985 173.106 36.8321 172.342 36.5774C171.577 36.3227 170.915 35.8642 170.355 35.3038C169.794 34.7435 169.336 34.0303 169.03 33.1642C168.725 32.2982 168.572 31.2793 168.572 30.0567V19.2567H173.004V29.1397C173.004 30.3623 173.31 31.3303 173.87 32.0435C174.481 32.7057 175.347 33.0623 176.519 33.0623C177.843 33.0623 178.811 32.6548 179.423 31.7887C180.034 30.9227 180.391 29.751 180.391 28.3246V19.2567Z" fill="#6046FF"/>
<path d="M188.134 19.2567H195.928V21.7529H196.54C196.845 20.785 197.406 20.0718 198.17 19.5623C198.985 19.0529 199.902 18.7472 201.023 18.7472C202.755 18.7472 204.13 19.3076 205.2 20.3774C206.27 21.4472 206.779 23.0774 206.779 25.268V26.0321L202.194 27.051V25.9812C202.194 25.0133 201.94 24.3001 201.43 23.7397C200.921 23.1793 200.208 22.8736 199.189 22.8736C198.221 22.8736 197.406 23.2302 196.845 23.8925C196.285 24.5548 195.979 25.5227 195.979 26.7963V32.3491H200.004V36.5265H187.981V32.3491H191.547V23.3831H187.981V19.2567H188.134Z" fill="#6046FF"/>
<path d="M222.062 19.2567H226.494V36.4755H222.062V33.9793H221.451C220.687 35.9661 219.006 36.985 216.458 36.985C215.592 36.985 214.777 36.8321 214.013 36.5774C213.249 36.3227 212.587 35.8642 212.026 35.3038C211.466 34.7435 211.008 34.0303 210.702 33.1642C210.396 32.2982 210.243 31.2793 210.243 30.0567V19.2567H214.675V29.1397C214.675 30.3623 214.981 31.3303 215.542 32.0435C216.153 32.7057 217.019 33.0623 218.191 33.0623C219.515 33.0623 220.483 32.6548 221.094 31.7887C221.706 30.9227 222.062 29.751 222.062 28.3246V19.2567Z" fill="#6046FF"/>
<path d="M95.7735 29.3434C95.7735 29.8529 95.9264 30.3114 96.1301 30.7699C96.3849 31.1774 96.6905 31.534 97.0471 31.8906C97.4547 32.1963 97.9132 32.451 98.3717 32.6038C98.8811 32.7567 99.4415 32.8585 100.002 32.8585C101.123 32.8585 101.938 32.6548 102.549 32.2982C103.16 31.8906 103.568 31.4321 103.823 30.9227L107.643 33.0114C107.44 33.4699 107.134 33.9284 106.777 34.3868C106.421 34.8453 105.911 35.2529 105.3 35.6604C104.689 36.068 103.975 36.3736 103.109 36.6284C102.243 36.8831 101.275 36.985 100.104 36.985C98.7792 36.985 97.6075 36.7812 96.5377 36.3736C95.4679 35.9661 94.5 35.3548 93.7358 34.5906C92.9717 33.8265 92.3603 32.8585 91.9018 31.6868C91.4943 30.5661 91.2905 29.2925 91.2905 27.8151V27.6114C91.2905 26.2868 91.4943 25.0642 91.9528 23.9944C92.4113 22.9246 93.0735 21.9567 93.8377 21.1925C94.6528 20.4284 95.5698 19.817 96.6396 19.4095C97.7094 18.951 98.8811 18.7472 100.104 18.7472C101.581 18.7472 102.906 19.0019 103.975 19.5623C105.045 20.0718 105.962 20.734 106.624 21.5491C107.338 22.3133 107.847 23.2302 108.153 24.1982C108.458 25.1661 108.662 26.0831 108.662 27.0001V29.3434H95.7735ZM99.9509 22.7718C98.8301 22.7718 97.9132 23.0774 97.2 23.6378C96.4868 24.1982 96.0283 24.8604 95.8245 25.5736H104.077C103.924 24.7585 103.466 24.0963 102.753 23.5359C101.989 23.0774 101.072 22.7718 99.9509 22.7718Z" fill="#00040F"/>
<path d="M124.302 19.3076H129.193L124.964 27.4076V28.0189L129.447 36.5265H124.353L121.092 29.8019H120.481L117.221 36.5265H112.126L116.609 28.0189V27.4076L112.33 19.3076H117.272L120.532 25.6246H121.143L124.302 19.3076Z" fill="#00040F"/>
<path d="M83.5473 21.8038H82.936C82.7322 21.3962 82.5284 21.0396 82.2227 20.683C81.968 20.3264 81.6114 20.0208 81.1529 19.7661C80.7454 19.5113 80.236 19.2566 79.6246 19.1038C79.0133 18.951 78.3001 18.8491 77.485 18.8491C76.4152 18.8491 75.3963 19.0528 74.4794 19.4095C73.5624 19.817 72.7473 20.3774 72.0341 21.0906C71.3718 21.8547 70.8114 22.7717 70.4039 23.8925C70.0473 24.9623 69.8435 26.2359 69.8435 27.6623V28.2736C69.8435 29.6491 70.0473 30.9227 70.4548 31.9925C70.8624 33.0623 71.4228 33.9793 72.136 34.7434C72.8492 35.5076 73.7152 36.0679 74.6322 36.4755C75.6001 36.883 76.619 37.0868 77.6378 37.0868C79.0643 37.0868 80.1341 36.8321 81.0001 36.2717C81.8152 35.7623 82.4775 35.0491 82.936 34.0812H83.5473V36.5774H87.9794V11.2076H79.9812V14.9774H83.5473V21.8038ZM78.9114 23.0264C80.2869 23.0264 81.4077 23.434 82.2737 24.3C83.1397 25.1661 83.5982 26.3378 83.5982 27.7132V28.1208C83.5982 29.5472 83.1397 30.6679 82.2737 31.534C81.4077 32.4 80.3378 32.8585 78.9114 32.8585C77.536 32.8585 76.4152 32.451 75.5492 31.5849C74.6831 30.7698 74.2756 29.5981 74.2756 28.1717V27.7642C74.2756 26.2868 74.6831 25.1661 75.5492 24.3C76.4152 23.434 77.536 23.0264 78.9114 23.0264Z" fill="#00040F"/>
<path d="M141.368 30.1076H134.898V36.4755H141.368V30.1076Z" fill="#00040F"/>
</g>
<defs>
<linearGradient id="paint0_linear_557_13902" x1="9.94804" y1="11.4661" x2="47.8548" y2="21.5679" gradientUnits="userSpaceOnUse">
<stop stop-color="#9488F0"/>
<stop offset="1" stop-color="#3AEAB5"/>
</linearGradient>
<linearGradient id="paint1_linear_557_13902" x1="5.71302" y1="27.3578" x2="43.6198" y2="37.4596" gradientUnits="userSpaceOnUse">
<stop stop-color="#9488F0"/>
<stop offset="1" stop-color="#3AEAB5"/>
</linearGradient>
<clipPath id="clip0_557_13902">
<rect width="226.698" height="54" fill="white"/>
</clipPath>
</defs>
</svg>
