<svg width="227" height="54" viewBox="0 0 227 54" fill="none" xmlns="http://www.w3.org/2000/svg">
<g clip-path="url(#clip0_1_6376)">
<mask id="mask0_1_6376" style="mask-type:luminance" maskUnits="userSpaceOnUse" x="0" y="0" width="54" height="54">
<path d="M54 0H0V54H54V0Z" fill="white"/>
</mask>
<g mask="url(#mask0_1_6376)">
<path d="M27 54C41.9264 54 54 41.9264 54 27C54 12.0736 41.9264 0 27 0C12.0736 0 0 12.0736 0 27C0 41.9264 12.0736 54 27 54Z" fill="#181D23"/>
<path fill-rule="evenodd" clip-rule="evenodd" d="M27.0511 9.32275C25.1153 9.32275 23.587 10.0869 22.5681 11.3095C21.6002 12.5322 21.1926 14.0605 21.1926 15.5378C21.1926 17.1171 21.8039 18.8492 22.7719 20.2246C23.6889 21.5492 25.1662 22.8228 27.0511 22.8228C28.936 22.8228 30.4134 21.5492 31.3304 20.2246C32.2983 18.8492 32.9096 17.1171 32.9096 15.5378C32.9096 14.0605 32.5021 12.5322 31.5341 11.3095C30.5153 10.0869 28.987 9.32275 27.0511 9.32275ZM23.8417 15.5378C23.8417 14.519 24.1473 13.602 24.6058 12.9907C25.0643 12.4303 25.8285 11.9718 27.0002 11.9718C28.2228 11.9718 28.936 12.4303 29.3945 12.9907C29.9039 13.602 30.1587 14.519 30.1587 15.5378C30.1587 16.4548 29.7511 17.6775 29.0889 18.6963C28.3756 19.7152 27.6115 20.1737 27.0002 20.1737C26.3889 20.1737 25.6247 19.7152 24.9115 18.6963C24.2492 17.6775 23.8417 16.4548 23.8417 15.5378Z" fill="url(#paint0_linear_1_6376)"/>
<path d="M18.136 28.834C15.436 28.5283 13.1945 30.7189 13.1945 32.9094C13.1945 35.1 14.9265 37.0868 18.1869 37.0868C19.3586 37.0868 20.5813 36.5773 21.8548 35.6094C23.3831 34.4887 24.6567 33.1641 25.9303 31.8396C27.2039 30.5151 28.4775 29.1906 30.0567 28.0698C31.585 26.949 33.3171 26.083 35.3039 26.083C39.7869 26.083 42.9964 29.0377 42.9964 32.9604C42.9964 36.8321 39.2775 40.1434 35.1001 39.6849C33.419 39.4811 31.4322 38.9207 29.853 37.3924L31.7379 35.5075C32.7567 36.4755 34.0813 36.934 35.4058 37.0868C38.1058 37.3924 40.3473 35.2019 40.3473 33.0113C40.3473 30.8207 38.6152 28.834 35.3548 28.834C34.1831 28.834 32.9605 29.3434 31.6869 30.3113C30.1586 31.4321 28.885 32.7566 27.6114 34.0811C26.3379 35.4057 25.0643 36.7302 23.485 37.8509C21.9567 38.9717 20.2247 39.8377 18.2379 39.8377C13.7548 39.8377 10.5454 36.883 10.5454 32.9604C10.5454 29.0887 14.2643 25.7773 18.4416 26.2358C20.1228 26.4396 22.1096 27 23.6888 28.5283L21.8039 30.4132C20.785 29.4453 19.4605 28.9868 18.136 28.834Z" fill="url(#paint1_linear_1_6376)"/>
</g>
<path d="M160.166 33.9793H159.555C159.351 34.3869 159.147 34.7435 158.842 35.1001C158.587 35.4567 158.23 35.7623 157.772 36.017C157.364 36.2718 156.855 36.5265 156.244 36.6793C155.632 36.8321 154.919 36.934 154.104 36.934C153.034 36.934 152.015 36.7303 151.098 36.3736C150.181 35.9661 149.366 35.4057 148.653 34.6925C147.991 33.9284 147.43 33.0114 147.023 31.8906C146.666 30.8208 146.462 29.5472 146.462 28.1208V27.5095C146.462 26.134 146.666 24.8604 147.074 23.7906C147.481 22.7208 148.042 21.8038 148.755 21.0397C149.468 20.2755 150.334 19.7152 151.251 19.3076C152.219 18.9001 153.238 18.6963 154.257 18.6963C155.683 18.6963 156.804 18.951 157.619 19.5114C158.434 20.0208 159.096 20.734 159.555 21.7019H160.166V19.2057H164.598V44.5246H155.021V40.7548H160.166V33.9793ZM155.53 32.7567C156.906 32.7567 158.027 32.3491 158.893 31.4831C159.759 30.617 160.217 29.4453 160.217 28.0699V27.6623C160.217 26.2359 159.759 25.1152 158.893 24.2491C158.027 23.3831 156.957 22.9246 155.53 22.9246C154.155 22.9246 153.034 23.3321 152.168 24.1982C151.302 25.0133 150.894 26.185 150.894 27.6114V28.0189C150.894 29.4963 151.302 30.617 152.168 31.4831C153.034 32.3491 154.155 32.7567 155.53 32.7567Z" fill="#6046FF"/>
<path d="M180.391 19.2566H184.823V36.4755H180.391V33.9792H179.779C179.015 35.966 177.334 36.9849 174.787 36.9849C173.921 36.9849 173.106 36.8321 172.342 36.5773C171.577 36.3226 170.915 35.8641 170.355 35.3038C169.794 34.7434 169.336 34.0302 169.03 33.1641C168.725 32.2981 168.572 31.2792 168.572 30.0566V19.2566H173.004V29.1396C173.004 30.3623 173.31 31.3302 173.87 32.0434C174.481 32.7056 175.347 33.0623 176.519 33.0623C177.843 33.0623 178.811 32.6547 179.423 31.7887C180.034 30.9226 180.391 29.7509 180.391 28.3245V19.2566Z" fill="#6046FF"/>
<path d="M188.134 19.2567H195.928V21.753H196.54C196.845 20.7851 197.406 20.0718 198.17 19.5624C198.985 19.053 199.902 18.7473 201.023 18.7473C202.755 18.7473 204.13 19.3077 205.2 20.3775C206.27 21.4473 206.779 23.0775 206.779 25.2681V26.0322L202.194 27.0511V25.9813C202.194 25.0134 201.94 24.3001 201.43 23.7398C200.921 23.1794 200.208 22.8737 199.189 22.8737C198.221 22.8737 197.406 23.2303 196.845 23.8926C196.285 24.5549 195.979 25.5228 195.979 26.7964V32.3492H200.004V36.5266H187.981V32.3492H191.547V23.3832H187.981V19.2567H188.134Z" fill="#6046FF"/>
<path d="M222.062 19.2566H226.494V36.4755H222.062V33.9792H221.451C220.687 35.966 219.006 36.9849 216.458 36.9849C215.592 36.9849 214.777 36.8321 214.013 36.5773C213.249 36.3226 212.587 35.8641 212.026 35.3038C211.466 34.7434 211.008 34.0302 210.702 33.1641C210.396 32.2981 210.243 31.2792 210.243 30.0566V19.2566H214.675V29.1396C214.675 30.3623 214.981 31.3302 215.542 32.0434C216.153 32.7056 217.019 33.0623 218.191 33.0623C219.515 33.0623 220.483 32.6547 221.094 31.7887C221.706 30.9226 222.062 29.7509 222.062 28.3245V19.2566Z" fill="#6046FF"/>
<path d="M95.7735 29.3435C95.7735 29.853 95.9264 30.3115 96.1301 30.77C96.3849 31.1775 96.6905 31.5341 97.0471 31.8907C97.4547 32.1964 97.9132 32.4511 98.3717 32.6039C98.8811 32.7567 99.4415 32.8586 100.002 32.8586C101.123 32.8586 101.938 32.6549 102.549 32.2983C103.16 31.8907 103.568 31.4322 103.823 30.9228L107.643 33.0115C107.44 33.47 107.134 33.9284 106.777 34.3869C106.421 34.8454 105.911 35.253 105.3 35.6605C104.689 36.0681 103.975 36.3737 103.109 36.6284C102.243 36.8832 101.275 36.9851 100.104 36.9851C98.7792 36.9851 97.6075 36.7813 96.5377 36.3737C95.4679 35.9662 94.5 35.3549 93.7358 34.5907C92.9717 33.8266 92.3603 32.8586 91.9018 31.6869C91.4943 30.5662 91.2905 29.2926 91.2905 27.8152V27.6115C91.2905 26.2869 91.4943 25.0643 91.9528 23.9945C92.4113 22.9247 93.0735 21.9567 93.8377 21.1926C94.6528 20.4284 95.5698 19.8171 96.6396 19.4096C97.7094 18.9511 98.8811 18.7473 100.104 18.7473C101.581 18.7473 102.906 19.002 103.975 19.5624C105.045 20.0718 105.962 20.7341 106.624 21.5492C107.338 22.3134 107.847 23.2303 108.153 24.1983C108.458 25.1662 108.662 26.0832 108.662 27.0001V29.3435H95.7735ZM99.9509 22.7718C98.8301 22.7718 97.9132 23.0775 97.2 23.6379C96.4868 24.1983 96.0283 24.8605 95.8245 25.5737H104.077C103.924 24.7586 103.466 24.0964 102.753 23.536C101.989 23.0775 101.072 22.7718 99.9509 22.7718Z" fill="white"/>
<path d="M124.302 19.3076H129.193L124.964 27.4076V28.0189L129.447 36.5265H124.353L121.092 29.802H120.481L117.221 36.5265H112.126L116.609 28.0189V27.4076L112.33 19.3076H117.272L120.532 25.6246H121.143L124.302 19.3076Z" fill="white"/>
<path d="M83.5473 21.8037H82.936C82.7322 21.3962 82.5284 21.0396 82.2227 20.683C81.968 20.3264 81.6114 20.0207 81.1529 19.766C80.7454 19.5113 80.236 19.2566 79.6246 19.1037C79.0133 18.9509 78.3001 18.849 77.485 18.849C76.4152 18.849 75.3963 19.0528 74.4794 19.4094C73.5624 19.817 72.7473 20.3773 72.0341 21.0905C71.3718 21.8547 70.8114 22.7717 70.4039 23.8924C70.0473 24.9622 69.8435 26.2358 69.8435 27.6622V28.2736C69.8435 29.649 70.0473 30.9226 70.4548 31.9924C70.8624 33.0622 71.4228 33.9792 72.136 34.7434C72.8492 35.5075 73.7152 36.0679 74.6322 36.4754C75.6001 36.883 76.619 37.0868 77.6378 37.0868C79.0643 37.0868 80.1341 36.832 81.0001 36.2717C81.8152 35.7622 82.4775 35.049 82.936 34.0811H83.5473V36.5773H87.9794V11.2075H79.9812V14.9773H83.5473V21.8037ZM78.9114 23.0264C80.2869 23.0264 81.4077 23.4339 82.2737 24.3C83.1397 25.166 83.5982 26.3377 83.5982 27.7132V28.1207C83.5982 29.5471 83.1397 30.6679 82.2737 31.5339C81.4077 32.4 80.3378 32.8585 78.9114 32.8585C77.536 32.8585 76.4152 32.4509 75.5492 31.5849C74.6831 30.7698 74.2756 29.5981 74.2756 28.1717V27.7641C74.2756 26.2868 74.6831 25.166 75.5492 24.3C76.4152 23.4339 77.536 23.0264 78.9114 23.0264Z" fill="white"/>
<path d="M141.368 30.1077H134.898V36.4756H141.368V30.1077Z" fill="white"/>
</g>
<defs>
<linearGradient id="paint0_linear_1_6376" x1="9.94804" y1="11.4662" x2="47.8548" y2="21.568" gradientUnits="userSpaceOnUse">
<stop stop-color="#9488F0"/>
<stop offset="1" stop-color="#3AEAB5"/>
</linearGradient>
<linearGradient id="paint1_linear_1_6376" x1="5.71302" y1="27.3578" x2="43.6198" y2="37.4595" gradientUnits="userSpaceOnUse">
<stop stop-color="#9488F0"/>
<stop offset="1" stop-color="#3AEAB5"/>
</linearGradient>
<clipPath id="clip0_1_6376">
<rect width="226.698" height="54" fill="white"/>
</clipPath>
</defs>
</svg>
