<svg width="32" height="32" viewBox="0 0 32 32" fill="none" xmlns="http://www.w3.org/2000/svg">
<g filter="url(#filter0_b_6080_2090)">
<ellipse cx="16.0005" cy="16" rx="16" ry="16" fill="url(#paint0_linear_6080_2090)" fill-opacity="0.1"/>
</g>
<path d="M32.0005 16C32.0005 24.8365 24.837 32 16.0005 32C7.16393 32 0.000488281 24.8365 0.000488281 16C0.000488281 7.16344 7.16393 0 16.0005 0C24.837 0 32.0005 7.16344 32.0005 16ZM0.94364 16C0.94364 24.3156 7.68482 31.0568 16.0005 31.0568C24.3162 31.0568 31.0573 24.3156 31.0573 16C31.0573 7.68432 24.3162 0.943151 16.0005 0.943151C7.68482 0.943151 0.94364 7.68432 0.94364 16Z" fill="url(#paint1_linear_6080_2090)"/>
<path d="M15.9998 5.50977C14.7048 5.50977 13.6548 10.2068 13.6548 15.9998C13.6548 21.7928 14.7048 26.4898 15.9998 26.4898C17.2938 26.4898 18.3438 21.7928 18.3438 15.9998C18.3438 10.2068 17.2938 5.50977 15.9998 5.50977ZM16.1618 25.8968C16.0138 26.0948 15.8648 25.9468 15.8648 25.9468C15.2688 25.2548 14.9708 23.9718 14.9708 23.9718C13.9278 20.6148 14.1758 13.4078 14.1758 13.4078C14.6658 7.68677 15.5578 6.33477 15.8608 6.03477C15.8918 6.004 15.9327 5.98521 15.9763 5.98173C16.0199 5.97825 16.0633 5.99031 16.0988 6.01577C16.5388 6.32877 16.9088 7.63277 16.9088 7.63277C17.9988 11.6808 17.8998 15.4808 17.8998 15.4808C17.9988 18.7888 17.3538 22.4908 17.3538 22.4908C16.8568 25.3048 16.1618 25.8968 16.1618 25.8968Z" fill="#0CC2FF"/>
<path d="M25.098 10.7796C24.453 9.65557 19.858 11.0826 14.831 13.9656C9.80398 16.8486 6.25798 20.0956 6.90098 21.2196C7.54598 22.3436 12.142 20.9166 17.169 18.0336C22.196 15.1506 25.742 11.9026 25.098 10.7796ZM7.49498 21.0646C7.24898 21.0346 7.30498 20.8306 7.30498 20.8306C7.60698 19.9706 8.57098 19.0726 8.57098 19.0726C10.964 16.4976 17.34 13.1266 17.34 13.1266C22.546 10.7046 24.163 10.8066 24.573 10.9186C24.6153 10.9302 24.6521 10.9565 24.6769 10.9928C24.7016 11.029 24.7126 11.0729 24.708 11.1166C24.658 11.6536 23.708 12.6236 23.708 12.6236C20.742 15.5846 17.396 17.3916 17.396 17.3916C14.576 19.1236 11.043 20.4046 11.043 20.4046C8.35498 21.3726 7.49498 21.0646 7.49498 21.0646Z" fill="#0CC2FF"/>
<path d="M25.0749 21.2567C25.7249 20.1367 22.1879 16.8737 17.1769 13.9687C12.1669 11.0647 7.57291 9.62072 6.92391 10.7427C6.27391 11.8657 9.8119 15.1257 14.8239 18.0307C19.8369 20.9347 24.4259 22.3787 25.0749 21.2567ZM7.35491 11.1757C7.25791 10.9477 7.46091 10.8927 7.46091 10.8927C8.35791 10.7227 9.61791 11.1097 9.61791 11.1097C13.0449 11.8897 19.1559 15.7177 19.1559 15.7177C23.8609 19.0097 24.5829 20.4607 24.6909 20.8717C24.7018 20.9139 24.6975 20.9587 24.6787 20.998C24.6598 21.0374 24.6277 21.0688 24.5879 21.0867C24.0979 21.3117 22.7829 20.9767 22.7829 20.9767C18.7329 19.8907 15.4939 17.9017 15.4939 17.9017C12.5839 16.3317 9.70591 13.9167 9.70591 13.9167C7.51891 12.0747 7.35591 11.1767 7.35591 11.1767L7.35391 11.1757H7.35491Z" fill="#0CC2FF"/>
<path d="M15.9752 17.2092C16.6567 17.2092 17.2092 16.6567 17.2092 15.9752C17.2092 15.2937 16.6567 14.7412 15.9752 14.7412C15.2937 14.7412 14.7412 15.2937 14.7412 15.9752C14.7412 16.6567 15.2937 17.2092 15.9752 17.2092Z" fill="#0CC2FF"/>
<path d="M21.0352 12.2354C21.5874 12.2354 22.0352 11.7876 22.0352 11.2354C22.0352 10.6831 21.5874 10.2354 21.0352 10.2354C20.4829 10.2354 20.0352 10.6831 20.0352 11.2354C20.0352 11.7876 20.4829 12.2354 21.0352 12.2354Z" fill="#0CC2FF"/>
<path d="M9.28589 14.7539C9.83817 14.7539 10.2859 14.3062 10.2859 13.7539C10.2859 13.2016 9.83817 12.7539 9.28589 12.7539C8.7336 12.7539 8.28589 13.2016 8.28589 13.7539C8.28589 14.3062 8.7336 14.7539 9.28589 14.7539Z" fill="#0CC2FF"/>
<path d="M14.519 23.8359C15.0713 23.8359 15.519 23.3882 15.519 22.8359C15.519 22.2837 15.0713 21.8359 14.519 21.8359C13.9668 21.8359 13.519 22.2837 13.519 22.8359C13.519 23.3882 13.9668 23.8359 14.519 23.8359Z" fill="#0CC2FF"/>
<defs>
<filter id="filter0_b_6080_2090" x="-2.5668" y="-2.56729" width="37.1346" height="37.1346" filterUnits="userSpaceOnUse" color-interpolation-filters="sRGB">
<feFlood flood-opacity="0" result="BackgroundImageFix"/>
<feGaussianBlur in="BackgroundImageFix" stdDeviation="1.28364"/>
<feComposite in2="SourceAlpha" operator="in" result="effect1_backgroundBlur_6080_2090"/>
<feBlend mode="normal" in="SourceGraphic" in2="effect1_backgroundBlur_6080_2090" result="shape"/>
</filter>
<linearGradient id="paint0_linear_6080_2090" x1="16.0005" y1="0" x2="16.0005" y2="32" gradientUnits="userSpaceOnUse">
<stop stop-color="#005271"/>
<stop offset="1" stop-color="#004471"/>
</linearGradient>
<linearGradient id="paint1_linear_6080_2090" x1="16.0005" y1="0" x2="16.0005" y2="32" gradientUnits="userSpaceOnUse">
<stop stop-color="#38BDEE"/>
<stop offset="1" stop-color="#004471"/>
</linearGradient>
</defs>
</svg>
