<svg width="32" height="32" viewBox="0 0 32 32" fill="none" xmlns="http://www.w3.org/2000/svg">
<g filter="url(#filter0_b_6791_10962)">
<ellipse cx="16" cy="16" rx="16" ry="16" fill="url(#paint0_linear_6791_10962)" fill-opacity="0.05"/>
</g>
<path d="M32 16C32 24.8365 24.8366 32 16 32C7.16344 32 0 24.8365 0 16C0 7.16344 7.16344 0 16 0C24.8366 0 32 7.16344 32 16ZM0.943151 16C0.943151 24.3156 7.68433 31.0568 16 31.0568C24.3157 31.0568 31.0568 24.3156 31.0568 16C31.0568 7.68432 24.3157 0.943151 16 0.943151C7.68433 0.943151 0.943151 7.68432 0.943151 16Z" fill="url(#paint1_linear_6791_10962)"/>
<path d="M15.9993 5.50977C14.7043 5.50977 13.6543 10.2068 13.6543 15.9998C13.6543 21.7928 14.7043 26.4898 15.9993 26.4898C17.2933 26.4898 18.3433 21.7928 18.3433 15.9998C18.3433 10.2068 17.2933 5.50977 15.9993 5.50977ZM16.1613 25.8968C16.0133 26.0948 15.8643 25.9468 15.8643 25.9468C15.2683 25.2548 14.9703 23.9718 14.9703 23.9718C13.9273 20.6148 14.1753 13.4078 14.1753 13.4078C14.6653 7.68677 15.5573 6.33477 15.8603 6.03477C15.8913 6.004 15.9323 5.98521 15.9758 5.98173C16.0194 5.97825 16.0628 5.99031 16.0983 6.01577C16.5383 6.32877 16.9083 7.63277 16.9083 7.63277C17.9983 11.6808 17.8993 15.4808 17.8993 15.4808C17.9983 18.7888 17.3533 22.4908 17.3533 22.4908C16.8563 25.3048 16.1613 25.8968 16.1613 25.8968Z" fill="#0CC2FF"/>
<path d="M25.0975 10.7796C24.4525 9.65557 19.8575 11.0826 14.8305 13.9656C9.80349 16.8486 6.25749 20.0956 6.90049 21.2196C7.54549 22.3436 12.1415 20.9166 17.1685 18.0336C22.1955 15.1506 25.7415 11.9026 25.0975 10.7796ZM7.49449 21.0646C7.24849 21.0346 7.30449 20.8306 7.30449 20.8306C7.60649 19.9706 8.57049 19.0726 8.57049 19.0726C10.9635 16.4976 17.3395 13.1266 17.3395 13.1266C22.5455 10.7046 24.1625 10.8066 24.5725 10.9186C24.6148 10.9302 24.6517 10.9565 24.6764 10.9928C24.7011 11.029 24.7121 11.0729 24.7075 11.1166C24.6575 11.6536 23.7075 12.6236 23.7075 12.6236C20.7415 15.5846 17.3955 17.3916 17.3955 17.3916C14.5755 19.1236 11.0425 20.4046 11.0425 20.4046C8.35449 21.3726 7.49449 21.0646 7.49449 21.0646Z" fill="#0CC2FF"/>
<path d="M25.0747 21.2567C25.7247 20.1367 22.1877 16.8737 17.1767 13.9687C12.1667 11.0647 7.57266 9.62072 6.92366 10.7427C6.27366 11.8657 9.81166 15.1257 14.8237 18.0307C19.8367 20.9347 24.4257 22.3787 25.0747 21.2567ZM7.35466 11.1757C7.25766 10.9477 7.46066 10.8927 7.46066 10.8927C8.35766 10.7227 9.61766 11.1097 9.61766 11.1097C13.0447 11.8897 19.1557 15.7177 19.1557 15.7177C23.8607 19.0097 24.5827 20.4607 24.6907 20.8717C24.7016 20.9139 24.6973 20.9587 24.6784 20.998C24.6596 21.0374 24.6274 21.0688 24.5877 21.0867C24.0977 21.3117 22.7827 20.9767 22.7827 20.9767C18.7327 19.8907 15.4937 17.9017 15.4937 17.9017C12.5837 16.3317 9.70566 13.9167 9.70566 13.9167C7.51866 12.0747 7.35566 11.1767 7.35566 11.1767L7.35366 11.1757H7.35466Z" fill="#0CC2FF"/>
<path d="M15.9747 17.2092C16.6562 17.2092 17.2087 16.6567 17.2087 15.9752C17.2087 15.2937 16.6562 14.7412 15.9747 14.7412C15.2932 14.7412 14.7407 15.2937 14.7407 15.9752C14.7407 16.6567 15.2932 17.2092 15.9747 17.2092Z" fill="#0CC2FF"/>
<path d="M21.0347 12.2354C21.587 12.2354 22.0347 11.7876 22.0347 11.2354C22.0347 10.6831 21.587 10.2354 21.0347 10.2354C20.4824 10.2354 20.0347 10.6831 20.0347 11.2354C20.0347 11.7876 20.4824 12.2354 21.0347 12.2354Z" fill="#0CC2FF"/>
<path d="M9.28516 14.7539C9.83744 14.7539 10.2852 14.3062 10.2852 13.7539C10.2852 13.2016 9.83744 12.7539 9.28516 12.7539C8.73287 12.7539 8.28516 13.2016 8.28516 13.7539C8.28516 14.3062 8.73287 14.7539 9.28516 14.7539Z" fill="#0CC2FF"/>
<path d="M14.5186 23.8359C15.0708 23.8359 15.5186 23.3882 15.5186 22.8359C15.5186 22.2837 15.0708 21.8359 14.5186 21.8359C13.9663 21.8359 13.5186 22.2837 13.5186 22.8359C13.5186 23.3882 13.9663 23.8359 14.5186 23.8359Z" fill="#0CC2FF"/>
<defs>
<filter id="filter0_b_6791_10962" x="-2.56729" y="-2.56729" width="37.1346" height="37.1346" filterUnits="userSpaceOnUse" color-interpolation-filters="sRGB">
<feFlood flood-opacity="0" result="BackgroundImageFix"/>
<feGaussianBlur in="BackgroundImageFix" stdDeviation="1.28364"/>
<feComposite in2="SourceAlpha" operator="in" result="effect1_backgroundBlur_6791_10962"/>
<feBlend mode="normal" in="SourceGraphic" in2="effect1_backgroundBlur_6791_10962" result="shape"/>
</filter>
<linearGradient id="paint0_linear_6791_10962" x1="16" y1="0" x2="16" y2="32" gradientUnits="userSpaceOnUse">
<stop stop-color="#38CDFF"/>
<stop offset="1" stop-color="#66D9FF"/>
</linearGradient>
<linearGradient id="paint1_linear_6791_10962" x1="16" y1="0" x2="16" y2="32" gradientUnits="userSpaceOnUse">
<stop stop-color="#38BDEE"/>
<stop offset="1" stop-color="#004471"/>
</linearGradient>
</defs>
</svg>
