<svg width="32" height="32" viewBox="0 0 32 32" fill="none" xmlns="http://www.w3.org/2000/svg">
<g filter="url(#filter0_b_8675_4153)">
<ellipse cx="16" cy="16" rx="16" ry="16" fill="url(#paint0_linear_8675_4153)" fill-opacity="0.1"/>
</g>
<path d="M32 16C32 24.8365 24.8366 32 16 32C7.16344 32 0 24.8365 0 16C0 7.16344 7.16344 0 16 0C24.8366 0 32 7.16344 32 16ZM0.943151 16C0.943151 24.3156 7.68433 31.0568 16 31.0568C24.3157 31.0568 31.0568 24.3156 31.0568 16C31.0568 7.68432 24.3157 0.943151 16 0.943151C7.68433 0.943151 0.943151 7.68432 0.943151 16Z" fill="url(#paint1_linear_8675_4153)"/>
<g filter="url(#filter1_d_8675_4153)">
<path d="M11.4552 12.7695H12.4263V19.2303H11.4552V14.0065L9.87064 15.591L8.28611 14.0065V19.2303H7.31494V12.7695H8.28611L9.87064 14.3541L11.4552 12.7695Z" fill="url(#paint2_linear_8675_4153)"/>
<path d="M17.7484 12.7695L18.556 13.5771V16.2657L17.7484 17.0733H14.4158V19.2303H13.4446V13.5771L14.2522 12.7695H17.7484ZM17.5848 15.867V13.9758L17.3497 13.7407H14.6509L14.4158 13.9758V16.1022H17.3497L17.5848 15.867Z" fill="url(#paint3_linear_8675_4153)"/>
<path d="M19.5743 19.2303L21.5473 15.9999L19.5743 12.7695H20.7295L22.13 15.1105L23.5305 12.7695H24.6857L22.7025 15.9999L24.6857 19.2303H23.5305L22.13 16.8893L20.7295 19.2303H19.5743Z" fill="url(#paint4_linear_8675_4153)"/>
</g>
<defs>
<filter id="filter0_b_8675_4153" x="-2.56729" y="-2.56729" width="37.1346" height="37.1346" filterUnits="userSpaceOnUse" color-interpolation-filters="sRGB">
<feFlood flood-opacity="0" result="BackgroundImageFix"/>
<feGaussianBlur in="BackgroundImageFix" stdDeviation="1.28364"/>
<feComposite in2="SourceAlpha" operator="in" result="effect1_backgroundBlur_8675_4153"/>
<feBlend mode="normal" in="SourceGraphic" in2="effect1_backgroundBlur_8675_4153" result="shape"/>
</filter>
<filter id="filter1_d_8675_4153" x="6.80148" y="12.7695" width="18.3975" height="8.66147" filterUnits="userSpaceOnUse" color-interpolation-filters="sRGB">
<feFlood flood-opacity="0" result="BackgroundImageFix"/>
<feColorMatrix in="SourceAlpha" type="matrix" values="0 0 0 0 0 0 0 0 0 0 0 0 0 0 0 0 0 0 127 0" result="hardAlpha"/>
<feOffset dy="1.68707"/>
<feGaussianBlur stdDeviation="0.256729"/>
<feComposite in2="hardAlpha" operator="out"/>
<feColorMatrix type="matrix" values="0 0 0 0 0 0 0 0 0 0 0 0 0 0 0 0 0 0 0.17 0"/>
<feBlend mode="normal" in2="BackgroundImageFix" result="effect1_dropShadow_8675_4153"/>
<feBlend mode="normal" in="SourceGraphic" in2="effect1_dropShadow_8675_4153" result="shape"/>
</filter>
<linearGradient id="paint0_linear_8675_4153" x1="16" y1="0" x2="16" y2="32" gradientUnits="userSpaceOnUse">
<stop stop-color="#005271"/>
<stop offset="1" stop-color="#004471"/>
</linearGradient>
<linearGradient id="paint1_linear_8675_4153" x1="16" y1="0" x2="16" y2="32" gradientUnits="userSpaceOnUse">
<stop stop-color="#38BDEE"/>
<stop offset="1" stop-color="#004471"/>
</linearGradient>
<linearGradient id="paint2_linear_8675_4153" x1="7.31494" y1="12.7695" x2="11.5412" y2="24.1232" gradientUnits="userSpaceOnUse">
<stop stop-color="#67D7FF"/>
<stop offset="1" stop-color="#A7E0F4"/>
</linearGradient>
<linearGradient id="paint3_linear_8675_4153" x1="7.31494" y1="12.7695" x2="11.5412" y2="24.1232" gradientUnits="userSpaceOnUse">
<stop stop-color="#67D7FF"/>
<stop offset="1" stop-color="#A7E0F4"/>
</linearGradient>
<linearGradient id="paint4_linear_8675_4153" x1="7.31494" y1="12.7695" x2="11.5412" y2="24.1232" gradientUnits="userSpaceOnUse">
<stop stop-color="#67D7FF"/>
<stop offset="1" stop-color="#A7E0F4"/>
</linearGradient>
</defs>
</svg>
