<svg width="33" height="33" viewBox="0 0 33 33" fill="none" xmlns="http://www.w3.org/2000/svg">
<path d="M32.0219 16.7695C31.8434 25.4275 24.6799 32.3016 16.0219 32.1231C7.36381 31.9446 0.489766 24.7811 0.668261 16.1231C0.846756 7.46503 8.0102 0.590988 16.6683 0.769483C25.3263 0.947978 32.2004 8.11142 32.0219 16.7695ZM1.59236 16.1421C1.42439 24.2898 7.89323 31.031 16.0409 31.199C24.1886 31.3669 30.9298 24.8981 31.0978 16.7504C31.2657 8.60273 24.7969 1.86156 16.6492 1.69358C8.50152 1.52561 1.76033 7.99445 1.59236 16.1421Z" fill="url(#paint0_linear_2671_15870)"/>
<g filter="url(#filter0_d_2671_15870)">
<path d="M11.8907 13.2812H12.8425V19.6129H11.8907V14.4935L10.3379 16.0463L8.785 14.4935V19.6129H7.83325V13.2812H8.785L10.3379 14.8341L11.8907 13.2812Z" fill="url(#paint1_linear_2671_15870)"/>
<path d="M18.0581 13.2812L18.8496 14.0727V16.7075L18.0581 17.499H14.7921V19.6129H13.8404V14.0727L14.6318 13.2812H18.0581ZM17.8978 16.3168V14.4634L17.6674 14.233H15.0226L14.7921 14.4634V16.5472H17.6674L17.8978 16.3168Z" fill="url(#paint2_linear_2671_15870)"/>
<path d="M19.8475 19.6129L21.7811 16.4471L19.8475 13.2812H20.9796L22.3521 15.5755L23.7246 13.2812H24.8567L22.9131 16.4471L24.8567 19.6129H23.7246L22.3521 17.3187L20.9796 19.6129H19.8475Z" fill="url(#paint3_linear_2671_15870)"/>
</g>
<defs>
<filter id="filter0_d_2671_15870" x="7.33006" y="13.2812" width="18.0298" height="8.48857" filterUnits="userSpaceOnUse" color-interpolation-filters="sRGB">
<feFlood flood-opacity="0" result="BackgroundImageFix"/>
<feColorMatrix in="SourceAlpha" type="matrix" values="0 0 0 0 0 0 0 0 0 0 0 0 0 0 0 0 0 0 127 0" result="hardAlpha"/>
<feOffset dy="1.65335"/>
<feGaussianBlur stdDeviation="0.251596"/>
<feComposite in2="hardAlpha" operator="out"/>
<feColorMatrix type="matrix" values="0 0 0 0 0.419608 0 0 0 0 0.619608 0 0 0 0 0.682353 0 0 0 0.17 0"/>
<feBlend mode="normal" in2="BackgroundImageFix" result="effect1_dropShadow_2671_15870"/>
<feBlend mode="normal" in="SourceGraphic" in2="effect1_dropShadow_2671_15870" result="shape"/>
</filter>
<linearGradient id="paint0_linear_2671_15870" x1="16.6683" y1="0.769483" x2="16.0219" y2="32.1231" gradientUnits="userSpaceOnUse">
<stop stop-color="#38BDEE"/>
<stop offset="1" stop-color="#004471"/>
</linearGradient>
<linearGradient id="paint1_linear_2671_15870" x1="7.83325" y1="13.2812" x2="11.9751" y2="24.4079" gradientUnits="userSpaceOnUse">
<stop stop-color="#00BFFF"/>
<stop offset="1" stop-color="#6CCEEF"/>
</linearGradient>
<linearGradient id="paint2_linear_2671_15870" x1="7.83325" y1="13.2812" x2="11.9751" y2="24.4079" gradientUnits="userSpaceOnUse">
<stop stop-color="#00BFFF"/>
<stop offset="1" stop-color="#6CCEEF"/>
</linearGradient>
<linearGradient id="paint3_linear_2671_15870" x1="7.83325" y1="13.2812" x2="11.9751" y2="24.4079" gradientUnits="userSpaceOnUse">
<stop stop-color="#00BFFF"/>
<stop offset="1" stop-color="#6CCEEF"/>
</linearGradient>
</defs>
</svg>
