<svg width="32" height="32" viewBox="0 0 32 32" fill="none" xmlns="http://www.w3.org/2000/svg">
<g filter="url(#filter0_i_9789_6232)">
<path d="M27.2002 9.6002C27.2002 13.1348 24.3348 16.0002 20.8002 16.0002C19.0008 16.0002 17.3749 15.2577 16.2122 14.0623C15.7467 13.5837 15.0302 13.3796 14.433 13.6782C13.6298 14.0798 13.4568 15.1614 13.847 15.9703C14.2015 16.7052 14.4002 17.5295 14.4002 18.4002C14.4002 18.4139 14.4001 18.4275 14.4 18.4412C14.393 19.4185 14.7722 20.4349 15.6414 20.8819L16.9883 21.5745C17.8399 22.0124 18.865 21.7285 19.7085 21.2749C20.2717 20.972 20.9159 20.8002 21.6002 20.8002C23.8093 20.8002 25.6002 22.5911 25.6002 24.8002C25.6002 27.0093 23.8093 28.8002 21.6002 28.8002C19.3911 28.8002 17.6002 27.0093 17.6002 24.8002C17.6002 24.1856 17.3469 23.5581 16.8003 23.277L15.0072 22.3549C14.1089 21.8929 13.0256 22.2109 12.227 22.8296C11.2799 23.5634 10.0911 24.0002 8.8002 24.0002C5.7074 24.0002 3.2002 21.493 3.2002 18.4002C3.2002 15.3074 5.7074 12.8002 8.8002 12.8002C9.36594 12.8002 9.91208 12.8841 10.4269 13.0401C11.0383 13.2254 11.7055 13.2531 12.2769 12.9674L13.1838 12.514C14.0853 12.0632 14.4749 11.0079 14.4126 10.0019C14.4044 9.86903 14.4002 9.7351 14.4002 9.6002C14.4002 6.06557 17.2656 3.2002 20.8002 3.2002C24.3348 3.2002 27.2002 6.06557 27.2002 9.6002Z" fill="#5A5D68"/>
</g>
<path d="M26.9502 9.6002C26.9502 12.9967 24.1967 15.7502 20.8002 15.7502C19.0711 15.7502 17.509 15.037 16.3914 13.888C15.8691 13.351 15.0383 13.096 14.3212 13.4546C13.8402 13.6951 13.5567 14.1363 13.4486 14.6166C13.3411 15.0945 13.4027 15.6247 13.6218 16.0789C13.9603 16.7807 14.1502 17.5679 14.1502 18.4002L14.1501 18.4394C14.1427 19.4661 14.5403 20.5968 15.527 21.1042L16.874 21.7968C17.8406 22.2939 18.9657 21.9582 19.8269 21.4951C20.3546 21.2113 20.9582 21.0502 21.6002 21.0502C23.6712 21.0502 25.3502 22.7291 25.3502 24.8002C25.3502 26.8712 23.6712 28.5502 21.6002 28.5502C19.5291 28.5502 17.8502 26.8712 17.8502 24.8002C17.8502 24.1307 17.5742 23.3938 16.9147 23.0547L15.1216 22.1326C14.1015 21.608 12.9119 21.9827 12.0739 22.632C11.1691 23.3331 10.0337 23.7502 8.8002 23.7502C5.84547 23.7502 3.4502 21.3549 3.4502 18.4002C3.4502 15.4455 5.84547 13.0502 8.8002 13.0502C9.3411 13.0502 9.86282 13.1304 10.3544 13.2794C11.0021 13.4757 11.7405 13.5151 12.3887 13.191L13.2956 12.7376C14.3188 12.226 14.7281 11.0511 14.6621 9.98642C14.6542 9.85872 14.6502 9.72994 14.6502 9.6002C14.6502 6.20364 17.4037 3.4502 20.8002 3.4502C24.1967 3.4502 26.9502 6.20364 26.9502 9.6002Z" stroke="#464955" stroke-width="0.5"/>
<defs>
<filter id="filter0_i_9789_6232" x="3.2002" y="3.2002" width="24" height="29.5996" filterUnits="userSpaceOnUse" color-interpolation-filters="sRGB">
<feFlood flood-opacity="0" result="BackgroundImageFix"/>
<feBlend mode="normal" in="SourceGraphic" in2="BackgroundImageFix" result="shape"/>
<feColorMatrix in="SourceAlpha" type="matrix" values="0 0 0 0 0 0 0 0 0 0 0 0 0 0 0 0 0 0 127 0" result="hardAlpha"/>
<feOffset dy="4"/>
<feGaussianBlur stdDeviation="2"/>
<feComposite in2="hardAlpha" operator="arithmetic" k2="-1" k3="1"/>
<feColorMatrix type="matrix" values="0 0 0 0 0 0 0 0 0 0 0 0 0 0 0 0 0 0 0.25 0"/>
<feBlend mode="normal" in2="shape" result="effect1_innerShadow_9789_6232"/>
</filter>
</defs>
</svg>
