<svg width="184" height="39" viewBox="0 0 184 39" fill="none" xmlns="http://www.w3.org/2000/svg">
<rect width="39" height="39" fill="#D1E0E3"/>
<path d="M4.06667 14.5667L4.16667 26.1667H7.83333H11.5V24.5001V22.8334L9.43333 22.7334L7.33333 22.6334V14.5001V6.33338H14.6667H22V14.5001V22.6334L19.9333 22.7334L17.8333 22.8334V24.5001V26.1667H21.5H25.1667L25.2667 14.5667L25.3333 3.00005H14.6667H4L4.06667 14.5667Z" fill="black"/>
<path d="M13.3333 23.8334V35.3334H23.6666H33.9999V23.8334V12.3334H30.4999H26.9999V14V15.6667H29.1666H31.3333L31.2666 23.9L31.1666 32.1667L23.5999 32.2667L15.9999 32.3334V24V15.6667H18.1666H20.3333V14V12.3334H16.8333H13.3333V23.8334Z" fill="#0E89CC"/>
<path d="M73.5338 17.7725L73.3394 18.6073C73.1259 18.6302 72.8133 18.6721 72.4016 18.7331C71.9976 18.7864 71.6011 18.9351 71.2123 19.1791C70.8845 19.3849 70.6024 19.7394 70.366 20.2426C70.1373 20.7458 69.9086 21.4815 69.6799 22.4497L66.9925 34.0915H65.0712L58.061 21.0889L56.2084 29.2084C56.1093 29.6353 56.0331 30.0356 55.9797 30.4091C55.9263 30.7827 55.8996 31.08 55.8996 31.3011C55.8996 31.6137 55.9301 31.8577 55.9911 32.033C56.0521 32.2008 56.1398 32.3418 56.2542 32.4562C56.4295 32.6315 56.7345 32.784 57.169 32.9136C57.6112 33.0432 57.939 33.1271 58.1525 33.1652L57.9581 34H50.9822L51.1766 33.1652C51.3825 33.1347 51.7065 33.0813 52.1487 33.0051C52.5985 32.9288 52.9835 32.7916 53.3037 32.5934C53.6391 32.3799 53.9212 32.033 54.1499 31.5527C54.3787 31.0648 54.6036 30.3253 54.8247 29.3342L56.5858 21.695C56.6239 21.5196 56.6544 21.3557 56.6773 21.2032C56.7078 21.0431 56.723 20.8983 56.723 20.7687C56.723 20.54 56.6963 20.3227 56.643 20.1168C56.5896 19.9034 56.4905 19.7089 56.3456 19.5336C56.1322 19.2744 55.8691 19.0762 55.5566 18.9389C55.244 18.7941 54.878 18.6835 54.4587 18.6073L54.6646 17.7725H60.657L66.7866 29.2084L68.3076 22.5641C68.4143 22.0762 68.4906 21.6797 68.5363 21.3748C68.5897 21.0622 68.6164 20.7725 68.6164 20.5056C68.6164 20.2083 68.582 19.9682 68.5134 19.7852C68.4524 19.5946 68.361 19.4383 68.239 19.3163C68.0712 19.1486 67.7739 18.9999 67.347 18.8703C66.9277 18.7331 66.6036 18.6454 66.3749 18.6073L66.5693 17.7725H73.5338ZM85.5644 27.1499C85.5644 28.1105 85.3814 29.0292 85.0154 29.9059C84.6495 30.7827 84.1311 31.5451 83.4601 32.1931C82.7359 32.8869 81.8858 33.4244 80.9099 33.8056C79.9417 34.1792 78.8515 34.3659 77.6393 34.3659C76.0154 34.3659 74.7041 33.9352 73.7053 33.0737C72.7066 32.2046 72.2072 31.0229 72.2072 29.5286C72.2072 28.5146 72.394 27.573 72.7676 26.7039C73.1488 25.8348 73.6786 25.0762 74.3572 24.4282C75.0281 23.7954 75.8515 23.296 76.8273 22.9301C77.8032 22.5565 78.8591 22.3697 79.9951 22.3697C81.7181 22.3697 83.0751 22.7928 84.0663 23.6391C85.065 24.4777 85.5644 25.648 85.5644 27.1499ZM81.5389 25.8576C81.5389 24.9656 81.3864 24.31 81.0815 23.8907C80.7842 23.4714 80.3496 23.2617 79.7778 23.2617C79.1907 23.2617 78.6533 23.498 78.1653 23.9707C77.6774 24.4358 77.281 25.1219 76.976 26.0292C76.7092 26.7839 76.5186 27.6035 76.4042 28.4879C76.2898 29.3647 76.2327 30.1499 76.2327 30.8437C76.2327 31.7662 76.3851 32.4371 76.6901 32.8564C76.9951 33.2681 77.4372 33.4739 78.0167 33.4739C78.6418 33.4739 79.1831 33.2185 79.6406 32.7077C80.098 32.1969 80.4601 31.568 80.727 30.8208C80.9938 30.0889 81.1958 29.2808 81.3331 28.3964C81.4703 27.5044 81.5389 26.6582 81.5389 25.8576ZM95.0905 32.5705H94.999C94.7321 32.7992 94.4767 33.0089 94.2328 33.1995C93.9888 33.3901 93.6762 33.5807 93.295 33.7713C92.9367 33.9543 92.586 34.0953 92.2429 34.1944C91.9075 34.3011 91.5186 34.3545 91.0765 34.3545C89.7499 34.3545 88.7512 33.9657 88.0803 33.1881C87.4093 32.4028 87.0739 31.3316 87.0739 29.9746C87.0739 28.9301 87.2569 27.9504 87.6228 27.0355C87.9888 26.1207 88.4843 25.3163 89.1095 24.6226C89.727 23.9364 90.4589 23.3951 91.3052 22.9987C92.1514 22.5946 93.0396 22.3926 93.9697 22.3926C94.6711 22.3926 95.2582 22.4688 95.7309 22.6213C96.2035 22.7661 96.5962 22.9605 96.9088 23.2045L97.755 19.4878C97.7779 19.3811 97.797 19.2668 97.8122 19.1448C97.8351 19.0152 97.8465 18.9122 97.8465 18.836C97.8465 18.5844 97.7817 18.3709 97.6521 18.1956C97.5225 18.0202 97.3433 17.883 97.1146 17.7839C96.9011 17.6848 96.6572 17.6124 96.3827 17.5666C96.1082 17.5209 95.8071 17.4789 95.4793 17.4408L95.6851 16.5946L102.101 16.2972L102.226 16.4802L99.1502 29.7802C99.0968 30.0012 99.032 30.2948 98.9558 30.6607C98.8872 31.019 98.8529 31.2897 98.8529 31.4727C98.8529 31.9072 98.9482 32.2084 99.1388 32.3761C99.337 32.5362 99.6801 32.6163 100.168 32.6163C100.381 32.6163 100.637 32.5743 100.934 32.4905C101.239 32.4066 101.453 32.338 101.575 32.2846L101.323 33.3138C100.568 33.6112 99.966 33.8399 99.5161 34C99.0663 34.1525 98.5441 34.2287 97.9494 34.2287C97.1642 34.2287 96.5352 34.0762 96.0625 33.7713C95.5974 33.4587 95.2734 33.0584 95.0905 32.5705ZM96.4399 25.2515C96.4399 25.0609 96.4132 24.8665 96.3598 24.6683C96.3141 24.4625 96.2188 24.2681 96.0739 24.0851C95.9291 23.8945 95.7499 23.7458 95.5365 23.6391C95.323 23.5247 95.0333 23.4675 94.6673 23.4675C94.1794 23.4675 93.722 23.6505 93.295 24.0165C92.8757 24.3748 92.5021 24.8665 92.1743 25.4917C91.8693 26.0711 91.6254 26.7611 91.4424 27.5616C91.2594 28.3545 91.1679 29.1741 91.1679 30.0203C91.1679 30.3939 91.1946 30.7408 91.248 31.061C91.309 31.3812 91.4043 31.6518 91.5339 31.8729C91.6711 32.1093 91.8541 32.2922 92.0828 32.4218C92.3192 32.5515 92.6127 32.6163 92.9634 32.6163C93.3217 32.6163 93.6762 32.5133 94.0269 32.3075C94.3852 32.094 94.7054 31.8348 94.9875 31.5298L96.4399 25.2515ZM108.105 34.3774C107.19 34.3774 106.385 34.2516 105.692 34C105.005 33.756 104.437 33.413 103.988 32.9708C103.545 32.5286 103.214 32.014 102.993 31.4269C102.772 30.8399 102.661 30.1918 102.661 29.4828C102.661 28.5832 102.829 27.7103 103.164 26.864C103.5 26.0177 103.999 25.2554 104.662 24.5768C105.287 23.9288 106.08 23.4027 107.041 22.9987C108.002 22.5946 109.061 22.3926 110.22 22.3926C111.585 22.3926 112.622 22.6098 113.331 23.0444C114.047 23.479 114.406 24.1308 114.406 24.9999C114.406 25.831 114.097 26.5476 113.479 27.1499C112.862 27.7446 112.023 28.1868 110.963 28.4765C110.125 28.7281 109.408 28.9072 108.814 29.0139C108.226 29.1207 107.506 29.2198 106.652 29.3113C106.667 29.6467 106.713 30.0241 106.789 30.4434C106.866 30.8628 106.98 31.2211 107.132 31.5184C107.315 31.8615 107.575 32.1359 107.91 32.3418C108.246 32.54 108.672 32.6391 109.191 32.6391C110.091 32.6391 110.853 32.4676 111.478 32.1245C112.111 31.7738 112.713 31.2211 113.285 30.4663L114.12 31.1639C113.434 32.1398 112.553 32.9212 111.478 33.5083C110.411 34.0877 109.286 34.3774 108.105 34.3774ZM110.689 25.3202C110.689 24.6721 110.571 24.1766 110.335 23.8335C110.098 23.4828 109.77 23.3074 109.351 23.3074C108.764 23.3074 108.207 23.7877 107.681 24.7484C107.163 25.7014 106.831 26.9097 106.686 28.3735C107.136 28.3202 107.582 28.2516 108.024 28.1677C108.467 28.0838 108.817 27.9847 109.077 27.8704C109.648 27.6188 110.06 27.2948 110.312 26.8983C110.563 26.5019 110.689 25.9758 110.689 25.3202ZM121.496 34.4346C120.596 34.4346 119.689 34.324 118.774 34.1029C117.867 33.8818 117.07 33.5807 116.384 33.1995L115.401 34H114.429L115.641 28.1334H116.624C116.716 28.7052 116.883 29.2998 117.127 29.9174C117.371 30.5273 117.688 31.0724 118.077 31.5527C118.458 32.0483 118.942 32.46 119.529 32.7878C120.116 33.1156 120.787 33.2795 121.542 33.2795C122.647 33.2795 123.532 33.0127 124.195 32.479C124.858 31.9377 125.19 31.2287 125.19 30.3519C125.19 29.7878 124.999 29.2922 124.618 28.8653C124.244 28.4383 123.638 28.0724 122.8 27.7674C122.266 27.5768 121.748 27.3939 121.244 27.2185C120.749 27.0355 120.276 26.8488 119.826 26.6582C118.934 26.2846 118.263 25.7547 117.814 25.0686C117.364 24.3748 117.139 23.6391 117.139 22.8614C117.139 22.1448 117.303 21.4586 117.631 20.803C117.958 20.1397 118.431 19.5488 119.049 19.0304C119.651 18.5196 120.394 18.1117 121.279 17.8068C122.171 17.4942 123.147 17.3379 124.206 17.3379C125.091 17.3379 125.967 17.4675 126.837 17.7267C127.706 17.9783 128.346 18.2223 128.758 18.4586L129.615 17.7725H130.61L129.421 23.3074H128.438C128.338 22.6594 128.194 22.0495 128.003 21.4777C127.82 20.9059 127.565 20.3913 127.237 19.9338C126.917 19.4917 126.516 19.141 126.036 18.8817C125.563 18.6149 124.992 18.4815 124.321 18.4815C123.39 18.4815 122.613 18.7407 121.988 19.2591C121.37 19.7776 121.061 20.4294 121.061 21.2147C121.061 21.7636 121.248 22.2439 121.622 22.6556C121.995 23.0673 122.586 23.4256 123.394 23.7306C123.867 23.9059 124.363 24.0889 124.881 24.2795C125.399 24.4625 125.895 24.6531 126.368 24.8513C127.252 25.2172 127.95 25.7166 128.46 26.3494C128.971 26.9745 129.227 27.7179 129.227 28.5794C129.227 29.3951 129.04 30.1614 128.666 30.878C128.293 31.5946 127.77 32.2122 127.1 32.7306C126.391 33.2795 125.563 33.7027 124.618 34C123.673 34.2897 122.632 34.4346 121.496 34.4346ZM134.887 34.2973C133.973 34.2973 133.241 34.0762 132.692 33.6341C132.143 33.1842 131.868 32.6163 131.868 31.9301C131.868 31.648 131.887 31.3812 131.925 31.1296C131.964 30.878 132.025 30.554 132.108 30.1575L133.527 24.0736H131.434L131.708 22.8957H133.847L134.67 19.4307H138.375L137.575 22.8957H140.674L140.399 24.0736H137.312L135.917 30.1575C135.863 30.371 135.81 30.6302 135.757 30.9352C135.711 31.2401 135.688 31.4384 135.688 31.5298C135.688 31.9644 135.806 32.2656 136.042 32.4333C136.286 32.601 136.656 32.6849 137.152 32.6849C137.388 32.6849 137.712 32.6391 138.124 32.5476C138.543 32.4562 138.837 32.3799 139.004 32.3189L138.753 33.3482C138.082 33.6455 137.407 33.878 136.729 34.0457C136.058 34.2135 135.444 34.2973 134.887 34.2973ZM148.679 32.5705H148.588C148.321 32.7992 148.065 33.0089 147.821 33.1995C147.585 33.3901 147.284 33.5807 146.918 33.7713C146.598 33.939 146.258 34.0762 145.9 34.183C145.549 34.2973 145.161 34.3545 144.734 34.3545C143.407 34.3545 142.408 33.9657 141.737 33.1881C141.067 32.4028 140.731 31.3316 140.731 29.9746C140.731 28.9301 140.918 27.9504 141.291 27.0355C141.665 26.1207 142.164 25.3163 142.79 24.6226C143.422 23.9364 144.162 23.3951 145.008 22.9987C145.854 22.5946 146.746 22.3926 147.684 22.3926C148.37 22.3926 148.969 22.4726 149.48 22.6327C149.998 22.7928 150.421 23.0101 150.749 23.2846L154.26 22.5641L154.42 22.7471L152.739 29.7802C152.678 30.0165 152.613 30.3138 152.544 30.6722C152.476 31.0229 152.441 31.2897 152.441 31.4727C152.441 31.9072 152.541 32.2084 152.739 32.3761C152.937 32.5362 153.28 32.6163 153.768 32.6163C153.982 32.6163 154.237 32.5743 154.534 32.4905C154.839 32.4066 155.053 32.338 155.175 32.2846L154.923 33.3138C154.168 33.6112 153.562 33.8399 153.105 34C152.655 34.1525 152.133 34.2287 151.538 34.2287C150.753 34.2287 150.124 34.0762 149.651 33.7713C149.186 33.4587 148.862 33.0584 148.679 32.5705ZM150.04 25.3202C150.04 25.1524 150.017 24.9542 149.971 24.7255C149.926 24.4968 149.846 24.3024 149.731 24.1423C149.594 23.944 149.415 23.7954 149.194 23.6963C148.973 23.5895 148.698 23.5362 148.37 23.5362C147.867 23.5362 147.402 23.7191 146.975 24.0851C146.556 24.4434 146.182 24.9237 145.854 25.526C145.534 26.1207 145.283 26.8144 145.1 27.6073C144.917 28.3926 144.825 29.1969 144.825 30.0203C144.825 30.3939 144.852 30.7408 144.905 31.061C144.966 31.3812 145.062 31.6518 145.191 31.8729C145.328 32.1093 145.511 32.2922 145.74 32.4218C145.976 32.5515 146.27 32.6163 146.621 32.6163C146.979 32.6163 147.322 32.5133 147.65 32.3075C147.985 32.094 148.294 31.8348 148.576 31.5298L150.04 25.3202ZM170.281 24.188C170.281 24.7293 170.083 25.2096 169.687 25.6289C169.298 26.0482 168.814 26.2579 168.234 26.2579C167.754 26.2579 167.308 26.1512 166.896 25.9377C166.485 25.7166 166.123 25.4879 165.81 25.2515C165.658 25.3507 165.509 25.4498 165.364 25.5489C165.219 25.6404 164.918 25.8843 164.461 26.2808C164.811 27.1651 165.196 28.1372 165.616 29.1969C166.035 30.2566 166.351 30.9885 166.565 31.3926C166.816 31.8729 167.053 32.2122 167.274 32.4104C167.503 32.6086 167.899 32.7077 168.463 32.7077C168.661 32.7077 168.909 32.6696 169.207 32.5934C169.504 32.5171 169.748 32.4409 169.938 32.3647L169.687 33.3939C168.932 33.7141 168.273 33.9466 167.708 34.0915C167.144 34.2363 166.641 34.3088 166.199 34.3088C165.985 34.3088 165.715 34.2935 165.387 34.263C165.067 34.2325 164.788 34.1639 164.552 34.0572C164.255 33.9199 163.98 33.7294 163.729 33.4854C163.485 33.2414 163.245 32.8526 163.008 32.3189C162.673 31.5642 162.433 30.9885 162.288 30.5921C162.151 30.188 161.956 29.6429 161.705 28.9568L160.95 29.6658L159.966 34H156.181L159.543 19.4421C159.574 19.3125 159.597 19.1905 159.612 19.0762C159.627 18.9618 159.635 18.8665 159.635 18.7903C159.635 18.5158 159.589 18.2985 159.497 18.1384C159.406 17.9783 159.269 17.8487 159.086 17.7496C158.903 17.6505 158.693 17.5819 158.457 17.5437C158.22 17.5056 157.946 17.4713 157.633 17.4408L157.839 16.5946L163.866 16.2972L163.992 16.4802L161.247 28.3735H161.339C162.253 27.3443 162.974 26.559 163.5 26.0177C164.034 25.4688 164.609 24.8932 165.227 24.2909C165.974 23.5667 166.569 23.0711 167.011 22.8043C167.461 22.5298 167.956 22.3926 168.497 22.3926C169.046 22.3926 169.481 22.545 169.801 22.85C170.121 23.155 170.281 23.601 170.281 24.188ZM176.72 34.3774C175.805 34.3774 175.001 34.2516 174.307 34C173.621 33.756 173.053 33.413 172.603 32.9708C172.161 32.5286 171.829 32.014 171.608 31.4269C171.387 30.8399 171.276 30.1918 171.276 29.4828C171.276 28.5832 171.444 27.7103 171.78 26.864C172.115 26.0177 172.614 25.2554 173.278 24.5768C173.903 23.9288 174.696 23.4027 175.656 22.9987C176.617 22.5946 177.677 22.3926 178.836 22.3926C180.2 22.3926 181.237 22.6098 181.946 23.0444C182.663 23.479 183.021 24.1308 183.021 24.9999C183.021 25.831 182.712 26.5476 182.095 27.1499C181.477 27.7446 180.639 28.1868 179.579 28.4765C178.74 28.7281 178.024 28.9072 177.429 29.0139C176.842 29.1207 176.121 29.2198 175.268 29.3113C175.283 29.6467 175.329 30.0241 175.405 30.4434C175.481 30.8628 175.595 31.2211 175.748 31.5184C175.931 31.8615 176.19 32.1359 176.525 32.3418C176.861 32.54 177.288 32.6391 177.806 32.6391C178.706 32.6391 179.468 32.4676 180.093 32.1245C180.726 31.7738 181.329 31.2211 181.9 30.4663L182.735 31.1639C182.049 32.1398 181.168 32.9212 180.093 33.5083C179.026 34.0877 177.902 34.3774 176.72 34.3774ZM179.304 25.3202C179.304 24.6721 179.186 24.1766 178.95 23.8335C178.714 23.4828 178.386 23.3074 177.966 23.3074C177.379 23.3074 176.823 23.7877 176.297 24.7484C175.778 25.7014 175.447 26.9097 175.302 28.3735C175.752 28.3202 176.198 28.2516 176.64 28.1677C177.082 28.0838 177.433 27.9847 177.692 27.8704C178.264 27.6188 178.675 27.2948 178.927 26.8983C179.179 26.5019 179.304 25.9758 179.304 25.3202Z" fill="#00040F"/>
</svg>
