<svg width="16" height="17" viewBox="0 0 16 17" fill="none" xmlns="http://www.w3.org/2000/svg">
<path d="M12.6667 13.8332H3.33333C2.97971 13.8332 2.64057 13.6927 2.39052 13.4426C2.14048 13.1926 2 12.8535 2 12.4998V6.49984C2 6.14622 2.14048 5.80708 2.39052 5.55703C2.64057 5.30698 2.97971 5.1665 3.33333 5.1665H12.6667C13.0203 5.1665 13.3594 5.30698 13.6095 5.55703C13.8595 5.80708 14 6.14622 14 6.49984V12.4998C14 12.8535 13.8595 13.1926 13.6095 13.4426C13.3594 13.6927 13.0203 13.8332 12.6667 13.8332Z" stroke="#8D8F96"/>
<path d="M11.0003 9.83317C10.9119 9.83317 10.8271 9.79805 10.7646 9.73554C10.7021 9.67303 10.667 9.58824 10.667 9.49984C10.667 9.41143 10.7021 9.32665 10.7646 9.26413C10.8271 9.20162 10.9119 9.1665 11.0003 9.1665C11.0887 9.1665 11.1735 9.20162 11.236 9.26413C11.2985 9.32665 11.3337 9.41143 11.3337 9.49984C11.3337 9.58824 11.2985 9.67303 11.236 9.73554C11.1735 9.79805 11.0887 9.83317 11.0003 9.83317Z" fill="#8D8F96" stroke="#8D8F96" stroke-width="0.8" stroke-linecap="round" stroke-linejoin="round"/>
<path d="M12 5.16664V4.23531C11.9999 4.03097 11.9529 3.82939 11.8626 3.64612C11.7722 3.46285 11.641 3.30279 11.4789 3.17831C11.3169 3.05384 11.1284 2.96827 10.928 2.92821C10.7277 2.88816 10.5208 2.89469 10.3233 2.94731L2.99 4.90264C2.70604 4.97831 2.45503 5.14568 2.27599 5.37872C2.09696 5.61177 1.99993 5.89743 2 6.19131V6.49997" stroke="#8D8F96"/>
</svg>
