<svg width="24" height="24" viewBox="0 0 24 24" fill="none" xmlns="http://www.w3.org/2000/svg">
<path opacity="0.2" d="M24 12C24 18.6275 18.6275 24.0001 12.0001 24.0001C5.37258 24.0001 0 18.6275 0 12C0 5.37258 5.37258 0 12.0001 0C18.6274 0 24 5.37258 24 12Z" fill="#00A478"/>
<path d="M10.8529 11.2458V8.9835H7.78455V7.00049H16.3588V9.01143H13.2904V11.2458H10.8529Z" fill="#00A478"/>
<path fill-rule="evenodd" clip-rule="evenodd" d="M6.46545 11.497C6.46545 10.7429 8.93163 10.1284 12 10.1284C15.0684 10.1284 17.5346 10.7429 17.5346 11.497C17.5346 12.2511 15.0684 12.8655 12 12.8655C8.93163 12.8655 6.46545 12.2511 6.46545 11.497ZM17.0757 11.497C16.875 11.2177 15.2118 10.3519 12 10.3519C8.78825 10.3519 7.12501 11.1897 6.92428 11.497C7.12501 11.7763 8.78825 12.1952 12 12.1952C15.2405 12.1952 16.875 11.7763 17.0757 11.497Z" fill="#00A478"/>
<path d="M13.2904 11.9441V10.3801C12.8889 10.3521 12.4588 10.3242 12.0287 10.3242C11.6272 10.3242 11.2544 10.3242 10.8816 10.3521V11.9162C11.2257 11.9162 11.6272 11.9441 12.0287 11.9441C12.4588 11.9721 12.8889 11.9721 13.2904 11.9441Z" fill="#00A478"/>
<path d="M12 12.8659C11.5985 12.8659 11.2257 12.8659 10.8529 12.838V16.9995H13.2617V12.8101C12.8603 12.838 12.4301 12.8659 12 12.8659Z" fill="#00A478"/>
</svg>
