<svg width="32" height="32" viewBox="0 0 32 32" fill="none" xmlns="http://www.w3.org/2000/svg">
<g filter="url(#filter0_b_6080_2089)">
<ellipse cx="16.0005" cy="16" rx="16" ry="16" fill="url(#paint0_linear_6080_2089)" fill-opacity="0.1"/>
</g>
<path d="M32.0005 16C32.0005 24.8365 24.837 32 16.0005 32C7.16393 32 0.000488281 24.8365 0.000488281 16C0.000488281 7.16344 7.16393 0 16.0005 0C24.837 0 32.0005 7.16344 32.0005 16ZM0.94364 16C0.94364 24.3156 7.68482 31.0568 16.0005 31.0568C24.3162 31.0568 31.0573 24.3156 31.0573 16C31.0573 7.68432 24.3162 0.943151 16.0005 0.943151C7.68482 0.943151 0.94364 7.68432 0.94364 16Z" fill="url(#paint1_linear_6080_2089)"/>
<path d="M9.65771 16.1737L15.9891 6.19238V13.4419M9.65771 16.1737L15.9891 19.7647V13.4419M9.65771 16.1737L15.9891 13.4419" stroke="#0CC2FF" stroke-width="0.5" stroke-linejoin="round"/>
<path d="M22.3438 16.1737L16.0124 6.19238V13.4419M22.3438 16.1737L16.0124 19.7647V13.4419M22.3438 16.1737L16.0124 13.4419" stroke="#0CC2FF" stroke-width="0.5" stroke-linejoin="round"/>
<path d="M16.0003 25.8069L9.63965 17.3662L16.0003 21.0661V25.8069Z" stroke="#0CC2FF" stroke-width="0.5" stroke-linejoin="round"/>
<path d="M16.0002 25.8069L22.3608 17.3662L16.0002 21.0661V25.8069Z" stroke="#0CC2FF" stroke-width="0.5" stroke-linejoin="round"/>
<defs>
<filter id="filter0_b_6080_2089" x="-2.5668" y="-2.56729" width="37.1346" height="37.1346" filterUnits="userSpaceOnUse" color-interpolation-filters="sRGB">
<feFlood flood-opacity="0" result="BackgroundImageFix"/>
<feGaussianBlur in="BackgroundImageFix" stdDeviation="1.28364"/>
<feComposite in2="SourceAlpha" operator="in" result="effect1_backgroundBlur_6080_2089"/>
<feBlend mode="normal" in="SourceGraphic" in2="effect1_backgroundBlur_6080_2089" result="shape"/>
</filter>
<linearGradient id="paint0_linear_6080_2089" x1="16.0005" y1="0" x2="16.0005" y2="32" gradientUnits="userSpaceOnUse">
<stop stop-color="#005271"/>
<stop offset="1" stop-color="#004471"/>
</linearGradient>
<linearGradient id="paint1_linear_6080_2089" x1="16.0005" y1="0" x2="16.0005" y2="32" gradientUnits="userSpaceOnUse">
<stop stop-color="#38BDEE"/>
<stop offset="1" stop-color="#004471"/>
</linearGradient>
</defs>
</svg>
