<svg width="32" height="32" viewBox="0 0 32 32" fill="none" xmlns="http://www.w3.org/2000/svg">
<g filter="url(#filter0_b_6791_10989)">
<ellipse cx="16" cy="16" rx="16" ry="16" fill="url(#paint0_linear_6791_10989)" fill-opacity="0.05"/>
</g>
<path d="M32 16C32 24.8365 24.8366 32 16 32C7.16344 32 0 24.8365 0 16C0 7.16344 7.16344 0 16 0C24.8366 0 32 7.16344 32 16ZM0.943151 16C0.943151 24.3156 7.68433 31.0568 16 31.0568C24.3157 31.0568 31.0568 24.3156 31.0568 16C31.0568 7.68432 24.3157 0.943151 16 0.943151C7.68433 0.943151 0.943151 7.68432 0.943151 16Z" fill="url(#paint1_linear_6791_10989)"/>
<path d="M10.0181 15.9814L16.3495 6V13.2495M10.0181 15.9814L16.3495 19.5723V13.2495M10.0181 15.9814L16.3495 13.2495" stroke="#0CC2FF" stroke-width="0.5" stroke-linejoin="round"/>
<path d="M22.7041 15.9814L16.3727 6V13.2495M22.7041 15.9814L16.3727 19.5723V13.2495M22.7041 15.9814L16.3727 13.2495" stroke="#0CC2FF" stroke-width="0.5" stroke-linejoin="round"/>
<path d="M16.3606 25.6145L10 17.1738L16.3606 20.8738V25.6145Z" stroke="#0CC2FF" stroke-width="0.5" stroke-linejoin="round"/>
<path d="M16.3606 25.6145L22.7212 17.1738L16.3606 20.8738V25.6145Z" stroke="#0CC2FF" stroke-width="0.5" stroke-linejoin="round"/>
<defs>
<filter id="filter0_b_6791_10989" x="-2.56729" y="-2.56729" width="37.1346" height="37.1346" filterUnits="userSpaceOnUse" color-interpolation-filters="sRGB">
<feFlood flood-opacity="0" result="BackgroundImageFix"/>
<feGaussianBlur in="BackgroundImageFix" stdDeviation="1.28364"/>
<feComposite in2="SourceAlpha" operator="in" result="effect1_backgroundBlur_6791_10989"/>
<feBlend mode="normal" in="SourceGraphic" in2="effect1_backgroundBlur_6791_10989" result="shape"/>
</filter>
<linearGradient id="paint0_linear_6791_10989" x1="16" y1="0" x2="16" y2="32" gradientUnits="userSpaceOnUse">
<stop stop-color="#38CDFF"/>
<stop offset="1" stop-color="#66D9FF"/>
</linearGradient>
<linearGradient id="paint1_linear_6791_10989" x1="16" y1="0" x2="16" y2="32" gradientUnits="userSpaceOnUse">
<stop stop-color="#38BDEE"/>
<stop offset="1" stop-color="#004471"/>
</linearGradient>
</defs>
</svg>
