<svg width="32" height="32" viewBox="0 0 32 32" fill="none" xmlns="http://www.w3.org/2000/svg">
<mask id="path-1-inside-1_3024_1540" fill="white">
<path fill-rule="evenodd" clip-rule="evenodd" d="M4 8C4 5.79086 5.79086 4 8 4H24C26.2091 4 28 5.79086 28 8V24C28 26.2091 26.2091 28 24 28H8C5.79086 28 4 26.2091 4 24V8ZM6.66683 10C6.66683 8.89543 7.56227 8 8.66683 8C9.7714 8 10.6668 8.89543 10.6668 10C10.6668 11.1046 9.7714 12 8.66683 12C7.56227 12 6.66683 11.1046 6.66683 10ZM8.66683 14C7.56227 14 6.66683 14.8954 6.66683 16C6.66683 17.1046 7.56227 18 8.66683 18C9.7714 18 10.6668 17.1046 10.6668 16C10.6668 14.8954 9.7714 14 8.66683 14ZM6.66683 22C6.66683 20.8954 7.56227 20 8.66683 20C9.7714 20 10.6668 20.8954 10.6668 22C10.6668 23.1046 9.7714 24 8.66683 24C7.56227 24 6.66683 23.1046 6.66683 22ZM14 8C12.8954 8 12 8.89543 12 10C12 11.1046 12.8954 12 14 12H23.3333C24.4379 12 25.3333 11.1046 25.3333 10C25.3333 8.89543 24.4379 8 23.3333 8H14ZM12 16C12 14.8954 12.8954 14 14 14H23.3333C24.4379 14 25.3333 14.8954 25.3333 16C25.3333 17.1046 24.4379 18 23.3333 18H14C12.8954 18 12 17.1046 12 16ZM14 20C12.8954 20 12 20.8954 12 22C12 23.1046 12.8954 24 14 24H23.3333C24.4379 24 25.3333 23.1046 25.3333 22C25.3333 20.8954 24.4379 20 23.3333 20H14Z"/>
</mask>
<g filter="url(#filter0_i_3024_1540)">
<path fill-rule="evenodd" clip-rule="evenodd" d="M4 8C4 5.79086 5.79086 4 8 4H24C26.2091 4 28 5.79086 28 8V24C28 26.2091 26.2091 28 24 28H8C5.79086 28 4 26.2091 4 24V8ZM6.66683 10C6.66683 8.89543 7.56227 8 8.66683 8C9.7714 8 10.6668 8.89543 10.6668 10C10.6668 11.1046 9.7714 12 8.66683 12C7.56227 12 6.66683 11.1046 6.66683 10ZM8.66683 14C7.56227 14 6.66683 14.8954 6.66683 16C6.66683 17.1046 7.56227 18 8.66683 18C9.7714 18 10.6668 17.1046 10.6668 16C10.6668 14.8954 9.7714 14 8.66683 14ZM6.66683 22C6.66683 20.8954 7.56227 20 8.66683 20C9.7714 20 10.6668 20.8954 10.6668 22C10.6668 23.1046 9.7714 24 8.66683 24C7.56227 24 6.66683 23.1046 6.66683 22ZM14 8C12.8954 8 12 8.89543 12 10C12 11.1046 12.8954 12 14 12H23.3333C24.4379 12 25.3333 11.1046 25.3333 10C25.3333 8.89543 24.4379 8 23.3333 8H14ZM12 16C12 14.8954 12.8954 14 14 14H23.3333C24.4379 14 25.3333 14.8954 25.3333 16C25.3333 17.1046 24.4379 18 23.3333 18H14C12.8954 18 12 17.1046 12 16ZM14 20C12.8954 20 12 20.8954 12 22C12 23.1046 12.8954 24 14 24H23.3333C24.4379 24 25.3333 23.1046 25.3333 22C25.3333 20.8954 24.4379 20 23.3333 20H14Z" fill="#5A5D68"/>
</g>
<path d="M8 3.33333C5.42267 3.33333 3.33333 5.42267 3.33333 8H4.66667C4.66667 6.15905 6.15905 4.66667 8 4.66667V3.33333ZM24 3.33333H8V4.66667H24V3.33333ZM28.6667 8C28.6667 5.42267 26.5773 3.33333 24 3.33333V4.66667C25.841 4.66667 27.3333 6.15905 27.3333 8H28.6667ZM28.6667 24V8H27.3333V24H28.6667ZM24 28.6667C26.5773 28.6667 28.6667 26.5773 28.6667 24H27.3333C27.3333 25.841 25.841 27.3333 24 27.3333V28.6667ZM8 28.6667H24V27.3333H8V28.6667ZM3.33333 24C3.33333 26.5773 5.42267 28.6667 8 28.6667V27.3333C6.15905 27.3333 4.66667 25.8409 4.66667 24H3.33333ZM3.33333 8V24H4.66667V8H3.33333ZM8.66683 7.33333C7.19408 7.33333 6.00017 8.52724 6.00017 10H7.3335C7.3335 9.26362 7.93045 8.66667 8.66683 8.66667V7.33333ZM11.3335 10C11.3335 8.52724 10.1396 7.33333 8.66683 7.33333V8.66667C9.40321 8.66667 10.0002 9.26362 10.0002 10H11.3335ZM8.66683 12.6667C10.1396 12.6667 11.3335 11.4728 11.3335 10H10.0002C10.0002 10.7364 9.40321 11.3333 8.66683 11.3333V12.6667ZM6.00017 10C6.00017 11.4728 7.19408 12.6667 8.66683 12.6667V11.3333C7.93045 11.3333 7.3335 10.7364 7.3335 10H6.00017ZM7.3335 16C7.3335 15.2636 7.93045 14.6667 8.66683 14.6667V13.3333C7.19408 13.3333 6.00017 14.5272 6.00017 16H7.3335ZM8.66683 17.3333C7.93045 17.3333 7.3335 16.7364 7.3335 16H6.00017C6.00017 17.4728 7.19408 18.6667 8.66683 18.6667V17.3333ZM10.0002 16C10.0002 16.7364 9.40321 17.3333 8.66683 17.3333V18.6667C10.1396 18.6667 11.3335 17.4728 11.3335 16H10.0002ZM8.66683 14.6667C9.40321 14.6667 10.0002 15.2636 10.0002 16H11.3335C11.3335 14.5272 10.1396 13.3333 8.66683 13.3333V14.6667ZM8.66683 19.3333C7.19408 19.3333 6.00017 20.5272 6.00017 22H7.3335C7.3335 21.2636 7.93045 20.6667 8.66683 20.6667V19.3333ZM11.3335 22C11.3335 20.5272 10.1396 19.3333 8.66683 19.3333V20.6667C9.40321 20.6667 10.0002 21.2636 10.0002 22H11.3335ZM8.66683 24.6667C10.1396 24.6667 11.3335 23.4728 11.3335 22H10.0002C10.0002 22.7364 9.40321 23.3333 8.66683 23.3333V24.6667ZM6.00017 22C6.00017 23.4728 7.19408 24.6667 8.66683 24.6667V23.3333C7.93045 23.3333 7.3335 22.7364 7.3335 22H6.00017ZM12.6667 10C12.6667 9.26362 13.2636 8.66667 14 8.66667V7.33333C12.5272 7.33333 11.3333 8.52724 11.3333 10H12.6667ZM14 11.3333C13.2636 11.3333 12.6667 10.7364 12.6667 10H11.3333C11.3333 11.4728 12.5272 12.6667 14 12.6667V11.3333ZM23.3333 11.3333H14V12.6667H23.3333V11.3333ZM24.6667 10C24.6667 10.7364 24.0697 11.3333 23.3333 11.3333V12.6667C24.8061 12.6667 26 11.4728 26 10H24.6667ZM23.3333 8.66667C24.0697 8.66667 24.6667 9.26362 24.6667 10H26C26 8.52724 24.8061 7.33333 23.3333 7.33333V8.66667ZM14 8.66667H23.3333V7.33333H14V8.66667ZM14 13.3333C12.5272 13.3333 11.3333 14.5272 11.3333 16H12.6667C12.6667 15.2636 13.2636 14.6667 14 14.6667V13.3333ZM23.3333 13.3333H14V14.6667H23.3333V13.3333ZM26 16C26 14.5272 24.8061 13.3333 23.3333 13.3333V14.6667C24.0697 14.6667 24.6667 15.2636 24.6667 16H26ZM23.3333 18.6667C24.8061 18.6667 26 17.4728 26 16H24.6667C24.6667 16.7364 24.0697 17.3333 23.3333 17.3333V18.6667ZM14 18.6667H23.3333V17.3333H14V18.6667ZM11.3333 16C11.3333 17.4728 12.5272 18.6667 14 18.6667V17.3333C13.2636 17.3333 12.6667 16.7364 12.6667 16H11.3333ZM12.6667 22C12.6667 21.2636 13.2636 20.6667 14 20.6667V19.3333C12.5272 19.3333 11.3333 20.5272 11.3333 22H12.6667ZM14 23.3333C13.2636 23.3333 12.6667 22.7364 12.6667 22H11.3333C11.3333 23.4728 12.5272 24.6667 14 24.6667V23.3333ZM23.3333 23.3333H14V24.6667H23.3333V23.3333ZM24.6667 22C24.6667 22.7364 24.0697 23.3333 23.3333 23.3333V24.6667C24.8061 24.6667 26 23.4728 26 22H24.6667ZM23.3333 20.6667C24.0697 20.6667 24.6667 21.2636 24.6667 22H26C26 20.5272 24.8061 19.3333 23.3333 19.3333V20.6667ZM14 20.6667H23.3333V19.3333H14V20.6667Z" fill="#464955" mask="url(#path-1-inside-1_3024_1540)"/>
<circle cx="8.66699" cy="10" r="1" fill="#C0C1C5"/>
<circle cx="8.66699" cy="16" r="1" fill="#C0C1C5"/>
<circle cx="8.66699" cy="22" r="1" fill="#C0C1C5"/>
<rect x="13.333" y="9" width="10.6667" height="2" rx="1" fill="#C0C1C5"/>
<rect x="13.333" y="15" width="10.6667" height="2" rx="1" fill="#C0C1C5"/>
<rect x="13.333" y="21" width="10.6667" height="2" rx="1" fill="#C0C1C5"/>
<defs>
<filter id="filter0_i_3024_1540" x="4" y="4" width="24" height="29.3333" filterUnits="userSpaceOnUse" color-interpolation-filters="sRGB">
<feFlood flood-opacity="0" result="BackgroundImageFix"/>
<feBlend mode="normal" in="SourceGraphic" in2="BackgroundImageFix" result="shape"/>
<feColorMatrix in="SourceAlpha" type="matrix" values="0 0 0 0 0 0 0 0 0 0 0 0 0 0 0 0 0 0 127 0" result="hardAlpha"/>
<feOffset dy="5.33333"/>
<feGaussianBlur stdDeviation="2.66667"/>
<feComposite in2="hardAlpha" operator="arithmetic" k2="-1" k3="1"/>
<feColorMatrix type="matrix" values="0 0 0 0 0 0 0 0 0 0 0 0 0 0 0 0 0 0 0.25 0"/>
<feBlend mode="normal" in2="shape" result="effect1_innerShadow_3024_1540"/>
</filter>
</defs>
</svg>
