<svg width="20" height="20" viewBox="0 0 20 20" fill="none" xmlns="http://www.w3.org/2000/svg">
<path d="M9.5 17.5H5.5C3.84315 17.5 2.5 16.1569 2.5 14.5V10.5C2.5 8.84315 3.84315 7.5 5.5 7.5H9.5C11.1569 7.5 12.5 8.84315 12.5 10.5V14.5C12.5 16.1569 11.1569 17.5 9.5 17.5Z" stroke="#00040F" stroke-width="1.2" stroke-linecap="round" stroke-linejoin="round"/>
<path fill-rule="evenodd" clip-rule="evenodd" d="M10.5004 1.8999C8.51217 1.8999 6.90039 3.51168 6.90039 5.4999V5.83324H8.10039V5.4999C8.10039 4.17442 9.17491 3.0999 10.5004 3.0999H14.5004C15.8259 3.0999 16.9004 4.17442 16.9004 5.4999V9.4999C16.9004 10.8254 15.8259 11.8999 14.5004 11.8999H14.1671V13.0999H14.5004C16.4886 13.0999 18.1004 11.4881 18.1004 9.4999V5.4999C18.1004 3.51168 16.4886 1.8999 14.5004 1.8999H10.5004Z" fill="#00040F"/>
</svg>
