<svg width="185" height="48" viewBox="0 0 185 48" fill="none" xmlns="http://www.w3.org/2000/svg">
<g clip-path="url(#clip0_563_15879)">
<path d="M55.1383 38.4706V22.1601H59.779C61.1893 22.1601 62.3078 22.5052 63.1343 23.1952C63.9608 23.8852 64.3741 24.7838 64.3741 25.8908C64.3741 26.8159 64.1239 27.6197 63.6234 28.3022C63.1229 28.9846 62.4329 29.4699 61.5533 29.758V29.8035C62.6528 29.9324 63.5324 30.3495 64.1921 31.0547C64.8518 31.7523 65.1816 32.6622 65.1816 33.7845C65.1816 35.1797 64.6812 36.3095 63.6803 37.1739C62.6793 38.0384 61.4168 38.4706 59.8927 38.4706H55.1383ZM57.0492 23.889V29.1552H59.0055C60.0519 29.1552 60.8747 28.905 61.4737 28.4045C62.0727 27.8965 62.3722 27.1837 62.3722 26.2662C62.3722 24.6814 61.3296 23.889 59.2444 23.889H57.0492ZM57.0492 30.8727V36.7417H59.6425C60.7647 36.7417 61.6329 36.4763 62.2471 35.9455C62.8689 35.4147 63.1798 34.6868 63.1798 33.7617C63.1798 31.8357 61.868 30.8727 59.2444 30.8727H57.0492ZM74.315 28.7116C73.989 28.4614 73.5188 28.3363 72.9046 28.3363C72.1085 28.3363 71.4412 28.7116 70.9028 29.4623C70.372 30.213 70.1066 31.2367 70.1066 32.5333V38.4706H68.2413V26.8235H70.1066V29.2235H70.1521C70.4175 28.4045 70.8232 27.7676 71.3691 27.3126C71.9151 26.8501 72.5255 26.6188 73.2004 26.6188C73.6857 26.6188 74.0572 26.6719 74.315 26.778V28.7116ZM77.295 23.8663C76.9614 23.8663 76.677 23.7525 76.442 23.525C76.2069 23.2976 76.0894 23.0094 76.0894 22.6606C76.0894 22.3118 76.2069 22.0237 76.442 21.7962C76.677 21.5611 76.9614 21.4436 77.295 21.4436C77.6363 21.4436 77.9244 21.5611 78.1595 21.7962C78.4021 22.0237 78.5234 22.3118 78.5234 22.6606C78.5234 22.9942 78.4021 23.2786 78.1595 23.5137C77.9244 23.7487 77.6363 23.8663 77.295 23.8663ZM78.205 38.4706H76.3396V26.8235H78.205V38.4706ZM91.9221 37.5379C91.9221 41.8146 89.8748 43.9529 85.7801 43.9529C84.3394 43.9529 83.0807 43.6799 82.0039 43.134V41.2686C83.3157 41.9965 84.5669 42.3605 85.7574 42.3605C88.6236 42.3605 90.0568 40.8364 90.0568 37.7881V36.5142H90.0113C89.1241 38.0005 87.7895 38.7436 86.0076 38.7436C84.5593 38.7436 83.3915 38.2279 82.5044 37.1967C81.6248 36.1579 81.185 34.7664 81.185 33.0224C81.185 31.0433 81.6589 29.4699 82.6067 28.3022C83.5622 27.1344 84.8664 26.5505 86.5194 26.5505C88.089 26.5505 89.253 27.1799 90.0113 28.4386H90.0568V26.8235H91.9221V37.5379ZM90.0568 33.2044V31.4869C90.0568 30.5618 89.7421 29.7694 89.1127 29.1097C88.4909 28.45 87.7137 28.1202 86.781 28.1202C85.6284 28.1202 84.7261 28.541 84.074 29.3827C83.4219 30.2168 83.0958 31.3883 83.0958 32.8973C83.0958 34.1939 83.4067 35.2328 84.0285 36.0138C84.6579 36.7872 85.4882 37.1739 86.5194 37.1739C87.5658 37.1739 88.4151 36.8024 89.0672 36.0593C89.7269 35.3162 90.0568 34.3645 90.0568 33.2044ZM105.366 38.4706H103.501V31.7599C103.501 29.3334 102.599 28.1202 100.794 28.1202C99.884 28.1202 99.1181 28.4728 98.4963 29.178C97.8745 29.8756 97.5636 30.7741 97.5636 31.8736V38.4706H95.6983V21.2275H97.5636V28.7571H97.6091C98.5039 27.2861 99.7778 26.5505 101.431 26.5505C104.054 26.5505 105.366 28.1315 105.366 31.2935V38.4706ZM114.295 38.3568C113.855 38.5995 113.275 38.7208 112.555 38.7208C110.515 38.7208 109.495 37.5834 109.495 35.3086V28.4159H107.493V26.8235H109.495V23.98L111.36 23.3772V26.8235H114.295V28.4159H111.36V34.9787C111.36 35.7598 111.493 36.3171 111.759 36.6507C112.024 36.9844 112.464 37.1512 113.078 37.1512C113.548 37.1512 113.954 37.0223 114.295 36.7645V38.3568ZM118.651 38.4706H116.786V21.2275H118.651V38.4706ZM131.697 26.8235L126.34 40.3359C125.385 42.7472 124.043 43.9529 122.314 43.9529C121.828 43.9529 121.423 43.9036 121.097 43.805V42.133C121.499 42.2695 121.866 42.3378 122.2 42.3378C123.14 42.3378 123.845 41.7766 124.315 40.6544L125.248 38.4478L120.699 26.8235H122.769L125.919 35.7863C125.957 35.9 126.037 36.1958 126.158 36.6735H126.226C126.264 36.4915 126.34 36.2033 126.454 35.809L129.764 26.8235H131.697ZM133.005 38.0497V36.0479C134.021 36.7986 135.14 37.1739 136.361 37.1739C137.999 37.1739 138.817 36.628 138.817 35.5361C138.817 35.2252 138.745 34.9636 138.601 34.7513C138.465 34.5314 138.275 34.338 138.033 34.1712C137.798 34.0044 137.517 33.8565 137.191 33.7276C136.872 33.5911 136.527 33.4508 136.156 33.3067C135.64 33.102 135.185 32.8973 134.791 32.6925C134.404 32.4802 134.078 32.2452 133.813 31.9874C133.555 31.722 133.358 31.4224 133.221 31.0888C133.092 30.7552 133.028 30.3647 133.028 29.9173C133.028 29.3713 133.153 28.8898 133.403 28.4728C133.654 28.0481 133.987 27.6955 134.404 27.415C134.821 27.1268 135.295 26.9107 135.826 26.7667C136.364 26.6226 136.918 26.5505 137.487 26.5505C138.495 26.5505 139.398 26.7249 140.194 27.0738V28.9618C139.337 28.4007 138.351 28.1202 137.236 28.1202C136.888 28.1202 136.573 28.1619 136.292 28.2453C136.012 28.3211 135.769 28.4311 135.564 28.5751C135.367 28.7192 135.212 28.8936 135.098 29.0983C134.992 29.2955 134.939 29.5154 134.939 29.758C134.939 30.0613 134.992 30.3154 135.098 30.5201C135.212 30.7248 135.375 30.9068 135.587 31.0661C135.8 31.2253 136.057 31.3694 136.361 31.4983C136.664 31.6272 137.009 31.7675 137.396 31.9191C137.911 32.1163 138.374 32.321 138.783 32.5333C139.193 32.738 139.542 32.9731 139.83 33.2385C140.118 33.4963 140.338 33.7958 140.489 34.1371C140.649 34.4783 140.728 34.884 140.728 35.3541C140.728 35.9304 140.599 36.4308 140.342 36.8555C140.091 37.2801 139.754 37.6327 139.329 37.9133C138.905 38.1938 138.416 38.4023 137.862 38.5388C137.308 38.6753 136.728 38.7436 136.122 38.7436C134.924 38.7436 133.885 38.5123 133.005 38.0497ZM149.009 38.3568C148.569 38.5995 147.989 38.7208 147.268 38.7208C145.229 38.7208 144.209 37.5834 144.209 35.3086V28.4159H142.207V26.8235H144.209V23.98L146.074 23.3772V26.8235H149.009V28.4159H146.074V34.9787C146.074 35.7598 146.207 36.3171 146.472 36.6507C146.738 36.9844 147.177 37.1512 147.792 37.1512C148.262 37.1512 148.667 37.0223 149.009 36.7645V38.3568ZM159.837 38.4706H157.971V36.6507H157.926C157.115 38.0459 155.92 38.7436 154.343 38.7436C153.183 38.7436 152.273 38.4365 151.613 37.8223C150.961 37.2081 150.635 36.3929 150.635 35.3768C150.635 33.2006 151.917 31.9343 154.48 31.5779L157.971 31.0888C157.971 29.1097 157.171 28.1202 155.571 28.1202C154.169 28.1202 152.902 28.5979 151.773 29.5533V27.6425C152.918 26.9145 154.237 26.5505 155.731 26.5505C158.468 26.5505 159.837 27.9988 159.837 30.8954V38.4706ZM157.971 32.5788L155.162 32.9655C154.298 33.0868 153.645 33.303 153.206 33.6138C152.766 33.9172 152.546 34.4593 152.546 35.2403C152.546 35.809 152.747 36.2754 153.149 36.6394C153.558 36.9957 154.1 37.1739 154.775 37.1739C155.7 37.1739 156.462 36.8517 157.061 36.2071C157.668 35.555 157.971 34.7323 157.971 33.739V32.5788ZM173.019 38.4706H170.403L165.262 32.8745H165.217V38.4706H163.351V21.2275H165.217V32.158H165.262L170.153 26.8235H172.598L167.196 32.4423L173.019 38.4706ZM183.813 33.1134H175.59C175.62 34.41 175.969 35.411 176.636 36.1161C177.304 36.8213 178.221 37.1739 179.389 37.1739C180.701 37.1739 181.906 36.7417 183.006 35.8773V37.6289C181.982 38.372 180.629 38.7436 178.945 38.7436C177.3 38.7436 176.007 38.2166 175.067 37.1626C174.126 36.101 173.656 34.611 173.656 32.6925C173.656 30.8803 174.168 29.4054 175.192 28.268C176.223 27.123 177.501 26.5505 179.025 26.5505C180.549 26.5505 181.728 27.0434 182.562 28.0292C183.396 29.0149 183.813 30.3836 183.813 32.1352V33.1134ZM181.902 31.5324C181.895 30.4556 181.633 29.6178 181.118 29.0187C180.61 28.4197 179.901 28.1202 178.991 28.1202C178.111 28.1202 177.364 28.4349 176.75 29.0642C176.136 29.6936 175.757 30.5163 175.613 31.5324H181.902Z" fill="white"/>
<g clip-path="url(#clip1_563_15879)">
<ellipse cx="24.5" cy="27" rx="10.5" ry="10" fill="white"/>
<path d="M47.2291 40.7393C46.647 40.7445 46.0784 40.5641 45.6058 40.2242C42.4367 38.398 39.2694 36.5683 36.0858 34.7685C35.6938 34.5469 35.0858 33.9865 34.8047 34.4698C34.5236 34.9531 35.3118 35.1906 35.6977 35.4215C37.231 36.3389 38.7998 37.197 40.3386 38.1055C40.8357 38.399 41.3943 38.7255 40.9457 39.4742C40.49 40.2342 39.9716 39.8468 39.4657 39.5586C37.6957 38.55 35.9175 37.5565 34.169 36.5126C33.8861 36.3052 33.5379 36.2067 33.1882 36.2352C32.8386 36.2636 32.5109 36.4172 32.2652 36.6676C27.0833 40.7935 21.183 40.8284 16.0518 36.7523C15.7777 36.4725 15.411 36.3022 15.0204 36.2733C14.6298 36.2444 14.242 36.3589 13.9297 36.5954C12.2609 37.6092 10.5515 38.5568 8.84972 39.5154C8.32252 39.8125 7.75522 40.28 7.24492 39.4804C6.70932 38.6411 7.42391 38.3759 7.94011 38.073C9.58891 37.1056 11.2579 36.173 12.909 35.2091C13.2057 35.036 13.7851 34.8881 13.559 34.4623C13.2744 33.9263 12.8083 34.3985 12.4981 34.5748C9.35432 36.3615 6.22712 38.1774 3.09282 39.981C2.73282 40.1881 2.35281 40.361 1.99281 40.5661C1.90334 40.6399 1.79778 40.6917 1.68462 40.7173C1.57145 40.7428 1.45386 40.7414 1.34135 40.7131C1.22884 40.6848 1.12455 40.6305 1.03691 40.5544C0.94927 40.4784 0.880749 40.3829 0.836837 40.2755C0.771653 40.1797 0.728605 40.0705 0.710861 39.956C0.693116 39.8414 0.701107 39.7244 0.734237 39.6133C0.767367 39.5022 0.824828 39.3999 0.90242 39.3138C0.980011 39.2277 1.07578 39.16 1.18282 39.1155C2.40282 38.4024 3.62042 37.686 4.84352 36.9787C7.14602 35.6472 9.45623 34.3287 11.7505 32.9834C12.0451 32.8106 12.6053 32.5959 12.4105 32.2218C12.1239 31.6706 11.6653 32.1791 11.3626 32.3459C9.65192 33.2885 7.96702 34.278 6.27492 35.2543C6.09938 35.4027 5.88576 35.499 5.65828 35.5321C5.4308 35.5652 5.19858 35.5338 4.98802 35.4416C4.34252 35.0816 4.42802 34.3969 5.25902 33.8923C7.03502 32.8139 8.82282 31.751 10.6473 30.7582C11.0463 30.594 11.3747 30.2945 11.5751 29.9124C11.7754 29.5302 11.8347 29.0898 11.7428 28.6682C11.4016 25.9598 11.9727 23.2148 13.3661 20.8673C14.7594 18.5198 16.8954 16.7037 19.4364 15.706C19.8525 15.578 20.2104 15.3079 20.4475 14.9428C20.6846 14.5777 20.7859 14.1409 20.7335 13.7087C20.7088 11.5451 20.7263 9.38089 20.7341 7.21689C20.7363 6.62559 20.7098 5.9691 21.555 5.9498C22.4571 5.9291 22.489 6.60431 22.4917 7.25421C22.5003 9.33491 22.4938 11.4158 22.5076 13.4965C22.5099 13.8485 22.3849 14.4326 22.841 14.4365C23.4415 14.4415 23.2277 13.8196 23.2294 13.4506C23.2469 9.62213 23.2509 5.79357 23.2415 1.9649C23.2281 1.30733 23.3154 0.651564 23.5003 0.0203857H24.7492C25.02 1.14874 25.1095 2.31302 25.0145 3.46951C25.0255 6.84111 25.0193 10.2128 25.032 13.5844C25.0334 13.9361 25.0107 14.4604 25.492 14.4277C25.9136 14.3992 25.7583 13.8933 25.7609 13.5893C25.7783 11.5082 25.769 9.4268 25.787 7.3457C25.7923 6.7395 25.6731 5.95969 26.6029 5.95889C27.5229 5.95809 27.4291 6.73889 27.4354 7.34299C27.4584 9.54889 27.4836 11.7556 27.4439 13.9609C27.4005 14.3286 27.4932 14.6995 27.7046 15.0035C27.916 15.3075 28.2314 15.5236 28.5912 15.6109C31.1647 16.5795 33.3408 18.38 34.7742 20.7265C36.2076 23.073 36.8162 25.8311 36.5032 28.5629C36.4127 29.0095 36.4772 29.4737 36.6862 29.8787C36.8951 30.2837 37.236 30.6053 37.6524 30.7903C39.3737 31.7129 41.0443 32.7311 42.7224 33.7316C43.2334 34.0361 43.9742 34.2985 43.4716 35.1316C42.9932 35.9244 42.3787 35.4902 41.8516 35.1924C40.1868 34.2518 38.5442 33.2719 36.8846 32.3218C36.5813 32.1481 36.1692 31.7488 35.9038 32.1594C35.6366 32.5729 36.166 32.761 36.4574 32.96C36.6627 33.1 36.89 33.2077 37.1054 33.3334C40.4802 35.3018 43.8548 37.2705 47.2291 39.2395V40.7393ZM24.2699 26.0833C22.1911 26.0833 20.1119 26.106 18.0337 26.0704C17.3504 26.0587 17.1881 26.3343 17.1968 26.956C17.2053 27.5696 17.242 27.9947 18.0474 27.9503C19.1251 27.8903 20.2085 27.9326 21.2895 27.9366C23.4927 27.9447 25.6976 27.9089 27.8986 27.9841C29.3058 28.0322 29.8657 28.6941 29.6448 29.8231C29.4348 30.8951 28.5518 31.0038 27.7208 31.0165C24.5618 31.0648 21.4008 31.1058 18.243 31.0484C17.1312 31.0284 17.1042 31.5794 17.2501 32.3536C17.3691 32.9849 17.9116 32.891 18.3501 32.8924C21.3851 32.9024 24.4201 32.9087 27.4552 32.8886C28.2473 32.8886 29.0326 32.7438 29.7726 32.4614C30.2169 32.307 30.6219 32.057 30.9589 31.729C31.296 31.4009 31.5569 31.0028 31.7232 30.5629C31.8895 30.1229 31.9572 29.6518 31.9215 29.1829C31.8858 28.7139 31.7475 28.2585 31.5164 27.8488C31.3523 27.5213 30.9533 27.2126 31.105 26.846C31.475 25.9522 30.8661 26.087 30.3816 26.086C28.3444 26.0795 26.3072 26.083 24.2699 26.0833ZM31.4621 22.7857C31.0765 22.2293 30.5555 21.7803 29.9482 21.4811C29.341 21.1818 28.6676 21.0421 27.9914 21.0752C24.7114 20.9997 21.428 21.0412 18.1462 21.018C17.3316 21.0122 17.2128 21.478 17.2028 22.148C17.19 23.0103 17.8033 22.7766 18.2435 22.778C21.4841 22.7919 24.7247 22.7856 27.9653 22.7856L31.4621 22.7857Z" fill="black"/>
<path d="M19.2844 10.9769C19.8044 13.2837 18.991 14.7439 16.8019 15.8169C14.1345 17.124 12.5553 19.6291 11.3582 22.2338C10.6563 23.8391 10.3693 25.5951 10.5236 27.3403C10.6187 27.8728 10.5215 28.4218 10.2496 28.8894C9.97757 29.357 9.54839 29.7128 9.0385 29.8934C7.85838 30.4928 6.72849 31.1863 5.65981 31.9672C4.51881 32.7372 4.07199 32.6086 3.82729 31.2172C2.88072 26.3392 3.7242 21.2834 6.20305 16.9768C8.68189 12.6702 12.63 9.40146 17.3235 7.76981C19.0701 7.13451 19.2741 7.3033 19.2835 9.1056C19.2872 9.7292 19.2844 10.3531 19.2844 10.9769Z" fill="url(#paint0_linear_563_15879)"/>
<path d="M29.0146 10.8915C29.0146 10.1435 29.0332 9.39494 29.0099 8.64764C28.9799 7.69584 29.3329 7.37152 30.3027 7.65112C32.7553 8.41324 35.0484 9.61627 37.0694 11.2011C39.2843 12.8942 41.0849 15.0691 42.3347 17.5611C44.5714 21.6731 45.3135 26.4334 44.4347 31.0311C44.1733 32.3981 43.7547 32.5868 42.5612 31.9133C41.1901 31.1394 39.8477 30.3133 38.5057 29.4893C37.7574 29.0298 37.7597 28.2466 37.7589 27.4993C37.8023 25.5643 37.4288 23.6426 36.6638 21.8647C35.8987 20.0869 34.7601 18.4944 33.3252 17.1955C32.5403 16.4528 31.6491 15.8311 30.6812 15.3507C30.1056 15.1595 29.6183 14.7669 29.3091 14.2451C28.9998 13.7233 28.8894 13.1075 28.998 12.5107C29.0389 11.972 29.0429 11.4311 29.01 10.8918L29.0146 10.8915Z" fill="url(#paint1_linear_563_15879)"/>
<path d="M36.0137 39.8176C36.6578 40.1978 37.2931 40.5944 37.9485 40.9542C38.7834 41.4121 38.8833 41.881 38.1495 42.574C36.2465 44.2988 34.0449 45.662 31.6528 46.5969C29.0689 47.6438 26.2807 48.0889 23.4994 47.8985C18.8212 47.7345 14.3446 45.954 10.8318 42.8601C9.78747 41.9402 9.83774 41.4837 11.0244 40.7983C12.3878 40.0109 13.7816 39.2748 15.1733 38.5379C15.9494 38.127 16.6227 38.5271 17.2667 38.9063C18.911 39.9272 20.7558 40.5824 22.6757 40.8273C24.5956 41.0721 26.5458 40.901 28.3937 40.3255C29.4323 40.0271 30.4207 39.5757 31.3264 38.9862C31.7836 38.5877 32.3694 38.3677 32.9759 38.3666C33.5825 38.3655 34.169 38.5834 34.6277 38.9803C35.0708 39.2894 35.5346 39.5678 36.0158 39.8135L36.0137 39.8176Z" fill="url(#paint2_linear_563_15879)"/>
</g>
</g>
<defs>
<linearGradient id="paint0_linear_563_15879" x1="5" y1="32" x2="17.9737" y2="8.48546" gradientUnits="userSpaceOnUse">
<stop stop-color="#FF9F0A"/>
<stop offset="1" stop-color="#FF665C"/>
</linearGradient>
<linearGradient id="paint1_linear_563_15879" x1="30.5" y1="9" x2="44" y2="33" gradientUnits="userSpaceOnUse">
<stop stop-color="#FF9F0A"/>
<stop offset="1" stop-color="#FF665C"/>
</linearGradient>
<linearGradient id="paint2_linear_563_15879" x1="10" y1="42" x2="38.9999" y2="41.9353" gradientUnits="userSpaceOnUse">
<stop stop-color="#FF9F0A"/>
<stop offset="1" stop-color="#FF665C"/>
</linearGradient>
<clipPath id="clip0_563_15879">
<rect width="185" height="48" fill="white"/>
</clipPath>
<clipPath id="clip1_563_15879">
<rect width="47" height="49" fill="white"/>
</clipPath>
</defs>
</svg>
