<svg width="279" height="103" viewBox="0 0 279 103" fill="none" xmlns="http://www.w3.org/2000/svg">
  <path d="M108.389 60.8745C109.732 60.8745 111.075 60.8812 112.418 60.8717C113.078 60.867 113.5 61.0685 113.64 61.8047C114.605 66.8757 117.925 69.5238 122.802 70.3971C126.078 70.9838 129.325 70.8 132.335 69.1711C134.099 68.2161 135.379 66.8269 135.777 64.7901C136.396 61.6211 135.26 59.4759 132.167 58.0794C129.262 56.7676 126.116 56.3267 123.025 55.7171C119.677 55.0568 116.331 54.415 113.16 53.1016C105.849 50.0733 103.611 44.4115 104.535 37.4695C105.22 32.3224 108.148 28.4975 112.701 26.219C121.083 22.025 129.544 22.2122 137.654 26.9731C142.22 29.6534 144.768 33.8891 145.471 39.1695C145.614 40.244 145.344 40.6055 144.292 40.6043C141.605 40.601 138.918 40.5571 136.232 40.5401C135.625 40.5363 135.167 40.3679 135.014 39.7095C133.849 34.6877 130.349 32.5395 125.516 32.1349C123.104 31.9329 120.725 32.1797 118.519 33.3109C115.721 34.7456 114.442 37.4179 115.104 40.4707C115.399 41.8321 116.273 42.7701 117.419 43.489C119.428 44.7483 121.707 45.2321 123.977 45.7129C128.336 46.636 132.771 47.2186 136.992 48.7446C141.27 50.2913 144.61 52.8367 145.966 57.3486C148.006 64.1341 145.636 70.8991 139.867 75.0196C136.381 77.5095 132.437 78.7653 128.198 79.0879C122.036 79.5568 116.165 78.6397 110.958 75.0578C106.473 71.973 103.837 67.7239 103.174 62.2975C103.021 61.0484 103.314 60.7283 104.577 60.7293C105.847 60.7304 107.118 60.7304 108.389 60.7295L108.389 60.8745Z" fill="white"/> 
  <path d="M187.64 59.6054C187.64 62.2139 187.632 64.8225 187.643 67.431C187.652 69.5283 188.375 70.2475 190.453 70.2694C192.381 70.2897 192.419 70.3248 192.419 72.2015C192.419 73.9042 192.387 75.6075 192.422 77.3095C192.442 78.3023 192.092 78.7748 191.034 78.7536C188.893 78.7108 186.75 78.7678 184.609 78.736C181.994 78.6971 180.216 76.8693 180.141 74.2541C180.118 73.4662 180.479 72.446 179.434 72.0652C178.283 71.6459 177.993 72.774 177.498 73.4084C172.139 80.2769 161.609 81.2646 155.042 75.4977C150.169 71.2174 150.444 62.4068 155.588 58.115C158.559 55.6362 162.122 54.7668 165.858 54.3936C169.298 54.0501 172.75 54.2682 176.196 54.2074C177.476 54.1848 177.621 54.0446 177.638 52.7569C177.692 48.5006 175.122 45.8098 170.853 45.6543C169.279 45.597 167.734 45.7292 166.271 46.3745C164.577 47.1217 163.24 48.2339 162.651 50.0513C162.437 50.7107 162.053 50.9527 161.371 50.9456C158.939 50.9205 156.507 50.9468 154.075 50.9318C152.945 50.9249 152.67 50.5542 152.894 49.4317C153.774 45.0382 156.412 41.987 160.403 40.1892C166.263 37.5496 172.378 37.254 178.453 39.2479C184.426 41.2084 187.539 45.8309 187.631 52.2146C187.666 54.6777 187.637 57.1418 187.637 59.6054L187.64 59.6054ZM168.052 71.8134C173.633 71.8302 177.619 67.9023 177.646 62.5177C177.651 61.492 177.277 61.0947 176.239 61.1147C173.812 61.1615 171.383 61.1356 168.956 61.1281C167.831 61.1276 166.712 61.29 165.635 61.6102C162.956 62.3952 161.564 64.3055 161.683 66.9841C161.783 69.2638 163.448 71.031 166.007 71.5903C166.676 71.7507 167.363 71.8257 168.052 71.8134Z" fill="white"/>
  <path d="M247.849 60.9034C243.383 60.9036 238.917 60.904 234.452 60.9047C233.102 60.9056 232.836 61.2145 233.033 62.5192C234.142 69.8626 241.441 73.6755 248.171 70.4146C250.002 69.5272 251.38 68.1637 252.092 66.2418C252.397 65.4194 252.861 65.1512 253.715 65.1687C256.074 65.2169 258.435 65.1786 260.794 65.1874C262.053 65.1921 262.364 65.5815 262.017 66.7945C260.319 72.7292 256.338 76.4911 250.539 78.2358C244.821 79.9562 239.092 79.5803 233.617 77.1872C227.218 74.3903 223.799 69.2453 222.787 62.4782C222.134 58.1146 222.463 53.7911 224.189 49.6712C226.787 43.4719 231.499 39.8054 238.05 38.5199C242.906 37.5669 247.692 37.9475 252.21 40.043C258.742 43.072 262.175 48.328 262.832 55.4245C262.917 56.7259 262.925 58.0312 262.856 59.3335C262.819 60.7225 262.613 60.9009 261.246 60.9019C256.78 60.9053 252.314 60.9058 247.849 60.9034ZM243.023 54.0782C245.783 54.0782 248.544 54.0864 251.304 54.0748C252.663 54.069 252.964 53.6918 252.585 52.4111C251.417 48.4583 248.644 46.3932 244.659 45.8005C239.464 45.0276 234.88 47.7696 233.573 52.4168C233.211 53.702 233.479 54.0661 234.851 54.072C237.575 54.0839 240.299 54.0756 243.023 54.0782Z" fill="white"/>
  <path d="M52.3852 86.75C47.2304 86.75 42.0757 86.7497 36.9209 86.7491C33.7193 86.7467 32.0844 85.1281 32.0756 81.9547C32.0695 79.7447 32.0649 77.5347 32.0759 75.3248C32.0903 72.4304 33.7781 70.7425 36.6958 70.7398C46.5334 70.731 56.3718 70.6697 66.2082 70.7761C69.4299 70.8109 71.2089 68.6045 71.096 65.8801C70.9565 62.5166 71.0564 59.1429 71.0642 55.7736C71.0704 53.0649 72.7699 51.347 75.4606 51.3334C77.8927 51.3211 80.3251 51.3147 82.7571 51.3349C85.4082 51.3569 87.0934 53.0466 87.1046 55.707C87.122 59.837 87.1222 63.9671 87.105 68.0973C87.0919 70.8176 85.4002 72.4733 82.6615 72.4927C80.8465 72.5055 79.0313 72.4884 77.2164 72.502C74.4225 72.5228 72.8265 74.1138 72.8164 76.88C72.8099 78.6914 72.8253 80.5029 72.8139 82.3143C72.7968 85.0164 71.1281 86.7 68.3938 86.7474C66.7245 86.7763 65.0542 86.7503 63.3844 86.7501C59.718 86.7496 56.0516 86.7496 52.3852 86.75Z" fill="white"/>
  <path d="M50.6485 15.9526C55.8764 15.9514 61.1043 15.9513 66.3322 15.9521C69.3692 15.9535 71.0494 17.623 71.0562 20.6468C71.0611 22.857 71.0609 25.0673 71.0554 27.2775C71.0489 30.3193 69.3861 31.9647 66.3253 31.9644C56.6319 31.9634 46.9373 32.0517 37.2458 31.9148C33.5285 31.8623 31.918 34.2029 32.0513 37.0744C32.2024 40.3284 32.0968 43.5947 32.0919 46.8556C32.0877 49.6325 30.4036 51.3246 27.6262 51.3384C25.2302 51.3503 22.834 51.3501 20.4379 51.3376C17.7695 51.3228 16.0798 49.6528 16.0707 47.0027C16.0566 42.8723 16.0571 38.7417 16.0722 34.6111C16.0854 31.8623 17.7104 30.2425 20.4802 30.1953C22.2949 30.1644 24.1105 30.1863 25.9256 30.1753C28.5571 30.1593 30.2937 28.4389 30.3115 25.8207C30.3235 24.0454 30.3049 22.2698 30.3145 20.4945C30.3298 17.6684 32.0186 15.966 34.8559 15.9579C40.1201 15.9432 45.3843 15.9537 50.6485 15.9526Z" fill="white"/>
  <path d="M200.289 63.1957C200.289 58.522 200.289 53.8484 200.288 49.1747C200.287 47.7519 200.164 47.6383 198.712 47.638C197.151 47.6376 195.59 47.6449 194.03 47.6358C192.784 47.6285 192.554 47.403 192.55 46.1944C192.543 44.2743 192.571 42.3537 192.538 40.434C192.52 39.4524 192.944 39.0608 193.911 39.0809C195.507 39.1141 197.105 39.0948 198.702 39.0908C200.107 39.0873 200.258 38.9126 200.295 37.5418C200.346 35.6628 200.11 33.7731 200.489 31.9058C200.93 29.6824 202.125 27.6787 203.873 26.232C205.621 24.7853 207.815 23.984 210.085 23.963C213.425 23.9293 216.765 23.9722 220.104 23.9366C221.125 23.9257 221.549 24.301 221.523 25.341C221.476 27.2963 221.487 29.2539 221.521 31.2098C221.537 32.1481 221.129 32.5075 220.215 32.4977C217.674 32.4707 215.133 32.4774 212.592 32.4793C210.82 32.4807 210.22 33.0627 210.196 34.8026C210.183 35.7805 210.22 36.7597 210.189 37.7369C210.158 38.7073 210.584 39.1084 211.558 39.0994C214.353 39.0734 217.149 39.0872 219.944 39.0976C221.297 39.1026 221.442 39.2554 221.446 40.6073C221.451 42.455 221.45 44.3027 221.444 46.1504C221.439 47.4527 221.257 47.6304 219.906 47.6338C217.219 47.6406 214.533 47.6362 211.847 47.6384C210.324 47.6397 210.19 47.7721 210.19 49.3359C210.189 58.5383 210.189 67.7406 210.191 76.943C210.191 78.6624 210.115 78.7425 208.428 78.7431C206.177 78.7439 203.926 78.7198 201.676 78.7523C200.651 78.7671 200.267 78.3554 200.274 77.3252C200.308 72.6156 200.289 67.9056 200.289 63.1957Z" fill="white"/>
  <path d="M51.64 43.2718C52.8739 43.273 54.1082 43.2551 55.3417 43.2767C57.8363 43.3205 59.6841 45.1233 59.7192 47.5942C59.754 50.0566 59.7543 52.5194 59.7199 54.9827C59.6864 57.4572 57.8788 59.2873 55.3713 59.3432C52.9047 59.3981 50.4371 59.3991 47.9685 59.346C45.3944 59.2866 43.6205 57.4581 43.5938 54.9041C43.5684 52.4777 43.5695 50.0511 43.597 47.6242C43.6276 45.1339 45.4371 43.3328 47.9385 43.2756C49.1717 43.2474 50.4061 43.2707 51.64 43.2718Z" fill="white"/>
</svg>
