<svg width="279" height="103" viewBox="0 0 279 103" fill="none" xmlns="http://www.w3.org/2000/svg">
  <path d="M108.389 60.8746C109.732 60.8746 111.075 60.8813 112.418 60.8717C113.078 60.867 113.5 61.0686 113.64 61.8048C114.605 66.8757 117.925 69.5238 122.802 70.3972C126.078 70.9838 129.325 70.8001 132.335 69.1711C134.099 68.2162 135.379 66.8269 135.777 64.7901C136.396 61.6212 135.26 59.4759 132.167 58.0794C129.262 56.7677 126.116 56.3268 123.025 55.7172C119.677 55.0569 116.332 54.415 113.16 53.1016C105.849 50.0734 103.611 44.4116 104.535 37.4695C105.22 32.3225 108.148 28.4975 112.701 26.2191C121.083 22.0251 129.544 22.2123 137.654 26.9732C142.22 29.6535 144.769 33.8891 145.471 39.1695C145.614 40.2441 145.344 40.6056 144.292 40.6044C141.605 40.6011 138.918 40.5571 136.232 40.5402C135.625 40.5364 135.167 40.368 135.014 39.7095C133.849 34.6877 130.349 32.5396 125.516 32.1349C123.104 31.933 120.725 32.1798 118.519 33.311C115.721 34.7457 114.442 37.4179 115.104 40.4707C115.399 41.8321 116.273 42.7702 117.419 43.489C119.428 44.7484 121.707 45.2322 123.977 45.713C128.336 46.6361 132.771 47.2187 136.992 48.7447C141.27 50.2914 144.61 52.8368 145.966 57.3487C148.006 64.1342 145.636 70.8992 139.867 75.0197C136.381 77.5096 132.437 78.7654 128.198 79.0879C122.036 79.5569 116.165 78.6397 110.958 75.0579C106.473 71.9731 103.837 67.7239 103.174 62.2976C103.021 61.0485 103.314 60.7283 104.577 60.7294C105.847 60.7304 107.118 60.7305 108.389 60.7296L108.389 60.8746Z" fill="black"/>
  <path d="M187.64 59.6055C187.64 62.214 187.632 64.8226 187.643 67.4311C187.652 69.5283 188.375 70.2476 190.453 70.2694C192.381 70.2897 192.419 70.3249 192.419 72.2016C192.419 73.9043 192.387 75.6076 192.422 77.3095C192.442 78.3024 192.092 78.7748 191.034 78.7537C188.893 78.7108 186.75 78.7679 184.609 78.7361C181.994 78.6971 180.216 76.8693 180.141 74.2541C180.118 73.4663 180.479 72.446 179.434 72.0652C178.283 71.6459 177.993 72.7741 177.498 73.4085C172.139 80.2769 161.609 81.2646 155.042 75.4978C150.169 71.2175 150.444 62.4069 155.588 58.1151C158.559 55.6362 162.122 54.7668 165.858 54.3937C169.298 54.0501 172.75 54.2682 176.196 54.2074C177.476 54.1849 177.621 54.0447 177.638 52.757C177.692 48.5007 175.122 45.8099 170.853 45.6544C169.279 45.597 167.734 45.7293 166.271 46.3746C164.577 47.1218 163.24 48.2339 162.651 50.0514C162.437 50.7108 162.053 50.9527 161.371 50.9456C158.939 50.9205 156.507 50.9469 154.075 50.9319C152.945 50.9249 152.67 50.5542 152.894 49.4318C153.774 45.0382 156.412 41.9871 160.403 40.1892C166.263 37.5497 172.378 37.254 178.453 39.2479C184.426 41.2085 187.539 45.831 187.631 52.2147C187.666 54.6777 187.636 57.1419 187.636 59.6055L187.64 59.6055ZM168.052 71.8135C173.633 71.8303 177.619 67.9024 177.646 62.5178C177.651 61.492 177.277 61.0948 176.239 61.1147C173.812 61.1616 171.383 61.1357 168.955 61.1282C167.831 61.1277 166.712 61.2901 165.635 61.6103C162.955 62.3952 161.564 64.3055 161.683 66.9842C161.783 69.2638 163.447 71.031 166.007 71.5904C166.676 71.7508 167.363 71.8258 168.052 71.8135Z" fill="black"/>
  <path d="M247.849 60.9034C243.383 60.9037 238.917 60.9041 234.452 60.9048C233.102 60.9057 232.836 61.2145 233.033 62.5193C234.142 69.8627 241.441 73.6756 248.171 70.4147C250.002 69.5272 251.38 68.1638 252.092 66.2419C252.397 65.4194 252.861 65.1512 253.715 65.1687C256.074 65.217 258.435 65.1786 260.794 65.1875C262.053 65.1922 262.364 65.5815 262.017 66.7946C260.319 72.7292 256.338 76.4912 250.539 78.2359C244.821 79.9562 239.092 79.5803 233.617 77.1873C227.218 74.3904 223.799 69.2453 222.787 62.4783C222.134 58.1146 222.463 53.7912 224.189 49.6713C226.787 43.472 231.499 39.8055 238.05 38.52C242.906 37.567 247.692 37.9476 252.21 40.0431C258.742 43.072 262.175 48.328 262.832 55.4246C262.917 56.726 262.925 58.0312 262.856 59.3335C262.819 60.7226 262.613 60.9009 261.246 60.902C256.78 60.9054 252.314 60.9059 247.849 60.9034ZM243.023 54.0783C245.783 54.0783 248.544 54.0865 251.304 54.0748C252.663 54.0691 252.964 53.6919 252.585 52.4111C251.417 48.4584 248.644 46.3932 244.659 45.8005C239.464 45.0277 234.88 47.7697 233.573 52.4169C233.211 53.7021 233.479 54.0662 234.851 54.0721C237.575 54.0839 240.299 54.0756 243.023 54.0783Z" fill="black"/>
  <path d="M52.3852 86.75C47.2305 86.75 42.0757 86.7497 36.921 86.7491C33.7194 86.7467 32.0845 85.1281 32.0757 81.9547C32.0696 79.7447 32.065 77.5347 32.076 75.3248C32.0904 72.4304 33.7782 70.7425 36.6959 70.7398C46.5334 70.731 56.3719 70.6697 66.2082 70.7761C69.43 70.8109 71.2089 68.6045 71.096 65.8801C70.9565 62.5166 71.0565 59.1429 71.0642 55.7736C71.0704 53.0649 72.77 51.347 75.4606 51.3334C77.8928 51.3211 80.3251 51.3147 82.7571 51.3349C85.4083 51.3569 87.0934 53.0466 87.1046 55.707C87.1221 59.837 87.1222 63.9671 87.1051 68.0973C87.092 70.8176 85.4003 72.4733 82.6616 72.4927C80.8466 72.5055 79.0314 72.4884 77.2164 72.502C74.4226 72.5228 72.8266 74.1138 72.8165 76.88C72.8099 78.6914 72.8254 80.5029 72.8139 82.3143C72.7968 85.0164 71.1281 86.7 68.3939 86.7474C66.7246 86.7763 65.0543 86.7503 63.3845 86.7501C59.7181 86.7496 56.0517 86.7496 52.3852 86.75Z" fill="black"/>
  <path d="M50.6486 15.9525C55.8765 15.9514 61.1044 15.9512 66.3323 15.952C69.3692 15.9534 71.0494 17.623 71.0562 20.6468C71.0612 22.857 71.0609 25.0672 71.0555 27.2774C71.0489 30.3192 69.3862 31.9646 66.3254 31.9643C56.632 31.9633 46.9373 32.0516 37.2458 31.9147C33.5285 31.8622 31.9181 34.2029 32.0514 37.0743C32.2025 40.3284 32.0969 43.5946 32.0919 46.8556C32.0877 49.6324 30.4036 51.3246 27.6262 51.3383C25.2302 51.3503 22.8341 51.35 20.4379 51.3376C17.7695 51.3228 16.0798 49.6527 16.0708 47.0027C16.0567 42.8722 16.0571 38.7417 16.0722 34.6111C16.0855 31.8623 17.7104 30.2425 20.4802 30.1953C22.295 30.1644 24.1105 30.1862 25.9256 30.1752C28.5572 30.1593 30.2937 28.4389 30.3115 25.8207C30.3236 24.0454 30.305 22.2697 30.3146 20.4945C30.3298 17.6683 32.0187 15.9659 34.8559 15.9579C40.1201 15.9432 45.3844 15.9537 50.6486 15.9525Z" fill="black"/>
  <path d="M200.289 63.1956C200.289 58.5219 200.289 53.8483 200.288 49.1747C200.287 47.7518 200.164 47.6382 198.712 47.6379C197.151 47.6376 195.59 47.6449 194.029 47.6357C192.783 47.6284 192.554 47.4029 192.55 46.1944C192.543 44.2742 192.571 42.3536 192.538 40.434C192.52 39.4523 192.944 39.0607 193.911 39.0808C195.507 39.114 197.105 39.0947 198.702 39.0907C200.107 39.0872 200.258 38.9125 200.295 37.5417C200.346 35.6628 200.11 33.7731 200.489 31.9057C200.93 29.6824 202.125 27.6787 203.873 26.232C205.621 24.7853 207.815 23.9839 210.085 23.9629C213.425 23.9293 216.765 23.9721 220.104 23.9365C221.125 23.9256 221.548 24.301 221.523 25.341C221.476 27.2962 221.487 29.2539 221.521 31.2097C221.537 32.1481 221.129 32.5074 220.215 32.4977C217.674 32.4706 215.133 32.4774 212.592 32.4793C210.82 32.4806 210.22 33.0626 210.196 34.8025C210.183 35.7805 210.22 36.7596 210.189 37.7368C210.158 38.7072 210.584 39.1084 211.558 39.0993C214.353 39.0734 217.148 39.0871 219.944 39.0975C221.297 39.1025 221.442 39.2554 221.446 40.6072C221.451 42.4549 221.45 44.3026 221.444 46.1504C221.439 47.4527 221.257 47.6304 219.905 47.6338C217.219 47.6406 214.533 47.6362 211.846 47.6383C210.324 47.6396 210.19 47.772 210.19 49.3359C210.189 58.5382 210.189 67.7406 210.191 76.943C210.191 78.6623 210.115 78.7424 208.428 78.743C206.177 78.7439 203.926 78.7197 201.676 78.7522C200.651 78.7671 200.267 78.3554 200.274 77.3251C200.308 72.6155 200.289 67.9056 200.289 63.1956Z" fill="black"/>
  <path d="M51.6401 43.2718C52.874 43.273 54.1082 43.2551 55.3417 43.2767C57.8364 43.3205 59.6841 45.1233 59.7192 47.5942C59.7541 50.0566 59.7543 52.5194 59.7199 54.9827C59.6864 57.4572 57.8789 59.2873 55.3714 59.3432C52.9048 59.3981 50.4371 59.3991 47.9685 59.346C45.3944 59.2866 43.6206 57.4581 43.5939 54.9041C43.5685 52.4777 43.5695 50.0511 43.597 47.6242C43.6277 45.1339 45.4371 43.3328 47.9385 43.2756C49.1718 43.2474 50.4062 43.2707 51.6401 43.2718Z" fill="black"/>
</svg>
