<svg width="150" height="51" viewBox="0 0 150 51" fill="none" xmlns="http://www.w3.org/2000/svg">
<g clip-path="url(#clip0_1_6316)">
<path d="M38.4764 0H11.3166C5.06663 0 0 5.06875 0 11.3213V38.4925C0 44.7453 5.06663 49.814 11.3166 49.814H38.4764C44.7265 49.814 49.7931 44.7453 49.7931 38.4925V11.3213C49.7931 5.06875 44.7265 0 38.4764 0Z" fill="url(#paint0_linear_1_6316)"/>
<path d="M38.4764 0H11.3166C5.06663 0 0 5.06875 0 11.3213V38.4925C0 44.7453 5.06663 49.814 11.3166 49.814H38.4764C44.7265 49.814 49.7931 44.7453 49.7931 38.4925V11.3213C49.7931 5.06875 44.7265 0 38.4764 0Z" fill="url(#paint1_radial_1_6316)"/>
<path d="M38.4764 0H11.3166C5.06663 0 0 5.06875 0 11.3213V38.4925C0 44.7453 5.06663 49.814 11.3166 49.814H38.4764C44.7265 49.814 49.7931 44.7453 49.7931 38.4925V11.3213C49.7931 5.06875 44.7265 0 38.4764 0Z" fill="url(#paint2_radial_1_6316)"/>
<path d="M38.4764 0H11.3166C5.06663 0 0 5.06875 0 11.3213V38.4925C0 44.7453 5.06663 49.814 11.3166 49.814H38.4764C44.7265 49.814 49.7931 44.7453 49.7931 38.4925V11.3213C49.7931 5.06875 44.7265 0 38.4764 0Z" fill="url(#paint3_radial_1_6316)"/>
<path d="M20.4541 38.2634V26.7087L31.6764 38.2634H37.92V37.9628L25.0111 24.8028L36.9265 12.3178V12.1704H30.6425L20.4541 23.2031V12.1704H15.3945V38.2634H20.4541Z" fill="white"/>
<path d="M66.5996 39.0664V27.1554L77.7526 39.0664H83.967V38.7572L71.1338 25.1955L82.9644 12.322V12.1704H76.7158L66.5883 23.5447V12.1704H61.5701V39.0664H66.594H66.5996ZM92.5908 39.6439C95.4844 39.6439 98.6457 38.6056 100.662 36.5699L97.6888 33.6125C96.5838 34.7266 94.3793 35.3857 92.6648 35.3857C89.3554 35.3857 87.3732 33.6942 87.0712 31.3493H101.716C101.756 30.7369 101.796 30.1594 101.796 29.5761C101.796 22.9672 97.985 19.625 92.2376 19.625C86.1428 19.625 82.2638 23.7722 82.2638 29.5411C82.2695 35.5724 86.1144 39.6439 92.5908 39.6439ZM97.2729 27.4645H87.1397C87.8631 25.003 89.8453 23.7722 92.3857 23.7722C95.0971 23.7722 96.9654 25.003 97.2672 27.4645H97.2729ZM108.449 47.7518V36.8382C109.816 38.9497 112.675 39.6031 114.697 39.6031C120.712 39.6031 124.175 35.1466 124.175 29.6111C124.175 24.0756 120.331 19.6949 114.543 19.6949C112.413 19.6949 109.935 20.5816 108.454 22.7339L108.147 20.1207H103.795V47.7401H108.449V47.7518ZM114.196 35.0357C110.995 35.0357 108.864 32.5742 108.864 29.6169C108.864 26.6595 110.847 24.2389 114.196 24.2389C117.545 24.2389 119.528 26.6595 119.528 29.6169C119.528 32.5742 117.391 35.0357 114.19 35.0357H114.196ZM131.085 39.0722V12.2054H126.471V39.0664H131.085V39.0722ZM139.174 39.0722V29.0802C139.174 25.5338 141.423 24.2681 143.855 24.2681C145.382 24.2681 146.254 24.7755 147.205 25.4988L149.301 21.4216C148.275 20.4591 146.407 19.6483 144.465 19.6483C142.523 19.6483 140.545 19.9924 139.174 22.2965L138.831 20.1091H134.525V39.0488L139.174 39.0664V39.0722Z" fill="white"/>
</g>
<defs>
<linearGradient id="paint0_linear_1_6316" x1="24.8966" y1="0" x2="24.8966" y2="49.814" gradientUnits="userSpaceOnUse">
<stop stop-color="#1FD1FF"/>
<stop offset="1" stop-color="#1BB8FF"/>
</linearGradient>
<radialGradient id="paint1_radial_1_6316" cx="0" cy="0" r="1" gradientUnits="userSpaceOnUse" gradientTransform="translate(2.37848 47.9265) rotate(-45.1676) scale(79.8692 81.0639)">
<stop stop-color="#232DE3"/>
<stop offset="1" stop-color="#232DE3" stop-opacity="0"/>
</radialGradient>
<radialGradient id="paint2_radial_1_6316" cx="0" cy="0" r="1" gradientUnits="userSpaceOnUse" gradientTransform="translate(47.1113 49.5295) rotate(-138.438) scale(49.9371 76.1439)">
<stop stop-color="#8B4DFF"/>
<stop offset="1" stop-color="#8B4DFF" stop-opacity="0"/>
</radialGradient>
<radialGradient id="paint3_radial_1_6316" cx="0" cy="0" r="1" gradientUnits="userSpaceOnUse" gradientTransform="translate(24.4817 0.369451) rotate(90) scale(39.2741 95.2498)">
<stop stop-color="#24D5FF"/>
<stop offset="1" stop-color="#1BB8FF" stop-opacity="0"/>
</radialGradient>
<clipPath id="clip0_1_6316">
<rect width="149.379" height="51" fill="white"/>
</clipPath>
</defs>
</svg>
