<svg width="147" height="55" viewBox="0 0 147 55" fill="none" xmlns="http://www.w3.org/2000/svg">
<path d="M27.5713 13.293L13.4748 27.3895L27.6232 41.5378L41.7197 27.4413L27.5713 13.293ZM27.5713 35.8918L19.0689 27.3895L27.5713 18.8944L36.0663 27.3895L27.5713 35.8918Z" fill="#00BFFF"/>
<path d="M45.511 36.8341L49.5396 40.8627V49.3577H41.0446L37.016 45.3291L34.2189 48.1261L39.4049 53.3121H53.494V39.2231L48.308 34.037L45.511 36.8341Z" fill="#00BFFF"/>
<path d="M39.4049 1.47412L34.2041 6.67499L37.0011 9.47945L41.0446 5.42856H49.5396V13.9236L45.4961 17.9744L48.2932 20.7715L53.494 15.5632V1.47412H39.4049Z" fill="#00BFFF"/>
<path d="M14.1054 49.3577H5.61044V40.8627L9.66133 36.8118L6.86429 34.0148L1.65601 39.2231V53.3121H15.7451L20.9534 48.1039L18.1563 45.3142L14.1054 49.3577Z" fill="#00BFFF"/>
<path d="M6.87913 20.7937L9.67617 17.9967L5.61044 13.9236V5.42856H14.1054L18.1786 9.49429L20.9756 6.69725L15.7451 1.47412H1.65601V15.5632L6.87913 20.7937Z" fill="#00BFFF"/>
<path d="M70.8921 30.1345L68.466 32.568L68.377 32.6571V38.6073L70.8921 41.1224H79.9064L80.4183 41.6343V45.5962L79.9064 46.1081H72.2943L71.7824 45.5962V43.4594H68.377V46.991L70.8921 49.5061H81.3086L83.7347 47.0726L83.8238 46.991V40.2395L81.3086 37.7244H72.2943L71.7824 37.205V34.0519L72.2943 33.5399H79.9064L80.4183 34.0519V36.1886H83.8238V32.6571L81.3086 30.1345H70.8921Z" fill="#00BFFF"/>
<path d="M90.8126 30.1345L88.2901 32.6571V46.991L90.8126 49.5061H101.214L103.737 46.991V42.6582H100.331V45.5962L99.8196 46.1081H92.2075L91.6955 45.5962V34.0519L92.2075 33.5399H99.8196L100.331 34.0519V36.9899H103.737V32.6571L101.214 30.1345H90.8126Z" fill="#00BFFF"/>
<path d="M140.158 30.1345V43.1627L131.47 30.2681L131.381 30.1345H128.116V49.5061H131.514V36.426L140.299 49.5061H143.563V30.1345H140.158Z" fill="#00BFFF"/>
<path d="M110.718 30.1345L108.285 32.568L108.203 32.6571V49.5061H111.601V44.0381H120.245V49.5061H123.65V32.6571L121.128 30.1345H110.718ZM111.601 34.0519L112.121 33.5399H119.718L120.23 34.0519V40.6327H111.586L111.601 34.0519Z" fill="#00BFFF"/>
<path d="M80.1883 5.56953L75.9891 12.5807L71.7972 5.56953H68.3324L74.2456 15.2442L68.3324 24.9262H71.7972L75.9891 17.9077L80.1883 24.9262H83.6457L77.7029 15.2442L83.6457 5.56953H80.1883Z" fill="white"/>
<path d="M88.8391 7.98819V24.9262H91.7549V16.038H100.94V13.1297H91.7549V9.18268L92.4523 8.47786H104.152V5.56953H91.2652L88.8391 7.98819Z" fill="white"/>
<path d="M124.659 8.47786V5.56953H109.353V8.47786H115.563V22.0105H109.353V24.9262H124.659V22.0105H118.479V8.47786H124.659Z" fill="white"/>
</svg>
