<svg width="147" height="55" viewBox="0 0 147 55" fill="none" xmlns="http://www.w3.org/2000/svg">
<path d="M27.5712 13.293L13.4747 27.3895L27.6231 41.5378L41.7196 27.4413L27.5712 13.293ZM27.5712 35.8918L19.0687 27.3895L27.5712 18.8944L36.0662 27.3895L27.5712 35.8918Z" fill="#00BFFF"/>
<path d="M45.5108 36.8341L49.5395 40.8627V49.3577H41.0445L37.0158 45.3291L34.2188 48.1261L39.4048 53.3121H53.4939V39.2231L48.3079 34.037L45.5108 36.8341Z" fill="#00BFFF"/>
<path d="M39.4048 1.47412L34.204 6.67499L37.001 9.47945L41.0445 5.42856H49.5395V13.9236L45.496 17.9744L48.293 20.7715L53.4939 15.5632V1.47412H39.4048Z" fill="#00BFFF"/>
<path d="M14.1053 49.3577H5.61032V40.8627L9.66121 36.8118L6.86417 34.0148L1.65588 39.2231V53.3121H15.745L20.9532 48.1039L18.1562 45.3142L14.1053 49.3577Z" fill="#00BFFF"/>
<path d="M6.87901 20.7937L9.67605 17.9967L5.61032 13.9236V5.42856H14.1053L18.1785 9.49429L20.9755 6.69725L15.745 1.47412H1.65588V15.5632L6.87901 20.7937Z" fill="#00BFFF"/>
<path d="M70.8919 30.1345L68.4659 32.568L68.3768 32.6571V38.6073L70.8919 41.1224H79.9063L80.4182 41.6343V45.5962L79.9063 46.1081H72.2942L71.7822 45.5962V43.4594H68.3768V46.991L70.8919 49.5061H81.3085L83.7346 47.0726L83.8236 46.991V40.2395L81.3085 37.7244H72.2942L71.7822 37.205V34.0519L72.2942 33.5399H79.9063L80.4182 34.0519V36.1886H83.8236V32.6571L81.3085 30.1345H70.8919Z" fill="#00BFFF"/>
<path d="M90.8125 30.1345L88.29 32.6571V46.991L90.8125 49.5061H101.214L103.737 46.991V42.6582H100.331V45.5962L99.8194 46.1081H92.2073L91.6954 45.5962V34.0519L92.2073 33.5399H99.8194L100.331 34.0519V36.9899H103.737V32.6571L101.214 30.1345H90.8125Z" fill="#00BFFF"/>
<path d="M140.158 30.1345V43.1627L131.47 30.2681L131.381 30.1345H128.116V49.5061H131.514V36.426L140.299 49.5061H143.563V30.1345H140.158Z" fill="#00BFFF"/>
<path d="M110.718 30.1345L108.285 32.568L108.203 32.6571V49.5061H111.601V44.0381H120.244V49.5061H123.65V32.6571L121.127 30.1345H110.718ZM111.601 34.0519L112.121 33.5399H119.718L120.23 34.0519V40.6327H111.586L111.601 34.0519Z" fill="#00BFFF"/>
<path d="M80.1882 5.56953L75.9889 12.5807L71.7971 5.56953H68.3323L74.2454 15.2442L68.3323 24.9262H71.7971L75.9889 17.9077L80.1882 24.9262H83.6456L77.7028 15.2442L83.6456 5.56953H80.1882Z" fill="#00040F"/>
<path d="M88.839 7.98819V24.9262H91.7548V16.038H100.94V13.1297H91.7548V9.18268L92.4522 8.47786H104.152V5.56953H91.2651L88.839 7.98819Z" fill="#00040F"/>
<path d="M124.659 8.47786V5.56953H109.353V8.47786H115.563V22.0105H109.353V24.9262H124.659V22.0105H118.479V8.47786H124.659Z" fill="#00040F"/>
</svg>
