<svg width="19" height="19" viewBox="0 0 19 19" fill="none" xmlns="http://www.w3.org/2000/svg">
<mask id="path-1-inside-1_496_28499" fill="white">
<path d="M13.6667 7.33333C13.6667 10.8311 10.8311 13.6667 7.33333 13.6667C3.83553 13.6667 1 10.8311 1 7.33333C1 3.83553 3.83553 1 7.33333 1C10.8311 1 13.6667 3.83553 13.6667 7.33333Z"/>
</mask>
<g filter="url(#filter0_i_496_28499)">
<path d="M13.6667 7.33333C13.6667 10.8311 10.8311 13.6667 7.33333 13.6667C3.83553 13.6667 1 10.8311 1 7.33333C1 3.83553 3.83553 1 7.33333 1C10.8311 1 13.6667 3.83553 13.6667 7.33333Z" fill="url(#paint0_linear_496_28499)"/>
</g>
<path d="M13.2709 7.33333C13.2709 10.6125 10.6125 13.2709 7.33333 13.2709V14.0625C11.0497 14.0625 14.0625 11.0497 14.0625 7.33333H13.2709ZM7.33333 13.2709C4.05412 13.2709 1.39579 10.6125 1.39579 7.33333H0.604215C0.604215 11.0497 3.61694 14.0625 7.33333 14.0625V13.2709ZM1.39579 7.33333C1.39579 4.05412 4.05412 1.39579 7.33333 1.39579V0.604215C3.61694 0.604215 0.604215 3.61694 0.604215 7.33333H1.39579ZM7.33333 1.39579C10.6125 1.39579 13.2709 4.05412 13.2709 7.33333H14.0625C14.0625 3.61694 11.0497 0.604215 7.33333 0.604215V1.39579Z" fill="url(#paint1_linear_496_28499)" mask="url(#path-1-inside-1_496_28499)"/>
<mask id="path-3-inside-2_496_28499" fill="white">
<path d="M17.416 11.708C17.416 14.8605 14.8605 17.416 11.708 17.416C8.55556 17.416 6 14.8605 6 11.708C6 8.55556 8.55556 6 11.708 6C14.8605 6 17.416 8.55556 17.416 11.708Z"/>
</mask>
<g filter="url(#filter1_i_496_28499)">
<path d="M17.416 11.708C17.416 14.8605 14.8605 17.416 11.708 17.416C8.55556 17.416 6 14.8605 6 11.708C6 8.55556 8.55556 6 11.708 6C14.8605 6 17.416 8.55556 17.416 11.708Z" fill="url(#paint2_linear_496_28499)"/>
</g>
<path d="M17.0989 11.708C17.0989 14.6853 14.6853 17.0989 11.708 17.0989V17.7331C15.0356 17.7331 17.7331 15.0356 17.7331 11.708H17.0989ZM11.708 17.0989C8.73068 17.0989 6.31707 14.6853 6.31707 11.708H5.68293C5.68293 15.0356 8.38045 17.7331 11.708 17.7331V17.0989ZM6.31707 11.708C6.31707 8.73068 8.73068 6.31707 11.708 6.31707V5.68293C8.38045 5.68293 5.68293 8.38045 5.68293 11.708H6.31707ZM11.708 6.31707C14.6853 6.31707 17.0989 8.73068 17.0989 11.708H17.7331C17.7331 8.38045 15.0356 5.68293 11.708 5.68293V6.31707Z" fill="url(#paint3_linear_496_28499)" mask="url(#path-3-inside-2_496_28499)"/>
<defs>
<filter id="filter0_i_496_28499" x="1" y="1" width="12.6665" height="15.8323" filterUnits="userSpaceOnUse" color-interpolation-filters="sRGB">
<feFlood flood-opacity="0" result="BackgroundImageFix"/>
<feBlend mode="normal" in="SourceGraphic" in2="BackgroundImageFix" result="shape"/>
<feColorMatrix in="SourceAlpha" type="matrix" values="0 0 0 0 0 0 0 0 0 0 0 0 0 0 0 0 0 0 127 0" result="hardAlpha"/>
<feOffset dy="3.16628"/>
<feGaussianBlur stdDeviation="1.58314"/>
<feComposite in2="hardAlpha" operator="arithmetic" k2="-1" k3="1"/>
<feColorMatrix type="matrix" values="0 0 0 0 0 0 0 0 0 0 0 0 0 0 0 0 0 0 0.2 0"/>
<feBlend mode="normal" in2="shape" result="effect1_innerShadow_496_28499"/>
</filter>
<filter id="filter1_i_496_28499" x="6" y="6" width="11.416" height="13.9526" filterUnits="userSpaceOnUse" color-interpolation-filters="sRGB">
<feFlood flood-opacity="0" result="BackgroundImageFix"/>
<feBlend mode="normal" in="SourceGraphic" in2="BackgroundImageFix" result="shape"/>
<feColorMatrix in="SourceAlpha" type="matrix" values="0 0 0 0 0 0 0 0 0 0 0 0 0 0 0 0 0 0 127 0" result="hardAlpha"/>
<feOffset dy="2.53659"/>
<feGaussianBlur stdDeviation="1.26829"/>
<feComposite in2="hardAlpha" operator="arithmetic" k2="-1" k3="1"/>
<feColorMatrix type="matrix" values="0 0 0 0 0 0 0 0 0 0 0 0 0 0 0 0 0 0 0.2 0"/>
<feBlend mode="normal" in2="shape" result="effect1_innerShadow_496_28499"/>
</filter>
<linearGradient id="paint0_linear_496_28499" x1="2.08961" y1="1" x2="15.0722" y2="5.28844" gradientUnits="userSpaceOnUse">
<stop stop-color="#07C61A"/>
<stop offset="1" stop-color="#3CA246"/>
</linearGradient>
<linearGradient id="paint1_linear_496_28499" x1="2.08961" y1="1" x2="15.0722" y2="5.28844" gradientUnits="userSpaceOnUse">
<stop stop-color="#008C0E"/>
<stop offset="1" stop-color="#49CC50"/>
</linearGradient>
<linearGradient id="paint2_linear_496_28499" x1="6.98202" y1="6" x2="18.6828" y2="9.86501" gradientUnits="userSpaceOnUse">
<stop stop-color="#07C61A"/>
<stop offset="1" stop-color="#3CA246"/>
</linearGradient>
<linearGradient id="paint3_linear_496_28499" x1="6.98202" y1="6" x2="18.6828" y2="9.86501" gradientUnits="userSpaceOnUse">
<stop stop-color="#008C0E"/>
<stop offset="1" stop-color="#49CC50"/>
</linearGradient>
</defs>
</svg>
