<svg width="32" height="32" viewBox="0 0 32 32" fill="none" xmlns="http://www.w3.org/2000/svg">
<g filter="url(#filter0_b_3154_1061)">
<ellipse cx="16.0005" cy="16" rx="16" ry="16" fill="url(#paint0_linear_3154_1061)" fill-opacity="0.1"/>
</g>
<path d="M32.0005 16C32.0005 24.8365 24.837 32 16.0005 32C7.16393 32 0.000488281 24.8365 0.000488281 16C0.000488281 7.16344 7.16393 0 16.0005 0C24.837 0 32.0005 7.16344 32.0005 16ZM0.94364 16C0.94364 24.3156 7.68482 31.0568 16.0005 31.0568C24.3162 31.0568 31.0573 24.3156 31.0573 16C31.0573 7.68432 24.3162 0.943151 16.0005 0.943151C7.68482 0.943151 0.94364 7.68432 0.94364 16Z" fill="url(#paint1_linear_3154_1061)"/>
<g filter="url(#filter1_d_3154_1061)">
<path fill-rule="evenodd" clip-rule="evenodd" d="M7.97597 7.60352H7.42585L7.42584 8.15363L7.42575 11.2637L7.42574 11.4916L7.58688 11.6528L11.9348 16.0007L7.58697 20.3485L7.42627 20.5092L7.42584 20.7365L7.41998 23.8466L7.41895 24.3978H7.97012H11.0861H11.314L11.4751 24.2367L15.8229 19.8888L20.1708 24.2367L20.3319 24.3978H20.5598H23.6699H24.2201V23.8477L24.2201 20.7375V20.5097L24.0589 20.3485L19.7111 16.0007L24.059 11.6528L24.2201 11.4916V11.2638V8.15365L24.2201 7.60352H23.67H20.5599H20.332L20.1709 7.76465L15.8229 12.1126L11.475 7.76465L11.3139 7.60352H11.086H7.97597ZM8.52602 11.0359L8.52609 8.70378H10.8581L15.0516 12.8973L12.66 15.1699L8.52602 11.0359ZM12.774 16.7176L8.52568 20.9658L8.52129 23.2975H10.8582L15.0466 19.1092L12.774 16.7176ZM16.5362 19.0461L20.7877 23.2975L23.1198 23.2975L23.1198 20.9654L18.9278 16.7735L16.5362 19.0461ZM18.9208 15.2349L23.1199 11.0359L23.1199 8.70378H20.7878L16.6482 12.8433L18.9208 15.2349ZM15.7616 18.2647L13.5022 15.887L15.8779 13.6295L18.1373 16.0073L15.7616 18.2647Z" fill="url(#paint2_linear_3154_1061)"/>
</g>
<defs>
<filter id="filter0_b_3154_1061" x="-2.5668" y="-2.56729" width="37.1346" height="37.1346" filterUnits="userSpaceOnUse" color-interpolation-filters="sRGB">
<feFlood flood-opacity="0" result="BackgroundImageFix"/>
<feGaussianBlur in="BackgroundImageFix" stdDeviation="1.28364"/>
<feComposite in2="SourceAlpha" operator="in" result="effect1_backgroundBlur_3154_1061"/>
<feBlend mode="normal" in="SourceGraphic" in2="effect1_backgroundBlur_3154_1061" result="shape"/>
</filter>
<filter id="filter1_d_3154_1061" x="7.09414" y="7.60352" width="17.4509" height="17.4435" filterUnits="userSpaceOnUse" color-interpolation-filters="sRGB">
<feFlood flood-opacity="0" result="BackgroundImageFix"/>
<feColorMatrix in="SourceAlpha" type="matrix" values="0 0 0 0 0 0 0 0 0 0 0 0 0 0 0 0 0 0 127 0" result="hardAlpha"/>
<feOffset dy="0.324802"/>
<feGaussianBlur stdDeviation="0.162401"/>
<feComposite in2="hardAlpha" operator="out"/>
<feColorMatrix type="matrix" values="0 0 0 0 0 0 0 0 0 0 0 0 0 0 0 0 0 0 0.25 0"/>
<feBlend mode="normal" in2="BackgroundImageFix" result="effect1_dropShadow_3154_1061"/>
<feBlend mode="normal" in="SourceGraphic" in2="effect1_dropShadow_3154_1061" result="shape"/>
</filter>
<linearGradient id="paint0_linear_3154_1061" x1="16.0005" y1="0" x2="16.0005" y2="32" gradientUnits="userSpaceOnUse">
<stop stop-color="#005271"/>
<stop offset="1" stop-color="#004471"/>
</linearGradient>
<linearGradient id="paint1_linear_3154_1061" x1="16.0005" y1="0" x2="16.0005" y2="32" gradientUnits="userSpaceOnUse">
<stop stop-color="#38BDEE"/>
<stop offset="1" stop-color="#004471"/>
</linearGradient>
<linearGradient id="paint2_linear_3154_1061" x1="7.41895" y1="7.60352" x2="24.2201" y2="24.3978" gradientUnits="userSpaceOnUse">
<stop stop-color="#67D7FF"/>
<stop offset="1" stop-color="#00BBFF"/>
</linearGradient>
</defs>
</svg>
