<svg width="32" height="32" viewBox="0 0 32 32" fill="none"
  xmlns="http://www.w3.org/2000/svg">
  <g filter="url(#filter0_bi_9968_4009)">
    <mask id="path-1-inside-1_9968_4009" fill="white">
      <path fill-rule="evenodd" clip-rule="evenodd" d="M16 29C23.1797 29 29 23.1797 29 16C29 8.8203 23.1797 3 16 3C8.8203 3 3 8.8203 3 16C3 23.1797 8.8203 29 16 29ZM8.77789 23.2223V8.77789H12.6967L16.0084 12.0346L19.3219 8.77789H23.2387V23.2223H19.3213L16.0084 19.9551L12.6972 23.2223H8.77789ZM12.2419 9.88902H9.88902V22.1112H12.2413L15.2284 19.1637L12.065 16.0002L15.2339 12.8313L12.2419 9.88902ZM19.7771 22.1112L16.7884 19.1638L19.952 16.0002L16.783 12.8312L19.7765 9.88902H22.1276V22.1112H19.7771ZM13.6364 16.0002L16.0085 18.3723L18.3806 16.0002L16.0085 13.6281L13.6364 16.0002Z"/>
    </mask>
    <path fill-rule="evenodd" clip-rule="evenodd" d="M16 29C23.1797 29 29 23.1797 29 16C29 8.8203 23.1797 3 16 3C8.8203 3 3 8.8203 3 16C3 23.1797 8.8203 29 16 29ZM8.77789 23.2223V8.77789H12.6967L16.0084 12.0346L19.3219 8.77789H23.2387V23.2223H19.3213L16.0084 19.9551L12.6972 23.2223H8.77789ZM12.2419 9.88902H9.88902V22.1112H12.2413L15.2284 19.1637L12.065 16.0002L15.2339 12.8313L12.2419 9.88902ZM19.7771 22.1112L16.7884 19.1638L19.952 16.0002L16.783 12.8312L19.7765 9.88902H22.1276V22.1112H19.7771ZM13.6364 16.0002L16.0085 18.3723L18.3806 16.0002L16.0085 13.6281L13.6364 16.0002Z" fill="black" fill-opacity="0.1"/>
    <path fill-rule="evenodd" clip-rule="evenodd" d="M16 29C23.1797 29 29 23.1797 29 16C29 8.8203 23.1797 3 16 3C8.8203 3 3 8.8203 3 16C3 23.1797 8.8203 29 16 29ZM8.77789 23.2223V8.77789H12.6967L16.0084 12.0346L19.3219 8.77789H23.2387V23.2223H19.3213L16.0084 19.9551L12.6972 23.2223H8.77789ZM12.2419 9.88902H9.88902V22.1112H12.2413L15.2284 19.1637L12.065 16.0002L15.2339 12.8313L12.2419 9.88902ZM19.7771 22.1112L16.7884 19.1638L19.952 16.0002L16.783 12.8312L19.7765 9.88902H22.1276V22.1112H19.7771ZM13.6364 16.0002L16.0085 18.3723L18.3806 16.0002L16.0085 13.6281L13.6364 16.0002Z" fill="url(#paint0_linear_9968_4009)" fill-opacity="0.5"/>
    <path d="M8.77789 8.77789V8.05567H8.05567V8.77789H8.77789ZM8.77789 23.2223H8.05567V23.9446H8.77789V23.2223ZM12.6967 8.77789L13.2031 8.26294L12.9923 8.05567H12.6967V8.77789ZM16.0084 12.0346L15.502 12.5495L16.0083 13.0474L16.5147 12.5496L16.0084 12.0346ZM19.3219 8.77789V8.05567H19.0264L18.8156 8.26281L19.3219 8.77789ZM23.2387 8.77789H23.9609V8.05567H23.2387V8.77789ZM23.2387 23.2223V23.9446H23.9609V23.2223H23.2387ZM19.3213 23.2223L18.8142 23.7366L19.0251 23.9446H19.3213V23.2223ZM16.0084 19.9551L16.5155 19.4409L16.0083 18.9406L15.5011 19.441L16.0084 19.9551ZM12.6972 23.2223V23.9446H12.9936L13.2045 23.7364L12.6972 23.2223ZM9.88902 9.88902V9.1668H9.1668V9.88902H9.88902ZM12.2419 9.88902L12.7483 9.37407L12.5375 9.1668H12.2419V9.88902ZM9.88902 22.1112H9.1668V22.8334H9.88902V22.1112ZM12.2413 22.1112V22.8334H12.5377L12.7486 22.6253L12.2413 22.1112ZM15.2284 19.1637L15.7357 19.6778L16.2532 19.1671L15.7391 18.653L15.2284 19.1637ZM12.065 16.0002L11.5543 15.4895L11.0436 16.0002L11.5543 16.5109L12.065 16.0002ZM15.2339 12.8313L15.7446 13.342L16.2596 12.827L15.7403 12.3164L15.2339 12.8313ZM16.7884 19.1638L16.2777 18.6531L15.7635 19.1673L16.2813 19.678L16.7884 19.1638ZM19.7771 22.1112L19.2699 22.6254L19.4808 22.8334H19.7771V22.1112ZM19.952 16.0002L20.4627 16.5109L20.9734 16.0002L20.4627 15.4895L19.952 16.0002ZM16.783 12.8312L16.2767 12.3161L15.7572 12.8268L16.2723 13.3419L16.783 12.8312ZM19.7765 9.88902V9.1668H19.481L19.2703 9.37393L19.7765 9.88902ZM22.1276 9.88902H22.8498V9.1668H22.1276V9.88902ZM22.1276 22.1112V22.8334H22.8498V22.1112H22.1276ZM16.0085 18.3723L15.4978 18.883L16.0085 19.3937L16.5192 18.883L16.0085 18.3723ZM13.6364 16.0002L13.1257 15.4895L12.615 16.0002L13.1257 16.5109L13.6364 16.0002ZM18.3806 16.0002L18.8913 16.5109L19.402 16.0002L18.8913 15.4895L18.3806 16.0002ZM16.0085 13.6281L16.5192 13.1174L16.0085 12.6067L15.4978 13.1174L16.0085 13.6281ZM28.2778 16C28.2778 22.7808 22.7808 28.2778 16 28.2778V29.7222C23.5786 29.7222 29.7222 23.5786 29.7222 16H28.2778ZM16 3.72222C22.7808 3.72222 28.2778 9.21917 28.2778 16H29.7222C29.7222 8.42143 23.5786 2.27778 16 2.27778V3.72222ZM3.72222 16C3.72222 9.21917 9.21917 3.72222 16 3.72222V2.27778C8.42143 2.27778 2.27778 8.42143 2.27778 16H3.72222ZM16 28.2778C9.21917 28.2778 3.72222 22.7808 3.72222 16H2.27778C2.27778 23.5786 8.42143 29.7222 16 29.7222V28.2778ZM8.05567 8.77789V23.2223H9.50011V8.77789H8.05567ZM12.6967 8.05567H8.77789V9.50011H12.6967V8.05567ZM16.5148 11.5196L13.2031 8.26294L12.1903 9.29284L15.502 12.5495L16.5148 11.5196ZM18.8156 8.26281L15.5021 11.5195L16.5147 12.5496L19.8281 9.29297L18.8156 8.26281ZM23.2387 8.05567H19.3219V9.50011H23.2387V8.05567ZM23.9609 23.2223V8.77789H22.5165V23.2223H23.9609ZM19.3213 23.9446H23.2387V22.5001H19.3213V23.9446ZM15.5013 20.4693L18.8142 23.7366L19.8285 22.7081L16.5155 19.4409L15.5013 20.4693ZM13.2045 23.7364L16.5157 20.4692L15.5011 19.441L12.19 22.7082L13.2045 23.7364ZM8.77789 23.9446H12.6972V22.5001H8.77789V23.9446ZM9.88902 10.6112H12.2419V9.1668H9.88902V10.6112ZM10.6112 22.1112V9.88902H9.1668V22.1112H10.6112ZM12.2413 21.389H9.88902V22.8334H12.2413V21.389ZM14.7212 18.6496L11.734 21.5971L12.7486 22.6253L15.7357 19.6778L14.7212 18.6496ZM11.5543 16.5109L14.7178 19.6744L15.7391 18.653L12.5757 15.4895L11.5543 16.5109ZM14.7232 12.3206L11.5543 15.4895L12.5757 16.5109L15.7446 13.342L14.7232 12.3206ZM11.7355 10.404L14.7275 13.3463L15.7403 12.3164L12.7483 9.37407L11.7355 10.404ZM16.2813 19.678L19.2699 22.6254L20.2842 21.597L17.2956 18.6496L16.2813 19.678ZM19.4413 15.4895L16.2777 18.6531L17.2991 19.6745L20.4627 16.5109L19.4413 15.4895ZM16.2723 13.3419L19.4413 16.5109L20.4627 15.4895L17.2937 12.3205L16.2723 13.3419ZM19.2703 9.37393L16.2767 12.3161L17.2892 13.3463L20.2828 10.4041L19.2703 9.37393ZM22.1276 9.1668H19.7765V10.6112H22.1276V9.1668ZM22.8498 22.1112V9.88902H21.4053V22.1112H22.8498ZM19.7771 22.8334H22.1276V21.389H19.7771V22.8334ZM16.5192 17.8617L14.147 15.4895L13.1257 16.5109L15.4978 18.883L16.5192 17.8617ZM17.8699 15.4895L15.4978 17.8617L16.5192 18.883L18.8913 16.5109L17.8699 15.4895ZM15.4978 14.1388L17.8699 16.5109L18.8913 15.4895L16.5192 13.1174L15.4978 14.1388ZM14.147 16.5109L16.5192 14.1388L15.4978 13.1174L13.1257 15.4895L14.147 16.5109Z" fill="url(#paint1_linear_9968_4009)" fill-opacity="0.1" mask="url(#path-1-inside-1_9968_4009)"/>
  </g>
  <defs>
    <filter id="filter0_bi_9968_4009" x="-6.56322" y="-6.56322" width="45.1264" height="45.1264" filterUnits="userSpaceOnUse" color-interpolation-filters="sRGB">
      <feFlood flood-opacity="0" result="BackgroundImageFix"/>
      <feGaussianBlur in="BackgroundImageFix" stdDeviation="4.78161"/>
      <feComposite in2="SourceAlpha" operator="in" result="effect1_backgroundBlur_9968_4009"/>
      <feBlend mode="normal" in="SourceGraphic" in2="effect1_backgroundBlur_9968_4009" result="shape"/>
      <feColorMatrix in="SourceAlpha" type="matrix" values="0 0 0 0 0 0 0 0 0 0 0 0 0 0 0 0 0 0 127 0" result="hardAlpha"/>
      <feOffset dy="3.18774"/>
      <feGaussianBlur stdDeviation="2.3908"/>
      <feComposite in2="hardAlpha" operator="arithmetic" k2="-1" k3="1"/>
      <feColorMatrix type="matrix" values="0 0 0 0 1 0 0 0 0 1 0 0 0 0 1 0 0 0 0.4 0"/>
      <feBlend mode="normal" in2="shape" result="effect2_innerShadow_9968_4009"/>
    </filter>
    <linearGradient id="paint0_linear_9968_4009" x1="28.8364" y1="24.7092" x2="22.6029" y2="18.6416" gradientUnits="userSpaceOnUse">
      <stop stop-color="#FAC405" stop-opacity="0.29"/>
      <stop offset="1" stop-color="#FAC405"/>
    </linearGradient>
    <linearGradient id="paint1_linear_9968_4009" x1="28.8364" y1="24.7092" x2="22.6029" y2="18.6416" gradientUnits="userSpaceOnUse">
      <stop stop-color="#FAC405"/>
      <stop offset="1" stop-color="#FAC405"/>
    </linearGradient>
  </defs>
</svg>
