<svg width="275" height="68" viewBox="0 0 275 68" fill="none" xmlns="http://www.w3.org/2000/svg">
<path d="M83.5754 26.9986V10.2202L69.1715 1.93679L69.015 1.84472L42.6739 16.8745L16.5445 1.90915L16.3881 1.81714L2.11305 10.1005L1.95654 10.1925V26.9986L13.6085 33.7633L2.11305 40.436L1.95654 40.5281V57.1501L16.2223 65.6175L16.3881 65.7095L28.5738 58.6963L42.6923 50.7442L56.8017 58.6963L68.8586 65.6175L69.0242 65.7095L83.4281 57.2513L83.5754 57.1593V40.5189L71.8683 33.7542L83.4189 27.0814L83.5754 26.9986ZM58.7253 26.1702L80.7131 13.5243V25.3419L69.0058 32.0974L58.7253 26.1702ZM55.8629 24.5228L45.5272 18.5311L68.9967 5.11204L79.2772 11.0577L55.8629 24.5228ZM55.8629 27.8177L79.2956 41.3472L69.0611 47.2468L45.5915 33.6069L55.8629 27.8177ZM52.9914 26.1611L42.6739 31.987L32.4026 26.1611L42.6739 20.1694L52.9914 26.1611ZM4.81889 25.3511V13.5243L26.6778 26.1611L16.4617 32.0974L4.81889 25.3511ZM6.23631 11.0485L16.3604 5.12125L39.7656 18.5311L29.485 24.5228L6.23631 11.0485ZM39.8023 33.6529L16.3973 47.2468L6.27316 41.3196L29.5862 27.7809L39.8023 33.6529ZM14.9522 49.7594V61.5494L4.82811 55.521V43.8322L14.9522 49.7594ZM41.229 36.1195V48.0843L17.8146 61.5586V49.7502L41.229 36.1195ZM67.5701 49.7594V61.5863L44.0913 48.112V36.1471L67.5701 49.7594ZM80.7131 43.8322V55.5302L70.4324 61.5678V49.7594L80.7131 43.8322Z" fill="#0CC2FF"/>
<path d="M104.67 6.21652L101.67 9.21694V27.2011L104.67 30.1923H117.638L120.639 27.2011V22.1942H117.031V25.7193L116.166 26.5936H106.152L105.278 25.7193V10.6987L106.152 9.82438H116.166L117.031 10.6987V14.2238H120.639V9.21694L117.638 6.21652H104.67Z" fill="white"/>
<path d="M127.045 6.2165V30.1922H130.653V22.1942H132.926L140.924 30.1922H146.014L138.006 22.1942H143.013L146.014 19.1938V9.21693L143.013 6.2165H127.045ZM142.406 17.712L141.485 18.6323H130.726V9.87042H141.605L142.525 10.7448L142.406 17.712Z" fill="white"/>
<path d="M155.466 6.2165L152.475 9.21693V27.201L155.466 30.1922H168.443L171.444 27.201V9.21693L168.443 6.2165H155.466ZM167.836 25.7192L166.915 26.5936H156.902L155.981 25.7192V10.6987L156.902 9.82441H166.915L167.836 10.6987V25.7192Z" fill="white"/>
<path d="M180.868 6.21652L177.877 9.21694V16.4971L180.868 19.4975H192.364L193.238 20.3719V25.7193L192.364 26.5936H182.35L181.476 25.7193V23.2158H177.877V27.2011L180.868 30.1923H193.845L196.837 27.2011V18.8901L193.845 15.8897H182.35L181.476 15.0245V10.6987L182.35 9.82438H192.364L193.238 10.6987V13.2022H196.837V9.21694L193.845 6.21652H180.868Z" fill="white"/>
<path d="M206.271 6.21652L203.279 9.21694V16.4971L206.271 19.4975H217.766L218.64 20.3719V25.7193L217.766 26.5936H207.752L206.878 25.7193V23.2158H203.279V27.2011L206.271 30.1923H219.248L222.239 27.2011V18.8901L219.248 15.8897H207.752L206.878 15.0245V10.6987L207.752 9.82438H217.766L218.64 10.6987V13.2022H222.239V9.21694L219.248 6.21652H206.271Z" fill="white"/>
<path d="M228.672 9.21694V30.1923H232.28V19.1938H243.656V15.5859H232.28V10.6987L233.155 9.82438H247.641V6.21652H231.673L228.672 9.21694Z" fill="white"/>
<path d="M273.044 9.82438V6.21652H254.075V9.82438H261.778V26.5936H254.075V30.1923H273.044V26.5936H265.377V9.82438H273.044Z" fill="white"/>
<path d="M184.596 37.049H171.333L168.075 40.3164V61.7887H172.677V53.8735H184.642L187.753 50.7534L187.909 50.6062V40.3164L184.596 37.049ZM183.28 42.194V48.7286L182.718 49.29H172.649V42.194L173.22 41.6233H182.718L183.28 42.194Z" fill="#0CC2FF"/>
<path d="M148.821 37.049L145.563 40.3164V61.7887H150.164V53.8735H162.129L165.388 50.6062V40.3164L162.129 37.049H148.821ZM160.786 42.194V48.7286L160.215 49.29H150.155V42.194L150.726 41.6233H160.178L160.786 42.194Z" fill="#0CC2FF"/>
<path d="M126.308 37.049L123.05 40.3164V61.7887H127.652V54.8859H138.282V61.7887H142.884V40.3164L139.626 37.049H126.308ZM138.273 42.194V50.3117H127.643V42.194L128.204 41.6233H137.703L138.273 42.194Z" fill="#0CC2FF"/>
<path d="M114.325 49.0876L110.027 53.3121L105.793 49.1612L105.72 49.0876H101.357L107.827 55.3185L101.357 61.5402H105.72L110.027 57.3157L114.251 61.4758L114.325 61.5402H118.688L112.19 55.3185L118.688 49.0876H114.325Z" fill="#0CC2FF"/>
</svg>
