<svg width="273" height="65" viewBox="0 0 273 65" fill="none" xmlns="http://www.w3.org/2000/svg">
<path d="M82.5754 25.9986V9.22016L68.1715 0.936792L68.015 0.844721L41.6739 15.8745L15.5445 0.909154L15.3881 0.817139L1.11305 9.10051L0.956543 9.19253V25.9986L12.6085 32.7633L1.11305 39.436L0.956543 39.5281V56.1501L15.2223 64.6175L15.3881 64.7095L27.5738 57.6963L41.6923 49.7442L55.8017 57.6963L67.8586 64.6175L68.0242 64.7095L82.4281 56.2513L82.5754 56.1593V39.5189L70.8683 32.7542L82.4189 26.0814L82.5754 25.9986ZM57.7253 25.1702L79.7131 12.5243V24.3419L68.0058 31.0974L57.7253 25.1702ZM54.8629 23.5228L44.5272 17.5311L67.9967 4.11204L78.2772 10.0577L54.8629 23.5228ZM54.8629 26.8177L78.2956 40.3472L68.0611 46.2468L44.5915 32.6069L54.8629 26.8177ZM51.9914 25.1611L41.6739 30.987L31.4026 25.1611L41.6739 19.1694L51.9914 25.1611ZM3.81889 24.3511V12.5243L25.6778 25.1611L15.4617 31.0974L3.81889 24.3511ZM5.23631 10.0485L15.3604 4.12125L38.7656 17.5311L28.485 23.5228L5.23631 10.0485ZM38.8023 32.6529L15.3973 46.2468L5.27316 40.3196L28.5862 26.7809L38.8023 32.6529ZM13.9522 48.7594V60.5494L3.82811 54.521V42.8322L13.9522 48.7594ZM40.229 35.1195V47.0843L16.8146 60.5586V48.7502L40.229 35.1195ZM66.5701 48.7594V60.5863L43.0913 47.112V35.1471L66.5701 48.7594ZM79.7131 42.8322V54.5302L69.4324 60.5678V48.7594L79.7131 42.8322Z" fill="#0CC2FF"/>
<path d="M103.67 5.21652L100.67 8.21694V26.2011L103.67 29.1923H116.638L119.639 26.2011V21.1942H116.031V24.7193L115.166 25.5936H105.152L104.278 24.7193V9.69874L105.152 8.82438H115.166L116.031 9.69874V13.2238H119.639V8.21694L116.638 5.21652H103.67Z" fill="#00040F"/>
<path d="M126.045 5.2165V29.1922H129.653V21.1942H131.926L139.924 29.1922H145.014L137.006 21.1942H142.013L145.014 18.1938V8.21693L142.013 5.2165H126.045ZM141.406 16.712L140.485 17.6323H129.726V8.87042H140.605L141.525 9.74478L141.406 16.712Z" fill="#00040F"/>
<path d="M154.466 5.2165L151.475 8.21693V26.201L154.466 29.1922H167.443L170.444 26.201V8.21693L167.443 5.2165H154.466ZM166.836 24.7192L165.915 25.5936H155.902L154.981 24.7192V9.69872L155.902 8.82441H165.915L166.836 9.69872V24.7192Z" fill="#00040F"/>
<path d="M179.868 5.21652L176.877 8.21694V15.4971L179.868 18.4975H191.364L192.238 19.3719V24.7193L191.364 25.5936H181.35L180.476 24.7193V22.2158H176.877V26.2011L179.868 29.1923H192.845L195.837 26.2011V17.8901L192.845 14.8897H181.35L180.476 14.0245V9.69874L181.35 8.82438H191.364L192.238 9.69874V12.2022H195.837V8.21694L192.845 5.21652H179.868Z" fill="#00040F"/>
<path d="M205.271 5.21652L202.279 8.21694V15.4971L205.271 18.4975H216.766L217.64 19.3719V24.7193L216.766 25.5936H206.752L205.878 24.7193V22.2158H202.279V26.2011L205.271 29.1923H218.248L221.239 26.2011V17.8901L218.248 14.8897H206.752L205.878 14.0245V9.69874L206.752 8.82438H216.766L217.64 9.69874V12.2022H221.239V8.21694L218.248 5.21652H205.271Z" fill="#00040F"/>
<path d="M227.672 8.21694V29.1923H231.28V18.1938H242.656V14.5859H231.28V9.69874L232.155 8.82438H246.641V5.21652H230.673L227.672 8.21694Z" fill="#00040F"/>
<path d="M272.044 8.82438V5.21652H253.075V8.82438H260.778V25.5936H253.075V29.1923H272.044V25.5936H264.377V8.82438H272.044Z" fill="#00040F"/>
<path d="M183.596 36.049H170.333L167.075 39.3164V60.7887H171.677V52.8735H183.642L186.753 49.7534L186.909 49.6062V39.3164L183.596 36.049ZM182.28 41.194V47.7286L181.718 48.29H171.649V41.194L172.22 40.6233H181.718L182.28 41.194Z" fill="#0CC2FF"/>
<path d="M147.821 36.049L144.563 39.3164V60.7887H149.164V52.8735H161.129L164.388 49.6062V39.3164L161.129 36.049H147.821ZM159.786 41.194V47.7286L159.215 48.29H149.155V41.194L149.726 40.6233H159.178L159.786 41.194Z" fill="#0CC2FF"/>
<path d="M125.308 36.049L122.05 39.3164V60.7887H126.652V53.8859H137.282V60.7887H141.884V39.3164L138.626 36.049H125.308ZM137.273 41.194V49.3117H126.643V41.194L127.204 40.6233H136.703L137.273 41.194Z" fill="#0CC2FF"/>
<path d="M113.325 48.0876L109.027 52.3121L104.793 48.1612L104.72 48.0876H100.357L106.827 54.3185L100.357 60.5402H104.72L109.027 56.3157L113.251 60.4758L113.325 60.5402H117.688L111.19 54.3185L117.688 48.0876H113.325Z" fill="#0CC2FF"/>
</svg>
