<svg width="20" height="20" viewBox="0 0 20 20" fill="none" xmlns="http://www.w3.org/2000/svg">
<path d="M2.48539 10.5224L2.48614 10.5237C4.0043 13.25 6.88323 14.9437 10.0008 14.9437C13.1163 14.9437 15.995 13.2502 17.5132 10.5245C17.7015 10.1889 17.7018 9.81202 17.5136 9.47631C15.9955 6.75016 13.1166 5.05659 10.0008 5.05659C6.88325 5.05659 4.00431 6.75011 2.48614 9.47631L2.48547 9.47753C2.30034 9.81241 2.30043 10.1875 2.48539 10.5224ZM17.6539 9.39771L17.6541 9.39808C17.8693 9.78382 17.8692 10.2163 17.6542 10.6015L17.6539 10.602C16.1075 13.3795 13.1747 15.1049 10.0008 15.1049C6.82499 15.1049 3.89227 13.3795 2.34588 10.602L2.34561 10.6015C2.13051 10.2163 2.13043 9.78381 2.34568 9.39808L2.34588 9.39771C3.89225 6.62026 6.82495 4.8952 10.0008 4.8952C13.1748 4.8952 16.1075 6.62021 17.6539 9.39771ZM10.0008 12.6068C11.4382 12.6068 12.6071 11.4378 12.6071 9.99995C12.6071 8.56213 11.4382 7.39313 10.0008 7.39313C8.56177 7.39313 7.39266 8.56187 7.39266 9.99995C7.39266 11.438 8.56181 12.6068 10.0008 12.6068ZM7.23127 9.99998C7.23127 8.47416 8.47297 7.23174 10.0008 7.23174C11.5266 7.23174 12.7685 8.47399 12.7685 9.99998C12.7685 11.5263 11.5267 12.768 10.0008 12.768C8.47293 12.768 7.23127 11.5261 7.23127 9.99998Z" fill="#EEEEEE" stroke="#EEEEEE" stroke-width="0.891968"/>
<path d="M17.0234 2.10742L2.56201 17.4124" stroke="#EEEEEE" stroke-width="1.06" stroke-linecap="round"/>
</svg>
