<svg width="32" height="32" viewBox="0 0 32 32" fill="none" xmlns="http://www.w3.org/2000/svg">
<g filter="url(#filter0_bi_7710_3063)">
<mask id="path-1-inside-1_7710_3063" fill="white">
<path fill-rule="evenodd" clip-rule="evenodd" d="M17.0001 2.57752C16.3813 2.22025 15.6189 2.22025 15.0001 2.57752L4.87573 8.42282C4.25693 8.78008 3.87573 9.44034 3.87573 10.1549V21.8455C3.87573 22.56 4.25693 23.2203 4.87573 23.5775L15.0001 29.4228C15.6189 29.7801 16.3813 29.7801 17.0001 29.4228L27.1244 23.5775C27.7432 23.2203 28.1244 22.56 28.1244 21.8455V10.1549C28.1244 9.44034 27.7432 8.78008 27.1244 8.42282L17.0001 2.57752ZM19.8056 13.595H22.1234V19.4465H23.724V13.595H26.0001V12.1711H19.8056V13.595ZM14.3147 12.1711H19.4595V13.5846H15.9153V14.9981H19.0957V16.3493H15.9153V19.4465H14.3043L14.3147 12.1711ZM10.4134 15.2995L8.41782 12.1711H6.67172L6.68211 19.4465H8.20995L8.18917 14.3953L9.45717 16.4844L11.4007 19.4465H13.1365V12.1711H11.6086L11.5982 17.2951L10.4134 15.2995Z"/>
</mask>
<path fill-rule="evenodd" clip-rule="evenodd" d="M17.0001 2.57752C16.3813 2.22025 15.6189 2.22025 15.0001 2.57752L4.87573 8.42282C4.25693 8.78008 3.87573 9.44034 3.87573 10.1549V21.8455C3.87573 22.56 4.25693 23.2203 4.87573 23.5775L15.0001 29.4228C15.6189 29.7801 16.3813 29.7801 17.0001 29.4228L27.1244 23.5775C27.7432 23.2203 28.1244 22.56 28.1244 21.8455V10.1549C28.1244 9.44034 27.7432 8.78008 27.1244 8.42282L17.0001 2.57752ZM19.8056 13.595H22.1234V19.4465H23.724V13.595H26.0001V12.1711H19.8056V13.595ZM14.3147 12.1711H19.4595V13.5846H15.9153V14.9981H19.0957V16.3493H15.9153V19.4465H14.3043L14.3147 12.1711ZM10.4134 15.2995L8.41782 12.1711H6.67172L6.68211 19.4465H8.20995L8.18917 14.3953L9.45717 16.4844L11.4007 19.4465H13.1365V12.1711H11.6086L11.5982 17.2951L10.4134 15.2995Z" fill="black" fill-opacity="0.1"/>
<path fill-rule="evenodd" clip-rule="evenodd" d="M17.0001 2.57752C16.3813 2.22025 15.6189 2.22025 15.0001 2.57752L4.87573 8.42282C4.25693 8.78008 3.87573 9.44034 3.87573 10.1549V21.8455C3.87573 22.56 4.25693 23.2203 4.87573 23.5775L15.0001 29.4228C15.6189 29.7801 16.3813 29.7801 17.0001 29.4228L27.1244 23.5775C27.7432 23.2203 28.1244 22.56 28.1244 21.8455V10.1549C28.1244 9.44034 27.7432 8.78008 27.1244 8.42282L17.0001 2.57752ZM19.8056 13.595H22.1234V19.4465H23.724V13.595H26.0001V12.1711H19.8056V13.595ZM14.3147 12.1711H19.4595V13.5846H15.9153V14.9981H19.0957V16.3493H15.9153V19.4465H14.3043L14.3147 12.1711ZM10.4134 15.2995L8.41782 12.1711H6.67172L6.68211 19.4465H8.20995L8.18917 14.3953L9.45717 16.4844L11.4007 19.4465H13.1365V12.1711H11.6086L11.5982 17.2951L10.4134 15.2995Z" fill="url(#paint0_linear_7710_3063)" fill-opacity="0.5"/>
<path d="M15.0001 2.57752L15.2501 3.01053L15.0001 2.57752ZM17.0001 2.57752L16.7501 3.01053L17.0001 2.57752ZM4.87573 8.42282L5.12573 8.85583L4.87573 8.42282ZM4.87573 23.5775L4.62573 24.0105H4.62573L4.87573 23.5775ZM15.0001 29.4228L14.7501 29.8558L15.0001 29.4228ZM17.0001 29.4228L17.2501 29.8558L17.0001 29.4228ZM27.1244 23.5775L26.8744 23.1445L27.1244 23.5775ZM27.1244 8.42282L26.8744 8.85583V8.85583L27.1244 8.42282ZM22.1234 13.595H22.6234V13.095H22.1234V13.595ZM19.8056 13.595H19.3056V14.095H19.8056V13.595ZM22.1234 19.4465H21.6234V19.9465H22.1234V19.4465ZM23.724 19.4465V19.9465H24.224V19.4465H23.724ZM23.724 13.595V13.095H23.224V13.595H23.724ZM26.0001 13.595V14.095H26.5001V13.595H26.0001ZM26.0001 12.1711H26.5001V11.6711H26.0001V12.1711ZM19.8056 12.1711V11.6711H19.3056V12.1711H19.8056ZM19.4595 12.1711H19.9595V11.6711H19.4595V12.1711ZM14.3147 12.1711V11.6711H13.8154L13.8147 12.1704L14.3147 12.1711ZM19.4595 13.5846V14.0846H19.9595V13.5846H19.4595ZM15.9153 13.5846V13.0846H15.4153V13.5846H15.9153ZM15.9153 14.9981H15.4153V15.4981H15.9153V14.9981ZM19.0957 14.9981H19.5957V14.4981H19.0957V14.9981ZM19.0957 16.3493V16.8493H19.5957V16.3493H19.0957ZM15.9153 16.3493V15.8493H15.4153V16.3493H15.9153ZM15.9153 19.4465V19.9465H16.4153V19.4465H15.9153ZM14.3043 19.4465L13.8043 19.4458L13.8036 19.9465H14.3043V19.4465ZM8.41782 12.1711L8.83936 11.9022L8.69195 11.6711H8.41782V12.1711ZM10.4134 15.2995L10.8433 15.0442L10.8392 15.0374L10.8349 15.0306L10.4134 15.2995ZM6.67172 12.1711V11.6711H6.171L6.17172 12.1718L6.67172 12.1711ZM6.68211 19.4465L6.18211 19.4472L6.18283 19.9465H6.68211V19.4465ZM8.20995 19.4465V19.9465H8.71201L8.70995 19.4444L8.20995 19.4465ZM8.18917 14.3953L8.61659 14.1358L7.68176 12.5957L7.68917 14.3973L8.18917 14.3953ZM9.45717 16.4844L9.02974 16.7438L9.0343 16.7513L9.03912 16.7587L9.45717 16.4844ZM11.4007 19.4465L10.9827 19.7208L11.1308 19.9465H11.4007V19.4465ZM13.1365 19.4465V19.9465H13.6365V19.4465H13.1365ZM13.1365 12.1711H13.6365V11.6711H13.1365V12.1711ZM11.6086 12.1711V11.6711H11.1096L11.1086 12.1701L11.6086 12.1711ZM11.5982 17.2951L11.1683 17.5503L12.0945 19.1103L12.0982 17.2961L11.5982 17.2951ZM15.2501 3.01053C15.7142 2.74258 16.286 2.74258 16.7501 3.01053L17.2501 2.14451C16.4766 1.69792 15.5236 1.69792 14.7501 2.14451L15.2501 3.01053ZM5.12573 8.85583L15.2501 3.01053L14.7501 2.14451L4.62573 7.98981L5.12573 8.85583ZM4.37573 10.1549C4.37573 9.61897 4.66163 9.12378 5.12573 8.85583L4.62573 7.98981C3.85223 8.43639 3.37573 9.26171 3.37573 10.1549H4.37573ZM4.37573 21.8455V10.1549H3.37573V21.8455H4.37573ZM5.12573 23.1445C4.66163 22.8766 4.37573 22.3814 4.37573 21.8455H3.37573C3.37573 22.7386 3.85223 23.5639 4.62573 24.0105L5.12573 23.1445ZM15.2501 28.9898L5.12573 23.1445L4.62573 24.0105L14.7501 29.8558L15.2501 28.9898ZM16.7501 28.9898C16.286 29.2578 15.7142 29.2578 15.2501 28.9898L14.7501 29.8558C15.5236 30.3024 16.4766 30.3024 17.2501 29.8558L16.7501 28.9898ZM26.8744 23.1445L16.7501 28.9898L17.2501 29.8558L27.3744 24.0105L26.8744 23.1445ZM27.6244 21.8455C27.6244 22.3814 27.3385 22.8766 26.8744 23.1445L27.3744 24.0105C28.1479 23.564 28.6244 22.7386 28.6244 21.8455H27.6244ZM27.6244 10.1549V21.8455H28.6244V10.1549H27.6244ZM26.8744 8.85583C27.3385 9.12378 27.6244 9.61897 27.6244 10.1549H28.6244C28.6244 9.26171 28.1479 8.43639 27.3744 7.98981L26.8744 8.85583ZM16.7501 3.01053L26.8744 8.85583L27.3744 7.98981L17.2501 2.14451L16.7501 3.01053ZM22.1234 13.095H19.8056V14.095H22.1234V13.095ZM22.6234 19.4465V13.595H21.6234V19.4465H22.6234ZM23.724 18.9465H22.1234V19.9465H23.724V18.9465ZM23.224 13.595V19.4465H24.224V13.595H23.224ZM26.0001 13.095H23.724V14.095H26.0001V13.095ZM25.5001 12.1711V13.595H26.5001V12.1711H25.5001ZM19.8056 12.6711H26.0001V11.6711H19.8056V12.6711ZM20.3056 13.595V12.1711H19.3056V13.595H20.3056ZM19.4595 11.6711H14.3147V12.6711H19.4595V11.6711ZM19.9595 13.5846V12.1711H18.9595V13.5846H19.9595ZM15.9153 14.0846H19.4595V13.0846H15.9153V14.0846ZM16.4153 14.9981V13.5846H15.4153V14.9981H16.4153ZM19.0957 14.4981H15.9153V15.4981H19.0957V14.4981ZM19.5957 16.3493V14.9981H18.5957V16.3493H19.5957ZM15.9153 16.8493H19.0957V15.8493H15.9153V16.8493ZM16.4153 19.4465V16.3493H15.4153V19.4465H16.4153ZM14.3043 19.9465H15.9153V18.9465H14.3043V19.9465ZM13.8147 12.1704L13.8043 19.4458L14.8043 19.4472L14.8147 12.1718L13.8147 12.1704ZM7.99628 12.44L9.99183 15.5684L10.8349 15.0306L8.83936 11.9022L7.99628 12.44ZM6.67172 12.6711H8.41782V11.6711H6.67172V12.6711ZM7.18211 19.4458L7.17172 12.1704L6.17172 12.1718L6.18211 19.4472L7.18211 19.4458ZM8.20995 18.9465H6.68211V19.9465H8.20995V18.9465ZM7.68917 14.3973L7.70996 19.4486L8.70995 19.4444L8.68916 14.3932L7.68917 14.3973ZM9.8846 16.2249L8.61659 14.1358L7.76174 14.6547L9.02974 16.7438L9.8846 16.2249ZM11.8188 19.1722L9.87521 16.2101L9.03912 16.7587L10.9827 19.7208L11.8188 19.1722ZM13.1365 18.9465H11.4007V19.9465H13.1365V18.9465ZM12.6365 12.1711V19.4465H13.6365V12.1711H12.6365ZM11.6086 12.6711H13.1365V11.6711H11.6086V12.6711ZM12.0982 17.2961L12.1086 12.1721L11.1086 12.1701L11.0982 17.294L12.0982 17.2961ZM9.98344 15.5548L11.1683 17.5503L12.0282 17.0398L10.8433 15.0442L9.98344 15.5548Z" fill="url(#paint1_linear_7710_3063)" fill-opacity="0.1" mask="url(#path-1-inside-1_7710_3063)"/>
</g>
<defs>
<filter id="filter0_bi_7710_3063" x="-2.74496" y="-4.31112" width="37.4902" height="40.6227" filterUnits="userSpaceOnUse" color-interpolation-filters="sRGB">
<feFlood flood-opacity="0" result="BackgroundImageFix"/>
<feGaussianBlur in="BackgroundImageFix" stdDeviation="3.31034"/>
<feComposite in2="SourceAlpha" operator="in" result="effect1_backgroundBlur_7710_3063"/>
<feBlend mode="normal" in="SourceGraphic" in2="effect1_backgroundBlur_7710_3063" result="shape"/>
<feColorMatrix in="SourceAlpha" type="matrix" values="0 0 0 0 0 0 0 0 0 0 0 0 0 0 0 0 0 0 127 0" result="hardAlpha"/>
<feOffset dy="2.2069"/>
<feGaussianBlur stdDeviation="1.65517"/>
<feComposite in2="hardAlpha" operator="arithmetic" k2="-1" k3="1"/>
<feColorMatrix type="matrix" values="0 0 0 0 1 0 0 0 0 1 0 0 0 0 1 0 0 0 0.4 0"/>
<feBlend mode="normal" in2="shape" result="effect2_innerShadow_7710_3063"/>
</filter>
<linearGradient id="paint0_linear_7710_3063" x1="27.9719" y1="25.1721" x2="21.4765" y2="19.5729" gradientUnits="userSpaceOnUse">
<stop stop-color="#0CC2FF" stop-opacity="0.29"/>
<stop offset="1" stop-color="#0CC2FF"/>
</linearGradient>
<linearGradient id="paint1_linear_7710_3063" x1="27.9719" y1="25.1721" x2="21.4765" y2="19.5729" gradientUnits="userSpaceOnUse">
<stop stop-color="#96E5FF"/>
<stop offset="1" stop-color="#0CC2FF"/>
</linearGradient>
</defs>
</svg>
