<svg width="32" height="32" viewBox="0 0 32 32" fill="none" xmlns="http://www.w3.org/2000/svg">
<g filter="url(#filter0_bi_6825_12762)">
<mask id="path-1-inside-1_6825_12762" fill="white">
<path fill-rule="evenodd" clip-rule="evenodd" d="M17.0003 2.57752C16.3815 2.22025 15.6191 2.22025 15.0003 2.57752L4.87598 8.42282C4.25717 8.78008 3.87598 9.44034 3.87598 10.1549V21.8455C3.87598 22.56 4.25717 23.2203 4.87598 23.5775L15.0003 29.4228C15.6191 29.7801 16.3815 29.7801 17.0003 29.4228L27.1247 23.5775C27.7435 23.2203 28.1247 22.56 28.1247 21.8455V10.1549C28.1247 9.44034 27.7435 8.78008 27.1247 8.42282L17.0003 2.57752ZM19.8059 13.595H22.1236V19.4465H23.7242V13.595H26.0004V12.1711H19.8059V13.595ZM14.315 12.1711H19.4597V13.5846H15.9156V14.9981H19.096V16.3493H15.9156V19.4465H14.3046L14.315 12.1711ZM10.4136 15.2995L8.41807 12.1711H6.67196L6.68236 19.4465H8.2102L8.18941 14.3953L9.45741 16.4844L11.401 19.4465H13.1367V12.1711H11.6089L11.5985 17.2951L10.4136 15.2995Z"/>
</mask>
<path fill-rule="evenodd" clip-rule="evenodd" d="M17.0003 2.57752C16.3815 2.22025 15.6191 2.22025 15.0003 2.57752L4.87598 8.42282C4.25717 8.78008 3.87598 9.44034 3.87598 10.1549V21.8455C3.87598 22.56 4.25717 23.2203 4.87598 23.5775L15.0003 29.4228C15.6191 29.7801 16.3815 29.7801 17.0003 29.4228L27.1247 23.5775C27.7435 23.2203 28.1247 22.56 28.1247 21.8455V10.1549C28.1247 9.44034 27.7435 8.78008 27.1247 8.42282L17.0003 2.57752ZM19.8059 13.595H22.1236V19.4465H23.7242V13.595H26.0004V12.1711H19.8059V13.595ZM14.315 12.1711H19.4597V13.5846H15.9156V14.9981H19.096V16.3493H15.9156V19.4465H14.3046L14.315 12.1711ZM10.4136 15.2995L8.41807 12.1711H6.67196L6.68236 19.4465H8.2102L8.18941 14.3953L9.45741 16.4844L11.401 19.4465H13.1367V12.1711H11.6089L11.5985 17.2951L10.4136 15.2995Z" fill="black" fill-opacity="0.1"/>
<path fill-rule="evenodd" clip-rule="evenodd" d="M17.0003 2.57752C16.3815 2.22025 15.6191 2.22025 15.0003 2.57752L4.87598 8.42282C4.25717 8.78008 3.87598 9.44034 3.87598 10.1549V21.8455C3.87598 22.56 4.25717 23.2203 4.87598 23.5775L15.0003 29.4228C15.6191 29.7801 16.3815 29.7801 17.0003 29.4228L27.1247 23.5775C27.7435 23.2203 28.1247 22.56 28.1247 21.8455V10.1549C28.1247 9.44034 27.7435 8.78008 27.1247 8.42282L17.0003 2.57752ZM19.8059 13.595H22.1236V19.4465H23.7242V13.595H26.0004V12.1711H19.8059V13.595ZM14.315 12.1711H19.4597V13.5846H15.9156V14.9981H19.096V16.3493H15.9156V19.4465H14.3046L14.315 12.1711ZM10.4136 15.2995L8.41807 12.1711H6.67196L6.68236 19.4465H8.2102L8.18941 14.3953L9.45741 16.4844L11.401 19.4465H13.1367V12.1711H11.6089L11.5985 17.2951L10.4136 15.2995Z" fill="url(#paint0_linear_6825_12762)"/>
<path d="M15.0003 2.57752L15.2503 3.01053L15.0003 2.57752ZM17.0003 2.57752L16.7503 3.01053L17.0003 2.57752ZM4.87598 8.42282L5.12598 8.85583L4.87598 8.42282ZM4.87598 23.5775L4.62598 24.0105H4.62598L4.87598 23.5775ZM15.0003 29.4228L14.7503 29.8558L15.0003 29.4228ZM17.0003 29.4228L17.2503 29.8558L17.0003 29.4228ZM27.1247 23.5775L26.8747 23.1445L27.1247 23.5775ZM27.1247 8.42282L26.8747 8.85583V8.85583L27.1247 8.42282ZM22.1236 13.595H22.6236V13.095H22.1236V13.595ZM19.8059 13.595H19.3059V14.095H19.8059V13.595ZM22.1236 19.4465H21.6236V19.9465H22.1236V19.4465ZM23.7242 19.4465V19.9465H24.2242V19.4465H23.7242ZM23.7242 13.595V13.095H23.2242V13.595H23.7242ZM26.0004 13.595V14.095H26.5004V13.595H26.0004ZM26.0004 12.1711H26.5004V11.6711H26.0004V12.1711ZM19.8059 12.1711V11.6711H19.3059V12.1711H19.8059ZM19.4597 12.1711H19.9597V11.6711H19.4597V12.1711ZM14.315 12.1711V11.6711H13.8157L13.815 12.1704L14.315 12.1711ZM19.4597 13.5846V14.0846H19.9597V13.5846H19.4597ZM15.9156 13.5846V13.0846H15.4156V13.5846H15.9156ZM15.9156 14.9981H15.4156V15.4981H15.9156V14.9981ZM19.096 14.9981H19.596V14.4981H19.096V14.9981ZM19.096 16.3493V16.8493H19.596V16.3493H19.096ZM15.9156 16.3493V15.8493H15.4156V16.3493H15.9156ZM15.9156 19.4465V19.9465H16.4156V19.4465H15.9156ZM14.3046 19.4465L13.8046 19.4458L13.8039 19.9465H14.3046V19.4465ZM8.41807 12.1711L8.83961 11.9022L8.69219 11.6711H8.41807V12.1711ZM10.4136 15.2995L10.8435 15.0442L10.8395 15.0374L10.8352 15.0306L10.4136 15.2995ZM6.67196 12.1711V11.6711H6.17125L6.17196 12.1718L6.67196 12.1711ZM6.68236 19.4465L6.18236 19.4472L6.18307 19.9465H6.68236V19.4465ZM8.2102 19.4465V19.9465H8.71226L8.71019 19.4444L8.2102 19.4465ZM8.18941 14.3953L8.61684 14.1358L7.682 12.5957L7.68941 14.3973L8.18941 14.3953ZM9.45741 16.4844L9.02999 16.7438L9.03455 16.7513L9.03937 16.7587L9.45741 16.4844ZM11.401 19.4465L10.9829 19.7208L11.131 19.9465H11.401V19.4465ZM13.1367 19.4465V19.9465H13.6367V19.4465H13.1367ZM13.1367 12.1711H13.6367V11.6711H13.1367V12.1711ZM11.6089 12.1711V11.6711H11.1099L11.1089 12.1701L11.6089 12.1711ZM11.5985 17.2951L11.1685 17.5503L12.0948 19.1103L12.0985 17.2961L11.5985 17.2951ZM15.2503 3.01053C15.7144 2.74258 16.2862 2.74258 16.7503 3.01053L17.2503 2.14451C16.4768 1.69792 15.5238 1.69792 14.7503 2.14451L15.2503 3.01053ZM5.12598 8.85583L15.2503 3.01053L14.7503 2.14451L4.62598 7.98981L5.12598 8.85583ZM4.37598 10.1549C4.37598 9.61897 4.66187 9.12378 5.12598 8.85583L4.62598 7.98981C3.85247 8.43639 3.37598 9.26171 3.37598 10.1549H4.37598ZM4.37598 21.8455V10.1549H3.37598V21.8455H4.37598ZM5.12598 23.1445C4.66187 22.8766 4.37598 22.3814 4.37598 21.8455H3.37598C3.37598 22.7386 3.85247 23.5639 4.62598 24.0105L5.12598 23.1445ZM15.2503 28.9898L5.12598 23.1445L4.62598 24.0105L14.7503 29.8558L15.2503 28.9898ZM16.7503 28.9898C16.2862 29.2578 15.7144 29.2578 15.2503 28.9898L14.7503 29.8558C15.5238 30.3024 16.4768 30.3024 17.2503 29.8558L16.7503 28.9898ZM26.8747 23.1445L16.7503 28.9898L17.2503 29.8558L27.3747 24.0105L26.8747 23.1445ZM27.6247 21.8455C27.6247 22.3814 27.3388 22.8766 26.8747 23.1445L27.3747 24.0105C28.1482 23.564 28.6247 22.7386 28.6247 21.8455H27.6247ZM27.6247 10.1549V21.8455H28.6247V10.1549H27.6247ZM26.8747 8.85583C27.3388 9.12378 27.6247 9.61897 27.6247 10.1549H28.6247C28.6247 9.26171 28.1482 8.43639 27.3747 7.98981L26.8747 8.85583ZM16.7503 3.01053L26.8747 8.85583L27.3747 7.98981L17.2503 2.14451L16.7503 3.01053ZM22.1236 13.095H19.8059V14.095H22.1236V13.095ZM22.6236 19.4465V13.595H21.6236V19.4465H22.6236ZM23.7242 18.9465H22.1236V19.9465H23.7242V18.9465ZM23.2242 13.595V19.4465H24.2242V13.595H23.2242ZM26.0004 13.095H23.7242V14.095H26.0004V13.095ZM25.5004 12.1711V13.595H26.5004V12.1711H25.5004ZM19.8059 12.6711H26.0004V11.6711H19.8059V12.6711ZM20.3059 13.595V12.1711H19.3059V13.595H20.3059ZM19.4597 11.6711H14.315V12.6711H19.4597V11.6711ZM19.9597 13.5846V12.1711H18.9597V13.5846H19.9597ZM15.9156 14.0846H19.4597V13.0846H15.9156V14.0846ZM16.4156 14.9981V13.5846H15.4156V14.9981H16.4156ZM19.096 14.4981H15.9156V15.4981H19.096V14.4981ZM19.596 16.3493V14.9981H18.596V16.3493H19.596ZM15.9156 16.8493H19.096V15.8493H15.9156V16.8493ZM16.4156 19.4465V16.3493H15.4156V19.4465H16.4156ZM14.3046 19.9465H15.9156V18.9465H14.3046V19.9465ZM13.815 12.1704L13.8046 19.4458L14.8046 19.4472L14.815 12.1718L13.815 12.1704ZM7.99652 12.44L9.99207 15.5684L10.8352 15.0306L8.83961 11.9022L7.99652 12.44ZM6.67196 12.6711H8.41807V11.6711H6.67196V12.6711ZM7.18236 19.4458L7.17196 12.1704L6.17196 12.1718L6.18236 19.4472L7.18236 19.4458ZM8.2102 18.9465H6.68236V19.9465H8.2102V18.9465ZM7.68941 14.3973L7.7102 19.4486L8.71019 19.4444L8.68941 14.3932L7.68941 14.3973ZM9.88484 16.2249L8.61684 14.1358L7.76198 14.6547L9.02999 16.7438L9.88484 16.2249ZM11.819 19.1722L9.87546 16.2101L9.03937 16.7587L10.9829 19.7208L11.819 19.1722ZM13.1367 18.9465H11.401V19.9465H13.1367V18.9465ZM12.6367 12.1711V19.4465H13.6367V12.1711H12.6367ZM11.6089 12.6711H13.1367V11.6711H11.6089V12.6711ZM12.0985 17.2961L12.1089 12.1721L11.1089 12.1701L11.0985 17.294L12.0985 17.2961ZM9.98369 15.5548L11.1685 17.5503L12.0284 17.0398L10.8435 15.0442L9.98369 15.5548Z" fill="url(#paint1_linear_6825_12762)" fill-opacity="0.4" mask="url(#path-1-inside-1_6825_12762)"/>
</g>
<defs>
<filter id="filter0_bi_6825_12762" x="-2.74471" y="-4.31112" width="37.4904" height="40.6227" filterUnits="userSpaceOnUse" color-interpolation-filters="sRGB">
<feFlood flood-opacity="0" result="BackgroundImageFix"/>
<feGaussianBlur in="BackgroundImageFix" stdDeviation="3.31034"/>
<feComposite in2="SourceAlpha" operator="in" result="effect1_backgroundBlur_6825_12762"/>
<feBlend mode="normal" in="SourceGraphic" in2="effect1_backgroundBlur_6825_12762" result="shape"/>
<feColorMatrix in="SourceAlpha" type="matrix" values="0 0 0 0 0 0 0 0 0 0 0 0 0 0 0 0 0 0 127 0" result="hardAlpha"/>
<feOffset dy="2.2069"/>
<feGaussianBlur stdDeviation="1.65517"/>
<feComposite in2="hardAlpha" operator="arithmetic" k2="-1" k3="1"/>
<feColorMatrix type="matrix" values="0 0 0 0 1 0 0 0 0 1 0 0 0 0 1 0 0 0 0.4 0"/>
<feBlend mode="normal" in2="shape" result="effect2_innerShadow_6825_12762"/>
</filter>
<linearGradient id="paint0_linear_6825_12762" x1="27.9721" y1="25.1721" x2="21.4768" y2="19.5729" gradientUnits="userSpaceOnUse">
<stop stop-color="#0CC2FF" stop-opacity="0.29"/>
<stop offset="1" stop-color="#0CC2FF"/>
</linearGradient>
<linearGradient id="paint1_linear_6825_12762" x1="27.9721" y1="25.1721" x2="21.4768" y2="19.5729" gradientUnits="userSpaceOnUse">
<stop stop-color="#96E5FF"/>
<stop offset="1" stop-color="#0CC2FF"/>
</linearGradient>
</defs>
</svg>
