<svg width="20" height="20" viewBox="0 0 20 20" fill="none" xmlns="http://www.w3.org/2000/svg">
<circle cx="10" cy="10" r="6.3" stroke="url(#paint0_linear_494_25832)" stroke-width="1.4"/>
<path d="M5.45029 10.0002C5.45029 10.9001 5.71714 11.7798 6.21711 12.528C6.71707 13.2763 7.42768 13.8595 8.25908 14.2038C9.09049 14.5482 10.0053 14.6383 10.888 14.4628C11.7706 14.2872 12.5813 13.8539 13.2176 13.2175C13.854 12.5812 14.2873 11.7705 14.4629 10.8879C14.6384 10.0052 14.5483 9.09039 14.2039 8.25899C13.8596 7.42758 13.2764 6.71697 12.5281 6.21701C11.7799 5.71705 10.9002 5.4502 10.0003 5.4502V10.0002H5.45029Z" fill="url(#paint1_linear_494_25832)"/>
<defs>
<linearGradient id="paint0_linear_494_25832" x1="4.2043" y1="3" x2="18.5535" y2="7.73985" gradientUnits="userSpaceOnUse">
<stop stop-color="#008C0E"/>
<stop offset="1" stop-color="#093F0F"/>
</linearGradient>
<linearGradient id="paint1_linear_494_25832" x1="13.7675" y1="5.4502" x2="4.44054" y2="8.5311" gradientUnits="userSpaceOnUse">
<stop stop-color="#008C0E"/>
<stop offset="1" stop-color="#093F0F"/>
</linearGradient>
</defs>
</svg>
