<svg width="20" height="20" viewBox="0 0 20 20" fill="none" xmlns="http://www.w3.org/2000/svg">
<circle cx="10" cy="10" r="6.3" stroke="url(#paint0_linear_496_28505)" stroke-width="1.4"/>
<g filter="url(#filter0_i_496_28505)">
<path d="M5.45029 9.99922C5.45029 10.8991 5.71714 11.7788 6.21711 12.5271C6.71707 13.2753 7.42768 13.8585 8.25908 14.2029C9.09049 14.5472 10.0053 14.6374 10.888 14.4618C11.7706 14.2862 12.5813 13.8529 13.2176 13.2166C13.854 12.5802 14.2873 11.7695 14.4629 10.8869C14.6384 10.0043 14.5483 9.08941 14.2039 8.25801C13.8596 7.42661 13.2764 6.71599 12.5281 6.21603C11.7799 5.71607 10.9002 5.44922 10.0003 5.44922V9.99922H5.45029Z" fill="url(#paint1_linear_496_28505)"/>
</g>
<defs>
<filter id="filter0_i_496_28505" x="5.4502" y="5.44922" width="9.1001" height="13.0996" filterUnits="userSpaceOnUse" color-interpolation-filters="sRGB">
<feFlood flood-opacity="0" result="BackgroundImageFix"/>
<feBlend mode="normal" in="SourceGraphic" in2="BackgroundImageFix" result="shape"/>
<feColorMatrix in="SourceAlpha" type="matrix" values="0 0 0 0 0 0 0 0 0 0 0 0 0 0 0 0 0 0 127 0" result="hardAlpha"/>
<feOffset dy="4"/>
<feGaussianBlur stdDeviation="2"/>
<feComposite in2="hardAlpha" operator="arithmetic" k2="-1" k3="1"/>
<feColorMatrix type="matrix" values="0 0 0 0 0 0 0 0 0 0 0 0 0 0 0 0 0 0 0.2 0"/>
<feBlend mode="normal" in2="shape" result="effect1_innerShadow_496_28505"/>
</filter>
<linearGradient id="paint0_linear_496_28505" x1="4.2043" y1="3" x2="18.5535" y2="7.73985" gradientUnits="userSpaceOnUse">
<stop stop-color="#008C0E"/>
<stop offset="1" stop-color="#49CC50"/>
</linearGradient>
<linearGradient id="paint1_linear_496_28505" x1="13.7675" y1="5.44922" x2="4.44054" y2="8.53012" gradientUnits="userSpaceOnUse">
<stop stop-color="#008C0E"/>
<stop offset="1" stop-color="#49CC50"/>
</linearGradient>
</defs>
</svg>
