<svg width="32" height="32" viewBox="0 0 32 32" fill="none" xmlns="http://www.w3.org/2000/svg">
<g filter="url(#filter0_bi_6825_12743)">
<mask id="path-1-inside-1_6825_12743" fill="white">
<path fill-rule="evenodd" clip-rule="evenodd" d="M4 7C4 5.34315 5.34315 4 7 4H22.3333C23.9902 4 25.3333 5.34315 25.3333 7V10.6312C25.3333 11.0011 24.9436 11.2457 24.5958 11.1196C23.7889 10.8269 22.914 10.6667 22 10.6667C17.9499 10.6667 14.6667 13.8128 14.6667 17.6937C14.6667 19.1966 15.159 20.5893 15.9976 21.7317C16.2644 22.0951 16.0237 22.6667 15.5729 22.6667H8C7.26362 22.6667 6.66667 23.2636 6.66667 24C6.66667 24.7364 7.26362 25.3333 8 25.3333H17.5721C17.7746 25.3333 17.9546 25.4568 18.0468 25.6371C18.7626 27.0365 20.2639 28 22 28H7C5.34315 28 4 26.6569 4 25V7ZM22 28H22.3333C22.8166 28 23.2731 27.8858 23.6774 27.6828C23.1605 27.8872 22.594 28 22 28Z"/>
</mask>
<path fill-rule="evenodd" clip-rule="evenodd" d="M4 7C4 5.34315 5.34315 4 7 4H22.3333C23.9902 4 25.3333 5.34315 25.3333 7V10.6312C25.3333 11.0011 24.9436 11.2457 24.5958 11.1196C23.7889 10.8269 22.914 10.6667 22 10.6667C17.9499 10.6667 14.6667 13.8128 14.6667 17.6937C14.6667 19.1966 15.159 20.5893 15.9976 21.7317C16.2644 22.0951 16.0237 22.6667 15.5729 22.6667H8C7.26362 22.6667 6.66667 23.2636 6.66667 24C6.66667 24.7364 7.26362 25.3333 8 25.3333H17.5721C17.7746 25.3333 17.9546 25.4568 18.0468 25.6371C18.7626 27.0365 20.2639 28 22 28H7C5.34315 28 4 26.6569 4 25V7ZM22 28H22.3333C22.8166 28 23.2731 27.8858 23.6774 27.6828C23.1605 27.8872 22.594 28 22 28Z" fill="black" fill-opacity="0.1"/>
<path fill-rule="evenodd" clip-rule="evenodd" d="M4 7C4 5.34315 5.34315 4 7 4H22.3333C23.9902 4 25.3333 5.34315 25.3333 7V10.6312C25.3333 11.0011 24.9436 11.2457 24.5958 11.1196C23.7889 10.8269 22.914 10.6667 22 10.6667C17.9499 10.6667 14.6667 13.8128 14.6667 17.6937C14.6667 19.1966 15.159 20.5893 15.9976 21.7317C16.2644 22.0951 16.0237 22.6667 15.5729 22.6667H8C7.26362 22.6667 6.66667 23.2636 6.66667 24C6.66667 24.7364 7.26362 25.3333 8 25.3333H17.5721C17.7746 25.3333 17.9546 25.4568 18.0468 25.6371C18.7626 27.0365 20.2639 28 22 28H7C5.34315 28 4 26.6569 4 25V7ZM22 28H22.3333C22.8166 28 23.2731 27.8858 23.6774 27.6828C23.1605 27.8872 22.594 28 22 28Z" fill="url(#paint0_linear_6825_12743)" fill-opacity="0.5"/>
<path d="M23.6774 27.6828L23.9017 28.1297L23.4935 27.2178L23.6774 27.6828ZM18.0468 25.6371L18.4919 25.4094L18.0468 25.6371ZM15.9976 21.7317L16.4007 21.4359L15.9976 21.7317ZM24.5958 11.1196L24.4253 11.5896L24.5958 11.1196ZM7 3.5C5.067 3.5 3.5 5.067 3.5 7H4.5C4.5 5.61929 5.61929 4.5 7 4.5V3.5ZM22.3333 3.5H7V4.5H22.3333V3.5ZM25.8333 7C25.8333 5.067 24.2663 3.5 22.3333 3.5V4.5C23.714 4.5 24.8333 5.61929 24.8333 7H25.8333ZM25.8333 10.6312V7H24.8333V10.6312H25.8333ZM22 11.1667C22.8552 11.1667 23.6725 11.3165 24.4253 11.5896L24.7663 10.6496C23.9053 10.3372 22.9727 10.1667 22 10.1667V11.1667ZM15.1667 17.6937C15.1667 14.1088 18.2057 11.1667 22 11.1667V10.1667C17.6941 10.1667 14.1667 13.5167 14.1667 17.6937H15.1667ZM16.4007 21.4359C15.622 20.375 15.1667 19.0851 15.1667 17.6937H14.1667C14.1667 19.3081 14.696 20.8035 15.5945 22.0276L16.4007 21.4359ZM15.5729 22.1667H8V23.1667H15.5729V22.1667ZM8 22.1667C6.98748 22.1667 6.16667 22.9875 6.16667 24H7.16667C7.16667 23.5398 7.53976 23.1667 8 23.1667V22.1667ZM6.16667 24C6.16667 25.0125 6.98748 25.8333 8 25.8333V24.8333C7.53976 24.8333 7.16667 24.4602 7.16667 24H6.16667ZM8 25.8333H17.5721V24.8333H8V25.8333ZM22 27.5C20.4505 27.5 19.1218 26.6407 18.4919 25.4094L17.6016 25.8648C18.4034 27.4323 20.0772 28.5 22 28.5V27.5ZM7 28.5H22V27.5H7V28.5ZM3.5 25C3.5 26.933 5.06701 28.5 7 28.5V27.5C5.61929 27.5 4.5 26.3807 4.5 25H3.5ZM3.5 7V25H4.5V7H3.5ZM22 28.5H22.3333V27.5H22V28.5ZM22.3333 28.5C22.8962 28.5 23.4294 28.3668 23.9017 28.1297L23.4531 27.2359C23.1168 27.4047 22.7369 27.5 22.3333 27.5V28.5ZM23.4935 27.2178C23.0345 27.3994 22.5303 27.5 22 27.5V28.5C22.6576 28.5 23.2865 28.3751 23.8613 28.1478L23.4935 27.2178ZM17.5721 25.8333C17.5699 25.8333 17.5714 25.8324 17.5775 25.8363C17.5845 25.8409 17.5941 25.8502 17.6016 25.8648L18.4919 25.4094C18.3249 25.0828 17.9846 24.8333 17.5721 24.8333V25.8333ZM15.5945 22.0276C15.6073 22.045 15.6185 22.0848 15.597 22.1335C15.5876 22.1547 15.5769 22.1644 15.5736 22.1668C15.5731 22.1672 15.5753 22.1667 15.5729 22.1667V23.1667C16.0342 23.1667 16.3651 22.8695 16.5117 22.5375C16.6565 22.2096 16.6547 21.7819 16.4007 21.4359L15.5945 22.0276ZM24.8333 10.6312C24.8333 10.6332 24.8331 10.6335 24.8333 10.6328C24.8335 10.6322 24.8337 10.6318 24.8336 10.632C24.8332 10.6326 24.8304 10.6371 24.8224 10.6422C24.8045 10.6539 24.7834 10.6558 24.7663 10.6496L24.4253 11.5896C25.0606 11.8201 25.8333 11.3879 25.8333 10.6312H24.8333Z" fill="url(#paint1_linear_6825_12743)" fill-opacity="0.1" mask="url(#path-1-inside-1_6825_12743)"/>
</g>
<path fill-rule="evenodd" clip-rule="evenodd" d="M25.5405 22.1029C26.8462 21.2161 27.737 19.7973 27.737 18.1984C27.737 15.5116 25.6123 13.3335 22.6667 13.3335C19.7212 13.3335 17.5767 15.5116 17.5767 18.1984C17.5767 19.7973 18.4481 21.2161 19.7538 22.1029C19.751 22.1266 19.7486 22.1503 19.7465 22.1741C19.7518 22.1763 19.7571 22.1785 19.7624 22.1808C20.4012 22.4462 21.3687 22.7157 22.6665 22.7157C23.9499 22.7157 24.9103 22.4521 25.5492 22.1896C25.5468 22.1606 25.5439 22.1317 25.5405 22.1029ZM25.5441 22.7286C24.8582 22.9851 23.8986 23.2157 22.6665 23.2157C21.4105 23.2157 20.4377 22.9761 19.7493 22.7136C19.8839 24.1852 21.0101 25.3335 22.6667 25.3335C24.3178 25.3335 25.4078 24.193 25.5441 22.7286Z" fill="#0CC2FF"/>
<defs>
<filter id="filter0_bi_6825_12743" x="-2.62069" y="-2.62069" width="34.5749" height="37.2414" filterUnits="userSpaceOnUse" color-interpolation-filters="sRGB">
<feFlood flood-opacity="0" result="BackgroundImageFix"/>
<feGaussianBlur in="BackgroundImageFix" stdDeviation="3.31034"/>
<feComposite in2="SourceAlpha" operator="in" result="effect1_backgroundBlur_6825_12743"/>
<feBlend mode="normal" in="SourceGraphic" in2="effect1_backgroundBlur_6825_12743" result="shape"/>
<feColorMatrix in="SourceAlpha" type="matrix" values="0 0 0 0 0 0 0 0 0 0 0 0 0 0 0 0 0 0 127 0" result="hardAlpha"/>
<feOffset dy="2.2069"/>
<feGaussianBlur stdDeviation="1.65517"/>
<feComposite in2="hardAlpha" operator="arithmetic" k2="-1" k3="1"/>
<feColorMatrix type="matrix" values="0 0 0 0 1 0 0 0 0 1 0 0 0 0 1 0 0 0 0.4 0"/>
<feBlend mode="normal" in2="shape" result="effect2_innerShadow_6825_12743"/>
</filter>
<linearGradient id="paint0_linear_6825_12743" x1="25.1991" y1="24.0393" x2="19.5028" y2="19.1106" gradientUnits="userSpaceOnUse">
<stop stop-color="#0CC2FF" stop-opacity="0.29"/>
<stop offset="1" stop-color="#0CC2FF"/>
</linearGradient>
<linearGradient id="paint1_linear_6825_12743" x1="25.1991" y1="24.0393" x2="19.5028" y2="19.1106" gradientUnits="userSpaceOnUse">
<stop stop-color="#96E5FF"/>
<stop offset="1" stop-color="#0CC2FF"/>
</linearGradient>
</defs>
</svg>
