<svg width="20" height="20" viewBox="0 0 20 20" fill="none" xmlns="http://www.w3.org/2000/svg">
<g id="Social icon">
<path id="Vector" d="M15.5447 5.07763C14.5249 4.57884 13.4313 4.21136 12.2879 4.00088C12.2671 3.99682 12.2463 4.00697 12.2356 4.02728C12.0949 4.29392 11.9392 4.64178 11.8301 4.91519C10.6003 4.71894 9.37679 4.71894 8.17221 4.91519C8.0631 4.6357 7.90166 4.29392 7.76038 4.02728C7.74966 4.00765 7.72886 3.9975 7.70803 4.00088C6.56527 4.21068 5.47171 4.57817 4.45129 5.07763C4.44246 5.08169 4.43488 5.08846 4.42986 5.09725C2.35559 8.40058 1.78737 11.6227 2.06612 14.8049C2.06738 14.8205 2.07558 14.8354 2.08693 14.8448C3.45547 15.9161 4.78114 16.5665 6.08219 16.9976C6.10301 17.0044 6.12507 16.9963 6.13832 16.978C6.44608 16.53 6.72043 16.0576 6.95565 15.5608C6.96953 15.5318 6.95628 15.4972 6.92791 15.4857C6.49275 15.3098 6.0784 15.0952 5.67982 14.8516C5.64829 14.832 5.64577 14.7839 5.67477 14.7609C5.75865 14.6939 5.84255 14.6242 5.92264 14.5538C5.93713 14.5409 5.95732 14.5382 5.97435 14.5464C8.59286 15.8207 11.4277 15.8207 14.0153 14.5464C14.0323 14.5376 14.0525 14.5403 14.0677 14.5531C14.1478 14.6235 14.2316 14.6939 14.3161 14.7609C14.3451 14.7839 14.3433 14.832 14.3117 14.8516C13.9131 15.1 13.4988 15.3098 13.063 15.4851C13.0346 15.4966 13.022 15.5318 13.0359 15.5608C13.2762 16.0569 13.5505 16.5293 13.8526 16.9773C13.8652 16.9963 13.8879 17.0044 13.9087 16.9976C15.2161 16.5665 16.5417 15.9161 17.9103 14.8448C17.9223 14.8354 17.9298 14.8211 17.9311 14.8056C18.2647 11.1266 17.3723 7.93091 15.5655 5.09793C15.5611 5.08846 15.5535 5.08169 15.5447 5.07763ZM7.34668 12.8673C6.55833 12.8673 5.90876 12.0958 5.90876 11.1483C5.90876 10.2008 6.54574 9.42929 7.34668 9.42929C8.15392 9.42929 8.79721 10.2076 8.78459 11.1483C8.78459 12.0958 8.14761 12.8673 7.34668 12.8673ZM12.6632 12.8673C11.8748 12.8673 11.2253 12.0958 11.2253 11.1483C11.2253 10.2008 11.8622 9.42929 12.6632 9.42929C13.4704 9.42929 14.1137 10.2076 14.1011 11.1483C14.1011 12.0958 13.4704 12.8673 12.6632 12.8673Z" fill="#8D8F96"/>
</g>
</svg>
