<svg width="20" height="20" viewBox="0 0 20 20" fill="none" xmlns="http://www.w3.org/2000/svg">
<g id="Social icon">
<path id="Path 3" fill-rule="evenodd" clip-rule="evenodd" d="M3.93327 8.84475C7.57847 7.2566 10.0092 6.20959 11.2254 5.70373C14.6979 4.25939 15.4195 4.0085 15.8898 4.00021C15.9932 3.99839 16.2245 4.02402 16.3743 4.14559C16.5008 4.24823 16.5356 4.38689 16.5523 4.48421C16.5689 4.58153 16.5897 4.80323 16.5732 4.97646C16.385 6.95365 15.5708 11.7518 15.1565 13.9663C14.9812 14.9033 14.6361 15.2175 14.302 15.2482C13.5758 15.315 13.0244 14.7683 12.3211 14.3073C11.2206 13.5859 10.5989 13.1368 9.53065 12.4329C8.2961 11.6193 9.09641 11.1722 9.79997 10.4414C9.9841 10.2502 13.1835 7.34012 13.2454 7.07613C13.2531 7.04312 13.2603 6.92005 13.1872 6.85506C13.1141 6.79008 13.0062 6.8123 12.9283 6.82998C12.8179 6.85503 11.0598 8.01707 7.65402 10.3161C7.15499 10.6588 6.70298 10.8257 6.298 10.817C5.85154 10.8073 4.99273 10.5645 4.35429 10.357C3.57122 10.1025 2.94885 9.96788 3.00305 9.53559C3.03127 9.31042 3.34135 9.08014 3.93327 8.84475Z" fill="#8D8F96"/>
</g>
</svg>
