<svg width="275" height="82" viewBox="0 0 275 82" fill="none" xmlns="http://www.w3.org/2000/svg">
<path d="M78.3441 34.1418V18.1878L64.7192 10.2918L64.5294 10.187L53.5535 16.4734V8.93928L39.7578 0.95752L26.1804 8.79639L25.9905 8.91068V16.5305L15.0716 10.2632L14.8817 10.1584L1.38028 18.0544L1.19043 18.1688V34.1133L12.0998 40.4663L1.38028 46.7145L1.19043 46.8193V62.64L14.6918 70.6693L14.8817 70.7836L25.8481 64.4592V72.079L39.4824 79.8512L39.6723 79.956L53.3541 72.1837L53.5535 72.079V64.4592L64.5484 70.7836L78.1637 62.7542L78.3536 62.64V46.8955L67.3968 40.5425L78.1637 34.3038L78.3441 34.1418ZM54.9967 33.3227L75.4863 21.4929V32.494L64.5294 38.847L54.9967 33.3227ZM52.1483 31.6654L47.0687 28.7127L53.563 24.9504V19.7785L64.5389 13.5016L74.0336 19.0165L52.1483 31.6654ZM52.1483 34.9704L74.081 47.6765L64.5863 53.1913L42.6157 40.39L52.1483 34.9704ZM28.8863 23.2931V12.2444L38.381 17.7402V28.7984L28.8863 23.2931ZM41.2294 28.7889V17.7402L50.7241 12.2444V23.2931L41.2294 28.7889ZM35.2952 30.3224L39.5964 32.8178L39.7862 32.9322L44.2298 30.3605L49.2904 33.3036L39.7198 38.7232L30.2251 33.3036L35.2952 30.3224ZM30.32 9.76793L39.8147 4.27212L49.3094 9.76793L39.8147 15.2542L30.32 9.76793ZM38.2861 42.8665V54.0295L16.3724 66.6689V55.6868L38.2861 42.8665ZM4.10524 32.494V21.5025L24.4713 33.3227L14.9766 38.8375L4.10524 32.494ZM32.4468 28.6841L27.3292 31.6749L5.49143 19.0355L14.9197 13.5207L26.0094 19.8832V24.9885L32.4468 28.6841ZM36.8524 40.4091L14.9387 53.2104L5.51044 47.6956L27.3482 34.9895L36.8524 40.4091ZM13.505 55.7059V66.6498L4.10524 61.0588V50.172L13.505 55.7059ZM38.2861 57.3537V75.8984L28.7914 70.4693V62.8495L38.2861 57.3537ZM63.1242 55.7059V66.6975L41.1535 54.0391V42.8665L63.1242 55.7059ZM50.7336 70.4693L41.1535 75.908V57.3727L50.7146 62.8781L50.7336 70.4693ZM75.5147 50.1815V61.0588L66.02 66.6689V55.6868L75.5147 50.1815Z" fill="#0CC2FF"/>
<path d="M100.039 11.8919L96.9442 14.997V33.5989L100.039 36.704H113.427L116.513 33.5989V28.4174H112.8V32.0654L111.898 32.9703H101.568L100.666 32.0654V16.521L101.568 15.6161H111.898L112.8 16.521V20.1785H116.513V14.997L113.427 11.8919H100.039Z" fill="#00040F"/>
<path d="M123.159 11.8919V36.6563H126.871V28.3698H129.226L137.477 36.6563H142.718L134.467 28.3698H139.632L142.718 25.2742V14.997L139.632 11.8919H123.159ZM139.006 23.7884L138.056 24.7408H126.824V15.6732H138.056L139.006 16.6257V23.7884Z" fill="#00040F"/>
<path d="M152.46 11.8919L149.364 14.997V33.5608L152.46 36.6659H165.847L168.933 33.5608V14.997L165.847 11.8919H152.46ZM165.22 32.0749L164.318 32.9703H153.979L153.029 32.0749V16.5305L153.979 15.578H164.309L165.211 16.5305L165.22 32.0749Z" fill="#00040F"/>
<path d="M178.646 11.8919L175.56 14.997V22.5311L178.646 25.6362H190.505L191.407 26.5315V32.0654L190.505 32.9703H180.175L179.273 32.0654V29.4747H175.56V33.5989L178.646 36.704H192.033L195.129 33.5989V25.0076L192.033 21.9025H180.175L179.273 20.9976V16.521L180.175 15.6161H190.505L191.407 16.521V19.1117H195.129V14.997L192.033 11.8919H178.646Z" fill="#00040F"/>
<path d="M204.851 11.8919L201.765 14.997V22.5311L204.851 25.6362H216.71L217.612 26.5315V32.0654L216.71 32.9703H206.38L205.478 32.0654V29.4747H201.765V33.5989L204.851 36.704H218.239L221.324 33.5989V25.0076L218.239 21.9025H206.38L205.478 20.9976V16.521L206.38 15.6161H216.71L217.612 16.521V19.1117H221.324V14.997L218.239 11.8919H204.851Z" fill="#00040F"/>
<path d="M227.961 14.997V36.704H231.683V25.3219H243.419V21.5882H231.683V16.521L232.585 15.6161H247.53V11.8919H231.057L227.961 14.997Z" fill="#00040F"/>
<path d="M273.735 15.6161V11.8919H254.167V15.6161H262.114V32.9703H254.167V36.704H273.735V32.9703H265.826V15.6161H273.735Z" fill="#00040F"/>
<path d="M166.455 43.3713H152.706L149.355 46.7336V69.0596H153.95V60.7731H166.455L169.797 57.4203V46.7336L166.455 43.3713ZM165.201 48.629V55.5249L164.565 56.1726H153.95V48.629L154.596 47.9813H164.565L165.201 48.629Z" fill="#0CC2FF"/>
<path d="M126.501 43.3713L123.159 46.7336V69.0596H127.773V60.7731H140.278L143.63 57.4203V46.7336L140.278 43.3713H126.501ZM139.006 48.629V55.5249L138.36 56.1726H127.773V48.629L128.419 47.9813H138.388L139.006 48.629Z" fill="#0CC2FF"/>
<path d="M100.305 43.3713L96.9537 46.7336V69.0596H101.549V61.8399H112.8V69.0596H117.396V46.7336L114.044 43.3713H100.305ZM101.549 48.629L102.185 47.9813H112.155L112.8 48.629V57.2013H101.549V48.629Z" fill="#0CC2FF"/>
</svg>
