<svg width="20" height="20" viewBox="0 0 20 20" fill="none" xmlns="http://www.w3.org/2000/svg">
<g clip-path="url(#clip0_7804_3731)">
<path d="M9.99992 18.3335L9.99992 16.6668M9.99992 3.3335L9.99992 1.66683M16.6666 10.0002L18.3333 10.0002M14.7382 14.7384L15.9167 15.9169M5.26168 14.7384L4.08317 15.9169M14.7382 5.2585L15.9167 4.07999M5.26168 5.2585L4.08317 4.07999M1.66659 10.0002L3.33326 10.0002M5.83325 10.0002C5.83325 7.69898 7.69873 5.8335 9.99992 5.8335C12.3011 5.8335 14.1666 7.69898 14.1666 10.0002C14.1666 12.3013 12.3011 14.1668 9.99992 14.1668C7.69873 14.1668 5.83325 12.3013 5.83325 10.0002Z" stroke="#00040F" stroke-width="1.66667" stroke-linecap="round" stroke-linejoin="round"/>
</g>
<defs>
<clipPath id="clip0_7804_3731">
<rect width="20" height="20" fill="white" transform="translate(20 20) rotate(-180)"/>
</clipPath>
</defs>
</svg>
