<svg xmlns="http://www.w3.org/2000/svg" width="32" height="32" viewBox="0 0 32 32" fill="none">
  <g filter="url(#filter0_i_6804_2703)">
    <mask id="path-1-inside-1_6804_2703" fill="white">
      <path fill-rule="evenodd" clip-rule="evenodd" d="M16 13.5C14.6193 13.5 13.5 14.6193 13.5 16C13.5 17.3807 14.6193 18.5 16 18.5C17.3807 18.5 18.5 17.3807 18.5 16C18.5 14.6193 17.3807 13.5 16 13.5ZM12 16C12 13.7909 13.7909 12 16 12C18.2091 12 20 13.7909 20 16C20 18.2091 18.2091 20 16 20C13.7909 20 12 18.2091 12 16Z"/>
    </mask>
    <path d="M15 16C15 15.4477 15.4477 15 16 15V12C13.7909 12 12 13.7909 12 16H15ZM16 17C15.4477 17 15 16.5523 15 16H12C12 18.2091 13.7909 20 16 20V17ZM17 16C17 16.5523 16.5523 17 16 17V20C18.2091 20 20 18.2091 20 16H17ZM16 15C16.5523 15 17 15.4477 17 16H20C20 13.7909 18.2091 12 16 12V15ZM16 10.5C12.9624 10.5 10.5 12.9624 10.5 16H13.5C13.5 14.6193 14.6193 13.5 16 13.5V10.5ZM21.5 16C21.5 12.9624 19.0376 10.5 16 10.5V13.5C17.3807 13.5 18.5 14.6193 18.5 16H21.5ZM16 21.5C19.0376 21.5 21.5 19.0376 21.5 16H18.5C18.5 17.3807 17.3807 18.5 16 18.5V21.5ZM10.5 16C10.5 19.0376 12.9624 21.5 16 21.5V18.5C14.6193 18.5 13.5 17.3807 13.5 16H10.5Z" fill="#C0C1C5" mask="url(#path-1-inside-1_6804_2703)"/>
  </g>
  <g filter="url(#filter1_i_6804_2703)">
    <path d="M27 19.25C28.1046 19.25 29 18.3546 29 17.25V14.75C29 13.6454 28.1046 12.75 27 12.75H25.6967C25.3909 12.75 25.1195 12.5533 25.0026 12.2708C24.8856 11.9881 24.9412 11.6629 25.1576 11.4466L26.08 10.5242C26.861 9.74317 26.861 8.47684 26.08 7.69579L24.3042 5.92005C23.5232 5.139 22.2568 5.139 21.4758 5.92005L20.5533 6.84252C20.3362 7.05963 20.0129 7.12024 19.7292 7.00285C19.4457 6.88553 19.25 6.61028 19.25 6.30342V5C19.25 3.89543 18.3546 3 17.25 3H14.75C13.6454 3 12.75 3.89543 12.75 5V6.30328C12.75 6.60907 12.5533 6.88052 12.2708 6.99743C11.9881 7.11441 11.6629 7.05877 11.4466 6.84243L10.5242 5.92005C9.74317 5.139 8.47684 5.139 7.69579 5.92005L5.92005 7.69579C5.139 8.47684 5.139 9.74317 5.92005 10.5242L6.84252 11.4467C7.05963 11.6638 7.12024 11.9871 7.00285 12.2708C6.88553 12.5543 6.61028 12.75 6.30342 12.75H5C3.89543 12.75 3 13.6454 3 14.75V17.25C3 18.3546 3.89543 19.25 5 19.25H6.30328C6.60907 19.25 6.88052 19.4467 6.99743 19.7292C7.11441 20.0119 7.05877 20.3371 6.84243 20.5534L5.92005 21.4758C5.139 22.2568 5.139 23.5232 5.92005 24.3042L7.69579 26.08C8.47684 26.861 9.74317 26.861 10.5242 26.08L11.4467 25.1575C11.6638 24.9404 11.9871 24.8798 12.2708 24.9972C12.5543 25.1145 12.75 25.3897 12.75 25.6966V27C12.75 28.1046 13.6454 29 14.75 29H17.25C18.3546 29 19.25 28.1046 19.25 27V25.6967C19.25 25.3909 19.4467 25.1195 19.7292 25.0026C20.0119 24.8856 20.3371 24.9412 20.5534 25.1576L21.4758 26.08C22.2568 26.861 23.5232 26.861 24.3042 26.08L26.08 24.3042C26.861 23.5232 26.861 22.2568 26.08 21.4758L25.1575 20.5533C24.9404 20.3362 24.8798 20.0129 24.9972 19.7292C25.1145 19.4457 25.3897 19.25 25.6966 19.25H27ZM16 21.4167C14.9287 21.4167 13.8814 21.099 12.9907 20.5038C12.0999 19.9086 11.4056 19.0626 10.9957 18.0729C10.5857 17.0831 10.4784 15.994 10.6874 14.9433C10.8964 13.8925 11.4123 12.9274 12.1698 12.1698C12.9274 11.4123 13.8925 10.8964 14.9433 10.6874C15.994 10.4784 17.0831 10.5857 18.0729 10.9957C19.0626 11.4056 19.9086 12.0999 20.5038 12.9907C21.099 13.8814 21.4167 14.9287 21.4167 16C21.4167 17.4366 20.846 18.8143 19.8302 19.8302C18.8143 20.846 17.4366 21.4167 16 21.4167Z" fill="#5A5D68"/>
  </g>
  <path d="M28.75 17.25C28.75 18.2165 27.9665 19 27 19H25.6966C25.2821 19 24.9196 19.2628 24.7661 19.6336C24.6111 20.0084 24.6903 20.4397 24.9807 20.7301L25.9032 21.6526C26.5866 22.336 26.5866 23.444 25.9032 24.1274L24.1274 25.9032C23.444 26.5866 22.336 26.5866 21.6526 25.9032L20.7302 24.9808C20.4381 24.6887 20.004 24.6183 19.6336 24.7716C19.2657 24.9238 19 25.2813 19 25.6967V27C19 27.9665 18.2165 28.75 17.25 28.75H14.75C13.7835 28.75 13 27.9665 13 27V25.6966C13 25.2821 12.7372 24.9196 12.3664 24.7661C11.9916 24.6111 11.5603 24.6903 11.2699 24.9807L10.3474 25.9032C9.66402 26.5866 8.55598 26.5866 7.87256 25.9032L6.09682 24.1274C5.41341 23.444 5.41341 22.336 6.09682 21.6526L7.0192 20.7302C7.3113 20.4381 7.3817 20.004 7.22844 19.6336C7.07619 19.2657 6.71868 19 6.30328 19H5C4.0335 19 3.25 18.2165 3.25 17.25V14.75C3.25 13.7835 4.0335 13 5 13H6.30342C6.71792 13 7.0804 12.7372 7.23386 12.3664C7.38892 11.9916 7.30966 11.5603 7.0193 11.2699L6.09682 10.3474C5.41341 9.66402 5.41341 8.55598 6.09682 7.87256L7.87256 6.09682C8.55598 5.41341 9.66402 5.41341 10.3474 6.09682L11.2698 7.0192C11.5619 7.3113 11.996 7.3817 12.3664 7.22844C12.7343 7.07619 13 6.71868 13 6.30328V5C13 4.0335 13.7835 3.25 14.75 3.25H17.25C18.2165 3.25 19 4.0335 19 5V6.30342C19 6.71792 19.2628 7.0804 19.6336 7.23386C20.0084 7.38892 20.4397 7.30966 20.7301 7.0193L21.6526 6.09682C22.336 5.41341 23.444 5.41341 24.1274 6.09682L25.9032 7.87256C26.5866 8.55598 26.5866 9.66402 25.9032 10.3474L24.9808 11.2698C24.6887 11.5619 24.6183 11.996 24.7716 12.3664C24.9238 12.7343 25.2813 13 25.6967 13H27C27.9665 13 28.75 13.7835 28.75 14.75V17.25ZM12.8518 20.7117C13.7836 21.3343 14.8792 21.6667 16 21.6667C17.5029 21.6667 18.9442 21.0696 20.0069 20.0069C21.0696 18.9442 21.6667 17.5029 21.6667 16C21.6667 14.8792 21.3343 13.7836 20.7117 12.8518C20.089 11.9199 19.204 11.1936 18.1685 10.7647C17.1331 10.3358 15.9937 10.2236 14.8945 10.4422C13.7953 10.6609 12.7856 11.2006 11.9931 11.9931C11.2006 12.7856 10.6609 13.7953 10.4422 14.8945C10.2236 15.9937 10.3358 17.1331 10.7647 18.1685C11.1936 19.204 11.9199 20.089 12.8518 20.7117Z" stroke="#464955" stroke-width="0.5"/>
  <defs>
    <filter id="filter0_i_6804_2703" x="12" y="12" width="8" height="12" filterUnits="userSpaceOnUse" color-interpolation-filters="sRGB">
      <feFlood flood-opacity="0" result="BackgroundImageFix"/>
      <feBlend mode="normal" in="SourceGraphic" in2="BackgroundImageFix" result="shape"/>
      <feColorMatrix in="SourceAlpha" type="matrix" values="0 0 0 0 0 0 0 0 0 0 0 0 0 0 0 0 0 0 127 0" result="hardAlpha"/>
      <feOffset dy="4"/>
      <feGaussianBlur stdDeviation="2"/>
      <feComposite in2="hardAlpha" operator="arithmetic" k2="-1" k3="1"/>
      <feColorMatrix type="matrix" values="0 0 0 0 0 0 0 0 0 0 0 0 0 0 0 0 0 0 0.25 0"/>
      <feBlend mode="normal" in2="shape" result="effect1_innerShadow_6804_2703"/>
    </filter>
    <filter id="filter1_i_6804_2703" x="3" y="3" width="26" height="30" filterUnits="userSpaceOnUse" color-interpolation-filters="sRGB">
      <feFlood flood-opacity="0" result="BackgroundImageFix"/>
      <feBlend mode="normal" in="SourceGraphic" in2="BackgroundImageFix" result="shape"/>
      <feColorMatrix in="SourceAlpha" type="matrix" values="0 0 0 0 0 0 0 0 0 0 0 0 0 0 0 0 0 0 127 0" result="hardAlpha"/>
      <feOffset dy="4"/>
      <feGaussianBlur stdDeviation="2"/>
      <feComposite in2="hardAlpha" operator="arithmetic" k2="-1" k3="1"/>
      <feColorMatrix type="matrix" values="0 0 0 0 0 0 0 0 0 0 0 0 0 0 0 0 0 0 0.25 0"/>
      <feBlend mode="normal" in2="shape" result="effect1_innerShadow_6804_2703"/>
    </filter>
  </defs>
</svg>