<svg width="32" height="32" viewBox="0 0 32 32" fill="none" xmlns="http://www.w3.org/2000/svg">
<path d="M18.0002 19.3456L18.7293 17.8171L20.4862 18.6165L18.0002 19.3456Z" fill="#233447" stroke="#233447" stroke-width="0.455513" stroke-linecap="round" stroke-linejoin="round"/>
<path d="M26.0844 5.61707L17.344 12.1086L18.9603 8.2787L26.0844 5.61707Z" fill="#E4761B" stroke="#E4761B" stroke-width="0.455513" stroke-linecap="round" stroke-linejoin="round"/>
<path d="M5.90747 5.61768L14.5776 12.1707L13.0403 8.27931L5.90747 5.61768Z" fill="#E4761B" stroke="#E4761B" stroke-width="0.455513" stroke-linecap="round" stroke-linejoin="round"/>
<path d="M22.9397 20.6647L20.6118 24.2311L25.5925 25.6014L27.0243 20.7437L22.9397 20.6647Z" fill="#E4761B" stroke="#E4761B" stroke-width="0.455513" stroke-linecap="round" stroke-linejoin="round"/>
<path d="M4.9856 20.7437L6.40865 25.6014L11.3893 24.2311L9.06151 20.6647L4.9856 20.7437Z" fill="#E4761B" stroke="#E4761B" stroke-width="0.455513" stroke-linecap="round" stroke-linejoin="round"/>
<path d="M11.1072 14.6391L9.71924 16.7386L14.6648 16.9582L14.4891 11.6437L11.1072 14.6391Z" fill="#E4761B" stroke="#E4761B" stroke-width="0.455513" stroke-linecap="round" stroke-linejoin="round"/>
<path d="M20.8841 14.6391L17.4582 11.5822L17.344 16.9581L22.2808 16.7385L20.8841 14.6391Z" fill="#E4761B" stroke="#E4761B" stroke-width="0.455513" stroke-linecap="round" stroke-linejoin="round"/>
<path d="M11.3887 24.2321L14.3578 22.7827L11.7927 20.7799L11.3887 24.2321Z" fill="#E4761B" stroke="#E4761B" stroke-width="0.455513" stroke-linecap="round" stroke-linejoin="round"/>
<path d="M17.6343 22.7827L20.6122 24.2321L20.1993 20.7799L17.6343 22.7827Z" fill="#E4761B" stroke="#E4761B" stroke-width="0.455513" stroke-linecap="round" stroke-linejoin="round"/>
<path d="M20.6119 24.2316L17.634 22.7822L17.8712 24.7235L17.8449 25.5405L20.6119 24.2316Z" fill="#D7C1B3" stroke="#D7C1B3" stroke-width="0.455513" stroke-linecap="round" stroke-linejoin="round"/>
<path d="M11.3884 24.2318L14.1555 25.5406L14.1379 24.7237L14.3575 22.7823L11.3884 24.2318Z" fill="#D7C1B3" stroke="#D7C1B3" stroke-width="0.455513" stroke-linecap="round" stroke-linejoin="round"/>
<path d="M14.4774 19.3456L12.0002 18.6165L13.7483 17.8171L14.4774 19.3456Z" fill="#233447" stroke="#233447" stroke-width="0.455513" stroke-linecap="round" stroke-linejoin="round"/>
<path d="M11.3889 24.2301L11.8105 20.6637L9.06104 20.7428L11.3889 24.2301Z" fill="#CD6116" stroke="#CD6116" stroke-width="0.455513" stroke-linecap="round" stroke-linejoin="round"/>
<path d="M20.1897 20.6637L20.6113 24.2301L22.9392 20.7428L20.1897 20.6637Z" fill="#CD6116" stroke="#CD6116" stroke-width="0.455513" stroke-linecap="round" stroke-linejoin="round"/>
<path d="M22.2803 16.7374L17.3435 16.957L17.5002 19.317L18.5002 17.317L20.5002 18.317L22.2803 16.7374Z" fill="#CD6116" stroke="#CD6116" stroke-width="0.455513" stroke-linecap="round" stroke-linejoin="round"/>
<path d="M11.5002 18.317L13.5002 17.317L14.5002 19.317L14.6641 16.957L9.71851 16.7374L11.5002 18.317Z" fill="#CD6116" stroke="#CD6116" stroke-width="0.455513" stroke-linecap="round" stroke-linejoin="round"/>
<path d="M9.71899 16.7379L11.7921 20.7787L11.7218 18.7671L9.71899 16.7379Z" fill="#E4751F" stroke="#E4751F" stroke-width="0.455513" stroke-linecap="round" stroke-linejoin="round"/>
<path d="M20.2873 18.7665L20.1995 20.7781L22.2813 16.7373L20.2873 18.7665Z" fill="#E4751F" stroke="#E4751F" stroke-width="0.455513" stroke-linecap="round" stroke-linejoin="round"/>
<path d="M14.6641 16.9572L14.1985 19.4958L14.7782 22.4912L14.91 18.5471L14.6641 16.9572Z" fill="#E4751F" stroke="#E4751F" stroke-width="0.455513" stroke-linecap="round" stroke-linejoin="round"/>
<path d="M17.3439 16.9572L17.1067 18.5383L17.2121 22.4912L17.8006 19.4958L17.3439 16.9572Z" fill="#E4751F" stroke="#E4751F" stroke-width="0.455513" stroke-linecap="round" stroke-linejoin="round"/>
<path d="M17.8005 19.4959L17.2119 22.4914L17.6336 22.7813L20.1986 20.7784L20.2864 18.7668L17.8005 19.4959Z" fill="#F6851B" stroke="#F6851B" stroke-width="0.455513" stroke-linecap="round" stroke-linejoin="round"/>
<path d="M11.7205 18.7668L11.7907 20.7784L14.3557 22.7813L14.7774 22.4914L14.1976 19.4959L11.7205 18.7668Z" fill="#F6851B" stroke="#F6851B" stroke-width="0.455513" stroke-linecap="round" stroke-linejoin="round"/>
<path d="M17.8449 25.5397L17.8712 24.7228L17.6516 24.5295H14.3399L14.1379 24.7228L14.1555 25.5397L11.3884 24.2308L12.3547 25.0214L14.3136 26.383H17.678L19.6457 25.0214L20.6119 24.2308L17.8449 25.5397Z" fill="#C0AD9E" stroke="#C0AD9E" stroke-width="0.455513" stroke-linecap="round" stroke-linejoin="round"/>
<path d="M17.6331 22.7815L17.2115 22.4916H14.7782L14.3566 22.7815L14.137 24.7228L14.339 24.5295H17.6507L17.8703 24.7228L17.6331 22.7815Z" fill="#161616" stroke="#161616" stroke-width="0.455513" stroke-linecap="round" stroke-linejoin="round"/>
<path d="M26.4535 12.5303L27.2001 8.9463L26.0845 5.61707L17.634 11.889L20.8842 14.6385L25.4784 15.9825L26.4974 14.7966L26.0582 14.4804L26.7609 13.8391L26.2163 13.4175L26.919 12.8817L26.4535 12.5303Z" fill="#763D16" stroke="#763D16" stroke-width="0.455513" stroke-linecap="round" stroke-linejoin="round"/>
<path d="M4.80005 8.94618L5.54671 12.5302L5.07236 12.8815L5.77511 13.4174L5.23926 13.839L5.94201 14.4803L5.50279 14.7965L6.51299 15.9824L11.1072 14.6384L14.3574 11.8889L5.90687 5.61694L4.80005 8.94618Z" fill="#763D16" stroke="#763D16" stroke-width="0.455513" stroke-linecap="round" stroke-linejoin="round"/>
<path d="M25.4788 15.9828L20.8846 14.6388L22.2813 16.7382L20.1995 20.779L22.9402 20.7439H27.0249L25.4788 15.9828Z" fill="#F6851B" stroke="#F6851B" stroke-width="0.455513" stroke-linecap="round" stroke-linejoin="round"/>
<path d="M11.1082 14.6388L6.51406 15.9828L4.9856 20.7439H9.0615L11.7934 20.779L9.72033 16.7382L11.1082 14.6388Z" fill="#F6851B" stroke="#F6851B" stroke-width="0.455513" stroke-linecap="round" stroke-linejoin="round"/>
<path d="M17.3436 16.9578L17.6335 11.8893L18.9687 8.27893H13.0393L14.357 11.8893L14.6644 16.9578L14.7698 18.5565L14.7786 22.4919H17.2118L17.2294 18.5565L17.3436 16.9578Z" fill="#F6851B" stroke="#F6851B" stroke-width="0.455513" stroke-linecap="round" stroke-linejoin="round"/>
</svg>
