<svg xmlns="http://www.w3.org/2000/svg" xmlns:xlink="http://www.w3.org/1999/xlink" width="32px" height="32px" viewBox="0 0 32 32" version="1.1">
<g id="surface1">
<path style=" stroke:none;fill-rule:nonzero;fill:rgb(20%,58.823532%,100%);fill-opacity:1;" d="M 16 30.398438 C 23.953125 30.398438 30.398438 23.953125 30.398438 16 C 30.398438 8.046875 23.953125 1.601562 16 1.601562 C 8.046875 1.601562 1.601562 8.046875 1.601562 16 C 1.601562 23.953125 8.046875 30.398438 16 30.398438 Z M 16 30.398438 "/>
<path style=" stroke:none;fill-rule:nonzero;fill:rgb(100%,100%,100%);fill-opacity:1;" d="M 10.40625 12.316406 C 13.496094 9.304688 18.503906 9.304688 21.59375 12.316406 L 21.964844 12.679688 C 22.117188 12.828125 22.117188 13.074219 21.964844 13.222656 L 20.691406 14.464844 C 20.617188 14.539062 20.492188 14.539062 20.414062 14.464844 L 19.902344 13.964844 C 17.746094 11.863281 14.253906 11.863281 12.097656 13.964844 L 11.550781 14.5 C 11.472656 14.574219 11.347656 14.574219 11.269531 14.5 L 10 13.257812 C 9.84375 13.109375 9.84375 12.863281 10 12.714844 Z M 24.222656 14.878906 L 25.355469 15.984375 C 25.507812 16.136719 25.507812 16.378906 25.355469 16.53125 L 20.25 21.507812 C 20.097656 21.65625 19.847656 21.65625 19.691406 21.507812 L 16.070312 17.972656 C 16.03125 17.9375 15.96875 17.9375 15.929688 17.972656 L 12.308594 21.507812 C 12.152344 21.65625 11.902344 21.65625 11.75 21.507812 L 6.644531 16.53125 C 6.492188 16.378906 6.492188 16.136719 6.644531 15.984375 L 7.777344 14.878906 C 7.933594 14.730469 8.183594 14.730469 8.335938 14.878906 L 11.957031 18.414062 C 11.996094 18.449219 12.058594 18.449219 12.097656 18.414062 L 15.71875 14.878906 C 15.875 14.730469 16.125 14.730469 16.28125 14.878906 L 19.902344 18.414062 C 19.941406 18.449219 20.003906 18.449219 20.042969 18.414062 L 23.664062 14.878906 C 23.816406 14.730469 24.066406 14.730469 24.222656 14.878906 Z M 24.222656 14.878906 "/>
</g>
</svg>