<svg width="20" height="20" viewBox="0 0 20 20" fill="none" xmlns="http://www.w3.org/2000/svg">
<g clip-path="url(#clip0_6791_10339)">
<path d="M19.0002 10C19.0002 11.78 18.4724 13.5201 17.4834 15.0001C16.4945 16.4802 15.0889 17.6337 13.4443 18.3149C11.7998 18.9961 9.99021 19.1743 8.24438 18.8271C6.49855 18.4798 4.8949 17.6226 3.63623 16.364M3.63623 16.364V19M3.63623 16.364L6 16" stroke="#00040F" stroke-width="1.2" stroke-linecap="round"/>
<path d="M0.999808 10C0.999808 8.21997 1.52765 6.47991 2.51658 4.99987C3.50551 3.51982 4.91112 2.36627 6.55566 1.68508C8.20019 1.00389 10.0098 0.825664 11.7556 1.17293C13.5015 1.5202 15.1051 2.37737 16.3638 3.63604M16.3638 3.63604L16.3638 1M16.3638 3.63604L14 4" stroke="#00040F" stroke-width="1.2" stroke-linecap="round"/>
<path d="M5 6V9.07692M7.5 10.9231V14M5 10.9231V14M15 6V9.07692M12.5 6V9.07692M15 10.9231V14M8.75 9.07692C8.05966 9.07692 7.5 8.61772 7.5 8.05128V7.02564C7.5 6.45921 8.05966 6 8.75 6C9.44034 6 10 6.45921 10 7.02564V8.05128C10 8.61772 9.44034 9.07692 8.75 9.07692ZM11.25 14C11.9403 14 12.5 13.5408 12.5 12.9744V11.9487C12.5 11.3823 11.9403 10.9231 11.25 10.9231C10.5597 10.9231 10 11.3823 10 11.9487V12.9744C10 13.5408 10.5597 14 11.25 14Z" stroke="#00040F" stroke-width="1.2" stroke-miterlimit="10" stroke-linecap="round" stroke-linejoin="round"/>
</g>
<defs>
<clipPath id="clip0_6791_10339">
<rect width="20" height="20" fill="white"/>
</clipPath>
</defs>
</svg>
