<?xml version="1.0" encoding="utf-8"?>
<!-- Generator: Adobe Illustrator 27.4.1, SVG Export Plug-In . SVG Version: 6.00 Build 0)  -->
<svg version="1.1" id="Слой_1" xmlns="http://www.w3.org/2000/svg" xmlns:xlink="http://www.w3.org/1999/xlink" x="0px" y="0px"
	 viewBox="0 0 1024.1 1024.1" style="enable-background:new 0 0 1024.1 1024.1;" xml:space="preserve">
<style type="text/css">
	.st0{fill:none;}
	.st1{fill-rule:evenodd;clip-rule:evenodd;fill:#FFFFFF;}
</style>
<rect x="-1846.8" y="-102.7" class="st0" width="1225.2" height="1225.2"/>
<g>
	<g>
		<g>
			<defs>
				<path id="SVGID_1_" d="M950.6,253.2L512.1,0L73.6,253.2c-3.6,2-5.7,5.8-5.7,9.9v499.7c0,4.1,2.2,7.9,5.7,9.9l432.7,249.8
					c3.6,2,7.9,2,11.5,0l432.7-249.8c3.6-2,5.7-5.8,5.7-9.9V263.1C956.3,259,954.1,255.2,950.6,253.2z"/>
			</defs>
			
				<linearGradient id="SVGID_00000182507799173663193740000008567310400875427225_" gradientUnits="userSpaceOnUse" x1="114.4869" y1="399.3113" x2="968.9946" y2="642.0034">
				<stop  offset="0" style="stop-color:#AD63E6"/>
				<stop  offset="0.1382" style="stop-color:#B063E0"/>
				<stop  offset="0.3137" style="stop-color:#B763D1"/>
				<stop  offset="0.5093" style="stop-color:#C362B7"/>
				<stop  offset="0.7197" style="stop-color:#D46292"/>
				<stop  offset="0.9395" style="stop-color:#EA6164"/>
				<stop  offset="0.9973" style="stop-color:#F06157"/>
			</linearGradient>
			<use xlink:href="#SVGID_1_"  style="overflow:visible;fill:url(#SVGID_00000182507799173663193740000008567310400875427225_);"/>
			<clipPath id="SVGID_00000099649274116576102540000004106077658153140661_">
				<use xlink:href="#SVGID_1_"  style="overflow:visible;"/>
			</clipPath>
		</g>
	</g>
	<path class="st1" d="M790.3,347.8L512.1,187.2L233.9,347.8c-2.3,1.3-3.6,3.7-3.6,6.3v317c0,2.6,1.4,5,3.6,6.3l274.5,158.5
		c2.3,1.3,5,1.3,7.3,0l274.5-158.5c2.3-1.3,3.6-3.7,3.6-6.3v-317C793.9,351.5,792.5,349.1,790.3,347.8z M318,621.2V403.8
		c0-2.1,1.1-4,2.9-5L509.2,290c1.8-1,4-1,5.8,0l188.3,108.7c1.8,1,2.9,2.9,2.9,5v217.4c0,2.1-1.1,4-2.9,5L515,734.9
		c-1.8,1-4,1-5.8,0L320.9,626.2C319.1,625.2,318,623.3,318,621.2z"/>
</g>
</svg>
