<?xml version="1.0" encoding="utf-8"?>
<!-- Generator: Adobe Illustrator 27.4.1, SVG Export Plug-In . SVG Version: 6.00 Build 0)  -->
<svg version="1.1" id="Слой_1" xmlns="http://www.w3.org/2000/svg" xmlns:xlink="http://www.w3.org/1999/xlink" x="0px" y="0px"
	 viewBox="0 0 1024 1024" style="enable-background:new 0 0 1024 1024;" xml:space="preserve">
<style type="text/css">
	.st0{fill:url(#SVGID_1_);}
	.st1{fill:url(#SVGID_00000035504759799191995920000018250856847002266540_);}
</style>
<g>
	<linearGradient id="SVGID_1_" gradientUnits="userSpaceOnUse" x1="8.552992e-06" y1="479.5808" x2="638.9442" y2="479.5808">
		<stop  offset="0" style="stop-color:#EF7E95"/>
		<stop  offset="1" style="stop-color:#FF7BAC"/>
	</linearGradient>
	<path class="st0" d="M262.5,232.2h137.3l213.1,322l18.4,41.4h7.7l-7.7-41.4V14C593,5,553.1,0,512,0C229.3,0,0,229.3,0,512
		c0,192.2,105.8,359.6,262.5,447.2V232.2z"/>
	
		<linearGradient id="SVGID_00000049911871378790757920000017314765234467651490_" gradientUnits="userSpaceOnUse" x1="385.0558" y1="544.4193" x2="1024" y2="544.4193">
		<stop  offset="0" style="stop-color:#EF7E95"/>
		<stop  offset="1" style="stop-color:#FF7BAC"/>
	</linearGradient>
	<path style="fill:url(#SVGID_00000049911871378790757920000017314765234467651490_);" d="M761.5,64.8v726.9H624.3L411.1,469.9
		l-18.4-41.5h-7.7l7.7,41.4V1010c38.3,9.1,78.1,14,119.2,14c282.7,0,512-229.2,512-512C1024,319.8,918,152.4,761.5,64.8z"/>
</g>
</svg>
