<svg width="24" height="24" viewBox="0 0 24 24" fill="none" xmlns="http://www.w3.org/2000/svg">
<g clip-path="url(#clip0_960_1712)">
<path d="M11.1738 0C4.93175 0.425461 0 5.63545 0 12C0 18.3646 4.93175 23.5745 11.1738 24V22.5893C5.70773 22.1667 1.40368 17.5872 1.40368 12C1.40368 6.41282 5.70773 1.83325 11.1738 1.41071V0Z" fill="url(#paint0_linear_960_1712)"/>
<path d="M12.8262 1.41071C18.2923 1.83325 22.5963 6.41282 22.5963 12C22.5963 17.5872 18.2923 22.1667 12.8262 22.5893V24C19.0682 23.5745 24 18.3646 24 12C24 5.63545 19.0682 0.425461 12.8262 4.72183e-09V1.41071Z" fill="url(#paint1_linear_960_1712)"/>
<path d="M9.36393 8.76622C10.0328 7.93803 10.6131 7.93803 11.4615 7.93803C12.8023 7.93803 14.1639 8.83596 14.1639 10.826V19.0985H12.8262V11.1172C12.8262 10.0615 12.708 9.23946 11.4615 9.23946C10.2151 9.23946 10.0328 10.1222 10.0328 11.2871V14.4056H8.73443V11.1172C8.73443 10.0615 8.57705 9.23946 7.31803 9.23946C6.05902 9.23946 5.94098 10.1222 5.94098 11.2871V14.4056H4.64262V8.0351H5.86766V8.45073C6.26066 7.92717 6.98478 7.93471 7.26789 7.93766H7.26805C7.28667 7.93786 7.30345 7.93803 7.31803 7.93803C7.94754 7.93803 8.73443 7.93803 9.36393 8.76622Z" fill="url(#paint2_linear_960_1712)"/>
<path d="M15.5016 14.1804C15.9145 14.3269 16.3741 14.4058 16.8678 14.4058C18.1827 14.4058 19.0033 13.8929 19.318 13.4986L18.4131 12.5127C18.2557 12.7493 17.4264 13.1042 16.8562 13.1042C16.3894 13.1042 15.885 12.8889 15.5016 12.5333V14.1804Z" fill="url(#paint3_linear_960_1712)"/>
<path d="M14.9898 8.39279C15.2446 8.75647 15.4212 9.21532 15.4801 9.77486C15.866 9.37657 16.3806 9.12138 16.8562 9.12138C17.4264 9.12138 18.1377 9.35777 18.4131 9.75236L19.318 8.88457C18.8852 8.29299 18.1827 7.93829 16.8678 7.93829C16.1591 7.93829 15.5208 8.10095 14.9898 8.39279Z" fill="url(#paint4_linear_960_1712)"/>
</g>
<defs>
<linearGradient id="paint0_linear_960_1712" x1="12" y1="-0.0280367" x2="12" y2="24.0281" gradientUnits="userSpaceOnUse">
<stop stop-color="#F7A714"/>
<stop offset="0.484375" stop-color="#E63B8A"/>
<stop offset="1" stop-color="#484997"/>
</linearGradient>
<linearGradient id="paint1_linear_960_1712" x1="12" y1="-0.0280367" x2="12" y2="24.0281" gradientUnits="userSpaceOnUse">
<stop stop-color="#F7A714"/>
<stop offset="0.484375" stop-color="#E63B8A"/>
<stop offset="1" stop-color="#484997"/>
</linearGradient>
<linearGradient id="paint2_linear_960_1712" x1="12" y1="-0.0280367" x2="12" y2="24.0281" gradientUnits="userSpaceOnUse">
<stop stop-color="#F7A714"/>
<stop offset="0.484375" stop-color="#E63B8A"/>
<stop offset="1" stop-color="#484997"/>
</linearGradient>
<linearGradient id="paint3_linear_960_1712" x1="12" y1="-0.0280367" x2="12" y2="24.0281" gradientUnits="userSpaceOnUse">
<stop stop-color="#F7A714"/>
<stop offset="0.484375" stop-color="#E63B8A"/>
<stop offset="1" stop-color="#484997"/>
</linearGradient>
<linearGradient id="paint4_linear_960_1712" x1="12" y1="-0.0280367" x2="12" y2="24.0281" gradientUnits="userSpaceOnUse">
<stop stop-color="#F7A714"/>
<stop offset="0.484375" stop-color="#E63B8A"/>
<stop offset="1" stop-color="#484997"/>
</linearGradient>
<clipPath id="clip0_960_1712">
<rect width="24" height="24" fill="white"/>
</clipPath>
</defs>
</svg>
