<svg width="24" height="24" viewBox="0 0 24 24" fill="none" xmlns="http://www.w3.org/2000/svg">
<mask id="mask0_12383_9255" style="mask-type:alpha" maskUnits="userSpaceOnUse" x="0" y="0" width="24" height="24">
<path d="M23.9894 10.0441C23.9907 9.95578 24.6668 0 15.0149 0C11.9952 0 0 0.889016 0 9.66209V13.9553L0.0006458 13.9559C0.0006458 22.6854 6.11457 24 8.97509 24C18.984 24 23.9907 19.4486 23.9907 14.3379V10.0447L23.9894 10.0441Z" fill="#F08296"/>
</mask>
<g mask="url(#mask0_12383_9255)">
<path d="M12 26C19.732 26 26 19.732 26 12C26 4.26801 19.732 -2 12 -2C4.26801 -2 -2 4.26801 -2 12C-2 19.732 4.26801 26 12 26Z" fill="#DB1B1B"/>
<path d="M11.9985 15.2666L16.6185 18.5332L14.8919 13.2132L19.4652 9.7599H13.7719L11.9985 4.53323L10.2719 9.7599H4.53186L9.10519 13.2132L7.37853 18.5332L11.9985 15.2666Z" fill="#FFE62E"/>
</g>
</svg>
