<svg width="209" height="32" viewBox="0 0 209 32" fill="none"
  xmlns="http://www.w3.org/2000/svg">
  <g clip-path="url(#clip0_4134_9201)">
    <path d="M49.4857 22.5044L38.6271 3.66069C36.2572 -0.263609 30.4208 -0.298964 28.1217 3.83748L16.7321 23.4236C14.6099 27.0298 17.2273 31.5197 21.5072 31.5197H44.3924C48.6724 31.5551 51.8912 26.8884 49.4857 22.5044Z" fill="#003087"/>
    <path d="M33.8159 23.9893L33.1439 22.8226C32.5072 21.7267 31.1277 19.3933 31.1277 19.3933L21.9312 3.41322C19.5613 -0.122191 13.9019 -0.440384 11.532 4.0496L0.814556 22.5751C-1.41383 26.4641 1.23902 31.5197 6.04952 31.5551H28.7932H38.4848H44.2505C38.3787 31.5905 36.5042 28.5146 33.8159 23.9893Z" fill="#1877F2"/>
    <path d="M33.8169 23.9185L33.1448 22.7518C32.5082 21.6559 31.1287 19.3225 31.1287 19.3225L25.1863 8.85767L16.6618 23.4236C14.5395 27.0297 17.157 31.5197 21.4369 31.5197H28.7588H38.4506H44.2515C38.3444 31.4843 36.5052 28.4792 33.8169 23.9185Z" fill="url(#paint0_linear_4134_9201)"/>
    <path d="M190.856 8.80207C192.447 7.3172 195.241 6.6101 199.309 6.6101H208.824V1.20093H197.576C194.888 1.20093 192.624 1.48377 190.856 2.04943C189.122 2.6151 187.601 3.49894 186.292 4.73634C184.913 6.0798 183.816 7.74143 183.038 9.72126C182.26 11.7364 181.871 13.9284 181.871 16.2264C181.871 18.4184 182.26 20.5396 183.038 22.4841C183.816 24.4286 184.913 26.1256 186.292 27.469C187.566 28.7064 189.087 29.5903 190.785 30.156C192.518 30.7216 194.817 31.0045 197.576 31.0045H208.824V25.666H199.309C197.151 25.666 195.666 25.5953 194.817 25.4185C193.933 25.2417 193.119 24.9589 192.447 24.5346C191.103 23.6861 190.077 22.5901 189.405 21.2113C188.768 19.8679 188.45 18.1709 188.45 16.1911C188.45 12.7971 189.264 10.2869 190.856 8.80207Z" fill="white"/>
    <path d="M108.051 31.0752H134.579V25.8428H114.524V18.3831H132.033V13.4335H114.524V6.50408H134.579V1.23633H108.051V31.0752Z" fill="white"/>
    <path d="M141.191 1.23633L153.607 16.1557L141.191 31.0752H149.221L159.019 19.2669V13.0799L149.221 1.23633H141.191Z" fill="white"/>
    <path d="M171.329 1.23633L161.531 13.0799V19.2669L171.329 31.0752H179.358L166.908 16.1557L179.358 1.23633H171.329Z" fill="white"/>
    <path d="M82.0513 15.9437L70.1311 1.23633H63.9766V31.0752H70.4494V11.1708L80.7779 23.5448H83.2891L93.6175 11.0648V31.0752H100.09V1.23633H94.0067L82.0513 15.9437Z" fill="white"/>
  </g>
  <defs>
    <linearGradient id="paint0_linear_4134_9201" x1="13.6194" y1="16.8221" x2="40.0411" y2="26.5905" gradientUnits="userSpaceOnUse">
      <stop stop-color="#003087" stop-opacity="0"/>
      <stop offset="1" stop-color="#003087"/>
    </linearGradient>
    <clipPath id="clip0_4134_9201">
      <rect width="209" height="32" fill="white"/>
    </clipPath>
  </defs>
</svg>
