<svg width="210" height="32" viewBox="0 0 210 32" fill="none"
  xmlns="http://www.w3.org/2000/svg">
  <g clip-path="url(#clip0_4319_3981)">
    <path d="M49.9857 22.5044L39.1271 3.66069C36.7572 -0.263609 30.9208 -0.298964 28.6217 3.83748L17.2321 23.4236C15.1099 27.0298 17.7273 31.5197 22.0072 31.5197H44.8924C49.1724 31.5551 52.3912 26.8884 49.9857 22.5044Z" fill="#003087"/>
    <path d="M34.3159 23.9893L33.6439 22.8226C33.0072 21.7267 31.6277 19.3933 31.6277 19.3933L22.4312 3.41322C20.0613 -0.122191 14.4019 -0.440384 12.032 4.0496L1.31456 22.5751C-0.913834 26.4641 1.73902 31.5197 6.54952 31.5551H29.2932H38.9848H44.7505C38.8787 31.5905 37.0042 28.5146 34.3159 23.9893Z" fill="#1877F2"/>
    <path d="M34.3169 23.9185L33.6448 22.7518C33.0082 21.6559 31.6287 19.3225 31.6287 19.3225L25.6863 8.85767L17.1618 23.4236C15.0395 27.0297 17.657 31.5197 21.9369 31.5197H29.2588H38.9506H44.7515C38.8444 31.4843 37.0052 28.4792 34.3169 23.9185Z" fill="url(#paint0_linear_4319_3981)"/>
    <path d="M191.356 8.80207C192.947 7.3172 195.741 6.6101 199.809 6.6101H209.324V1.20093H198.076C195.388 1.20093 193.124 1.48377 191.356 2.04943C189.622 2.6151 188.101 3.49894 186.792 4.73634C185.413 6.0798 184.316 7.74143 183.538 9.72126C182.76 11.7364 182.371 13.9284 182.371 16.2264C182.371 18.4184 182.76 20.5396 183.538 22.4841C184.316 24.4286 185.413 26.1256 186.792 27.469C188.066 28.7064 189.587 29.5903 191.285 30.156C193.018 30.7216 195.317 31.0045 198.076 31.0045H209.324V25.666H199.809C197.651 25.666 196.166 25.5953 195.317 25.4185C194.433 25.2417 193.619 24.9589 192.947 24.5346C191.603 23.6861 190.577 22.5901 189.905 21.2113C189.268 19.8679 188.95 18.1709 188.95 16.1911C188.95 12.7971 189.764 10.2869 191.356 8.80207Z" fill="#00040F"/>
    <path d="M108.551 31.0752H135.079V25.8428H115.024V18.3831H132.533V13.4335H115.024V6.50408H135.079V1.23633H108.551V31.0752Z" fill="#00040F"/>
    <path d="M141.691 1.23633L154.107 16.1557L141.691 31.0752H149.721L159.519 19.2669V13.0799L149.721 1.23633H141.691Z" fill="#00040F"/>
    <path d="M171.829 1.23633L162.031 13.0799V19.2669L171.829 31.0752H179.858L167.408 16.1557L179.858 1.23633H171.829Z" fill="#00040F"/>
    <path d="M82.5513 15.9437L70.6311 1.23633H64.4766V31.0752H70.9494V11.1708L81.2779 23.5448H83.7891L94.1175 11.0648V31.0752H100.59V1.23633H94.5067L82.5513 15.9437Z" fill="#00040F"/>
  </g>
  <defs>
    <linearGradient id="paint0_linear_4319_3981" x1="14.1194" y1="16.8221" x2="40.5411" y2="26.5905" gradientUnits="userSpaceOnUse">
      <stop stop-color="#003087" stop-opacity="0"/>
      <stop offset="1" stop-color="#003087"/>
    </linearGradient>
    <clipPath id="clip0_4319_3981">
      <rect width="209" height="32" fill="white" transform="translate(0.5)"/>
    </clipPath>
  </defs>
</svg>
