<svg width="32" height="32" viewBox="0 0 32 32" fill="none" xmlns="http://www.w3.org/2000/svg">
<g filter="url(#filter0_i_10109_3652)">
<path d="M6.65041 13.3524C6.8189 13.7105 7.14117 14.2864 7.36769 14.6824C7.4805 14.8797 7.76224 14.8814 7.87974 14.6869L14.8119 3.21405C14.9796 2.93652 14.6489 2.62721 14.3832 2.81308L7.82718 7.39933C7.37724 7.71083 6.99652 8.12616 6.71963 8.61072C5.9928 10.099 5.9928 11.8295 6.65041 13.3524Z" fill="#9497A2"/>
</g>
<path d="M7.96949 7.60488L7.97049 7.60418L14.5265 3.01793C14.5436 3.00596 14.5536 3.00625 14.5586 3.00681C14.5666 3.00768 14.5782 3.01201 14.5893 3.02238C14.6004 3.03275 14.6055 3.04404 14.6069 3.05193C14.6078 3.05695 14.6087 3.06688 14.5979 3.08476L7.66577 14.5576C7.64547 14.5912 7.60148 14.5877 7.5847 14.5583C7.35822 14.1623 7.04238 13.5975 6.87832 13.2496C6.25046 11.7928 6.25204 10.1435 6.9407 8.72776C7.19893 8.27825 7.55274 7.8934 7.96949 7.60488Z" stroke="#6F727E" stroke-opacity="0.5" stroke-width="0.5"/>
<g filter="url(#filter1_i_10109_3652)">
<path d="M3.53538 17.6439C3.70844 20.1705 4.98905 22.5241 6.99649 24.0469L14.1735 29.0447C14.4481 29.2359 14.7902 28.8998 14.6022 28.623C12.8657 26.066 9.03336 20.3225 5.68127 14.5981C5.23133 13.8021 4.91983 12.9022 4.78138 11.9677C4.75315 11.7983 4.73643 11.6288 4.73123 11.4594C4.7273 11.3317 4.49588 11.2667 4.43528 11.3793C4.43448 11.3808 4.43491 11.38 4.43418 11.3816C3.98482 12.3154 3.67369 13.3184 3.50077 14.3558C3.39694 15.4634 3.39694 16.571 3.53538 17.6439Z" fill="#9497A2"/>
</g>
<path d="M4.48444 11.4057L4.48444 11.4057L4.59207 11.4637L4.48444 11.4057ZM4.48444 11.4057L4.48443 11.4057L4.43528 11.3793L4.48444 11.4057ZM3.7848 17.6268L3.78429 17.6193L3.78333 17.6119C3.64801 16.5632 3.64727 15.4776 3.74884 14.3881C3.89802 13.4974 4.15117 12.6338 4.5078 11.82C4.51522 11.8822 4.52409 11.9444 4.53441 12.0065C4.67751 12.9705 4.9989 13.8989 5.46363 14.7211L5.4636 14.7212L5.46554 14.7245C8.82185 20.456 12.6579 26.2049 14.3954 28.7634C14.4073 28.7809 14.4066 28.7907 14.4058 28.7961C14.4045 28.8049 14.399 28.8184 14.3861 28.8311C14.3731 28.8438 14.3594 28.8493 14.35 28.8505C14.344 28.8513 14.3338 28.8517 14.3163 28.8395L7.14357 23.8447C5.19562 22.3651 3.95277 20.0793 3.7848 17.6268ZM4.6612 11.4862L4.66084 11.487L4.66178 11.4849L4.6612 11.4862ZM4.66444 11.479L4.66425 11.4794L4.66479 11.4782L4.66444 11.479Z" stroke="#6F727E" stroke-opacity="0.5" stroke-width="0.5"/>
<path d="M25.3408 18.6822C25.1723 18.3239 24.8498 17.7477 24.6232 17.3516C24.5105 17.1545 24.229 17.1526 24.1114 17.3468L17.1737 28.7985C17.006 29.0753 17.3349 29.3848 17.601 29.2006L24.1987 24.6353C24.6486 24.3238 25.0294 23.9084 25.3062 23.4239C25.9985 21.9356 26.0331 20.205 25.3408 18.6822Z" fill="#C0C1C5"/>
<path d="M28.4905 14.3562C28.3175 11.8295 27.0368 9.476 25.0294 7.95311L17.8524 2.95536C17.5778 2.76415 17.2357 3.10027 17.4237 3.37708C19.1602 5.93405 22.9925 11.6776 26.3446 17.4019C26.7946 18.198 27.1061 19.0979 27.2445 20.0324C27.2728 20.2018 27.2895 20.3712 27.2947 20.5406C27.2986 20.6684 27.53 20.7333 27.5906 20.6208C27.5914 20.6193 27.591 20.62 27.5917 20.6185C28.0411 19.6846 28.3522 18.6817 28.5251 17.6788C28.5943 16.5367 28.5943 15.4637 28.4905 14.3562Z" fill="#C0C1C5"/>
<defs>
<filter id="filter0_i_10109_3652" x="6.16553" y="2.75684" width="8.69189" height="16.0752" filterUnits="userSpaceOnUse" color-interpolation-filters="sRGB">
<feFlood flood-opacity="0" result="BackgroundImageFix"/>
<feBlend mode="normal" in="SourceGraphic" in2="BackgroundImageFix" result="shape"/>
<feColorMatrix in="SourceAlpha" type="matrix" values="0 0 0 0 0 0 0 0 0 0 0 0 0 0 0 0 0 0 127 0" result="hardAlpha"/>
<feOffset dy="4"/>
<feGaussianBlur stdDeviation="2"/>
<feComposite in2="hardAlpha" operator="arithmetic" k2="-1" k3="1"/>
<feColorMatrix type="matrix" values="0 0 0 0 0 0 0 0 0 0 0 0 0 0 0 0 0 0 0.25 0"/>
<feBlend mode="normal" in2="shape" result="effect1_innerShadow_10109_3652"/>
</filter>
<filter id="filter1_i_10109_3652" x="3.42676" y="11.3213" width="11.2295" height="21.7793" filterUnits="userSpaceOnUse" color-interpolation-filters="sRGB">
<feFlood flood-opacity="0" result="BackgroundImageFix"/>
<feBlend mode="normal" in="SourceGraphic" in2="BackgroundImageFix" result="shape"/>
<feColorMatrix in="SourceAlpha" type="matrix" values="0 0 0 0 0 0 0 0 0 0 0 0 0 0 0 0 0 0 127 0" result="hardAlpha"/>
<feOffset dy="4"/>
<feGaussianBlur stdDeviation="2"/>
<feComposite in2="hardAlpha" operator="arithmetic" k2="-1" k3="1"/>
<feColorMatrix type="matrix" values="0 0 0 0 0 0 0 0 0 0 0 0 0 0 0 0 0 0 0.25 0"/>
<feBlend mode="normal" in2="shape" result="effect1_innerShadow_10109_3652"/>
</filter>
</defs>
</svg>
