<svg width="16" height="16" viewBox="0 0 16 16" fill="none" xmlns="http://www.w3.org/2000/svg">
    <path d="M3.15763 1.92533L3.11452 1.90063L3.0716 1.92567L0.456702 3.451L0.414062 3.47587V3.52524V6.56175V6.61126L0.456859 6.6361L2.54571 7.84866L0.456859 9.0612L0.414062 9.08606V9.13555V12.1475V12.1965L0.456162 12.2215L3.07041 13.7721L3.11359 13.7977L3.15711 13.7726L5.38506 12.491L7.98581 11.0255L10.586 12.4909L12.819 13.7723L12.8623 13.7971L12.9053 13.7719L15.5436 12.2222L15.586 12.1973V12.1481V9.13525V9.08565L15.543 9.06086L13.4446 7.84866L15.543 6.6365L15.586 6.61165V6.56205V3.52466V3.47505L15.543 3.45024L12.9041 1.92584L12.8614 1.90114L12.8185 1.92564L7.98246 4.6891L3.15763 1.92533ZM0.998342 4.14998L4.96621 6.4436L3.12762 7.51085L0.998342 6.27485V4.14998ZM5.54846 6.1053L1.28797 3.64252L3.11717 2.5755L7.39826 5.02779L5.54846 6.1053ZM9.83931 6.43985L7.98261 7.48925L6.13496 6.43985L7.98266 5.36355L9.83931 6.43985ZM15.0017 6.2744L12.8606 7.51125L11.0123 6.4436L15.0017 4.14875V6.2744ZM14.7089 3.64314L10.4279 6.1057L8.56791 5.02749L12.8598 2.57499L14.7089 3.64314ZM14.7098 9.25425L12.861 10.3222L8.56976 7.82855L10.4258 6.7795L14.7098 9.25425ZM13.1527 12.9489V10.8285L15.0017 9.76041V11.8629L13.1527 12.9489ZM8.27441 8.3327L12.5685 10.828V12.9549L8.27441 10.4907V8.3327ZM7.69016 8.3333V10.4909L3.40799 12.9543V10.8278L7.69016 8.3333ZM3.11595 10.3217L1.28706 9.25485L5.55061 6.7799L7.39641 7.82825L3.11595 10.3217ZM0.998342 11.8637V9.7629L2.82371 10.8277V12.9464L0.998342 11.8637Z" fill="#00040F"/>
</svg>
