<svg width="32" height="32" viewBox="0 0 32 32" fill="none" xmlns="http://www.w3.org/2000/svg">
<g filter="url(#filter0_i_10138_3979)">
<path d="M27.2002 9.6002C27.2002 13.1348 24.3348 16.0002 20.8002 16.0002C18.7392 16.0002 16.9059 15.0261 15.7354 13.5132C15.5813 13.314 15.3091 13.2402 15.0839 13.3528L13.4216 14.1839C13.1186 14.3354 13.051 14.7388 13.2563 15.0081C13.974 15.9495 14.4002 17.125 14.4002 18.4002C14.4002 18.8475 14.3477 19.2826 14.2487 19.6996C14.1922 19.9373 14.2945 20.1893 14.5118 20.301L18.0883 22.1401C18.3012 22.2496 18.5595 22.1903 18.726 22.0183C19.4531 21.2672 20.4721 20.8002 21.6002 20.8002C23.8093 20.8002 25.6002 22.5911 25.6002 24.8002C25.6002 27.0093 23.8093 28.8002 21.6002 28.8002C19.3911 28.8002 17.6002 27.0093 17.6002 24.8002C17.6002 24.5799 17.618 24.3638 17.6523 24.1533C17.6901 23.9208 17.5876 23.6818 17.3781 23.5741L13.8272 21.7481C13.6026 21.6326 13.329 21.7044 13.171 21.9014C12.1447 23.181 10.5681 24.0002 8.8002 24.0002C5.7074 24.0002 3.2002 21.493 3.2002 18.4002C3.2002 15.3074 5.7074 12.8002 8.8002 12.8002C9.63514 12.8002 10.4274 12.9829 11.1392 13.3106C11.2843 13.3773 11.4521 13.3798 11.5949 13.3084L14.367 11.9224C14.5924 11.8097 14.6965 11.5474 14.6296 11.3045C14.4801 10.7618 14.4002 10.1903 14.4002 9.6002C14.4002 6.06557 17.2656 3.2002 20.8002 3.2002C24.3348 3.2002 27.2002 6.06557 27.2002 9.6002Z" fill="#9497A2"/>
</g>
<path d="M26.9502 9.6002C26.9502 12.9967 24.1967 15.7502 20.8002 15.7502C18.8199 15.7502 17.0583 14.8146 15.9331 13.3602C15.7124 13.075 15.3132 12.9586 14.9721 13.1292L13.3098 13.9603C12.848 14.1912 12.7701 14.7828 13.0575 15.1597C13.7432 16.059 14.1502 17.1817 14.1502 18.4002C14.1502 18.8279 14.1001 19.2436 14.0054 19.6418C13.925 19.9802 14.0679 20.3539 14.3974 20.5233L17.9739 22.3625C18.2978 22.529 18.6732 22.4323 18.9056 22.1922C19.5876 21.4877 20.5426 21.0502 21.6002 21.0502C23.6712 21.0502 25.3502 22.7291 25.3502 24.8002C25.3502 26.8712 23.6712 28.5502 21.6002 28.5502C19.5291 28.5502 17.8502 26.8712 17.8502 24.8002C17.8502 24.5934 17.8669 24.3907 17.899 24.1934C17.9518 23.8689 17.8111 23.5157 17.4925 23.3518L13.9415 21.5257C13.6009 21.3506 13.2008 21.4647 12.976 21.745C11.9951 22.9679 10.4891 23.7502 8.8002 23.7502C5.84547 23.7502 3.4502 21.3549 3.4502 18.4002C3.4502 15.4455 5.84547 13.0502 8.8002 13.0502C9.59833 13.0502 10.355 13.2248 11.0347 13.5377C11.243 13.6335 11.4906 13.6401 11.7067 13.532L14.4788 12.146C14.8202 11.9753 14.9665 11.5858 14.8706 11.238C14.727 10.7168 14.6502 10.1677 14.6502 9.6002C14.6502 6.20364 17.4037 3.4502 20.8002 3.4502C24.1967 3.4502 26.9502 6.20364 26.9502 9.6002Z" stroke="#6F727E" stroke-opacity="0.5" stroke-width="0.5"/>
<defs>
<filter id="filter0_i_10138_3979" x="3.2002" y="3.2002" width="24" height="29.5996" filterUnits="userSpaceOnUse" color-interpolation-filters="sRGB">
<feFlood flood-opacity="0" result="BackgroundImageFix"/>
<feBlend mode="normal" in="SourceGraphic" in2="BackgroundImageFix" result="shape"/>
<feColorMatrix in="SourceAlpha" type="matrix" values="0 0 0 0 0 0 0 0 0 0 0 0 0 0 0 0 0 0 127 0" result="hardAlpha"/>
<feOffset dy="4"/>
<feGaussianBlur stdDeviation="2"/>
<feComposite in2="hardAlpha" operator="arithmetic" k2="-1" k3="1"/>
<feColorMatrix type="matrix" values="0 0 0 0 0 0 0 0 0 0 0 0 0 0 0 0 0 0 0.25 0"/>
<feBlend mode="normal" in2="shape" result="effect1_innerShadow_10138_3979"/>
</filter>
</defs>
</svg>
