<svg width="157" height="44" viewBox="0 0 157 44" fill="none" xmlns="http://www.w3.org/2000/svg">
<path fill-rule="evenodd" clip-rule="evenodd" d="M30.6388 0.937636L0.000150804 31.5763L1.35877e-05 43.0126L11.4364 43.0125L42.0751 12.3739L42.0751 0.9375L30.6388 0.937636ZM3.21066 32.9061L3.21058 39.802L10.1066 39.802L38.8645 11.0441L38.8646 4.14807L31.9687 4.14815L3.21066 32.9061Z" fill="#00BFFF"/>
<path d="M4.4259 16.7997L6.69608 14.5295L3.21065 11.044L3.21057 4.14814L10.1066 4.14816L13.592 7.63357L15.8622 5.36339L11.4364 0.937632L0 0.937606L0.000137022 12.3739L4.4259 16.7997Z" fill="#00BFFF"/>
<path d="M30.6388 43.0125L26.2248 38.5986L28.495 36.3284L31.9686 39.802L38.8645 39.8021L38.8645 32.9061L35.3909 29.4325L37.6611 27.1623L42.0751 31.5763L42.0751 43.0127L30.6388 43.0125Z" fill="#00BFFF"/>
<path d="M53.4844 19.9678L58.0296 12.5259L53.4844 5.08398H56.1456L59.372 10.477L62.5984 5.08398H65.2596L60.6908 12.5259L65.2596 19.9678H62.5984L59.372 14.5748L56.1456 19.9678H53.4844Z" fill="white"/>
<path d="M72.0329 7.32127L71.4912 7.86293V10.9009H78.5563V13.1382H71.4912V19.9678H69.2539V6.94446L71.1144 5.08398H81.0291V7.32127H72.0329Z" fill="white"/>
<path d="M92.0415 7.32127V17.7305H96.7987V19.9678H85.0235V17.7305H89.8042V7.32127H85.0235V5.08398H96.7987V7.32127H92.0415Z" fill="white"/>
<path d="M63.5678 24.2383L65.3646 26.0351V29.0375H63.2039V26.9222L62.6807 26.399H56.6761L56.153 26.9222V35.9291L56.6761 36.4523H62.6807L63.2039 35.9291V33.8139H65.3646V36.8162L63.5678 38.613H55.789L53.9922 36.8162V26.0351L55.789 24.2383H63.5678Z" fill="#00BFFF"/>
<path d="M78.798 24.2383L80.5948 26.0351V36.8162L78.798 38.613H71.0192L69.2224 36.8162V26.0351L71.0192 24.2383H78.798ZM78.4341 35.9291V26.9222L77.9109 26.399H71.9063L71.3831 26.9222V35.9291L71.9063 36.4523H77.9109L78.4341 35.9291Z" fill="#00BFFF"/>
<path d="M93.6642 24.2383H95.825V38.613H93.6642L86.6133 28.1049V38.613H84.4526V24.2383H86.6133L93.6642 34.7009V24.2383Z" fill="#00BFFF"/>
<path d="M109.258 24.2383L111.055 26.0351V28.4233H108.894V26.9222L108.371 26.399H102.367L101.844 26.9222V29.5151L102.367 30.0382H109.258L111.055 31.8351V36.8162L109.258 38.613H101.48L99.6827 36.8162V34.428H101.844V35.9291L102.367 36.4523H108.371L108.894 35.9291V32.7221L108.371 32.199H101.48L99.6827 30.4021V26.0351L101.48 24.2383H109.258Z" fill="#00BFFF"/>
<path d="M124.489 24.2383L126.285 26.0351V36.8162L124.489 38.613H116.71L114.913 36.8162V26.0351L116.71 24.2383H124.489ZM124.125 35.9291V26.9222L123.601 26.399H117.597L117.074 26.9222V35.9291L117.597 36.4523H123.601L124.125 35.9291Z" fill="#00BFFF"/>
<path d="M132.827 36.4523H141.516V38.613H131.94L130.143 36.8162V24.2383H132.304V35.9291L132.827 36.4523Z" fill="#00BFFF"/>
<path d="M148.057 26.399L147.534 26.9222V29.8563H154.358V32.017H147.534V36.4523H156.746V38.613H145.373V26.0351L147.17 24.2383H156.746V26.399H148.057Z" fill="#00BFFF"/>
<path fill-rule="evenodd" clip-rule="evenodd" d="M55.6842 23.9829H63.6739L65.6198 25.9289V29.2912H62.95V27.0268L62.5759 26.6528H56.7822L56.4081 27.0268V35.8229L56.7822 36.1969H62.5759L62.95 35.8229V33.5585H65.6198V36.9208L63.6739 38.8668H55.6842L53.7383 36.9208V25.9289L55.6842 23.9829ZM55.8951 24.492L54.2474 26.1397V36.7099L55.8951 38.3577H63.463L65.1107 36.7099V34.0676H63.459V36.0338L62.7868 36.706H56.5713L55.899 36.0338V26.8159L56.5713 26.1437H62.7868L63.459 26.8159V28.7821H65.1107V26.1397L63.463 24.492H55.8951ZM70.9144 23.9829H78.904L80.85 25.9289V36.9208L78.904 38.8668H70.9144L68.9685 36.9208V25.9289L70.9144 23.9829ZM71.1253 24.492L69.4775 26.1397V36.7099L71.1253 38.3577H78.6932L80.3409 36.7099V26.1397L78.6932 24.492H71.1253ZM84.1987 23.9829H86.7494L93.4103 33.8669V23.9829H96.0802V38.8668H93.5291L86.8685 28.9403V38.8668H84.1987V23.9829ZM84.7077 24.492V38.3577H86.3594V27.2679L93.8006 38.3577H95.5711V24.492H93.9194V35.5333L86.4785 24.492H84.7077ZM101.375 23.9829H109.364L111.31 25.9289V28.677H108.641V27.0268L108.266 26.6528H102.473L102.099 27.0268V29.4088L102.473 29.7829H109.364L111.31 31.7288V36.9208L109.364 38.8668H101.375L99.4288 36.9208V34.1726H102.099V35.8229L102.473 36.1969H108.266L108.641 35.8229V32.8267L108.266 32.4527H101.375L99.4288 30.5067V25.9289L101.375 23.9829ZM101.586 24.492L99.9379 26.1397V30.2959L101.586 31.9436H108.477L109.15 32.6159V36.0338L108.477 36.706H102.262L101.59 36.0338V34.6817H99.9379V36.7099L101.586 38.3577H109.154L110.801 36.7099V31.9397L109.154 30.2919H102.262L101.59 29.6197V26.8159L102.262 26.1437H108.477L109.15 26.8159V28.168H110.801V26.1397L109.154 24.492H101.586ZM116.605 23.9829H124.595L126.541 25.9289V36.9208L124.595 38.8668H116.605L114.659 36.9208V25.9289L116.605 23.9829ZM116.816 24.492L115.168 26.1397V36.7099L116.816 38.3577H124.384L126.031 36.7099V26.1397L124.384 24.492H116.816ZM129.889 23.9829H132.559V35.8229L132.933 36.1969H141.771V38.8668H131.835L129.889 36.9208V23.9829ZM130.398 24.492V36.7099L132.046 38.3577H141.262V36.706H132.722L132.05 36.0338V24.492H130.398ZM147.065 23.9829H157.001V26.6528H148.163L147.789 27.0268V29.6009H154.613V32.2707H147.789V36.1969H157.001V38.8668H145.119V25.9289L147.065 23.9829ZM147.276 24.492L145.628 26.1397V38.3577H156.492V36.706H147.28V31.7617H154.104V30.11H147.28V26.8159L147.952 26.1437H156.492V24.492H147.276ZM71.8015 26.1437H78.017L78.6892 26.8159V36.0338L78.017 36.706H71.8015L71.1292 36.0338V26.8159L71.8015 26.1437ZM72.0123 26.6528L71.6383 27.0268V35.8229L72.0123 36.1969H77.8061L78.1801 35.8229V27.0268L77.8061 26.6528H72.0123ZM117.492 26.1437H123.708L124.38 26.8159V36.0338L123.708 36.706H117.492L116.82 36.0338V26.8159L117.492 26.1437ZM117.703 26.6528L117.329 27.0268V35.8229L117.703 36.1969H123.497L123.871 35.8229V27.0268L123.497 26.6528H117.703Z" fill="#00BFFF"/>
</svg>
