<svg width="20" height="20" viewBox="0 0 20 20" fill="none" xmlns="http://www.w3.org/2000/svg">
<mask id="path-1-inside-1_11456_13651" fill="white">
<path fill-rule="evenodd" clip-rule="evenodd" d="M2.72675 5.94509C2.72675 4.69273 2.91395 4.06509 3.31743 3.71204C3.73918 3.34302 4.50005 3.17596 5.94492 3.17596H7.02264C7.53457 3.17596 7.79329 3.24273 7.96127 3.33102C8.13279 3.42118 8.25038 3.55179 8.46286 3.79969L9.54058 5.05702L9.54057 5.05703L9.54218 5.05888L9.56151 5.08117C9.68518 5.22396 9.83347 5.39516 10.0575 5.51363C10.2979 5.64076 10.5869 5.69063 10.9743 5.69063H13.1297C14.5746 5.69063 15.3354 5.85769 15.7572 6.22671C16.1607 6.57976 16.3479 7.20739 16.3479 8.45976V10.9292C16.6161 11.0536 16.867 11.2087 17.0963 11.3902V8.45976C17.0963 7.19746 16.9242 6.25343 16.25 5.66347C15.594 5.0895 14.5587 4.94222 13.1297 4.94222H10.9743C10.6431 4.94222 10.4939 4.89779 10.4074 4.85204C10.3164 4.80395 10.2529 4.73578 10.108 4.56904L9.0311 3.31263L9.01324 3.29178C8.82154 3.06793 8.6187 2.83109 8.30949 2.66855C7.9871 2.49909 7.58842 2.42755 7.02264 2.42755H5.94492C4.51589 2.42755 3.48057 2.57483 2.8246 3.14881C2.15037 3.73876 1.97833 4.68279 1.97833 5.94509V12.2318C1.97833 13.4941 2.15037 14.4381 2.8246 15.028C3.48057 15.602 4.51589 15.7493 5.94492 15.7493H11.3139C11.2159 15.5112 11.1417 15.2607 11.0944 15.0009H5.94492C4.50005 15.0009 3.73918 14.8338 3.31743 14.4648C2.91395 14.1118 2.72675 13.4841 2.72675 12.2318V5.94509Z"/>
</mask>
<path fill-rule="evenodd" clip-rule="evenodd" d="M2.72675 5.94509C2.72675 4.69273 2.91395 4.06509 3.31743 3.71204C3.73918 3.34302 4.50005 3.17596 5.94492 3.17596H7.02264C7.53457 3.17596 7.79329 3.24273 7.96127 3.33102C8.13279 3.42118 8.25038 3.55179 8.46286 3.79969L9.54058 5.05702L9.54057 5.05703L9.54218 5.05888L9.56151 5.08117C9.68518 5.22396 9.83347 5.39516 10.0575 5.51363C10.2979 5.64076 10.5869 5.69063 10.9743 5.69063H13.1297C14.5746 5.69063 15.3354 5.85769 15.7572 6.22671C16.1607 6.57976 16.3479 7.20739 16.3479 8.45976V10.9292C16.6161 11.0536 16.867 11.2087 17.0963 11.3902V8.45976C17.0963 7.19746 16.9242 6.25343 16.25 5.66347C15.594 5.0895 14.5587 4.94222 13.1297 4.94222H10.9743C10.6431 4.94222 10.4939 4.89779 10.4074 4.85204C10.3164 4.80395 10.2529 4.73578 10.108 4.56904L9.0311 3.31263L9.01324 3.29178C8.82154 3.06793 8.6187 2.83109 8.30949 2.66855C7.9871 2.49909 7.58842 2.42755 7.02264 2.42755H5.94492C4.51589 2.42755 3.48057 2.57483 2.8246 3.14881C2.15037 3.73876 1.97833 4.68279 1.97833 5.94509V12.2318C1.97833 13.4941 2.15037 14.4381 2.8246 15.028C3.48057 15.602 4.51589 15.7493 5.94492 15.7493H11.3139C11.2159 15.5112 11.1417 15.2607 11.0944 15.0009H5.94492C4.50005 15.0009 3.73918 14.8338 3.31743 14.4648C2.91395 14.1118 2.72675 13.4841 2.72675 12.2318V5.94509Z" fill="#00040F"/>
<path d="M3.31743 3.71204L3.81027 4.27528L3.31743 3.71204ZM7.96127 3.33102L7.61305 3.99349L7.61305 3.99349L7.96127 3.33102ZM8.46286 3.79969L9.0311 3.31263L9.0311 3.31263L8.46286 3.79969ZM9.54058 5.05702L10.024 5.62835L10.599 5.14183L10.1088 4.56996L9.54058 5.05702ZM9.54057 5.05703L9.05714 4.4857L8.47833 4.97546L8.97558 5.54785L9.54057 5.05703ZM9.54218 5.05888L10.1077 4.56862L10.1072 4.56805L9.54218 5.05888ZM9.56151 5.08117L10.1272 4.59118L10.127 4.59091L9.56151 5.08117ZM10.0575 5.51363L9.70761 6.17522V6.17522L10.0575 5.51363ZM15.7572 6.22671L16.25 5.66347L16.25 5.66347L15.7572 6.22671ZM16.3479 10.9292H15.5995V11.4072L16.0331 11.6082L16.3479 10.9292ZM17.0963 11.3902L16.6318 11.977L17.8447 12.937V11.3902H17.0963ZM16.25 5.66347L16.7428 5.10024L16.7428 5.10024L16.25 5.66347ZM10.4074 4.85204L10.7573 4.19044L10.7572 4.19044L10.4074 4.85204ZM10.108 4.56904L9.53978 5.05611L9.54302 5.05985L10.108 4.56904ZM9.0311 3.31263L8.46272 3.79952L8.46286 3.79969L9.0311 3.31263ZM9.01324 3.29178L8.4448 3.7786L8.44486 3.77868L9.01324 3.29178ZM8.30949 2.66855L8.65771 2.00609L8.65771 2.00609L8.30949 2.66855ZM2.8246 3.14881L2.33177 2.58557L2.33177 2.58557L2.8246 3.14881ZM2.8246 15.028L3.31743 14.4648H3.31743L2.8246 15.028ZM11.3139 15.7493V16.4977H12.4312L12.0059 15.4645L11.3139 15.7493ZM11.0944 15.0009L11.8307 14.8668L11.7188 14.2525H11.0944V15.0009ZM3.31743 14.4648L3.81027 13.9016H3.81027L3.31743 14.4648ZM2.8246 3.14881C2.15028 3.73884 1.97833 4.68304 1.97833 5.94509H3.47516C3.47516 4.70241 3.67763 4.39134 3.81027 4.27528L2.8246 3.14881ZM5.94492 2.42755C5.20106 2.42755 4.59147 2.46988 4.09544 2.57282C3.59664 2.67633 3.16542 2.85059 2.8246 3.14881L3.81027 4.27528C3.89119 4.20447 4.05128 4.1107 4.39957 4.03842C4.75063 3.96557 5.24391 3.92438 5.94492 3.92438V2.42755ZM7.02264 2.42755H5.94492V3.92438H7.02264V2.42755ZM8.30949 2.66855C7.98703 2.49906 7.5883 2.42755 7.02264 2.42755V3.92438C7.48083 3.92438 7.59955 3.9864 7.61305 3.99349L8.30949 2.66855ZM9.0311 3.31263C8.83631 3.08538 8.62935 2.83669 8.30949 2.66855L7.61305 3.99349C7.62216 3.99828 7.63767 4.00668 7.67621 4.04399C7.72439 4.09061 7.78461 4.1584 7.89462 4.28675L9.0311 3.31263ZM10.1088 4.56996L9.0311 3.31263L7.89462 4.28675L8.97234 5.54408L10.1088 4.56996ZM10.024 5.62836L10.024 5.62835L9.05714 4.48569L9.05714 4.4857L10.024 5.62836ZM10.1072 4.56805L10.1056 4.5662L8.97558 5.54785L8.97719 5.5497L10.1072 4.56805ZM10.127 4.59091L10.1077 4.56862L8.9767 5.54914L8.99602 5.57143L10.127 4.59091ZM10.4074 4.85204C10.3223 4.80704 10.2557 4.73956 10.1272 4.59118L8.9958 5.57117C9.11463 5.70836 9.34465 5.98327 9.70761 6.17522L10.4074 4.85204ZM10.9743 4.94222C10.6432 4.94222 10.4939 4.89782 10.4074 4.85204L9.70761 6.17522C10.1018 6.38369 10.5305 6.43905 10.9743 6.43905V4.94222ZM13.1297 4.94222H10.9743V6.43905H13.1297V4.94222ZM16.25 5.66347C15.9092 5.36526 15.478 5.19099 14.9792 5.08749C14.4831 4.98455 13.8735 4.94222 13.1297 4.94222V6.43905C13.8307 6.43905 14.324 6.48024 14.675 6.55309C15.0233 6.62536 15.1834 6.71914 15.2643 6.78995L16.25 5.66347ZM17.0963 8.45976C17.0963 7.19771 16.9243 6.25351 16.25 5.66347L15.2643 6.78995C15.397 6.90601 15.5995 7.21708 15.5995 8.45976H17.0963ZM17.0963 10.9292V8.45976H15.5995V10.9292H17.0963ZM16.0331 11.6082C16.2474 11.7076 16.4482 11.8317 16.6318 11.977L17.5608 10.8033C17.2859 10.5858 16.9847 10.3996 16.6626 10.2503L16.0331 11.6082ZM16.3479 8.45976V11.3902H17.8447V8.45976H16.3479ZM15.7572 6.22671C16.1607 6.57982 16.3479 7.20759 16.3479 8.45976H17.8447C17.8447 7.18733 17.6878 5.92704 16.7428 5.10024L15.7572 6.22671ZM13.1297 5.69063C14.5736 5.69063 15.3351 5.85743 15.7572 6.22671L16.7428 5.10024C15.8529 4.32157 14.5438 4.19381 13.1297 4.19381V5.69063ZM10.9743 5.69063H13.1297V4.19381H10.9743V5.69063ZM10.0575 5.51363C10.298 5.6408 10.587 5.69063 10.9743 5.69063V4.19381C10.6993 4.19381 10.6898 4.15479 10.7573 4.19044L10.0575 5.51363ZM9.54302 5.05985C9.66624 5.2017 9.82023 5.38816 10.0575 5.51363L10.7572 4.19044C10.7688 4.19656 10.781 4.20426 10.7917 4.21226C10.8012 4.21943 10.8041 4.22278 10.7983 4.21718C10.7918 4.21085 10.7794 4.19825 10.7574 4.17399C10.7355 4.14976 10.7088 4.11939 10.673 4.07824L9.54302 5.05985ZM8.46286 3.79969L9.53979 5.0561L10.6763 4.08198L9.59934 2.82557L8.46286 3.79969ZM8.44486 3.77868L8.46272 3.79952L9.59948 2.82573L9.58162 2.80488L8.44486 3.77868ZM7.96127 3.33102C8.12681 3.41804 8.2454 3.54577 8.4448 3.7786L9.58169 2.80496C9.39768 2.5901 9.11059 2.24414 8.65771 2.00609L7.96127 3.33102ZM7.02264 3.17596C7.53448 3.17596 7.79325 3.2427 7.96127 3.33102L8.65771 2.00609C8.18095 1.75548 7.64237 1.67914 7.02264 1.67914V3.17596ZM5.94492 3.17596H7.02264V1.67914H5.94492V3.17596ZM3.31743 3.71204C3.73947 3.34276 4.501 3.17596 5.94492 3.17596V1.67914C4.53077 1.67914 3.22167 1.8069 2.33177 2.58557L3.31743 3.71204ZM2.72675 5.94509C2.72675 4.69292 2.91388 4.06515 3.31743 3.71204L2.33177 2.58557C1.38685 3.41237 1.22992 4.67266 1.22992 5.94509H2.72675ZM2.72675 12.2318V5.94509H1.22992V12.2318H2.72675ZM3.31743 14.4648C2.91388 14.1117 2.72675 13.4839 2.72675 12.2318H1.22992C1.22992 13.5042 1.38685 14.7645 2.33177 15.5913L3.31743 14.4648ZM5.94492 15.0009C4.501 15.0009 3.73947 14.8341 3.31743 14.4648L2.33177 15.5913C3.22167 16.37 4.53077 16.4977 5.94492 16.4977V15.0009ZM11.3139 15.0009H5.94492V16.4977H11.3139V15.0009ZM12.0059 15.4645C11.9277 15.2743 11.8685 15.0744 11.8307 14.8668L10.3581 15.135C10.4149 15.4471 10.504 15.748 10.6218 16.0341L12.0059 15.4645ZM5.94492 15.7493H11.0944V14.2525H5.94492V15.7493ZM2.8246 15.028C3.16542 15.3263 3.59664 15.5005 4.09544 15.604C4.59147 15.707 5.20106 15.7493 5.94492 15.7493V14.2525C5.24391 14.2525 4.75063 14.2113 4.39957 14.1384C4.05128 14.0662 3.89119 13.9724 3.81027 13.9016L2.8246 15.028ZM1.97833 12.2318C1.97833 13.4938 2.15028 14.438 2.8246 15.028L3.81027 13.9016C3.67763 13.7855 3.47516 13.4744 3.47516 12.2318H1.97833ZM1.97833 5.94509V12.2318H3.47516V5.94509H1.97833Z" fill="#0AA5D9" mask="url(#path-1-inside-1_11456_13651)"/>
<circle cx="14.2792" cy="13.8304" r="3.36786" stroke="#0AA5D9" stroke-width="0.748413"/>
<path d="M14.2793 12.708V14.9532" stroke="#0AA5D9" stroke-width="0.748413" stroke-linecap="round"/>
<path d="M13.1567 13.8301H15.402" stroke="#0AA5D9" stroke-width="0.748413" stroke-linecap="round"/>
</svg>
