<svg width="20" height="20" viewBox="0 0 20 20" fill="none"
  xmlns="http://www.w3.org/2000/svg">
  <path fill-rule="evenodd" clip-rule="evenodd" d="M19 10C19 14.9706 14.9706 19 10 19C5.02944 19 1 14.9706 1 10C1 5.02944 5.02944 1 10 1C14.9706 1 19 5.02944 19 10ZM13.4243 6.57574C13.6586 6.81005 13.6586 7.18995 13.4243 7.42426L10.8485 10L13.4243 12.5757C13.6586 12.8101 13.6586 13.1899 13.4243 13.4243C13.1899 13.6586 12.8101 13.6586 12.5757 13.4243L10 10.8485L7.42426 13.4243C7.18995 13.6586 6.81005 13.6586 6.57574 13.4243C6.34142 13.1899 6.34142 12.8101 6.57574 12.5757L9.15147 10L6.57574 7.42426C6.34142 7.18995 6.34142 6.81005 6.57574 6.57574C6.81005 6.34142 7.18995 6.34142 7.42426 6.57574L10 9.15147L12.5757 6.57574C12.8101 6.34142 13.1899 6.34142 13.4243 6.57574Z" fill="#FF2A02"/>
</svg>
