<svg width="32" height="32" viewBox="0 0 32 32" fill="none" xmlns="http://www.w3.org/2000/svg">
<g filter="url(#filter0_bi_12197_14660)">
<path d="M11.7534 11.7538C16.6128 11.7538 20.2437 9.83279 20.2437 8.11513C20.2437 6.39762 16.6127 4.47656 11.7534 4.47656C6.89415 4.47656 3.26318 6.39762 3.26318 8.11513C3.26318 9.83279 6.89406 11.7538 11.7534 11.7538Z" fill="black" fill-opacity="0.1"/>
<path d="M11.7534 11.7538C16.6128 11.7538 20.2437 9.83279 20.2437 8.11513C20.2437 6.39762 16.6127 4.47656 11.7534 4.47656C6.89415 4.47656 3.26318 6.39762 3.26318 8.11513C3.26318 9.83279 6.89406 11.7538 11.7534 11.7538Z" fill="url(#paint0_linear_12197_14660)"/>
<path d="M20.032 8.11513C20.032 8.46803 19.8446 8.85974 19.4498 9.25959C19.0568 9.65767 18.4749 10.0457 17.7326 10.3862C16.249 11.0666 14.1573 11.5421 11.7534 11.5421C9.34953 11.5421 7.2578 11.0666 5.77429 10.3862C5.03201 10.0457 4.45012 9.65768 4.05705 9.25959C3.66224 8.85974 3.47485 8.46803 3.47485 8.11513C3.47485 7.76227 3.66224 7.37059 4.05706 6.97075C4.45014 6.57267 5.03203 6.18464 5.77432 5.84417C7.25784 5.16373 9.34958 4.68823 11.7534 4.68823C14.1572 4.68823 16.249 5.16373 17.7325 5.84417C18.4748 6.18464 19.0567 6.57267 19.4498 6.97075C19.8447 7.37059 20.032 7.76227 20.032 8.11513Z" stroke="url(#paint1_linear_12197_14660)" stroke-opacity="0.4" stroke-width="0.423329"/>
</g>
<g filter="url(#filter1_bi_12197_14660)">
<path d="M11.7534 26.3084C12.4627 26.3084 13.1453 26.2672 13.7946 26.1921C13.2473 25.4886 12.7946 24.708 12.4555 23.8697C12.2226 23.8776 11.9887 23.883 11.7533 23.883C8.97671 23.883 6.3472 23.3328 4.34939 22.3338C3.95602 22.1372 3.59404 21.9258 3.26318 21.7021V22.6699C3.26318 24.3874 6.89406 26.3084 11.7534 26.3084Z" fill="black" fill-opacity="0.1"/>
<path d="M11.7534 26.3084C12.4627 26.3084 13.1453 26.2672 13.7946 26.1921C13.2473 25.4886 12.7946 24.708 12.4555 23.8697C12.2226 23.8776 11.9887 23.883 11.7533 23.883C8.97671 23.883 6.3472 23.3328 4.34939 22.3338C3.95602 22.1372 3.59404 21.9258 3.26318 21.7021V22.6699C3.26318 24.3874 6.89406 26.3084 11.7534 26.3084Z" fill="url(#paint2_linear_12197_14660)"/>
<path d="M3.47485 22.0905V22.6699C3.47485 23.0227 3.66224 23.4144 4.05705 23.8143C4.45012 24.2123 5.03201 24.6004 5.77429 24.9408C7.2578 25.6213 9.34954 26.0968 11.7534 26.0968C12.3215 26.0968 12.8722 26.07 13.4019 26.0204C12.9715 25.4219 12.6061 24.7735 12.3158 24.0858C12.1296 24.0912 11.9422 24.0946 11.7533 24.0946C8.95167 24.0946 6.28821 23.5399 4.25473 22.5232L3.47485 22.0905ZM3.47485 22.0905C3.72024 22.2414 3.9802 22.3859 4.25473 22.5232L3.47485 22.0905Z" stroke="url(#paint3_linear_12197_14660)" stroke-opacity="0.4" stroke-width="0.423329"/>
</g>
<g filter="url(#filter2_bi_12197_14660)">
<path d="M11.7535 21.4579C11.7784 21.4579 11.8029 21.4575 11.8277 21.4574C11.778 21.0598 11.752 20.6549 11.752 20.244C11.752 19.8334 11.7779 19.4287 11.8277 19.0314C11.8029 19.0314 11.7783 19.0323 11.7535 19.0323C8.97687 19.0323 6.34744 18.4821 4.34955 17.4832C3.9561 17.2865 3.59404 17.0752 3.26318 16.8516V17.8192C3.26326 19.5368 6.89415 21.4579 11.7535 21.4579Z" fill="black" fill-opacity="0.1"/>
<path d="M11.7535 21.4579C11.7784 21.4579 11.8029 21.4575 11.8277 21.4574C11.778 21.0598 11.752 20.6549 11.752 20.244C11.752 19.8334 11.7779 19.4287 11.8277 19.0314C11.8029 19.0314 11.7783 19.0323 11.7535 19.0323C8.97687 19.0323 6.34744 18.4821 4.34955 17.4832C3.9561 17.2865 3.59404 17.0752 3.26318 16.8516V17.8192C3.26326 19.5368 6.89415 21.4579 11.7535 21.4579Z" fill="url(#paint4_linear_12197_14660)"/>
<path d="M3.47485 17.2398C3.72028 17.3908 3.98031 17.5352 4.25491 17.6725C6.24905 18.6696 8.84882 19.2223 11.5907 19.2433C11.5575 19.5724 11.5404 19.9063 11.5404 20.244C11.5404 20.582 11.5576 20.9161 11.5908 21.2455C9.25527 21.2246 7.22431 20.7553 5.77436 20.0902C5.03207 19.7498 4.45018 19.3617 4.0571 18.9636C3.66228 18.5638 3.47487 18.1721 3.47485 17.8192C3.47485 17.8192 3.47485 17.8192 3.47485 17.8192V17.2398Z" stroke="url(#paint5_linear_12197_14660)" stroke-opacity="0.4" stroke-width="0.423329"/>
</g>
<g filter="url(#filter3_bi_12197_14660)">
<path d="M11.7535 16.6033C11.9942 16.6033 12.2316 16.5984 12.4661 16.5892C12.8426 15.6654 13.3572 14.8121 13.9846 14.0554C13.2582 14.1354 12.5117 14.1779 11.7535 14.1779C8.97687 14.1779 6.34744 13.6277 4.34955 12.6288C3.9561 12.432 3.59404 12.2208 3.26318 11.9971V12.9648C3.26326 14.6824 6.89415 16.6033 11.7535 16.6033Z" fill="black" fill-opacity="0.1"/>
<path d="M11.7535 16.6033C11.9942 16.6033 12.2316 16.5984 12.4661 16.5892C12.8426 15.6654 13.3572 14.8121 13.9846 14.0554C13.2582 14.1354 12.5117 14.1779 11.7535 14.1779C8.97687 14.1779 6.34744 13.6277 4.34955 12.6288C3.9561 12.432 3.59404 12.2208 3.26318 11.9971V12.9648C3.26326 14.6824 6.89415 16.6033 11.7535 16.6033Z" fill="url(#paint6_linear_12197_14660)"/>
<path d="M3.47485 12.3854C3.72029 12.5363 3.98031 12.6808 4.25488 12.8181L4.25489 12.8181C6.28845 13.8349 8.95183 14.3896 11.7535 14.3896C12.3478 14.3896 12.9351 14.3637 13.5113 14.3144C13.0366 14.9494 12.6362 15.6432 12.3228 16.3825C12.135 16.3885 11.9453 16.3916 11.7535 16.3916C9.34962 16.3916 7.25787 15.9162 5.77435 15.2357C5.03207 14.8953 4.45017 14.5073 4.05709 14.1092C3.66228 13.7094 3.47487 13.3177 3.47485 12.9648C3.47485 12.9648 3.47485 12.9648 3.47485 12.9648V12.3854Z" stroke="url(#paint7_linear_12197_14660)" stroke-opacity="0.4" stroke-width="0.423329"/>
</g>
<path d="M15.3937 16.2246C14.8688 17.0137 14.4938 17.9105 14.3093 18.8742C14.2242 19.3184 14.1792 19.7767 14.1792 20.2454C14.1792 20.5977 14.2049 20.9442 14.2535 21.2833C14.373 22.1164 14.6339 22.9041 15.0113 23.6217C15.4073 24.3747 15.9311 25.0504 16.554 25.6193C17.8487 26.8018 19.5704 27.524 21.4578 27.524C25.4712 27.524 28.7364 24.2588 28.7364 20.2454C28.7364 16.2319 25.4712 12.9668 21.4578 12.9668C21.043 12.9668 20.6363 13.0022 20.2402 13.0692C18.2225 13.4104 16.4847 14.5846 15.3937 16.2246Z" fill="#0CC2FF"/>
<defs>
<filter id="filter0_bi_12197_14660" x="-3.35751" y="-2.14413" width="30.2218" height="20.5187" filterUnits="userSpaceOnUse" color-interpolation-filters="sRGB">
<feFlood flood-opacity="0" result="BackgroundImageFix"/>
<feGaussianBlur in="BackgroundImageFix" stdDeviation="3.31034"/>
<feComposite in2="SourceAlpha" operator="in" result="effect1_backgroundBlur_12197_14660"/>
<feBlend mode="normal" in="SourceGraphic" in2="effect1_backgroundBlur_12197_14660" result="shape"/>
<feColorMatrix in="SourceAlpha" type="matrix" values="0 0 0 0 0 0 0 0 0 0 0 0 0 0 0 0 0 0 127 0" result="hardAlpha"/>
<feOffset dy="2.2069"/>
<feGaussianBlur stdDeviation="1.65517"/>
<feComposite in2="hardAlpha" operator="arithmetic" k2="-1" k3="1"/>
<feColorMatrix type="matrix" values="0 0 0 0 1 0 0 0 0 1 0 0 0 0 1 0 0 0 0.4 0"/>
<feBlend mode="normal" in2="shape" result="effect2_innerShadow_12197_14660"/>
</filter>
<filter id="filter1_bi_12197_14660" x="-3.35751" y="15.0815" width="23.7726" height="17.8478" filterUnits="userSpaceOnUse" color-interpolation-filters="sRGB">
<feFlood flood-opacity="0" result="BackgroundImageFix"/>
<feGaussianBlur in="BackgroundImageFix" stdDeviation="3.31034"/>
<feComposite in2="SourceAlpha" operator="in" result="effect1_backgroundBlur_12197_14660"/>
<feBlend mode="normal" in="SourceGraphic" in2="effect1_backgroundBlur_12197_14660" result="shape"/>
<feColorMatrix in="SourceAlpha" type="matrix" values="0 0 0 0 0 0 0 0 0 0 0 0 0 0 0 0 0 0 127 0" result="hardAlpha"/>
<feOffset dy="2.2069"/>
<feGaussianBlur stdDeviation="1.65517"/>
<feComposite in2="hardAlpha" operator="arithmetic" k2="-1" k3="1"/>
<feColorMatrix type="matrix" values="0 0 0 0 1 0 0 0 0 1 0 0 0 0 1 0 0 0 0.4 0"/>
<feBlend mode="normal" in2="shape" result="effect2_innerShadow_12197_14660"/>
</filter>
<filter id="filter2_bi_12197_14660" x="-3.35751" y="10.2309" width="21.8058" height="17.8478" filterUnits="userSpaceOnUse" color-interpolation-filters="sRGB">
<feFlood flood-opacity="0" result="BackgroundImageFix"/>
<feGaussianBlur in="BackgroundImageFix" stdDeviation="3.31034"/>
<feComposite in2="SourceAlpha" operator="in" result="effect1_backgroundBlur_12197_14660"/>
<feBlend mode="normal" in="SourceGraphic" in2="effect1_backgroundBlur_12197_14660" result="shape"/>
<feColorMatrix in="SourceAlpha" type="matrix" values="0 0 0 0 0 0 0 0 0 0 0 0 0 0 0 0 0 0 127 0" result="hardAlpha"/>
<feOffset dy="2.2069"/>
<feGaussianBlur stdDeviation="1.65517"/>
<feComposite in2="hardAlpha" operator="arithmetic" k2="-1" k3="1"/>
<feColorMatrix type="matrix" values="0 0 0 0 1 0 0 0 0 1 0 0 0 0 1 0 0 0 0.4 0"/>
<feBlend mode="normal" in2="shape" result="effect2_innerShadow_12197_14660"/>
</filter>
<filter id="filter3_bi_12197_14660" x="-3.35751" y="5.37638" width="23.9626" height="17.8478" filterUnits="userSpaceOnUse" color-interpolation-filters="sRGB">
<feFlood flood-opacity="0" result="BackgroundImageFix"/>
<feGaussianBlur in="BackgroundImageFix" stdDeviation="3.31034"/>
<feComposite in2="SourceAlpha" operator="in" result="effect1_backgroundBlur_12197_14660"/>
<feBlend mode="normal" in="SourceGraphic" in2="effect1_backgroundBlur_12197_14660" result="shape"/>
<feColorMatrix in="SourceAlpha" type="matrix" values="0 0 0 0 0 0 0 0 0 0 0 0 0 0 0 0 0 0 127 0" result="hardAlpha"/>
<feOffset dy="2.2069"/>
<feGaussianBlur stdDeviation="1.65517"/>
<feComposite in2="hardAlpha" operator="arithmetic" k2="-1" k3="1"/>
<feColorMatrix type="matrix" values="0 0 0 0 1 0 0 0 0 1 0 0 0 0 1 0 0 0 0.4 0"/>
<feBlend mode="normal" in2="shape" result="effect2_innerShadow_12197_14660"/>
</filter>
<linearGradient id="paint0_linear_12197_14660" x1="20.1439" y1="10.9521" x2="15.1889" y2="0.934456" gradientUnits="userSpaceOnUse">
<stop stop-color="#0CC2FF" stop-opacity="0.29"/>
<stop offset="1" stop-color="#0CC2FF"/>
</linearGradient>
<linearGradient id="paint1_linear_12197_14660" x1="20.1439" y1="10.9521" x2="15.1889" y2="0.934456" gradientUnits="userSpaceOnUse">
<stop stop-color="#96E5FF"/>
<stop offset="1" stop-color="#0CC2FF"/>
</linearGradient>
<linearGradient id="paint2_linear_12197_14660" x1="13.7328" y1="25.801" x2="10.5577" y2="19.5115" gradientUnits="userSpaceOnUse">
<stop stop-color="#0CC2FF" stop-opacity="0.29"/>
<stop offset="1" stop-color="#0CC2FF"/>
</linearGradient>
<linearGradient id="paint3_linear_12197_14660" x1="13.7328" y1="25.801" x2="10.5577" y2="19.5115" gradientUnits="userSpaceOnUse">
<stop stop-color="#96E5FF"/>
<stop offset="1" stop-color="#0CC2FF"/>
</linearGradient>
<linearGradient id="paint4_linear_12197_14660" x1="11.7774" y1="20.9504" x2="8.24097" y2="15.2534" gradientUnits="userSpaceOnUse">
<stop stop-color="#0CC2FF" stop-opacity="0.29"/>
<stop offset="1" stop-color="#0CC2FF"/>
</linearGradient>
<linearGradient id="paint5_linear_12197_14660" x1="11.7774" y1="20.9504" x2="8.24097" y2="15.2534" gradientUnits="userSpaceOnUse">
<stop stop-color="#96E5FF"/>
<stop offset="1" stop-color="#0CC2FF"/>
</linearGradient>
<linearGradient id="paint6_linear_12197_14660" x1="13.9216" y1="16.0958" x2="10.7805" y2="9.76124" gradientUnits="userSpaceOnUse">
<stop stop-color="#0CC2FF" stop-opacity="0.29"/>
<stop offset="1" stop-color="#0CC2FF"/>
</linearGradient>
<linearGradient id="paint7_linear_12197_14660" x1="13.9216" y1="16.0958" x2="10.7805" y2="9.76124" gradientUnits="userSpaceOnUse">
<stop stop-color="#96E5FF"/>
<stop offset="1" stop-color="#0CC2FF"/>
</linearGradient>
</defs>
</svg>
