<svg width="32" height="32" viewBox="0 0 32 32" fill="none" xmlns="http://www.w3.org/2000/svg">
<g filter="url(#filter0_i_9453_8778)">
<path d="M12.2121 14.1647C12.1124 14.0918 11.9781 14.0929 11.8739 14.1593C10.8772 14.7943 9.69449 15.1628 8.42715 15.1628C8.08575 15.1628 7.75058 15.1359 7.42354 15.0843C7.10664 15.0342 6.74672 15.5523 6.88161 15.8434C7.12019 16.3582 7.25349 16.9312 7.25349 17.5349C7.25349 19.7661 5.43584 21.5814 3.2016 21.5814H2.3C2.13431 21.5814 2 21.7157 2 21.8814V27.1628C2 27.6252 2.37535 28 2.83832 28H4.77391C4.93959 28 5.07391 27.8657 5.07391 27.7V23.5349C5.07391 23.0725 5.44925 22.6977 5.91223 22.6977C6.37521 22.6977 6.75056 23.0725 6.75056 23.5349V27.7C6.75056 27.8657 6.88487 28 7.05055 28H14.5543C14.72 28 14.8543 27.8657 14.8543 27.7V19.3488C14.8543 17.2217 13.8126 15.3332 12.2121 14.1647Z" fill="#5A5D68"/>
<path d="M29.1617 19.907H28.1836C26.8739 19.907 25.8084 18.8429 25.8084 17.5349C25.8084 16.2269 26.8739 15.1628 28.1836 15.1628C29.1852 15.1628 30 15.9766 30 16.9768V19.0698C30 19.5322 29.6247 19.907 29.1617 19.907Z" fill="#5A5D68"/>
<path d="M8.42715 13.4884C5.80772 13.4884 3.67665 11.3601 3.67665 8.7442C3.67665 6.12825 5.80772 4 8.42715 4C11.0466 4 13.1776 6.12825 13.1776 8.7442C13.1776 11.3601 11.0466 13.4884 8.42715 13.4884Z" fill="#5A5D68"/>
</g>
<path d="M12.0082 14.3701C12.0334 14.3541 12.0553 14.3597 12.0647 14.3666C13.6038 15.4903 14.6043 17.3053 14.6043 19.3488V27.7C14.6043 27.7276 14.5819 27.75 14.5543 27.75H7.05055C7.02294 27.75 7.00056 27.7276 7.00056 27.7V23.5349C7.00056 22.9341 6.51297 22.4477 5.91223 22.4477C5.3115 22.4477 4.82391 22.9341 4.82391 23.5349V27.7C4.82391 27.7276 4.80152 27.75 4.77391 27.75H2.83832C2.5131 27.75 2.25 27.4868 2.25 27.1628V21.8814C2.25 21.8538 2.27238 21.8314 2.3 21.8314H3.2016C5.5736 21.8314 7.50349 19.9045 7.50349 17.5349C7.50349 16.894 7.36192 16.2852 7.10844 15.7382C7.10455 15.7298 7.09701 15.7025 7.10886 15.6492C7.12041 15.5972 7.14729 15.5369 7.18737 15.4801C7.22759 15.4231 7.27393 15.3799 7.31557 15.3547C7.35773 15.3293 7.38008 15.3305 7.38455 15.3312C7.7244 15.3849 8.07261 15.4128 8.42715 15.4128C9.74362 15.4128 10.9727 15.0299 12.0082 14.3701ZM29.1617 19.657H28.1836C27.0117 19.657 26.0584 18.7045 26.0584 17.5349C26.0584 16.3653 27.0117 15.4128 28.1836 15.4128C29.0474 15.4128 29.75 16.115 29.75 16.9768V19.0698C29.75 19.3938 29.4869 19.657 29.1617 19.657ZM8.42715 13.2384C5.94548 13.2384 3.92665 11.2218 3.92665 8.7442C3.92665 6.26663 5.94548 4.25 8.42715 4.25C10.9088 4.25 12.9276 6.26663 12.9276 8.7442C12.9276 11.2218 10.9088 13.2384 8.42715 13.2384Z" stroke="#464955" stroke-width="0.5"/>
<path d="M2 19.0698V16.9767C2 15.9766 2.81486 15.1628 3.81638 15.1628C5.12614 15.1628 6.19166 16.2269 6.19166 17.5349C6.19166 18.8429 5.12614 19.907 3.81638 19.907H2.83833C2.37535 19.907 2 19.5321 2 19.0698Z" fill="#C0C1C5"/>
<path d="M24.7465 17.5349C24.7465 16.9312 24.8798 16.3583 25.1183 15.8434C25.2532 15.5523 24.8933 15.0342 24.5763 15.0843C24.2493 15.1359 23.9142 15.1628 23.5728 15.1628C21.6783 15.1628 19.9727 14.3398 18.7953 13.0332C18.737 12.9684 18.6544 12.9302 18.5672 12.9302H14.8549C14.5683 12.9302 14.4346 13.307 14.6418 13.505C16.1838 14.9791 17.1456 17.0538 17.1456 19.3488V27.7C17.1456 27.8657 17.2799 28 17.4456 28H24.9495C25.1152 28 25.2495 27.8657 25.2495 27.7V23.5349C25.2495 23.0725 25.6249 22.6977 26.0878 22.6977C26.5508 22.6977 26.9262 23.0725 26.9262 23.5349V27.7C26.9262 27.8657 27.0605 28 27.2262 28H29.1617C29.6247 28 30 27.6252 30 27.1628V21.8814C30 21.7157 29.8657 21.5814 29.7 21.5814H28.7984C26.5641 21.5814 24.7465 19.7662 24.7465 17.5349Z" fill="#C0C1C5"/>
<path d="M23.5731 13.4884C20.9536 13.4884 18.8225 11.3601 18.8225 8.74419C18.8225 6.12824 20.9536 4 23.5731 4C26.1925 4 28.3236 6.12824 28.3236 8.74419C28.3236 11.3601 26.1925 13.4884 23.5731 13.4884Z" fill="#C0C1C5"/>
<defs>
<filter id="filter0_i_9453_8778" x="2" y="4" width="28" height="28" filterUnits="userSpaceOnUse" color-interpolation-filters="sRGB">
<feFlood flood-opacity="0" result="BackgroundImageFix"/>
<feBlend mode="normal" in="SourceGraphic" in2="BackgroundImageFix" result="shape"/>
<feColorMatrix in="SourceAlpha" type="matrix" values="0 0 0 0 0 0 0 0 0 0 0 0 0 0 0 0 0 0 127 0" result="hardAlpha"/>
<feOffset dy="4"/>
<feGaussianBlur stdDeviation="2"/>
<feComposite in2="hardAlpha" operator="arithmetic" k2="-1" k3="1"/>
<feColorMatrix type="matrix" values="0 0 0 0 0 0 0 0 0 0 0 0 0 0 0 0 0 0 0.25 0"/>
<feBlend mode="normal" in2="shape" result="effect1_innerShadow_9453_8778"/>
</filter>
</defs>
</svg>
