<svg width="32" height="32" viewBox="0 0 32 32" fill="none" xmlns="http://www.w3.org/2000/svg">
<g filter="url(#filter0_i_11731_24482)">
<path fill-rule="evenodd" clip-rule="evenodd" d="M16.4253 4.04249C16.9061 3.86137 17.2476 3.40147 17.2476 2.86273C17.2476 2.16567 16.6759 1.60059 15.9705 1.60059C15.2652 1.60059 14.6935 2.16567 14.6935 2.86273C14.6935 3.44157 15.0877 3.9294 15.6253 4.07822V5.39165H16.4253V4.04249ZM18.2055 7.85308C18.2055 9.07294 17.2049 10.0618 15.9705 10.0618C14.7362 10.0618 13.7356 9.07294 13.7356 7.85308C13.7356 6.63323 14.7362 5.64434 15.9705 5.64434C17.2049 5.64434 18.2055 6.63323 18.2055 7.85308ZM8.77121 14.1654C9.98949 14.1654 10.9771 13.1894 10.9771 11.9853C10.9771 10.7813 9.98949 9.80527 8.77121 9.80527C7.55294 9.80527 6.56533 10.7813 6.56533 11.9853C6.56533 13.1894 7.55294 14.1654 8.77121 14.1654ZM18.9317 16.0015C18.9317 17.6174 17.6062 18.9273 15.9712 18.9273C14.3361 18.9273 13.0106 17.6174 13.0106 16.0015C13.0106 14.3855 14.3361 13.0756 15.9712 13.0756C17.6062 13.0756 18.9317 14.3855 18.9317 16.0015ZM11.0369 20.0177C11.0369 21.2534 10.0233 22.2551 8.77301 22.2551C7.52268 22.2551 6.50908 21.2534 6.50908 20.0177C6.50908 18.782 7.52268 17.7803 8.77301 17.7803C10.0233 17.7803 11.0369 18.782 11.0369 20.0177ZM23.1978 14.1373C24.416 14.1373 25.4037 13.1612 25.4037 11.9572C25.4037 10.7532 24.416 9.77715 23.1978 9.77715C21.9795 9.77715 20.9919 10.7532 20.9919 11.9572C20.9919 13.1612 21.9795 14.1373 23.1978 14.1373ZM25.4336 20.0453C25.4336 21.2651 24.433 22.254 23.1987 22.254C21.9644 22.254 20.9638 21.2651 20.9638 20.0453C20.9638 18.8254 21.9644 17.8365 23.1987 17.8365C24.433 17.8365 25.4336 18.8254 25.4336 20.0453ZM15.9708 26.6422C17.2371 26.6422 18.2637 25.6276 18.2637 24.3761C18.2637 23.1245 17.2371 22.11 15.9708 22.11C14.7044 22.11 13.6778 23.1245 13.6778 24.3761C13.6778 25.6276 14.7044 26.6422 15.9708 26.6422ZM5.75388 22.5971C5.75388 23.2942 5.18211 23.8592 4.47679 23.8592C3.77148 23.8592 3.19971 23.2942 3.19971 22.5971C3.19971 21.9 3.77148 21.335 4.47679 21.335C4.80269 21.335 5.10007 21.4556 5.32571 21.6542L6.60108 20.9249L6.99818 21.6194L5.72848 22.3454C5.74514 22.4267 5.75388 22.5109 5.75388 22.5971ZM15.9705 30.4014C16.6759 30.4014 17.2476 29.8364 17.2476 29.1393C17.2476 28.6222 16.933 28.1778 16.4827 27.9827V26.8353H15.6827V27.9093C15.116 28.0384 14.6935 28.5401 14.6935 29.1393C14.6935 29.8364 15.2652 30.4014 15.9705 30.4014ZM28.7992 22.5971C28.7992 23.2942 28.2274 23.8592 27.5221 23.8592C26.8168 23.8592 26.245 23.2942 26.245 22.5971C26.245 22.5001 26.2561 22.4056 26.2771 22.3148L25.0608 21.6194L25.4579 20.9249L26.6972 21.6335C26.9198 21.4473 27.2077 21.335 27.5221 21.335C28.2274 21.335 28.7992 21.9 28.7992 22.5971ZM27.5221 10.7233C28.2274 10.7233 28.7992 10.1582 28.7992 9.46117C28.7992 8.7641 28.2274 8.19902 27.5221 8.19902C26.8168 8.19902 26.245 8.7641 26.245 9.46117C26.245 9.53643 26.2517 9.61017 26.2645 9.68181L25.0148 10.4869L25.4481 11.1594L26.6512 10.3843C26.8793 10.5946 27.1855 10.7233 27.5221 10.7233ZM5.7323 9.69344C5.74647 9.61815 5.75388 9.54051 5.75388 9.46117C5.75388 8.7641 5.18211 8.19902 4.47679 8.19902C3.77148 8.19902 3.19971 8.7641 3.19971 9.46117C3.19971 10.1582 3.77148 10.7233 4.47679 10.7233C4.80985 10.7233 5.11312 10.5973 5.34048 10.3909L6.54558 11.0715L6.93898 10.3749L5.7323 9.69344ZM11.4078 10.9031L14.0781 9.40572L13.6868 8.70795L11.0166 10.2053L11.4078 10.9031ZM18.0439 9.50752L20.7026 11.0221L21.0986 10.327L18.4399 8.8124L18.0439 9.50752ZM9.28568 17.6335V14.5987H8.48569V17.6335H9.28568ZM22.7076 14.7148V17.7497H23.5076V14.7148H22.7076ZM13.7853 22.5473L11.1266 21.0327L10.7306 21.7278L13.3893 23.2424L13.7853 22.5473ZM20.7025 21.0908L18.0438 22.6053L18.4398 23.3004L21.0985 21.7859L20.7025 21.0908Z" fill="#9497A2"/>
</g>
<g filter="url(#filter1_bi_11731_24482)">
<path fill-rule="evenodd" clip-rule="evenodd" d="M15.7603 18.9269C17.3954 18.9269 18.7208 17.617 18.7208 16.0011C18.7208 14.3852 17.3954 13.0752 15.7603 13.0752C14.1253 13.0752 12.7998 14.3852 12.7998 16.0011C12.7998 17.617 14.1253 18.9269 15.7603 18.9269Z" fill="black" fill-opacity="0.1"/>
<path fill-rule="evenodd" clip-rule="evenodd" d="M15.7603 18.9269C17.3954 18.9269 18.7208 17.617 18.7208 16.0011C18.7208 14.3852 17.3954 13.0752 15.7603 13.0752C14.1253 13.0752 12.7998 14.3852 12.7998 16.0011C12.7998 17.617 14.1253 18.9269 15.7603 18.9269Z" fill="url(#paint0_linear_11731_24482)" fill-opacity="0.5"/>
<path d="M17.4598 16.0011C17.4598 16.9065 16.7129 17.6658 15.7603 17.6658C14.8077 17.6658 14.0609 16.9065 14.0609 16.0011C14.0609 15.0956 14.8077 14.3363 15.7603 14.3363C16.7129 14.3363 17.4598 15.0956 17.4598 16.0011Z" stroke="url(#paint1_linear_11731_24482)" stroke-opacity="0.1" stroke-width="2.52219"/>
</g>
<path fill-rule="evenodd" clip-rule="evenodd" d="M15.9998 19.1249C17.7671 19.1249 19.1998 17.709 19.1998 15.9624C19.1998 14.2157 17.7671 12.7998 15.9998 12.7998C14.2325 12.7998 12.7998 14.2157 12.7998 15.9624C12.7998 17.709 14.2325 19.1249 15.9998 19.1249Z" fill="#C0C1C5"/>
<defs>
<filter id="filter0_i_11731_24482" x="3.19971" y="1.60059" width="25.5996" height="33.8008" filterUnits="userSpaceOnUse" color-interpolation-filters="sRGB">
<feFlood flood-opacity="0" result="BackgroundImageFix"/>
<feBlend mode="normal" in="SourceGraphic" in2="BackgroundImageFix" result="shape"/>
<feColorMatrix in="SourceAlpha" type="matrix" values="0 0 0 0 0 0 0 0 0 0 0 0 0 0 0 0 0 0 127 0" result="hardAlpha"/>
<feOffset dy="5"/>
<feGaussianBlur stdDeviation="2.5"/>
<feComposite in2="hardAlpha" operator="arithmetic" k2="-1" k3="1"/>
<feColorMatrix type="matrix" values="0 0 0 0 0 0 0 0 0 0 0 0 0 0 0 0 0 0 0.25 0"/>
<feBlend mode="normal" in2="shape" result="effect1_innerShadow_11731_24482"/>
</filter>
<filter id="filter1_bi_11731_24482" x="2.2067" y="2.48209" width="27.1071" height="27.0378" filterUnits="userSpaceOnUse" color-interpolation-filters="sRGB">
<feFlood flood-opacity="0" result="BackgroundImageFix"/>
<feGaussianBlur in="BackgroundImageFix" stdDeviation="5.29655"/>
<feComposite in2="SourceAlpha" operator="in" result="effect1_backgroundBlur_11731_24482"/>
<feBlend mode="normal" in="SourceGraphic" in2="effect1_backgroundBlur_11731_24482" result="shape"/>
<feColorMatrix in="SourceAlpha" type="matrix" values="0 0 0 0 0 0 0 0 0 0 0 0 0 0 0 0 0 0 127 0" result="hardAlpha"/>
<feOffset dy="3.53103"/>
<feGaussianBlur stdDeviation="2.64828"/>
<feComposite in2="hardAlpha" operator="arithmetic" k2="-1" k3="1"/>
<feColorMatrix type="matrix" values="0 0 0 0 1 0 0 0 0 1 0 0 0 0 1 0 0 0 0.4 0"/>
<feBlend mode="normal" in2="shape" result="effect2_innerShadow_11731_24482"/>
</filter>
<linearGradient id="paint0_linear_11731_24482" x1="18.6836" y1="17.9612" x2="17.2803" y2="16.5791" gradientUnits="userSpaceOnUse">
<stop stop-color="#0CC2FF" stop-opacity="0.29"/>
<stop offset="1" stop-color="#0CC2FF"/>
</linearGradient>
<linearGradient id="paint1_linear_11731_24482" x1="18.6836" y1="17.9612" x2="17.2803" y2="16.5791" gradientUnits="userSpaceOnUse">
<stop stop-color="#96E5FF"/>
<stop offset="1" stop-color="#0CC2FF"/>
</linearGradient>
</defs>
</svg>
