<svg width="32" height="32" viewBox="0 0 32 32" fill="none" xmlns="http://www.w3.org/2000/svg">
<g filter="url(#filter0_i_9453_7177)">
<path d="M27.5021 4.00212C23.166 3.9243 18.2725 5.99458 14.8525 9.29464C14.2502 9.87578 13.4647 10.2314 12.6341 10.3342C9.83639 10.6807 7.17888 11.9585 5.15049 13.9889C5.01399 14.1235 4.96546 14.325 5.02511 14.5071C5.08578 14.6903 5.24351 14.8229 5.4336 14.8503L8.61477 15.3064C8.92105 15.3503 9.05511 15.7175 8.84913 15.9484C8.67016 16.1488 8.67926 16.4535 8.86935 16.6438L15.3677 23.1488C15.4658 23.247 15.5952 23.2966 15.7257 23.2966C15.846 23.2966 15.9663 23.2541 16.0624 23.168C16.2928 22.962 16.6599 23.0958 16.7037 23.4018L17.1594 26.587C17.1867 26.7773 17.3364 26.917 17.5174 26.9777C17.5639 26.9929 17.6124 27 17.662 27C17.8055 27 17.9521 26.9372 18.0532 26.837C20.0545 24.8337 21.3275 22.1757 21.6724 19.3742C21.7745 18.5451 22.1288 17.7608 22.7085 17.1593C26.0129 13.7305 28.0974 8.83241 27.9965 4.49605C27.9894 4.22682 27.772 4.00921 27.5021 4.00212ZM22.8429 12.7389C22.3505 13.2318 21.7034 13.4788 21.0552 13.4788C20.4071 13.4788 19.76 13.2318 19.2676 12.7389C18.2828 11.7521 18.2828 10.1468 19.2676 9.15999C20.2534 8.17316 21.857 8.17316 22.8429 9.15999C23.8287 10.1468 23.8287 11.7531 22.8429 12.7389Z" fill="#5A5D68"/>
</g>
<path d="M5.32604 14.1669L5.32736 14.1656C7.3159 12.175 9.92178 10.922 12.6648 10.5824C13.5454 10.4733 14.3822 10.0958 15.0261 9.47454C18.404 6.21503 23.2348 4.17597 27.4964 4.25206C27.633 4.2561 27.7428 4.36646 27.7466 4.50221C27.8456 8.76282 25.7931 13.5983 22.5285 16.9858C21.9086 17.629 21.5325 18.4646 21.4243 19.3437C21.0861 22.0909 19.8377 24.6968 17.8769 26.6599C17.8208 26.7152 17.737 26.75 17.662 26.75C17.6368 26.75 17.615 26.7465 17.5959 26.7404C17.4782 26.7006 17.4172 26.623 17.4069 26.5515L16.9512 23.3664C16.8791 22.8628 16.275 22.6426 15.8958 22.9816L15.8956 22.9818C15.8472 23.0251 15.787 23.0466 15.7257 23.0466C15.6586 23.0466 15.5937 23.0213 15.5446 22.9721L9.04621 16.4671C8.94936 16.3701 8.94532 16.216 9.03559 16.1149L9.03568 16.1149C9.37444 15.7351 9.15397 15.1311 8.65025 15.0589L5.46918 14.6028C5.46914 14.6028 5.46911 14.6028 5.46908 14.6028C5.37371 14.589 5.29375 14.5226 5.26257 14.4289C5.23253 14.3367 5.25739 14.2346 5.32604 14.1669ZM19.0906 12.9155L19.0907 12.9156C19.632 13.4575 20.3436 13.7288 21.0552 13.7288C21.7668 13.7288 22.4784 13.4575 23.0196 12.9157C24.1032 11.8322 24.103 10.0677 23.0197 8.98331C21.9363 7.89872 20.1742 7.89872 19.0907 8.98331L19.0906 8.9834C18.0084 10.0678 18.0084 11.8311 19.0906 12.9155Z" stroke="#464955" stroke-width="0.5"/>
<path d="M6.72446 20.9036C5.6543 21.9738 4.18508 26.8088 4.02106 27.3559C3.96805 27.5319 4.01706 27.7229 4.14608 27.853C4.24209 27.949 4.36911 28 4.50013 28C4.54814 28 4.59615 27.993 4.64415 27.979C5.19124 27.815 10.026 26.3457 11.0961 25.2754C12.3013 24.0702 12.3013 22.1088 11.0961 20.9036C9.88994 19.6983 7.92964 19.6993 6.72446 20.9036Z" fill="#C0C1C5"/>
<defs>
<filter id="filter0_i_9453_7177" x="5" y="4" width="23" height="27" filterUnits="userSpaceOnUse" color-interpolation-filters="sRGB">
<feFlood flood-opacity="0" result="BackgroundImageFix"/>
<feBlend mode="normal" in="SourceGraphic" in2="BackgroundImageFix" result="shape"/>
<feColorMatrix in="SourceAlpha" type="matrix" values="0 0 0 0 0 0 0 0 0 0 0 0 0 0 0 0 0 0 127 0" result="hardAlpha"/>
<feOffset dy="4"/>
<feGaussianBlur stdDeviation="2"/>
<feComposite in2="hardAlpha" operator="arithmetic" k2="-1" k3="1"/>
<feColorMatrix type="matrix" values="0 0 0 0 0 0 0 0 0 0 0 0 0 0 0 0 0 0 0.25 0"/>
<feBlend mode="normal" in2="shape" result="effect1_innerShadow_9453_7177"/>
</filter>
</defs>
</svg>
