<svg width="32" height="32" viewBox="0 0 32 32" fill="none" xmlns="http://www.w3.org/2000/svg">
<g filter="url(#filter0_bi_9453_8782)">
<path d="M12.0448 14.0465C11.0137 14.7505 9.76774 15.1628 8.42715 15.1628C7.61537 15.1628 6.83875 15.0108 6.12304 14.7353C6.82232 15.4628 7.25349 16.4492 7.25349 17.5349C7.25349 19.7661 5.43584 21.5814 3.2016 21.5814H2V27.1628C2 27.6252 2.37535 28 2.83832 28H5.07391V23.5349C5.07391 23.0725 5.44925 22.6977 5.91223 22.6977C6.37521 22.6977 6.75056 23.0725 6.75056 23.5349V28H14.8543V19.3488C14.8543 17.1485 13.7396 15.2034 12.0448 14.0465Z" fill="black" fill-opacity="0.1"/>
<path d="M12.0448 14.0465C11.0137 14.7505 9.76774 15.1628 8.42715 15.1628C7.61537 15.1628 6.83875 15.0108 6.12304 14.7353C6.82232 15.4628 7.25349 16.4492 7.25349 17.5349C7.25349 19.7661 5.43584 21.5814 3.2016 21.5814H2V27.1628C2 27.6252 2.37535 28 2.83832 28H5.07391V23.5349C5.07391 23.0725 5.44925 22.6977 5.91223 22.6977C6.37521 22.6977 6.75056 23.0725 6.75056 23.5349V28H14.8543V19.3488C14.8543 17.1485 13.7396 15.2034 12.0448 14.0465Z" fill="url(#paint0_linear_9453_8782)" fill-opacity="0.5"/>
<path d="M29.1617 19.907H28.1836C26.8739 19.907 25.8084 18.8429 25.8084 17.5349C25.8084 16.2269 26.8739 15.1628 28.1836 15.1628C29.1852 15.1628 30 15.9766 30 16.9768V19.0698C30 19.5322 29.6247 19.907 29.1617 19.907Z" fill="black" fill-opacity="0.1"/>
<path d="M29.1617 19.907H28.1836C26.8739 19.907 25.8084 18.8429 25.8084 17.5349C25.8084 16.2269 26.8739 15.1628 28.1836 15.1628C29.1852 15.1628 30 15.9766 30 16.9768V19.0698C30 19.5322 29.6247 19.907 29.1617 19.907Z" fill="url(#paint1_linear_9453_8782)" fill-opacity="0.5"/>
<path d="M8.42715 13.4884C5.80772 13.4884 3.67665 11.3601 3.67665 8.7442C3.67665 6.12825 5.80772 4 8.42715 4C11.0466 4 13.1776 6.12825 13.1776 8.7442C13.1776 11.3601 11.0466 13.4884 8.42715 13.4884Z" fill="black" fill-opacity="0.1"/>
<path d="M8.42715 13.4884C5.80772 13.4884 3.67665 11.3601 3.67665 8.7442C3.67665 6.12825 5.80772 4 8.42715 4C11.0466 4 13.1776 6.12825 13.1776 8.7442C13.1776 11.3601 11.0466 13.4884 8.42715 13.4884Z" fill="url(#paint2_linear_9453_8782)" fill-opacity="0.5"/>
<path d="M8.42715 15.4128C9.75753 15.4128 10.9986 15.0217 12.0408 14.3492C13.5934 15.4715 14.6043 17.2947 14.6043 19.3488V27.75H7.00056V23.5349C7.00056 22.9341 6.51297 22.4477 5.91223 22.4477C5.3115 22.4477 4.82391 22.9341 4.82391 23.5349V27.75H2.83832C2.5131 27.75 2.25 27.4868 2.25 27.1628V21.8314H3.2016C5.5736 21.8314 7.50349 19.9045 7.50349 17.5349C7.50349 16.6815 7.25255 15.8859 6.82144 15.2171C7.33597 15.3448 7.87377 15.4128 8.42715 15.4128ZM29.1617 19.657H28.1836C27.0117 19.657 26.0584 18.7045 26.0584 17.5349C26.0584 16.3653 27.0117 15.4128 28.1836 15.4128C29.0474 15.4128 29.75 16.115 29.75 16.9768V19.0698C29.75 19.3938 29.4869 19.657 29.1617 19.657ZM8.42715 13.2384C5.94548 13.2384 3.92665 11.2218 3.92665 8.7442C3.92665 6.26663 5.94548 4.25 8.42715 4.25C10.9088 4.25 12.9276 6.26663 12.9276 8.7442C12.9276 11.2218 10.9088 13.2384 8.42715 13.2384Z" stroke="url(#paint3_linear_9453_8782)" stroke-opacity="0.1" stroke-width="0.5"/>
</g>
<path d="M2 19.0698V16.9767C2 15.9766 2.81486 15.1628 3.81638 15.1628C5.12614 15.1628 6.19166 16.2269 6.19166 17.5349C6.19166 18.8429 5.12614 19.907 3.81638 19.907H2.83833C2.37535 19.907 2 19.5321 2 19.0698Z" fill="#0CC2FF"/>
<path d="M24.7465 17.5349C24.7465 16.9312 24.8798 16.3583 25.1183 15.8434C25.2532 15.5523 24.8933 15.0342 24.5763 15.0843C24.2493 15.1359 23.9142 15.1628 23.5728 15.1628C21.6783 15.1628 19.9727 14.3398 18.7953 13.0332C18.737 12.9684 18.6544 12.9302 18.5672 12.9302H14.8549C14.5683 12.9302 14.4346 13.307 14.6418 13.505C16.1838 14.9791 17.1456 17.0538 17.1456 19.3488V27.7C17.1456 27.8657 17.2799 28 17.4456 28H24.9495C25.1152 28 25.2495 27.8657 25.2495 27.7V23.5349C25.2495 23.0725 25.6249 22.6977 26.0878 22.6977C26.5508 22.6977 26.9262 23.0725 26.9262 23.5349V27.7C26.9262 27.8657 27.0605 28 27.2262 28H29.1617C29.6247 28 30 27.6252 30 27.1628V21.8814C30 21.7157 29.8657 21.5814 29.7 21.5814H28.7984C26.5641 21.5814 24.7465 19.7662 24.7465 17.5349Z" fill="#0CC2FF"/>
<path d="M23.5731 13.4884C20.9536 13.4884 18.8225 11.3601 18.8225 8.74419C18.8225 6.12824 20.9536 4 23.5731 4C26.1925 4 28.3236 6.12824 28.3236 8.74419C28.3236 11.3601 26.1925 13.4884 23.5731 13.4884Z" fill="#0CC2FF"/>
<defs>
<filter id="filter0_bi_9453_8782" x="-4.62069" y="-2.62069" width="41.2414" height="37.2414" filterUnits="userSpaceOnUse" color-interpolation-filters="sRGB">
<feFlood flood-opacity="0" result="BackgroundImageFix"/>
<feGaussianBlur in="BackgroundImageFix" stdDeviation="3.31034"/>
<feComposite in2="SourceAlpha" operator="in" result="effect1_backgroundBlur_9453_8782"/>
<feBlend mode="normal" in="SourceGraphic" in2="effect1_backgroundBlur_9453_8782" result="shape"/>
<feColorMatrix in="SourceAlpha" type="matrix" values="0 0 0 0 0 0 0 0 0 0 0 0 0 0 0 0 0 0 127 0" result="hardAlpha"/>
<feOffset dy="2.2069"/>
<feGaussianBlur stdDeviation="1.65517"/>
<feComposite in2="hardAlpha" operator="arithmetic" k2="-1" k3="1"/>
<feColorMatrix type="matrix" values="0 0 0 0 1 0 0 0 0 1 0 0 0 0 1 0 0 0 0.4 0"/>
<feBlend mode="normal" in2="shape" result="effect2_innerShadow_9453_8782"/>
</filter>
<linearGradient id="paint0_linear_9453_8782" x1="29.4553" y1="25.0989" x2="9.46072" y2="4.88781" gradientUnits="userSpaceOnUse">
<stop stop-color="#0CC2FF" stop-opacity="0.29"/>
<stop offset="1" stop-color="#0CC2FF"/>
</linearGradient>
<linearGradient id="paint1_linear_9453_8782" x1="29.4553" y1="25.0989" x2="9.46072" y2="4.88781" gradientUnits="userSpaceOnUse">
<stop stop-color="#0CC2FF" stop-opacity="0.29"/>
<stop offset="1" stop-color="#0CC2FF"/>
</linearGradient>
<linearGradient id="paint2_linear_9453_8782" x1="29.4553" y1="25.0989" x2="9.46072" y2="4.88781" gradientUnits="userSpaceOnUse">
<stop stop-color="#0CC2FF" stop-opacity="0.29"/>
<stop offset="1" stop-color="#0CC2FF"/>
</linearGradient>
<linearGradient id="paint3_linear_9453_8782" x1="29.4553" y1="25.0989" x2="9.46072" y2="4.88781" gradientUnits="userSpaceOnUse">
<stop stop-color="#96E5FF"/>
<stop offset="1" stop-color="#0CC2FF"/>
</linearGradient>
</defs>
</svg>
