<svg width="32" height="32" viewBox="0 0 32 32" fill="none" xmlns="http://www.w3.org/2000/svg">
<g filter="url(#filter0_bi_9453_8774)">
<path d="M27.5021 4.00212C22.765 3.9171 17.3627 6.39583 13.9431 10.241C10.6752 10.3027 7.49323 11.6438 5.15049 13.9889C5.01399 14.1235 4.96546 14.325 5.02511 14.5071C5.08578 14.6903 5.24351 14.8229 5.4336 14.8503L9.33041 15.409L8.84913 15.9484C8.67016 16.1488 8.67926 16.4535 8.86935 16.6438L15.3677 23.1488C15.4658 23.247 15.5952 23.2966 15.7257 23.2966C15.846 23.2966 15.9663 23.2541 16.0624 23.168L16.6013 22.6863L17.1594 26.587C17.1867 26.7773 17.3364 26.917 17.5174 26.9777C17.5639 26.9929 17.6124 27 17.662 27C17.8055 27 17.9521 26.9372 18.0532 26.837C20.3636 24.5243 21.7034 21.3391 21.765 18.0679C25.6103 14.6377 28.1067 9.23186 27.9965 4.49605C27.9894 4.22682 27.772 4.00921 27.5021 4.00212ZM22.8429 12.7389C22.3505 13.2318 21.7034 13.4788 21.0552 13.4788C20.4071 13.4788 19.76 13.2318 19.2676 12.7389C18.2828 11.7521 18.2828 10.1468 19.2676 9.15999C20.2534 8.17316 21.857 8.17316 22.8429 9.15999C23.8287 10.1468 23.8287 11.7531 22.8429 12.7389Z" fill="black" fill-opacity="0.1"/>
<path d="M27.5021 4.00212C22.765 3.9171 17.3627 6.39583 13.9431 10.241C10.6752 10.3027 7.49323 11.6438 5.15049 13.9889C5.01399 14.1235 4.96546 14.325 5.02511 14.5071C5.08578 14.6903 5.24351 14.8229 5.4336 14.8503L9.33041 15.409L8.84913 15.9484C8.67016 16.1488 8.67926 16.4535 8.86935 16.6438L15.3677 23.1488C15.4658 23.247 15.5952 23.2966 15.7257 23.2966C15.846 23.2966 15.9663 23.2541 16.0624 23.168L16.6013 22.6863L17.1594 26.587C17.1867 26.7773 17.3364 26.917 17.5174 26.9777C17.5639 26.9929 17.6124 27 17.662 27C17.8055 27 17.9521 26.9372 18.0532 26.837C20.3636 24.5243 21.7034 21.3391 21.765 18.0679C25.6103 14.6377 28.1067 9.23186 27.9965 4.49605C27.9894 4.22682 27.772 4.00921 27.5021 4.00212ZM22.8429 12.7389C22.3505 13.2318 21.7034 13.4788 21.0552 13.4788C20.4071 13.4788 19.76 13.2318 19.2676 12.7389C18.2828 11.7521 18.2828 10.1468 19.2676 9.15999C20.2534 8.17316 21.857 8.17316 22.8429 9.15999C23.8287 10.1468 23.8287 11.7531 22.8429 12.7389Z" fill="url(#paint0_linear_9453_8774)" fill-opacity="0.5"/>
<path d="M13.9478 10.4909L14.0572 10.4888L14.1299 10.4071C17.5052 6.6118 22.839 4.16891 27.4964 4.25206C27.633 4.2561 27.7428 4.36646 27.7466 4.50221C27.8548 9.15697 25.3951 14.4946 21.5986 17.8813L21.5171 17.954L21.5151 18.0631C21.4546 21.2703 20.1408 24.3934 17.8769 26.6599C17.8208 26.7152 17.737 26.75 17.662 26.75C17.6368 26.75 17.615 26.7465 17.5959 26.7404C17.4782 26.7006 17.4172 26.623 17.4069 26.5515L16.8488 22.6508L16.7827 22.1888L16.4347 22.4999L15.8958 22.9816L15.8956 22.9818C15.8472 23.0251 15.787 23.0466 15.7257 23.0466C15.6586 23.0466 15.5937 23.0213 15.5446 22.9721L9.04621 16.4671C8.94936 16.3701 8.94532 16.216 9.03559 16.1149L9.03568 16.1149L9.51696 15.5754L9.82721 15.2276L9.36589 15.1615L5.46918 14.6028C5.46914 14.6028 5.46911 14.6028 5.46908 14.6028C5.37371 14.589 5.29375 14.5226 5.26257 14.4289C5.23253 14.3367 5.25739 14.2346 5.32604 14.1669L5.32736 14.1656C7.62422 11.8664 10.7444 10.5514 13.9478 10.4909ZM19.0906 12.9155L19.0907 12.9156C19.632 13.4575 20.3436 13.7288 21.0552 13.7288C21.7668 13.7288 22.4784 13.4575 23.0196 12.9157C24.1032 11.8322 24.103 10.0677 23.0197 8.98331C21.9363 7.89872 20.1742 7.89872 19.0907 8.98331L19.0906 8.9834C18.0084 10.0678 18.0084 11.8311 19.0906 12.9155Z" stroke="url(#paint1_linear_9453_8774)" stroke-opacity="0.1" stroke-width="0.5"/>
</g>
<path d="M6.72446 20.9036C5.6543 21.9738 4.18508 26.8088 4.02106 27.3559C3.96805 27.5319 4.01706 27.7229 4.14608 27.853C4.24209 27.949 4.36911 28 4.50013 28C4.54814 28 4.59615 27.993 4.64415 27.979C5.19124 27.815 10.026 26.3457 11.0961 25.2754C12.3013 24.0702 12.3013 22.1088 11.0961 20.9036C9.88994 19.6983 7.92964 19.6993 6.72446 20.9036Z" fill="#0CC2FF"/>
<defs>
<filter id="filter0_bi_9453_8774" x="-1.62069" y="-2.62069" width="36.2414" height="36.2414" filterUnits="userSpaceOnUse" color-interpolation-filters="sRGB">
<feFlood flood-opacity="0" result="BackgroundImageFix"/>
<feGaussianBlur in="BackgroundImageFix" stdDeviation="3.31034"/>
<feComposite in2="SourceAlpha" operator="in" result="effect1_backgroundBlur_9453_8774"/>
<feBlend mode="normal" in="SourceGraphic" in2="effect1_backgroundBlur_9453_8774" result="shape"/>
<feColorMatrix in="SourceAlpha" type="matrix" values="0 0 0 0 0 0 0 0 0 0 0 0 0 0 0 0 0 0 127 0" result="hardAlpha"/>
<feOffset dy="2.2069"/>
<feGaussianBlur stdDeviation="1.65517"/>
<feComposite in2="hardAlpha" operator="arithmetic" k2="-1" k3="1"/>
<feColorMatrix type="matrix" values="0 0 0 0 1 0 0 0 0 1 0 0 0 0 1 0 0 0 0.4 0"/>
<feBlend mode="normal" in2="shape" result="effect2_innerShadow_9453_8774"/>
</filter>
<linearGradient id="paint0_linear_9453_8774" x1="27.5526" y1="24.2198" x2="8.58529" y2="7.78606" gradientUnits="userSpaceOnUse">
<stop stop-color="#0CC2FF" stop-opacity="0.29"/>
<stop offset="1" stop-color="#0CC2FF"/>
</linearGradient>
<linearGradient id="paint1_linear_9453_8774" x1="27.5526" y1="24.2198" x2="8.58529" y2="7.78606" gradientUnits="userSpaceOnUse">
<stop stop-color="#96E5FF"/>
<stop offset="1" stop-color="#0CC2FF"/>
</linearGradient>
</defs>
</svg>
