<svg width="32" height="32" viewBox="0 0 32 32" fill="none"
  xmlns="http://www.w3.org/2000/svg">
  <g filter="url(#filter0_bi_8832_9928)">
    <path d="M27.2002 9.6002C27.2002 13.1348 24.3348 16.0002 20.8002 16.0002C19.0008 16.0002 17.3749 15.2577 16.2122 14.0623C15.7467 13.5837 15.0302 13.3796 14.433 13.6782C13.6298 14.0798 13.4568 15.1614 13.847 15.9703C14.2015 16.7052 14.4002 17.5295 14.4002 18.4002C14.4002 19.4012 14.7876 20.4428 15.6778 20.9006L16.3238 21.2328C17.5613 21.8692 19.0687 21.4032 20.3958 20.9847C20.7759 20.8648 21.1805 20.8002 21.6002 20.8002C23.8093 20.8002 25.6002 22.5911 25.6002 24.8002C25.6002 27.0093 23.8093 28.8002 21.6002 28.8002C19.3911 28.8002 17.6002 27.0093 17.6002 24.8002C17.6002 24.1856 17.3469 23.5581 16.8003 23.277L15.6837 22.7027C14.399 22.0421 12.8471 22.5311 11.5961 23.2534C10.7733 23.7284 9.8185 24.0002 8.8002 24.0002C5.7074 24.0002 3.2002 21.493 3.2002 18.4002C3.2002 15.3074 5.7074 12.8002 8.8002 12.8002C9.2365 12.8002 9.66116 12.8501 10.0688 12.9445C10.9181 13.1412 11.8287 13.1915 12.6085 12.8016L12.8243 12.6937C13.9312 12.1403 14.4002 10.8378 14.4002 9.6002C14.4002 6.06557 17.2656 3.2002 20.8002 3.2002C24.3348 3.2002 27.2002 6.06557 27.2002 9.6002Z" fill="black" fill-opacity="0.1"/>
    <path d="M27.2002 9.6002C27.2002 13.1348 24.3348 16.0002 20.8002 16.0002C19.0008 16.0002 17.3749 15.2577 16.2122 14.0623C15.7467 13.5837 15.0302 13.3796 14.433 13.6782C13.6298 14.0798 13.4568 15.1614 13.847 15.9703C14.2015 16.7052 14.4002 17.5295 14.4002 18.4002C14.4002 19.4012 14.7876 20.4428 15.6778 20.9006L16.3238 21.2328C17.5613 21.8692 19.0687 21.4032 20.3958 20.9847C20.7759 20.8648 21.1805 20.8002 21.6002 20.8002C23.8093 20.8002 25.6002 22.5911 25.6002 24.8002C25.6002 27.0093 23.8093 28.8002 21.6002 28.8002C19.3911 28.8002 17.6002 27.0093 17.6002 24.8002C17.6002 24.1856 17.3469 23.5581 16.8003 23.277L15.6837 22.7027C14.399 22.0421 12.8471 22.5311 11.5961 23.2534C10.7733 23.7284 9.8185 24.0002 8.8002 24.0002C5.7074 24.0002 3.2002 21.493 3.2002 18.4002C3.2002 15.3074 5.7074 12.8002 8.8002 12.8002C9.2365 12.8002 9.66116 12.8501 10.0688 12.9445C10.9181 13.1412 11.8287 13.1915 12.6085 12.8016L12.8243 12.6937C13.9312 12.1403 14.4002 10.8378 14.4002 9.6002C14.4002 6.06557 17.2656 3.2002 20.8002 3.2002C24.3348 3.2002 27.2002 6.06557 27.2002 9.6002Z" fill="url(#paint0_linear_8832_9928)" fill-opacity="0.5"/>
    <path d="M26.8002 9.6002C26.8002 12.9139 24.1138 15.6002 20.8002 15.6002C19.1132 15.6002 17.5895 14.9045 16.4989 13.7834C15.9425 13.2114 15.0432 12.9259 14.2542 13.3204C13.7254 13.5848 13.4182 14.0682 13.3022 14.5837C13.1871 15.0953 13.2532 15.66 13.4867 16.144C13.8156 16.826 14.0002 17.591 14.0002 18.4002C14.0002 19.4774 14.4165 20.7018 15.4949 21.2563L16.1409 21.5885C16.8575 21.957 17.6341 21.9962 18.377 21.9011C19.1157 21.8065 19.858 21.5737 20.5161 21.3662C20.8577 21.2584 21.2218 21.2002 21.6002 21.2002C23.5884 21.2002 25.2002 22.812 25.2002 24.8002C25.2002 26.7884 23.5884 28.4002 21.6002 28.4002C19.612 28.4002 18.0002 26.7884 18.0002 24.8002C18.0002 24.0978 17.7106 23.2953 16.9833 22.9213L15.8666 22.347C14.3884 21.5869 12.67 22.1715 11.3961 22.907C10.6325 23.3478 9.74643 23.6002 8.8002 23.6002C5.92831 23.6002 3.6002 21.2721 3.6002 18.4002C3.6002 15.5283 5.92831 13.2002 8.8002 13.2002C9.20591 13.2002 9.60029 13.2466 9.97851 13.3342C10.8619 13.5388 11.884 13.6111 12.7874 13.1594L13.0032 13.0515C14.3054 12.4004 14.8002 10.9083 14.8002 9.6002C14.8002 6.28649 17.4865 3.6002 20.8002 3.6002C24.1138 3.6002 26.8002 6.28649 26.8002 9.6002Z" stroke="url(#paint1_linear_8832_9928)" stroke-opacity="0.1" stroke-width="0.8"/>
  </g>
  <defs>
    <filter id="filter0_bi_8832_9928" x="-7.39291" y="-7.39291" width="45.1862" height="46.7858" filterUnits="userSpaceOnUse" color-interpolation-filters="sRGB">
      <feFlood flood-opacity="0" result="BackgroundImageFix"/>
      <feGaussianBlur in="BackgroundImageFix" stdDeviation="5.29655"/>
      <feComposite in2="SourceAlpha" operator="in" result="effect1_backgroundBlur_8832_9928"/>
      <feBlend mode="normal" in="SourceGraphic" in2="effect1_backgroundBlur_8832_9928" result="shape"/>
      <feColorMatrix in="SourceAlpha" type="matrix" values="0 0 0 0 0 0 0 0 0 0 0 0 0 0 0 0 0 0 127 0" result="hardAlpha"/>
      <feOffset dy="3.53103"/>
      <feGaussianBlur stdDeviation="2.64828"/>
      <feComposite in2="hardAlpha" operator="arithmetic" k2="-1" k3="1"/>
      <feColorMatrix type="matrix" values="0 0 0 0 1 0 0 0 0 1 0 0 0 0 1 0 0 0 0.4 0"/>
      <feBlend mode="normal" in2="shape" result="effect2_innerShadow_8832_9928"/>
    </filter>
    <linearGradient id="paint0_linear_8832_9928" x1="27.0492" y1="24.5754" x2="20.935" y2="18.9959" gradientUnits="userSpaceOnUse">
      <stop stop-color="#0CC2FF" stop-opacity="0.29"/>
      <stop offset="1" stop-color="#0CC2FF"/>
    </linearGradient>
    <linearGradient id="paint1_linear_8832_9928" x1="27.0492" y1="24.5754" x2="20.935" y2="18.9959" gradientUnits="userSpaceOnUse">
      <stop stop-color="#96E5FF"/>
      <stop offset="1" stop-color="#0CC2FF"/>
    </linearGradient>
  </defs>
</svg>
