<svg width="32" height="32" viewBox="0 0 32 32" fill="none" xmlns="http://www.w3.org/2000/svg">
<g filter="url(#filter0_bi_4507_1445)">
<path d="M30.7208 17.6844L26.9761 24.184C26.6847 24.6898 26.2675 25.1094 25.766 25.4011C25.2645 25.6927 24.6962 25.8462 24.1179 25.8462H3.43809C2.48037 25.8462 1.88366 24.7943 2.36621 23.9567L6.11083 17.4572C6.40225 16.9513 6.81951 16.5317 7.32102 16.24C7.82254 15.9484 8.39079 15.7949 8.96914 15.7949H29.6489C30.6066 15.7949 31.2034 16.8468 30.7208 17.6844Z" fill="black" fill-opacity="0.1"/>
<path d="M30.7208 17.6844L26.9761 24.184C26.6847 24.6898 26.2675 25.1094 25.766 25.4011C25.2645 25.6927 24.6962 25.8462 24.1179 25.8462H3.43809C2.48037 25.8462 1.88366 24.7943 2.36621 23.9567L6.11083 17.4572C6.40225 16.9513 6.81951 16.5317 7.32102 16.24C7.82254 15.9484 8.39079 15.7949 8.96914 15.7949H29.6489C30.6066 15.7949 31.2034 16.8468 30.7208 17.6844Z" fill="url(#paint0_linear_4507_1445)" fill-opacity="0.5"/>
<path d="M26.7595 24.0592L26.9761 24.184L26.7595 24.0592C26.4898 24.5274 26.1038 24.9154 25.6403 25.185C25.1768 25.4545 24.6519 25.5962 24.1179 25.5962H3.43809C2.67807 25.5962 2.19362 24.7571 2.58283 24.0815L6.32745 17.582C6.5972 17.1138 6.98321 16.7257 7.4467 16.4562C7.91017 16.1866 8.43508 16.0449 8.96914 16.0449H29.6489C30.409 16.0449 30.8934 16.884 30.5041 17.5596L26.7595 24.0592Z" stroke="url(#paint1_linear_4507_1445)" stroke-opacity="0.1" stroke-width="0.5"/>
</g>
<path d="M8.9684 14.1192H25.9274V11.6064C25.9274 10.2186 24.8162 9.09359 23.4456 9.09359H15.1729L11.8638 5.74316H3.59117C2.2205 5.74316 1.10938 6.86817 1.10938 8.25598V22.8118L4.68094 16.6126C5.56699 15.0746 7.20989 14.1192 8.9684 14.1192Z" fill="#0CC2FF"/>
<defs>
<filter id="filter0_bi_4507_1445" x="-4.42538" y="9.17423" width="41.9367" height="23.2926" filterUnits="userSpaceOnUse" color-interpolation-filters="sRGB">
<feFlood flood-opacity="0" result="BackgroundImageFix"/>
<feGaussianBlur in="BackgroundImageFix" stdDeviation="3.31034"/>
<feComposite in2="SourceAlpha" operator="in" result="effect1_backgroundBlur_4507_1445"/>
<feBlend mode="normal" in="SourceGraphic" in2="effect1_backgroundBlur_4507_1445" result="shape"/>
<feColorMatrix in="SourceAlpha" type="matrix" values="0 0 0 0 0 0 0 0 0 0 0 0 0 0 0 0 0 0 127 0" result="hardAlpha"/>
<feOffset dy="2.2069"/>
<feGaussianBlur stdDeviation="1.65517"/>
<feComposite in2="hardAlpha" operator="arithmetic" k2="-1" k3="1"/>
<feColorMatrix type="matrix" values="0 0 0 0 1 0 0 0 0 1 0 0 0 0 1 0 0 0 0.4 0"/>
<feBlend mode="normal" in2="shape" result="effect2_innerShadow_4507_1445"/>
</filter>
<linearGradient id="paint0_linear_4507_1445" x1="30.3334" y1="24.6312" x2="24.5137" y2="10.2353" gradientUnits="userSpaceOnUse">
<stop stop-color="#0CC2FF" stop-opacity="0.29"/>
<stop offset="1" stop-color="#0CC2FF"/>
</linearGradient>
<linearGradient id="paint1_linear_4507_1445" x1="30.3334" y1="24.6312" x2="24.5137" y2="10.2353" gradientUnits="userSpaceOnUse">
<stop stop-color="#96E5FF"/>
<stop offset="1" stop-color="#0CC2FF"/>
</linearGradient>
</defs>
</svg>
