<svg width="32" height="32" viewBox="0 0 32 32" fill="none" xmlns="http://www.w3.org/2000/svg">
<mask id="path-1-inside-1_8588_3310" fill="white">
<path fill-rule="evenodd" clip-rule="evenodd" d="M16 29C23.1797 29 29 23.1797 29 16C29 8.8203 23.1797 3 16 3C8.8203 3 3 8.8203 3 16C3 23.1797 8.8203 29 16 29ZM8.77979 23.2244V8.78H12.6986L16.0103 12.0367L19.3238 8.78H23.2406V23.2244H19.3232L16.0103 19.9572L12.6991 23.2244H8.77979ZM12.2438 9.89113H9.89091V22.1133H12.2432L15.2303 19.1658L12.0669 16.0023L15.2358 12.8334L12.2438 9.89113ZM19.779 22.1133L16.7903 19.1659L19.9539 16.0023L16.7849 12.8333L19.7784 9.89113H22.1295V22.1133H19.779ZM13.6383 16.0023L16.0104 18.3745L18.3825 16.0023L16.0104 13.6302L13.6383 16.0023Z"/>
</mask>
<g filter="url(#filter0_i_8588_3310)">
<path fill-rule="evenodd" clip-rule="evenodd" d="M16 29C23.1797 29 29 23.1797 29 16C29 8.8203 23.1797 3 16 3C8.8203 3 3 8.8203 3 16C3 23.1797 8.8203 29 16 29ZM8.77979 23.2244V8.78H12.6986L16.0103 12.0367L19.3238 8.78H23.2406V23.2244H19.3232L16.0103 19.9572L12.6991 23.2244H8.77979ZM12.2438 9.89113H9.89091V22.1133H12.2432L15.2303 19.1658L12.0669 16.0023L15.2358 12.8334L12.2438 9.89113ZM19.779 22.1133L16.7903 19.1659L19.9539 16.0023L16.7849 12.8333L19.7784 9.89113H22.1295V22.1133H19.779ZM13.6383 16.0023L16.0104 18.3745L18.3825 16.0023L16.0104 13.6302L13.6383 16.0023Z" fill="#5A5D68"/>
</g>
<path d="M8.77979 8.78V8.11333H8.11312V8.78H8.77979ZM8.77979 23.2244H8.11312V23.8911H8.77979V23.2244ZM12.6986 8.78L13.166 8.30466L12.9714 8.11333H12.6986V8.78ZM16.0103 12.0367L15.5429 12.512L16.0102 12.9716L16.4776 12.5121L16.0103 12.0367ZM19.3238 8.78V8.11333H19.051L18.8565 8.30454L19.3238 8.78ZM23.2406 8.78H23.9073V8.11333H23.2406V8.78ZM23.2406 23.2244V23.8911H23.9073V23.2244H23.2406ZM19.3232 23.2244L18.8551 23.6991L19.0498 23.8911H19.3232V23.2244ZM16.0103 19.9572L16.4784 19.4825L16.0102 19.0207L15.542 19.4826L16.0103 19.9572ZM12.6991 23.2244V23.8911H12.9727L13.1674 23.699L12.6991 23.2244ZM9.89091 9.89113V9.22446H9.22425V9.89113H9.89091ZM12.2438 9.89113L12.7112 9.41579L12.5166 9.22446H12.2438V9.89113ZM9.89091 22.1133H9.22425V22.78H9.89091V22.1133ZM12.2432 22.1133V22.78H12.5168L12.7115 22.5879L12.2432 22.1133ZM15.2303 19.1658L15.6986 19.6403L16.1763 19.169L15.7017 18.6944L15.2303 19.1658ZM12.0669 16.0023L11.5955 15.5309L11.1241 16.0023L11.5955 16.4737L12.0669 16.0023ZM15.2358 12.8334L15.7072 13.3048L16.1826 12.8295L15.7032 12.3581L15.2358 12.8334ZM16.7903 19.1659L16.3189 18.6945L15.8442 19.1692L16.3222 19.6405L16.7903 19.1659ZM19.779 22.1133L19.3108 22.588L19.5055 22.78H19.779V22.1133ZM19.9539 16.0023L20.4253 16.4737L20.8967 16.0023L20.4253 15.5309L19.9539 16.0023ZM16.7849 12.8333L16.3176 12.3579L15.838 12.8292L16.3135 13.3047L16.7849 12.8333ZM19.7784 9.89113V9.22446H19.5056L19.3111 9.41567L19.7784 9.89113ZM22.1295 9.89113H22.7961V9.22446H22.1295V9.89113ZM22.1295 22.1133V22.78H22.7961V22.1133H22.1295ZM16.0104 18.3745L15.539 18.8459L16.0104 19.3173L16.4818 18.8459L16.0104 18.3745ZM13.6383 16.0023L13.1668 15.5309L12.6954 16.0023L13.1668 16.4737L13.6383 16.0023ZM18.3825 16.0023L18.8539 16.4737L19.3253 16.0023L18.8539 15.5309L18.3825 16.0023ZM16.0104 13.6302L16.4818 13.1588L16.0104 12.6874L15.539 13.1588L16.0104 13.6302ZM28.3333 16C28.3333 22.8115 22.8115 28.3333 16 28.3333V29.6667C23.5479 29.6667 29.6667 23.5479 29.6667 16H28.3333ZM16 3.66667C22.8115 3.66667 28.3333 9.18849 28.3333 16H29.6667C29.6667 8.45211 23.5479 2.33333 16 2.33333V3.66667ZM3.66667 16C3.66667 9.18849 9.18849 3.66667 16 3.66667V2.33333C8.45211 2.33333 2.33333 8.45211 2.33333 16H3.66667ZM16 28.3333C9.18849 28.3333 3.66667 22.8115 3.66667 16H2.33333C2.33333 23.5479 8.45211 29.6667 16 29.6667V28.3333ZM8.11312 8.78V23.2244H9.44645V8.78H8.11312ZM12.6986 8.11333H8.77979V9.44667H12.6986V8.11333ZM16.4777 11.5613L13.166 8.30466L12.2311 9.25534L15.5429 12.512L16.4777 11.5613ZM18.8565 8.30454L15.543 11.5612L16.4776 12.5121L19.7911 9.25546L18.8565 8.30454ZM23.2406 8.11333H19.3238V9.44667H23.2406V8.11333ZM23.9073 23.2244V8.78H22.5739V23.2244H23.9073ZM19.3232 23.8911H23.2406V22.5578H19.3232V23.8911ZM15.5422 20.4318L18.8551 23.6991L19.7913 22.7498L16.4784 19.4825L15.5422 20.4318ZM13.1674 23.699L16.4785 20.4317L15.542 19.4826L12.2309 22.7499L13.1674 23.699ZM8.77979 23.8911H12.6991V22.5578H8.77979V23.8911ZM9.89091 10.5578H12.2438V9.22446H9.89091V10.5578ZM10.5576 22.1133V9.89113H9.22425V22.1133H10.5576ZM12.2432 21.4466H9.89091V22.78H12.2432V21.4466ZM14.7621 18.6913L11.775 21.6388L12.7115 22.5879L15.6986 19.6403L14.7621 18.6913ZM11.5955 16.4737L14.7589 19.6372L15.7017 18.6944L12.5383 15.5309L11.5955 16.4737ZM14.7644 12.362L11.5955 15.5309L12.5383 16.4737L15.7072 13.3048L14.7644 12.362ZM11.7763 10.3665L14.7684 13.3088L15.7032 12.3581L12.7112 9.41579L11.7763 10.3665ZM16.3222 19.6405L19.3108 22.588L20.2471 21.6387L17.2584 18.6912L16.3222 19.6405ZM19.4825 15.5309L16.3189 18.6945L17.2617 19.6373L20.4253 16.4737L19.4825 15.5309ZM16.3135 13.3047L19.4825 16.4737L20.4253 15.5309L17.2563 12.3619L16.3135 13.3047ZM19.3111 9.41567L16.3176 12.3579L17.2522 13.3088L20.2457 10.3666L19.3111 9.41567ZM22.1295 9.22446H19.7784V10.5578H22.1295V9.22446ZM22.7961 22.1133V9.89113H21.4628V22.1133H22.7961ZM19.779 22.78H22.1295V21.4466H19.779V22.78ZM16.4818 17.9031L14.1097 15.5309L13.1668 16.4737L15.539 18.8459L16.4818 17.9031ZM17.9111 15.5309L15.539 17.9031L16.4818 18.8459L18.8539 16.4737L17.9111 15.5309ZM15.539 14.1016L17.9111 16.4737L18.8539 15.5309L16.4818 13.1588L15.539 14.1016ZM14.1097 16.4737L16.4818 14.1016L15.539 13.1588L13.1668 15.5309L14.1097 16.4737Z" fill="#464955" mask="url(#path-1-inside-1_8588_3310)"/>
<defs>
<filter id="filter0_i_8588_3310" x="3" y="3" width="26" height="31.3333" filterUnits="userSpaceOnUse" color-interpolation-filters="sRGB">
<feFlood flood-opacity="0" result="BackgroundImageFix"/>
<feBlend mode="normal" in="SourceGraphic" in2="BackgroundImageFix" result="shape"/>
<feColorMatrix in="SourceAlpha" type="matrix" values="0 0 0 0 0 0 0 0 0 0 0 0 0 0 0 0 0 0 127 0" result="hardAlpha"/>
<feOffset dy="5.33333"/>
<feGaussianBlur stdDeviation="2.66667"/>
<feComposite in2="hardAlpha" operator="arithmetic" k2="-1" k3="1"/>
<feColorMatrix type="matrix" values="0 0 0 0 0 0 0 0 0 0 0 0 0 0 0 0 0 0 0.25 0"/>
<feBlend mode="normal" in2="shape" result="effect1_innerShadow_8588_3310"/>
</filter>
</defs>
</svg>
