<svg width="20" height="20" viewBox="0 0 20 20" fill="none" xmlns="http://www.w3.org/2000/svg">
<path fill-rule="evenodd" clip-rule="evenodd" d="M19 10C19 16.7495 16.7495 19 10 19C3.25049 19 1 16.7495 1 10C1 3.25049 3.25049 1 10 1C16.7495 1 19 3.25049 19 10Z" fill="#DEDEDF"/>
<path d="M10 8.90918C9.40003 8.90918 8.90837 9.40085 8.90837 10.0008C8.90837 10.6008 9.40003 11.0925 10 11.0925C10.6 11.0925 11.0917 10.6008 11.0917 10.0008C11.0917 9.40085 10.6 8.90918 10 8.90918ZM5.83337 8.90918C5.23337 8.90918 4.7417 9.40085 4.7417 10.0008C4.7417 10.6008 5.23337 11.0925 5.83337 11.0925C6.43337 11.0925 6.92503 10.6008 6.92503 10.0008C6.92503 9.40085 6.43337 8.90918 5.83337 8.90918ZM14.1667 8.90918C13.5667 8.90918 13.075 9.40085 13.075 10.0008C13.075 10.6008 13.5667 11.0925 14.1667 11.0925C14.7667 11.0925 15.2584 10.6008 15.2584 10.0008C15.2584 9.40085 14.7667 8.90918 14.1667 8.90918Z" fill="#7F7F89"/>
</svg>
