<svg width="246" height="50" viewBox="0 0 246 50" fill="none" xmlns="http://www.w3.org/2000/svg">
<path d="M50.9393 34.8531C50.3511 34.8531 50.057 34.706 49.7629 34.559C49.6158 34.2649 49.4688 33.9707 49.4688 33.5296V17.059C49.4688 16.6178 49.6158 16.1766 49.7629 16.0296C50.057 15.7354 50.3511 15.5884 50.9393 15.5884H57.8511C60.4982 15.5884 62.4099 16.1766 63.7335 17.206C64.9099 18.3825 65.6452 20.0001 65.6452 22.206C65.6452 24.4119 65.057 26.0296 63.7335 27.206C62.557 28.2354 60.4982 28.8237 57.8511 28.8237H55.204V33.3825C55.204 33.8237 55.057 34.2649 54.9099 34.4119C54.6158 34.706 54.3217 34.706 53.7335 34.706H50.9393V34.8531ZM57.4099 24.706C58.1452 24.706 58.7335 24.559 59.1746 24.1178C59.6158 23.6766 59.7629 23.0884 59.7629 22.206C59.7629 21.3237 59.6158 20.7354 59.1746 20.2943C58.7335 19.8531 58.1452 19.706 57.4099 19.706H55.204V24.706H57.4099Z" fill="#00040F"/>
<path d="M72.2652 35.2942C70.5005 35.2942 69.0299 34.7059 68.0005 33.5295C66.971 32.353 66.3828 30.7354 66.3828 28.6765C66.3828 27.0589 66.6769 25.7354 67.4122 24.5589C68.1475 23.3824 69.1769 22.5001 70.5005 21.7648C71.824 21.1765 73.4416 20.7354 75.0593 20.7354C76.5299 20.7354 77.7063 20.8824 78.8828 21.1765C80.0593 21.4707 80.9416 21.9118 81.971 22.5001V33.8236C81.971 34.1177 81.971 34.4118 81.824 34.5589C81.6769 34.7059 81.3828 34.7059 81.0887 34.7059H78.1475C78.0005 34.7059 77.7063 34.7059 77.7063 34.5589C77.5593 34.4118 77.5593 34.4118 77.4122 34.2648L76.971 33.3824C76.3828 33.9706 75.7946 34.4118 75.0593 34.7059C74.324 35.1471 73.2946 35.2942 72.2652 35.2942ZM74.324 31.4706C75.0593 31.4706 75.6475 31.3236 76.0887 30.8824C76.5299 30.5883 76.6769 30.0001 76.6769 29.4118V25.0001C76.3828 24.853 75.7946 24.7059 75.3534 24.7059C74.324 24.7059 73.5887 25.0001 73.0005 25.7354C72.4122 26.4706 72.1181 27.353 72.1181 28.6765C72.1181 30.4412 72.8534 31.4706 74.324 31.4706Z" fill="#00040F"/>
<path d="M85.9432 34.8529C85.355 34.8529 85.0609 34.7059 84.7668 34.5588C84.4727 34.2647 84.4727 33.9706 84.4727 33.5294V22.0588C84.4727 21.7647 84.4727 21.4706 84.6197 21.3235C84.7668 21.1764 85.0609 21.1764 85.355 21.1764H88.2962C88.5903 21.1764 88.7374 21.1764 88.7374 21.3235C88.8844 21.3235 88.8844 21.4706 89.0315 21.6176L89.1785 22.5C89.7668 21.9117 90.355 21.6176 91.2374 21.3235C92.1197 21.0294 93.0021 20.8823 94.1785 20.8823C95.6491 20.8823 96.9727 21.3235 97.855 22.2059C98.7374 23.0882 99.3256 24.2647 99.3256 26.0294V33.5294C99.3256 33.9706 99.1785 34.4117 99.0315 34.5588C98.8844 34.8529 98.4432 34.8529 97.855 34.8529H95.0609C94.4727 34.8529 94.1785 34.7059 93.8844 34.5588C93.5903 34.2647 93.5903 33.9706 93.5903 33.5294V26.3235C93.5903 25.7353 93.4432 25.2941 93.1491 25.147C92.855 24.8529 92.5609 24.7059 91.9727 24.7059C91.3844 24.7059 90.9432 24.8529 90.6491 25.147C90.355 25.4411 90.2079 25.8823 90.2079 26.3235V33.3823C90.2079 33.8235 90.0609 34.2647 89.9138 34.4117C89.7668 34.7059 89.3256 34.7059 88.7374 34.7059H85.9432V34.8529Z" fill="#00040F"/>
<path d="M109.324 35.2941C106.677 35.2941 104.618 34.7058 103.147 33.3823C101.677 32.2058 100.941 30.4411 100.941 28.0882C100.941 26.6176 101.236 25.4411 101.971 24.2647C102.559 23.2353 103.588 22.3529 104.765 21.7647C106.088 21.1764 107.559 20.8823 109.177 20.8823C110.5 20.8823 111.53 21.0294 112.412 21.3235C113.294 21.6176 114.177 21.9117 114.765 22.5C114.912 22.647 115.059 22.7941 115.059 22.9411C115.059 23.0882 114.912 23.2353 114.765 23.5294L113.588 25.5882C113.441 25.8823 113.294 26.0294 113.147 26.0294C113 26.0294 112.853 25.8823 112.559 25.7353C112.118 25.4411 111.53 25.147 111.088 25C110.647 24.8529 110.059 24.7059 109.471 24.7059C108.588 24.7059 107.706 25 107.118 25.5882C106.53 26.1764 106.236 27.0588 106.236 28.0882C106.236 29.1176 106.53 30 107.118 30.5882C107.706 31.1764 108.441 31.4706 109.471 31.4706C110.059 31.4706 110.647 31.3235 111.088 31.1764C111.53 31.0294 112.118 30.7353 112.559 30.4411C112.853 30.2941 113 30.147 113.147 30.147C113.294 30.147 113.441 30.2941 113.588 30.5882L114.912 32.7941C115.059 32.9412 115.059 33.0882 115.059 33.2353C115.059 33.3823 114.912 33.5294 114.765 33.6764C114.03 34.1176 113.147 34.5588 112.118 34.8529C111.677 35.147 110.647 35.2941 109.324 35.2941Z" fill="#00040F"/>
<path d="M122.707 35.2942C120.942 35.2942 119.471 34.7059 118.442 33.5295C117.412 32.353 116.824 30.7354 116.824 28.6765C116.824 27.0589 117.118 25.7354 117.854 24.5589C118.589 23.3824 119.618 22.5001 120.942 21.7648C122.265 21.1765 123.883 20.7354 125.501 20.7354C126.971 20.7354 128.148 20.8824 129.324 21.1765C130.501 21.4707 131.383 21.9118 132.412 22.5001V33.8236C132.412 34.1177 132.412 34.4118 132.265 34.5589C132.118 34.7059 131.824 34.7059 131.53 34.7059H128.589C128.442 34.7059 128.148 34.7059 128.148 34.5589C128.001 34.4118 128.001 34.4118 127.854 34.2648L127.412 33.3824C126.824 33.9706 126.236 34.4118 125.501 34.7059C124.765 35.1471 123.883 35.2942 122.707 35.2942ZM124.912 31.4706C125.648 31.4706 126.236 31.3236 126.677 30.8824C127.118 30.5883 127.265 30.0001 127.265 29.4118V25.0001C126.971 24.853 126.383 24.7059 125.942 24.7059C124.912 24.7059 124.177 25.0001 123.589 25.7354C123.001 26.4706 122.707 27.353 122.707 28.6765C122.56 30.4412 123.295 31.4706 124.912 31.4706Z" fill="#00040F"/>
<path d="M150.355 33.8237C150.502 33.9707 150.502 34.1178 150.502 34.2649C150.502 34.4119 150.502 34.559 150.355 34.706C150.208 34.8531 150.061 34.8531 149.914 34.8531H145.502C145.208 34.8531 145.061 34.8531 144.914 34.8531C144.767 34.8531 144.62 34.706 144.473 34.559L140.649 29.2649V33.3825C140.649 33.8237 140.502 34.2649 140.355 34.4119C140.061 34.706 139.767 34.706 139.179 34.706H136.385C135.796 34.706 135.502 34.559 135.208 34.4119C135.061 34.1178 134.914 33.8237 134.914 33.3825V17.059C134.914 16.6178 135.061 16.1766 135.208 16.0296C135.502 15.7354 135.796 15.5884 136.385 15.5884H139.179C139.767 15.5884 140.061 15.7354 140.355 16.0296C140.649 16.3237 140.649 16.6178 140.649 17.059V26.4707L144.326 21.6178C144.473 21.4707 144.62 21.3237 144.767 21.3237C144.914 21.3237 145.061 21.1766 145.355 21.1766H149.767C149.914 21.1766 150.061 21.1766 150.208 21.3237C150.355 21.4707 150.355 21.6178 150.355 21.7649C150.355 21.9119 150.355 22.059 150.208 22.206L145.355 27.7943L150.355 33.8237Z" fill="#00040F"/>
<path d="M159.47 35.2942C157.852 35.2942 156.528 35.0001 155.205 34.559C154.028 33.9707 152.999 33.2354 152.264 32.206C151.528 31.1766 151.234 29.8531 151.234 28.3825C151.234 26.0295 151.97 24.1178 153.293 22.9413C154.617 21.6178 156.676 21.0295 159.176 21.0295C161.676 21.0295 163.587 21.6178 164.764 22.9413C166.087 24.1178 166.676 25.8825 166.676 28.0884C166.676 28.9707 166.234 29.559 165.499 29.559H156.676C156.676 30.4413 156.97 31.0295 157.558 31.4707C158.146 31.9119 159.176 32.059 160.352 32.059C161.087 32.059 161.823 32.059 162.264 31.9119C162.852 31.7648 163.293 31.4707 163.881 31.3237C164.176 31.1766 164.323 31.1766 164.323 31.1766C164.47 31.1766 164.617 31.3237 164.764 31.4707L165.793 33.2354C165.94 33.3825 165.94 33.5295 165.94 33.6766C165.94 33.8237 165.793 33.9707 165.646 34.1178C164.911 34.5589 164.028 35.0001 162.999 35.2942C161.823 35.1472 160.793 35.2942 159.47 35.2942ZM161.676 26.4707C161.676 25.7354 161.528 25.1472 161.087 24.8531C160.646 24.4119 160.058 24.2648 159.176 24.2648C158.293 24.2648 157.705 24.4119 157.264 24.8531C156.823 25.2943 156.676 25.7354 156.676 26.4707H161.676Z" fill="#00040F"/>
<path d="M176.527 35.2941C174.909 35.2941 173.439 35.147 171.968 34.8529C170.497 34.5588 169.468 33.9706 168.586 33.3823C168.292 33.2353 168.145 32.9412 168.145 32.7941C168.145 32.647 168.145 32.5 168.292 32.3529L169.615 30.147C169.762 29.8529 169.909 29.8529 170.056 29.8529C170.203 29.8529 170.35 29.8529 170.497 30C171.233 30.4412 171.968 30.7353 172.85 31.0294C173.733 31.3235 174.615 31.4706 175.497 31.4706C176.38 31.4706 176.968 31.3235 177.409 31.0294C177.85 30.7353 177.997 30.2941 177.997 29.7059C177.997 29.1176 177.703 28.6765 177.262 28.3823C176.821 28.0882 175.939 27.647 174.615 27.2059C172.703 26.4706 171.233 25.7353 170.203 24.8529C169.174 23.9706 168.586 22.647 168.586 21.1765C168.586 19.2647 169.321 17.9412 170.645 16.9118C171.968 15.8823 173.733 15.4412 175.939 15.4412C177.556 15.4412 178.88 15.5882 179.909 15.8823C181.086 16.1765 181.968 16.6176 182.703 17.0588C182.997 17.3529 183.145 17.5 183.145 17.7941C183.145 17.9412 183.145 18.0882 182.997 18.2353L181.674 20.4412C181.527 20.7353 181.38 20.7353 181.233 20.7353C181.086 20.7353 180.939 20.7353 180.792 20.5882C179.762 19.8529 178.439 19.5588 176.821 19.5588C175.939 19.5588 175.35 19.7059 174.909 20C174.468 20.2941 174.321 20.7353 174.321 21.3235C174.321 21.7647 174.468 22.0588 174.615 22.3529C174.909 22.647 175.203 22.7941 175.497 23.0882C175.939 23.2353 176.527 23.5294 177.262 23.8235L177.85 23.9706C179.174 24.5588 180.35 25 181.086 25.5882C181.968 26.0294 182.556 26.7647 182.997 27.5C183.439 28.2353 183.586 29.1176 183.586 30.147C183.586 31.7647 182.997 33.2353 181.674 34.1176C180.792 34.7059 178.88 35.2941 176.527 35.2941Z" fill="#00040F"/>
<path d="M189.91 34.8527C189.616 34.8527 189.469 34.8527 189.322 34.7057C189.175 34.5586 189.028 34.4116 189.028 34.1174L185.352 21.9116C185.352 21.7645 185.352 21.7645 185.352 21.6174C185.352 21.3233 185.499 21.1763 185.94 21.1763H189.616C189.91 21.1763 190.057 21.1763 190.205 21.3233C190.352 21.4704 190.352 21.4704 190.499 21.7645L191.969 28.2351L193.881 23.088C194.028 22.7939 194.028 22.6469 194.175 22.6469C194.322 22.4998 194.469 22.4998 194.763 22.4998H196.528C196.822 22.4998 196.969 22.4998 197.116 22.6469C197.263 22.7939 197.263 22.941 197.41 23.088L199.322 28.2351L200.94 21.7645C200.94 21.6174 201.087 21.4704 201.234 21.3233C201.381 21.1763 201.528 21.1763 201.675 21.1763H205.499C205.94 21.1763 206.087 21.3233 206.087 21.6174C206.087 21.6174 206.087 21.7645 206.087 21.9116L202.41 34.1174C202.263 34.4116 202.263 34.5586 202.116 34.7057C201.969 34.8527 201.822 34.8527 201.528 34.8527H198.734C198.44 34.8527 198.293 34.8527 198.146 34.7057C197.999 34.5586 197.852 34.4116 197.852 34.1174L195.94 28.9704L194.028 34.1174C193.881 34.4116 193.881 34.5586 193.734 34.7057C193.587 34.8527 193.44 34.8527 193.146 34.8527H189.91Z" fill="#00040F"/>
<path d="M212.855 35.2942C211.09 35.2942 209.62 34.7059 208.59 33.5295C207.561 32.353 206.973 30.7354 206.973 28.6765C206.973 27.0589 207.267 25.7354 208.002 24.5589C208.737 23.3824 209.767 22.5001 211.09 21.7648C212.414 21.1765 214.031 20.7354 215.649 20.7354C217.12 20.7354 218.296 20.8824 219.473 21.1765C220.649 21.4707 221.531 21.9118 222.561 22.5001V33.8236C222.561 34.1177 222.561 34.4118 222.414 34.5589C222.267 34.7059 221.973 34.7059 221.679 34.7059H218.737C218.59 34.7059 218.443 34.7059 218.296 34.5589C218.149 34.4118 218.149 34.4118 218.002 34.2648L217.561 33.3824C216.973 33.9706 216.384 34.4118 215.649 34.7059C214.914 35.1471 214.031 35.2942 212.855 35.2942ZM215.061 31.4706C215.796 31.4706 216.384 31.3236 216.826 30.8824C217.267 30.5883 217.414 30.0001 217.414 29.4118V25.0001C217.12 24.853 216.531 24.7059 216.09 24.7059C215.061 24.7059 214.326 25.0001 213.737 25.7354C213.149 26.4706 212.855 27.353 212.855 28.6765C212.708 30.4412 213.443 31.4706 215.061 31.4706Z" fill="#00040F"/>
<path d="M226.525 40.5884C225.937 40.5884 225.643 40.4413 225.349 40.2943C225.202 40.0001 225.055 39.706 225.055 39.2648V23.0884C225.937 22.5001 226.966 21.9119 228.29 21.6178C229.614 21.1766 230.937 21.0295 232.261 21.0295C237.996 21.0295 240.79 23.3825 240.79 28.2354C240.79 30.4413 240.202 32.206 239.025 33.5295C237.849 34.8531 236.084 35.4413 233.878 35.4413C233.29 35.4413 232.702 35.2942 232.114 35.1472C231.525 35.0001 231.084 34.8531 230.643 34.559V39.2648C230.643 39.706 230.496 40.1472 230.349 40.2943C230.055 40.5884 229.761 40.5884 229.172 40.5884H226.525ZM232.702 31.4707C233.584 31.4707 234.172 31.1766 234.466 30.5884C234.908 30.0001 235.055 29.1178 235.055 28.0884C235.055 26.9119 234.761 26.0295 234.319 25.4413C233.878 25.0001 233.143 24.706 232.114 24.706C231.525 24.706 230.937 24.8531 230.643 25.0001V29.4119C230.643 30.0001 230.79 30.5884 231.231 30.8825C231.525 31.3237 232.114 31.4707 232.702 31.4707Z" fill="#00040F"/>
<path fill-rule="evenodd" clip-rule="evenodd" d="M11.9692 12.353C11.381 9.4118 13.7339 6.61768 16.6751 6.61768C19.3222 6.61768 21.528 8.82356 21.528 11.4706V17.353C22.2633 17.353 22.8516 17.353 23.5869 17.353C24.1751 17.353 24.9104 17.353 25.4986 17.353V11.4706C25.4986 8.82356 27.7045 6.61768 30.3516 6.61768C33.2927 6.61768 35.6457 9.4118 35.0574 12.353L33.7339 19.2647C38.1457 21.1765 41.528 24.5588 41.528 28.8236V31.3236C41.528 34.853 39.1751 37.7941 35.9398 39.7059C32.7045 41.7647 28.2927 42.9412 23.4398 42.9412C18.5869 42.9412 14.1751 41.7647 10.9398 39.7059C7.7045 37.7941 5.35156 34.853 5.35156 31.3236V28.8236C5.35156 24.5588 8.73391 21.1765 13.1457 19.2647L11.9692 12.353ZM32.1163 20.2941L33.5869 12.2059C34.028 10.1471 32.4104 8.23532 30.3516 8.23532C28.4398 8.23532 26.9692 9.70591 26.9692 11.6177V19.1177C26.528 19.1177 25.9398 18.9706 25.4986 18.9706C24.9104 18.9706 24.1751 18.9706 23.5869 18.9706C22.8516 18.9706 22.2633 18.9706 21.528 19.1177C21.0869 19.1177 20.4986 19.2647 20.0574 19.2647V11.7647C20.0574 9.85297 18.5869 8.38238 16.6751 8.38238C14.6163 8.38238 12.9986 10.2941 13.4398 12.353L14.9104 20.5883C10.2045 22.353 6.96921 25.5883 6.96921 29.2647V31.7647C6.96921 37.353 14.3221 41.9118 23.4398 41.9118C32.5574 41.9118 39.9104 37.353 39.9104 31.7647V29.2647C40.0574 25.2941 36.8222 22.0589 32.1163 20.2941Z" fill="#633001"/>
<path d="M40.0584 31.4705C40.0584 37.0587 32.7054 41.6175 23.5878 41.6175C14.4701 41.6175 7.11719 37.0587 7.11719 31.4705V28.9705H40.2054V31.4705H40.0584Z" fill="#FEDC90"/>
<path fill-rule="evenodd" clip-rule="evenodd" d="M13.4421 12.0587C13.0009 9.9999 14.6186 8.08813 16.6774 8.08813C18.5892 8.08813 20.0597 9.55872 20.0597 11.4705V19.1175C21.2362 18.9705 22.4127 18.8234 23.5892 18.8234C24.7656 18.8234 25.9421 18.9705 26.9715 18.9705V11.4705C26.9715 9.55872 28.4421 8.08813 30.3539 8.08813C32.4127 8.08813 34.0303 9.9999 33.5892 12.0587L32.1186 20.147C36.9715 21.9117 40.2068 25.147 40.2068 28.8234C40.2068 34.4117 32.8539 38.9705 23.7362 38.9705C14.6186 38.9705 7.26562 34.4117 7.26562 28.8234C7.26562 25.147 10.5009 21.9117 15.2068 20.147L13.4421 12.0587Z" fill="#D1884F"/>
<path d="M19.0255 28.2353C19.0255 29.7059 18.1432 31.0294 17.2608 31.0294C16.3784 31.0294 15.4961 29.8529 15.4961 28.2353C15.4961 26.7647 16.3784 25.4412 17.2608 25.4412C18.1432 25.4412 19.0255 26.6176 19.0255 28.2353Z" fill="#633001"/>
<path d="M31.6778 28.2353C31.6778 29.7059 30.7955 31.0294 29.9131 31.0294C28.8837 31.0294 28.1484 29.8529 28.1484 28.2353C28.1484 26.7647 29.0308 25.4412 29.9131 25.4412C30.7955 25.4412 31.6778 26.6176 31.6778 28.2353Z" fill="#633001"/>
</svg>
