<svg width="24" height="24" viewBox="0 0 24 24" fill="none" xmlns="http://www.w3.org/2000/svg">
<g clip-path="url(#clip0_6787_5624)">
<g filter="url(#filter0_f_6787_5624)">
<circle cx="12" cy="12" r="5.5" fill="#66D9FF"/>
</g>
<path d="M12.382 9.33051V5.94772M12.382 8.61176C12.382 9.50016 10.6176 10.2204 8.44101 10.2204C6.26446 10.2204 4.50002 9.50016 4.50002 8.61176M11.6187 12.1058C10.9014 12.5042 9.74518 12.7627 8.44101 12.7627C6.26445 12.7627 4.50001 12.0425 4.50001 11.1541M11.6068 14.6547C10.8886 15.0494 9.738 15.3051 8.44101 15.3051C6.26445 15.3051 4.50001 14.5849 4.50001 13.6965M11.6068 17.193C10.8886 17.5876 9.73799 17.8434 8.44103 17.8434C6.26444 17.8434 4.5 17.1232 4.5 16.2348V6.10857M19.4888 15.3491C19.4888 16.2375 17.7244 16.9576 15.5478 16.9576C13.3713 16.9576 11.6068 16.2375 11.6068 15.3491M19.4888 12.8067C19.4888 13.6951 17.7244 14.4153 15.5478 14.4153C13.3713 14.4153 11.6068 13.6951 11.6068 12.8067M11.6186 10.3728V17.8916C11.6186 18.7799 13.383 19.5 15.5593 19.5C17.7357 19.5 19.5 18.7799 19.5 17.8916V10.3728M4.5 6.08898C4.5 5.21142 6.26431 4.5 8.44068 4.5C10.617 4.5 12.3814 5.21142 12.3814 6.08898C12.3814 6.96655 10.617 7.67797 8.44068 7.67797C6.26431 7.67797 4.5 6.96655 4.5 6.08898ZM11.6186 10.2839C11.6186 9.40633 13.4266 8.69492 15.603 8.69492C17.7793 8.69492 19.5 9.40633 19.5 10.2839C19.5 11.1615 17.7793 11.8729 15.603 11.8729C13.4266 11.8729 11.6186 11.1615 11.6186 10.2839Z" stroke="#EEEEEE" stroke-miterlimit="10"/>
</g>
<defs>
<filter id="filter0_f_6787_5624" x="-2.12" y="-2.12" width="28.24" height="28.24" filterUnits="userSpaceOnUse" color-interpolation-filters="sRGB">
<feFlood flood-opacity="0" result="BackgroundImageFix"/>
<feBlend mode="normal" in="SourceGraphic" in2="BackgroundImageFix" result="shape"/>
<feGaussianBlur stdDeviation="4.31" result="effect1_foregroundBlur_6787_5624"/>
</filter>
<clipPath id="clip0_6787_5624">
<rect width="24" height="24" fill="white"/>
</clipPath>
</defs>
</svg>
