<?xml version="1.0" standalone="no"?>
<!DOCTYPE svg PUBLIC "-//W3C//DTD SVG 20010904//EN"
 "http://www.w3.org/TR/2001/REC-SVG-20010904/DTD/svg10.dtd">
<svg version="1.0" xmlns="http://www.w3.org/2000/svg"
 width="700.000000pt" height="700.000000pt" viewBox="0 0 700.000000 700.000000"
 preserveAspectRatio="xMidYMid meet">
<metadata>
Created by potrace 1.14, written by Peter Selinger 2001-2017
</metadata>
<g transform="translate(0.000000,700.000000) scale(0.100000,-0.100000)"
fill="#000000" stroke="none">
<path d="M879 6120 c-1 -3 -2 -317 -3 -698 l-1 -692 270 -270 270 -270 135
135 c74 75 136 137 138 139 2 2 -92 99 -209 214 l-211 211 0 416 c-1 229 2
419 6 422 3 4 193 6 422 6 l415 0 183 -184 c101 -101 197 -196 213 -212 l29
-27 133 134 c74 73 133 137 133 141 1 8 -522 534 -531 536 -19 4 -1391 3
-1392 -1z"/>
<path d="M2746 4255 l-1871 -1870 0 -697 0 -698 700 0 700 0 1868 1868 1867
1867 0 698 c0 383 -3 698 -7 698 -5 1 -318 2 -697 3 l-690 1 -1870 -1870z
m2847 1476 l27 -1 0 -419 0 -418 -1756 -1757 -1757 -1756 -418 0 -419 0 -1 23
c0 12 0 202 -1 421 l0 399 1756 1756 1756 1756 392 -2 c216 -1 405 -2 421 -2z"/>
<path d="M5335 2786 c-107 -107 -135 -140 -126 -150 6 -7 101 -103 211 -212
l200 -199 0 -422 0 -423 -421 0 -420 0 -211 210 c-116 115 -213 210 -215 210
-2 0 -65 -61 -140 -136 l-136 -136 269 -269 269 -269 697 0 698 0 0 698 0 698
-266 264 c-146 146 -267 267 -269 269 -2 2 -65 -58 -140 -133z"/>
</g>
</svg>
