<svg width="32" height="32" viewBox="0 0 32 32" fill="none" xmlns="http://www.w3.org/2000/svg">
<g filter="url(#filter0_i_199_572)">
<path d="M30.7199 17.6844L26.9752 24.184C26.6838 24.6898 26.2666 25.1094 25.7651 25.4011C25.2636 25.6927 24.6953 25.8462 24.117 25.8462H3.43719C2.47947 25.8462 1.88276 24.7943 2.36531 23.9567L6.10993 17.4572C6.40135 16.9513 6.81861 16.5317 7.32012 16.24C7.82164 15.9484 8.38989 15.7949 8.96824 15.7949H29.648C30.6057 15.7949 31.2025 16.8468 30.7199 17.6844Z" fill="#9497A2"/>
</g>
<path d="M26.7586 24.0592L26.9752 24.184L26.7586 24.0592C26.4889 24.5274 26.1029 24.9154 25.6394 25.185C25.1759 25.4545 24.651 25.5962 24.117 25.5962H3.43719C2.67717 25.5962 2.19272 24.7571 2.58193 24.0815L6.32655 17.582C6.5963 17.1138 6.98231 16.7257 7.4458 16.4562C7.90927 16.1866 8.43418 16.0449 8.96824 16.0449H29.648C30.4081 16.0449 30.8925 16.884 30.5032 17.5596L26.7586 24.0592Z" stroke="#6F727E" stroke-opacity="0.5" stroke-width="0.5"/>
<g filter="url(#filter1_i_199_572)">
<path d="M8.9684 14.1192H25.9274V11.6064C25.9274 10.2186 24.8162 9.09359 23.4456 9.09359H15.1729L11.8638 5.74316H3.59117C2.2205 5.74316 1.10938 6.86817 1.10938 8.25598V22.8118L4.68094 16.6126C5.56699 15.0746 7.20989 14.1192 8.9684 14.1192Z" fill="#9497A2"/>
</g>
<path d="M1.35938 21.8771V8.25598C1.35938 7.00331 2.36149 5.99316 3.59117 5.99316H11.7594L14.995 9.26927L15.0684 9.34359H15.1729H23.4456C24.6752 9.34359 25.6774 10.3537 25.6774 11.6064V13.8692H8.9684C7.11947 13.8692 5.39449 14.8733 4.46432 16.4878L1.35938 21.8771Z" stroke="#6F727E" stroke-opacity="0.5" stroke-width="0.5"/>
<defs>
<filter id="filter0_i_199_572" x="2.19441" y="15.7949" width="28.6964" height="14.0513" filterUnits="userSpaceOnUse" color-interpolation-filters="sRGB">
<feFlood flood-opacity="0" result="BackgroundImageFix"/>
<feBlend mode="normal" in="SourceGraphic" in2="BackgroundImageFix" result="shape"/>
<feColorMatrix in="SourceAlpha" type="matrix" values="0 0 0 0 0 0 0 0 0 0 0 0 0 0 0 0 0 0 127 0" result="hardAlpha"/>
<feOffset dy="4"/>
<feGaussianBlur stdDeviation="2"/>
<feComposite in2="hardAlpha" operator="arithmetic" k2="-1" k3="1"/>
<feColorMatrix type="matrix" values="0 0 0 0 0 0 0 0 0 0 0 0 0 0 0 0 0 0 0.25 0"/>
<feBlend mode="normal" in2="shape" result="effect1_innerShadow_199_572"/>
</filter>
<filter id="filter1_i_199_572" x="1.10938" y="5.74316" width="24.818" height="21.0686" filterUnits="userSpaceOnUse" color-interpolation-filters="sRGB">
<feFlood flood-opacity="0" result="BackgroundImageFix"/>
<feBlend mode="normal" in="SourceGraphic" in2="BackgroundImageFix" result="shape"/>
<feColorMatrix in="SourceAlpha" type="matrix" values="0 0 0 0 0 0 0 0 0 0 0 0 0 0 0 0 0 0 127 0" result="hardAlpha"/>
<feOffset dy="4"/>
<feGaussianBlur stdDeviation="2"/>
<feComposite in2="hardAlpha" operator="arithmetic" k2="-1" k3="1"/>
<feColorMatrix type="matrix" values="0 0 0 0 0 0 0 0 0 0 0 0 0 0 0 0 0 0 0.25 0"/>
<feBlend mode="normal" in2="shape" result="effect1_innerShadow_199_572"/>
</filter>
</defs>
</svg>
