<svg width="32" height="32" viewBox="0 0 32 32" fill="none" xmlns="http://www.w3.org/2000/svg">
<mask id="path-1-inside-1_6249_1807" fill="white">
<path fill-rule="evenodd" clip-rule="evenodd" d="M16.9998 2.57752C16.381 2.22025 15.6186 2.22025 14.9998 2.57752L4.87549 8.42282C4.25669 8.78008 3.87549 9.44034 3.87549 10.1549V21.8455C3.87549 22.56 4.25669 23.2203 4.87549 23.5775L14.9998 29.4228C15.6186 29.7801 16.381 29.7801 16.9998 29.4228L27.1242 23.5775C27.743 23.2203 28.1242 22.56 28.1242 21.8455V10.1549C28.1242 9.44034 27.743 8.78008 27.1242 8.42282L16.9998 2.57752ZM19.8054 13.595H22.1231V19.4465H23.7237V13.595H25.9999V12.1711H19.8054V13.595ZM14.3145 12.1711H19.4592V13.5846H15.9151V14.9981H19.0955V16.3493H15.9151V19.4465H14.3041L14.3145 12.1711ZM10.4131 15.2995L8.41758 12.1711H6.67147L6.68187 19.4465H8.20971L8.18892 14.3953L9.45693 16.4844L11.4005 19.4465H13.1362V12.1711H11.6084L11.598 17.2951L10.4131 15.2995Z"/>
</mask>
<g filter="url(#filter0_i_6249_1807)">
<path fill-rule="evenodd" clip-rule="evenodd" d="M16.9998 2.57752C16.381 2.22025 15.6186 2.22025 14.9998 2.57752L4.87549 8.42282C4.25669 8.78008 3.87549 9.44034 3.87549 10.1549V21.8455C3.87549 22.56 4.25669 23.2203 4.87549 23.5775L14.9998 29.4228C15.6186 29.7801 16.381 29.7801 16.9998 29.4228L27.1242 23.5775C27.743 23.2203 28.1242 22.56 28.1242 21.8455V10.1549C28.1242 9.44034 27.743 8.78008 27.1242 8.42282L16.9998 2.57752ZM19.8054 13.595H22.1231V19.4465H23.7237V13.595H25.9999V12.1711H19.8054V13.595ZM14.3145 12.1711H19.4592V13.5846H15.9151V14.9981H19.0955V16.3493H15.9151V19.4465H14.3041L14.3145 12.1711ZM10.4131 15.2995L8.41758 12.1711H6.67147L6.68187 19.4465H8.20971L8.18892 14.3953L9.45693 16.4844L11.4005 19.4465H13.1362V12.1711H11.6084L11.598 17.2951L10.4131 15.2995Z" fill="#5A5D68"/>
</g>
<path d="M14.9998 2.57752L15.2498 3.01053L14.9998 2.57752ZM16.9998 2.57752L16.7498 3.01053L16.9998 2.57752ZM4.87549 8.42282L5.12549 8.85583L4.87549 8.42282ZM4.87549 23.5775L4.62549 24.0105H4.62549L4.87549 23.5775ZM14.9998 29.4228L14.7498 29.8558L14.9998 29.4228ZM16.9998 29.4228L17.2498 29.8558L16.9998 29.4228ZM27.1242 23.5775L26.8742 23.1445L27.1242 23.5775ZM27.1242 8.42282L26.8742 8.85583V8.85583L27.1242 8.42282ZM22.1231 13.595H22.6231V13.095H22.1231V13.595ZM19.8054 13.595H19.3054V14.095H19.8054V13.595ZM22.1231 19.4465H21.6231V19.9465H22.1231V19.4465ZM23.7237 19.4465V19.9465H24.2237V19.4465H23.7237ZM23.7237 13.595V13.095H23.2237V13.595H23.7237ZM25.9999 13.595V14.095H26.4999V13.595H25.9999ZM25.9999 12.1711H26.4999V11.6711H25.9999V12.1711ZM19.8054 12.1711V11.6711H19.3054V12.1711H19.8054ZM19.4592 12.1711H19.9592V11.6711H19.4592V12.1711ZM14.3145 12.1711V11.6711H13.8152L13.8145 12.1704L14.3145 12.1711ZM19.4592 13.5846V14.0846H19.9592V13.5846H19.4592ZM15.9151 13.5846V13.0846H15.4151V13.5846H15.9151ZM15.9151 14.9981H15.4151V15.4981H15.9151V14.9981ZM19.0955 14.9981H19.5955V14.4981H19.0955V14.9981ZM19.0955 16.3493V16.8493H19.5955V16.3493H19.0955ZM15.9151 16.3493V15.8493H15.4151V16.3493H15.9151ZM15.9151 19.4465V19.9465H16.4151V19.4465H15.9151ZM14.3041 19.4465L13.8041 19.4458L13.8034 19.9465H14.3041V19.4465ZM8.41758 12.1711L8.83912 11.9022L8.6917 11.6711H8.41758V12.1711ZM10.4131 15.2995L10.8431 15.0442L10.839 15.0374L10.8347 15.0306L10.4131 15.2995ZM6.67147 12.1711V11.6711H6.17076L6.17147 12.1718L6.67147 12.1711ZM6.68187 19.4465L6.18187 19.4472L6.18258 19.9465H6.68187V19.4465ZM8.20971 19.4465V19.9465H8.71177L8.7097 19.4444L8.20971 19.4465ZM8.18892 14.3953L8.61635 14.1358L7.68151 12.5957L7.68893 14.3973L8.18892 14.3953ZM9.45693 16.4844L9.0295 16.7438L9.03406 16.7513L9.03888 16.7587L9.45693 16.4844ZM11.4005 19.4465L10.9825 19.7208L11.1306 19.9465H11.4005V19.4465ZM13.1362 19.4465V19.9465H13.6362V19.4465H13.1362ZM13.1362 12.1711H13.6362V11.6711H13.1362V12.1711ZM11.6084 12.1711V11.6711H11.1094L11.1084 12.1701L11.6084 12.1711ZM11.598 17.2951L11.1681 17.5503L12.0943 19.1103L12.098 17.2961L11.598 17.2951ZM15.2498 3.01053C15.7139 2.74258 16.2857 2.74258 16.7498 3.01053L17.2498 2.14451C16.4763 1.69792 15.5233 1.69792 14.7498 2.14451L15.2498 3.01053ZM5.12549 8.85583L15.2498 3.01053L14.7498 2.14451L4.62549 7.98981L5.12549 8.85583ZM4.37549 10.1549C4.37549 9.61897 4.66139 9.12378 5.12549 8.85583L4.62549 7.98981C3.85199 8.43639 3.37549 9.26171 3.37549 10.1549H4.37549ZM4.37549 21.8455V10.1549H3.37549V21.8455H4.37549ZM5.12549 23.1445C4.66139 22.8766 4.37549 22.3814 4.37549 21.8455H3.37549C3.37549 22.7386 3.85199 23.5639 4.62549 24.0105L5.12549 23.1445ZM15.2498 28.9898L5.12549 23.1445L4.62549 24.0105L14.7498 29.8558L15.2498 28.9898ZM16.7498 28.9898C16.2857 29.2578 15.7139 29.2578 15.2498 28.9898L14.7498 29.8558C15.5233 30.3024 16.4763 30.3024 17.2498 29.8558L16.7498 28.9898ZM26.8742 23.1445L16.7498 28.9898L17.2498 29.8558L27.3742 24.0105L26.8742 23.1445ZM27.6242 21.8455C27.6242 22.3814 27.3383 22.8766 26.8742 23.1445L27.3742 24.0105C28.1477 23.564 28.6242 22.7386 28.6242 21.8455H27.6242ZM27.6242 10.1549V21.8455H28.6242V10.1549H27.6242ZM26.8742 8.85583C27.3383 9.12378 27.6242 9.61897 27.6242 10.1549H28.6242C28.6242 9.26171 28.1477 8.43639 27.3742 7.98981L26.8742 8.85583ZM16.7498 3.01053L26.8742 8.85583L27.3742 7.98981L17.2498 2.14451L16.7498 3.01053ZM22.1231 13.095H19.8054V14.095H22.1231V13.095ZM22.6231 19.4465V13.595H21.6231V19.4465H22.6231ZM23.7237 18.9465H22.1231V19.9465H23.7237V18.9465ZM23.2237 13.595V19.4465H24.2237V13.595H23.2237ZM25.9999 13.095H23.7237V14.095H25.9999V13.095ZM25.4999 12.1711V13.595H26.4999V12.1711H25.4999ZM19.8054 12.6711H25.9999V11.6711H19.8054V12.6711ZM20.3054 13.595V12.1711H19.3054V13.595H20.3054ZM19.4592 11.6711H14.3145V12.6711H19.4592V11.6711ZM19.9592 13.5846V12.1711H18.9592V13.5846H19.9592ZM15.9151 14.0846H19.4592V13.0846H15.9151V14.0846ZM16.4151 14.9981V13.5846H15.4151V14.9981H16.4151ZM19.0955 14.4981H15.9151V15.4981H19.0955V14.4981ZM19.5955 16.3493V14.9981H18.5955V16.3493H19.5955ZM15.9151 16.8493H19.0955V15.8493H15.9151V16.8493ZM16.4151 19.4465V16.3493H15.4151V19.4465H16.4151ZM14.3041 19.9465H15.9151V18.9465H14.3041V19.9465ZM13.8145 12.1704L13.8041 19.4458L14.8041 19.4472L14.8145 12.1718L13.8145 12.1704ZM7.99604 12.44L9.99158 15.5684L10.8347 15.0306L8.83912 11.9022L7.99604 12.44ZM6.67147 12.6711H8.41758V11.6711H6.67147V12.6711ZM7.18187 19.4458L7.17147 12.1704L6.17147 12.1718L6.18187 19.4472L7.18187 19.4458ZM8.20971 18.9465H6.68187V19.9465H8.20971V18.9465ZM7.68893 14.3973L7.70971 19.4486L8.7097 19.4444L8.68892 14.3932L7.68893 14.3973ZM9.88435 16.2249L8.61635 14.1358L7.76149 14.6547L9.0295 16.7438L9.88435 16.2249ZM11.8186 19.1722L9.87497 16.2101L9.03888 16.7587L10.9825 19.7208L11.8186 19.1722ZM13.1362 18.9465H11.4005V19.9465H13.1362V18.9465ZM12.6362 12.1711V19.4465H13.6362V12.1711H12.6362ZM11.6084 12.6711H13.1362V11.6711H11.6084V12.6711ZM12.098 17.2961L12.1084 12.1721L11.1084 12.1701L11.098 17.294L12.098 17.2961ZM9.9832 15.5548L11.1681 17.5503L12.0279 17.0398L10.8431 15.0442L9.9832 15.5548Z" fill="#464955" mask="url(#path-1-inside-1_6249_1807)"/>
<defs>
<filter id="filter0_i_6249_1807" x="3.87549" y="2.30957" width="24.2485" height="31.3809" filterUnits="userSpaceOnUse" color-interpolation-filters="sRGB">
<feFlood flood-opacity="0" result="BackgroundImageFix"/>
<feBlend mode="normal" in="SourceGraphic" in2="BackgroundImageFix" result="shape"/>
<feColorMatrix in="SourceAlpha" type="matrix" values="0 0 0 0 0 0 0 0 0 0 0 0 0 0 0 0 0 0 127 0" result="hardAlpha"/>
<feOffset dy="4"/>
<feGaussianBlur stdDeviation="2"/>
<feComposite in2="hardAlpha" operator="arithmetic" k2="-1" k3="1"/>
<feColorMatrix type="matrix" values="0 0 0 0 0 0 0 0 0 0 0 0 0 0 0 0 0 0 0.25 0"/>
<feBlend mode="normal" in2="shape" result="effect1_innerShadow_6249_1807"/>
</filter>
</defs>
</svg>
