<svg width="32" height="32" viewBox="0 0 32 32" fill="none" xmlns="http://www.w3.org/2000/svg">
<path d="M7.63273 8.32955C8.18501 8.32955 8.63273 7.88184 8.63273 7.32955V4.52006C8.63273 4.43192 8.53721 4.3724 8.4635 4.42072C8.20993 4.58698 7.97144 4.78021 7.75205 4.99959L5.30282 7.44887C5.08342 7.66827 4.89018 7.90675 4.72392 8.16032C4.67559 8.23403 4.73509 8.32955 4.82324 8.32955H7.63273Z" fill="#0CC2FF"/>
<path d="M26.5263 13.3435L25.909 12.7262C25.7213 12.5385 25.417 12.5385 25.2294 12.7262L18.4509 19.5047C17.7182 20.2374 17.2477 21.1624 17.0864 22.166C18.09 22.0049 19.0151 21.5344 19.7478 20.8016L26.5263 14.0231C26.7139 13.8355 26.7139 13.5311 26.5263 13.3435Z" fill="#0CC2FF"/>
<g filter="url(#filter0_bi_3024_1694)">
<mask id="path-3-inside-1_3024_1694" fill="white">
<path fill-rule="evenodd" clip-rule="evenodd" d="M15.7935 23.4589C15.9241 23.5894 16.1044 23.6701 16.3035 23.6701C17.9896 23.6701 19.5748 23.0135 20.767 21.8212C21.3803 21.2079 22.429 21.6423 22.429 22.5097V27.5821C22.429 27.9802 22.1063 28.303 21.7082 28.303H4.72089C4.32276 28.303 4 27.9802 4 27.5821V10.5948C4 10.1466 4.36227 9.77144 4.8234 9.77144H9.35377C9.75189 9.77144 10.0747 9.44867 10.0747 9.05055V4.5194C10.0747 4.06582 10.4437 3.69678 10.8981 3.69678H21.7082C22.1063 3.69678 22.429 4.01954 22.429 4.41766V13.0731C22.429 13.3384 22.3237 13.5927 22.1362 13.7802L17.4311 18.4853C16.7822 19.1342 16.2921 19.8996 15.9802 20.7343C15.8036 21.2066 15.2631 21.4562 14.7589 21.4562C13.6103 21.4562 13.0665 22.2648 12.6215 22.9266C12.5035 23.102 12.3925 23.267 12.2791 23.404C12.0006 23.74 11.6188 23.4802 11.6197 23.0438L11.6197 23.0031C11.6208 22.5722 11.622 22.0688 11.4855 21.6596C11.2789 21.0396 10.7833 20.684 10.126 20.684C8.21069 20.684 7.27849 23.0348 7.12561 23.4934C6.99989 23.8705 7.20342 24.2773 7.5802 24.4039C7.95699 24.5305 8.36539 24.3274 8.49285 23.9509C8.607 23.6138 8.96635 22.8315 9.46299 22.4089C9.79533 22.1261 10.1775 22.4182 10.1766 22.8545L10.1765 22.8953C10.1755 23.3262 10.1743 23.8296 10.3107 24.2389C10.5174 24.8588 11.0129 25.2144 11.6703 25.2144C12.8529 25.1853 13.3791 24.3933 13.8108 23.7439C14.3094 22.9936 14.6817 22.4334 15.7935 23.4589ZM12.8 7.99988C12.3582 7.99988 12 8.35805 12 8.79988C12 9.24171 12.3582 9.59988 12.8 9.59988H16.5333C16.9752 9.59988 17.3333 9.24171 17.3333 8.79988C17.3333 8.35805 16.9752 7.99988 16.5333 7.99988H12.8ZM8 12.7999C8 12.3581 8.35817 11.9999 8.8 11.9999H16.5333C16.9752 11.9999 17.3333 12.3581 17.3333 12.7999C17.3333 13.2417 16.9752 13.5999 16.5333 13.5999H8.8C8.35817 13.5999 8 13.2417 8 12.7999ZM8.8 15.9999C8.35817 15.9999 8 16.3581 8 16.7999C8 17.2417 8.35817 17.5999 8.8 17.5999H12.5333C12.9752 17.5999 13.3333 17.2417 13.3333 16.7999C13.3333 16.3581 12.9752 15.9999 12.5333 15.9999H8.8Z"/>
</mask>
<path fill-rule="evenodd" clip-rule="evenodd" d="M15.7935 23.4589C15.9241 23.5894 16.1044 23.6701 16.3035 23.6701C17.9896 23.6701 19.5748 23.0135 20.767 21.8212C21.3803 21.2079 22.429 21.6423 22.429 22.5097V27.5821C22.429 27.9802 22.1063 28.303 21.7082 28.303H4.72089C4.32276 28.303 4 27.9802 4 27.5821V10.5948C4 10.1466 4.36227 9.77144 4.8234 9.77144H9.35377C9.75189 9.77144 10.0747 9.44867 10.0747 9.05055V4.5194C10.0747 4.06582 10.4437 3.69678 10.8981 3.69678H21.7082C22.1063 3.69678 22.429 4.01954 22.429 4.41766V13.0731C22.429 13.3384 22.3237 13.5927 22.1362 13.7802L17.4311 18.4853C16.7822 19.1342 16.2921 19.8996 15.9802 20.7343C15.8036 21.2066 15.2631 21.4562 14.7589 21.4562C13.6103 21.4562 13.0665 22.2648 12.6215 22.9266C12.5035 23.102 12.3925 23.267 12.2791 23.404C12.0006 23.74 11.6188 23.4802 11.6197 23.0438L11.6197 23.0031C11.6208 22.5722 11.622 22.0688 11.4855 21.6596C11.2789 21.0396 10.7833 20.684 10.126 20.684C8.21069 20.684 7.27849 23.0348 7.12561 23.4934C6.99989 23.8705 7.20342 24.2773 7.5802 24.4039C7.95699 24.5305 8.36539 24.3274 8.49285 23.9509C8.607 23.6138 8.96635 22.8315 9.46299 22.4089C9.79533 22.1261 10.1775 22.4182 10.1766 22.8545L10.1765 22.8953C10.1755 23.3262 10.1743 23.8296 10.3107 24.2389C10.5174 24.8588 11.0129 25.2144 11.6703 25.2144C12.8529 25.1853 13.3791 24.3933 13.8108 23.7439C14.3094 22.9936 14.6817 22.4334 15.7935 23.4589ZM12.8 7.99988C12.3582 7.99988 12 8.35805 12 8.79988C12 9.24171 12.3582 9.59988 12.8 9.59988H16.5333C16.9752 9.59988 17.3333 9.24171 17.3333 8.79988C17.3333 8.35805 16.9752 7.99988 16.5333 7.99988H12.8ZM8 12.7999C8 12.3581 8.35817 11.9999 8.8 11.9999H16.5333C16.9752 11.9999 17.3333 12.3581 17.3333 12.7999C17.3333 13.2417 16.9752 13.5999 16.5333 13.5999H8.8C8.35817 13.5999 8 13.2417 8 12.7999ZM8.8 15.9999C8.35817 15.9999 8 16.3581 8 16.7999C8 17.2417 8.35817 17.5999 8.8 17.5999H12.5333C12.9752 17.5999 13.3333 17.2417 13.3333 16.7999C13.3333 16.3581 12.9752 15.9999 12.5333 15.9999H8.8Z" fill="black" fill-opacity="0.1"/>
<path fill-rule="evenodd" clip-rule="evenodd" d="M15.7935 23.4589C15.9241 23.5894 16.1044 23.6701 16.3035 23.6701C17.9896 23.6701 19.5748 23.0135 20.767 21.8212C21.3803 21.2079 22.429 21.6423 22.429 22.5097V27.5821C22.429 27.9802 22.1063 28.303 21.7082 28.303H4.72089C4.32276 28.303 4 27.9802 4 27.5821V10.5948C4 10.1466 4.36227 9.77144 4.8234 9.77144H9.35377C9.75189 9.77144 10.0747 9.44867 10.0747 9.05055V4.5194C10.0747 4.06582 10.4437 3.69678 10.8981 3.69678H21.7082C22.1063 3.69678 22.429 4.01954 22.429 4.41766V13.0731C22.429 13.3384 22.3237 13.5927 22.1362 13.7802L17.4311 18.4853C16.7822 19.1342 16.2921 19.8996 15.9802 20.7343C15.8036 21.2066 15.2631 21.4562 14.7589 21.4562C13.6103 21.4562 13.0665 22.2648 12.6215 22.9266C12.5035 23.102 12.3925 23.267 12.2791 23.404C12.0006 23.74 11.6188 23.4802 11.6197 23.0438L11.6197 23.0031C11.6208 22.5722 11.622 22.0688 11.4855 21.6596C11.2789 21.0396 10.7833 20.684 10.126 20.684C8.21069 20.684 7.27849 23.0348 7.12561 23.4934C6.99989 23.8705 7.20342 24.2773 7.5802 24.4039C7.95699 24.5305 8.36539 24.3274 8.49285 23.9509C8.607 23.6138 8.96635 22.8315 9.46299 22.4089C9.79533 22.1261 10.1775 22.4182 10.1766 22.8545L10.1765 22.8953C10.1755 23.3262 10.1743 23.8296 10.3107 24.2389C10.5174 24.8588 11.0129 25.2144 11.6703 25.2144C12.8529 25.1853 13.3791 24.3933 13.8108 23.7439C14.3094 22.9936 14.6817 22.4334 15.7935 23.4589ZM12.8 7.99988C12.3582 7.99988 12 8.35805 12 8.79988C12 9.24171 12.3582 9.59988 12.8 9.59988H16.5333C16.9752 9.59988 17.3333 9.24171 17.3333 8.79988C17.3333 8.35805 16.9752 7.99988 16.5333 7.99988H12.8ZM8 12.7999C8 12.3581 8.35817 11.9999 8.8 11.9999H16.5333C16.9752 11.9999 17.3333 12.3581 17.3333 12.7999C17.3333 13.2417 16.9752 13.5999 16.5333 13.5999H8.8C8.35817 13.5999 8 13.2417 8 12.7999ZM8.8 15.9999C8.35817 15.9999 8 16.3581 8 16.7999C8 17.2417 8.35817 17.5999 8.8 17.5999H12.5333C12.9752 17.5999 13.3333 17.2417 13.3333 16.7999C13.3333 16.3581 12.9752 15.9999 12.5333 15.9999H8.8Z" fill="url(#paint0_linear_3024_1694)" fill-opacity="0.5"/>
<path d="M15.7935 23.4589L16.1469 23.1052L16.1398 23.0981L16.1325 23.0913L15.7935 23.4589ZM20.767 21.8212L20.4135 21.4677L20.4135 21.4677L20.767 21.8212ZM22.1362 13.7802L22.4897 14.1338L22.1362 13.7802ZM17.4311 18.4853L17.7847 18.8389L17.7847 18.8389L17.4311 18.4853ZM15.9802 20.7343L15.5118 20.5592L15.9802 20.7343ZM12.6215 22.9266L13.0364 23.2056L13.0364 23.2056L12.6215 22.9266ZM12.2791 23.404L11.894 23.085L11.894 23.085L12.2791 23.404ZM11.6197 23.0438L11.1197 23.0427L11.1197 23.0428L11.6197 23.0438ZM11.6197 23.0031L11.1197 23.0019V23.0019L11.6197 23.0031ZM11.4855 21.6596L11.0112 21.8177H11.0112L11.4855 21.6596ZM7.12561 23.4934L7.59994 23.6515L7.59996 23.6515L7.12561 23.4934ZM7.5802 24.4039L7.7395 23.93L7.73944 23.9299L7.5802 24.4039ZM8.49285 23.9509L8.01926 23.7905L8.01925 23.7906L8.49285 23.9509ZM9.46299 22.4089L9.78703 22.7897L9.46299 22.4089ZM10.1766 22.8545L10.6766 22.8557L10.6766 22.8556L10.1766 22.8545ZM10.1765 22.8953L10.6765 22.8965V22.8964L10.1765 22.8953ZM10.3107 24.2389L10.7851 24.0808L10.7851 24.0807L10.3107 24.2389ZM11.6703 25.2144L11.6702 25.7146L11.6826 25.7143L11.6703 25.2144ZM13.8108 23.7439L13.3943 23.4671V23.4671L13.8108 23.7439ZM16.3035 23.1701C16.2424 23.1701 16.1876 23.1459 16.1469 23.1052L15.4401 23.8126C15.6605 24.0328 15.9664 24.1701 16.3035 24.1701V23.1701ZM20.4135 21.4677C19.315 22.5662 17.857 23.1701 16.3035 23.1701V24.1701C18.1222 24.1701 19.8346 23.4608 21.1206 22.1748L20.4135 21.4677ZM22.929 22.5097C22.929 21.1968 21.3418 20.5394 20.4135 21.4677L21.1206 22.1748C21.4189 21.8764 21.929 22.0877 21.929 22.5097H22.929ZM22.929 27.5821V22.5097H21.929V27.5821H22.929ZM21.7082 28.803C22.3824 28.803 22.929 28.2564 22.929 27.5821H21.929C21.929 27.7041 21.8301 27.803 21.7082 27.803V28.803ZM4.72089 28.803H21.7082V27.803H4.72089V28.803ZM3.5 27.5821C3.5 28.2564 4.04662 28.803 4.72089 28.803V27.803C4.59891 27.803 4.5 27.7041 4.5 27.5821H3.5ZM3.5 10.5948V27.5821H4.5V10.5948H3.5ZM4.8234 9.27144C4.08103 9.27144 3.5 9.87562 3.5 10.5948H4.5C4.5 10.4176 4.64351 10.2714 4.8234 10.2714V9.27144ZM9.35377 9.27144H4.8234V10.2714H9.35377V9.27144ZM9.57466 9.05055C9.57466 9.17253 9.47575 9.27144 9.35377 9.27144V10.2714C10.028 10.2714 10.5747 9.72481 10.5747 9.05055H9.57466ZM9.57466 4.5194V9.05055H10.5747V4.5194H9.57466ZM10.8981 3.19678C10.1678 3.19678 9.57466 3.7894 9.57466 4.5194H10.5747C10.5747 4.34225 10.7195 4.19678 10.8981 4.19678V3.19678ZM21.7082 3.19678H10.8981V4.19678H21.7082V3.19678ZM22.929 4.41766C22.929 3.7434 22.3824 3.19678 21.7082 3.19678V4.19678C21.8301 4.19678 21.929 4.29568 21.929 4.41766H22.929ZM22.929 13.0731V4.41766H21.929V13.0731H22.929ZM22.4897 14.1338C22.771 13.8525 22.929 13.471 22.929 13.0731H21.929C21.929 13.2058 21.8764 13.3329 21.7826 13.4267L22.4897 14.1338ZM17.7847 18.8389L22.4897 14.1338L21.7826 13.4267L17.0776 18.1318L17.7847 18.8389ZM16.4485 20.9094C16.7353 20.1421 17.1861 19.4375 17.7847 18.8389L17.0776 18.1317C16.3783 18.831 15.849 19.6572 15.5118 20.5592L16.4485 20.9094ZM14.7589 21.9562C15.3824 21.9562 16.172 21.6492 16.4485 20.9094L15.5118 20.5592C15.4353 20.764 15.1438 20.9562 14.7589 20.9562V21.9562ZM13.0364 23.2056C13.4967 22.5211 13.9053 21.9562 14.7589 21.9562V20.9562C13.3153 20.9562 12.6362 22.0086 12.2066 22.6476L13.0364 23.2056ZM12.6641 23.723C12.7966 23.563 12.9221 23.3755 13.0364 23.2056L12.2066 22.6476C12.0849 22.8285 11.9884 22.9711 11.894 23.085L12.6641 23.723ZM11.1197 23.0428C11.1189 23.3939 11.2728 23.7551 11.5888 23.9432C11.7525 24.0407 11.9543 24.0846 12.1633 24.0397C12.3698 23.9954 12.5384 23.8746 12.6641 23.723L11.894 23.085C11.8805 23.1013 11.8969 23.0741 11.9535 23.062C12.0127 23.0493 12.0668 23.064 12.1004 23.0839C12.1299 23.1015 12.1348 23.1168 12.1308 23.1088C12.1276 23.1023 12.1196 23.0815 12.1197 23.0449L11.1197 23.0428ZM11.1197 23.0019L11.1197 23.0427L12.1197 23.045L12.1197 23.0042L11.1197 23.0019ZM11.0112 21.8177C11.1168 22.1345 11.1208 22.55 11.1197 23.0019L12.1197 23.0043C12.1207 22.5944 12.1271 22.0032 11.9599 21.5014L11.0112 21.8177ZM10.126 21.184C10.5699 21.184 10.8731 21.4035 11.0112 21.8177L11.9599 21.5014C11.6846 20.6756 10.9968 20.184 10.126 20.184V21.184ZM7.59996 23.6515C7.66675 23.4511 7.91654 22.805 8.36257 22.2198C8.81183 21.6303 9.39404 21.184 10.126 21.184V20.184C8.94263 20.184 8.1011 20.9131 7.56722 21.6137C7.0301 22.3184 6.73735 23.077 6.65127 23.3353L7.59996 23.6515ZM7.73944 23.9299C7.62322 23.8909 7.56168 23.7663 7.59994 23.6515L6.65128 23.3352C6.4381 23.9746 6.78363 24.6638 7.42097 24.8779L7.73944 23.9299ZM8.01925 23.7906C7.97992 23.9067 7.85407 23.9685 7.7395 23.93L7.42091 24.8779C8.0599 25.0926 8.75086 24.748 8.96644 24.1112L8.01925 23.7906ZM9.13894 22.0281C8.82796 22.2928 8.58002 22.6498 8.40047 22.9637C8.21866 23.2816 8.0869 23.5908 8.01926 23.7905L8.96643 24.1113C9.01294 23.9739 9.11794 23.7234 9.2685 23.4602C9.42133 23.193 9.60138 22.9477 9.78703 22.7897L9.13894 22.0281ZM10.6766 22.8556C10.6773 22.4992 10.5214 22.1475 10.224 21.9473C9.8934 21.7247 9.46872 21.7475 9.13894 22.0281L9.78703 22.7897C9.80009 22.7786 9.78715 22.7941 9.74848 22.7967C9.71036 22.7993 9.68049 22.7869 9.66551 22.7768C9.65261 22.7681 9.65542 22.765 9.66231 22.7792C9.66874 22.7925 9.67666 22.8172 9.67659 22.8535L10.6766 22.8556ZM10.6765 22.8964L10.6766 22.8557L9.67659 22.8534L9.6765 22.8941L10.6765 22.8964ZM10.7851 24.0807C10.6794 23.7639 10.6754 23.3484 10.6765 22.8965L9.6765 22.8941C9.67552 23.304 9.6691 23.8952 9.83639 24.397L10.7851 24.0807ZM11.6703 24.7144C11.2264 24.7144 10.9231 24.4949 10.7851 24.0808L9.83638 24.397C10.1117 25.2228 10.7995 25.7144 11.6702 25.7144L11.6703 24.7144ZM13.3943 23.4671C12.9549 24.1284 12.5574 24.6924 11.6579 24.7146L11.6826 25.7143C13.1483 25.6782 13.8034 24.6583 14.2272 24.0206L13.3943 23.4671ZM16.1325 23.0913C15.5589 22.5623 14.9856 22.2558 14.4033 22.4648C14.1393 22.5596 13.9433 22.7411 13.7958 22.9122C13.649 23.0825 13.5143 23.2866 13.3943 23.4671L14.2272 24.0206C14.3565 23.826 14.4554 23.6786 14.5533 23.565C14.6506 23.4521 14.7106 23.417 14.7411 23.4061C14.7475 23.4038 14.9163 23.33 15.4545 23.8264L16.1325 23.0913ZM12.5 8.79988C12.5 8.63419 12.6343 8.49988 12.8 8.49988V7.49988C12.082 7.49988 11.5 8.08191 11.5 8.79988H12.5ZM12.8 9.09988C12.6343 9.09988 12.5 8.96556 12.5 8.79988H11.5C11.5 9.51785 12.082 10.0999 12.8 10.0999V9.09988ZM16.5333 9.09988H12.8V10.0999H16.5333V9.09988ZM16.8333 8.79988C16.8333 8.96556 16.699 9.09988 16.5333 9.09988V10.0999C17.2513 10.0999 17.8333 9.51785 17.8333 8.79988H16.8333ZM16.5333 8.49988C16.699 8.49988 16.8333 8.63419 16.8333 8.79988H17.8333C17.8333 8.08191 17.2513 7.49988 16.5333 7.49988V8.49988ZM12.8 8.49988H16.5333V7.49988H12.8V8.49988ZM8.8 11.4999C8.08203 11.4999 7.5 12.0819 7.5 12.7999H8.5C8.5 12.6342 8.63431 12.4999 8.8 12.4999V11.4999ZM16.5333 11.4999H8.8V12.4999H16.5333V11.4999ZM17.8333 12.7999C17.8333 12.0819 17.2513 11.4999 16.5333 11.4999V12.4999C16.699 12.4999 16.8333 12.6342 16.8333 12.7999H17.8333ZM16.5333 14.0999C17.2513 14.0999 17.8333 13.5178 17.8333 12.7999H16.8333C16.8333 12.9656 16.699 13.0999 16.5333 13.0999V14.0999ZM8.8 14.0999H16.5333V13.0999H8.8V14.0999ZM7.5 12.7999C7.5 13.5178 8.08203 14.0999 8.8 14.0999V13.0999C8.63432 13.0999 8.5 12.9656 8.5 12.7999H7.5ZM8.5 16.7999C8.5 16.6342 8.63431 16.4999 8.8 16.4999V15.4999C8.08203 15.4999 7.5 16.0819 7.5 16.7999H8.5ZM8.8 17.0999C8.63432 17.0999 8.5 16.9656 8.5 16.7999H7.5C7.5 17.5178 8.08203 18.0999 8.8 18.0999V17.0999ZM12.5333 17.0999H8.8V18.0999H12.5333V17.0999ZM12.8333 16.7999C12.8333 16.9656 12.699 17.0999 12.5333 17.0999V18.0999C13.2513 18.0999 13.8333 17.5178 13.8333 16.7999H12.8333ZM12.5333 16.4999C12.699 16.4999 12.8333 16.6342 12.8333 16.7999H13.8333C13.8333 16.0819 13.2513 15.4999 12.5333 15.4999V16.4999ZM8.8 16.4999H12.5333V15.4999H8.8V16.4999Z" fill="url(#paint1_linear_3024_1694)" fill-opacity="0.1" mask="url(#path-3-inside-1_3024_1694)"/>
</g>
<defs>
<filter id="filter0_bi_3024_1694" x="-2.62069" y="-2.92391" width="31.6706" height="37.8478" filterUnits="userSpaceOnUse" color-interpolation-filters="sRGB">
<feFlood flood-opacity="0" result="BackgroundImageFix"/>
<feGaussianBlur in="BackgroundImageFix" stdDeviation="3.31034"/>
<feComposite in2="SourceAlpha" operator="in" result="effect1_backgroundBlur_3024_1694"/>
<feBlend mode="normal" in="SourceGraphic" in2="effect1_backgroundBlur_3024_1694" result="shape"/>
<feColorMatrix in="SourceAlpha" type="matrix" values="0 0 0 0 0 0 0 0 0 0 0 0 0 0 0 0 0 0 127 0" result="hardAlpha"/>
<feOffset dy="2.2069"/>
<feGaussianBlur stdDeviation="1.65517"/>
<feComposite in2="hardAlpha" operator="arithmetic" k2="-1" k3="1"/>
<feColorMatrix type="matrix" values="0 0 0 0 1 0 0 0 0 1 0 0 0 0 1 0 0 0 0.4 0"/>
<feBlend mode="normal" in2="shape" result="effect2_innerShadow_3024_1694"/>
</filter>
<linearGradient id="paint0_linear_3024_1694" x1="22.0705" y1="25.3286" x2="3.34788" y2="13.1792" gradientUnits="userSpaceOnUse">
<stop stop-color="#0CC2FF" stop-opacity="0.29"/>
<stop offset="1" stop-color="#0CC2FF"/>
</linearGradient>
<linearGradient id="paint1_linear_3024_1694" x1="22.0705" y1="25.3286" x2="3.34788" y2="13.1792" gradientUnits="userSpaceOnUse">
<stop stop-color="#96E5FF"/>
<stop offset="1" stop-color="#0CC2FF"/>
</linearGradient>
</defs>
</svg>
