<svg width="33" height="33" viewBox="0 0 33 33" fill="none" xmlns="http://www.w3.org/2000/svg">
<path d="M32.312 16.4472C32.312 25.2838 25.1486 32.4472 16.312 32.4472C7.47546 32.4472 0.312012 25.2838 0.312012 16.4472C0.312012 7.6107 7.47546 0.447266 16.312 0.447266C25.1486 0.447266 32.312 7.6107 32.312 16.4472ZM1.25516 16.4472C1.25516 24.7629 7.99634 31.5041 16.312 31.5041C24.6277 31.5041 31.3689 24.7629 31.3689 16.4472C31.3689 8.13159 24.6277 1.39042 16.312 1.39042C7.99634 1.39042 1.25516 8.13159 1.25516 16.4472Z" fill="url(#paint0_linear_2671_15865)"/>
<g filter="url(#filter0_d_2671_15865)">
<path d="M7.62622 19.6767L9.59925 16.4463L7.62622 13.2158H8.78142L10.182 15.5569L11.5825 13.2158H12.7377L10.7544 16.4463L12.7377 19.6767H11.5825L10.182 17.3357L8.78142 19.6767H7.62622Z" fill="url(#paint1_linear_2671_15865)"/>
<path d="M14.9623 14.187L14.7272 14.4221V15.7409H17.7941V16.7121H14.7272V19.6767H13.756V14.0234L14.5636 13.2158H18.8675V14.187H14.9623Z" fill="url(#paint2_linear_2671_15865)"/>
<path d="M22.9322 14.187V18.7055H24.9973V19.6767H19.8858V18.7055H21.9611V14.187H19.8858V13.2158L24.9973 13.2158V14.187L22.9322 14.187Z" fill="url(#paint3_linear_2671_15865)"/>
</g>
<defs>
<filter id="filter0_d_2671_15865" x="7.08549" y="13.2158" width="18.4525" height="8.77834" filterUnits="userSpaceOnUse" color-interpolation-filters="sRGB">
<feFlood flood-opacity="0" result="BackgroundImageFix"/>
<feColorMatrix in="SourceAlpha" type="matrix" values="0 0 0 0 0 0 0 0 0 0 0 0 0 0 0 0 0 0 127 0" result="hardAlpha"/>
<feOffset dy="1.77667"/>
<feGaussianBlur stdDeviation="0.270363"/>
<feComposite in2="hardAlpha" operator="out"/>
<feColorMatrix type="matrix" values="0 0 0 0 0.419608 0 0 0 0 0.619608 0 0 0 0 0.682353 0 0 0 0.17 0"/>
<feBlend mode="normal" in2="BackgroundImageFix" result="effect1_dropShadow_2671_15865"/>
<feBlend mode="normal" in="SourceGraphic" in2="effect1_dropShadow_2671_15865" result="shape"/>
</filter>
<linearGradient id="paint0_linear_2671_15865" x1="16.312" y1="0.447266" x2="16.312" y2="32.4472" gradientUnits="userSpaceOnUse">
<stop stop-color="#38BDEE"/>
<stop offset="1" stop-color="#004471"/>
</linearGradient>
<linearGradient id="paint1_linear_2671_15865" x1="7.62622" y1="13.2158" x2="11.8526" y2="24.5697" gradientUnits="userSpaceOnUse">
<stop stop-color="#00BFFF"/>
<stop offset="1" stop-color="#6CCEEF"/>
</linearGradient>
<linearGradient id="paint2_linear_2671_15865" x1="7.62622" y1="13.2158" x2="11.8526" y2="24.5697" gradientUnits="userSpaceOnUse">
<stop stop-color="#00BFFF"/>
<stop offset="1" stop-color="#6CCEEF"/>
</linearGradient>
<linearGradient id="paint3_linear_2671_15865" x1="7.62622" y1="13.2158" x2="11.8526" y2="24.5697" gradientUnits="userSpaceOnUse">
<stop stop-color="#00BFFF"/>
<stop offset="1" stop-color="#6CCEEF"/>
</linearGradient>
</defs>
</svg>
