<svg width="32" height="32" viewBox="0 0 32 32" fill="none" xmlns="http://www.w3.org/2000/svg">
<g filter="url(#filter0_bi_13306_24477)">
<mask id="path-1-inside-1_13306_24477" fill="white">
<path fill-rule="evenodd" clip-rule="evenodd" d="M16 2C8.26801 2 2 8.26801 2 16C2 23.732 8.26801 30 16 30C23.732 30 30 23.732 30 16C30 8.26801 23.732 2 16 2ZM16 27.2C22.1856 27.2 27.2 22.1856 27.2 16C27.2 9.81441 22.1856 4.8 16 4.8C9.81441 4.8 4.8 9.81441 4.8 16C4.8 22.1856 9.81441 27.2 16 27.2Z"/>
</mask>
<path fill-rule="evenodd" clip-rule="evenodd" d="M16 2C8.26801 2 2 8.26801 2 16C2 23.732 8.26801 30 16 30C23.732 30 30 23.732 30 16C30 8.26801 23.732 2 16 2ZM16 27.2C22.1856 27.2 27.2 22.1856 27.2 16C27.2 9.81441 22.1856 4.8 16 4.8C9.81441 4.8 4.8 9.81441 4.8 16C4.8 22.1856 9.81441 27.2 16 27.2Z" fill="black" fill-opacity="0.1"/>
<path fill-rule="evenodd" clip-rule="evenodd" d="M16 2C8.26801 2 2 8.26801 2 16C2 23.732 8.26801 30 16 30C23.732 30 30 23.732 30 16C30 8.26801 23.732 2 16 2ZM16 27.2C22.1856 27.2 27.2 22.1856 27.2 16C27.2 9.81441 22.1856 4.8 16 4.8C9.81441 4.8 4.8 9.81441 4.8 16C4.8 22.1856 9.81441 27.2 16 27.2Z" fill="url(#paint0_linear_13306_24477)" fill-opacity="0.5"/>
<path d="M2.5 16C2.5 8.54416 8.54416 2.5 16 2.5V1.5C7.99187 1.5 1.5 7.99187 1.5 16H2.5ZM16 29.5C8.54416 29.5 2.5 23.4558 2.5 16H1.5C1.5 24.0081 7.99187 30.5 16 30.5V29.5ZM29.5 16C29.5 23.4558 23.4558 29.5 16 29.5V30.5C24.0081 30.5 30.5 24.0081 30.5 16H29.5ZM16 2.5C23.4558 2.5 29.5 8.54416 29.5 16H30.5C30.5 7.99187 24.0081 1.5 16 1.5V2.5ZM26.7 16C26.7 21.9094 21.9094 26.7 16 26.7V27.7C22.4617 27.7 27.7 22.4617 27.7 16H26.7ZM16 5.3C21.9094 5.3 26.7 10.0906 26.7 16H27.7C27.7 9.53827 22.4617 4.3 16 4.3V5.3ZM5.3 16C5.3 10.0906 10.0906 5.3 16 5.3V4.3C9.53827 4.3 4.3 9.53827 4.3 16H5.3ZM16 26.7C10.0906 26.7 5.3 21.9094 5.3 16H4.3C4.3 22.4617 9.53827 27.7 16 27.7V26.7Z" fill="url(#paint1_linear_13306_24477)" fill-opacity="0.1" mask="url(#path-1-inside-1_13306_24477)"/>
</g>
<path d="M10.4233 14.4004H21.5757L17.8582 11.6123" stroke="#0CC2FF" stroke-width="1.39404" stroke-linecap="round" stroke-linejoin="round"/>
<path d="M21.5757 17.5996H10.4233L14.1408 20.3877" stroke="#0CC2FF" stroke-width="1.39404" stroke-linecap="round" stroke-linejoin="round"/>
<defs>
<filter id="filter0_bi_13306_24477" x="-4.62069" y="-4.62069" width="41.2414" height="41.2414" filterUnits="userSpaceOnUse" color-interpolation-filters="sRGB">
<feFlood flood-opacity="0" result="BackgroundImageFix"/>
<feGaussianBlur in="BackgroundImageFix" stdDeviation="3.31034"/>
<feComposite in2="SourceAlpha" operator="in" result="effect1_backgroundBlur_13306_24477"/>
<feBlend mode="normal" in="SourceGraphic" in2="effect1_backgroundBlur_13306_24477" result="shape"/>
<feColorMatrix in="SourceAlpha" type="matrix" values="0 0 0 0 0 0 0 0 0 0 0 0 0 0 0 0 0 0 127 0" result="hardAlpha"/>
<feOffset dy="2.2069"/>
<feGaussianBlur stdDeviation="1.65517"/>
<feComposite in2="hardAlpha" operator="arithmetic" k2="-1" k3="1"/>
<feColorMatrix type="matrix" values="0 0 0 0 1 0 0 0 0 1 0 0 0 0 1 0 0 0 0.4 0"/>
<feBlend mode="normal" in2="shape" result="effect2_innerShadow_13306_24477"/>
</filter>
<linearGradient id="paint0_linear_13306_24477" x1="29.8238" y1="25.3792" x2="23.1108" y2="18.8448" gradientUnits="userSpaceOnUse">
<stop stop-color="#0CC2FF" stop-opacity="0.29"/>
<stop offset="1" stop-color="#0CC2FF"/>
</linearGradient>
<linearGradient id="paint1_linear_13306_24477" x1="29.8238" y1="25.3792" x2="23.1108" y2="18.8448" gradientUnits="userSpaceOnUse">
<stop stop-color="#96E5FF"/>
<stop offset="1" stop-color="#0CC2FF"/>
</linearGradient>
</defs>
</svg>
