<svg width="32" height="32" viewBox="0 0 32 32" fill="none" xmlns="http://www.w3.org/2000/svg">
<mask id="path-1-inside-1_10379_44291" fill="white">
<path fill-rule="evenodd" clip-rule="evenodd" d="M2.5 16C2.5 8.54416 8.54416 2.5 16 2.5C23.4558 2.5 29.5 8.54416 29.5 16C29.5 23.4558 23.4558 29.5 16 29.5C8.54416 29.5 2.5 23.4558 2.5 16ZM16.0021 7.33339C15.8773 7.33054 15.7571 7.39338 15.6893 7.50338L10.7283 15.5503C10.6777 15.6323 10.6623 15.7314 10.6857 15.8249C10.7091 15.9184 10.7692 15.9986 10.8525 16.0472L15.8136 18.9421C15.8717 18.9761 15.937 18.9923 16.0021 18.9908C16.0671 18.9923 16.1324 18.9761 16.1906 18.9421L21.1516 16.0472C21.2349 15.9986 21.295 15.9184 21.3184 15.8249C21.3418 15.7314 21.3265 15.6323 21.2759 15.5503L16.3148 7.50338C16.247 7.39338 16.1269 7.33054 16.0021 7.33339ZM11.8172 15.7814L15.6361 18.0099V14.0861L11.8172 15.7814ZM15.6361 13.303V8.95351L11.944 14.9421L15.6361 13.303ZM16.3681 18.0099L20.187 15.7814L16.3681 14.0861V18.0099ZM16.3681 8.95351V13.303L20.0601 14.9421L16.3681 8.95351ZM10.7531 17.2648C10.8678 17.139 11.0553 17.1114 11.2014 17.1988L16.0013 20.0715L20.8012 17.1988C20.9473 17.1114 21.1348 17.139 21.2495 17.2648C21.3642 17.3907 21.3743 17.5799 21.2737 17.7173L16.3013 24.5063C16.2578 24.5729 16.1922 24.6248 16.1129 24.6508C16.0761 24.6628 16.0385 24.6686 16.0013 24.6685C15.9641 24.6686 15.9265 24.6628 15.8897 24.6508C15.8104 24.6248 15.7449 24.5729 15.7014 24.5063L10.729 17.7173C10.6283 17.5799 10.6385 17.3907 10.7531 17.2648ZM15.6431 20.6912V23.2156L12.3513 18.7211L15.6431 20.6912ZM16.3595 23.2156L19.6514 18.7211L16.3595 20.6912V23.2156Z"/>
</mask>
<g filter="url(#filter0_i_10379_44291)">
<path fill-rule="evenodd" clip-rule="evenodd" d="M2.5 16C2.5 8.54416 8.54416 2.5 16 2.5C23.4558 2.5 29.5 8.54416 29.5 16C29.5 23.4558 23.4558 29.5 16 29.5C8.54416 29.5 2.5 23.4558 2.5 16ZM16.0021 7.33339C15.8773 7.33054 15.7571 7.39338 15.6893 7.50338L10.7283 15.5503C10.6777 15.6323 10.6623 15.7314 10.6857 15.8249C10.7091 15.9184 10.7692 15.9986 10.8525 16.0472L15.8136 18.9421C15.8717 18.9761 15.937 18.9923 16.0021 18.9908C16.0671 18.9923 16.1324 18.9761 16.1906 18.9421L21.1516 16.0472C21.2349 15.9986 21.295 15.9184 21.3184 15.8249C21.3418 15.7314 21.3265 15.6323 21.2759 15.5503L16.3148 7.50338C16.247 7.39338 16.1269 7.33054 16.0021 7.33339ZM11.8172 15.7814L15.6361 18.0099V14.0861L11.8172 15.7814ZM15.6361 13.303V8.95351L11.944 14.9421L15.6361 13.303ZM16.3681 18.0099L20.187 15.7814L16.3681 14.0861V18.0099ZM16.3681 8.95351V13.303L20.0601 14.9421L16.3681 8.95351ZM10.7531 17.2648C10.8678 17.139 11.0553 17.1114 11.2014 17.1988L16.0013 20.0715L20.8012 17.1988C20.9473 17.1114 21.1348 17.139 21.2495 17.2648C21.3642 17.3907 21.3743 17.5799 21.2737 17.7173L16.3013 24.5063C16.2578 24.5729 16.1922 24.6248 16.1129 24.6508C16.0761 24.6628 16.0385 24.6686 16.0013 24.6685C15.9641 24.6686 15.9265 24.6628 15.8897 24.6508C15.8104 24.6248 15.7449 24.5729 15.7014 24.5063L10.729 17.7173C10.6283 17.5799 10.6385 17.3907 10.7531 17.2648ZM15.6431 20.6912V23.2156L12.3513 18.7211L15.6431 20.6912ZM16.3595 23.2156L19.6514 18.7211L16.3595 20.6912V23.2156Z" fill="#5A5D68"/>
</g>
<path d="M15.6893 7.50338L15.2105 7.20818V7.20818L15.6893 7.50338ZM16.0021 7.33339L15.9892 7.89574L16.0021 7.89604L16.0149 7.89574L16.0021 7.33339ZM10.7283 15.5503L10.2494 15.2551H10.2494L10.7283 15.5503ZM10.6857 15.8249L10.14 15.9613L10.14 15.9614L10.6857 15.8249ZM10.8525 16.0472L10.569 16.533L10.569 16.533L10.8525 16.0472ZM15.8136 18.9421L15.5301 19.428L15.5301 19.428L15.8136 18.9421ZM16.0021 18.9908L16.0148 18.4285L16.0021 18.4282L15.9893 18.4285L16.0021 18.9908ZM16.1906 18.9421L15.9071 18.4563L15.9071 18.4563L16.1906 18.9421ZM21.1516 16.0472L20.8681 15.5613L20.8681 15.5613L21.1516 16.0472ZM21.2759 15.5503L20.7971 15.8455L20.7971 15.8455L21.2759 15.5503ZM16.3148 7.50338L16.7936 7.20818V7.20818L16.3148 7.50338ZM15.6361 18.0099L15.3526 18.4958L16.1986 18.9894V18.0099H15.6361ZM11.8172 15.7814L11.5889 15.2673L10.5843 15.7133L11.5337 16.2673L11.8172 15.7814ZM15.6361 14.0861H16.1986V13.2209L15.4078 13.572L15.6361 14.0861ZM15.6361 8.95351H16.1986V6.96929L15.1573 8.65831L15.6361 8.95351ZM15.6361 13.303L15.8643 13.8172L16.1986 13.6688V13.303H15.6361ZM11.944 14.9421L11.4652 14.6469L10.5118 16.1933L12.1723 15.4562L11.944 14.9421ZM20.187 15.7814L20.4705 16.2673L21.4198 15.7133L20.4152 15.2673L20.187 15.7814ZM16.3681 18.0099H15.8056V18.9894L16.6516 18.4958L16.3681 18.0099ZM16.3681 14.0861L16.5963 13.572L15.8056 13.2209V14.0861H16.3681ZM16.3681 13.303H15.8056V13.6688L16.1398 13.8172L16.3681 13.303ZM16.3681 8.95351L16.8469 8.65831L15.8056 6.96929V8.95351H16.3681ZM20.0601 14.9421L19.8319 15.4562L21.4923 16.1933L20.5389 14.6469L20.0601 14.9421ZM11.2014 17.1988L10.9126 17.6815L10.9126 17.6815L11.2014 17.1988ZM16.0013 20.0715L15.7124 20.5541L16.0013 20.727L16.2902 20.5541L16.0013 20.0715ZM20.8012 17.1988L20.5123 16.7161L20.8012 17.1988ZM21.2495 17.2648L20.8337 17.6437L20.8337 17.6437L21.2495 17.2648ZM21.2737 17.7173L21.7275 18.0497L21.7275 18.0497L21.2737 17.7173ZM16.3013 24.5063L15.8475 24.1739L15.8386 24.1861L15.8303 24.1987L16.3013 24.5063ZM16.1129 24.6508L15.938 24.1161L15.938 24.1161L16.1129 24.6508ZM16.0013 24.6685L16.0019 24.106H16.0007L16.0013 24.6685ZM15.8897 24.6508L16.0646 24.1161L16.0646 24.1161L15.8897 24.6508ZM15.7014 24.5063L16.1723 24.1987L16.1641 24.1861L16.1552 24.1739L15.7014 24.5063ZM10.729 17.7173L11.1828 17.3849L10.729 17.7173ZM15.6431 20.6912H16.2056V20.3723L15.932 20.2085L15.6431 20.6912ZM15.6431 23.2156L15.1893 23.5479L16.2056 24.9355V23.2156H15.6431ZM12.3513 18.7211L12.6401 18.2384L11.8975 19.0534L12.3513 18.7211ZM19.6514 18.7211L20.1052 19.0534L19.3625 18.2384L19.6514 18.7211ZM16.3595 23.2156H15.797V24.9355L16.8133 23.5479L16.3595 23.2156ZM16.3595 20.6912L16.0706 20.2085L15.797 20.3723V20.6912H16.3595ZM16 1.9375C8.2335 1.9375 1.9375 8.2335 1.9375 16H3.0625C3.0625 8.85482 8.85482 3.0625 16 3.0625V1.9375ZM30.0625 16C30.0625 8.2335 23.7665 1.9375 16 1.9375V3.0625C23.1452 3.0625 28.9375 8.85482 28.9375 16H30.0625ZM16 30.0625C23.7665 30.0625 30.0625 23.7665 30.0625 16H28.9375C28.9375 23.1452 23.1452 28.9375 16 28.9375V30.0625ZM1.9375 16C1.9375 23.7665 8.2335 30.0625 16 30.0625V28.9375C8.85482 28.9375 3.0625 23.1452 3.0625 16H1.9375ZM16.1681 7.79858C16.1292 7.86174 16.0604 7.89737 15.9892 7.89574L16.0149 6.77104C15.6941 6.76371 15.3851 6.92503 15.2105 7.20818L16.1681 7.79858ZM11.2071 15.8455L16.1681 7.79858L15.2105 7.20818L10.2494 15.2551L11.2071 15.8455ZM11.2314 15.6884C11.2448 15.7419 11.236 15.7985 11.2071 15.8455L10.2494 15.2551C10.1193 15.4662 10.0799 15.7208 10.14 15.9613L11.2314 15.6884ZM11.136 15.5613C11.1836 15.5891 11.218 15.6349 11.2314 15.6884L10.14 15.9614C10.2002 16.2019 10.3548 16.408 10.569 16.533L11.136 15.5613ZM16.0971 18.4563L11.136 15.5613L10.569 16.533L15.5301 19.428L16.0971 18.4563ZM15.9893 18.4285C16.0263 18.4276 16.0638 18.4369 16.0971 18.4563L15.5301 19.428C15.6796 19.5152 15.8477 19.557 16.0148 19.5532L15.9893 18.4285ZM15.9071 18.4563C15.9403 18.4369 15.9778 18.4276 16.0148 18.4285L15.9893 19.5532C16.1564 19.557 16.3245 19.5152 16.4741 19.428L15.9071 18.4563ZM20.8681 15.5613L15.9071 18.4563L16.4741 19.428L21.4351 16.533L20.8681 15.5613ZM20.7727 15.6884C20.7861 15.6349 20.8205 15.5891 20.8681 15.5613L21.4351 16.533C21.6493 16.408 21.804 16.2019 21.8641 15.9614L20.7727 15.6884ZM20.7971 15.8455C20.7681 15.7985 20.7594 15.7419 20.7727 15.6884L21.8641 15.9614C21.9243 15.7208 21.8848 15.4661 21.7547 15.2551L20.7971 15.8455ZM15.836 7.79858L20.7971 15.8455L21.7547 15.2551L16.7936 7.20818L15.836 7.79858ZM16.0149 7.89574C15.9437 7.89737 15.8749 7.86174 15.836 7.79858L16.7936 7.20818C16.6191 6.92503 16.31 6.76371 15.9892 6.77104L16.0149 7.89574ZM15.9196 17.5241L12.1007 15.2956L11.5337 16.2673L15.3526 18.4958L15.9196 17.5241ZM15.0736 14.0861V18.0099H16.1986V14.0861H15.0736ZM12.0454 16.2955L15.8643 14.6002L15.4078 13.572L11.5889 15.2673L12.0454 16.2955ZM15.0736 8.95351V13.303H16.1986V8.95351H15.0736ZM12.4228 15.2373L16.1149 9.24871L15.1573 8.65831L11.4652 14.6469L12.4228 15.2373ZM15.4078 12.7889L11.7158 14.4279L12.1723 15.4562L15.8643 13.8172L15.4078 12.7889ZM19.9035 15.2956L16.0846 17.5241L16.6516 18.4958L20.4705 16.2673L19.9035 15.2956ZM16.1398 14.6002L19.9587 16.2955L20.4152 15.2673L16.5963 13.572L16.1398 14.6002ZM16.9306 18.0099V14.0861H15.8056V18.0099H16.9306ZM16.9306 13.303V8.95351H15.8056V13.303H16.9306ZM20.2883 14.4279L16.5963 12.7889L16.1398 13.8172L19.8319 15.4562L20.2883 14.4279ZM15.8892 9.24871L19.5813 15.2373L20.5389 14.6469L16.8469 8.65831L15.8892 9.24871ZM11.4903 16.7161C11.1145 16.4912 10.6323 16.5623 10.3374 16.886L11.1689 17.6437C11.1033 17.7157 10.9961 17.7315 10.9126 17.6815L11.4903 16.7161ZM16.2902 19.5888L11.4903 16.7161L10.9126 17.6815L15.7124 20.5541L16.2902 19.5888ZM20.5123 16.7161L15.7124 19.5888L16.2902 20.5541L21.0901 17.6815L20.5123 16.7161ZM21.6652 16.886C21.3703 16.5623 20.8881 16.4912 20.5123 16.7161L21.0901 17.6815C21.0065 17.7315 20.8993 17.7157 20.8337 17.6437L21.6652 16.886ZM21.7275 18.0497C21.9862 17.6964 21.9602 17.2097 21.6652 16.886L20.8337 17.6437C20.7681 17.5717 20.7623 17.4635 20.8199 17.3849L21.7275 18.0497ZM16.7551 24.8387L21.7275 18.0497L20.8199 17.3849L15.8475 24.1739L16.7551 24.8387ZM16.2877 25.1854C16.4919 25.1186 16.6605 24.9849 16.7722 24.8139L15.8303 24.1987C15.855 24.1609 15.8926 24.131 15.938 24.1161L16.2877 25.1854ZM16.0007 25.231C16.0967 25.2311 16.1936 25.2162 16.2877 25.1854L15.938 24.1161C15.9587 24.1094 15.9803 24.106 16.0019 24.106L16.0007 25.231ZM15.7149 25.1854C15.8091 25.2162 15.9059 25.2311 16.0019 25.231L16.0007 24.106C16.0223 24.106 16.0439 24.1094 16.0646 24.1161L15.7149 25.1854ZM15.2304 24.8139C15.3421 24.9849 15.5107 25.1186 15.7149 25.1854L16.0646 24.1161C16.11 24.131 16.1476 24.1609 16.1723 24.1987L15.2304 24.8139ZM10.2752 18.0497L15.2476 24.8387L16.1552 24.1739L11.1828 17.3849L10.2752 18.0497ZM10.3374 16.886C10.0424 17.2097 10.0164 17.6964 10.2752 18.0497L11.1828 17.3849C11.2403 17.4635 11.2345 17.5717 11.1689 17.6437L10.3374 16.886ZM15.0806 20.6912V23.2156H16.2056V20.6912H15.0806ZM16.0969 22.8832L12.8051 18.3887L11.8975 19.0534L15.1893 23.5479L16.0969 22.8832ZM12.0624 19.2037L15.3543 21.1739L15.932 20.2085L12.6401 18.2384L12.0624 19.2037ZM19.1976 18.3887L15.9057 22.8832L16.8133 23.5479L20.1052 19.0534L19.1976 18.3887ZM16.6483 21.1739L19.9402 19.2037L19.3625 18.2384L16.0706 20.2085L16.6483 21.1739ZM16.922 23.2156V20.6912H15.797V23.2156H16.922Z" fill="#464955" mask="url(#path-1-inside-1_10379_44291)"/>
<defs>
<filter id="filter0_i_10379_44291" x="2.5" y="2.5" width="27" height="31.5" filterUnits="userSpaceOnUse" color-interpolation-filters="sRGB">
<feFlood flood-opacity="0" result="BackgroundImageFix"/>
<feBlend mode="normal" in="SourceGraphic" in2="BackgroundImageFix" result="shape"/>
<feColorMatrix in="SourceAlpha" type="matrix" values="0 0 0 0 0 0 0 0 0 0 0 0 0 0 0 0 0 0 127 0" result="hardAlpha"/>
<feOffset dy="4.5"/>
<feGaussianBlur stdDeviation="2.25"/>
<feComposite in2="hardAlpha" operator="arithmetic" k2="-1" k3="1"/>
<feColorMatrix type="matrix" values="0 0 0 0 0 0 0 0 0 0 0 0 0 0 0 0 0 0 0.25 0"/>
<feBlend mode="normal" in2="shape" result="effect1_innerShadow_10379_44291"/>
</filter>
</defs>
</svg>
