<svg width="20" height="20" viewBox="0 0 20 20" fill="none" xmlns="http://www.w3.org/2000/svg">
<path d="M9.99986 18.8331C9.07485 18.8331 8.21652 18.4415 7.57485 17.7415L1.85818 11.4581C1.04985 10.5748 0.799849 9.01647 1.28318 7.9248L3.41653 3.1248C3.99986 1.81647 4.97486 1.1748 6.40819 1.1748H13.5665C14.9999 1.1748 15.9749 1.80814 16.5582 3.11647L18.6915 7.91647C19.1748 9.00814 18.9332 10.5665 18.1249 11.4498L12.4165 17.7415C11.7915 18.4415 10.9249 18.8331 9.99986 18.8331ZM13.5748 2.41647H6.41652C5.32485 2.41647 4.88318 2.8998 4.56652 3.6248L2.43319 8.42481C2.14985 9.06647 2.31652 10.0915 2.78318 10.6081L8.49985 16.8915C8.89985 17.3331 9.43319 17.5748 9.99986 17.5748C10.5665 17.5748 11.0999 17.3331 11.4999 16.8915L17.2082 10.5998C17.6832 10.0748 17.8499 9.05814 17.5582 8.41647L15.4248 3.61647C15.1082 2.89981 14.6665 2.41647 13.5748 2.41647Z" fill="#00040F"/>
<path d="M2.9165 7.29153C2.57484 7.29153 2.2915 7.0082 2.2915 6.66654C2.2915 6.32487 2.57484 6.04154 2.9165 6.04154L17.0832 6.0332C17.4248 6.0332 17.7082 6.31654 17.7082 6.6582C17.7082 6.99987 17.4248 7.2832 17.0832 7.2832L2.9165 7.29153Z" fill="#00040F"/>
</svg>
