<svg width="20" height="20" viewBox="0 0 20 20" fill="none" xmlns="http://www.w3.org/2000/svg">
<path d="M17 10C17 11.3845 16.5894 12.7378 15.8203 13.889C15.0511 15.0401 13.9579 15.9373 12.6788 16.4671C11.3997 16.9969 9.99224 17.1356 8.63439 16.8655C7.27653 16.5954 6.02925 15.9287 5.05029 14.9497M5.05029 14.9497V17M5.05029 14.9497L6.88877 14.6666" stroke="#00040F" stroke-width="1.2" stroke-linecap="round"/>
<path d="M3.00003 10C3.00003 8.61554 3.41057 7.26217 4.17974 6.11103C4.9489 4.95989 6.04215 4.06269 7.32122 3.53288C8.6003 3.00307 10.0078 2.86445 11.3656 3.13454C12.7235 3.40464 13.9707 4.07132 14.9497 5.05028M14.9497 5.05028L14.9497 3.00004M14.9497 5.05028L13.1112 5.33336" stroke="#00040F" stroke-width="1.2" stroke-linecap="round"/>
</svg>
