<svg width="32" height="32" viewBox="0 0 32 32" fill="none" xmlns="http://www.w3.org/2000/svg">
<mask id="path-1-inside-1_6825_12753" fill="white">
<path fill-rule="evenodd" clip-rule="evenodd" d="M28 16C28 17.8498 27.5814 19.6019 26.8339 21.1667H24.1667V17.3333C24.1667 16.5049 23.4951 15.8333 22.6667 15.8333C21.8382 15.8333 21.1667 16.5049 21.1667 17.3333V17.6752L19.4921 16L23.091 12.3998L23.2667 12.2241V11.9756V9.33333V8.73333H22.6667H20.0254H19.7768L19.601 8.90915L16.0024 12.5091L12.4039 8.90915L12.2281 8.73333H11.9795H9.33831H8.73832L8.73831 9.33332L8.73823 11.9756L8.73822 12.2241L8.91389 12.3998L12.5128 16L8.91396 19.6002L8.73877 19.7754L8.73831 20.0232L8.73333 22.6655L8.7322 23.2667H9.33333H11.9796H12.2282L12.404 23.0909L16.0024 19.491L17.6775 21.1667H17.3333C16.5049 21.1667 15.8333 21.8382 15.8333 22.6667C15.8333 23.4951 16.5049 24.1667 17.3333 24.1667H21.1667V26.8339C19.6019 27.5814 17.8498 28 16 28C9.37258 28 4 22.6274 4 16C4 9.37258 9.37258 4 16 4C22.6274 4 28 9.37258 28 16ZM19.3742 21.1667L16.8429 18.6344L18.6422 16.8472L21.1667 19.3726V21.1667H19.3742ZM24.1667 24.1667H24.7924C24.5916 24.3828 24.3828 24.5916 24.1667 24.7924V24.1667ZM9.93784 20.2733L13.3596 16.8503L15.1461 18.6503L11.731 22.0667H9.93446L9.93784 20.2733ZM15.9865 17.7936L17.7939 15.9985L16.0024 14.2064L14.208 16.0016L15.9865 17.7936ZM13.3611 15.1514L15.1541 13.3577L11.7309 9.93333H9.93829L9.93824 11.7272L13.3611 15.1514ZM18.6438 15.1514L16.8508 13.3577L20.274 9.93333H22.0667V11.7272L18.6438 15.1514Z"/>
</mask>
<g filter="url(#filter0_i_6825_12753)">
<path fill-rule="evenodd" clip-rule="evenodd" d="M28 16C28 17.8498 27.5814 19.6019 26.8339 21.1667H24.1667V17.3333C24.1667 16.5049 23.4951 15.8333 22.6667 15.8333C21.8382 15.8333 21.1667 16.5049 21.1667 17.3333V17.6752L19.4921 16L23.091 12.3998L23.2667 12.2241V11.9756V9.33333V8.73333H22.6667H20.0254H19.7768L19.601 8.90915L16.0024 12.5091L12.4039 8.90915L12.2281 8.73333H11.9795H9.33831H8.73832L8.73831 9.33332L8.73823 11.9756L8.73822 12.2241L8.91389 12.3998L12.5128 16L8.91396 19.6002L8.73877 19.7754L8.73831 20.0232L8.73333 22.6655L8.7322 23.2667H9.33333H11.9796H12.2282L12.404 23.0909L16.0024 19.491L17.6775 21.1667H17.3333C16.5049 21.1667 15.8333 21.8382 15.8333 22.6667C15.8333 23.4951 16.5049 24.1667 17.3333 24.1667H21.1667V26.8339C19.6019 27.5814 17.8498 28 16 28C9.37258 28 4 22.6274 4 16C4 9.37258 9.37258 4 16 4C22.6274 4 28 9.37258 28 16ZM19.3742 21.1667L16.8429 18.6344L18.6422 16.8472L21.1667 19.3726V21.1667H19.3742ZM24.1667 24.1667H24.7924C24.5916 24.3828 24.3828 24.5916 24.1667 24.7924V24.1667ZM9.93784 20.2733L13.3596 16.8503L15.1461 18.6503L11.731 22.0667H9.93446L9.93784 20.2733ZM15.9865 17.7936L17.7939 15.9985L16.0024 14.2064L14.208 16.0016L15.9865 17.7936ZM13.3611 15.1514L15.1541 13.3577L11.7309 9.93333H9.93829L9.93824 11.7272L13.3611 15.1514ZM18.6438 15.1514L16.8508 13.3577L20.274 9.93333H22.0667V11.7272L18.6438 15.1514Z" fill="#9497A2"/>
</g>
<path d="M26.8339 21.1667V21.6667H27.1491L27.285 21.3822L26.8339 21.1667ZM24.1667 21.1667H23.6667V21.6667H24.1667V21.1667ZM21.1667 17.6752L20.813 18.0287L21.6667 18.8826V17.6752H21.1667ZM19.4921 16L19.1385 15.6466L18.7852 16L19.1385 16.3535L19.4921 16ZM23.091 12.3998L22.7374 12.0463V12.0463L23.091 12.3998ZM23.2667 12.2241L23.6203 12.5776L23.7667 12.4311V12.2241H23.2667ZM23.2667 8.73333H23.7667V8.23333H23.2667V8.73333ZM19.7768 8.73333V8.23333H19.5696L19.4231 8.37984L19.7768 8.73333ZM19.601 8.90915L19.2474 8.55566L19.2474 8.55566L19.601 8.90915ZM16.0024 12.5091L15.6488 12.8625L16.0024 13.2163L16.3561 12.8625L16.0024 12.5091ZM12.4039 8.90915L12.7575 8.55566H12.7575L12.4039 8.90915ZM12.2281 8.73333L12.5818 8.37985L12.4353 8.23333H12.2281V8.73333ZM8.73832 8.73333V8.23333H8.23834L8.23832 8.73332L8.73832 8.73333ZM8.73831 9.33332L9.23831 9.33333V9.33333L8.73831 9.33332ZM8.73823 11.9756L9.23823 11.9756L8.73823 11.9756ZM8.73822 12.2241L8.23822 12.2241L8.23822 12.4311L8.38461 12.5776L8.73822 12.2241ZM8.91389 12.3998L9.26751 12.0463L9.26751 12.0463L8.91389 12.3998ZM12.5128 16L12.8664 16.3535L13.2197 16L12.8664 15.6466L12.5128 16ZM8.91396 19.6002L9.26758 19.9537L8.91396 19.6002ZM8.73877 19.7754L8.38515 19.422L8.23916 19.568L8.23877 19.7745L8.73877 19.7754ZM8.73831 20.0232L9.23831 20.0242L8.73831 20.0232ZM8.73333 22.6655L9.23333 22.6665L8.73333 22.6655ZM8.7322 23.2667L8.2322 23.2657L8.23126 23.7667H8.7322V23.2667ZM12.2282 23.2667V23.7667H12.4354L12.5818 23.6202L12.2282 23.2667ZM12.404 23.0909L12.0503 22.7374L12.404 23.0909ZM16.0024 19.491L16.3561 19.1375L16.0024 18.7838L15.6488 19.1375L16.0024 19.491ZM17.6775 21.1667V21.6667H18.8843L18.0311 20.8132L17.6775 21.1667ZM21.1667 24.1667H21.6667V23.6667H21.1667V24.1667ZM21.1667 26.8339L21.3822 27.285L21.6667 27.1491V26.8339H21.1667ZM19.3742 21.1667L19.0206 21.5202L19.1671 21.6667H19.3742V21.1667ZM16.8429 18.6344L16.4905 18.2797L16.1347 18.6331L16.4893 18.9879L16.8429 18.6344ZM18.6422 16.8472L18.9959 16.4937L18.6435 16.1412L18.2899 16.4925L18.6422 16.8472ZM21.1667 19.3726H21.6667V19.1655L21.5203 19.0191L21.1667 19.3726ZM21.1667 21.1667V21.6667H21.6667V21.1667H21.1667ZM24.7924 24.1667L25.1587 24.507L25.9396 23.6667H24.7924V24.1667ZM24.1667 24.1667V23.6667H23.6667V24.1667H24.1667ZM24.1667 24.7924H23.6667V25.9396L24.507 25.1587L24.1667 24.7924ZM13.3596 16.8503L13.7145 16.498L13.3609 16.1417L13.006 16.4968L13.3596 16.8503ZM9.93784 20.2733L9.58422 19.9198L9.43823 20.0659L9.43784 20.2724L9.93784 20.2733ZM15.1461 18.6503L15.4997 19.0038L15.8518 18.6516L15.501 18.2981L15.1461 18.6503ZM11.731 22.0667V22.5667H11.9382L12.0846 22.4202L11.731 22.0667ZM9.93446 22.0667L9.43446 22.0657L9.43352 22.5667H9.93446V22.0667ZM17.7939 15.9985L18.1462 16.3533L18.5021 15.9998L18.1475 15.645L17.7939 15.9985ZM15.9865 17.7936L15.6317 18.1459L15.984 18.5009L16.3389 18.1484L15.9865 17.7936ZM16.0024 14.2064L16.3561 13.8529L16.0024 13.4992L15.6488 13.8529L16.0024 14.2064ZM14.208 16.0016L13.8544 15.6481L13.5023 16.0003L13.8531 16.3538L14.208 16.0016ZM15.1541 13.3577L15.5077 13.7112L15.8611 13.3577L15.5077 13.0043L15.1541 13.3577ZM13.3611 15.1514L13.0075 15.5048L13.3611 15.8586L13.7148 15.5048L13.3611 15.1514ZM11.7309 9.93333L12.0846 9.57985L11.9381 9.43333H11.7309V9.93333ZM9.93829 9.93333V9.43333H9.4383L9.43829 9.93332L9.93829 9.93333ZM9.93824 11.7272L9.43824 11.7272L9.43823 11.9342L9.58462 12.0807L9.93824 11.7272ZM16.8508 13.3577L16.4972 13.0043L16.1438 13.3577L16.4972 13.7112L16.8508 13.3577ZM18.6438 15.1514L18.2901 15.5048L18.6438 15.8586L18.9974 15.5048L18.6438 15.1514ZM20.274 9.93333V9.43333H20.0668L19.9203 9.57985L20.274 9.93333ZM22.0667 9.93333H22.5667V9.43333H22.0667V9.93333ZM22.0667 11.7272L22.4203 12.0807L22.5667 11.9342V11.7272H22.0667ZM27.285 21.3822C28.0641 19.7516 28.5 17.926 28.5 16H27.5C27.5 17.7737 27.0988 19.4522 26.3827 20.9511L27.285 21.3822ZM24.1667 21.6667H26.8339V20.6667H24.1667V21.6667ZM23.6667 17.3333V21.1667H24.6667V17.3333H23.6667ZM22.6667 16.3333C23.219 16.3333 23.6667 16.781 23.6667 17.3333H24.6667C24.6667 16.2288 23.7712 15.3333 22.6667 15.3333V16.3333ZM21.6667 17.3333C21.6667 16.781 22.1144 16.3333 22.6667 16.3333V15.3333C21.5621 15.3333 20.6667 16.2288 20.6667 17.3333H21.6667ZM21.6667 17.6752V17.3333H20.6667V17.6752H21.6667ZM19.1385 16.3535L20.813 18.0287L21.5203 17.3217L19.8457 15.6466L19.1385 16.3535ZM22.7374 12.0463L19.1385 15.6466L19.8457 16.3535L23.4446 12.7533L22.7374 12.0463ZM22.913 11.8706L22.7374 12.0463L23.4446 12.7533L23.6203 12.5776L22.913 11.8706ZM22.7667 11.9756V12.2241H23.7667V11.9756H22.7667ZM22.7667 9.33333V11.9756H23.7667V9.33333H22.7667ZM22.7667 8.73333V9.33333H23.7667V8.73333H22.7667ZM22.6667 9.23333H23.2667V8.23333H22.6667V9.23333ZM20.0254 9.23333H22.6667V8.23333H20.0254V9.23333ZM19.7768 9.23333H20.0254V8.23333H19.7768V9.23333ZM19.9546 9.26264L20.1304 9.08682L19.4231 8.37984L19.2474 8.55566L19.9546 9.26264ZM16.3561 12.8625L19.9546 9.26264L19.2474 8.55566L15.6488 12.1556L16.3561 12.8625ZM12.0503 9.26264L15.6488 12.8625L16.3561 12.1556L12.7575 8.55566L12.0503 9.26264ZM11.8745 9.08682L12.0503 9.26264L12.7575 8.55566L12.5818 8.37985L11.8745 9.08682ZM11.9795 9.23333H12.2281V8.23333H11.9795V9.23333ZM9.33831 9.23333H11.9795V8.23333H9.33831V9.23333ZM8.73832 9.23333H9.33831V8.23333H8.73832V9.23333ZM9.23831 9.33333L9.23832 8.73335L8.23832 8.73332L8.23831 9.3333L9.23831 9.33333ZM9.23823 11.9756L9.23831 9.33333L8.23831 9.3333L8.23823 11.9756L9.23823 11.9756ZM9.23822 12.2241L9.23823 11.9756L8.23823 11.9756L8.23822 12.2241L9.23822 12.2241ZM9.26751 12.0463L9.09184 11.8706L8.38461 12.5776L8.56027 12.7533L9.26751 12.0463ZM12.8664 15.6466L9.26751 12.0463L8.56027 12.7533L12.1592 16.3535L12.8664 15.6466ZM9.26758 19.9537L12.8664 16.3535L12.1592 15.6466L8.56034 19.2467L9.26758 19.9537ZM9.09239 20.1289L9.26758 19.9537L8.56034 19.2467L8.38515 19.422L9.09239 20.1289ZM9.23831 20.0242L9.23877 19.7764L8.23877 19.7745L8.23831 20.0223L9.23831 20.0242ZM9.23333 22.6665L9.23831 20.0242L8.23831 20.0223L8.23334 22.6646L9.23333 22.6665ZM9.2322 23.2676L9.23333 22.6665L8.23334 22.6646L8.2322 23.2657L9.2322 23.2676ZM9.33333 22.7667H8.7322V23.7667H9.33333V22.7667ZM11.9796 22.7667H9.33333V23.7667H11.9796V22.7667ZM12.2282 22.7667H11.9796V23.7667H12.2282V22.7667ZM12.0503 22.7374L11.8746 22.9132L12.5818 23.6202L12.7576 23.4443L12.0503 22.7374ZM15.6488 19.1375L12.0503 22.7374L12.7576 23.4443L16.3561 19.8445L15.6488 19.1375ZM18.0311 20.8132L16.3561 19.1375L15.6488 19.8445L17.3239 21.5202L18.0311 20.8132ZM17.3333 21.6667H17.6775V20.6667H17.3333V21.6667ZM16.3333 22.6667C16.3333 22.1144 16.781 21.6667 17.3333 21.6667V20.6667C16.2288 20.6667 15.3333 21.5621 15.3333 22.6667H16.3333ZM17.3333 23.6667C16.781 23.6667 16.3333 23.219 16.3333 22.6667H15.3333C15.3333 23.7712 16.2288 24.6667 17.3333 24.6667V23.6667ZM21.1667 23.6667H17.3333V24.6667H21.1667V23.6667ZM21.6667 26.8339V24.1667H20.6667V26.8339H21.6667ZM16 28.5C17.926 28.5 19.7516 28.0641 21.3822 27.285L20.9511 26.3827C19.4522 27.0988 17.7737 27.5 16 27.5V28.5ZM3.5 16C3.5 22.9036 9.09644 28.5 16 28.5V27.5C9.64873 27.5 4.5 22.3513 4.5 16H3.5ZM16 3.5C9.09644 3.5 3.5 9.09644 3.5 16H4.5C4.5 9.64873 9.64873 4.5 16 4.5V3.5ZM28.5 16C28.5 9.09644 22.9036 3.5 16 3.5V4.5C22.3513 4.5 27.5 9.64873 27.5 16H28.5ZM19.7278 20.8132L17.1965 18.2809L16.4893 18.9879L19.0206 21.5202L19.7278 20.8132ZM17.1953 18.9892L18.9946 17.202L18.2899 16.4925L16.4905 18.2797L17.1953 18.9892ZM18.2886 17.2007L20.813 19.7261L21.5203 19.0191L18.9959 16.4937L18.2886 17.2007ZM21.6667 21.1667V19.3726H20.6667V21.1667H21.6667ZM19.3742 21.6667H21.1667V20.6667H19.3742V21.6667ZM24.7924 23.6667H24.1667V24.6667H24.7924V23.6667ZM24.507 25.1587C24.7321 24.9495 24.9495 24.7321 25.1587 24.507L24.4262 23.8263C24.2336 24.0335 24.0335 24.2336 23.8263 24.4262L24.507 25.1587ZM23.6667 24.1667V24.7924H24.6667V24.1667H23.6667ZM13.006 16.4968L9.58422 19.9198L10.2915 20.6268L13.7132 17.2037L13.006 16.4968ZM15.501 18.2981L13.7145 16.498L13.0047 17.2025L14.7912 19.0025L15.501 18.2981ZM12.0846 22.4202L15.4997 19.0038L14.7925 18.2968L11.3774 21.7132L12.0846 22.4202ZM9.93446 22.5667H11.731V21.5667H9.93446V22.5667ZM9.43784 20.2724L9.43446 22.0657L10.4345 22.0676L10.4378 20.2742L9.43784 20.2724ZM17.4415 15.6438L15.6342 17.4389L16.3389 18.1484L18.1462 16.3533L17.4415 15.6438ZM15.6488 14.5599L17.4402 16.352L18.1475 15.645L16.3561 13.8529L15.6488 14.5599ZM14.5616 16.355L16.3561 14.5599L15.6488 13.8529L13.8544 15.6481L14.5616 16.355ZM16.3414 17.4414L14.5629 15.6493L13.8531 16.3538L15.6317 18.1459L16.3414 17.4414ZM14.8005 13.0043L13.0075 14.7979L13.7148 15.5048L15.5077 13.7112L14.8005 13.0043ZM11.3773 10.2868L14.8005 13.7112L15.5077 13.0043L12.0846 9.57985L11.3773 10.2868ZM9.93829 10.4333H11.7309V9.43333H9.93829V10.4333ZM10.4382 11.7272L10.4383 9.93335L9.43829 9.93332L9.43824 11.7272L10.4382 11.7272ZM13.7148 14.7979L10.2919 11.3737L9.58462 12.0807L13.0075 15.5048L13.7148 14.7979ZM16.4972 13.7112L18.2901 15.5048L18.9974 14.7979L17.2044 13.0043L16.4972 13.7112ZM19.9203 9.57985L16.4972 13.0043L17.2044 13.7112L20.6276 10.2868L19.9203 9.57985ZM22.0667 9.43333H20.274V10.4333H22.0667V9.43333ZM22.5667 11.7272V9.93333H21.5667V11.7272H22.5667ZM18.9974 15.5048L22.4203 12.0807L21.713 11.3737L18.2901 14.7979L18.9974 15.5048Z" fill="#6F727E" fill-opacity="0.5" mask="url(#path-1-inside-1_6825_12753)"/>
<path d="M22.6668 28.0002V22.6668M22.6668 17.3335V22.6668M22.6668 22.6668H28.0002M22.6668 22.6668H17.3335" stroke="#C0C1C5" stroke-width="1.5" stroke-linecap="round"/>
<defs>
<filter id="filter0_i_6825_12753" x="4" y="4" width="24" height="28" filterUnits="userSpaceOnUse" color-interpolation-filters="sRGB">
<feFlood flood-opacity="0" result="BackgroundImageFix"/>
<feBlend mode="normal" in="SourceGraphic" in2="BackgroundImageFix" result="shape"/>
<feColorMatrix in="SourceAlpha" type="matrix" values="0 0 0 0 0 0 0 0 0 0 0 0 0 0 0 0 0 0 127 0" result="hardAlpha"/>
<feOffset dy="4"/>
<feGaussianBlur stdDeviation="2"/>
<feComposite in2="hardAlpha" operator="arithmetic" k2="-1" k3="1"/>
<feColorMatrix type="matrix" values="0 0 0 0 0 0 0 0 0 0 0 0 0 0 0 0 0 0 0.25 0"/>
<feBlend mode="normal" in2="shape" result="effect1_innerShadow_6825_12753"/>
</filter>
</defs>
</svg>
