<svg width="20" height="20" viewBox="0 0 20 20" fill="none" xmlns="http://www.w3.org/2000/svg">
<path fill-rule="evenodd" clip-rule="evenodd" d="M17.124 10.3068C15.6845 12.8918 12.9545 14.4977 10.0008 14.4977C7.04529 14.4977 4.31534 12.8918 2.87578 10.3068C2.76492 10.106 2.76492 9.89385 2.87578 9.6933C4.31534 7.10826 7.04529 5.50258 10.0008 5.50258C12.9545 5.50258 15.6844 7.10826 17.124 9.6933C17.2368 9.89385 17.2368 10.106 17.124 10.3068ZM18.0435 9.18076C16.4185 6.26211 13.3368 4.44922 10.0008 4.44922C6.66292 4.44922 3.58121 6.26211 1.95622 9.18076C1.66563 9.70152 1.66563 10.2985 1.95622 10.8189C3.58121 13.7376 6.66292 15.5508 10.0008 15.5508C13.3368 15.5508 16.4185 13.7376 18.0435 10.8189C18.3341 10.2986 18.3341 9.70152 18.0435 9.18076ZM10.0008 12.1608C11.1919 12.1608 12.1611 11.1915 12.1611 9.99995C12.1611 8.80837 11.1919 7.83912 10.0008 7.83912C8.8079 7.83912 7.83865 8.80837 7.83865 9.99995C7.83865 11.1915 8.80793 12.1608 10.0008 12.1608ZM10.0008 6.78576C8.22673 6.78576 6.78529 8.22779 6.78529 9.99998C6.78529 11.7726 8.22676 13.214 10.0008 13.214C11.773 13.214 13.2145 11.7725 13.2145 9.99998C13.2145 8.22779 11.773 6.78576 10.0008 6.78576Z" fill="#00040F"/>
</svg>
