<svg width="200" height="43" viewBox="0 0 200 43" fill="none" xmlns="http://www.w3.org/2000/svg">
<path d="M18.1919 20.177C19.0739 21.7206 17.0893 22.1616 16.2073 22.2718C14.8842 22.3821 14.5534 21.6103 14.7739 20.618C14.8842 20.2872 15.1047 19.9565 15.3252 19.7359C15.5457 19.5154 15.9867 19.2949 16.3175 19.2949C16.6483 19.2949 17.0893 19.2949 17.3098 19.5154C17.7509 19.6257 17.9714 19.8462 18.1919 20.177Z" fill="#EB1A6B"/>
<path d="M23.482 17.4207C22.4897 25.1386 35.941 23.4848 35.7205 29.5489C37.0436 27.7848 37.5948 23.154 33.7359 20.7283C30.2077 18.5232 25.6871 19.736 23.482 17.4207Z" fill="#EB1A6B"/>
<path d="M31.3104 14.4434C31.2001 14.3332 31.0898 14.3332 31.0898 14.2229C31.0898 14.3332 31.2001 14.4434 31.3104 14.4434Z" fill="#EB1A6B"/>
<path d="M34.3949 20.0667C34.2847 19.8462 34.1744 19.6257 33.9539 19.4052C33.5129 18.7436 32.8513 18.3026 32.0795 18.1923C31.6385 18.0821 31.0872 17.9718 30.5359 17.9718C29.9847 17.9718 29.5436 17.8616 28.9923 17.8616C27.8898 17.7513 26.8975 17.6411 25.7949 17.4205C25.5744 17.3103 25.2436 17.3103 25.0231 17.2C24.9129 17.2 24.8026 17.0898 24.5821 17.0898C24.4718 16.9795 24.3616 16.9795 24.1411 16.8693C23.5898 16.6487 23.1488 16.2077 22.818 15.877C22.0462 15.1052 21.3847 14.2231 20.7231 13.4513C20.0616 12.5693 19.5103 11.7975 18.7385 11.0257C18.077 10.2539 17.1949 9.59234 16.3129 9.15131C15.4308 8.71028 14.3282 8.37952 13.3359 8.26926C14.4385 8.159 15.5411 8.26926 16.5334 8.71029C17.5257 9.15131 18.518 9.70259 19.2898 10.4744C19.8411 10.9154 20.2821 11.4667 20.7231 12.018C24.1411 11.3564 26.7872 11.9077 28.8821 13.1205C29.5436 13.4513 30.2052 13.8923 30.7565 14.4436C30.8667 14.5539 30.977 14.5539 30.977 14.6641C31.418 15.1052 31.859 15.5462 32.1898 15.9872C33.7334 17.4205 34.3949 19.0744 34.3949 20.0667Z" fill="#EB1A6B"/>
<path d="M13.6728 9.15137C14.5548 9.26162 15.4369 9.59239 15.9881 10.2539C16.5394 10.9155 16.7599 11.7975 16.9804 12.5693C17.0907 13.2309 17.201 13.8924 17.4215 14.4437C17.5317 14.7744 17.7522 14.995 17.8625 15.2155C17.9728 15.436 18.1933 15.6565 18.3035 15.877V15.9873V16.0975C17.9728 16.4283 17.201 16.0975 16.8702 15.877C16.3189 15.6565 15.8779 15.2155 15.4369 14.7744C14.224 13.4514 13.5625 11.4668 13.5625 9.70265C13.5625 9.59239 13.6728 9.37188 13.6728 9.15137Z" fill="#EB1A6B"/>
<path d="M28.0039 24.5872C26.1296 29.7692 34.6193 33.2974 31.4219 38.5897C34.6193 37.2666 36.1629 33.1872 34.8398 29.9897C33.7373 27.1231 30.2091 26.0205 28.0039 24.5872Z" fill="#EB1A6B"/>
<path d="M16.8672 31.3127C17.4185 30.982 17.9698 30.6512 18.521 30.3204C19.0723 30.0999 19.7339 29.8794 20.3954 29.7691C21.6082 29.5486 22.9313 29.4384 23.9236 28.9973C24.4749 28.7768 24.9159 28.5563 25.3569 28.1153C25.798 27.7845 26.0185 27.3435 26.239 26.7922C26.4595 26.2409 26.4595 25.6897 26.4595 25.1384C26.4595 24.4768 26.239 23.9255 26.0185 23.3743C26.4595 23.8153 26.7903 24.4768 27.0108 25.1384C27.2313 25.7999 27.2313 26.4614 27.121 27.123C27.0108 27.7845 26.5698 28.4461 26.1287 28.9973C25.6877 29.4384 25.0262 29.8794 24.3646 30.0999C23.7031 30.3204 23.0415 30.4307 22.38 30.5409C21.7185 30.5409 21.1672 30.6512 20.5056 30.6512C19.2928 30.6512 18.08 30.8717 16.8672 31.3127Z" fill="#EB1A6B"/>
<path d="M28.7751 40.4641C28.5546 40.5744 28.4443 40.7949 28.2238 40.9051C28.0033 41.0154 27.7828 41.1257 27.5623 41.2359C27.1213 41.4564 26.57 41.5667 26.0187 41.5667C24.5854 41.5667 23.593 40.4641 23.0418 39.2513C22.6007 38.4795 22.3802 37.5975 21.9392 36.8257C21.2777 35.7231 20.0648 34.841 18.7418 34.9513C18.1905 35.0616 17.6392 35.2821 17.4187 35.7231C16.6469 36.9359 17.7495 38.7 19.293 38.4795C19.4033 38.4795 19.5136 38.4795 19.6238 38.3693C19.7341 38.3693 19.8443 38.259 19.9546 38.1487C20.1751 37.9282 20.2854 37.7077 20.3956 37.4872C20.5059 37.2667 20.5059 36.9359 20.5059 36.6051C20.3956 36.2744 20.2854 36.0539 20.0648 35.9436C20.3956 36.0539 20.6161 36.2744 20.7264 36.6051C20.6161 37.1564 20.6161 37.4872 20.6161 37.818C20.5059 38.1487 20.3956 38.4795 20.1751 38.7C20.0648 38.8103 19.9546 38.9205 19.7341 39.0308C19.6238 39.141 19.4033 39.2513 19.293 39.2513C18.9623 39.3616 18.6315 39.3616 18.3007 39.3616C17.8597 39.2513 17.3084 39.141 16.9777 38.8103C16.5366 38.4795 16.2059 37.9282 15.7648 37.5975C15.3238 37.0462 14.7725 36.7154 14.111 36.3846C13.67 36.1641 13.2289 36.0539 12.7879 35.9436C12.5674 35.9436 12.3469 35.8334 12.1264 35.8334C12.0161 35.8334 11.4648 35.7231 11.4648 35.7231C12.2366 35.0616 13.0084 34.5103 13.7802 33.959C14.6623 33.4077 15.5443 33.0769 16.5366 32.7462C17.5289 32.4154 18.5213 32.4154 19.6238 32.5257C20.1751 32.6359 20.6161 32.7462 21.1674 32.9667C21.7187 33.1872 22.1597 33.518 22.6007 33.8487C23.0418 34.2898 23.3725 34.7308 23.593 35.1718C23.8136 35.6128 23.9238 36.1641 24.0341 36.7154C24.3648 38.259 24.2546 40.6846 26.2392 41.0154C26.3495 41.0154 26.4597 41.0154 26.57 41.0154H26.9007C27.1213 41.0154 27.3418 41.0154 27.5623 40.9051C27.893 40.9051 28.3341 40.6846 28.7751 40.4641Z" fill="#EB1A6B"/>
<path d="M15.2139 16.9795C15.1036 17.3102 14.9934 17.5308 14.8831 17.7513C14.5523 18.1923 14.1113 18.5231 13.6703 18.7436C13.2293 18.9641 12.7882 19.0743 12.237 19.0743C12.1267 19.0743 12.0164 19.0743 11.9062 19.0743C11.5754 19.0743 11.3549 19.1846 11.0241 19.4051C10.8036 19.6256 10.5831 19.8461 10.5831 20.1769C10.5831 20.2872 10.4729 20.5077 10.4729 20.6179C10.4729 21.059 10.3626 21.3897 10.3626 21.941C10.2523 22.8231 10.0318 23.5949 9.70106 24.3667C9.26004 25.359 8.70875 26.241 8.81901 27.3436C8.92927 28.1154 9.26004 28.6667 9.81132 29.1077C10.6934 30.1 12.7882 30.541 12.3472 32.8564C12.0164 34.2897 9.70106 35.7231 6.50363 36.2743C6.8344 36.2743 6.0626 34.9513 6.0626 34.841C5.73183 34.2897 5.2908 33.7384 5.07029 33.1872C4.51901 32.0846 4.2985 30.6513 4.51901 29.4384C4.73952 28.1154 5.73183 27.1231 6.50363 26.0205C7.49593 24.8077 8.48824 23.2641 8.70875 21.6102C8.70875 21.2795 8.81901 20.7282 8.92927 20.2872C9.03952 19.7359 9.14978 19.2949 9.37029 18.7436C9.48055 18.4128 9.70106 18.1923 10.0318 17.8615C10.1421 17.7513 10.2523 17.5308 10.2523 17.4205C10.2523 17.2 10.2523 17.0897 10.1421 16.8692L4.96004 7.49742L12.4575 16.759C12.5677 16.8692 12.678 16.9795 12.7882 16.9795C12.8985 17.0897 13.0088 17.0897 13.2293 17.0897C13.3395 17.0897 13.4498 17.0897 13.6703 16.9795C13.7805 16.8692 13.8908 16.8692 14.0011 16.759C14.1113 16.6487 14.1113 16.5384 14.1113 16.3179C14.1113 16.2077 14.1113 15.9872 14.0011 15.8769C13.56 15.2154 13.0088 14.6641 12.4575 14.0026L10.5831 11.6872L6.83439 7.0564L1.65234 0.55127L7.27542 6.61537L11.2447 11.0256L13.2293 13.2308C13.8908 14.0026 14.5523 14.6641 15.2139 15.5461L15.3241 15.6564V15.8769C15.3241 16.3179 15.3241 16.6487 15.2139 16.9795Z" fill="#EB1A6B"/>
<path d="M16.9767 38.6998C16.6459 38.3691 16.3151 38.0383 15.9844 37.7075C16.3151 38.1485 16.5357 38.4793 16.9767 38.6998Z" fill="#EB1A6B"/>
<path fill-rule="evenodd" clip-rule="evenodd" d="M114.113 13.782C110.475 14.664 108.821 17.5307 109.813 20.9487C110.254 22.382 111.577 23.9256 113.562 25.0281C116.98 27.0128 118.082 27.7846 118.633 28.9974C119.075 29.9897 119.185 30.3205 118.964 31.3128C118.413 33.5179 116.869 34.6205 114.664 34.6205C112.459 34.6205 110.916 33.4076 110.475 31.3128C110.364 30.4307 110.144 30.2102 109.813 30.2102C109.372 30.2102 109.262 30.4307 109.262 32.5256V34.841L110.695 35.282C113.01 36.0538 116.208 35.9435 118.082 35.0615C121.831 33.2974 123.264 29.8794 121.61 26.682C120.949 25.4692 119.405 24.1461 116.759 22.4923C113.892 20.7281 112.68 19.5153 112.459 18.3025C112.128 16.3179 113.892 14.7743 116.318 14.7743C118.192 14.7743 118.964 15.2153 119.626 16.6487C120.067 17.5307 120.287 17.8615 120.839 17.8615C121.39 17.8615 121.5 17.7512 121.28 17.1999C121.169 16.8692 121.059 15.9871 121.059 15.3256C121.059 14.4435 120.949 14.0025 120.618 13.8922C119.846 13.5615 115.105 13.4512 114.113 13.782ZM41.3438 14.5538C41.3438 14.9948 41.5643 15.1051 42.0053 15.1051C43.3284 15.1051 43.4386 15.4358 43.5489 23.4846C43.6591 30.4307 43.7694 30.982 44.3207 32.0846C45.0925 33.5179 46.195 34.5102 47.8489 35.282C48.9514 35.8333 49.7232 35.9435 52.0386 35.9435C54.4643 35.9435 55.0155 35.8333 56.3386 35.1717C57.2207 34.7307 58.3232 33.9589 58.7643 33.4076C60.3079 31.5333 60.5284 30.541 60.6386 22.823C60.8591 15.3256 60.8591 15.2153 62.072 15.2153C62.4027 15.2153 62.513 14.9948 62.513 14.664C62.513 14.1128 62.2925 14.1128 59.2053 14.1128C56.1181 14.1128 55.8976 14.1128 55.8976 14.664C55.8976 15.1051 56.1181 15.2153 56.7797 15.3256C58.213 15.4358 58.3232 15.9871 58.3232 22.823C58.3232 29.7692 58.1027 31.0922 56.5591 32.5256C55.2361 33.8487 54.1335 34.2897 52.2591 34.2897C49.613 34.2897 47.6284 33.0769 47.0771 30.8717C46.8566 30.0999 46.7463 27.4538 46.8566 22.7128L46.9668 15.6564L47.9591 15.3256C48.5104 15.1051 48.9514 14.7743 49.0617 14.5538C49.172 14.1128 48.7309 14.1128 45.313 14.1128C41.5643 14.0025 41.3438 14.0025 41.3438 14.5538ZM67.0335 14.5538C67.0335 14.9948 67.254 15.1051 67.8053 15.1051C69.2386 15.1051 70.0104 15.6564 70.3412 16.8692C70.5617 17.5307 70.5617 20.7281 70.5617 25.2487C70.4514 33.4076 70.3412 33.9589 68.6873 34.2897C68.1361 34.3999 67.9155 34.6205 67.9155 34.9512C67.9155 35.3922 68.1361 35.5025 71.7745 35.5025C75.3027 35.5025 75.6335 35.5025 75.6335 35.0615C75.6335 34.7307 75.3027 34.5102 74.4207 34.2897C73.3181 33.9589 73.2079 33.8487 72.8771 32.9666C72.4361 31.6435 72.4361 19.1846 72.7668 19.2948C72.8771 19.2948 73.9796 20.3974 75.1925 21.8307C76.4053 23.264 79.6027 26.9025 82.4694 29.8794C86.8796 34.6205 87.6514 35.5025 88.313 35.5025H89.0848L89.195 25.7999C89.3053 18.8538 89.4155 15.9871 89.6361 15.7666C89.8566 15.5461 90.4078 15.3256 90.8489 15.2153C91.4002 15.1051 91.7309 14.8846 91.7309 14.664C91.7309 14.3333 91.0694 14.223 87.9822 14.223C84.3438 14.1128 84.2335 14.1128 84.2335 14.664C84.2335 15.1051 84.454 15.2153 84.895 15.2153C85.2258 15.2153 85.8873 15.5461 86.3284 15.8769L87.1002 16.5384L87.2104 23.1538C87.2104 26.9025 87.2104 29.7692 87.1002 29.7692C86.9899 29.7692 86.1079 28.8871 85.2258 27.8948C84.3438 26.9025 81.8079 24.0358 79.6027 21.6102C77.3976 19.1846 74.972 16.5384 74.2002 15.6564L72.8771 14.1128H70.0104C67.1438 14.0025 67.0335 14.0025 67.0335 14.5538ZM95.9207 14.5538C95.9207 14.9948 96.1412 15.1051 96.6925 15.1051C97.1335 15.1051 97.6848 15.3256 98.0155 15.5461C98.5668 15.8769 98.5668 16.4281 98.6771 24.0358C98.7873 33.5179 98.6771 34.0692 97.0232 34.2897C96.2514 34.3999 95.9207 34.6205 95.9207 34.9512C95.9207 35.3922 96.2514 35.5025 100.11 35.5025C104.08 35.5025 104.3 35.5025 104.3 34.9512C104.3 34.5102 104.08 34.3999 103.639 34.3999C103.308 34.3999 102.757 34.1794 102.426 33.9589C101.875 33.6281 101.875 33.0769 101.764 24.9179C101.654 16.5384 101.654 16.2076 102.205 15.6564C102.536 15.3256 103.087 15.1051 103.418 15.1051C103.969 15.1051 104.08 14.9948 104.08 14.5538C104.08 14.0025 103.859 14.0025 99.8899 14.0025C96.1412 14.0025 95.9207 14.0025 95.9207 14.5538ZM124.918 14.5538C125.028 14.8846 125.249 15.1051 125.69 15.1051C126.021 15.1051 126.572 15.4358 126.903 15.7666C127.233 16.0974 129.108 20.6179 131.203 26.0205L134.841 35.6128L135.833 35.723L136.826 35.8333L139.362 28.9974C140.795 25.2487 142.118 21.8307 142.228 21.4999C142.559 20.8384 142.559 20.9487 143.441 23.1538C143.882 24.4769 145.205 27.7846 146.308 30.6512L148.292 35.8333H149.175C149.616 35.8333 150.057 35.723 150.167 35.5025C150.277 35.282 151.49 32.0846 153.033 28.3358C154.467 24.5871 156.121 20.3974 156.672 19.0743C157.885 15.9871 158.105 15.6564 158.987 15.3256C159.428 15.2153 159.759 14.8846 159.759 14.664C159.759 14.3333 159.208 14.223 156.451 14.223C153.364 14.223 153.144 14.223 153.144 14.7743C153.144 15.2153 153.364 15.3256 153.805 15.3256C154.908 15.3256 155.349 15.6564 155.349 16.3179C155.349 16.8692 150.057 31.0922 149.726 31.423C149.505 31.6435 144.764 18.4128 144.654 17.0897C144.433 15.8769 144.985 15.3256 146.198 15.3256C146.639 15.3256 146.859 15.2153 146.859 14.7743C146.859 14.223 146.639 14.223 142.559 14.223C138.48 14.223 138.259 14.223 138.259 14.7743C138.259 15.1051 138.48 15.3256 138.7 15.3256C139.582 15.3256 140.685 16.2076 141.016 16.9794C141.457 18.1923 141.126 19.4051 138.59 26.0205L136.495 31.6435L136.054 30.541C135.833 29.9897 134.51 26.4615 133.187 22.823C130.541 15.6564 130.541 15.3256 132.305 15.3256C132.967 15.3256 133.077 15.2153 133.077 14.7743C133.077 14.223 132.857 14.223 128.998 14.223C124.808 14.0025 124.698 14.0025 124.918 14.5538ZM180.708 14.7743C180.708 14.7743 180.708 15.1051 180.708 15.2153C180.708 15.3256 181.039 15.3256 181.039 15.3256C181.259 15.3256 181.369 15.4358 181.59 15.4358C182.472 15.6564 183.023 15.7666 183.244 16.3179C183.354 16.6487 183.464 17.9717 183.464 24.9179C183.464 32.1948 183.464 33.0769 183.244 33.5179C183.023 34.0692 182.582 34.3999 181.48 34.7307C181.48 34.7307 181.039 34.841 180.928 34.9512C180.818 35.0615 180.818 35.282 180.818 35.282C180.818 35.282 180.818 35.5025 180.928 35.6128C181.039 35.723 181.369 35.723 181.369 35.723H184.126H188.757C188.757 35.723 188.977 35.723 189.087 35.6128C189.198 35.5025 189.198 35.282 189.198 35.282C189.198 35.282 189.198 35.0615 189.087 34.9512C188.977 34.841 188.536 34.7307 188.536 34.7307C187.544 34.5102 186.992 34.1794 186.772 33.6281C186.551 33.1871 186.551 32.1948 186.551 29.8794V26.5717C186.662 26.682 186.772 26.682 186.882 26.7923C187.433 27.123 188.095 27.6743 190.521 27.6743C193.498 27.7846 195.262 26.4615 196.364 24.9179C197.467 23.3743 197.798 20.9487 197.026 18.3025C196.254 15.7666 193.939 14.1128 190.741 14.0025C189.087 13.8923 186.551 14.0025 185.228 14.1128H184.898C183.685 14.1128 182.141 14.3333 181.369 14.3333C181.149 14.3333 181.149 14.3333 181.039 14.4435C180.708 14.664 180.708 14.7743 180.708 14.7743ZM192.946 24.9179C194.159 23.8153 194.159 22.0512 194.159 20.8384C194.049 19.0743 193.277 15.6564 189.308 15.6564C188.316 15.6564 186.441 15.7666 186.331 17.0897C186.221 17.3102 186.221 18.964 186.221 21.3897V25.3589L186.662 25.5794C186.882 25.6897 187.213 25.7999 187.654 25.9102C189.308 26.3512 191.733 26.0205 192.946 24.9179ZM167.587 14.3333C167.918 14.223 168.139 14.1128 168.139 14.1128C168.139 14.1128 168.58 13.8922 168.69 14.1128C168.69 14.223 168.91 14.5538 169.351 15.6564C169.462 15.8769 169.572 16.0974 169.572 16.3179C170.123 17.8615 171.005 20.0666 171.446 21.2794C171.887 22.4922 172.769 24.6974 173.431 26.4615C174.092 28.1153 174.864 30.2102 175.305 31.2025C175.636 32.1948 176.187 33.0769 176.298 33.2974C176.408 33.4076 176.408 33.5179 176.518 33.6281C176.849 34.0692 177.18 34.7307 177.951 34.841C177.951 34.841 178.503 34.9512 178.613 35.0615C178.723 35.1717 178.723 35.282 178.723 35.282V35.6128C178.723 35.6128 178.723 35.723 178.613 35.723C178.613 35.8333 178.392 35.723 178.392 35.723H173.762H170.454C170.454 35.723 170.344 35.723 170.233 35.723C170.123 35.723 170.123 35.5025 170.123 35.5025V35.282C170.123 35.282 170.123 35.0615 170.233 34.9512C170.344 34.841 170.895 34.7307 170.895 34.7307C171.887 34.6205 172.328 33.8487 172.439 33.4076V33.2974C172.659 32.8563 172.549 32.5256 171.557 30.2102C170.895 28.6666 170.675 28.2256 170.564 28.1153C170.454 28.1153 168.69 28.1153 166.816 28.1153H163.177L162.957 28.6666C162.295 30.4307 161.744 32.0846 161.744 32.5256C161.523 33.4076 161.854 34.5102 163.177 34.7307C163.177 34.7307 163.728 34.841 163.839 34.9512C163.949 35.0615 164.059 35.282 164.059 35.282V35.5025C164.059 35.5025 164.059 35.6128 163.949 35.723C163.839 35.8333 163.618 35.723 163.618 35.723H160.2H156.892C156.892 35.723 156.782 35.723 156.672 35.6128C156.562 35.5025 156.562 35.3922 156.562 35.3922V35.1717C156.562 35.1717 156.562 35.0615 156.782 34.841C157.003 34.6205 157.444 34.6205 157.444 34.6205C158.326 34.5102 158.877 33.5179 159.208 32.9666C159.208 32.9666 159.208 32.8564 159.318 32.8564C159.428 32.6358 159.98 31.423 160.531 30.0999C161.082 28.7769 161.633 27.2333 161.854 26.7923C162.516 25.1384 163.177 23.5948 164.169 21.1692C164.721 19.8461 165.492 17.8615 165.933 16.7589L166.705 14.7743L167.587 14.3333ZM167.367 19.0743C167.587 19.5153 167.808 20.1769 167.918 20.5076C168.028 20.8384 168.469 21.8307 168.8 22.7128C169.131 23.5948 169.572 24.5871 169.792 25.0281C170.013 25.4692 170.123 25.7999 170.123 25.7999C170.123 25.7999 168.8 25.7999 167.146 25.7999C165.272 25.7999 164.169 25.7999 164.169 25.6897C164.169 25.6897 164.28 25.4692 164.28 25.2487C164.39 24.9179 165.051 23.1538 166.375 19.4051C166.595 18.8538 166.816 18.3025 166.816 18.1922C166.926 18.1922 167.036 18.3025 167.367 19.0743Z" fill="#00040F"/>
</svg>
