<svg width="32" height="32" viewBox="0 0 32 32" fill="none" xmlns="http://www.w3.org/2000/svg">
<g filter="url(#filter0_bi_5202_1447)">
<mask id="path-1-inside-1_5202_1447" fill="white">
<path fill-rule="evenodd" clip-rule="evenodd" d="M16 28C22.6274 28 28 22.6274 28 16C28 9.37258 22.6274 4 16 4C9.37258 4 4 9.37258 4 16C4 22.6274 9.37258 28 16 28ZM9.33831 8.73333H8.73832L8.73831 9.33332L8.73823 11.9756L8.73822 12.2241L8.91389 12.3998L12.5128 16L8.91396 19.6002L8.73877 19.7754L8.73831 20.0232L8.73333 22.6655L8.7322 23.2667H9.33333H11.9796H12.2282L12.404 23.0909L16.0024 19.491L19.6009 23.0909L19.7767 23.2667H20.0253H22.6666H23.2666V22.6667L23.2666 20.0244L23.2666 19.7759L23.0909 19.6002L19.4921 16L23.091 12.3998L23.2667 12.2241V11.9756V9.33333V8.73333H22.6667H20.0254H19.7768L19.601 8.90915L16.0024 12.5091L12.4039 8.90915L12.2281 8.73333H11.9795H9.33831ZM9.93784 20.2733L13.3611 16.8487L15.1541 18.6423L11.731 22.0667H9.93446L9.93784 20.2733ZM14.2095 16L16.0024 17.7936L17.7954 16L16.0024 14.2064L14.2095 16ZM20.2739 22.0667L16.8508 18.6423L18.6438 16.8487L22.0666 20.2728L22.0666 22.0667H20.2739ZM22.0667 11.7272L18.6438 15.1514L16.8508 13.3577L20.274 9.93333H22.0667V11.7272ZM13.3611 15.1514L15.1541 13.3577L11.7309 9.93333H9.93829L9.93824 11.7272L13.3611 15.1514Z"/>
</mask>
<path fill-rule="evenodd" clip-rule="evenodd" d="M16 28C22.6274 28 28 22.6274 28 16C28 9.37258 22.6274 4 16 4C9.37258 4 4 9.37258 4 16C4 22.6274 9.37258 28 16 28ZM9.33831 8.73333H8.73832L8.73831 9.33332L8.73823 11.9756L8.73822 12.2241L8.91389 12.3998L12.5128 16L8.91396 19.6002L8.73877 19.7754L8.73831 20.0232L8.73333 22.6655L8.7322 23.2667H9.33333H11.9796H12.2282L12.404 23.0909L16.0024 19.491L19.6009 23.0909L19.7767 23.2667H20.0253H22.6666H23.2666V22.6667L23.2666 20.0244L23.2666 19.7759L23.0909 19.6002L19.4921 16L23.091 12.3998L23.2667 12.2241V11.9756V9.33333V8.73333H22.6667H20.0254H19.7768L19.601 8.90915L16.0024 12.5091L12.4039 8.90915L12.2281 8.73333H11.9795H9.33831ZM9.93784 20.2733L13.3611 16.8487L15.1541 18.6423L11.731 22.0667H9.93446L9.93784 20.2733ZM14.2095 16L16.0024 17.7936L17.7954 16L16.0024 14.2064L14.2095 16ZM20.2739 22.0667L16.8508 18.6423L18.6438 16.8487L22.0666 20.2728L22.0666 22.0667H20.2739ZM22.0667 11.7272L18.6438 15.1514L16.8508 13.3577L20.274 9.93333H22.0667V11.7272ZM13.3611 15.1514L15.1541 13.3577L11.7309 9.93333H9.93829L9.93824 11.7272L13.3611 15.1514Z" fill="black" fill-opacity="0.1"/>
<path fill-rule="evenodd" clip-rule="evenodd" d="M16 28C22.6274 28 28 22.6274 28 16C28 9.37258 22.6274 4 16 4C9.37258 4 4 9.37258 4 16C4 22.6274 9.37258 28 16 28ZM9.33831 8.73333H8.73832L8.73831 9.33332L8.73823 11.9756L8.73822 12.2241L8.91389 12.3998L12.5128 16L8.91396 19.6002L8.73877 19.7754L8.73831 20.0232L8.73333 22.6655L8.7322 23.2667H9.33333H11.9796H12.2282L12.404 23.0909L16.0024 19.491L19.6009 23.0909L19.7767 23.2667H20.0253H22.6666H23.2666V22.6667L23.2666 20.0244L23.2666 19.7759L23.0909 19.6002L19.4921 16L23.091 12.3998L23.2667 12.2241V11.9756V9.33333V8.73333H22.6667H20.0254H19.7768L19.601 8.90915L16.0024 12.5091L12.4039 8.90915L12.2281 8.73333H11.9795H9.33831ZM9.93784 20.2733L13.3611 16.8487L15.1541 18.6423L11.731 22.0667H9.93446L9.93784 20.2733ZM14.2095 16L16.0024 17.7936L17.7954 16L16.0024 14.2064L14.2095 16ZM20.2739 22.0667L16.8508 18.6423L18.6438 16.8487L22.0666 20.2728L22.0666 22.0667H20.2739ZM22.0667 11.7272L18.6438 15.1514L16.8508 13.3577L20.274 9.93333H22.0667V11.7272ZM13.3611 15.1514L15.1541 13.3577L11.7309 9.93333H9.93829L9.93824 11.7272L13.3611 15.1514Z" fill="url(#paint0_linear_5202_1447)" fill-opacity="0.5"/>
<path d="M8.73832 8.73333V8.23333H8.23834L8.23832 8.73332L8.73832 8.73333ZM8.73831 9.33332L9.23831 9.33333V9.33333L8.73831 9.33332ZM8.73823 11.9756L9.23823 11.9756L8.73823 11.9756ZM8.73822 12.2241L8.23822 12.2241L8.23822 12.4311L8.38461 12.5776L8.73822 12.2241ZM8.91389 12.3998L9.26751 12.0463L9.26751 12.0463L8.91389 12.3998ZM12.5128 16L12.8664 16.3535L13.2197 16L12.8664 15.6466L12.5128 16ZM8.91396 19.6002L9.26758 19.9537L8.91396 19.6002ZM8.73877 19.7754L8.38515 19.422L8.23916 19.568L8.23877 19.7745L8.73877 19.7754ZM8.73831 20.0232L9.23831 20.0242L8.73831 20.0232ZM8.73333 22.6655L9.23333 22.6665L8.73333 22.6655ZM8.7322 23.2667L8.2322 23.2657L8.23126 23.7667H8.7322V23.2667ZM12.2282 23.2667V23.7667H12.4354L12.5818 23.6202L12.2282 23.2667ZM12.404 23.0909L12.0503 22.7374L12.404 23.0909ZM16.0024 19.491L16.3561 19.1375L16.0024 18.7838L15.6488 19.1375L16.0024 19.491ZM19.6009 23.0909L19.9546 22.7374H19.9546L19.6009 23.0909ZM19.7767 23.2667L19.4231 23.6202L19.5695 23.7667H19.7767V23.2667ZM23.2666 23.2667V23.7667H23.7666V23.2667H23.2666ZM23.2666 22.6667H23.7666H23.2666ZM23.2666 20.0244H23.7666V20.0244L23.2666 20.0244ZM23.2666 19.7759L23.7666 19.7759L23.7666 19.5689L23.6202 19.4224L23.2666 19.7759ZM23.0909 19.6002L23.4446 19.2467L23.4446 19.2467L23.0909 19.6002ZM19.4921 16L19.1385 15.6466L18.7852 16L19.1385 16.3535L19.4921 16ZM23.091 12.3998L22.7374 12.0463V12.0463L23.091 12.3998ZM23.2667 12.2241L23.6203 12.5776L23.7667 12.4311V12.2241H23.2667ZM23.2667 8.73333H23.7667V8.23333H23.2667V8.73333ZM19.7768 8.73333V8.23333H19.5696L19.4231 8.37984L19.7768 8.73333ZM19.601 8.90915L19.2474 8.55566L19.2474 8.55566L19.601 8.90915ZM16.0024 12.5091L15.6488 12.8625L16.0024 13.2163L16.3561 12.8625L16.0024 12.5091ZM12.4039 8.90915L12.7575 8.55566H12.7575L12.4039 8.90915ZM12.2281 8.73333L12.5818 8.37985L12.4353 8.23333H12.2281V8.73333ZM13.3611 16.8487L13.7148 16.4952L13.3611 16.1415L13.0075 16.4952L13.3611 16.8487ZM9.93784 20.2733L9.58422 19.9198L9.43823 20.0659L9.43784 20.2724L9.93784 20.2733ZM15.1541 18.6423L15.5077 18.9958L15.8611 18.6423L15.5077 18.2888L15.1541 18.6423ZM11.731 22.0667V22.5667H11.9382L12.0846 22.4202L11.731 22.0667ZM9.93446 22.0667L9.43446 22.0657L9.43352 22.5667H9.93446V22.0667ZM16.0024 17.7936L15.6488 18.1471L16.0024 18.5009L16.3561 18.1471L16.0024 17.7936ZM14.2095 16L13.8559 15.6466L13.5025 16L13.8559 16.3535L14.2095 16ZM17.7954 16L18.149 16.3535L18.5024 16L18.149 15.6466L17.7954 16ZM16.0024 14.2064L16.3561 13.8529L16.0024 13.4992L15.6488 13.8529L16.0024 14.2064ZM16.8508 18.6423L16.4972 18.2888L16.1438 18.6423L16.4972 18.9958L16.8508 18.6423ZM20.2739 22.0667L19.9203 22.4202L20.0667 22.5667H20.2739V22.0667ZM18.6438 16.8487L18.9974 16.4952L18.6438 16.1415L18.2901 16.4952L18.6438 16.8487ZM22.0666 20.2728H22.5666V20.0658L22.4202 19.9193L22.0666 20.2728ZM22.0666 22.0667V22.5667H22.5666V22.0667H22.0666ZM18.6438 15.1514L18.2901 15.5048L18.6438 15.8586L18.9974 15.5048L18.6438 15.1514ZM22.0667 11.7272L22.4203 12.0807L22.5667 11.9342V11.7272H22.0667ZM16.8508 13.3577L16.4972 13.0043L16.1438 13.3577L16.4972 13.7112L16.8508 13.3577ZM20.274 9.93333V9.43333H20.0668L19.9203 9.57985L20.274 9.93333ZM22.0667 9.93333H22.5667V9.43333H22.0667V9.93333ZM15.1541 13.3577L15.5077 13.7112L15.8611 13.3577L15.5077 13.0043L15.1541 13.3577ZM13.3611 15.1514L13.0075 15.5048L13.3611 15.8586L13.7148 15.5048L13.3611 15.1514ZM11.7309 9.93333L12.0846 9.57985L11.9381 9.43333H11.7309V9.93333ZM9.93829 9.93333V9.43333H9.4383L9.43829 9.93332L9.93829 9.93333ZM9.93824 11.7272L9.43824 11.7272L9.43823 11.9342L9.58462 12.0807L9.93824 11.7272ZM27.5 16C27.5 22.3513 22.3513 27.5 16 27.5V28.5C22.9036 28.5 28.5 22.9036 28.5 16H27.5ZM16 4.5C22.3513 4.5 27.5 9.64873 27.5 16H28.5C28.5 9.09644 22.9036 3.5 16 3.5V4.5ZM4.5 16C4.5 9.64873 9.64873 4.5 16 4.5V3.5C9.09644 3.5 3.5 9.09644 3.5 16H4.5ZM16 27.5C9.64873 27.5 4.5 22.3513 4.5 16H3.5C3.5 22.9036 9.09644 28.5 16 28.5V27.5ZM8.73832 9.23333H9.33831V8.23333H8.73832V9.23333ZM9.23831 9.33333L9.23832 8.73335L8.23832 8.73332L8.23831 9.3333L9.23831 9.33333ZM9.23823 11.9756L9.23831 9.33333L8.23831 9.3333L8.23823 11.9756L9.23823 11.9756ZM9.23822 12.2241L9.23823 11.9756L8.23823 11.9756L8.23822 12.2241L9.23822 12.2241ZM9.26751 12.0463L9.09184 11.8706L8.38461 12.5776L8.56027 12.7533L9.26751 12.0463ZM12.8664 15.6466L9.26751 12.0463L8.56027 12.7533L12.1592 16.3535L12.8664 15.6466ZM9.26758 19.9537L12.8664 16.3535L12.1592 15.6466L8.56034 19.2467L9.26758 19.9537ZM9.09239 20.1289L9.26758 19.9537L8.56034 19.2467L8.38515 19.422L9.09239 20.1289ZM9.23831 20.0242L9.23877 19.7764L8.23877 19.7745L8.23831 20.0223L9.23831 20.0242ZM9.23333 22.6665L9.23831 20.0242L8.23831 20.0223L8.23334 22.6646L9.23333 22.6665ZM9.2322 23.2676L9.23333 22.6665L8.23334 22.6646L8.2322 23.2657L9.2322 23.2676ZM9.33333 22.7667H8.7322V23.7667H9.33333V22.7667ZM11.9796 22.7667H9.33333V23.7667H11.9796V22.7667ZM12.2282 22.7667H11.9796V23.7667H12.2282V22.7667ZM12.0503 22.7374L11.8746 22.9132L12.5818 23.6202L12.7576 23.4443L12.0503 22.7374ZM15.6488 19.1375L12.0503 22.7374L12.7576 23.4443L16.3561 19.8445L15.6488 19.1375ZM19.9546 22.7374L16.3561 19.1375L15.6488 19.8445L19.2473 23.4443L19.9546 22.7374ZM20.1303 22.9132L19.9546 22.7374L19.2473 23.4443L19.4231 23.6202L20.1303 22.9132ZM20.0253 22.7667H19.7767V23.7667H20.0253V22.7667ZM22.6666 22.7667H20.0253V23.7667H22.6666V22.7667ZM23.2666 22.7667H22.6666V23.7667H23.2666V22.7667ZM22.7666 22.6667V23.2667H23.7666V22.6667H22.7666ZM22.7666 20.0244L22.7666 22.6667H23.7666L23.7666 20.0244H22.7666ZM22.7666 19.7759L22.7666 20.0244L23.7666 20.0244L23.7666 19.7759L22.7666 19.7759ZM22.7373 19.9537L22.913 20.1294L23.6202 19.4224L23.4446 19.2467L22.7373 19.9537ZM19.1385 16.3535L22.7373 19.9537L23.4446 19.2467L19.8457 15.6466L19.1385 16.3535ZM22.7374 12.0463L19.1385 15.6466L19.8457 16.3535L23.4446 12.7533L22.7374 12.0463ZM22.913 11.8706L22.7374 12.0463L23.4446 12.7533L23.6203 12.5776L22.913 11.8706ZM22.7667 11.9756V12.2241H23.7667V11.9756H22.7667ZM22.7667 9.33333V11.9756H23.7667V9.33333H22.7667ZM22.7667 8.73333V9.33333H23.7667V8.73333H22.7667ZM22.6667 9.23333H23.2667V8.23333H22.6667V9.23333ZM20.0254 9.23333H22.6667V8.23333H20.0254V9.23333ZM19.7768 9.23333H20.0254V8.23333H19.7768V9.23333ZM19.9546 9.26264L20.1304 9.08682L19.4231 8.37984L19.2474 8.55566L19.9546 9.26264ZM16.3561 12.8625L19.9546 9.26264L19.2474 8.55566L15.6488 12.1556L16.3561 12.8625ZM12.0503 9.26264L15.6488 12.8625L16.3561 12.1556L12.7575 8.55566L12.0503 9.26264ZM11.8745 9.08682L12.0503 9.26264L12.7575 8.55566L12.5818 8.37985L11.8745 9.08682ZM11.9795 9.23333H12.2281V8.23333H11.9795V9.23333ZM9.33831 9.23333H11.9795V8.23333H9.33831V9.23333ZM13.0075 16.4952L9.58422 19.9198L10.2915 20.6268L13.7148 17.2022L13.0075 16.4952ZM15.5077 18.2888L13.7148 16.4952L13.0075 17.2022L14.8005 18.9958L15.5077 18.2888ZM12.0846 22.4202L15.5077 18.9958L14.8005 18.2888L11.3774 21.7132L12.0846 22.4202ZM9.93446 22.5667H11.731V21.5667H9.93446V22.5667ZM9.43784 20.2724L9.43446 22.0657L10.4345 22.0676L10.4378 20.2742L9.43784 20.2724ZM16.3561 17.4402L14.5631 15.6466L13.8559 16.3535L15.6488 18.1471L16.3561 17.4402ZM17.4418 15.6466L15.6488 17.4402L16.3561 18.1471L18.149 16.3535L17.4418 15.6466ZM15.6488 14.5599L17.4418 16.3535L18.149 15.6466L16.3561 13.8529L15.6488 14.5599ZM14.5631 16.3535L16.3561 14.5599L15.6488 13.8529L13.8559 15.6466L14.5631 16.3535ZM16.4972 18.9958L19.9203 22.4202L20.6275 21.7132L17.2044 18.2888L16.4972 18.9958ZM18.2901 16.4952L16.4972 18.2888L17.2044 18.9958L18.9974 17.2022L18.2901 16.4952ZM22.4202 19.9193L18.9974 16.4952L18.2901 17.2022L21.713 20.6263L22.4202 19.9193ZM22.5666 22.0667L22.5666 20.2728H21.5666L21.5666 22.0667H22.5666ZM20.2739 22.5667H22.0666V21.5667H20.2739V22.5667ZM18.9974 15.5048L22.4203 12.0807L21.713 11.3737L18.2901 14.7979L18.9974 15.5048ZM16.4972 13.7112L18.2901 15.5048L18.9974 14.7979L17.2044 13.0043L16.4972 13.7112ZM19.9203 9.57985L16.4972 13.0043L17.2044 13.7112L20.6276 10.2868L19.9203 9.57985ZM22.0667 9.43333H20.274V10.4333H22.0667V9.43333ZM22.5667 11.7272V9.93333H21.5667V11.7272H22.5667ZM14.8005 13.0043L13.0075 14.7979L13.7148 15.5048L15.5077 13.7112L14.8005 13.0043ZM11.3773 10.2868L14.8005 13.7112L15.5077 13.0043L12.0846 9.57985L11.3773 10.2868ZM9.93829 10.4333H11.7309V9.43333H9.93829V10.4333ZM10.4382 11.7272L10.4383 9.93335L9.43829 9.93332L9.43824 11.7272L10.4382 11.7272ZM13.7148 14.7979L10.2919 11.3737L9.58462 12.0807L13.0075 15.5048L13.7148 14.7979Z" fill="url(#paint1_linear_5202_1447)" fill-opacity="0.1" mask="url(#path-1-inside-1_5202_1447)"/>
</g>
<defs>
<filter id="filter0_bi_5202_1447" x="-2.62069" y="-2.62069" width="37.2414" height="37.2414" filterUnits="userSpaceOnUse" color-interpolation-filters="sRGB">
<feFlood flood-opacity="0" result="BackgroundImageFix"/>
<feGaussianBlur in="BackgroundImageFix" stdDeviation="3.31034"/>
<feComposite in2="SourceAlpha" operator="in" result="effect1_backgroundBlur_5202_1447"/>
<feBlend mode="normal" in="SourceGraphic" in2="effect1_backgroundBlur_5202_1447" result="shape"/>
<feColorMatrix in="SourceAlpha" type="matrix" values="0 0 0 0 0 0 0 0 0 0 0 0 0 0 0 0 0 0 127 0" result="hardAlpha"/>
<feOffset dy="2.2069"/>
<feGaussianBlur stdDeviation="1.65517"/>
<feComposite in2="hardAlpha" operator="arithmetic" k2="-1" k3="1"/>
<feColorMatrix type="matrix" values="0 0 0 0 1 0 0 0 0 1 0 0 0 0 1 0 0 0 0.4 0"/>
<feBlend mode="normal" in2="shape" result="effect2_innerShadow_5202_1447"/>
</filter>
<linearGradient id="paint0_linear_5202_1447" x1="27.849" y1="24.0393" x2="22.095" y2="18.4384" gradientUnits="userSpaceOnUse">
<stop stop-color="#0CC2FF" stop-opacity="0.29"/>
<stop offset="1" stop-color="#0CC2FF"/>
</linearGradient>
<linearGradient id="paint1_linear_5202_1447" x1="27.849" y1="24.0393" x2="22.095" y2="18.4384" gradientUnits="userSpaceOnUse">
<stop stop-color="#96E5FF"/>
<stop offset="1" stop-color="#0CC2FF"/>
</linearGradient>
</defs>
</svg>
