<svg width="186" height="62" viewBox="0 0 186 62" fill="none" xmlns="http://www.w3.org/2000/svg">
  <g clip-path="url(#clip0_493_3621)">
  <path d="M32.0787 12H6.44299C2.93992 12 0.100128 14.8398 0.100128 18.3429V43.9786C0.100128 47.4816 2.93992 50.3214 6.44299 50.3214H32.0787C35.5818 50.3214 38.4216 47.4816 38.4216 43.9786V18.3429C38.4216 14.8398 35.5818 12 32.0787 12Z" fill="#181618"/>
  <path d="M18.3008 18.9971C18.3008 18.9971 18.2715 19.0193 18.2715 19.0267C17.8679 19.8261 17.0682 22.7684 17.0166 23.6635V23.7365C17.0166 23.8026 16.9141 23.8174 16.8993 23.7365C16.7085 23.0324 16.4957 20.457 16.5692 19.7381C16.5692 19.6942 16.5253 19.6572 16.4812 19.672C16.0288 19.8828 15.5857 20.113 15.1532 20.3618C13.9279 21.0807 13.4142 21.3595 12.4239 22.3648C12.4093 22.3648 12.4019 22.3865 12.4019 22.4013C12.3507 23.3403 12.38 26.0553 12.7101 26.9283C12.732 26.9943 12.644 27.0382 12.6073 26.9869C12.1231 26.3854 11.2647 24.4997 11.052 23.7587C11.03 23.7735 11.0152 23.7952 11.0078 23.8026C10.8056 24.0394 10.61 24.2817 10.4211 24.5293C9.17246 26.1725 8.25764 28.0442 7.72831 30.0389C7.39082 31.3524 7.2222 32.695 7.23674 34.045C7.81632 34.8153 8.73339 35.7911 10.1788 36.7153C10.1714 36.417 10.1714 36.1187 10.1788 35.8204C10.2158 34.9475 10.3402 34.0891 10.5678 33.2526C10.7364 32.5774 10.9785 31.9172 11.2721 31.2787C11.8884 29.929 12.7759 28.7328 13.8547 27.7206C14.7863 26.8405 16.2904 26.0186 17.6477 25.6592C18.9097 25.3217 20.0908 25.2186 21.4778 25.2921C22.7762 25.3655 24.0966 25.7836 25.2782 26.3413L27.5965 19.8042C27.5965 19.8042 27.7432 19.4593 27.7725 19.4741C25.7034 18.8504 20.5166 18.1535 18.3008 18.9971Z" fill="#D03638"/>
  <path d="M27.9263 43.7143C25.5266 43.4632 23.2208 42.6459 21.1986 41.3297C21.1986 41.3297 21.1912 41.3297 21.1912 41.3225C21.0638 41.2198 20.9651 41.0858 20.905 40.9335C20.3337 39.6103 19.5059 38.4133 18.4694 37.4119C17.4421 36.4142 16.2243 35.6361 14.8962 35.1084C14.8786 35.099 14.8654 35.083 14.8595 35.064C14.522 33.7655 15.175 32.3495 15.3952 31.9243C15.4171 31.8801 15.3733 31.8212 15.3217 31.8357C13.5756 32.3495 12.8052 33.2888 12.4899 33.8609C12.4529 33.9196 12.3652 33.89 12.3797 33.8168C13.1501 30.0605 15.784 27.5733 19.4451 27.2213C22.1231 26.9641 25.1973 27.9034 25.7401 30.1631C25.7475 30.1921 25.7253 30.2291 25.696 30.2368L23.2017 31.3222C23.2017 31.3222 23.1578 31.3592 23.1578 31.3883C23.1578 31.3883 23.1869 31.447 23.2159 31.447H27.0682C27.0682 31.447 27.1194 31.4618 27.1266 31.484C27.7283 33.1125 27.4421 35.6731 27.2883 36.5022C27.2859 36.516 27.2786 36.5285 27.2679 36.5375C27.2571 36.5465 27.2435 36.5515 27.2295 36.5515C27.2155 36.5515 27.2019 36.5465 27.1912 36.5375C27.1804 36.5285 27.1732 36.516 27.1707 36.5022C26.3049 32.3054 24.1113 34.4403 21.5581 33.2666C21.5142 33.2449 21.4698 33.2814 21.4698 33.3326C21.5813 34.096 21.9518 34.7979 22.519 35.3209C23.1143 35.8712 23.8878 36.1889 24.698 36.216H24.7054C25.7327 36.3481 26.1215 36.803 26.3197 37.8961C26.7442 39.8644 27.2806 41.807 27.9263 43.7143Z" fill="#DDBA7E"/>
  <path d="M48.993 38.9049V22.8358H50.9703V38.9049H48.993ZM54.9193 38.9049V26.9269H56.783L56.874 28.3588C57.1314 27.9951 57.4194 27.6997 57.7376 27.4724C58.0705 27.2453 58.4393 27.0762 58.8286 26.9724C59.2494 26.8495 59.6858 26.7882 60.1241 26.7905C60.9574 26.7905 61.6316 26.9724 62.147 27.336C62.6621 27.6846 63.0485 28.1466 63.3061 28.7225C63.5789 28.3133 63.8894 27.9647 64.238 27.6769C64.5992 27.3904 65.0065 27.1675 65.4426 27.0178C65.8972 26.8664 66.3972 26.7905 66.9427 26.7905C67.8215 26.7905 68.526 26.98 69.0565 27.3587C69.6019 27.7375 69.9957 28.2528 70.2383 28.9043C70.4807 29.5407 70.602 30.2603 70.602 31.0635V38.9049H68.6701V32.0408C68.6701 31.647 68.6474 31.2453 68.6019 30.8362C68.5715 30.4271 68.4806 30.0484 68.3292 29.6998C68.1775 29.3361 67.9502 29.0483 67.6473 28.8361C67.3592 28.6088 66.9501 28.4952 66.42 28.4952C65.9199 28.4952 65.4955 28.6165 65.1471 28.8588C64.8136 29.0861 64.5409 29.3966 64.3289 29.7907C64.1148 30.19 63.9616 30.619 63.8743 31.0635C63.784 31.4971 63.7383 31.9388 63.738 32.3818V38.9049H61.806V32.0181C61.806 31.6394 61.7833 31.2453 61.7379 30.8362C61.7075 30.4271 61.6242 30.0484 61.4879 29.6998C61.3665 29.3361 61.1543 29.0483 60.8514 28.8361C60.5634 28.6088 60.1619 28.4952 59.6468 28.4952C58.9195 28.4952 58.3513 28.7074 57.9422 29.1316C57.5331 29.5407 57.245 30.0484 57.0785 30.6544C56.9294 31.2259 56.853 31.8139 56.8512 32.4045V38.9049H54.9193ZM73.9962 43.2233V26.9269H75.8372L75.9282 28.7225C76.3373 28.1014 76.8902 27.6238 77.5873 27.2906C78.2993 26.9573 79.0647 26.7905 79.8829 26.7905C81.0949 26.7905 82.0876 27.0633 82.8604 27.6088C83.6331 28.1392 84.2014 28.8665 84.565 29.7907C84.9437 30.7149 85.1332 31.7604 85.1332 32.9272C85.1332 34.0941 84.9437 35.1393 84.565 36.0638C84.186 36.988 83.6027 37.7156 82.8149 38.2457C82.0268 38.7761 81.0194 39.0412 79.792 39.0412C79.1857 39.0412 78.6403 38.9807 78.1556 38.8594C77.6706 38.723 77.2464 38.5335 76.8828 38.2912C76.5261 38.0401 76.205 37.7419 75.9282 37.4048V43.2233H73.9962ZM79.6329 37.3366C80.5117 37.3366 81.2086 37.1397 81.7239 36.7456C82.239 36.3365 82.6104 35.7987 82.8376 35.1319C83.08 34.4651 83.2013 33.7304 83.2013 32.9272C83.2013 32.109 83.08 31.3666 82.8376 30.6998C82.6104 30.033 82.2314 29.5026 81.7012 29.1088C81.1708 28.7151 80.4662 28.5179 79.5875 28.5179C78.7994 28.5179 78.1252 28.7225 77.5646 29.1316C77.0191 29.5254 76.6024 30.0634 76.3145 30.7453C76.0265 31.4121 75.8827 32.1468 75.8827 32.95C75.8827 33.7833 76.0191 34.5333 76.2918 35.2001C76.5646 35.8669 76.9811 36.3894 77.5419 36.7684C78.1024 37.1471 78.7994 37.3366 79.6329 37.3366ZM93.3499 39.0412C92.0771 39.0412 91.0239 38.7835 90.1906 38.2685C89.3573 37.738 88.736 37.0107 88.3269 36.0865C87.9177 35.1623 87.7132 34.1091 87.7132 32.9272C87.7132 31.73 87.9254 30.6771 88.3496 29.768C88.7891 28.8438 89.4255 28.1162 90.2588 27.586C91.0921 27.0556 92.1149 26.7905 93.3271 26.7905C94.2667 26.7905 95.0696 26.9724 95.7364 27.336C96.4182 27.6846 96.9788 28.1542 97.4183 28.7452C97.8555 29.3315 98.1793 29.9945 98.3729 30.6998C98.5686 31.3865 98.6531 32.1002 98.6229 32.8136L98.5774 33.2227C98.5774 33.3591 98.5698 33.4955 98.5547 33.6318H89.6678C89.7284 34.3287 89.9028 34.9577 90.1906 35.5183C90.4694 36.0691 90.8939 36.5329 91.4179 36.8593C91.9484 37.1775 92.6075 37.3366 93.3953 37.3366C93.7932 37.3361 94.1897 37.2904 94.5772 37.2002C94.9863 37.0942 95.35 36.9201 95.6682 36.6775C96.0015 36.4351 96.2364 36.1092 96.3728 35.7001H98.3502C98.1683 36.4729 97.8274 37.1093 97.3274 37.6093C96.8273 38.0943 96.2287 38.4579 95.5318 38.7003C94.8271 38.9288 94.0907 39.0439 93.3499 39.0412ZM89.7133 31.9499H96.6455C96.6305 31.2681 96.4788 30.6694 96.1909 30.1544C95.9031 29.639 95.5091 29.2375 95.0091 28.9497C94.5241 28.6617 93.9408 28.5179 93.259 28.5179C92.5166 28.5179 91.8876 28.677 91.3725 28.9952C90.8725 29.3134 90.4861 29.7299 90.2133 30.2453C89.9406 30.7606 89.7738 31.3288 89.7133 31.9499ZM101.651 38.9049V26.9269H103.515L103.606 28.7906C103.909 28.321 104.257 27.9423 104.652 27.6542C105.059 27.3671 105.512 27.1519 105.993 27.0178C106.493 26.8664 107.03 26.7905 107.606 26.7905H108.22V28.6088H107.515C106.576 28.6088 105.811 28.8134 105.22 29.2225C104.644 29.6163 104.227 30.1544 103.97 30.8362C103.712 31.503 103.583 32.2454 103.583 33.0636V38.9049H101.651ZM114.426 39.0412C113.88 39.0412 113.35 38.973 112.835 38.8367C112.348 38.6915 111.887 38.4689 111.471 38.1775C111.079 37.8767 110.754 37.4974 110.517 37.0638C110.289 36.6093 110.176 36.0865 110.176 35.4956C110.176 34.8137 110.297 34.2378 110.539 33.7682C110.797 33.2986 111.138 32.9272 111.562 32.6545C111.986 32.3818 112.479 32.1849 113.039 32.0636C113.615 31.9408 114.201 31.8798 114.79 31.8817H118.312C118.312 31.1999 118.214 30.6089 118.017 30.1089C117.835 29.6089 117.532 29.2225 117.108 28.9497C116.684 28.6617 116.123 28.5179 115.426 28.5179C115.002 28.5179 114.608 28.5634 114.244 28.6543C113.88 28.7452 113.57 28.8892 113.312 29.0861C113.054 29.283 112.865 29.5483 112.744 29.8816H110.676C110.782 29.3361 110.986 28.8739 111.289 28.4952C111.602 28.1057 111.988 27.7814 112.426 27.5406C112.881 27.2827 113.371 27.0914 113.88 26.9724C114.387 26.8522 114.905 26.7911 115.426 26.7905C117.153 26.7905 118.381 27.298 119.108 28.3133C119.835 29.3285 120.199 30.6998 120.199 32.4272V38.9049H118.585L118.472 37.382C118.138 37.8366 117.737 38.1852 117.267 38.4276C116.811 38.6653 116.32 38.8265 115.812 38.9049C115.327 38.9958 114.865 39.0412 114.426 39.0412ZM114.608 37.3366C115.365 37.3366 116.017 37.2153 116.562 36.9729C117.123 36.7152 117.555 36.3439 117.858 35.8592C118.161 35.3743 118.312 34.7836 118.312 34.0864V33.4955H116.199C115.699 33.4955 115.206 33.5031 114.721 33.5182C114.236 33.5332 113.797 33.594 113.403 33.7C113.009 33.806 112.691 33.9881 112.448 34.2455C112.221 34.5032 112.108 34.8745 112.108 35.3592C112.108 35.8138 112.221 36.1851 112.448 36.4729C112.691 36.761 113.002 36.9803 113.38 37.132C113.775 37.2685 114.19 37.3377 114.608 37.3366ZM128.147 39.0412C126.889 39.0412 126.003 38.7003 125.488 38.0184C124.988 37.3366 124.738 36.3667 124.738 35.1092V28.6315H122.783V26.9269H124.738V23.3358H126.669V26.9269H130.351V28.6315H126.669V34.8592C126.669 35.3137 126.707 35.7305 126.783 36.1092C126.859 36.4729 127.018 36.7684 127.26 36.9957C127.503 37.2079 127.866 37.3215 128.351 37.3366C128.7 37.3366 129.003 37.2758 129.26 37.1548C129.533 37.0334 129.761 36.8897 129.942 36.7229L130.783 38.1321C130.533 38.3394 130.258 38.515 129.965 38.6548C129.692 38.7915 129.401 38.8909 129.101 38.9503C128.814 39.0108 128.495 39.0412 128.147 39.0412ZM138.34 39.0412C137.083 39.0412 136.029 38.7835 135.181 38.2685C134.332 37.738 133.696 37.0107 133.272 36.0865C132.863 35.1623 132.658 34.1091 132.658 32.9272C132.658 31.73 132.87 30.6771 133.295 29.768C133.719 28.8438 134.355 28.1162 135.204 27.586C136.052 27.0556 137.113 26.7905 138.386 26.7905C139.643 26.7905 140.689 27.0556 141.522 27.586C142.371 28.1164 143 28.8438 143.409 29.768C143.833 30.6771 144.045 31.7303 144.045 32.9272C144.045 34.1091 143.833 35.1623 143.409 36.0865C142.984 37.0107 142.348 37.7383 141.5 38.2685C140.666 38.7835 139.613 39.0412 138.34 39.0412ZM138.34 37.3366C139.219 37.3366 139.931 37.1397 140.477 36.7456C141.037 36.3519 141.446 35.8214 141.704 35.1546C141.977 34.4878 142.113 33.7455 142.113 32.9272C142.113 32.109 141.977 31.3666 141.704 30.6998C141.446 30.033 141.037 29.5026 140.477 29.1088C139.931 28.7151 139.219 28.5179 138.34 28.5179C137.477 28.5179 136.764 28.7148 136.204 29.1088C135.658 29.5026 135.249 30.033 134.976 30.6998C134.719 31.3666 134.59 32.109 134.59 32.9272C134.59 33.7455 134.719 34.4878 134.976 35.1546C135.249 35.8214 135.658 36.3519 136.204 36.7456C136.764 37.1394 137.477 37.3366 138.34 37.3366ZM147.084 38.9049V26.9269H148.948L149.039 28.7906C149.342 28.321 149.691 27.9423 150.085 27.6542C150.492 27.3672 150.946 27.1519 151.426 27.0178C151.926 26.8664 152.464 26.7905 153.039 26.7905H153.653V28.6088H152.948C152.009 28.6088 151.244 28.8134 150.653 29.2225C150.077 29.6163 149.66 30.1544 149.403 30.8362C149.145 31.503 149.016 32.2454 149.016 33.0636V38.9049H147.084ZM156.25 39.0867C155.856 39.0867 155.53 38.958 155.272 38.7003C155.015 38.4426 154.886 38.117 154.886 37.723C154.886 37.3292 155.015 37.0033 155.272 36.7456C155.53 36.488 155.856 36.3593 156.25 36.3593C156.644 36.3593 156.969 36.488 157.227 36.7456C157.485 37.0033 157.613 37.3289 157.613 37.723C157.613 38.1168 157.485 38.4426 157.227 38.7003C156.969 38.958 156.644 39.0867 156.25 39.0867ZM166.225 39.0412C164.968 39.0412 163.922 38.7835 163.089 38.2685C162.271 37.738 161.657 37.0107 161.248 36.0865C160.854 35.1623 160.657 34.1168 160.657 32.95C160.657 31.8135 160.861 30.7831 161.271 29.8589C161.695 28.9193 162.331 28.177 163.18 27.6315C164.043 27.0709 165.134 26.7905 166.453 26.7905C167.271 26.7905 167.998 26.9269 168.635 27.1996C169.286 27.4724 169.824 27.8738 170.248 28.4043C170.672 28.9196 170.968 29.5711 171.135 30.3589H169.157C168.93 29.6921 168.566 29.2225 168.066 28.9497C167.581 28.6617 167.006 28.5179 166.339 28.5179C165.43 28.5179 164.703 28.7301 164.157 29.1543C163.612 29.5785 163.21 30.1316 162.952 30.8135C162.71 31.4803 162.589 32.1923 162.589 32.95C162.589 33.7378 162.717 34.4651 162.975 35.1319C163.233 35.7987 163.634 36.3365 164.18 36.7456C164.725 37.1394 165.43 37.3366 166.294 37.3366C166.93 37.3366 167.529 37.2002 168.089 36.9275C168.665 36.6547 169.044 36.1698 169.226 35.4728H171.226C171.074 36.2911 170.748 36.9653 170.248 37.4957C169.763 38.0261 169.165 38.4199 168.453 38.6776C167.756 38.9199 167.013 39.0412 166.225 39.0412ZM179.356 39.0412C178.099 39.0412 177.046 38.7835 176.197 38.2685C175.348 37.738 174.712 37.0107 174.288 36.0865C173.879 35.1623 173.674 34.1091 173.674 32.9272C173.674 31.73 173.886 30.6771 174.311 29.768C174.735 28.8438 175.371 28.1162 176.22 27.586C177.068 27.0556 178.129 26.7905 179.402 26.7905C180.66 26.7905 181.705 27.0556 182.538 27.586C183.387 28.1164 184.016 28.8438 184.425 29.768C184.849 30.6771 185.061 31.7303 185.061 32.9272C185.061 34.1091 184.849 35.1623 184.425 36.0865C184.001 37.0107 183.364 37.7383 182.516 38.2685C181.682 38.7835 180.629 39.0412 179.356 39.0412ZM179.356 37.3366C180.235 37.3366 180.947 37.1397 181.493 36.7456C182.053 36.3519 182.463 35.8214 182.72 35.1546C182.993 34.4878 183.129 33.7455 183.129 32.9272C183.129 32.109 182.993 31.3666 182.72 30.6998C182.463 30.033 182.053 29.5026 181.493 29.1088C180.947 28.7151 180.235 28.5179 179.356 28.5179C178.493 28.5179 177.78 28.7148 177.22 29.1088C176.674 29.5026 176.265 30.033 175.993 30.6998C175.735 31.3666 175.606 32.109 175.606 32.9272C175.606 33.7455 175.735 34.4878 175.993 35.1546C176.265 35.8214 176.674 36.3519 177.22 36.7456C177.78 37.1394 178.493 37.3366 179.356 37.3366Z" fill="white"/>
  </g>
  <defs>
    <clipPath id="clip0_493_3621">
      <rect width="185" height="62" fill="white" transform="translate(0.500031)"/>
    </clipPath>
  </defs>
</svg>
