<svg width="186" height="62" viewBox="0 0 186 62" fill="none" xmlns="http://www.w3.org/2000/svg">
  <g clip-path="url(#clip0_563_15526)">
    <path d="M32.0788 12H6.44308C2.94001 12 0.10022 14.8398 0.10022 18.3429V43.9786C0.10022 47.4816 2.94001 50.3214 6.44308 50.3214H32.0788C35.5819 50.3214 38.4216 47.4816 38.4216 43.9786V18.3429C38.4216 14.8398 35.5819 12 32.0788 12Z" fill="#181618"/>
    <path d="M18.3009 18.9971C18.3009 18.9971 18.2715 19.0193 18.2715 19.0267C17.868 19.8261 17.0683 22.7684 17.0167 23.6635V23.7365C17.0167 23.8026 16.9142 23.8174 16.8994 23.7365C16.7086 23.0324 16.4958 20.457 16.5693 19.7381C16.5693 19.6942 16.5254 19.6572 16.4813 19.672C16.0289 19.8828 15.5858 20.113 15.1532 20.3618C13.928 21.0807 13.4142 21.3595 12.424 22.3648C12.4094 22.3648 12.402 22.3865 12.402 22.4013C12.3508 23.3403 12.3801 26.0553 12.7102 26.9283C12.7321 26.9943 12.6441 27.0382 12.6074 26.9869C12.1232 26.3854 11.2648 24.4997 11.0521 23.7587C11.0301 23.7735 11.0153 23.7952 11.0079 23.8026C10.8057 24.0394 10.6101 24.2817 10.4212 24.5293C9.17255 26.1725 8.25773 28.0442 7.7284 30.0389C7.39091 31.3524 7.22229 32.695 7.23683 34.045C7.81641 34.8153 8.73348 35.7911 10.1789 36.7153C10.1715 36.417 10.1715 36.1187 10.1789 35.8204C10.2159 34.9475 10.3403 34.0891 10.5679 33.2526C10.7365 32.5774 10.9786 31.9172 11.2722 31.2787C11.8885 29.929 12.776 28.7328 13.8548 27.7206C14.7864 26.8405 16.2905 26.0186 17.6478 25.6592C18.9098 25.3217 20.0909 25.2186 21.4779 25.2921C22.7763 25.3655 24.0967 25.7836 25.2783 26.3413L27.5966 19.8042C27.5966 19.8042 27.7433 19.4593 27.7726 19.4741C25.7035 18.8504 20.5167 18.1535 18.3009 18.9971Z" fill="#D03638"/>
    <path d="M27.9264 43.7142C25.5267 43.4631 23.2209 42.6458 21.1987 41.3296C21.1987 41.3296 21.1913 41.3296 21.1913 41.3225C21.0639 41.2198 20.9652 41.0857 20.9051 40.9334C20.3338 39.6102 19.506 38.4133 18.4695 37.4118C17.4422 36.4141 16.2243 35.6361 14.8963 35.1083C14.8787 35.0989 14.8655 35.083 14.8596 35.0639C14.5221 33.7655 15.1751 32.3494 15.3953 31.9242C15.4172 31.8801 15.3733 31.8211 15.3218 31.8357C13.5757 32.3494 12.8053 33.2887 12.49 33.8609C12.453 33.9196 12.3652 33.89 12.3798 33.8167C13.1502 30.0605 15.784 27.5733 19.4452 27.2212C22.1232 26.9641 25.1974 27.9034 25.7402 30.163C25.7476 30.1921 25.7254 30.2291 25.6961 30.2367L23.2018 31.3222C23.2018 31.3222 23.1579 31.3592 23.1579 31.3882C23.1579 31.3882 23.187 31.4469 23.216 31.4469H27.0683C27.0683 31.4469 27.1195 31.4617 27.1267 31.4839C27.7284 33.1124 27.4422 35.6731 27.2884 36.5022C27.2859 36.516 27.2787 36.5285 27.268 36.5375C27.2572 36.5465 27.2436 36.5514 27.2296 36.5514C27.2156 36.5514 27.202 36.5465 27.1912 36.5375C27.1805 36.5285 27.1733 36.516 27.1708 36.5022C26.305 32.3053 24.1114 34.4402 21.5582 33.2665C21.5143 33.2448 21.4699 33.2813 21.4699 33.3326C21.5814 34.096 21.9518 34.7979 22.5191 35.3208C23.1144 35.8711 23.8879 36.1888 24.6981 36.2159H24.7055C25.7328 36.3481 26.1216 36.8029 26.3198 37.896C26.7443 39.8644 27.2807 41.807 27.9264 43.7142Z" fill="#DDBA7E"/>
    <path d="M48.993 38.9048V22.8357H50.9704V38.9048H48.993ZM54.9194 38.9048V26.9268H56.7831L56.874 28.3587C57.1315 27.9951 57.4195 27.6996 57.7377 27.4723C58.0705 27.2452 58.4394 27.0762 58.8287 26.9723C59.2495 26.8494 59.6859 26.7882 60.1242 26.7905C60.9575 26.7905 61.6317 26.9723 62.1471 27.336C62.6622 27.6845 63.0486 28.1465 63.3062 28.7224C63.579 28.3133 63.8895 27.9647 64.2381 27.6769C64.5993 27.3903 65.0066 27.1674 65.4427 27.0178C65.8973 26.8663 66.3973 26.7905 66.9428 26.7905C67.8215 26.7905 68.5261 26.98 69.0566 27.3587C69.602 27.7374 69.9958 28.2528 70.2384 28.9042C70.4808 29.5406 70.6021 30.2603 70.6021 31.0634V38.9048H68.6702V32.0408C68.6702 31.647 68.6474 31.2453 68.602 30.8362C68.5716 30.427 68.4807 30.0483 68.3292 29.6997C68.1775 29.3361 67.9503 29.0483 67.6474 28.836C67.3593 28.6087 66.9502 28.4951 66.42 28.4951C65.92 28.4951 65.4956 28.6164 65.1472 28.8588C64.8137 29.0861 64.541 29.3966 64.329 29.7906C64.1149 30.1899 63.9617 30.6189 63.8744 31.0634C63.7841 31.4971 63.7384 31.9388 63.7381 32.3817V38.9048H61.8061V32.018C61.8061 31.6393 61.7834 31.2453 61.738 30.8362C61.7076 30.427 61.6243 30.0483 61.4879 29.6997C61.3666 29.3361 61.1544 29.0483 60.8515 28.836C60.5635 28.6087 60.162 28.4951 59.6469 28.4951C58.9196 28.4951 58.3514 28.7073 57.9423 29.1315C57.5332 29.5406 57.2451 30.0483 57.0786 30.6543C56.9295 31.2258 56.8531 31.8138 56.8513 32.4044V38.9048H54.9194ZM73.9963 43.2232V26.9268H75.8373L75.9282 28.7224C76.3374 28.1013 76.8903 27.6238 77.5874 27.2905C78.2994 26.9572 79.0648 26.7905 79.883 26.7905C81.095 26.7905 82.0877 27.0632 82.8605 27.6087C83.6332 28.1391 84.2014 28.8664 84.5651 29.7906C84.9438 30.7148 85.1333 31.7604 85.1333 32.9272C85.1333 34.094 84.9438 35.1393 84.5651 36.0637C84.1861 36.9879 83.6028 37.7155 82.815 38.2457C82.0269 38.7761 81.0194 39.0412 79.7921 39.0412C79.1858 39.0412 78.6403 38.9806 78.1556 38.8593C77.6707 38.723 77.2465 38.5335 76.8828 38.2911C76.5262 38.04 76.2051 37.7418 75.9282 37.4047V43.2232H73.9963ZM79.633 37.3365C80.5118 37.3365 81.2087 37.1396 81.724 36.7456C82.2391 36.3365 82.6105 35.7986 82.8377 35.1319C83.0801 34.4651 83.2014 33.7303 83.2014 32.9272C83.2014 32.1089 83.0801 31.3666 82.8377 30.6998C82.6105 30.033 82.2315 29.5026 81.7013 29.1088C81.1709 28.715 80.4663 28.5178 79.5875 28.5178C78.7994 28.5178 78.1253 28.7224 77.5647 29.1315C77.0192 29.5253 76.6024 30.0634 76.3146 30.7452C76.0266 31.412 75.8828 32.1467 75.8828 32.9499C75.8828 33.7832 76.0192 34.5332 76.2919 35.2C76.5646 35.8668 76.9812 36.3893 77.542 36.7683C78.1025 37.147 78.7994 37.3365 79.633 37.3365ZM93.35 39.0412C92.0772 39.0412 91.024 38.7835 90.1907 38.2684C89.3574 37.738 88.7361 37.0107 88.3269 36.0865C87.9178 35.1622 87.7133 34.1091 87.7133 32.9272C87.7133 31.73 87.9255 30.6771 88.3497 29.7679C88.7892 28.8437 89.4256 28.1161 90.2589 27.586C91.0922 27.0555 92.115 26.7905 93.3272 26.7905C94.2668 26.7905 95.0697 26.9723 95.7365 27.336C96.4183 27.6845 96.9789 28.1542 97.4184 28.7451C97.8556 29.3315 98.1794 29.9944 98.373 30.6998C98.5687 31.3865 98.6531 32.1001 98.623 32.8135L98.5775 33.2227C98.5775 33.359 98.5699 33.4954 98.5548 33.6318H89.6679C89.7285 34.3287 89.9029 34.9577 90.1907 35.5182C90.4695 36.069 90.894 36.5329 91.418 36.8592C91.9485 37.1774 92.6076 37.3365 93.3954 37.3365C93.7933 37.3361 94.1898 37.2903 94.5773 37.2001C94.9864 37.0942 95.3501 36.92 95.6683 36.6774C96.0015 36.435 96.2365 36.1092 96.3729 35.7001H98.3502C98.1684 36.4728 97.8275 37.1092 97.3275 37.6093C96.8274 38.0942 96.2288 38.4579 95.5319 38.7002C94.8272 38.9287 94.0907 39.0438 93.35 39.0412ZM89.7134 31.9499H96.6456C96.6305 31.268 96.4788 30.6694 96.191 30.1543C95.9032 29.6389 95.5092 29.2375 95.0091 28.9497C94.5242 28.6616 93.9409 28.5178 93.2591 28.5178C92.5167 28.5178 91.8877 28.6769 91.3726 28.9951C90.8726 29.3133 90.4862 29.7299 90.2134 30.2452C89.9407 30.7606 89.7739 31.3288 89.7134 31.9499ZM101.651 38.9048V26.9268H103.515L103.606 28.7906C103.909 28.3209 104.258 27.9422 104.652 27.6542C105.059 27.367 105.513 27.1518 105.993 27.0178C106.493 26.8663 107.03 26.7905 107.606 26.7905H108.22V28.6088H107.515C106.576 28.6088 105.811 28.8133 105.22 29.2224C104.644 29.6162 104.227 30.1543 103.97 30.8362C103.712 31.5029 103.583 32.2453 103.583 33.0635V38.9048H101.651ZM114.426 39.0412C113.88 39.0412 113.35 38.973 112.835 38.8366C112.348 38.6914 111.888 38.4689 111.471 38.1775C111.079 37.8766 110.754 37.4973 110.517 37.0638C110.289 36.6092 110.176 36.0865 110.176 35.4955C110.176 34.8137 110.297 34.2378 110.539 33.7681C110.797 33.2985 111.138 32.9272 111.562 32.6544C111.986 32.3817 112.479 32.1848 113.04 32.0635C113.615 31.9407 114.201 31.8798 114.79 31.8817H118.313C118.313 31.1998 118.214 30.6089 118.017 30.1088C117.835 29.6088 117.532 29.2224 117.108 28.9497C116.684 28.6616 116.123 28.5178 115.426 28.5178C115.002 28.5178 114.608 28.5633 114.244 28.6542C113.88 28.7451 113.57 28.8892 113.312 29.0861C113.055 29.2829 112.865 29.5483 112.744 29.8816H110.676C110.782 29.3361 110.986 28.8738 111.289 28.4951C111.602 28.1057 111.988 27.7814 112.426 27.5405C112.881 27.2827 113.371 27.0913 113.88 26.9723C114.387 26.8521 114.906 26.7911 115.426 26.7905C117.153 26.7905 118.381 27.2979 119.108 28.3133C119.835 29.3284 120.199 30.6998 120.199 32.4272V38.9048H118.585L118.472 37.382C118.138 37.8366 117.737 38.1851 117.267 38.4275C116.812 38.6652 116.32 38.8264 115.812 38.9048C115.327 38.9957 114.865 39.0412 114.426 39.0412ZM114.608 37.3365C115.365 37.3365 116.017 37.2152 116.562 36.9729C117.123 36.7152 117.555 36.3439 117.858 35.8592C118.161 35.3742 118.313 34.7835 118.313 34.0863V33.4954H116.199C115.699 33.4954 115.206 33.5031 114.721 33.5181C114.236 33.5332 113.797 33.594 113.403 33.7C113.009 33.8059 112.691 33.988 112.449 34.2454C112.221 34.5031 112.108 34.8744 112.108 35.3591C112.108 35.8137 112.221 36.185 112.449 36.4728C112.691 36.7609 113.002 36.9803 113.38 37.132C113.775 37.2685 114.19 37.3376 114.608 37.3365ZM128.147 39.0412C126.889 39.0412 126.003 38.7002 125.488 38.0184C124.988 37.3365 124.738 36.3666 124.738 35.1091V28.6315H122.783V26.9268H124.738V23.3357H126.67V26.9268H130.352V28.6315H126.67V34.8591C126.67 35.3137 126.707 35.7305 126.783 36.1092C126.859 36.4728 127.018 36.7683 127.26 36.9956C127.503 37.2078 127.866 37.3215 128.351 37.3365C128.7 37.3365 129.003 37.2757 129.261 37.1547C129.533 37.0334 129.761 36.8896 129.942 36.7228L130.783 38.132C130.533 38.3393 130.258 38.5149 129.965 38.6548C129.692 38.7914 129.401 38.8908 129.101 38.9503C128.814 39.0108 128.495 39.0412 128.147 39.0412ZM138.34 39.0412C137.083 39.0412 136.029 38.7835 135.181 38.2684C134.332 37.738 133.696 37.0107 133.272 36.0865C132.863 35.1622 132.658 34.1091 132.658 32.9272C132.658 31.73 132.87 30.6771 133.295 29.7679C133.719 28.8437 134.355 28.1161 135.204 27.586C136.052 27.0555 137.113 26.7905 138.386 26.7905C139.643 26.7905 140.689 27.0555 141.522 27.586C142.371 28.1164 143 28.8437 143.409 29.7679C143.833 30.6771 144.045 31.7302 144.045 32.9272C144.045 34.1091 143.833 35.1622 143.409 36.0865C142.984 37.0107 142.348 37.7382 141.5 38.2684C140.666 38.7835 139.613 39.0412 138.34 39.0412ZM138.34 37.3365C139.219 37.3365 139.931 37.1396 140.477 36.7456C141.037 36.3518 141.447 35.8214 141.704 35.1546C141.977 34.4878 142.113 33.7454 142.113 32.9272C142.113 32.1089 141.977 31.3666 141.704 30.6998C141.447 30.033 141.037 29.5026 140.477 29.1088C139.931 28.715 139.219 28.5178 138.34 28.5178C137.477 28.5178 136.764 28.7147 136.204 29.1088C135.658 29.5026 135.249 30.033 134.977 30.6998C134.719 31.3666 134.59 32.1089 134.59 32.9272C134.59 33.7454 134.719 34.4878 134.977 35.1546C135.249 35.8214 135.658 36.3518 136.204 36.7456C136.764 37.1394 137.477 37.3365 138.34 37.3365ZM147.085 38.9048V26.9268H148.948L149.039 28.7906C149.342 28.3209 149.691 27.9422 150.085 27.6542C150.492 27.3671 150.946 27.1519 151.426 27.0178C151.926 26.8663 152.464 26.7905 153.039 26.7905H153.653V28.6088H152.949C152.009 28.6088 151.244 28.8133 150.653 29.2224C150.077 29.6162 149.661 30.1543 149.403 30.8362C149.145 31.5029 149.016 32.2453 149.016 33.0635V38.9048H147.085ZM156.25 39.0866C155.856 39.0866 155.53 38.9579 155.272 38.7002C155.015 38.4426 154.886 38.117 154.886 37.7229C154.886 37.3291 155.015 37.0033 155.272 36.7456C155.53 36.4879 155.856 36.3592 156.25 36.3592C156.644 36.3592 156.969 36.4879 157.227 36.7456C157.485 37.0033 157.613 37.3289 157.613 37.7229C157.613 38.1167 157.485 38.4426 157.227 38.7002C156.969 38.9579 156.644 39.0866 156.25 39.0866ZM166.225 39.0412C164.968 39.0412 163.922 38.7835 163.089 38.2684C162.271 37.738 161.657 37.0107 161.248 36.0865C160.854 35.1622 160.657 34.1167 160.657 32.9499C160.657 31.8135 160.861 30.783 161.271 29.8588C161.695 28.9193 162.331 28.1769 163.18 27.6314C164.043 27.0709 165.134 26.7905 166.453 26.7905C167.271 26.7905 167.998 26.9268 168.635 27.1996C169.286 27.4723 169.824 27.8738 170.248 28.4042C170.673 28.9196 170.968 29.571 171.135 30.3589H169.157C168.93 29.6921 168.566 29.2224 168.066 28.9497C167.581 28.6616 167.006 28.5178 166.339 28.5178C165.43 28.5178 164.703 28.7301 164.157 29.1542C163.612 29.5784 163.21 30.1316 162.953 30.8134C162.71 31.4802 162.589 32.1922 162.589 32.9499C162.589 33.7377 162.718 34.4651 162.975 35.1319C163.233 35.7986 163.634 36.3365 164.18 36.7456C164.725 37.1394 165.43 37.3365 166.294 37.3365C166.93 37.3365 167.529 37.2002 168.089 36.9274C168.665 36.6547 169.044 36.1697 169.226 35.4728H171.226C171.074 36.291 170.748 36.9652 170.248 37.4956C169.763 38.026 169.165 38.4198 168.453 38.6775C167.756 38.9199 167.013 39.0412 166.225 39.0412ZM179.356 39.0412C178.099 39.0412 177.046 38.7835 176.197 38.2684C175.349 37.738 174.712 37.0107 174.288 36.0865C173.879 35.1622 173.674 34.1091 173.674 32.9272C173.674 31.73 173.887 30.6771 174.311 29.7679C174.735 28.8437 175.371 28.1161 176.22 27.586C177.069 27.0555 178.129 26.7905 179.402 26.7905C180.66 26.7905 181.705 27.0555 182.538 27.586C183.387 28.1164 184.016 28.8437 184.425 29.7679C184.849 30.6771 185.061 31.7302 185.061 32.9272C185.061 34.1091 184.849 35.1622 184.425 36.0865C184.001 37.0107 183.364 37.7382 182.516 38.2684C181.682 38.7835 180.629 39.0412 179.356 39.0412ZM179.356 37.3365C180.235 37.3365 180.947 37.1396 181.493 36.7456C182.053 36.3518 182.463 35.8214 182.72 35.1546C182.993 34.4878 183.129 33.7454 183.129 32.9272C183.129 32.1089 182.993 31.3666 182.72 30.6998C182.463 30.033 182.053 29.5026 181.493 29.1088C180.947 28.715 180.235 28.5178 179.356 28.5178C178.493 28.5178 177.781 28.7147 177.22 29.1088C176.674 29.5026 176.265 30.033 175.993 30.6998C175.735 31.3666 175.606 32.1089 175.606 32.9272C175.606 33.7454 175.735 34.4878 175.993 35.1546C176.265 35.8214 176.674 36.3518 177.22 36.7456C177.781 37.1394 178.493 37.3365 179.356 37.3365Z" fill="#00040F"/>
  </g>
  <defs>
    <clipPath id="clip0_563_15526">
      <rect width="185" height="62" fill="white" transform="translate(0.500122)"/>
    </clipPath>
  </defs>
</svg>
