<svg width="20" height="20" viewBox="0 0 20 20" fill="none" xmlns="http://www.w3.org/2000/svg">
<path d="M10.9493 12.2271C8.23542 15.163 12.1617 17.398 12.628 17.655C12.6559 17.6706 12.6839 17.6706 12.7212 17.655M10.9493 12.2271L11.2547 12.5105C11.2548 12.5105 11.2549 12.5104 11.2549 12.5103M10.9493 12.2271C12.7839 10.2504 13.5106 9.21446 13.7968 8.72131C13.9087 8.81326 14.0161 8.90451 14.119 8.99507M10.9493 12.2271L11.2552 12.5099C11.2551 12.51 11.255 12.5102 11.2549 12.5103M11.2549 12.5103C10.6307 13.1857 10.4228 13.7805 10.4177 14.2818C10.4126 14.7905 10.6159 15.2669 10.9324 15.6997C11.48 16.4484 12.3067 16.9851 12.6798 17.2049M11.2549 12.5103C12.7083 10.9444 13.4812 9.95392 13.8937 9.34606C13.9846 9.212 14.0587 9.09568 14.119 8.99507M12.6798 17.2049C12.6145 17.2407 12.5637 17.2674 12.5302 17.2847L12.6761 17.5676L12.6764 17.568L12.7212 17.655M12.6798 17.2049C13.2253 16.9057 14.7792 15.9715 15.6498 14.5991C16.1276 13.8458 16.3846 12.9844 16.1799 12.0255C15.992 11.1452 15.4029 10.1248 14.119 8.99507M12.6798 17.2049C12.7444 17.243 12.7954 17.2716 12.8291 17.2901M12.7212 17.655L12.6812 17.5593L12.681 17.5587L12.5607 17.2705C12.5745 17.2647 12.6142 17.25 12.6711 17.25C12.7329 17.25 12.7875 17.2673 12.8291 17.2901M12.7212 17.655C13.3438 17.3339 20.1593 13.6729 14.3196 8.61709C14.3105 8.63769 14.3004 8.65986 14.289 8.6837C14.2501 8.76488 14.1956 8.8673 14.119 8.99507M12.8291 17.2901L12.8306 17.2909L12.8291 17.2901Z" stroke="white" stroke-width="0.833333"/>
<path d="M5.1056 9.04996C7.77574 5.96527 8.89564 3.35221 9.27764 2.09191C9.28188 2.08997 9.28863 2.0875 9.29836 2.08567C9.334 2.07893 9.37473 2.08662 9.40645 2.10687C10.1622 3.01037 10.9173 4.58374 10.9173 6.2934C10.9173 6.8096 10.683 7.35053 10.2704 7.95189C9.91822 8.46536 9.46722 8.98043 8.98667 9.52925C8.90398 9.62369 8.82042 9.71912 8.73633 9.81572C8.17443 10.4612 7.59506 11.1528 7.17601 11.8903C6.75442 12.6324 6.47869 13.4489 6.55662 14.3421L6.55651 14.3421L6.55753 14.3513C6.6969 15.621 7.29536 16.5778 7.6668 17.151C6.24184 16.7458 4.84403 15.6116 4.16911 14.1511C3.48769 12.6765 3.53221 10.8495 5.10425 9.05151L5.10425 9.05152L5.1056 9.04996ZM8.18971 17.2496C8.18969 17.2496 8.18889 17.2497 8.18725 17.2498L8.18971 17.2496Z" stroke="white" stroke-width="0.833333"/>
</svg>
