<svg width="20" height="20" viewBox="0 0 20 20" fill="none" xmlns="http://www.w3.org/2000/svg">
<path d="M10.9483 12.2268C8.23445 15.1627 12.1607 17.3977 12.627 17.6547C12.655 17.6702 12.6829 17.6702 12.7202 17.6547M10.9483 12.2268L11.2537 12.5102C11.2538 12.5101 11.2539 12.51 11.254 12.5099M10.9483 12.2268C12.7829 10.2501 13.5096 9.21413 13.7958 8.72098C13.9078 8.81292 14.0151 8.90418 14.118 8.99473M10.9483 12.2268L11.2543 12.5096C11.2542 12.5097 11.2541 12.5098 11.254 12.5099M11.254 12.5099C10.6297 13.1854 10.4218 13.7802 10.4168 14.2815C10.4117 14.7901 10.6149 15.2666 10.9314 15.6993C11.4791 16.4481 12.3057 16.9847 12.6788 17.2046M11.254 12.5099C12.7073 10.944 13.4802 9.95358 13.8927 9.34573C13.9837 9.21167 14.0577 9.09534 14.118 8.99473M12.6788 17.2046C12.6136 17.2404 12.5627 17.2671 12.5292 17.2844L12.6752 17.5673L12.6754 17.5677L12.7202 17.6547M12.6788 17.2046C13.2243 16.9054 14.7783 15.9711 15.6488 14.5988C16.1266 13.8455 16.3836 12.9841 16.1789 12.0251C15.991 11.1449 15.4019 10.1245 14.118 8.99473M12.6788 17.2046C12.7435 17.2427 12.7945 17.2712 12.8281 17.2898M12.7202 17.6547L12.6803 17.5589L12.68 17.5584L12.5597 17.2702C12.5736 17.2644 12.6132 17.2497 12.6701 17.2497C12.732 17.2497 12.7866 17.267 12.8281 17.2898M12.7202 17.6547C13.3428 17.3336 20.1583 13.6725 14.3186 8.61675C14.3096 8.63736 14.2994 8.65953 14.288 8.68337C14.2491 8.76454 14.1946 8.86696 14.118 8.99473M12.8281 17.2898L12.8296 17.2906L12.8281 17.2898Z" stroke="#00040F" stroke-width="0.833333"/>
<path d="M5.10511 9.04978C7.77525 5.96509 8.89515 3.35204 9.27715 2.09174C9.28139 2.08979 9.28814 2.08733 9.29787 2.08549C9.33351 2.07876 9.37425 2.08644 9.40596 2.10669C10.1617 3.0102 10.9168 4.58356 10.9168 6.29323C10.9168 6.80942 10.6825 7.35035 10.27 7.95172C9.91773 8.46518 9.46673 8.98026 8.98618 9.52908C8.90349 9.62351 8.81993 9.71895 8.73584 9.81555C8.17394 10.4611 7.59457 11.1526 7.17552 11.8902C6.75393 12.6322 6.4782 13.4487 6.55613 14.3419L6.55603 14.3419L6.55704 14.3511C6.69642 15.6209 7.29487 16.5776 7.66631 17.1509C6.24135 16.7457 4.84355 15.6115 4.16862 14.1509C3.48721 12.6763 3.53173 10.8494 5.10376 9.05134L5.10376 9.05134L5.10511 9.04978ZM8.18923 17.2494C8.18921 17.2495 8.1884 17.2496 8.18676 17.2496L8.18923 17.2494Z" stroke="#00040F" stroke-width="0.833333"/>
</svg>
