<svg width="20" height="21" viewBox="0 0 20 21" fill="none" xmlns="http://www.w3.org/2000/svg">
<g clip-path="url(#clip0_4800_6016)">
<path d="M10 2.0752C5.58 2.0752 2 5.65519 2 10.0752C2 13.6152 4.29 16.6052 7.47 17.6652C7.87 17.7352 8.02 17.4952 8.02 17.2852C8.02 17.0952 8.01 16.4652 8.01 15.7952C6 16.1652 5.48 15.3052 5.32 14.8552C5.23 14.6252 4.84 13.9152 4.5 13.7252C4.22 13.5752 3.82 13.2052 4.49 13.1952C5.12 13.1852 5.57 13.7752 5.72 14.0152C6.44 15.2252 7.59 14.8852 8.05 14.6752C8.12 14.1552 8.33 13.8052 8.56 13.6052C6.78 13.4052 4.92 12.7152 4.92 9.65519C4.92 8.78519 5.23 8.06519 5.74 7.50519C5.66 7.30519 5.38 6.4852 5.82 5.3852C5.82 5.3852 6.49 5.1752 8.02 6.20519C8.66 6.0252 9.34 5.93519 10.02 5.93519C10.7 5.93519 11.38 6.0252 12.02 6.20519C13.55 5.1652 14.22 5.3852 14.22 5.3852C14.66 6.4852 14.38 7.30519 14.3 7.50519C14.81 8.06519 15.12 8.77519 15.12 9.65519C15.12 12.7252 13.25 13.4052 11.47 13.6052C11.76 13.8552 12.01 14.3352 12.01 15.0852C12.01 16.1552 12 17.0152 12 17.2852C12 17.4952 12.15 17.7452 12.55 17.6652C14.1382 17.1292 15.5183 16.1085 16.496 14.747C17.4737 13.3854 17.9997 11.7514 18 10.0752C18 5.65519 14.42 2.0752 10 2.0752Z" fill="#8D8F96"/>
</g>
<defs>
<clipPath id="clip0_4800_6016">
<rect width="16" height="16" fill="white" transform="translate(2 2.0752)"/>
</clipPath>
</defs>
</svg>
