<svg width="20" height="20" viewBox="0 0 20 20" fill="none" xmlns="http://www.w3.org/2000/svg">
<g id="Social icon">
<g id="Subtract">
<path d="M3.21066 15.9919H6.15309V6.66439H3.21066V15.9919Z" fill="#8D8F96"/>
<path d="M3.74375 5.08298C4.02034 5.26943 4.34607 5.36993 4.67984 5.37181C4.90327 5.37638 5.12535 5.33602 5.33282 5.25312C5.54029 5.17022 5.72891 5.04648 5.88745 4.88928C6.04598 4.73208 6.17118 4.54464 6.25558 4.33813C6.33998 4.13161 6.38185 3.91025 6.3787 3.68725C6.37896 3.35415 6.28035 3.02844 6.0953 2.75123C5.91025 2.47401 5.64707 2.25771 5.33896 2.12963C5.03085 2.00154 4.69162 1.96741 4.36409 2.03154C4.03656 2.09568 3.73541 2.2552 3.49864 2.48997C3.26187 2.72475 3.1001 3.02426 3.03373 3.3507C2.96737 3.67715 2.99939 4.0159 3.12575 4.3242C3.25212 4.6325 3.46716 4.89653 3.74375 5.08298Z" fill="#8D8F96"/>
<path d="M14.0576 16H16.9986L17 10.2302C17 7.38189 15.2264 6.4094 13.5846 6.4094C12.0665 6.4094 11.0716 7.39003 10.7876 7.96375H10.7495V6.67117H7.91991V16H10.8623V10.9423C10.8623 9.59406 11.7186 8.9376 12.5911 8.9376C13.4174 8.9376 14.0576 9.40146 14.0576 10.9043V16Z" fill="#8D8F96"/>
</g>
</g>
</svg>
