<svg width="18" height="11" viewBox="0 0 18 11" fill="none" xmlns="http://www.w3.org/2000/svg">
<g id="Group 48179310">
<path id="Vector" d="M10.1531 5.12069C10.1531 7.94875 7.88024 10.2413 5.07665 10.2413C2.27306 10.2413 0 7.94823 0 5.12069C0 2.29315 2.27288 -0.00012207 5.07665 -0.00012207C7.88041 -0.00012207 10.1531 2.29263 10.1531 5.12069Z" fill="#8D8F96"/>
<path id="Vector_2" d="M15.7217 5.12078C15.7217 7.78278 14.5852 9.94163 13.1833 9.94163C11.7815 9.94163 10.645 7.78278 10.645 5.12078C10.645 2.45877 11.7813 0.299927 13.1832 0.299927C14.5851 0.299927 15.7215 2.45808 15.7215 5.12078" fill="#8D8F96"/>
<path id="Vector_3" d="M17.9999 5.12072C17.9999 7.50523 17.6003 9.43944 17.1072 9.43944C16.6141 9.43944 16.2146 7.50575 16.2146 5.12072C16.2146 2.7357 16.6142 0.802002 17.1072 0.802002C17.6001 0.802002 17.9999 2.73553 17.9999 5.12072Z" fill="#8D8F96"/>
</g>
</svg>
