<svg width="20" height="20" viewBox="0 0 20 20" fill="none" xmlns="http://www.w3.org/2000/svg">
<path fill-rule="evenodd" clip-rule="evenodd" d="M10.0005 19.0005C14.9711 19.0005 19.0005 14.9711 19.0005 10.0005C19.0005 5.02993 14.9711 1.00049 10.0005 1.00049C5.02993 1.00049 1.00049 5.02993 1.00049 10.0005C1.00049 14.9711 5.02993 19.0005 10.0005 19.0005ZM9.10541 14.0011C9.12876 14.0159 9.15492 14.0257 9.18225 14.0299L9.18218 14.03C9.22645 14.0368 9.27172 14.0286 9.31078 14.0067C9.34984 13.9848 9.38043 13.9504 9.39767 13.909C10.3791 11.556 11.9 9.8505 13.003 8.83408C14.2016 7.72956 15.1804 7.1765 15.1901 7.17107C15.2339 7.1466 15.2669 7.1066 15.2826 7.05897C15.2984 7.01134 15.2957 6.95954 15.2751 6.91379C15.2545 6.86805 15.2175 6.8317 15.1714 6.8119C15.1253 6.79211 15.0734 6.79032 15.0261 6.80689C12.5763 7.66427 11.0472 8.79644 10.1959 9.59526C9.62004 10.1356 9.26816 10.5976 9.07986 10.8786L8.00116 9.16868C7.98585 9.14443 7.96551 9.12374 7.94153 9.10802C7.91754 9.09229 7.89046 9.0819 7.86211 9.07753L5.97407 8.78684C5.93555 8.78091 5.89614 8.78634 5.86065 8.80247C5.82517 8.81859 5.79516 8.84471 5.77429 8.87762C5.75342 8.91054 5.74259 8.94882 5.74314 8.9878C5.7437 9.02677 5.7556 9.06473 5.77739 9.09704L9.04657 13.9439C9.06203 13.9668 9.08206 13.9863 9.10541 14.0011Z" fill="#49CC50"/>
</svg>
