<svg width="195" height="54" viewBox="0 0 195 54" fill="none" xmlns="http://www.w3.org/2000/svg">
<g clip-path="url(#clip0_25_1656)">
<path d="M6.12559 14.9765L6.10799 14.9587L8.43135 11.5341L9.7818 9.52933L11.3282 7.2342C11.9997 6.23732 12.3336 5.03202 12.2324 3.82177L12.2306 3.79691C12.1782 3.19362 12.0469 2.61809 11.8486 2.07933C11.6007 1.40526 11.2479 0.789326 10.8139 0.249512L13.0871 1.8801C13.7653 2.36781 14.4608 2.83238 15.1853 3.24434C16.0272 3.72382 16.7987 4.32561 17.474 5.02923C19.0554 6.67565 20.112 8.87963 20.3296 11.37C20.4432 12.6612 20.3208 13.9166 19.9996 15.0949C19.8857 15.5202 19.7444 15.9336 19.5794 16.334L19.5793 16.339C19.1701 17.3302 18.6173 18.2457 17.9408 19.0538C17.1751 19.9725 16.4729 20.9438 15.8039 21.9383L14.6345 23.6721L6.12559 14.9765ZM14.6345 23.6721L14.6533 23.6899L12.3299 27.1145L10.9795 29.1192L9.43311 31.4132C8.76161 32.4113 8.42766 33.6166 8.52889 34.8255C8.52866 34.8355 8.53088 34.843 8.53067 34.8517C8.58313 35.4537 8.71444 36.0293 8.91273 36.5693C9.16061 37.2445 9.51334 37.8605 9.94734 38.399L7.67416 36.7684C6.99601 36.2807 6.30042 35.8174 5.57596 35.4042C4.73406 34.926 3.96252 34.3242 3.28729 33.6207C1.70587 31.9741 0.649227 29.7703 0.431704 27.2798C0.318069 25.9887 0.440452 24.7321 0.761705 23.5536C0.876774 23.1296 1.01683 22.7161 1.18185 22.3146L1.18194 22.3109C1.59116 21.3197 2.14401 20.4042 2.82049 19.5948C3.58621 18.6773 4.28832 17.706 4.95733 16.7116L6.12559 14.9765L14.6369 23.6734L14.6345 23.6721Z" fill="#7EE440"/>
<path d="M43.9785 38.0283L43.9947 38.0473L41.4191 41.2865L39.9209 43.1834L38.2054 45.355C37.4605 46.2983 37.0362 47.4749 37.0457 48.6894V48.7143C37.0524 49.3199 37.1397 49.9036 37.2967 50.4559C37.4931 51.1466 37.7981 51.7875 38.1901 52.3586L36.0467 50.5609C35.4074 50.0232 34.749 49.5074 34.0576 49.0419C33.2545 48.5002 32.5307 47.8416 31.9106 47.0891C30.4582 45.3278 29.5711 43.0503 29.5426 40.5506C29.5268 39.2545 29.7436 38.0119 30.1532 36.8613C30.2988 36.4457 30.4709 36.0441 30.6658 35.6575L30.6662 35.6525C31.1492 34.695 31.7697 33.8241 32.5054 33.0694C33.3383 32.2112 34.1118 31.2958 34.8542 30.3547L36.1513 28.7142L43.9785 38.0283ZM36.1513 28.7142L36.134 28.695L38.7096 25.4558L40.2078 23.5591L41.923 21.3886C42.6682 20.4441 43.0922 19.2675 43.0827 18.0543C43.0838 18.0444 43.0821 18.0368 43.0829 18.0282C43.0762 17.4239 42.9888 16.8401 42.832 16.2866C42.6358 15.5945 42.3306 14.9536 41.9386 14.3838L44.0819 16.1816C44.7213 16.7192 45.3799 17.2338 46.0711 17.7006C46.8744 18.2411 47.5982 18.8995 48.2183 19.6521C49.6707 21.4134 50.5576 23.6909 50.5864 26.1907C50.6019 27.4867 50.3848 28.7306 49.9755 29.8812C49.8286 30.2953 49.6578 30.6971 49.4629 31.085L49.4625 31.0887C48.9795 32.0462 48.359 32.9171 47.6233 33.6731C46.7904 34.53 46.0169 35.4454 45.2745 36.3865L43.9785 38.0283L36.1491 28.7129L36.1513 28.7142Z" fill="#7EE440"/>
<path d="M25.0123 31.8647C28.2111 32.3274 31.1733 30.0609 31.6286 26.8028C32.084 23.5444 29.8598 20.528 26.6611 20.0653C23.4623 19.6027 20.5 21.8689 20.0447 25.1273C19.5894 28.3856 21.8136 31.4021 25.0123 31.8647Z" fill="#7EE440"/>
<path d="M66.9026 20.3438V25.9831H73.0502V27.7984H66.9026V33.6071H73.7763V35.4224H64.7001V18.5285H73.7763V20.3438H66.9026ZM84.0069 26.9996L89.1863 35.4224H86.6934L82.6515 28.8391L78.8032 35.4224H76.3586L81.5139 26.9996L76.3344 18.5527H78.8032L82.8693 25.1602L86.7418 18.5527H89.2105L84.0069 26.9996ZM103.42 23.4902C103.42 24.894 102.936 26.0638 101.968 26.9996C101.016 27.9194 99.5556 28.3792 97.5871 28.3792H94.3439V35.4224H92.1414V18.5527H97.5871C99.4911 18.5527 100.935 19.0126 101.919 19.9323C102.92 20.852 103.42 22.038 103.42 23.4902ZM97.5871 26.564C98.8134 26.564 99.717 26.2978 100.298 25.7653C100.879 25.2328 101.169 24.4744 101.169 23.4902C101.169 21.4087 99.9752 20.368 97.5871 20.368H94.3439V26.564H97.5871ZM108.36 33.6313H114.266V35.4224H106.158V18.5527H108.36V33.6313ZM124.253 35.5918C122.688 35.5918 121.26 35.2287 119.969 34.5026C118.678 33.7604 117.653 32.7358 116.895 31.4288C116.153 30.1057 115.782 28.6213 115.782 26.9754C115.782 25.3296 116.153 23.8532 116.895 22.5463C117.653 21.2232 118.678 20.1985 119.969 19.4725C121.26 18.7302 122.688 18.3591 124.253 18.3591C125.834 18.3591 127.27 18.7302 128.561 19.4725C129.852 20.1985 130.868 21.2151 131.611 22.5221C132.353 23.829 132.724 25.3135 132.724 26.9754C132.724 28.6374 132.353 30.1219 131.611 31.4288C130.868 32.7358 129.852 33.7604 128.561 34.5026C127.27 35.2287 125.834 35.5918 124.253 35.5918ZM124.253 33.6797C125.431 33.6797 126.488 33.4054 127.423 32.8568C128.375 32.3082 129.118 31.5256 129.65 30.5091C130.199 29.4926 130.473 28.3147 130.473 26.9754C130.473 25.6201 130.199 24.4422 129.65 23.4418C129.118 22.4252 128.383 21.6427 127.448 21.0941C126.512 20.5455 125.447 20.2712 124.253 20.2712C123.059 20.2712 121.994 20.5455 121.058 21.0941C120.122 21.6427 119.38 22.4252 118.831 23.4418C118.299 24.4422 118.033 25.6201 118.033 26.9754C118.033 28.3147 118.299 29.4926 118.831 30.5091C119.38 31.5256 120.122 32.3082 121.058 32.8568C122.01 33.4054 123.075 33.6797 124.253 33.6797ZM144.514 35.4224L140.496 28.5244H137.834V35.4224H135.632V18.5527H141.077C142.352 18.5527 143.425 18.7706 144.296 19.2062C145.184 19.6419 145.845 20.2308 146.281 20.9731C146.717 21.7153 146.934 22.5624 146.934 23.5144C146.934 24.6761 146.596 25.7007 145.918 26.5882C145.256 27.4756 144.256 28.0646 142.917 28.355L147.152 35.4224H144.514ZM137.834 26.7576H141.077C142.271 26.7576 143.167 26.4672 143.764 25.8863C144.361 25.2893 144.659 24.4987 144.659 23.5144C144.659 22.514 144.361 21.7395 143.764 21.1909C143.183 20.6423 142.287 20.368 141.077 20.368H137.834V26.7576ZM152.559 20.3438V25.9831H158.707V27.7984H152.559V33.6071H159.433V35.4224H150.357V18.5285H159.433V20.3438H152.559ZM179.877 18.6737V35.4224H177.675V22.9335L172.108 35.4224H170.559L164.968 22.9093V35.4224H162.766V18.6737H165.138L171.334 32.518L177.53 18.6737H179.877ZM185.815 20.3438V25.9831H191.963V27.7984H185.815V33.6071H192.689V35.4224H183.612V18.5285H192.689V20.3438H185.815Z" fill="white"/>
</g>
<defs>
<clipPath id="clip0_25_1656">
<rect width="194.793" height="54" fill="white"/>
</clipPath>
</defs>
</svg>
