<svg width="190" height="44" viewBox="0 0 190 44" fill="none" xmlns="http://www.w3.org/2000/svg">
  <path fill-rule="evenodd" clip-rule="evenodd" d="M189.029 14.8782V13.3695H181.902C181.582 13.3695 181.265 13.4335 180.969 13.5577C180.674 13.682 180.406 13.864 180.182 14.0931L179.111 15.1887C178.671 15.6383 178.425 16.2421 178.425 16.871V19.4229C178.425 19.9682 178.609 20.6656 178.912 21.2552C179.207 21.8292 179.67 22.4054 180.292 22.5481L180.328 22.5565L187.478 22.6413C187.515 22.658 187.575 22.6999 187.651 22.796C187.742 22.9106 187.83 23.0704 187.908 23.2575C188.065 23.6361 188.151 24.0557 188.151 24.288V26.8883C188.151 27.1361 188.049 27.3731 187.868 27.5427L186.607 28.7257C186.441 28.8817 186.221 28.9685 185.993 28.9684H179.011V30.4768H185.993C186.605 30.4768 187.193 30.2438 187.64 29.8253L188.9 28.643C189.14 28.418 189.331 28.1463 189.462 27.8445C189.592 27.5428 189.66 27.2174 189.66 26.8886V24.288C189.66 23.7427 189.476 23.0453 189.173 22.4557C188.877 21.882 188.414 21.3055 187.792 21.1628L187.757 21.1548L180.607 21.07C180.57 21.0532 180.51 21.011 180.434 20.9149C180.343 20.8003 180.255 20.6405 180.177 20.4537C180.02 20.0748 179.934 19.6552 179.934 19.4229V16.871C179.934 16.6363 180.025 16.4113 180.189 16.2435L181.261 15.1479C181.344 15.0625 181.444 14.9946 181.554 14.9482C181.665 14.9018 181.783 14.8779 181.902 14.8779L189.029 14.8782ZM174.466 21.7266C174.497 21.6982 174.527 21.6698 174.555 21.6418L175.061 21.1384C175.381 20.8199 175.601 20.54 175.73 20.1971C175.856 19.8601 175.881 19.4954 175.881 19.0389V17.053C175.881 16.5966 175.856 16.2319 175.73 15.8948C175.601 15.552 175.381 15.2721 175.061 14.9536L174.289 14.1856C173.974 13.8722 173.677 13.6556 173.301 13.5267C172.935 13.4015 172.521 13.3691 171.994 13.3691H165.477C165.281 13.3691 165.057 13.4077 164.893 13.5784C164.732 13.7466 164.703 13.9661 164.703 14.1401V29.7055C164.703 29.8795 164.732 30.099 164.893 30.2668C165.057 30.4378 165.281 30.4764 165.477 30.4764H172.447C172.973 30.4764 173.387 30.4437 173.753 30.3188C174.13 30.19 174.426 29.9734 174.741 29.66L175.513 28.892C175.833 28.5735 176.053 28.2936 176.182 27.9507C176.309 27.6137 176.334 27.249 176.334 26.7925V24.8605C176.334 24.4041 176.309 24.0394 176.182 23.7023C176.053 23.3594 175.833 23.0799 175.513 22.761L174.661 21.9159L174.66 21.9155L174.635 21.8907C174.58 21.8348 174.524 21.7803 174.466 21.7266ZM172.689 14.8888C172.844 14.9401 172.972 15.0235 173.132 15.1821L173.85 15.897C174.091 16.1369 174.183 16.2519 174.233 16.3727C174.284 16.4947 174.306 16.657 174.306 17.0272V19.0921C174.306 19.4615 174.284 19.6242 174.233 19.7462C174.183 19.867 174.091 19.9827 173.85 20.2222L173.425 20.6456C173.213 20.8567 173.09 20.9338 172.985 20.9713C172.873 21.0114 172.745 21.0205 172.473 21.0205H166.276V14.8072H171.941C172.302 14.8072 172.524 14.8338 172.689 14.8888ZM174.686 24.1551C174.635 24.0346 174.544 23.9189 174.303 23.6794L173.61 22.9914C173.353 22.7352 173.209 22.6078 173.067 22.5335C172.939 22.4669 172.789 22.4309 172.499 22.4309H166.276V29.0412H172.394C172.755 29.0412 172.976 29.015 173.142 28.9601C173.296 28.9091 173.424 28.8254 173.584 28.6663L174.303 27.9515C174.544 27.7116 174.635 27.5962 174.686 27.4754C174.736 27.3534 174.759 27.1907 174.759 26.8209V24.8095C174.759 24.4397 174.736 24.2774 174.686 24.1551ZM158.294 14.5947H158.294C158.024 14.1135 157.729 13.7881 157.343 13.5955C156.965 13.4077 156.542 13.3695 156.069 13.3695H154.989C154.516 13.3695 154.093 13.4077 153.715 13.5955C153.329 13.7881 153.034 14.1135 152.764 14.5943L150.102 19.3418L150.101 19.3436C149.804 19.8801 149.616 20.2983 149.507 20.7624C149.399 21.2225 149.373 21.7077 149.373 22.3687V30.4768H150.906V25.5728H160.154V30.4768H161.687V22.3687C161.687 21.7077 161.661 21.2221 161.552 20.7617C161.443 20.298 161.255 19.8794 160.958 19.3436L158.294 14.5947ZM160.153 22.3698V24.0969H150.905V22.3698C150.905 21.3091 151.029 20.7435 151.44 20.0228L154.049 15.3794L154.05 15.3787C154.209 15.0981 154.319 14.9911 154.428 14.9354C154.546 14.8746 154.716 14.8455 155.068 14.8455H155.99C156.342 14.8455 156.512 14.8746 156.63 14.9354C156.739 14.9911 156.849 15.0981 157.008 15.3787L157.009 15.3794L159.617 20.021L159.618 20.0228C160.029 20.7435 160.153 21.3091 160.153 22.3698ZM137.86 29.0143V13.3695H136.287V29.7059C136.287 29.8799 136.316 30.099 136.476 30.2671C136.64 30.4382 136.864 30.4768 137.059 30.4768H146.107V29.0143H137.86Z" fill="#00040F"/>
  <path d="M121.063 23.2488H128.135V20.5444H121.063V16.0739H129.577V13.3695H118.816C118.205 13.3695 117.957 13.6185 117.957 14.2249V29.6214C117.957 30.2293 118.207 30.4768 118.816 30.4768H129.77V27.7724H121.062V23.2491H121.063V23.2488ZM112.825 24.0488L113.602 23.2761C114.407 22.4768 114.6 22.0899 114.6 20.7373V17.5641C114.6 16.2115 114.405 15.8257 113.602 15.0253L112.825 14.2529C112.105 13.5358 111.494 13.3695 110.247 13.3695H102.121C101.511 13.3695 101.262 13.6185 101.262 14.2245V30.4768H104.368V24.9308H109.221L111.467 30.4768H114.767L112.271 24.5169C112.465 24.3786 112.631 24.2421 112.825 24.0488ZM111.522 20.682C111.522 20.9025 111.466 21.0405 111.272 21.2338L110.523 21.9792C110.328 22.1725 110.134 22.2278 109.802 22.2278H104.367V16.0746H109.775C110.164 16.0746 110.357 16.1573 110.607 16.4059L111.19 16.985C111.44 17.2339 111.523 17.3988 111.523 17.7304V20.682H111.522ZM94.3023 14.8728C93.5605 13.6978 93.2034 13.3695 91.6106 13.3695H90.1281C88.5353 13.3695 88.1786 13.6978 87.4368 14.8728L84.7451 19.1903C84.0317 20.3103 83.921 21.185 83.921 22.4699V30.4768H86.9694V26.1323H94.7692V30.4768H97.8176V22.4699C97.8176 21.185 97.7073 20.3114 96.9935 19.1903L94.3023 14.8728ZM94.7682 23.453H86.9683V22.4149C86.9683 21.5948 87.1059 21.13 87.4626 20.5567L89.9617 16.4576C90.099 16.2392 90.1812 16.2111 90.4287 16.2111H91.3078C91.5556 16.2111 91.6379 16.2392 91.7751 16.4576L94.2739 20.5567C94.6309 21.13 94.7682 21.5948 94.7682 22.4149V23.453ZM77.5368 22.9612C77.5368 23.2346 77.4534 23.426 77.2889 23.6448L74.1855 27.7709L71.0822 23.6448C70.9177 23.4264 70.8343 23.2346 70.8343 22.9612V13.3695H67.759V22.9612C67.759 23.2346 67.6771 23.426 67.5115 23.6448L64.4082 27.7709L61.3045 23.6448C61.1403 23.4264 61.057 23.2346 61.057 22.9612V13.3695H57.9817V22.8247C57.9817 24.0546 58.2012 24.4914 58.8057 25.2845L62.0463 29.5472C62.4853 30.1208 63.0076 30.4768 64.0511 30.4768H64.766C65.8095 30.4768 66.3318 30.1219 66.7708 29.5472L69.298 26.2407L71.8251 29.5472C72.2641 30.1208 72.7864 30.4768 73.8299 30.4768H74.5444C75.588 30.4768 76.1103 30.1219 76.5493 29.5472L79.7902 25.2842C80.3948 24.4925 80.6142 24.0546 80.6142 22.8247V13.3695H77.5389V22.9612H77.5368ZM52.7268 21.593L53.0872 21.2345C53.8919 20.4337 54.1136 19.9653 54.1136 18.7507V17.5641C54.1136 16.2119 53.9192 15.826 53.1145 15.0253L52.3381 14.2529C51.6174 13.5358 51.09 13.3695 49.9249 13.3695H42.3536C41.7432 13.3695 41.4943 13.6185 41.4943 14.2249V29.6214C41.4943 30.2293 41.7443 30.4768 42.3536 30.4768H50.4512C51.6163 30.4768 52.1437 30.3115 52.8644 29.5934L53.6408 28.821C54.4456 28.0203 54.6399 27.6344 54.6399 26.2819V24.9846C54.6399 23.6321 54.4456 23.3019 53.6408 22.5012L52.7268 21.593ZM44.602 16.0193H49.344C49.677 16.0193 49.8714 16.0746 50.0646 16.2683L50.8137 17.0134C51.0081 17.207 51.0638 17.3446 51.0638 17.5655V19.0833C51.0638 19.3035 51.0081 19.4415 50.8137 19.6351L50.1203 20.3249C49.926 20.5185 49.7316 20.5739 49.3996 20.5739H44.602V16.0193ZM51.5628 26.284C51.5628 26.5046 51.5071 26.6426 51.3128 26.8362L50.5637 27.5813C50.3693 27.7749 50.1749 27.8303 49.8419 27.8303H44.6009V23.1378H49.8976C50.2306 23.1378 50.425 23.1931 50.6183 23.3867L51.3117 24.0765C51.506 24.2698 51.5617 24.4077 51.5617 24.6283V26.2844L51.5628 26.284Z" fill="#00040F"/>
  <path d="M35.6669 15.2174L35.6694 15.2149L18.248 0.237641C18.1329 0.13866 17.9861 0.0842285 17.8343 0.0842285C17.6825 0.0842285 17.5358 0.13866 17.4207 0.237641L0 15.2149L0.00145594 15.2174V28.6339H0.00254789L17.421 43.6086C17.6591 43.8135 18.0103 43.8135 18.2484 43.6086L35.6669 28.6339H35.6705V15.2174H35.6669ZM19.8026 3.87385L32.431 14.7308C32.727 14.9856 32.727 15.4446 32.431 15.699L26.9429 20.4173C26.8278 20.5164 26.6809 20.5709 26.529 20.5709C26.3771 20.5709 26.2303 20.5164 26.1152 20.4173L18.7532 14.0876V4.35831C18.7532 3.81343 19.3902 3.51933 19.8026 3.87385ZM17.8345 2.18168L17.8371 2.18423H17.832L17.8345 2.18168ZM16.9697 4.31172V14.0418L9.55387 20.4173C9.43881 20.5164 9.29202 20.5708 9.1402 20.5708C8.98838 20.5708 8.84159 20.5164 8.72653 20.4173L3.23837 15.699C3.16872 15.639 3.11282 15.5647 3.07451 15.4812C3.03619 15.3976 3.01636 15.3068 3.01636 15.2149C3.01636 15.123 3.03619 15.0321 3.07451 14.9486C3.11282 14.865 3.16872 14.7908 3.23837 14.7308L15.9203 3.82762C16.3327 3.4731 16.9697 3.7672 16.9697 4.31172ZM2.83398 17.6518L7.23966 21.439C7.53557 21.6934 7.53557 22.1524 7.23966 22.4072L2.83398 26.1945C2.42195 26.549 1.78462 26.2553 1.78462 25.7104V18.1359C1.78462 17.591 2.42159 17.2972 2.83398 17.6518ZM15.9203 40.0186L3.23837 29.1155C3.16872 29.0555 3.11282 28.9812 3.07451 28.8976C3.03619 28.8141 3.01636 28.7233 3.01636 28.6314C3.01636 28.5394 3.03619 28.4486 3.07451 28.3651C3.11282 28.2815 3.16872 28.2072 3.23837 28.1473L8.72653 23.4289C8.84159 23.3299 8.98838 23.2754 9.1402 23.2754C9.29202 23.2754 9.43881 23.3299 9.55387 23.4289L16.9697 29.8045V39.5345C16.9697 40.079 16.3327 40.3731 15.9203 40.0186ZM11.0411 22.4072C10.9715 22.3473 10.9156 22.273 10.8772 22.1894C10.8389 22.1059 10.8191 22.015 10.8191 21.9231C10.8191 21.8312 10.8389 21.7404 10.8772 21.6568C10.9156 21.5733 10.9715 21.499 11.0411 21.439L17.8316 15.6007L17.8342 15.5982L17.8367 15.6007L24.6279 21.439C24.9239 21.6934 24.9239 22.1528 24.6279 22.4072L17.8345 28.2481L11.0411 22.4072ZM18.7532 39.4883V29.7579L26.1152 23.4289C26.2302 23.3299 26.377 23.2754 26.5288 23.2754C26.6807 23.2754 26.8274 23.3299 26.9425 23.4289L32.431 28.1473C32.727 28.4017 32.727 28.8607 32.431 29.1155L19.8026 39.9724C19.3902 40.3269 18.7532 40.0332 18.7532 39.4883ZM32.8376 26.197L28.4298 22.4072C28.3601 22.3473 28.3042 22.273 28.2659 22.1894C28.2276 22.1059 28.2077 22.015 28.2077 21.9231C28.2077 21.8312 28.2276 21.7404 28.2659 21.6568C28.3042 21.5733 28.3601 21.499 28.4298 21.439L32.8376 17.6492C33.25 17.2947 33.887 17.5884 33.887 18.1333V25.7129C33.887 26.2578 33.25 26.5515 32.8376 26.197Z" fill="#FDB913"/>
</svg>
