<svg width="32" height="32" viewBox="0 0 32 32" fill="none" xmlns="http://www.w3.org/2000/svg">
<g filter="url(#filter0_i_199_879)">
<path d="M30.7198 17.6844L26.9752 24.184C26.6838 24.6898 26.2665 25.1094 25.765 25.4011C25.2635 25.6927 24.6952 25.8462 24.1169 25.8462H3.43711C2.4794 25.8462 1.88268 24.7943 2.36524 23.9567L6.10985 17.4572C6.40127 16.9513 6.81853 16.5317 7.32005 16.24C7.82156 15.9484 8.38981 15.7949 8.96816 15.7949H29.648C30.6057 15.7949 31.2024 16.8468 30.7198 17.6844Z" fill="#5A5D68"/>
</g>
<path d="M30.431 17.518L30.7198 17.6844L30.4309 17.518L26.6863 24.0176L26.9752 24.184L26.6863 24.0176C26.4238 24.4732 26.0482 24.8508 25.5974 25.1129C25.1466 25.3751 24.6362 25.5129 24.1169 25.5129H3.43711C2.74299 25.5129 2.29596 24.7447 2.65407 24.1231L6.39868 17.6236C6.6612 17.1679 7.03679 16.7904 7.48762 16.5282C7.93841 16.266 8.44887 16.1283 8.96816 16.1283H29.648C30.3421 16.1283 30.7891 16.8964 30.431 17.518Z" stroke="#464955" stroke-width="0.666667"/>
<g filter="url(#filter1_i_199_879)">
<path d="M8.9684 14.1192H25.9274V11.6064C25.9274 10.2186 24.8162 9.09359 23.4456 9.09359H15.1729L11.8638 5.74316H3.59117C2.2205 5.74316 1.10938 6.86817 1.10938 8.25598V22.8118L4.68094 16.6126C5.56699 15.0746 7.20989 14.1192 8.9684 14.1192Z" fill="#5A5D68"/>
</g>
<path d="M14.9357 9.32783L15.0336 9.42692H15.1729H23.4456C24.6282 9.42692 25.594 10.3988 25.594 11.6064V13.7859H8.9684C7.08932 13.7859 5.33698 14.8061 4.39211 16.4462L1.44271 21.5655V8.25598C1.44271 7.04835 2.40848 6.0765 3.59117 6.0765H11.7245L14.9357 9.32783Z" stroke="#464955" stroke-width="0.666667"/>
<defs>
<filter id="filter0_i_199_879" x="2.19434" y="15.7949" width="28.6963" height="15.3846" filterUnits="userSpaceOnUse" color-interpolation-filters="sRGB">
<feFlood flood-opacity="0" result="BackgroundImageFix"/>
<feBlend mode="normal" in="SourceGraphic" in2="BackgroundImageFix" result="shape"/>
<feColorMatrix in="SourceAlpha" type="matrix" values="0 0 0 0 0 0 0 0 0 0 0 0 0 0 0 0 0 0 127 0" result="hardAlpha"/>
<feOffset dy="5.33333"/>
<feGaussianBlur stdDeviation="2.66667"/>
<feComposite in2="hardAlpha" operator="arithmetic" k2="-1" k3="1"/>
<feColorMatrix type="matrix" values="0 0 0 0 0 0 0 0 0 0 0 0 0 0 0 0 0 0 0.25 0"/>
<feBlend mode="normal" in2="shape" result="effect1_innerShadow_199_879"/>
</filter>
<filter id="filter1_i_199_879" x="1.10938" y="5.74316" width="24.8179" height="22.4019" filterUnits="userSpaceOnUse" color-interpolation-filters="sRGB">
<feFlood flood-opacity="0" result="BackgroundImageFix"/>
<feBlend mode="normal" in="SourceGraphic" in2="BackgroundImageFix" result="shape"/>
<feColorMatrix in="SourceAlpha" type="matrix" values="0 0 0 0 0 0 0 0 0 0 0 0 0 0 0 0 0 0 127 0" result="hardAlpha"/>
<feOffset dy="5.33333"/>
<feGaussianBlur stdDeviation="2.66667"/>
<feComposite in2="hardAlpha" operator="arithmetic" k2="-1" k3="1"/>
<feColorMatrix type="matrix" values="0 0 0 0 0 0 0 0 0 0 0 0 0 0 0 0 0 0 0.25 0"/>
<feBlend mode="normal" in2="shape" result="effect1_innerShadow_199_879"/>
</filter>
</defs>
</svg>
