<svg width="272" height="79" viewBox="0 0 272 79" fill="none" xmlns="http://www.w3.org/2000/svg">
<g clip-path="url(#clip0_381_6572)">
<path d="M101.076 35.2615L110.146 20.4114L101.076 5.56128H106.386L112.824 16.3225L119.262 5.56128H124.573L115.456 20.4114L124.573 35.2615H119.262L112.824 24.5003L106.386 35.2615H101.076Z" fill="black"/>
<path d="M137.545 10.464L136.464 11.545V17.6072H150.562V22.0715H136.464V35.6992H132V9.71252L135.713 6H155.497V10.464H137.545Z" fill="black"/>
<path d="M178.017 10.0253V30.7962H187.509V35.2605H164.014V30.7962H173.553V10.0253H164.014V5.56128H187.509V10.0253H178.017Z" fill="black"/>
<path d="M253.71 49.4417V54.586H267.259V59.8414H253.71V67.6833H272V72.9387H248.455V47.2808L248.597 47.1396L252.306 43.4305H272V48.6862H254.467L253.71 49.4417Z" fill="#0CC2FF"/>
<path d="M237.255 53.925V49.4422L236.498 48.6862H224.974L224.22 49.4417V66.9271L224.974 67.6833H236.498L237.255 66.9271V62.9575H232.06V57.7021H242.51V69.0877L238.659 72.9387H222.816L218.963 69.0877V47.2808L219.107 47.1396L222.816 43.4305H238.659L242.51 47.2808V53.925H237.255Z" fill="#0CC2FF"/>
<path d="M209.164 43.4305H189.47V72.9387H209.164L213.014 69.0877V47.2808L209.164 43.4305ZM194.725 67.6833V48.6862H207.003L207.76 49.4422V66.9271L207.003 67.6833H194.725Z" fill="#0CC2FF"/>
<path d="M174.4 48.6862V67.6833H183.523V72.9387H159.977V67.6833H169.145V48.6862H159.977V43.4305H183.523V48.6862H174.4Z" fill="#0CC2FF"/>
<path d="M145.183 63.4091H150.18L153.89 59.6995L154.03 59.5581V47.2813L150.18 43.4305H130.484V72.9387H135.739V63.4091H137.767L147.296 72.9387H154.712L145.183 63.4091ZM135.739 48.6862H148.019L148.775 49.4417V57.3979L148.019 58.1539H135.739V48.6862Z" fill="#0CC2FF"/>
<path d="M120.97 55.23V47.2808L117.119 43.4305H100.991V72.9387H120.687L124.397 69.2287L124.537 69.0872V58.7984L120.97 55.23ZM106.246 67.6833V60.2026H118.526L119.282 60.9586V66.9271L118.526 67.6833H106.246ZM106.246 54.947V48.6862H114.959L115.714 49.4417V54.947H106.246Z" fill="#0CC2FF"/>
<path d="M-0.00012207 0L0.00880452 25.1739L9.14051 34.3056L13.3949 30.0515L6.1569 22.8138V6.0166H22.9541L51.2423 34.3056L55.4967 30.0515L25.4462 0H-0.00012207Z" fill="#0CC2FF"/>
<path d="M52.7228 0L43.7191 9.00369L47.9735 13.2576L55.215 6.0161H72.0124V22.8138L49.5747 45.2512L28.45 24.2718L0.00990295 52.7109V78.0168H25.3153L34.4175 68.9146L30.1636 64.6608L22.8234 72.0002H6.0265V55.2033L28.4641 32.7659L49.5889 53.745L78.028 25.3059V0H52.7228Z" fill="#0CC2FF"/>
<path d="M22.6777 47.8438L52.7211 77.8869H78.0267V52.5815L69.0347 43.5895L64.7806 47.8438L72.0103 55.0739V71.8708H55.2132L26.9321 43.5895L22.6782 47.8438H22.6777Z" fill="#0CC2FF"/>
</g>
<defs>
<clipPath id="clip0_381_6572">
<rect width="272" height="78.0168" fill="white"/>
</clipPath>
</defs>
</svg>
