<svg width="185" height="43" viewBox="0 0 185 43" fill="none" xmlns="http://www.w3.org/2000/svg">
<path d="M11.7757 26.9426C10.8951 26.253 9.77662 25.9414 8.66631 26.0764C7.556 26.2113 6.54474 26.7817 5.85492 27.6622C5.79808 27.7345 5.74382 27.8081 5.69473 27.8831C5.68609 27.8941 5.67832 27.9058 5.67147 27.918L5.01002 29.6052L0.313965 41.5876L10.8171 34.1475L12.295 33.0998C12.3055 33.0904 12.315 33.08 12.3235 33.0688C12.3855 33.0042 12.4436 32.9331 12.5005 32.8608C13.189 31.9798 13.4994 30.8614 13.3635 29.7516C13.2276 28.6418 12.6564 27.6314 11.7757 26.9426ZM31.233 1.53479C28.8594 1.25922 26.4544 1.48132 24.1714 2.18692C21.8884 2.89252 19.7775 4.06615 17.9734 5.63294C16.1692 7.19973 14.7113 9.12532 13.6927 11.2869C12.6741 13.4485 12.1171 15.7986 12.0573 18.1874C9.99029 17.7998 6.94012 19.2312 4.43512 20.7867C4.24151 20.9073 4.09038 21.0854 4.00283 21.296C3.91527 21.5067 3.89566 21.7394 3.94673 21.9617C3.99779 22.1841 4.11699 22.3849 4.28769 22.5362C4.45839 22.6876 4.67207 22.7819 4.89892 22.8059C10.4205 23.4402 15.7741 27.1919 17.4394 31.9913C17.5164 32.2102 17.661 32.3989 17.8522 32.5302C18.0435 32.6616 18.2716 32.7287 18.5035 32.7219C18.7354 32.7152 18.9592 32.6349 19.1425 32.4926C19.3258 32.3504 19.4591 32.1536 19.5232 31.9306C20.2984 29.2086 20.7815 26.1248 19.9495 24.3239C23.4807 23.3191 26.5948 21.2047 28.8314 18.2933C30.6444 15.945 31.8186 13.1672 32.2394 10.2304C32.6603 7.29356 32.3136 4.29782 31.233 1.53479ZM23.3757 15.84C22.6057 15.8883 21.8386 15.7072 21.1716 15.3196C20.5045 14.9319 19.9674 14.3552 19.6282 13.6622C19.289 12.9693 19.1629 12.1913 19.2659 11.4267C19.3689 10.662 19.6964 9.94516 20.2069 9.36668C20.7174 8.78821 21.388 8.37414 22.1339 8.17685C22.8797 7.97955 23.6674 8.00791 24.3971 8.25831C25.1269 8.50872 25.766 8.96994 26.2335 9.58362C26.7011 10.1973 26.9762 10.9359 27.024 11.7059C27.088 12.7378 26.7397 13.7529 26.0556 14.5281C25.3714 15.3033 24.4075 15.7752 23.3757 15.84Z" fill="url(#paint0_linear_7_1497)"/>
<path d="M48.5664 12.1813V24.8199C48.5663 25.0135 48.528 25.2051 48.4537 25.3839C48.3795 25.5627 48.2708 25.7251 48.1338 25.8619C47.9968 25.9986 47.8342 26.1071 47.6553 26.181C47.4764 26.2549 47.2847 26.2929 47.0911 26.2927C46.8985 26.2934 46.7077 26.2556 46.5299 26.1816C46.3522 26.1076 46.191 25.9988 46.0558 25.8616C45.9207 25.7244 45.8143 25.5616 45.7429 25.3827C45.6716 25.2038 45.6367 25.0125 45.6403 24.8199V12.1813C45.6345 11.9855 45.668 11.7905 45.7389 11.6079C45.8098 11.4253 45.9167 11.2588 46.0531 11.1183C46.1895 10.9777 46.3528 10.866 46.5332 10.7897C46.7136 10.7134 46.9075 10.6741 47.1034 10.6741C47.2993 10.6741 47.4931 10.7134 47.6735 10.7897C47.8539 10.866 48.0172 10.9777 48.1536 11.1183C48.2901 11.2588 48.3969 11.4253 48.4678 11.6079C48.5387 11.7905 48.5723 11.9855 48.5664 12.1813Z" fill="#F7F7F7"/>
<path d="M66.9205 12.1813C66.9201 12.5663 66.767 12.9354 66.4948 13.2077C66.2225 13.4799 65.8534 13.633 65.4684 13.6334H60.1897V24.8199C60.1931 25.0124 60.1581 25.2037 60.0867 25.3825C60.0153 25.5613 59.9089 25.724 59.7738 25.8612C59.6387 25.9983 59.4775 26.1072 59.2998 26.1812C59.1221 26.2553 58.9314 26.2932 58.7389 26.2927C58.5454 26.2928 58.3538 26.2549 58.1751 26.1809C57.9963 26.107 57.8339 25.9985 57.6971 25.8617C57.5603 25.7249 57.4518 25.5625 57.3779 25.3837C57.3039 25.205 57.2659 25.0134 57.2661 24.8199V13.6334H52.0081C51.6202 13.6334 51.2482 13.4793 50.974 13.205C50.6997 12.9308 50.5457 12.5588 50.5457 12.1709C50.5457 11.7831 50.6997 11.4111 50.974 11.1368C51.2482 10.8626 51.6202 10.7085 52.0081 10.7085H65.4658C65.8538 10.7116 66.2248 10.8683 66.4974 11.1443C66.7701 11.4204 66.9222 11.7933 66.9205 12.1813Z" fill="#F7F7F7"/>
<path d="M109.916 15.5118C109.548 14.5609 108.984 13.6981 108.261 12.9797C106.729 11.4978 104.565 10.7085 102.002 10.7085H100.923C98.36 10.7085 96.1961 11.4927 94.6678 12.9797C93.9453 13.7047 93.3744 14.5664 92.9883 15.5144C92.6283 16.4691 92.4436 17.4809 92.4431 18.5012C92.4441 19.5297 92.6296 20.5497 92.9909 21.5127C93.3693 22.4578 93.9414 23.3133 94.6703 24.0241C96.1987 25.5085 98.36 26.2927 100.923 26.2927H102.002C104.565 26.2927 106.729 25.5085 108.255 24.0241C108.985 23.3179 109.552 22.4608 109.916 21.5127C110.294 20.5537 110.486 19.5318 110.483 18.5012C110.486 17.4778 110.293 16.4632 109.916 15.5118ZM102.002 23.3704H100.923C97.4944 23.3704 95.368 21.5049 95.368 18.5012C95.368 15.4976 97.497 13.6346 100.923 13.6346H102.002C105.431 13.6346 107.557 15.5002 107.557 18.5012C107.557 21.5023 105.431 23.3704 102.002 23.3704Z" fill="#F7F7F7"/>
<path d="M147.366 23.8795C147.613 24.179 147.732 24.564 147.698 24.9509C147.663 25.3378 147.477 25.6955 147.181 25.9465C146.917 26.1693 146.582 26.2911 146.236 26.2901C146.024 26.2902 145.814 26.2426 145.622 26.1507C145.43 26.0588 145.261 25.925 145.128 25.7592L140.219 19.9702H134.249V24.8174C134.249 25.0108 134.211 25.2024 134.137 25.3812C134.063 25.5599 133.955 25.7224 133.818 25.8592C133.681 25.9959 133.519 26.1044 133.34 26.1784C133.161 26.2523 132.97 26.2903 132.776 26.2901C132.584 26.2909 132.393 26.2531 132.215 26.1791C132.037 26.105 131.876 25.9962 131.741 25.859C131.606 25.7218 131.499 25.559 131.428 25.3801C131.357 25.2013 131.322 25.0099 131.325 24.8174V12.1813C131.32 11.9857 131.353 11.7909 131.424 11.6085C131.495 11.426 131.601 11.2597 131.738 11.1192C131.874 10.9788 132.037 10.8672 132.217 10.7909C132.398 10.7147 132.591 10.6754 132.787 10.6754C132.983 10.6754 133.177 10.7147 133.357 10.7909C133.537 10.8672 133.7 10.9788 133.836 11.1192C133.973 11.2597 134.08 11.426 134.15 11.6085C134.221 11.7909 134.255 11.9857 134.249 12.1813V17.0531H139.462C140.749 17.0445 141.98 16.5276 142.887 15.615C143.794 14.7024 144.304 13.4682 144.305 12.1813C144.305 11.9879 144.343 11.7964 144.417 11.6177C144.491 11.439 144.6 11.2767 144.736 11.1399C144.873 11.0031 145.036 10.8947 145.214 10.8206C145.393 10.7466 145.584 10.7085 145.778 10.7085C145.971 10.7085 146.163 10.7466 146.341 10.8206C146.52 10.8947 146.682 11.0031 146.819 11.1399C146.956 11.2767 147.064 11.439 147.138 11.6177C147.213 11.7964 147.251 11.9879 147.251 12.1813C147.25 13.2259 147.035 14.2593 146.619 15.2173C146.228 16.1369 145.665 16.9735 144.96 17.6822C144.445 18.1985 143.862 18.6426 143.228 19.0025L147.366 23.8795Z" fill="#F7F7F7"/>
<path d="M166.279 18.5012C166.279 18.8917 166.123 19.2661 165.847 19.5423C165.571 19.8184 165.197 19.9737 164.806 19.974H151.347C150.967 19.9627 150.606 19.8037 150.341 19.5308C150.076 19.2579 149.928 18.8926 149.928 18.5122C149.928 18.1319 150.076 17.7665 150.341 17.4936C150.606 17.2207 150.967 17.0617 151.347 17.0504H164.806C165.194 17.0484 165.566 17.1999 165.842 17.4718C166.118 17.7437 166.275 18.1138 166.279 18.5012Z" fill="#F7F7F7"/>
<path d="M166.279 12.1813C166.276 12.5689 166.119 12.9394 165.843 13.2116C165.567 13.4838 165.194 13.6354 164.806 13.6334H151.347C150.959 13.6334 150.587 13.4793 150.313 13.205C150.039 12.9308 149.885 12.5588 149.885 12.1709C149.885 11.7831 150.039 11.4111 150.313 11.1368C150.587 10.8626 150.959 10.7085 151.347 10.7085H164.806C165.196 10.7095 165.571 10.865 165.846 11.141C166.122 11.417 166.278 11.791 166.279 12.1813Z" fill="#F7F7F7"/>
<path d="M166.279 24.82C166.279 25.2105 166.123 25.5849 165.847 25.861C165.571 26.1371 165.197 26.2924 164.806 26.2927H151.347C150.967 26.2814 150.606 26.1225 150.341 25.8496C150.076 25.5766 149.928 25.2113 149.928 24.8309C149.928 24.4506 150.076 24.0852 150.341 23.8123C150.606 23.5394 150.967 23.3805 151.347 23.3692H164.806C165.194 23.3674 165.566 23.519 165.842 23.7909C166.118 24.0627 166.275 24.4326 166.279 24.82Z" fill="#F7F7F7"/>
<path d="M184.632 12.1813C184.632 12.5661 184.479 12.935 184.207 13.2072C183.935 13.4794 183.566 13.6327 183.181 13.6334H177.901V24.8199C177.905 25.0124 177.87 25.2037 177.798 25.3825C177.727 25.5613 177.62 25.724 177.485 25.8612C177.35 25.9983 177.189 26.1072 177.011 26.1812C176.834 26.2553 176.643 26.2932 176.45 26.2927C176.06 26.2923 175.685 26.1371 175.409 25.8609C175.133 25.5848 174.978 25.2104 174.978 24.8199V13.6334H169.72C169.332 13.6334 168.96 13.4793 168.685 13.205C168.411 12.9308 168.257 12.5588 168.257 12.1709C168.257 11.7831 168.411 11.4111 168.685 11.1368C168.96 10.8626 169.332 10.7085 169.72 10.7085H183.179C183.566 10.7119 183.937 10.8688 184.209 11.1448C184.482 11.4208 184.634 11.7935 184.632 12.1813Z" fill="#F7F7F7"/>
<path d="M90.8993 24.82C90.8995 25.0134 90.8615 25.205 90.7876 25.3838C90.7136 25.5625 90.6051 25.725 90.4683 25.8617C90.3316 25.9985 90.1691 26.107 89.9904 26.181C89.8116 26.2549 89.62 26.2929 89.4266 26.2927H87.2303C87.028 26.2956 86.8273 26.2562 86.6411 26.177C86.4549 26.0978 86.2873 25.9806 86.149 25.8328L81.993 21.3318H76.213V24.82C76.2127 25.2105 76.0574 25.5849 75.7813 25.861C75.5052 26.1371 75.1308 26.2924 74.7403 26.2927C74.5476 26.2934 74.3568 26.2557 74.1789 26.1817C74.0011 26.1077 73.8398 25.9989 73.7045 25.8617C73.5693 25.7245 73.4628 25.5617 73.3913 25.3828C73.3198 25.2039 73.2847 25.0126 73.2882 24.82V19.8604C73.2861 19.4727 73.4378 19.1 73.7099 18.824C73.9821 18.5479 74.3526 18.391 74.7403 18.3876H84.361C84.6778 18.395 84.9928 18.339 85.2876 18.2229C85.5824 18.1068 85.851 17.9329 86.0776 17.7115C86.3042 17.4901 86.4843 17.2256 86.6073 16.9336C86.7302 16.6416 86.7935 16.328 86.7935 16.0111C86.7935 15.6943 86.7302 15.3807 86.6073 15.0887C86.4843 14.7967 86.3042 14.5322 86.0776 14.3108C85.851 14.0894 85.5824 13.9155 85.2876 13.7994C84.9928 13.6833 84.6778 13.6273 84.361 13.6347H74.7403C74.3524 13.6347 73.9804 13.4806 73.7062 13.2064C73.4319 12.9321 73.2778 12.5601 73.2778 12.1723C73.2778 11.7844 73.4319 11.4124 73.7062 11.1382C73.9804 10.8639 74.3524 10.7098 74.7403 10.7098H84.361C85.7668 10.7183 87.1127 11.2799 88.1075 12.273C88.6017 12.7652 88.9937 13.35 89.2613 13.9941C89.5288 14.6381 89.6665 15.3286 89.6665 16.026C89.6665 16.7234 89.5288 17.4139 89.2613 18.0579C88.9937 18.702 88.6017 19.2868 88.1075 19.779C87.4692 20.4219 86.673 20.8857 85.7989 21.1238L87.866 23.3756H89.4162C89.6085 23.3729 89.7994 23.4081 89.9781 23.4792C90.1567 23.5504 90.3196 23.6561 90.4573 23.7902C90.5951 23.9244 90.705 24.0844 90.7809 24.2611C90.8567 24.4378 90.897 24.6277 90.8993 24.82Z" fill="#F7F7F7"/>
<path d="M115.38 18.5012C115.38 21.5049 117.509 23.3704 120.935 23.3704H122.013C123.781 23.3704 125.229 22.8782 126.197 21.9493C126.335 21.8117 126.499 21.703 126.679 21.6295C126.86 21.5561 127.053 21.5195 127.248 21.5217C127.443 21.524 127.636 21.5651 127.814 21.6427C127.993 21.7203 128.155 21.8328 128.289 21.9736C128.424 22.1144 128.53 22.2807 128.599 22.4627C128.669 22.6447 128.702 22.8388 128.695 23.0336C128.689 23.2284 128.644 23.42 128.563 23.5972C128.482 23.7744 128.366 23.9336 128.222 24.0654C126.703 25.5201 124.555 26.2901 122.013 26.2901H120.935C118.372 26.2901 116.208 25.5059 114.682 24.0215C113.952 23.3156 113.385 22.4584 113.021 21.5101C112.643 20.5511 112.45 19.5293 112.453 18.4986C112.451 17.4752 112.643 16.4606 113.021 15.5092C113.39 14.5581 113.955 13.6954 114.679 12.9771C116.21 11.4978 118.374 10.7085 120.937 10.7085H122.016C124.579 10.7085 126.743 11.4927 128.269 12.9797C128.541 13.2534 128.695 13.6223 128.7 14.0082C128.705 14.3941 128.559 14.7666 128.293 15.0467C128.16 15.1847 128 15.2948 127.823 15.3707C127.647 15.4465 127.457 15.4867 127.264 15.4887C127.072 15.4907 126.882 15.4547 126.703 15.3826C126.525 15.3105 126.363 15.2038 126.226 15.0687C125.241 14.1269 123.789 13.6308 122.021 13.6308H120.942C117.509 13.6346 115.38 15.5027 115.38 18.5012Z" fill="#F7F7F7"/>
<path d="M68.4086 30.7304L65.8248 36.1809H65.4205L63.0227 31.1916L60.6159 36.1809H60.2374L57.6445 30.7304H58.0618L60.4208 35.7856L62.8315 30.733H63.2191L65.6207 35.7856L67.9926 30.733L68.4086 30.7304ZM75.3849 33.5028H69.4512C69.477 34.9239 70.7431 35.898 72.4613 35.898C73.3476 35.898 74.1808 35.6396 74.7028 35.0893L74.9767 35.3205C74.3643 35.9083 73.4522 36.2132 72.4613 36.2132C70.4679 36.2132 69.0339 35.0686 69.0339 33.4511C69.0339 31.8337 70.3891 30.6891 72.2133 30.6891C74.0116 30.6891 75.3797 31.813 75.3797 33.4098V33.5028H75.3849ZM69.4693 33.2199H74.9818C74.872 31.9383 73.739 31.0056 72.2172 31.0056C70.6953 31.0056 69.5558 31.9383 69.4641 33.2199H69.4693ZM77.5088 28.3882H77.939V36.1809H77.5088V28.3882ZM80.0629 33.4511C80.0629 31.8233 81.4839 30.6891 83.4218 30.6891C84.4385 30.6891 85.3506 31.0043 85.9242 31.6244L85.5987 31.8453C85.0909 31.2782 84.2951 31.0159 83.4231 31.0159C81.7436 31.0159 80.4918 32.0029 80.4918 33.4524C80.4918 34.9019 81.7423 35.8993 83.4231 35.8993C84.2964 35.8993 85.0909 35.6409 85.5987 35.0699L85.9242 35.2805C85.3506 35.9006 84.4385 36.2158 83.4218 36.2158C81.4788 36.2132 80.0577 35.0789 80.0577 33.4511H80.0629ZM87.0869 33.4511C87.0869 31.8337 88.508 30.6891 90.4097 30.6891C92.3114 30.6891 93.7324 31.8337 93.7324 33.4511C93.7324 35.0686 92.3256 36.2132 90.4097 36.2132C88.4938 36.2132 87.0818 35.0686 87.0818 33.4511H87.0869ZM93.3022 33.4511C93.3022 32.0016 92.0646 31.0146 90.4097 31.0146C88.7548 31.0146 87.5171 32.0016 87.5171 33.4511C87.5171 34.9006 88.7548 35.898 90.4097 35.898C92.0646 35.898 93.2971 34.9006 93.2971 33.4511H93.3022ZM106.932 32.9783V36.1822H106.502V33.0003C106.502 31.698 105.667 31.0146 104.247 31.0146C102.618 31.0146 101.601 31.897 101.601 33.2418V36.1822H101.171V33.0003C101.171 31.698 100.337 31.0146 98.9298 31.0146C97.2878 31.0146 96.284 31.897 96.284 33.2418V36.1822H95.8538V30.7317H96.271V32.0391C96.6883 31.2097 97.6392 30.6839 98.9556 30.6839C100.247 30.6839 101.184 31.1877 101.484 32.1644C101.871 31.282 102.878 30.6839 104.272 30.6839C105.897 30.6891 106.927 31.4758 106.927 32.9783H106.932ZM115.337 33.5028H109.403C109.429 34.9239 110.695 35.898 112.413 35.898C113.3 35.898 114.133 35.6396 114.655 35.0893L114.929 35.3205C114.316 35.9083 113.404 36.2132 112.413 36.2132C110.42 36.2132 108.986 35.0686 108.986 33.4511C108.986 31.8337 110.341 30.6891 112.165 30.6891C113.964 30.6891 115.332 31.813 115.332 33.4098V33.5028H115.337ZM109.42 33.2199H114.927C114.823 31.9383 113.687 31.0056 112.165 31.0056C110.643 31.0056 109.507 31.9383 109.415 33.2199H109.42ZM125.474 32.6527V36.1822H125.056V35.0893C124.639 35.7714 123.779 36.2132 122.541 36.2132C121.016 36.2132 120.117 35.5931 120.117 34.6797C120.117 33.8813 120.742 33.1889 122.579 33.1889H125.042V32.6527C125.042 31.5714 124.325 31.0043 122.957 31.0043C121.979 31.0043 121.119 31.2988 120.546 31.7394L120.311 31.481C120.957 30.9875 121.94 30.6826 122.969 30.6826C124.583 30.6891 125.469 31.3712 125.469 32.6527H125.474ZM125.044 34.6061V33.4718H122.575C121.103 33.4718 120.543 33.9756 120.543 34.6591C120.543 35.4342 121.299 35.92 122.562 35.92C123.826 35.92 124.622 35.4458 125.039 34.6061H125.044ZM134.934 33.4511C134.934 35.0789 133.5 36.2132 131.624 36.2132C130.295 36.2132 129.213 35.6357 128.705 34.6901V36.1809H128.286V28.3882H128.716V32.1902C129.224 31.2549 130.319 30.6878 131.621 30.6878C133.496 30.6891 134.929 31.8233 134.929 33.4511H134.934ZM134.504 33.4511C134.504 32.0016 133.266 31.0146 131.611 31.0146C129.956 31.0146 128.718 32.0016 128.718 33.4511C128.718 34.9006 129.956 35.898 131.611 35.898C133.266 35.898 134.498 34.9006 134.498 33.4511H134.504ZM136.289 33.4511C136.289 31.8337 137.71 30.6891 139.612 30.6891C141.513 30.6891 142.934 31.8337 142.934 33.4511C142.934 35.0686 141.528 36.2132 139.612 36.2132C137.696 36.2132 136.284 35.0686 136.284 33.4511H136.289ZM142.504 33.4511C142.504 32.0016 141.267 31.0146 139.612 31.0146C137.957 31.0146 136.719 32.0016 136.719 33.4511C136.719 34.9006 137.957 35.898 139.612 35.898C141.267 35.898 142.496 34.9006 142.496 33.4511H142.504ZM149.762 32.6527V36.1822H149.344V35.0893C148.926 35.7714 148.067 36.2132 146.828 36.2132C145.304 36.2132 144.405 35.5931 144.405 34.6797C144.405 33.8813 145.03 33.1889 146.867 33.1889H149.329V32.6527C149.329 31.5714 148.612 31.0043 147.244 31.0043C146.266 31.0043 145.407 31.2988 144.834 31.7394L144.598 31.481C145.244 30.9875 146.227 30.6826 147.257 30.6826C148.871 30.6891 149.757 31.3712 149.757 32.6527H149.762ZM149.332 34.6061V33.4718H146.87C145.397 33.4718 144.837 33.9756 144.837 34.6591C144.837 35.4342 145.593 35.92 146.857 35.92C148.12 35.92 148.911 35.4458 149.327 34.6061H149.332ZM155.626 30.6891V31.0353H155.508C153.932 31.0353 153.006 31.8866 153.006 33.2832V36.1822H152.573V30.7317H152.991V32.0391C153.379 31.1826 154.292 30.6891 155.621 30.6891H155.626ZM163.327 28.3882V36.1809H162.909V34.6901C162.401 35.6357 161.318 36.2132 159.99 36.2132C158.113 36.2132 156.68 35.0789 156.68 33.4511C156.68 31.8233 158.113 30.6891 159.99 30.6891C161.294 30.6891 162.388 31.2562 162.896 32.1915V28.3895H163.326L163.327 28.3882ZM162.897 33.4511C162.897 32.0016 161.659 31.0146 160.004 31.0146C158.349 31.0146 157.112 32.0016 157.112 33.4511C157.112 34.9006 158.349 35.898 160.004 35.898C161.659 35.898 162.892 34.9006 162.892 33.4511H162.897Z" fill="url(#paint1_linear_7_1497)"/>
<defs>
<linearGradient id="paint0_linear_7_1497" x1="30.7007" y1="1.9947" x2="-0.0387281" y2="42.001" gradientUnits="userSpaceOnUse">
<stop stop-color="#00FFA3"/>
<stop offset="1" stop-color="#DC1FFF"/>
</linearGradient>
<linearGradient id="paint1_linear_7_1497" x1="125.887" y1="6.77471" x2="96.7413" y2="57.257" gradientUnits="userSpaceOnUse">
<stop stop-color="#00FFA3"/>
<stop offset="1" stop-color="#DC1FFF"/>
</linearGradient>
</defs>
</svg>
