<svg width="20" height="20" viewBox="0 0 20 20" fill="none" xmlns="http://www.w3.org/2000/svg">
<path d="M10.1739 0C8.93943 0 7.93848 4.4776 7.93848 10C7.93848 15.5224 8.93943 20 10.1739 20C11.4075 20 12.4084 15.5224 12.4084 10C12.4084 4.4776 11.4075 0 10.1739 0ZM10.3284 19.4347C10.1873 19.6234 10.0452 19.4824 10.0452 19.4824C9.47708 18.8227 9.193 17.5996 9.193 17.5996C8.19872 14.3994 8.43514 7.52908 8.43514 7.52908C8.90225 2.07531 9.75258 0.786463 10.0414 0.500477C10.071 0.471146 10.11 0.453236 10.1516 0.449921C10.1931 0.446606 10.2345 0.458099 10.2683 0.482364C10.6878 0.780744 11.0405 2.02383 11.0405 2.02383C12.0796 5.88275 11.9852 9.50524 11.9852 9.50524C12.0796 12.6587 11.4647 16.1878 11.4647 16.1878C10.9909 18.8704 10.3284 19.4347 10.3284 19.4347Z" fill="#F5F5F6"/>
<path d="M18.8475 5.02384C18.2326 3.95234 13.8523 5.31268 9.06007 8.06102C4.26789 10.8093 0.887525 13.9047 1.50049 14.9762C2.11536 16.0477 6.49668 14.6873 11.2889 11.939C16.081 9.19066 19.4614 6.09438 18.8475 5.02384ZM2.06674 14.8284C1.83223 14.7998 1.88562 14.6053 1.88562 14.6053C2.17351 13.7855 3.09248 12.9295 3.09248 12.9295C5.3737 10.4747 11.4519 7.26121 11.4519 7.26121C16.4147 4.95234 17.9562 5.04958 18.347 5.15634C18.3874 5.16742 18.4225 5.19249 18.4461 5.22707C18.4696 5.26164 18.4801 5.30348 18.4757 5.3451C18.428 5.85701 17.5224 6.7817 17.5224 6.7817C14.695 9.60439 11.5053 11.327 11.5053 11.327C8.81698 12.9781 5.44901 14.1992 5.44901 14.1992C2.88657 15.122 2.06674 14.8284 2.06674 14.8284Z" fill="#F5F5F6"/>
<path d="M18.8257 15.0115C19.4454 13.9438 16.0736 10.8332 11.2967 8.06393C6.5207 5.29558 2.14129 3.91903 1.5226 4.98862C0.902966 6.05916 4.2757 9.16688 9.05359 11.9362C13.8324 14.7045 18.2071 16.0811 18.8257 15.0115ZM1.93347 5.40139C1.841 5.18404 2.03452 5.13161 2.03452 5.13161C2.88962 4.96955 4.09076 5.33848 4.09076 5.33848C7.35769 6.08204 13.1832 9.73123 13.1832 9.73123C17.6685 12.8695 18.3567 14.2527 18.4597 14.6445C18.4701 14.6847 18.466 14.7274 18.448 14.7649C18.43 14.8024 18.3994 14.8323 18.3615 14.8494C17.8944 15.0639 16.6408 14.7446 16.6408 14.7446C12.78 13.7093 9.69229 11.8132 9.69229 11.8132C6.91822 10.3166 4.17465 8.01436 4.17465 8.01436C2.08981 6.2584 1.93443 5.40235 1.93443 5.40235L1.93252 5.40139H1.93347Z" fill="#F5F5F6"/>
<path d="M10.1505 11.153C10.8002 11.153 11.3268 10.6263 11.3268 9.97665C11.3268 9.32697 10.8002 8.80029 10.1505 8.80029C9.50079 8.80029 8.97412 9.32697 8.97412 9.97665C8.97412 10.6263 9.50079 11.153 10.1505 11.153Z" fill="#F5F5F6"/>
<path d="M14.9743 6.41146C15.5008 6.41146 15.9276 5.98466 15.9276 5.45817C15.9276 4.93168 15.5008 4.50488 14.9743 4.50488C14.4478 4.50488 14.021 4.93168 14.021 5.45817C14.021 5.98466 14.4478 6.41146 14.9743 6.41146Z" fill="#F5F5F6"/>
<path d="M3.7736 8.81234C4.30009 8.81234 4.72689 8.38554 4.72689 7.85905C4.72689 7.33256 4.30009 6.90576 3.7736 6.90576C3.24711 6.90576 2.82031 7.33256 2.82031 7.85905C2.82031 8.38554 3.24711 8.81234 3.7736 8.81234Z" fill="#F5F5F6"/>
<path d="M8.76237 17.4701C9.28886 17.4701 9.71566 17.0433 9.71566 16.5168C9.71566 15.9903 9.28886 15.5635 8.76237 15.5635C8.23588 15.5635 7.80908 15.9903 7.80908 16.5168C7.80908 17.0433 8.23588 17.4701 8.76237 17.4701Z" fill="#F5F5F6"/>
</svg>
