<svg width="20" height="20" viewBox="0 0 20 20" fill="none" xmlns="http://www.w3.org/2000/svg">
<g clip-path="url(#clip0_6791_10328)">
<path d="M10 19C5.03742 19 1 14.9626 1 10M10 19C14.9626 19 19 14.9626 19 10M10 19C12.1859 19 14.6307 14.9626 14.6307 10C14.6307 5.03745 12.1859 1 10 1M10 19C7.81408 19 5.36929 14.9626 5.36929 10C5.36929 5.03745 7.81408 1 10 1M10 19V1M1 10C1 5.03742 5.03742 1 10 1M1 10H19M10 1C14.9626 1 19 5.03742 19 10M3.38265 3.90639C5.02842 4.96099 7.38582 5.70504 9.99993 5.70504C12.6141 5.70504 14.9716 4.96096 16.6174 3.90631M16.6174 16.0937C14.9716 15.0391 12.6142 14.2951 10.0001 14.2951C7.38589 14.2951 5.02845 15.0391 3.38265 16.0938" stroke="#00040F" stroke-width="1.2" stroke-miterlimit="10"/>
</g>
<defs>
<clipPath id="clip0_6791_10328">
<rect width="20" height="20" fill="white"/>
</clipPath>
</defs>
</svg>
