<svg width="32" height="32" viewBox="0 0 32 32" fill="none" xmlns="http://www.w3.org/2000/svg">
<g filter="url(#filter0_bi_6825_12746)">
<path d="M4.58644 18.667C4.87016 18.667 5.11648 18.4793 5.16391 18.219C5.56174 16.0939 7.70187 12.4783 13.0052 11.8667C13.5686 11.8017 14.0417 12.2597 14.0417 12.8269V14.6861C14.0417 14.8869 14.1643 15.0708 14.3595 15.1627C14.5547 15.2545 14.7896 15.2389 14.9682 15.1222L23.7546 9.38074C23.9086 9.2801 24 9.11762 24 8.94451C24 8.77137 23.9086 8.60892 23.7546 8.50833L14.9682 2.76685C14.7896 2.65014 14.5546 2.63452 14.3595 2.7264C14.1643 2.81827 14.0417 3.00224 14.0417 3.20304V5.2317C14.0417 5.74877 13.6481 6.17618 13.1383 6.263C9.36489 6.9057 4 9.66516 4 18.1309C4 18.4098 4.23379 18.6422 4.53762 18.6651C4.55398 18.6663 4.57027 18.667 4.58644 18.667Z" fill="#0CC2FF"/>
</g>
<g filter="url(#filter1_bi_6825_12746)">
<path d="M27.4136 13.3335C27.1298 13.3335 26.8835 13.5212 26.8361 13.7814C26.4383 15.9066 24.2981 19.5222 18.9948 20.1338C18.4314 20.1987 17.9583 19.7408 17.9583 19.1736V17.3144C17.9583 17.1136 17.8357 16.9297 17.6405 16.8378C17.4453 16.7459 17.2104 16.7616 17.0318 16.8782L8.24535 22.6198C8.09137 22.7204 8 22.8829 8 23.056C8 23.2291 8.09137 23.3916 8.24535 23.4922L17.0318 29.2336C17.2104 29.3504 17.4454 29.366 17.6405 29.2741C17.8357 29.1822 17.9583 28.9982 17.9583 28.7975V26.7688C17.9583 26.2517 18.3519 25.8243 18.8617 25.7375C22.6351 25.0948 28 22.3353 28 13.8696C28 13.5906 27.7662 13.3583 27.4624 13.3354C27.446 13.3341 27.4297 13.3335 27.4136 13.3335Z" fill="black" fill-opacity="0.1"/>
<path d="M27.4136 13.3335C27.1298 13.3335 26.8835 13.5212 26.8361 13.7814C26.4383 15.9066 24.2981 19.5222 18.9948 20.1338C18.4314 20.1987 17.9583 19.7408 17.9583 19.1736V17.3144C17.9583 17.1136 17.8357 16.9297 17.6405 16.8378C17.4453 16.7459 17.2104 16.7616 17.0318 16.8782L8.24535 22.6198C8.09137 22.7204 8 22.8829 8 23.056C8 23.2291 8.09137 23.3916 8.24535 23.4922L17.0318 29.2336C17.2104 29.3504 17.4454 29.366 17.6405 29.2741C17.8357 29.1822 17.9583 28.9982 17.9583 28.7975V26.7688C17.9583 26.2517 18.3519 25.8243 18.8617 25.7375C22.6351 25.0948 28 22.3353 28 13.8696C28 13.5906 27.7662 13.3583 27.4624 13.3354C27.446 13.3341 27.4297 13.3335 27.4136 13.3335Z" fill="url(#paint0_linear_6825_12746)"/>
</g>
<g filter="url(#filter2_bi_6825_12746)">
<path fill-rule="evenodd" clip-rule="evenodd" d="M27.328 13.8711L27.3276 13.8734C26.8947 16.1854 24.6009 19.9906 19.0521 20.6305C18.166 20.7327 17.4583 20.0131 17.4583 19.1736V17.3157C17.4581 17.3151 17.4576 17.3141 17.4566 17.3126C17.4535 17.308 17.4452 17.2985 17.4276 17.2902C17.3873 17.2712 17.3367 17.2763 17.3053 17.2968M17.3053 17.2968L8.51888 23.0383C8.51887 23.0383 8.51887 23.0383 8.51886 23.0383C8.50723 23.0459 8.50236 23.0529 8.50074 23.0558C8.5007 23.0559 8.50066 23.0559 8.50063 23.056C8.50066 23.056 8.50069 23.0561 8.50072 23.0562C8.50233 23.059 8.50718 23.066 8.51881 23.0736L8.51886 23.0736L17.3053 28.8151L17.3054 28.8151C17.3367 28.8356 17.3873 28.8407 17.4275 28.8217C17.4452 28.8134 17.4535 28.8039 17.4566 28.7992C17.4576 28.7978 17.4581 28.7968 17.4583 28.7962V26.7688C17.4583 25.9859 18.0502 25.3685 18.7777 25.2446C20.5935 24.9353 22.7713 24.1194 24.4908 22.3851C26.1994 20.6619 27.4998 17.988 27.5 13.8706C27.4993 13.869 27.4974 13.8658 27.4927 13.8612C27.482 13.8505 27.4598 13.8367 27.425 13.834C27.4202 13.8336 27.4164 13.8335 27.4136 13.8335C27.3816 13.8335 27.3566 13.8442 27.3417 13.8557C27.3345 13.8613 27.3308 13.866 27.3293 13.8685C27.3285 13.8697 27.3282 13.8704 27.3281 13.8707L27.328 13.8711M27.5003 13.8718C27.5003 13.8718 27.5002 13.8714 27.5001 13.8707L27.5003 13.8718ZM8.24535 22.6198L17.0318 16.8782C17.2104 16.7616 17.4453 16.7459 17.6405 16.8378C17.8357 16.9297 17.9583 17.1136 17.9583 17.3144V19.1736C17.9583 19.7408 18.4314 20.1987 18.9948 20.1338C24.2981 19.5222 26.4383 15.9066 26.8361 13.7814C26.8835 13.5212 27.1298 13.3335 27.4136 13.3335C27.4297 13.3335 27.446 13.3341 27.4624 13.3354C27.7662 13.3583 28 13.5906 28 13.8696C28 22.3353 22.6351 25.0948 18.8617 25.7375C18.3519 25.8243 17.9583 26.2517 17.9583 26.7688V28.7975C17.9583 28.9982 17.8357 29.1822 17.6405 29.2741C17.4454 29.366 17.2104 29.3504 17.0318 29.2336L8.24535 23.4922C8.09137 23.3916 8 23.2291 8 23.056C8 22.8829 8.09137 22.7204 8.24535 22.6198Z" fill="black" fill-opacity="0.1"/>
<path fill-rule="evenodd" clip-rule="evenodd" d="M27.328 13.8711L27.3276 13.8734C26.8947 16.1854 24.6009 19.9906 19.0521 20.6305C18.166 20.7327 17.4583 20.0131 17.4583 19.1736V17.3157C17.4581 17.3151 17.4576 17.3141 17.4566 17.3126C17.4535 17.308 17.4452 17.2985 17.4276 17.2902C17.3873 17.2712 17.3367 17.2763 17.3053 17.2968M17.3053 17.2968L8.51888 23.0383C8.51887 23.0383 8.51887 23.0383 8.51886 23.0383C8.50723 23.0459 8.50236 23.0529 8.50074 23.0558C8.5007 23.0559 8.50066 23.0559 8.50063 23.056C8.50066 23.056 8.50069 23.0561 8.50072 23.0562C8.50233 23.059 8.50718 23.066 8.51881 23.0736L8.51886 23.0736L17.3053 28.8151L17.3054 28.8151C17.3367 28.8356 17.3873 28.8407 17.4275 28.8217C17.4452 28.8134 17.4535 28.8039 17.4566 28.7992C17.4576 28.7978 17.4581 28.7968 17.4583 28.7962V26.7688C17.4583 25.9859 18.0502 25.3685 18.7777 25.2446C20.5935 24.9353 22.7713 24.1194 24.4908 22.3851C26.1994 20.6619 27.4998 17.988 27.5 13.8706C27.4993 13.869 27.4974 13.8658 27.4927 13.8612C27.482 13.8505 27.4598 13.8367 27.425 13.834C27.4202 13.8336 27.4164 13.8335 27.4136 13.8335C27.3816 13.8335 27.3566 13.8442 27.3417 13.8557C27.3345 13.8613 27.3308 13.866 27.3293 13.8685C27.3285 13.8697 27.3282 13.8704 27.3281 13.8707L27.328 13.8711M27.5003 13.8718C27.5003 13.8718 27.5002 13.8714 27.5001 13.8707L27.5003 13.8718ZM8.24535 22.6198L17.0318 16.8782C17.2104 16.7616 17.4453 16.7459 17.6405 16.8378C17.8357 16.9297 17.9583 17.1136 17.9583 17.3144V19.1736C17.9583 19.7408 18.4314 20.1987 18.9948 20.1338C24.2981 19.5222 26.4383 15.9066 26.8361 13.7814C26.8835 13.5212 27.1298 13.3335 27.4136 13.3335C27.4297 13.3335 27.446 13.3341 27.4624 13.3354C27.7662 13.3583 28 13.5906 28 13.8696C28 22.3353 22.6351 25.0948 18.8617 25.7375C18.3519 25.8243 17.9583 26.2517 17.9583 26.7688V28.7975C17.9583 28.9982 17.8357 29.1822 17.6405 29.2741C17.4454 29.366 17.2104 29.3504 17.0318 29.2336L8.24535 23.4922C8.09137 23.3916 8 23.2291 8 23.056C8 22.8829 8.09137 22.7204 8.24535 22.6198Z" fill="url(#paint1_linear_6825_12746)"/>
</g>
<defs>
<filter id="filter0_bi_6825_12746" x="-2.62069" y="-3.9537" width="33.2414" height="29.2414" filterUnits="userSpaceOnUse" color-interpolation-filters="sRGB">
<feFlood flood-opacity="0" result="BackgroundImageFix"/>
<feGaussianBlur in="BackgroundImageFix" stdDeviation="3.31034"/>
<feComposite in2="SourceAlpha" operator="in" result="effect1_backgroundBlur_6825_12746"/>
<feBlend mode="normal" in="SourceGraphic" in2="effect1_backgroundBlur_6825_12746" result="shape"/>
<feColorMatrix in="SourceAlpha" type="matrix" values="0 0 0 0 0 0 0 0 0 0 0 0 0 0 0 0 0 0 127 0" result="hardAlpha"/>
<feOffset dy="2.2069"/>
<feGaussianBlur stdDeviation="1.65517"/>
<feComposite in2="hardAlpha" operator="arithmetic" k2="-1" k3="1"/>
<feColorMatrix type="matrix" values="0 0 0 0 1 0 0 0 0 1 0 0 0 0 1 0 0 0 0.4 0"/>
<feBlend mode="normal" in2="shape" result="effect2_innerShadow_6825_12746"/>
</filter>
<filter id="filter1_bi_6825_12746" x="1.37931" y="6.71281" width="33.2414" height="29.2414" filterUnits="userSpaceOnUse" color-interpolation-filters="sRGB">
<feFlood flood-opacity="0" result="BackgroundImageFix"/>
<feGaussianBlur in="BackgroundImageFix" stdDeviation="3.31034"/>
<feComposite in2="SourceAlpha" operator="in" result="effect1_backgroundBlur_6825_12746"/>
<feBlend mode="normal" in="SourceGraphic" in2="effect1_backgroundBlur_6825_12746" result="shape"/>
<feColorMatrix in="SourceAlpha" type="matrix" values="0 0 0 0 0 0 0 0 0 0 0 0 0 0 0 0 0 0 127 0" result="hardAlpha"/>
<feOffset dy="2.2069"/>
<feGaussianBlur stdDeviation="1.65517"/>
<feComposite in2="hardAlpha" operator="arithmetic" k2="-1" k3="1"/>
<feColorMatrix type="matrix" values="0 0 0 0 1 0 0 0 0 1 0 0 0 0 1 0 0 0 0.4 0"/>
<feBlend mode="normal" in2="shape" result="effect2_innerShadow_6825_12746"/>
</filter>
<filter id="filter2_bi_6825_12746" x="1.37931" y="6.71281" width="33.2414" height="29.2414" filterUnits="userSpaceOnUse" color-interpolation-filters="sRGB">
<feFlood flood-opacity="0" result="BackgroundImageFix"/>
<feGaussianBlur in="BackgroundImageFix" stdDeviation="3.31034"/>
<feComposite in2="SourceAlpha" operator="in" result="effect1_backgroundBlur_6825_12746"/>
<feBlend mode="normal" in="SourceGraphic" in2="effect1_backgroundBlur_6825_12746" result="shape"/>
<feColorMatrix in="SourceAlpha" type="matrix" values="0 0 0 0 0 0 0 0 0 0 0 0 0 0 0 0 0 0 127 0" result="hardAlpha"/>
<feOffset dy="2.2069"/>
<feGaussianBlur stdDeviation="1.65517"/>
<feComposite in2="hardAlpha" operator="arithmetic" k2="-1" k3="1"/>
<feColorMatrix type="matrix" values="0 0 0 0 1 0 0 0 0 1 0 0 0 0 1 0 0 0 0.4 0"/>
<feBlend mode="normal" in2="shape" result="effect2_innerShadow_6825_12746"/>
</filter>
<linearGradient id="paint0_linear_6825_12746" x1="27.8825" y1="15.0962" x2="14.219" y2="29.8941" gradientUnits="userSpaceOnUse">
<stop stop-color="#0CC2FF" stop-opacity="0.29"/>
<stop offset="1" stop-color="#0CC2FF"/>
</linearGradient>
<linearGradient id="paint1_linear_6825_12746" x1="27.8825" y1="15.0962" x2="14.219" y2="29.8941" gradientUnits="userSpaceOnUse">
<stop stop-color="#0CC2FF" stop-opacity="0.29"/>
<stop offset="1" stop-color="#0CC2FF"/>
</linearGradient>
</defs>
</svg>
