<svg width="32" height="32" viewBox="0 0 32 32" fill="none" xmlns="http://www.w3.org/2000/svg">
<g filter="url(#filter0_i_3052_562)">
<path d="M4 6.66667C4 5.19391 5.19391 4 6.66667 4H16C17.4728 4 18.6667 5.19391 18.6667 6.66667V12C18.6667 13.4728 17.4728 14.6667 16 14.6667H6.66667C5.19391 14.6667 4 13.4728 4 12V6.66667Z" fill="#5A5D68"/>
</g>
<path d="M4.25 6.66667C4.25 5.33198 5.33198 4.25 6.66667 4.25H16C17.3347 4.25 18.4167 5.33198 18.4167 6.66667V12C18.4167 13.3347 17.3347 14.4167 16 14.4167H6.66667C5.33198 14.4167 4.25 13.3347 4.25 12V6.66667Z" stroke="#464955" stroke-width="0.5"/>
<g filter="url(#filter1_i_3052_562)">
<path d="M13.3333 19.9997C13.3333 18.5269 14.5273 17.333 16 17.333H25.3333C26.8061 17.333 28 18.5269 28 19.9997V25.333C28 26.8058 26.8061 27.9997 25.3333 27.9997H16C14.5273 27.9997 13.3333 26.8058 13.3333 25.333V19.9997Z" fill="#5A5D68"/>
</g>
<path d="M13.5833 19.9997C13.5833 18.665 14.6653 17.583 16 17.583H25.3333C26.668 17.583 27.75 18.665 27.75 19.9997V25.333C27.75 26.6677 26.668 27.7497 25.3333 27.7497H16C14.6653 27.7497 13.5833 26.6677 13.5833 25.333V19.9997Z" stroke="#464955" stroke-width="0.5"/>
<g filter="url(#filter2_i_3052_562)">
<path d="M4 19.9997C4 18.5269 5.19391 17.333 6.66667 17.333H8C9.47276 17.333 10.6667 18.5269 10.6667 19.9997V25.333C10.6667 26.8058 9.47276 27.9997 8 27.9997H6.66667C5.19391 27.9997 4 26.8058 4 25.333V19.9997Z" fill="#5A5D68"/>
</g>
<path d="M4.25 19.9997C4.25 18.665 5.33198 17.583 6.66667 17.583H8C9.33469 17.583 10.4167 18.665 10.4167 19.9997V25.333C10.4167 26.6677 9.33469 27.7497 8 27.7497H6.66667C5.33198 27.7497 4.25 26.6677 4.25 25.333V19.9997Z" stroke="#464955" stroke-width="0.5"/>
<path d="M21.3333 5.33333C21.3333 4.59695 21.9303 4 22.6667 4H26.6667C27.4031 4 28 4.59695 28 5.33333V6.66667C28 7.40305 27.4031 8 26.6667 8H22.6667C21.9303 8 21.3333 7.40305 21.3333 6.66667V5.33333Z" fill="#C0C1C5"/>
<path d="M21.3333 12.0003C21.3333 11.2639 21.9303 10.667 22.6667 10.667H26.6667C27.4031 10.667 28 11.2639 28 12.0003V13.3337C28 14.07 27.4031 14.667 26.6667 14.667H22.6667C21.9303 14.667 21.3333 14.07 21.3333 13.3337V12.0003Z" fill="#C0C1C5"/>
<defs>
<filter id="filter0_i_3052_562" x="4" y="4" width="14.6667" height="14.667" filterUnits="userSpaceOnUse" color-interpolation-filters="sRGB">
<feFlood flood-opacity="0" result="BackgroundImageFix"/>
<feBlend mode="normal" in="SourceGraphic" in2="BackgroundImageFix" result="shape"/>
<feColorMatrix in="SourceAlpha" type="matrix" values="0 0 0 0 0 0 0 0 0 0 0 0 0 0 0 0 0 0 127 0" result="hardAlpha"/>
<feOffset dy="4"/>
<feGaussianBlur stdDeviation="2"/>
<feComposite in2="hardAlpha" operator="arithmetic" k2="-1" k3="1"/>
<feColorMatrix type="matrix" values="0 0 0 0 0 0 0 0 0 0 0 0 0 0 0 0 0 0 0.25 0"/>
<feBlend mode="normal" in2="shape" result="effect1_innerShadow_3052_562"/>
</filter>
<filter id="filter1_i_3052_562" x="13.3333" y="17.333" width="14.6667" height="14.667" filterUnits="userSpaceOnUse" color-interpolation-filters="sRGB">
<feFlood flood-opacity="0" result="BackgroundImageFix"/>
<feBlend mode="normal" in="SourceGraphic" in2="BackgroundImageFix" result="shape"/>
<feColorMatrix in="SourceAlpha" type="matrix" values="0 0 0 0 0 0 0 0 0 0 0 0 0 0 0 0 0 0 127 0" result="hardAlpha"/>
<feOffset dy="4"/>
<feGaussianBlur stdDeviation="2"/>
<feComposite in2="hardAlpha" operator="arithmetic" k2="-1" k3="1"/>
<feColorMatrix type="matrix" values="0 0 0 0 0 0 0 0 0 0 0 0 0 0 0 0 0 0 0.25 0"/>
<feBlend mode="normal" in2="shape" result="effect1_innerShadow_3052_562"/>
</filter>
<filter id="filter2_i_3052_562" x="4" y="17.333" width="6.66666" height="14.667" filterUnits="userSpaceOnUse" color-interpolation-filters="sRGB">
<feFlood flood-opacity="0" result="BackgroundImageFix"/>
<feBlend mode="normal" in="SourceGraphic" in2="BackgroundImageFix" result="shape"/>
<feColorMatrix in="SourceAlpha" type="matrix" values="0 0 0 0 0 0 0 0 0 0 0 0 0 0 0 0 0 0 127 0" result="hardAlpha"/>
<feOffset dy="4"/>
<feGaussianBlur stdDeviation="2"/>
<feComposite in2="hardAlpha" operator="arithmetic" k2="-1" k3="1"/>
<feColorMatrix type="matrix" values="0 0 0 0 0 0 0 0 0 0 0 0 0 0 0 0 0 0 0.25 0"/>
<feBlend mode="normal" in2="shape" result="effect1_innerShadow_3052_562"/>
</filter>
</defs>
</svg>
