<svg width="278" height="51" viewBox="0 0 278 51" fill="none" xmlns="http://www.w3.org/2000/svg">
<path d="M240.013 25.7368C238.614 24.7827 237.087 24.1467 235.561 23.3198C234.606 22.811 233.589 22.3021 232.762 21.6025C231.363 20.4576 231.617 18.1678 233.144 17.1501C235.243 15.7508 238.741 16.514 239.122 19.3763C239.122 19.4399 239.186 19.5035 239.25 19.5035H242.43C242.494 19.5035 242.557 19.4399 242.557 19.3763C242.366 17.4045 241.603 15.7508 240.204 14.6695C238.868 13.6518 237.341 13.1429 235.688 13.1429C227.292 13.1429 226.529 22.0477 231.045 24.8463C231.553 25.1644 236.006 27.3906 237.596 28.4083C239.186 29.3623 239.631 31.1433 238.995 32.5426C238.359 33.8147 236.769 34.7052 235.179 34.578C233.398 34.4508 232.062 33.4967 231.553 32.0338C231.49 31.7793 231.426 31.2705 231.426 31.0161C231.426 30.9525 231.363 30.8889 231.299 30.8889H227.864C227.801 30.8889 227.737 30.9525 227.737 31.0161C227.737 33.4967 228.373 34.896 230.027 36.1681C231.617 37.3766 233.334 37.8855 235.179 37.8855C239.886 37.8855 242.303 35.214 242.812 32.479C243.193 29.8076 242.43 27.3906 240.013 25.7368Z" fill="#00040F"/>
<path d="M90.0944 13.6519H88.5678H86.9141C86.8505 13.6519 86.7869 13.7155 86.7869 13.7155L83.9246 23.0655C83.861 23.1927 83.7338 23.1927 83.6702 23.0655L80.808 13.7155C80.808 13.6518 80.7444 13.6519 80.6808 13.6519H79.027H77.5005H75.4651C75.4015 13.6519 75.3379 13.7155 75.3379 13.7791V37.6311C75.3379 37.6947 75.4015 37.7583 75.4651 37.7583H78.8998C78.9634 37.7583 79.027 37.6947 79.027 37.6311V19.5036C79.027 19.3763 79.2178 19.3127 79.2814 19.4399L82.1437 28.8536L82.3345 29.4896C82.3345 29.5532 82.3981 29.5532 82.4617 29.5532H85.1331C85.1967 29.5532 85.2603 29.4896 85.2603 29.4896L85.4512 28.8536L88.3134 19.4399C88.377 19.3127 88.5678 19.3127 88.5678 19.5036V37.6311C88.5678 37.6947 88.6314 37.7583 88.695 37.7583H92.1297C92.1933 37.7583 92.2569 37.6947 92.2569 37.6311V13.7791C92.2569 13.7155 92.1933 13.6519 92.1297 13.6519H90.0944Z" fill="#00040F"/>
<path d="M187.157 13.6519C187.093 13.6519 187.029 13.7155 187.029 13.7155L184.167 23.0655C184.104 23.1927 183.976 23.1927 183.913 23.0655L181.051 13.7155C181.051 13.6518 180.987 13.6519 180.923 13.6519H175.644C175.58 13.6519 175.517 13.7155 175.517 13.7791V37.6311C175.517 37.6947 175.58 37.7583 175.644 37.7583H179.079C179.142 37.7583 179.206 37.6947 179.206 37.6311V19.5036C179.206 19.3763 179.397 19.3127 179.46 19.4399L182.323 28.8536L182.513 29.4896C182.513 29.5532 182.577 29.5532 182.641 29.5532H185.312C185.376 29.5532 185.439 29.4896 185.439 29.4896L185.63 28.8536L188.492 19.4399C188.556 19.3127 188.747 19.3127 188.747 19.5036V37.6311C188.747 37.6947 188.81 37.7583 188.874 37.7583H192.309C192.372 37.7583 192.436 37.6947 192.436 37.6311V13.7791C192.436 13.7155 192.372 13.6519 192.309 13.6519H187.157Z" fill="#00040F"/>
<path d="M142.633 13.6519H136.208H132.774H126.286C126.222 13.6519 126.159 13.7155 126.159 13.7791V16.7685C126.159 16.8321 126.222 16.8957 126.286 16.8957H132.583V37.6311C132.583 37.6947 132.646 37.7583 132.71 37.7583H136.145C136.208 37.7583 136.272 37.6947 136.272 37.6311V16.8957H142.569C142.633 16.8957 142.696 16.8321 142.696 16.7685V13.7791C142.76 13.7155 142.696 13.6519 142.633 13.6519Z" fill="#00040F"/>
<path d="M162.986 37.7583H166.103C166.166 37.7583 166.23 37.6947 166.23 37.5675L159.742 13.6519C159.742 13.5883 159.678 13.5883 159.615 13.5883H158.406H156.307H155.099C155.035 13.5883 154.972 13.6519 154.972 13.6519L148.484 37.5675C148.484 37.6311 148.547 37.7583 148.611 37.7583H151.728C151.791 37.7583 151.855 37.6947 151.855 37.6947L153.763 30.6981C153.763 30.6345 153.827 30.6345 153.89 30.6345H160.823C160.887 30.6345 160.951 30.6981 160.951 30.6981L162.859 37.6947C162.859 37.6947 162.922 37.7583 162.986 37.7583ZM154.717 27.1998L157.261 17.8498C157.325 17.7226 157.452 17.7226 157.516 17.8498L160.06 27.1998C160.06 27.2634 159.996 27.3906 159.933 27.3906H154.908C154.781 27.3906 154.717 27.2634 154.717 27.1998Z" fill="#00040F"/>
<path d="M216.542 37.7583H219.659C219.723 37.7583 219.786 37.6947 219.786 37.5675L213.298 13.6519C213.298 13.5883 213.235 13.5883 213.171 13.5883H211.963H209.864H208.655C208.592 13.5883 208.528 13.6519 208.528 13.6519L202.04 37.5675C202.04 37.6311 202.104 37.7583 202.167 37.7583H205.284C205.348 37.7583 205.411 37.6947 205.411 37.6947L207.32 30.6981C207.32 30.6345 207.383 30.6345 207.447 30.6345H214.38C214.443 30.6345 214.507 30.6981 214.507 30.6981L216.415 37.6947C216.415 37.6947 216.479 37.7583 216.542 37.7583ZM208.274 27.1998L210.818 17.8498C210.881 17.7226 211.009 17.7226 211.072 17.8498L213.616 27.1998C213.616 27.2634 213.553 27.3906 213.489 27.3906H208.464C208.337 27.3906 208.274 27.2634 208.274 27.1998Z" fill="#00040F"/>
<path d="M106.25 34.1964V26.8182C106.25 26.7546 106.314 26.691 106.378 26.691H115.6C115.664 26.691 115.728 26.6274 115.728 26.5638V23.5743C115.728 23.5107 115.664 23.4471 115.6 23.4471H106.378C106.314 23.4471 106.25 23.3835 106.25 23.3199V17.0229C106.25 16.9593 106.314 16.8957 106.378 16.8957H116.809C116.873 16.8957 116.936 16.8321 116.936 16.7685V13.7791C116.936 13.7155 116.873 13.6519 116.809 13.6519H106.25H102.688C102.625 13.6519 102.561 13.7155 102.561 13.7791V16.8957V23.5107V26.7546V34.3872V37.6311C102.561 37.6947 102.625 37.7583 102.688 37.7583H106.25H117.254C117.318 37.7583 117.381 37.6947 117.381 37.6311V34.5144C117.381 34.4508 117.318 34.3872 117.254 34.3872H106.314C106.314 34.3236 106.25 34.26 106.25 34.1964Z" fill="#00040F"/>
<path d="M271.561 37.5039L259.603 25.1644C259.539 25.1008 259.539 25.0372 259.603 24.9736L270.352 13.7791C270.416 13.7155 270.352 13.5883 270.289 13.5883H265.9C265.836 13.5883 265.836 13.5883 265.836 13.6519L256.677 23.1927C256.613 23.2563 256.486 23.1927 256.486 23.1291V13.8427C256.486 13.7791 256.423 13.7155 256.359 13.7155H252.861C252.797 13.7155 252.733 13.7791 252.733 13.8427V37.6947C252.733 37.7583 252.797 37.8219 252.861 37.8219H256.295C256.359 37.8219 256.423 37.7583 256.423 37.6947V27.1998C256.423 27.0726 256.55 27.009 256.613 27.1362L266.917 37.8219L266.981 37.8855H271.37C271.561 37.7583 271.624 37.5675 271.561 37.5039Z" fill="#00040F"/>
<path d="M51.741 0.803589L30.8784 16.3233L34.7583 7.16413L51.741 0.803589Z" fill="#E17726" stroke="#E17726" stroke-width="0.636054" stroke-linecap="round" stroke-linejoin="round"/>
<path d="M3.52771 0.803589L24.2631 16.4505L20.574 7.16413L3.52771 0.803589Z" fill="#E27625" stroke="#E27625" stroke-width="0.636054" stroke-linecap="round" stroke-linejoin="round"/>
<path d="M44.235 36.7406L38.6377 45.2637L50.5955 48.5712L53.9666 36.9314L44.235 36.7406Z" fill="#E27625" stroke="#E27625" stroke-width="0.636054" stroke-linecap="round" stroke-linejoin="round"/>
<path d="M1.36499 36.9314L4.73608 48.5712L16.6303 45.2637L11.0966 36.7406L1.36499 36.9314Z" fill="#E27625" stroke="#E27625" stroke-width="0.636054" stroke-linecap="round" stroke-linejoin="round"/>
<path d="M15.9941 22.3659L12.6866 27.3907L24.4537 27.8996L24.072 15.1785L15.9941 22.3659Z" fill="#E27625" stroke="#E27625" stroke-width="0.636054" stroke-linecap="round" stroke-linejoin="round"/>
<path d="M39.3379 22.366L31.1328 15.0514L30.8784 27.8997L42.6454 27.3908L39.3379 22.366Z" fill="#E27625" stroke="#E27625" stroke-width="0.636054" stroke-linecap="round" stroke-linejoin="round"/>
<path d="M16.6302 45.2638L23.7541 41.8291L17.5843 36.9951L16.6302 45.2638Z" fill="#E27625" stroke="#E27625" stroke-width="0.636054" stroke-linecap="round" stroke-linejoin="round"/>
<path d="M31.5776 41.8291L38.6378 45.2638L37.6838 36.9951L31.5776 41.8291Z" fill="#E27625" stroke="#E27625" stroke-width="0.636054" stroke-linecap="round" stroke-linejoin="round"/>
<path d="M38.6376 45.2639L31.5774 41.8292L32.1498 46.4088L32.0862 48.3806L38.6376 45.2639Z" fill="#D5BFB2" stroke="#D5BFB2" stroke-width="0.636054" stroke-linecap="round" stroke-linejoin="round"/>
<path d="M16.6302 45.2639L23.2452 48.3806L23.1816 46.4088L23.7541 41.8292L16.6302 45.2639Z" fill="#D5BFB2" stroke="#D5BFB2" stroke-width="0.636054" stroke-linecap="round" stroke-linejoin="round"/>
<path d="M23.3725 33.942L17.4572 32.2247L21.5915 30.3165L23.3725 33.942Z" fill="#233447" stroke="#233447" stroke-width="0.636054" stroke-linecap="round" stroke-linejoin="round"/>
<path d="M31.9595 33.942L33.6768 30.3165L37.8748 32.2247L31.9595 33.942Z" fill="#233447" stroke="#233447" stroke-width="0.636054" stroke-linecap="round" stroke-linejoin="round"/>
<path d="M16.6301 45.2639L17.6478 36.7407L11.0964 36.9315L16.6301 45.2639Z" fill="#CC6228" stroke="#CC6228" stroke-width="0.636054" stroke-linecap="round" stroke-linejoin="round"/>
<path d="M37.6833 36.7407L38.6374 45.2639L44.2347 36.9315L37.6833 36.7407Z" fill="#CC6228" stroke="#CC6228" stroke-width="0.636054" stroke-linecap="round" stroke-linejoin="round"/>
<path d="M42.6449 27.3909L30.8779 27.8997L31.9592 33.9422L33.6766 30.3167L37.8745 32.2249L42.6449 27.3909Z" fill="#CC6228" stroke="#CC6228" stroke-width="0.636054" stroke-linecap="round" stroke-linejoin="round"/>
<path d="M17.4571 32.2249L21.5914 30.3167L23.3724 33.9422L24.4537 27.8997L12.6866 27.3909L17.4571 32.2249Z" fill="#CC6228" stroke="#CC6228" stroke-width="0.636054" stroke-linecap="round" stroke-linejoin="round"/>
<path d="M12.6866 27.3907L17.5843 36.9952L17.4571 32.2248L12.6866 27.3907Z" fill="#E27525" stroke="#E27525" stroke-width="0.636054" stroke-linecap="round" stroke-linejoin="round"/>
<path d="M37.8744 32.2249L37.6836 36.9953L42.6448 27.3909L37.8744 32.2249Z" fill="#E27525" stroke="#E27525" stroke-width="0.636054" stroke-linecap="round" stroke-linejoin="round"/>
<path d="M24.4536 27.8997L23.3723 33.9422L24.708 41.1296L25.0261 31.6524L24.4536 27.8997Z" fill="#E27525" stroke="#E27525" stroke-width="0.636054" stroke-linecap="round" stroke-linejoin="round"/>
<path d="M30.8779 27.8997L30.3054 31.6524L30.5598 41.1296L31.9592 33.9422L30.8779 27.8997Z" fill="#E27525" stroke="#E27525" stroke-width="0.636054" stroke-linecap="round" stroke-linejoin="round"/>
<path d="M31.9591 33.942L30.5598 41.1294L31.5775 41.829L37.6836 36.995L37.8744 32.2246L31.9591 33.942Z" fill="#F5841F" stroke="#F5841F" stroke-width="0.636054" stroke-linecap="round" stroke-linejoin="round"/>
<path d="M17.4572 32.2246L17.5844 36.995L23.7541 41.829L24.7082 41.1294L23.3725 33.942L17.4572 32.2246Z" fill="#F5841F" stroke="#F5841F" stroke-width="0.636054" stroke-linecap="round" stroke-linejoin="round"/>
<path d="M32.0864 48.3806L32.15 46.4088L31.5775 45.9636H23.6905L23.1816 46.4088L23.2452 48.3806L16.6302 45.2639L18.92 47.1721L23.6268 50.416H31.6411L36.3479 47.1721L38.6377 45.2639L32.0864 48.3806Z" fill="#C0AC9D" stroke="#C0AC9D" stroke-width="0.636054" stroke-linecap="round" stroke-linejoin="round"/>
<path d="M31.5776 41.829L30.5599 41.1294H24.7082L23.7541 41.829L23.1816 46.4086L23.6905 45.9634H31.5776L32.15 46.4086L31.5776 41.829Z" fill="#161616" stroke="#161616" stroke-width="0.636054" stroke-linecap="round" stroke-linejoin="round"/>
<path d="M52.631 17.341L54.412 8.75427L51.7406 0.803589L31.5776 15.8145L39.3375 22.3658L50.2776 25.5461L52.6946 22.7475L51.677 21.9842L53.3307 20.4577L52.0586 19.44L53.7123 18.1679L52.631 17.341Z" fill="#763E1A" stroke="#763E1A" stroke-width="0.636054" stroke-linecap="round" stroke-linejoin="round"/>
<path d="M0.919678 8.75427L2.70063 17.341L1.55573 18.1679L3.20947 19.44L1.93736 20.4577L3.65471 21.9842L2.57342 22.7475L4.99043 25.5461L15.9942 22.3658L23.754 15.8145L3.5275 0.803589L0.919678 8.75427Z" fill="#763E1A" stroke="#763E1A" stroke-width="0.636054" stroke-linecap="round" stroke-linejoin="round"/>
<path d="M50.2777 25.5462L39.3376 22.366L42.6451 27.3908L37.6838 36.9952L44.2352 36.9316H53.9668L50.2777 25.5462Z" fill="#F5841F" stroke="#F5841F" stroke-width="0.636054" stroke-linecap="round" stroke-linejoin="round"/>
<path d="M15.9942 22.366L4.9905 25.5462L1.36499 36.9316H11.0966L17.5844 36.9952L12.6868 27.3908L15.9942 22.366Z" fill="#F5841F" stroke="#F5841F" stroke-width="0.636054" stroke-linecap="round" stroke-linejoin="round"/>
<path d="M30.8781 27.8994L31.5777 15.8144L34.758 7.16406H20.574L23.7542 15.8144L24.4539 27.8994L24.7083 31.7158V41.1294H30.56V31.7158L30.8781 27.8994Z" fill="#F5841F" stroke="#F5841F" stroke-width="0.636054" stroke-linecap="round" stroke-linejoin="round"/>
</svg>
