<svg width="185" height="62" viewBox="0 0 185 62" fill="none" xmlns="http://www.w3.org/2000/svg">
<path d="M142.593 40.5502C141.625 41.4488 140.609 42.2954 139.551 43.0862C138.98 43.6313 138.6 44.1214 139.293 44.8527C139.53 45.1036 139.817 45.4586 139.595 45.8553C139.39 46.224 138.995 45.9981 138.685 46.033C137.738 46.1398 136.788 46.2183 135.842 46.3386C135.211 46.4186 134.863 46.1745 134.872 45.5442C134.898 43.4994 134.592 41.3716 136.224 39.6967C136.453 39.4522 136.587 39.1337 136.601 38.7989C136.621 37.1687 136.158 35.5692 135.272 34.2018C135.068 34.947 135.135 35.7403 135.461 36.4407C135.702 36.9778 135.759 37.5798 135.622 38.1525C135.486 38.7253 135.164 39.2367 134.706 39.6069C134.393 39.9025 134.141 40.2575 133.966 40.6511C133.79 41.0447 133.694 41.4692 133.683 41.9002C133.302 44.6339 131.52 46.2521 129.216 47.4465C128.916 47.5986 128.569 47.6294 128.246 47.5327C125.64 46.8366 123.059 47.2658 120.483 47.7144C120.111 47.8156 119.722 47.8352 119.342 47.7719C118.962 47.7085 118.6 47.5637 118.281 47.3473C117.962 47.1309 117.693 46.848 117.493 46.5181C117.294 46.1881 117.167 45.8188 117.123 45.4355C117.002 43.7394 116.47 42.0984 115.573 40.6545C115.461 40.4883 115.386 40.2995 115.354 40.1013C115.322 39.9031 115.334 39.7003 115.388 39.5071C115.443 39.3139 115.539 39.135 115.67 38.983C115.801 38.8311 115.964 38.7097 116.147 38.6274C116.644 38.2127 117.253 37.9566 117.897 37.8925C118.541 37.8283 119.189 37.9589 119.758 38.2673C120.396 38.6582 120.923 39.2079 121.286 39.8629C121.649 40.518 121.837 41.2561 121.831 42.0054C121.856 42.1067 121.846 42.2136 121.804 42.3088C121.761 42.404 121.687 42.482 121.595 42.5303C121.359 42.6449 120.914 42.5645 120.979 42.983C121.047 43.4266 121.501 43.4561 121.85 43.5596C124.687 44.4023 127.722 43.0741 129.863 40.1321C131.714 37.5875 132.621 34.5821 134.033 31.8236C134.454 31.062 134.83 30.2762 135.159 29.4703C136.183 26.7056 138.627 25.6954 141.061 24.7603C144.501 23.438 147.969 22.1749 151.478 21.0502C155.228 19.9571 158.612 17.8663 161.269 15.0002C161.552 14.6423 161.904 14.3447 162.303 14.1247C162.703 13.9047 163.142 13.7669 163.595 13.7194C164.683 13.6359 165.319 12.8112 166.001 12.0994C167.486 10.7274 169.316 9.78589 171.294 9.37549C171.879 9.19256 172.498 9.15096 173.102 9.25421C173.705 9.35747 174.276 9.60263 174.767 9.96949C176.345 10.8155 176.705 12.2301 177.573 13.4088C177.716 13.5925 177.806 13.8111 177.836 14.0418C177.866 14.2726 177.834 14.5071 177.743 14.7211C177.043 15.7973 177.318 16.9448 177.297 18.0762C177.323 18.2628 177.291 18.4531 177.203 18.6202C177.116 18.7872 176.979 18.9226 176.81 19.0073C176.122 19.2874 175.521 19.7475 175.071 20.3394C174.627 20.9221 173.992 20.6593 173.426 20.2438C172.235 19.3685 172.145 19.4166 171.807 20.8732C171.374 22.7409 171.57 24.6712 171.246 26.5518C171.125 28.0865 170.567 29.5542 169.638 30.7808C168.83 31.489 167.903 32.0488 166.9 32.4343C166.317 32.6522 165.831 33.0708 165.528 33.6151C165.225 34.1595 165.126 34.794 165.248 35.405C165.352 36.7652 165.542 38.1176 165.814 39.4543C166.125 40.5105 166.621 41.373 167.936 41.3309C168.225 41.3541 168.509 41.4191 168.779 41.5239C169.237 41.6724 169.637 41.9608 169.923 42.3485C170.208 42.7363 170.366 43.2039 170.373 43.6859C170.486 44.5028 169.527 44.257 169.091 44.5559C168.059 45.2624 167.066 45.0324 165.842 44.7958C162.076 44.0679 161.48 41.1887 160.841 38.2576C160.515 36.7636 160.332 35.239 160.071 33.7305C159.936 32.9189 159.637 32.1432 159.194 31.4506C158.845 32.192 158.71 33.0163 158.804 33.8306C158.79 34.2674 158.789 34.6746 158.279 34.8298C154.8 35.8884 151.46 37.4246 147.806 37.8828C147.682 37.8902 147.557 37.8889 147.433 37.8788C146.337 37.5351 147.032 36.6288 146.848 35.9988C146.763 35.7065 146.951 35.2245 146.519 35.1846C145.936 35.1307 146.158 35.6911 146.063 36.0032L146.027 36.0765C145.555 36.1685 145.587 36.5258 145.605 36.8754C145.307 38.3517 143.936 39.004 143.128 40.0891C143.062 40.0767 142.993 40.0795 142.928 40.0972C142.862 40.1149 142.802 40.147 142.75 40.1912C142.699 40.2355 142.658 40.2907 142.631 40.3528C142.604 40.4149 142.591 40.4824 142.593 40.5502Z" fill="#DEAB5B"/>
<path d="M79.4803 49.5056C79.4803 50.4586 79.4892 51.4116 79.4775 52.3644C79.4675 53.1623 79.3865 53.9675 80.4152 54.2709C80.802 54.3849 80.8379 54.7488 80.7737 55.0978C80.689 55.5585 80.3095 55.5004 79.9878 55.5016C78.2859 55.5083 76.5841 55.5086 74.8822 55.5027C74.5117 55.5017 74.1118 55.5414 74.0514 54.997C74.0307 54.905 74.0314 54.8095 74.0534 54.7178C74.0753 54.6261 74.118 54.5406 74.178 54.468C74.2381 54.3954 74.3139 54.3375 74.3998 54.2988C74.4857 54.2602 74.5792 54.2417 74.6733 54.2449C75.9298 54.0876 76.0976 53.2564 76.0754 52.1921C76.0307 50.0386 76.0519 47.8835 76.0676 45.7292C76.0733 44.957 75.9106 44.3426 75.0522 44.1158C74.6827 44.0181 74.3605 43.8318 74.3749 43.353C74.3911 42.8084 74.8171 42.8404 75.168 42.7607C76.216 42.5224 77.2842 42.3491 78.3063 42.0288C79.153 41.7634 79.4775 41.9688 79.4461 42.84C79.418 43.62 79.7221 43.6975 80.329 43.2588C80.833 42.8974 81.3652 42.5771 81.9205 42.3012C82.6926 41.8284 83.6145 41.6653 84.5016 41.8445C85.3887 42.0237 86.1754 42.5319 86.7041 43.2673C87.1793 43.8573 87.5265 43.9793 88.0895 43.4673C88.3959 43.1886 88.7277 42.9392 89.0804 42.7222C89.7409 42.2122 90.5348 41.9047 91.3661 41.8367C92.1973 41.7687 93.0305 41.9432 93.7649 42.339C95.3121 43.2127 95.5982 44.7313 95.6644 46.2718C95.7533 48.3396 95.7103 50.4144 95.6761 52.4854C95.6617 53.3639 95.8035 54.0548 96.82 54.2283C96.9137 54.2292 97.006 54.2507 97.0905 54.2913C97.1749 54.3319 97.2494 54.3906 97.3087 54.4632C97.368 54.5358 97.4106 54.6207 97.4335 54.7116C97.4565 54.8026 97.4591 54.8975 97.4414 54.9896C97.3914 55.5423 96.9999 55.5034 96.6264 55.5041C94.9245 55.5072 93.2226 55.5065 91.5208 55.5023C91.2004 55.5011 90.8209 55.5654 90.7383 55.0986C90.6646 54.6827 90.7591 54.3665 91.2363 54.2608C92.1413 54.0601 92.3533 53.4217 92.3404 52.5853C92.3092 50.5558 92.3327 48.5253 92.3045 46.4959C92.3628 46.0157 92.2485 45.5304 91.982 45.127C91.7155 44.7236 91.3142 44.4285 90.8501 44.2944C90.2796 44.1859 89.6913 44.2176 89.1358 44.3869C88.5803 44.5562 88.0741 44.8579 87.6607 45.2662C87.5887 45.3667 87.5379 45.4808 87.5115 45.6016C87.485 45.7224 87.4835 45.8473 87.507 45.9687C87.7076 48.1532 87.7548 50.349 87.6483 52.54C87.6621 53.3662 87.7725 54.0132 88.683 54.2592C88.7763 54.2744 88.8653 54.3094 88.944 54.3619C89.0226 54.4145 89.0892 54.4832 89.1391 54.5636C89.189 54.644 89.2212 54.7341 89.2335 54.828C89.2457 54.9219 89.2377 55.0173 89.2101 55.1079C89.1148 55.5579 88.7313 55.4996 88.4103 55.501C86.7084 55.5082 85.0066 55.5089 83.3047 55.5031C82.9739 55.5024 82.6149 55.5266 82.5379 55.069C82.5096 54.98 82.5016 54.8858 82.5146 54.7933C82.5276 54.7008 82.5612 54.6123 82.6129 54.5346C82.6646 54.4568 82.7331 54.3917 82.8133 54.344C82.8935 54.2963 82.9834 54.2672 83.0764 54.259C84.0604 54.0129 84.2868 53.3246 84.2556 52.3741C84.1946 50.5117 84.3007 48.643 84.2186 46.7822C84.1127 44.3783 82.2362 43.4589 80.2072 44.7243C79.968 44.8422 79.7696 45.0293 79.6379 45.2614C79.5061 45.4935 79.447 45.7598 79.4682 46.0259C79.5102 47.1844 79.4803 48.3456 79.4803 49.5056Z" fill="#DFAE61"/>
<path d="M126.15 53.4336C126.282 52.7448 126.691 52.7053 126.9 52.4586C127.134 52.2202 127.305 51.927 127.397 51.6057C127.489 51.2843 127.499 50.945 127.427 50.6186C127.226 49.9073 126.493 50.0778 125.937 50.0243C124.152 49.9411 122.364 50.1153 120.629 50.5415C120.381 50.5743 120.146 50.673 119.95 50.8275C119.753 50.982 119.602 51.1866 119.511 51.4198C119.381 51.7351 119.289 52.3111 118.838 52.1447C118.588 52.0331 118.378 51.8486 118.235 51.6152C118.092 51.3819 118.023 51.1107 118.037 50.8374C118.111 50.2744 118.363 49.7499 118.757 49.3414C119.15 48.9329 119.665 48.662 120.224 48.5689C123.325 48.0047 126.5 47.9869 129.607 48.5163C131.047 48.7749 132.452 48.0848 133.859 47.7464C135.952 47.2432 138.034 46.6164 140.222 47.2381C141.196 47.4651 142.095 47.9391 142.833 48.6145C143.52 49.2779 144.368 49.7517 145.293 49.9895C146.218 50.2274 147.189 50.2212 148.111 49.9716C149.711 49.7058 151.349 49.7898 152.914 50.2179C153.327 50.352 153.77 50.3593 154.187 50.2387C154.603 50.1181 154.974 49.8752 155.252 49.5413C156.676 48.0531 158.7 47.8134 160.575 47.3501C161.148 47.2765 161.701 47.0869 162.199 46.7929C162.697 46.4988 163.13 46.1065 163.471 45.6397C163.54 45.4768 163.646 45.3329 163.782 45.2201C163.918 45.1074 164.079 45.0291 164.251 44.992C164.424 44.9549 164.603 44.9601 164.773 45.007C164.943 45.054 165.099 45.1415 165.228 45.2619C166.839 46.339 168.329 45.8873 169.989 45.0954C171.796 44.2326 173.734 43.6995 175.673 45.2645C177.561 46.9788 179.994 47.9689 182.541 48.0596C183.388 48.0562 183.603 48.4296 183.133 49.2576C182.078 51.1141 181.911 51.223 179.991 50.1355C177.941 48.9741 175.885 47.823 173.895 46.5526C173.341 46.2643 172.724 46.1183 172.099 46.1279C171.475 46.1375 170.863 46.3024 170.317 46.6076C169.147 47.1034 168.081 47.9076 166.697 47.7144C166.616 47.7049 166.533 47.7144 166.457 47.7422C166.38 47.77 166.311 47.8153 166.255 47.8745C165.376 49.6906 163.019 50.3669 162.657 52.5994C162.573 53.2153 162.312 53.7935 161.906 54.2639C161.5 54.7342 160.967 55.0766 160.37 55.2495C159.455 55.5979 158.519 55.8925 157.569 56.1316C158.23 55.321 159.103 54.7103 160.091 54.3675C160.476 54.2209 160.808 53.9625 161.046 53.6253C161.283 53.2881 161.414 52.8877 161.422 52.4754C161.386 51.743 161.577 51.0174 161.969 50.398C162.36 49.7786 162.934 49.2956 163.611 49.0153C164.295 48.7334 164.531 48.147 164.202 47.1788C162.951 48.8827 161.123 49.1239 159.409 49.4859C158.641 49.6329 157.912 49.9376 157.268 50.3806C156.623 50.8237 156.078 51.3955 155.665 52.0601C155.58 52.2287 155.459 52.3767 155.311 52.4939C155.163 52.6111 154.991 52.6946 154.808 52.7387C154.624 52.7828 154.433 52.7863 154.249 52.7492C154.064 52.712 153.889 52.635 153.737 52.5235C151.91 51.6196 149.825 51.3832 147.842 51.8551C146.187 52.1065 144.344 52.5136 142.933 50.9564C142.678 50.6758 142.395 50.7848 142.38 51.2194C142.35 52.086 142.217 52.9507 143.354 53.3461C144.329 53.6849 145.243 54.1976 146.189 54.6195C146.587 54.7496 146.919 55.0305 147.113 55.4021C147.156 55.5021 147.21 55.6486 147.169 55.724C147.084 55.8775 146.953 55.8776 146.762 55.8015C145.303 55.2187 143.851 54.6099 142.362 54.1115C141.859 54.0009 141.419 53.6964 141.138 53.2639C140.857 52.8313 140.757 52.3055 140.86 51.7998C140.93 51.0685 140.726 50.3372 140.289 49.7471C139.852 49.157 139.212 48.7499 138.493 48.6045C137.669 48.534 136.839 48.587 136.031 48.7619C134.359 49.0679 132.719 49.5254 131.13 50.1287C130.362 50.3993 129.561 50.7325 129.583 51.8225C129.577 52.0561 129.49 52.2805 129.338 52.4579C129.186 52.6353 128.978 52.7549 128.749 52.7966C127.929 53.0203 127.101 53.2034 126.15 53.4336Z" fill="#DFAE61"/>
<path d="M19.8174 26.8726C18.7798 26.8726 17.7423 26.8751 16.7048 26.8711C16.2688 26.8694 15.8652 26.8202 15.799 26.255C15.7374 25.7298 16.0986 25.6537 16.4773 25.5621C17.5629 25.2994 17.6885 24.6179 17.3232 23.6813C17.0088 22.8753 16.7326 22.0531 16.4737 21.2275C16.3039 20.6854 15.9283 20.5655 15.4251 20.5694C14.0142 20.5803 12.6027 20.5906 11.1921 20.5652C11.0601 20.5408 10.9245 20.543 10.7934 20.5719C10.6622 20.6009 10.5382 20.6558 10.4286 20.7335C10.3191 20.8112 10.2262 20.9102 10.1555 21.0245C10.0848 21.1388 10.0377 21.2662 10.0169 21.399C9.87333 21.999 9.65542 22.5814 9.47047 23.1717C8.9293 24.8988 8.92981 24.9345 10.6122 25.578C10.9928 25.7236 11.1596 25.893 11.1225 26.2831C11.1242 26.3666 11.1079 26.4494 11.0746 26.5259C11.0414 26.6025 10.992 26.6709 10.9299 26.7266C10.8679 26.7823 10.7945 26.824 10.7149 26.8487C10.6353 26.8734 10.5513 26.8806 10.4686 26.8698C8.60115 26.8657 6.73366 26.8659 4.86618 26.8559C4.54282 26.8541 4.31134 26.7195 4.29696 26.3442C4.28388 25.9888 4.30554 25.6869 4.76153 25.6195C6.38044 25.3803 7.06472 24.2249 7.59021 22.8361C9.31248 18.2843 11.0774 13.7485 12.834 9.2097C13.0287 8.70737 13.2518 8.2166 13.5022 7.73973C13.632 7.52523 13.8167 7.34931 14.0371 7.23026C14.2575 7.11122 14.5057 7.05336 14.756 7.0626C15.1925 7.0299 15.2953 7.41903 15.3996 7.71263C16.9356 12.0279 18.4517 16.3502 19.9863 20.666C20.3876 21.7945 20.807 22.9184 21.2715 24.0219C21.4636 24.4159 21.7444 24.7598 22.092 25.0265C22.4395 25.2932 22.8442 25.4753 23.2741 25.5586C23.7489 25.6937 24.0193 25.8616 23.9232 26.3924C23.8281 26.917 23.4172 26.8653 23.0544 26.8689C21.9755 26.8797 20.8964 26.8729 19.8174 26.8726ZM13.4403 12.4642L13.1399 12.5084C12.4688 14.3508 11.7984 16.1935 11.1285 18.0364C10.9887 18.4221 11.0869 18.6992 11.548 18.7034C12.6622 18.7134 13.7768 18.7061 14.8911 18.7086C15.4068 18.7098 15.5648 18.4174 15.4137 17.9849C14.769 16.1401 14.1003 14.3036 13.4403 12.4642Z" fill="#DFAE61"/>
<path d="M30.4583 15.2073C31.2356 14.6804 31.8465 14.2662 32.457 13.8525C32.9538 13.5002 33.5294 13.2755 34.1332 13.1982C34.737 13.121 35.3505 13.1934 35.9198 13.4093C36.4891 13.6252 36.9966 13.9778 37.3979 14.4361C37.7991 14.8945 38.0817 15.4447 38.2208 16.0381C38.7939 18.4081 38.4833 20.8232 38.5583 23.2181C38.5925 24.3146 38.3214 25.5704 40.0211 25.7081C40.3258 25.7328 40.3228 26.0691 40.3071 26.3144C40.3091 26.388 40.2956 26.4612 40.2677 26.5293C40.2398 26.5974 40.1979 26.6589 40.1449 26.7098C40.0919 26.7608 40.0288 26.8001 39.9597 26.8252C39.8906 26.8503 39.817 26.8607 39.7437 26.8556C37.8747 26.8632 36.0057 26.8657 34.1367 26.8527C34.0529 26.8586 33.9687 26.8463 33.89 26.8168C33.8112 26.7872 33.7398 26.7409 33.6804 26.6813C33.6211 26.6216 33.5753 26.5499 33.5461 26.4709C33.517 26.3919 33.5051 26.3075 33.5114 26.2236C33.4971 25.8669 33.6733 25.7077 34.0178 25.6514C34.9379 25.5014 35.192 24.8776 35.1846 24.0314C35.1669 22.0414 35.1945 20.0506 35.1715 18.0607C35.2298 17.5385 35.1143 17.0116 34.8429 16.5618C34.5715 16.1121 34.1594 15.7647 33.6706 15.5735C32.5058 15.151 31.6043 15.9185 30.6737 16.4252C30.3478 16.6026 30.4076 17.0051 30.4074 17.3351C30.4065 19.5742 30.3974 21.8132 30.4116 24.0522C30.4165 24.8338 30.5332 25.5646 31.5501 25.6705C31.9595 25.7131 32.0961 26.0131 32.0379 26.3924C32.0272 26.4651 32.0023 26.5349 31.9646 26.5978C31.927 26.6608 31.8773 26.7157 31.8184 26.7594C31.7595 26.8032 31.6926 26.8349 31.6215 26.8527C31.5504 26.8705 31.4765 26.8741 31.404 26.8633C29.4933 26.8665 27.5826 26.8689 25.6717 26.8505C25.5877 26.8589 25.5029 26.8481 25.4237 26.819C25.3444 26.7899 25.2728 26.7433 25.2141 26.6825C25.1554 26.6218 25.1113 26.5485 25.0849 26.4682C25.0585 26.3879 25.0506 26.3027 25.0618 26.2189C25.0573 26.1455 25.0683 26.0721 25.0939 26.0032C25.1196 25.9343 25.1594 25.8715 25.2108 25.819C25.2622 25.7665 25.3241 25.7255 25.3923 25.6984C25.4606 25.6714 25.5338 25.659 25.6072 25.662C26.8382 25.604 27.0471 24.834 27.0281 23.7897C26.9881 21.5929 27.0107 19.3949 27.0181 17.1974C27.0207 16.3698 26.9823 15.5985 25.926 15.4029C25.7816 15.3687 25.6556 15.2807 25.5737 15.1569C25.4918 15.033 25.4602 14.8825 25.4851 14.7361C25.4989 14.289 25.829 14.2528 26.1694 14.1783C27.1852 13.9876 28.1905 13.7446 29.1813 13.4502C30.1707 13.1233 30.5725 13.3378 30.413 14.4039C30.4054 14.6725 30.4205 14.9413 30.4583 15.2073Z" fill="#DFAE61"/>
<path d="M41.9346 45.1648C41.9346 47.3208 41.9195 49.4769 41.9396 51.6327C41.956 53.3856 42.3391 53.8301 44.0259 54.0787C44.5274 54.1526 44.9119 54.2474 44.9218 54.8658C44.9335 55.5897 44.428 55.5033 43.9773 55.504C41.5264 55.5074 39.0756 55.5071 36.6248 55.5033C36.2192 55.5025 35.7453 55.5833 35.7024 54.959C35.6571 54.2999 36.0382 54.1461 36.6212 54.0726C38.2955 53.8615 38.4594 53.6787 38.4677 51.9265C38.4888 47.4903 38.4577 43.0537 38.4995 38.6178C38.5078 37.7278 38.1958 37.5032 37.3488 37.5015C34.5104 37.4958 34.2873 37.6143 33.3177 40.2615C33.1294 40.7759 32.8617 41.1408 32.2361 41.0579C31.5177 40.9628 31.7059 40.4186 31.7343 40.0018C31.821 38.7238 31.9214 37.4456 32.0669 36.1732C32.1585 35.3724 32.5211 34.9901 33.2823 35.647C33.7535 35.9954 34.339 36.1523 34.921 36.0862C38.4934 36.0796 42.0657 36.0803 45.6381 36.0883C46.2617 36.1373 46.8808 35.9486 47.3714 35.5598C48.062 34.9746 48.5155 35.1538 48.5545 36.0768C48.6144 37.4846 48.6323 38.8941 48.6743 40.3027C48.6852 40.6684 48.6165 40.9758 48.191 41.0366C48.0991 41.0562 48.0041 41.0561 47.9122 41.0365C47.8203 41.0169 47.7336 40.978 47.6577 40.9226C47.5818 40.8672 47.5184 40.7964 47.4716 40.7148C47.4248 40.6332 47.3958 40.5426 47.3863 40.449C47.2921 40.0911 47.1684 39.7409 47.0595 39.3869C46.9113 38.7985 46.5547 38.2839 46.0561 37.939C45.5575 37.594 44.9507 37.4422 44.3486 37.5115C41.9339 37.5025 41.934 37.4558 41.934 39.8158C41.9342 41.5989 41.9344 43.3819 41.9346 45.1648Z" fill="#DFAE61"/>
<path d="M122.845 20.7184C122.845 21.8378 122.851 22.9573 122.843 24.0766C122.837 24.9033 123.021 25.5795 124.018 25.6441C124.425 25.6704 124.632 25.8585 124.598 26.2722C124.597 26.3562 124.578 26.4391 124.543 26.5154C124.508 26.5918 124.457 26.66 124.394 26.7155C124.331 26.771 124.257 26.8126 124.177 26.8376C124.097 26.8627 124.013 26.8707 123.929 26.861C122.143 26.87 120.357 26.8668 118.571 26.8689C118.178 26.8689 117.94 26.7051 117.935 26.285C117.931 25.9725 117.983 25.6937 118.369 25.655C119.241 25.5685 119.434 24.935 119.44 24.2379C119.46 22.1237 119.448 20.0089 119.429 17.8945C119.472 17.3697 119.329 16.8463 119.026 16.4161C118.723 15.9858 118.278 15.676 117.77 15.5409C116.66 15.2314 115.779 15.8952 114.947 16.5303C114.693 16.7242 114.707 17.0436 114.707 17.3357C114.706 19.5748 114.682 21.8142 114.72 24.0527C114.733 24.8038 114.862 25.5827 115.883 25.6581C116.251 25.6852 116.381 25.9057 116.368 26.2439C116.356 26.5782 116.187 26.8362 115.857 26.8396C113.863 26.8602 111.87 26.8635 109.876 26.8496C109.474 26.8473 109.307 26.5663 109.302 26.1809C109.298 25.8109 109.511 25.6658 109.847 25.6509C111.186 25.5909 111.443 24.735 111.427 23.603C111.397 21.5303 111.429 19.4567 111.412 17.3836C111.405 16.4852 111.328 15.5991 110.16 15.4129C109.796 15.3549 109.728 15.0802 109.737 14.7604C109.747 14.398 109.965 14.2781 110.285 14.2084C111.46 13.9533 112.649 13.7415 113.795 13.3899C114.598 13.1437 114.759 13.4216 114.706 14.1199C114.626 15.1722 115.05 14.9483 115.675 14.5446C116.426 13.9522 117.287 13.5163 118.208 13.2625C120.719 12.8025 122.702 14.5459 122.817 17.3595C122.862 18.4771 122.824 19.5982 122.824 20.7177L122.845 20.7184Z" fill="#DFAE61"/>
<path d="M77.7765 20.0624C77.8438 20.9728 77.7258 21.8873 77.4297 22.7507C77.1336 23.6141 76.6655 24.4083 76.0539 25.0852C75.4422 25.7621 74.6997 26.3076 73.8713 26.6886C73.0429 27.0697 72.1459 27.2785 71.2346 27.3022C70.3232 27.3259 69.4166 27.1641 68.5696 26.8266C67.7225 26.4891 66.9527 25.983 66.3068 25.3388C65.6608 24.6946 65.1522 23.9258 64.8117 23.079C64.4712 22.2322 64.306 21.325 64.3259 20.4124C64.2859 19.4791 64.4359 18.5474 64.7669 17.6741C65.098 16.8007 65.603 16.0039 66.2514 15.3323C66.8998 14.6607 67.6779 14.1282 68.5384 13.7674C69.3989 13.4065 70.3237 13.2248 71.2566 13.2333C75.1638 13.2327 77.7803 15.9733 77.7765 20.0624ZM74.0653 21.0671C74.1975 19.3226 73.8556 17.5748 73.076 16.0091C71.9564 14.0343 70.2083 14.0163 68.9201 15.8573C67.6354 17.6934 67.8281 22.5958 69.4258 24.7273C69.6717 25.141 70.0393 25.4687 70.4782 25.6654C70.9171 25.8622 71.4059 25.9185 71.8779 25.8265C72.3798 25.6919 72.8298 25.4096 73.1699 25.0162C73.5099 24.6227 73.7243 24.1362 73.7853 23.6195C73.9921 22.785 74.0862 21.9266 74.0653 21.0671Z" fill="#DFAE61"/>
<path d="M71.0662 48.5382C71.0662 49.6565 71.0134 50.7782 71.084 51.892C71.135 52.6985 71.3084 53.5673 72.4891 53.224C72.8786 53.1108 73.0184 53.2668 73.1515 53.5577C73.2993 53.8816 73.3901 54.2216 73.0197 54.4336C72.2581 54.9236 71.4552 55.3463 70.6203 55.6967C70.2254 55.8495 69.7889 55.856 69.3896 55.7147C68.9904 55.5735 68.6547 55.294 68.4433 54.9267C68.0417 54.306 67.6443 54.3587 67.1036 54.7126C66.5305 55.1898 65.8652 55.5434 65.1493 55.7513C63.4399 56.0605 61.2917 54.8863 60.9481 53.2313C60.5725 51.4226 60.5343 49.9934 63.0725 49.0013C64.3788 48.4906 65.6821 47.9721 66.9894 47.4642C67.15 47.4227 67.3 47.3477 67.4296 47.2442C67.5592 47.1406 67.6655 47.0107 67.7415 46.8631C67.8175 46.7155 67.8615 46.5535 67.8706 46.3877C67.8797 46.2219 67.8537 46.056 67.7943 45.901C67.5488 44.8393 67.4298 43.7171 66.0552 43.501C65.6813 43.4415 65.2985 43.5214 64.9795 43.7255C64.6605 43.9297 64.4273 44.244 64.3242 44.6088C64.1526 44.9846 64.0045 45.3706 63.8808 45.7649C63.695 46.3775 63.377 46.82 62.6708 46.7913C62.3382 46.7959 62.0115 46.7034 61.7307 46.5249C61.4498 46.3465 61.227 46.0899 61.0896 45.7866C60.765 45.1201 61.1243 44.6798 61.5776 44.2793C62.9568 43.0707 64.6317 42.2504 66.4311 41.9021C67.0012 41.7834 67.5908 41.796 68.1553 41.939C68.7198 42.0821 69.2445 42.3517 69.6896 42.7276C70.1348 43.1035 70.4888 43.5758 70.7248 44.1088C70.9609 44.6419 71.0729 45.2217 71.0523 45.8044C71.0644 46.7156 71.0543 47.627 71.0543 48.5383L71.0662 48.5382ZM67.8592 50.7376C67.8592 50.2854 67.8453 49.8325 67.8627 49.3809C67.8873 48.7379 67.7436 48.4028 67.0253 48.7948C66.2686 49.1183 65.5525 49.5301 64.8921 50.0215C64.5514 50.3274 64.3304 50.7446 64.2685 51.1986C64.2067 51.6526 64.3081 52.1138 64.5546 52.4999C64.7263 52.9051 65.0448 53.2301 65.4461 53.4097C65.8473 53.5893 66.3016 53.61 66.7176 53.4679C67.7056 53.2373 67.9673 52.5274 67.8641 51.6006C67.8467 51.3132 67.845 51.0251 67.8592 50.7376Z" fill="#DFAE61"/>
<path d="M106.441 20.2598C106.441 21.2962 106.405 22.3341 106.452 23.3683C106.489 24.1705 106.707 24.8755 107.791 24.6703C108.114 24.6092 108.48 24.5848 108.611 25.0168C108.746 25.4645 108.492 25.7088 108.131 25.9028C107.367 26.3135 106.628 26.7777 105.841 27.1407C105.47 27.296 105.052 27.3019 104.676 27.1572C104.3 27.0124 103.994 26.7282 103.821 26.3635C103.291 25.4709 102.905 25.7083 102.276 26.1451C101.04 27.0032 99.8286 27.8191 98.2032 26.7969C97.5401 26.4527 96.9883 25.9268 96.6124 25.2805C96.2364 24.6343 96.0516 23.8943 96.0797 23.1468C96.1334 21.4726 97.322 20.722 98.7036 20.2009C99.7457 19.8078 100.816 19.4897 101.855 19.0895C102.556 18.8195 103.316 18.5095 103.177 17.5395C103.023 16.4658 102.856 15.3396 101.611 14.9391C101.248 14.8206 100.854 14.8471 100.51 15.0131C100.167 15.1791 99.9004 15.4717 99.7673 15.8296C99.545 16.2726 99.3644 16.7354 99.228 17.212C99.183 17.5032 99.0283 17.7661 98.7957 17.9466C98.5632 18.1271 98.2704 18.2116 97.9776 18.1827C97.6433 18.1951 97.3134 18.1042 97.0324 17.9225C96.7514 17.7407 96.533 17.4769 96.4068 17.1667C96.294 16.8935 96.2846 16.5884 96.3804 16.3088C96.4763 16.0291 96.6707 15.7941 96.9273 15.6479C98.2759 14.5362 99.8537 13.7374 101.547 13.309C102.115 13.1711 102.707 13.1626 103.279 13.284C103.851 13.4054 104.388 13.6536 104.852 14.0104C105.315 14.3673 105.693 14.8236 105.957 15.3459C106.221 15.8681 106.365 16.443 106.378 17.0283C106.47 18.0983 106.393 19.1818 106.393 20.2592L106.441 20.2598ZM103.196 22.304C103.196 19.7361 103.196 19.7364 101.041 20.8597C100.813 20.9515 100.593 21.0626 100.384 21.1918C100.154 21.3517 99.9595 21.5582 99.8135 21.7979C99.6675 22.0376 99.5732 22.3053 99.5368 22.5837C99.5004 22.8621 99.5226 23.145 99.602 23.4143C99.6814 23.6836 99.8162 23.9332 99.9978 24.1472C100.286 24.527 100.705 24.7862 101.174 24.8748C101.642 24.9633 102.126 24.8749 102.533 24.6266C103.651 24.0512 103.005 23.0092 103.196 22.304Z" fill="#DFAE61"/>
<path d="M52.1218 20.0953C52.1218 21.1313 52.0969 22.168 52.1294 23.203C52.1573 24.0902 52.3177 24.9056 53.5475 24.6676C53.6277 24.6444 53.7118 24.638 53.7946 24.6488C53.8773 24.6596 53.957 24.6875 54.0285 24.7306C54.1 24.7737 54.1619 24.8311 54.2102 24.8992C54.2586 24.9674 54.2923 25.0448 54.3094 25.1266C54.4536 25.5633 54.1386 25.7258 53.8543 25.889C53.1368 26.3006 52.4271 26.7311 51.6828 27.089C51.2985 27.2662 50.8605 27.2869 50.4612 27.1469C50.0618 27.0068 49.7325 26.717 49.5426 26.3384C49.0564 25.6214 48.7905 25.6424 48.1199 26.133C45.9252 27.7386 44.106 27.5722 42.714 25.7665C41.0445 23.6009 41.7518 21.1893 44.356 20.2153C45.5167 19.7813 46.6818 19.3544 47.8631 18.9817C48.0463 18.9405 48.2191 18.8616 48.3702 18.7499C48.5213 18.6382 48.6475 18.4962 48.7408 18.3329C48.8341 18.1697 48.8924 17.9888 48.912 17.8017C48.9315 17.6147 48.912 17.4256 48.8545 17.2466C48.6697 16.1793 48.506 15.0552 47.0959 14.8876C46.1179 14.7713 45.6762 15.3829 45.3754 16.1777C45.2582 16.4877 45.117 16.7882 45.0109 17.1014C44.8006 17.7227 44.5474 18.2368 43.7332 18.2021C43.3783 18.1928 43.0345 18.0764 42.7468 17.8681C42.4591 17.6598 42.241 17.3692 42.1211 17.0347C41.7832 16.2866 42.3576 15.8018 42.8465 15.4977C44.797 14.2844 46.6766 12.7717 49.2397 13.3998C50.0144 13.5634 50.7126 13.9807 51.2241 14.5857C51.7357 15.1908 52.0314 15.9492 52.0648 16.7413C52.1288 17.856 52.077 18.9774 52.077 20.0959L52.1218 20.0953ZM48.8933 22.3542C48.8933 19.6266 48.8963 19.6318 46.612 20.9122C46.2406 21.0978 45.9231 21.3758 45.6898 21.7195C45.4227 22.1227 45.2996 22.6045 45.3406 23.0865C45.3817 23.5686 45.5844 24.0226 45.9158 24.3746C46.2109 24.6756 46.5992 24.8674 47.0173 24.9186C47.4353 24.9697 47.8584 24.8773 48.2171 24.6564C49.4141 24.1185 48.6578 23.0387 48.8933 22.3542Z" fill="#DFAE61"/>
<path d="M47.6363 49.2414C47.6536 45.2609 50.743 41.8282 54.3121 41.8238C54.9336 41.8218 55.5493 41.943 56.1238 42.1803C56.6983 42.4176 57.2203 42.7663 57.6596 43.2064C58.099 43.6466 58.447 44.1694 58.6838 44.7448C58.9205 45.3202 59.0413 45.9367 59.039 46.559C59.0379 47.3709 58.7013 47.8026 57.8915 47.859C55.9926 47.9921 54.094 48.2109 52.1943 48.2229C51.0903 48.2298 50.9575 48.6895 51.0843 49.5749C51.5392 52.7509 54.7739 54.1627 57.5899 52.3913C57.9402 52.1713 58.2337 51.7935 58.6393 52.279C58.9978 52.7081 58.7274 53.0479 58.4668 53.3797C57.9345 54.1111 57.2437 54.7124 56.4463 55.1384C55.6488 55.5644 54.7654 55.8042 53.8623 55.8396C52.9591 55.8751 52.0597 55.7053 51.2314 55.3431C50.403 54.9809 49.6674 54.4356 49.0795 53.7481C48.0429 52.4847 47.5268 50.8728 47.6363 49.2414ZM53.0145 46.583C53.8171 46.583 54.3951 46.5912 54.9727 46.5802C55.3665 46.5727 55.6968 46.4764 55.7916 46.0042C55.778 45.4943 55.6448 44.9947 55.4028 44.5458C55.1608 44.0969 54.8167 43.7113 54.3984 43.4201C53.9852 43.2191 53.5108 43.184 53.0726 43.3221C52.6343 43.4602 52.2654 43.7609 52.0416 44.1626C51.5755 44.8526 50.9238 45.6586 51.2753 46.3806C51.5534 46.9521 52.5638 46.4995 53.0145 46.583Z" fill="#DFAE61"/>
<path d="M84.2489 15.4452C84.2489 18.22 84.2648 20.9952 84.2413 23.7694C84.2325 24.8112 84.4918 25.5844 85.697 25.6471C86.1249 25.6693 86.2717 25.8925 86.2662 26.2862C86.2603 26.7095 86.0288 26.8692 85.6351 26.869C83.6434 26.8685 81.6519 26.8732 79.6603 26.8678C79.255 26.8666 78.9014 26.7477 78.8944 26.2544C78.8888 25.8434 79.154 25.6944 79.5329 25.6488C80.5777 25.5228 80.8655 24.8279 80.8641 23.8904C80.8574 19.1277 80.8581 14.365 80.866 9.60233C80.8678 8.71693 80.6789 8.02684 79.6077 7.99564C79.5348 8.00333 79.4611 7.99453 79.3921 7.96982C79.323 7.94511 79.2604 7.90516 79.2089 7.85294C79.1574 7.80071 79.1183 7.73755 79.0944 7.66812C79.0706 7.5987 79.0627 7.52478 79.0712 7.45187C79.0638 7.3681 79.0742 7.28368 79.1016 7.20419C79.129 7.1247 79.1729 7.05192 79.2303 6.99057C79.2878 6.92922 79.3575 6.88069 79.435 6.84817C79.5124 6.81566 79.5958 6.79986 79.6798 6.80185C80.9175 6.68533 82.1389 6.43416 83.3223 6.05276C84.0654 5.85326 84.2644 6.16797 84.2584 6.87277C84.2338 9.72987 84.2485 12.5876 84.2489 15.4452Z" fill="#DFAE61"/>
<path d="M56.4405 19.9201C56.4395 18.6374 56.4244 17.3545 56.4462 16.0722C56.4562 15.4748 56.3073 15.1355 55.6133 15.169C55.2055 15.189 54.5227 15.3806 54.5308 14.7248C54.5368 14.2457 54.9655 13.5801 55.4631 13.5642C56.4639 13.5322 56.4502 12.993 56.4585 12.2727C56.4672 11.5136 58.6132 9.46501 59.3175 9.45411C59.7829 9.44681 59.8459 9.7487 59.8454 10.1117C59.8444 10.9393 59.8846 11.7691 59.8369 12.5938C59.7953 13.3099 60.0799 13.5637 60.7729 13.5069C61.267 13.4669 61.7672 13.5044 62.2647 13.4983C62.7918 13.4919 63.2117 13.6932 63.1834 14.2554C63.1921 14.3814 63.1732 14.5077 63.1283 14.6256C63.0833 14.7436 63.0133 14.8503 62.9231 14.9385C62.8328 15.0266 62.7245 15.0941 62.6057 15.1362C62.4868 15.1783 62.3602 15.194 62.2347 15.1823C62.1519 15.1799 62.0688 15.1813 61.9861 15.185C59.8473 15.2807 59.8473 15.2808 59.8473 17.4772C59.8473 19.1323 59.8402 20.7872 59.8492 22.4426C59.8607 24.5861 60.4794 25.1248 62.5456 24.7873C62.8346 24.74 63.1275 24.5887 63.2661 24.983C63.3299 25.114 63.36 25.2588 63.3537 25.4043C63.3473 25.5498 63.3048 25.6915 63.2299 25.8164C62.5494 26.8111 59.3085 27.4723 58.1692 26.8725C57.6189 26.5398 57.1693 26.0634 56.8687 25.4945C56.568 24.9255 56.4276 24.2853 56.4625 23.6425C56.3646 22.4089 56.4414 21.1614 56.4405 19.9201Z" fill="#DFAE61"/>
<path d="M92.7555 19.0427C92.7561 20.5757 92.7635 22.1088 92.7535 23.6418C92.7468 24.6812 92.9168 25.5788 94.2215 25.65C94.6809 25.675 94.7414 25.97 94.7328 26.3337C94.7221 26.7828 94.427 26.8705 94.0596 26.8706C92.1089 26.8706 90.1578 26.8706 88.2065 26.8706C87.838 26.8706 87.5426 26.7706 87.5311 26.329C87.5211 25.9546 87.64 25.668 88.0747 25.6564C89.1462 25.6278 89.3429 24.9352 89.3396 24.0517C89.3297 21.7317 89.3241 19.411 89.3443 17.0909C89.3518 16.2203 89.228 15.509 88.1528 15.4173C88.0792 15.4141 88.007 15.3961 87.9404 15.3644C87.8739 15.3326 87.8144 15.2878 87.7655 15.2326C87.7166 15.1773 87.6793 15.1128 87.6559 15.0428C87.6324 14.9728 87.6232 14.8989 87.6289 14.8253C87.6275 14.4153 87.8873 14.278 88.259 14.2025C89.4742 13.9557 90.697 13.7282 91.8899 13.3966C92.5989 13.1993 92.7724 13.4031 92.7629 14.071C92.7391 15.7277 92.7549 17.3853 92.7555 19.0427Z" fill="#DFAE61"/>
<path d="M146.202 48.7453C145.832 48.8091 145.452 48.7871 145.092 48.6809C144.731 48.5747 144.4 48.3871 144.124 48.1326C143.297 47.4444 142.391 46.857 141.426 46.3826C140.452 45.9526 140.648 44.8291 140.192 44.0756C139.907 43.6049 140.717 43.3221 141.064 43.0418C142.343 42.0684 143.522 40.9708 144.585 39.7651C145.514 38.6536 146.925 38.8461 148.16 38.6493C148.637 38.5734 149.339 38.0961 149.623 38.6223C149.873 39.0855 149.201 39.5292 148.893 39.9503C147.685 41.462 146.361 42.8761 144.931 44.1796C144.687 44.3665 144.512 44.6288 144.433 44.9258C144.353 45.2227 144.374 45.5376 144.492 45.8215C144.589 46.119 144.781 46.376 145.04 46.5525C145.298 46.7291 145.607 46.8153 145.919 46.7978C146.001 46.8015 146.084 46.799 146.167 46.8014C146.972 46.825 147.918 46.8158 147.912 47.8989C147.906 49.0796 146.824 48.5649 146.202 48.7453Z" fill="#DFAE61"/>
<path d="M169.531 34.2579C169.217 36.0012 168.852 38.0323 168.486 40.0634C168.42 40.4317 168.255 40.56 167.884 40.3603C166.278 39.4943 166.157 34.1909 167.727 33.1963C167.832 33.1286 167.946 33.0752 168.065 33.0378C168.511 32.9043 168.805 32.1972 169.357 32.5679C169.868 32.911 169.518 33.4849 169.531 34.2579Z" fill="#DFAE61"/>
<path d="M91.0254 7.4528C91.2854 7.43226 91.5467 7.47038 91.79 7.56431C92.0333 7.65823 92.2526 7.80556 92.4315 7.99552C92.6105 8.18548 92.7446 8.41323 92.8241 8.66196C92.9036 8.91069 92.9263 9.17408 92.8907 9.43278C92.8455 9.95174 92.6109 10.4358 92.2315 10.7923C91.8522 11.1489 91.355 11.3528 90.8349 11.3651C90.3221 11.2954 89.8521 11.0417 89.5119 10.6512C89.1718 10.2607 88.9847 9.75995 88.9854 9.2418C89.0006 8.0778 89.7386 7.4307 91.0254 7.4528Z" fill="#DFAE61"/>
<path d="M146.063 36.0041C146.159 35.692 145.936 35.1316 146.52 35.1855C146.952 35.2255 146.763 35.7074 146.848 35.9997C147.032 36.629 146.338 37.5356 147.433 37.8797C146.859 38.3336 146.397 38.5624 146.406 37.4754C146.41 36.9695 146.656 36.3812 146.063 36.0041Z" fill="#DFAE61"/>
<path d="M145.605 36.8763C145.587 36.5263 145.555 36.1695 146.028 36.0775C146.043 36.2374 146.011 36.3982 145.936 36.5402C145.861 36.6822 145.746 36.7991 145.605 36.8763Z" fill="#DFAE61"/>
<path d="M142.593 40.5502C142.591 40.4824 142.604 40.4151 142.632 40.3531C142.659 40.291 142.7 40.2359 142.751 40.1918C142.803 40.1477 142.864 40.1156 142.929 40.098C142.995 40.0805 143.063 40.0778 143.13 40.0902C143.113 40.2197 143.049 40.3384 142.95 40.4234C142.851 40.5084 142.724 40.5536 142.593 40.5502Z" fill="#DFAE61"/>
<path d="M173.377 10.0882C173.498 9.29619 173.115 8.58038 172.521 8.48943C171.928 8.39848 171.348 8.96683 171.227 9.75887C171.106 10.5509 171.489 11.2667 172.083 11.3577C172.677 11.4486 173.256 10.8803 173.377 10.0882Z" fill="#DEAB5B"/>
</svg>
