<svg xmlns="http://www.w3.org/2000/svg" width="48" height="48" viewBox="0 0 48 48" fill="none">
    <path fill-rule="evenodd" clip-rule="evenodd" d="M32.3565 5.77746L5.68861 32.4454L5.68849 42.3995L15.6427 42.3995L42.3107 15.7316L42.3107 5.77734L32.3565 5.77746ZM8.48304 33.6029L8.48297 39.6051L14.4852 39.6051L39.5162 14.5741L39.5162 8.57182L33.514 8.5719L8.48304 33.6029Z" fill="#00BFFF"/>
    <path d="M9.54078 19.5838L11.5168 17.6078L8.48303 14.5741L8.48296 8.57189L14.4852 8.5719L17.519 11.6056L19.4949 9.62964L15.6427 5.77746L5.68848 5.77744L5.6886 15.7316L9.54078 19.5838Z" fill="#00BFFF"/>
    <path d="M32.3565 42.3995L28.5146 38.5576L30.4906 36.5816L33.514 39.6051L39.5162 39.6052L39.5162 33.6029L36.4928 30.5794L38.4688 28.6035L42.3107 32.4454L42.3107 42.3996L32.3565 42.3995Z" fill="#00BFFF"/>
</svg>