<svg width="200" height="163" viewBox="0 0 200 163" fill="none" xmlns="http://www.w3.org/2000/svg">
<path d="M96.4765 149.436C132.278 149.436 161.302 120.413 161.302 84.6107C161.302 48.8086 132.278 19.7852 96.4765 19.7852C60.6741 19.7852 31.6509 48.8086 31.6509 84.6107C31.6509 120.413 60.6741 149.436 96.4765 149.436Z" fill="#4C84C2"/>
<path d="M96.4765 145.852C130.299 145.852 157.718 118.434 157.718 84.6108C157.718 50.7879 130.299 23.3691 96.4765 23.3691C62.6537 23.3691 35.2349 50.7879 35.2349 84.6108C35.2349 118.434 62.6537 145.852 96.4765 145.852Z" fill="#FFFFFE"/>
<mask id="mask0_1_6395" style="mask-type:luminance" maskUnits="userSpaceOnUse" x="36" y="24" width="121" height="121">
<path d="M96.4765 144.349C129.469 144.349 156.215 117.603 156.215 84.6108C156.215 51.6182 129.469 24.8726 96.4765 24.8726C63.4839 24.8726 36.7383 51.6182 36.7383 84.6108C36.7383 117.603 63.4839 144.349 96.4765 144.349Z" fill="white"/>
</mask>
<g mask="url(#mask0_1_6395)">
<path d="M43.3658 55.708C43.3658 55.708 44.4564 61.3087 50.849 61.4396C57.245 61.5704 50.849 97.0201 50.849 97.0201L70.3255 124.285L81.1913 130.879L86.0235 133.111C86.0235 133.111 82.7685 134.01 83.0839 139.708C83.3994 145.406 86.0235 143.862 86.0235 143.862C86.0235 143.862 62.8323 140.164 54.3658 129.107C45.8994 118.05 36.3557 110.107 35.2349 97.0201C34.1141 83.9328 35.7819 71.1443 38.0638 65.0704C40.3457 58.9966 43.3658 55.708 43.3658 55.708Z" fill="#E3E2F0"/>
</g>
<mask id="mask1_1_6395" style="mask-type:luminance" maskUnits="userSpaceOnUse" x="36" y="24" width="121" height="121">
<path d="M96.4765 144.349C129.469 144.349 156.215 117.603 156.215 84.6108C156.215 51.6182 129.469 24.8726 96.4765 24.8726C63.4839 24.8726 36.7383 51.6182 36.7383 84.6108C36.7383 117.603 63.4839 144.349 96.4765 144.349Z" fill="white"/>
</mask>
<g mask="url(#mask1_1_6395)">
<path d="M36.8121 75.0437C36.8121 75.0437 40.7953 86.943 47.9933 84.792C55.1879 82.6444 54.3624 103.188 54.3624 103.188L68.7517 122.091L75.7449 126.232C75.7449 126.232 67.2651 128.745 73.1208 139.557C76.9933 146.708 46.1308 122.748 45.7751 121.718C45.4194 120.691 37.5067 106.014 37.5067 106.014L35.0805 95.0169L34.9329 84.886L36.8121 75.0437Z" fill="#D2D1E7"/>
</g>
<mask id="mask2_1_6395" style="mask-type:luminance" maskUnits="userSpaceOnUse" x="36" y="24" width="121" height="121">
<path d="M96.4765 144.349C129.469 144.349 156.215 117.603 156.215 84.6108C156.215 51.6182 129.469 24.8726 96.4765 24.8726C63.4839 24.8726 36.7383 51.6182 36.7383 84.6108C36.7383 117.603 63.4839 144.349 96.4765 144.349Z" fill="white"/>
</mask>
<g mask="url(#mask2_1_6395)">
<path d="M158.644 98.1176C158.644 98.1176 150.996 89.6478 144.892 91.5572C138.788 93.4666 136.463 56.0236 136.463 56.0236L109.322 36.3726L96.9226 33.5807L92.7414 37.0908C92.7414 37.0908 98.3421 30.8189 94.3857 26.178C90.1978 21.2653 87.4327 20.9196 88.2079 22.8089C88.2079 22.8089 111.369 18.933 122.916 26.7216C134.463 34.5102 146.037 39.0035 151.265 51.0505C156.493 63.0975 158.983 75.7552 158.751 82.2418C158.527 88.7317 158.644 98.1176 158.644 98.1176Z" fill="#E3E2F0"/>
</g>
<path d="M115.919 37.802C141.768 48.5402 154.02 78.2013 143.282 104.054C132.544 129.906 102.882 142.154 77.0301 131.416C51.1778 120.678 38.9295 91.0168 49.6677 65.1644C60.406 39.3121 90.0704 27.0637 115.919 37.802Z" fill="#D5655C"/>
<mask id="mask3_1_6395" style="mask-type:luminance" maskUnits="userSpaceOnUse" x="45" y="33" width="103" height="103">
<path d="M115.919 37.802C141.768 48.5402 154.02 78.2013 143.282 104.054C132.544 129.906 102.882 142.154 77.0301 131.416C51.1778 120.678 38.9295 91.0168 49.6677 65.1644C60.406 39.3121 90.0704 27.0637 115.919 37.802Z" fill="white"/>
</mask>
<g mask="url(#mask3_1_6395)">
<path d="M118.527 109.832C123.474 96.7572 116.423 81.9724 102.777 76.8089C89.1322 71.6458 74.06 78.0599 69.1127 91.1348C64.1654 104.21 71.2164 118.995 84.8617 124.158C98.507 129.321 113.579 122.907 118.527 109.832Z" stroke="#D75146" stroke-width="1.67785" stroke-miterlimit="10"/>
<path d="M114.158 107.762C118.204 97.07 112.438 84.9804 101.28 80.7583C90.1224 76.5365 77.7976 81.7811 73.7519 92.4727C69.7066 103.164 75.4721 115.254 86.6301 119.476C97.7878 123.698 110.113 118.453 114.158 107.762Z" stroke="#D75146" stroke-width="1.00671" stroke-miterlimit="10"/>
<path d="M93.8154 130.802C110.56 130.802 124.134 117.228 124.134 100.483C124.134 83.7385 110.56 70.1643 93.8154 70.1643C77.0707 70.1643 63.4966 83.7385 63.4966 100.483C63.4966 117.228 77.0707 130.802 93.8154 130.802Z" stroke="#D75146" stroke-width="2.34899" stroke-miterlimit="10"/>
</g>
<mask id="mask4_1_6395" style="mask-type:luminance" maskUnits="userSpaceOnUse" x="45" y="33" width="103" height="103">
<path d="M115.919 37.802C141.768 48.5402 154.02 78.2013 143.282 104.054C132.544 129.906 102.882 142.154 77.0301 131.416C51.1778 120.678 38.9295 91.0168 49.6677 65.1644C60.406 39.3121 90.0704 27.0637 115.919 37.802Z" fill="white"/>
</mask>
<g mask="url(#mask4_1_6395)">
<path d="M84.8356 167.017C101.981 167.017 115.879 153.187 115.879 136.128C115.879 119.068 101.981 105.238 84.8356 105.238C67.6906 105.238 53.792 119.068 53.792 136.128C53.792 153.187 67.6906 167.017 84.8356 167.017Z" stroke="#D75146" stroke-width="1.67785" stroke-miterlimit="10"/>
<path d="M84.8354 160.906C98.8555 160.906 110.221 149.597 110.221 135.648C110.221 121.698 98.8555 110.389 84.8354 110.389C70.8149 110.389 59.4495 121.698 59.4495 135.648C59.4495 149.597 70.8149 160.906 84.8354 160.906Z" stroke="#D75146" stroke-width="1.00671" stroke-miterlimit="10"/>
<path d="M84.8355 173.124C104.514 173.124 120.466 156.56 120.466 136.128C120.466 115.695 104.514 99.1309 84.8355 99.1309C65.1569 99.1309 49.2046 115.695 49.2046 136.128C49.2046 156.56 65.1569 173.124 84.8355 173.124Z" stroke="#D75146" stroke-width="2.34899" stroke-miterlimit="10"/>
</g>
<mask id="mask5_1_6395" style="mask-type:luminance" maskUnits="userSpaceOnUse" x="45" y="33" width="103" height="103">
<path d="M115.919 37.802C141.768 48.5402 154.02 78.2013 143.282 104.054C132.544 129.906 102.882 142.154 77.0301 131.416C51.1778 120.678 38.9295 91.0168 49.6677 65.1644C60.406 39.3121 90.0704 27.0637 115.919 37.802Z" fill="white"/>
</mask>
<g mask="url(#mask5_1_6395)">
<path d="M52.5537 136.715C72.4154 136.715 88.5168 121.286 88.5168 102.255C88.5168 83.2234 72.4154 67.7952 52.5537 67.7952C32.6918 67.7952 16.5906 83.2234 16.5906 102.255C16.5906 121.286 32.6918 136.715 52.5537 136.715Z" stroke="#D75146" stroke-width="1.67785" stroke-miterlimit="10"/>
<path d="M52.5535 129.899C68.7941 129.899 81.9595 117.283 81.9595 101.721C81.9595 86.1592 68.7941 73.5435 52.5535 73.5435C36.3129 73.5435 23.1475 86.1592 23.1475 101.721C23.1475 117.283 36.3129 129.899 52.5535 129.899Z" stroke="#D75146" stroke-width="1.00671" stroke-miterlimit="10"/>
<path d="M52.5535 143.53C75.3492 143.53 93.8287 125.051 93.8287 102.255C93.8287 79.4593 75.3492 60.9797 52.5535 60.9797C29.7578 60.9797 11.2783 79.4593 11.2783 102.255C11.2783 125.051 29.7578 143.53 52.5535 143.53Z" stroke="#D75146" stroke-width="2.34899" stroke-miterlimit="10"/>
</g>
<path d="M61.9028 68.9731C73.0069 72.0201 83.0136 79.1812 87.4632 93.6007" stroke="#FFFEFE" stroke-width="1.67785" stroke-miterlimit="10"/>
<path d="M80.5705 92.8055C76.651 83.1679 70.7383 78.2182 62.7517 75.2551" stroke="#FFFEFE" stroke-width="1.00671" stroke-miterlimit="10"/>
<path d="M93.0169 93.7417C87.4901 75.9665 77.4599 65.4095 61.9028 62.0437" stroke="#FFFEFE" stroke-width="2.34899" stroke-miterlimit="10"/>
<path d="M93.1912 75.1947C104.923 74.1478 122.463 86.4196 119.825 104.866" stroke="#FFFEFE" stroke-width="1.67785" stroke-miterlimit="10"/>
<path d="M115.208 103.778C117.211 92.0536 107.785 79.8355 94.6711 79.3389" stroke="#FFFEFE" stroke-width="1.00671" stroke-miterlimit="10"/>
<path d="M124.124 104.567C126.131 84.2918 109.218 68.4999 91.7551 70.2281" stroke="#FFFEFE" stroke-width="2.34899" stroke-miterlimit="10"/>
<path d="M70.3254 108.815C80.5704 102.765 99.6577 103.282 110.386 118.577" stroke="#FFFEFE" stroke-width="1.67785" stroke-miterlimit="10"/>
<path d="M105.497 120.973C99.396 111.571 85.1309 107.587 73.9631 112.819" stroke="#FFFEFE" stroke-width="1.00671" stroke-miterlimit="10"/>
<path d="M115.641 117.524C104.473 97.4967 82.1107 94.6678 66.6309 104.315" stroke="#FFFEFE" stroke-width="2.34899" stroke-miterlimit="10"/>
<mask id="mask6_1_6395" style="mask-type:luminance" maskUnits="userSpaceOnUse" x="51" y="38" width="102" height="103">
<path d="M121.661 42.6275C147.51 53.3657 159.762 83.0268 149.024 108.879C138.285 134.731 108.624 146.98 82.7718 136.242C56.9195 125.503 44.6712 95.8389 55.4094 69.9899C66.1477 44.1409 95.8087 31.8892 121.661 42.6275Z" fill="white"/>
</mask>
<g mask="url(#mask6_1_6395)">
<path d="M74.6812 38.8524C74.6812 38.8524 71.9262 30.151 101.077 32.8557C130.228 35.5604 145.054 63.3658 148.748 77.896C153.601 96.9799 138.852 114.235 129.47 123.587C134.611 103.181 134.067 78.8457 123.621 63.6611C113.211 48.5336 96.0033 40.4732 74.6812 38.8524Z" fill="#D75146"/>
</g>
<path d="M132.235 95.6577C132.235 95.6577 130.95 96.9799 130.822 98.1376C130.695 99.2953 132.235 100.581 132.235 100.581C132.235 100.581 133.497 99.2752 133.497 98.1208C133.497 96.9664 132.235 95.6577 132.235 95.6577Z" fill="#FBD678"/>
<path d="M136.614 98.8892C136.614 98.8892 135.329 100.211 135.201 101.369C135.074 102.527 136.614 103.812 136.614 103.812C136.614 103.812 137.876 102.507 137.876 101.352C137.876 100.198 136.614 98.8892 136.614 98.8892Z" fill="#FBD678"/>
<path d="M129.55 100.5C129.55 100.5 128.265 101.822 128.138 102.98C128.01 104.138 129.55 105.423 129.55 105.423C129.55 105.423 130.812 104.117 130.812 102.963C130.812 101.809 129.55 100.5 129.55 100.5Z" fill="#FBD678"/>
<path d="M132.48 104.127C132.48 104.127 131.446 105.191 131.342 106.121C131.238 107.05 132.48 108.084 132.48 108.084C132.48 108.084 133.496 107.037 133.496 106.107C133.496 105.174 132.48 104.127 132.48 104.127Z" fill="#FBD678"/>
<path d="M129.779 111.44C129.779 111.44 128.725 112.336 128.621 113.118C128.517 113.899 129.779 114.769 129.779 114.769C129.779 114.769 130.812 113.886 130.812 113.104C130.812 112.322 129.779 111.44 129.779 111.44Z" fill="#FBD678"/>
<path d="M53.1007 99.3625C53.1007 99.3625 51.8154 100.685 51.6879 101.842C51.5604 103 53.1007 104.285 53.1007 104.285C53.1007 104.285 54.3624 102.98 54.3624 101.826C54.3624 100.671 53.1007 99.3625 53.1007 99.3625Z" fill="#FBD678"/>
<path d="M55.7852 92.1108C55.7852 92.1108 54.5 93.188 54.3725 94.1276C54.245 95.0672 55.7852 96.1142 55.7852 96.1142C55.7852 96.1142 57.047 95.0538 57.047 94.1142C57.047 93.1746 55.7852 92.1108 55.7852 92.1108Z" fill="#FBD678"/>
<path d="M52.2081 88.4397C52.2081 88.4397 51.1913 89.5202 51.0906 90.4632C50.99 91.4095 52.2081 92.4565 52.2081 92.4565C52.2081 92.4565 53.2047 91.3927 53.2047 90.4464C53.2047 89.5001 52.2081 88.4397 52.2081 88.4397Z" fill="#FBD678"/>
<path d="M57.6007 84.8691C57.6007 84.8691 56.3926 85.8658 56.2718 86.7383C56.151 87.6108 57.6007 88.5805 57.6007 88.5805C57.6007 88.5805 58.7886 87.5973 58.7886 86.7248C58.7886 85.8524 57.6007 84.8691 57.6007 84.8691Z" fill="#FBD678"/>
<path d="M80.3355 37.8726C80.3355 37.8726 79.0503 38.9497 78.9228 39.8893C78.7953 40.8289 80.3355 41.8759 80.3355 41.8759C80.3355 41.8759 81.5973 40.8155 81.5973 39.8759C81.6006 38.933 80.3355 37.8726 80.3355 37.8726Z" fill="#FBD678"/>
<path d="M84.1711 38.7986C84.1711 38.7986 83.1846 39.8758 83.0872 40.8154C82.9899 41.755 84.1711 42.8019 84.1711 42.8019C84.1711 42.8019 85.1376 41.7415 85.1376 40.8019C85.1409 39.859 84.1711 38.7986 84.1711 38.7986Z" fill="#FBD678"/>
<path d="M79.9261 43.6343C79.9261 43.6343 78.6409 44.7115 78.5134 45.6511C78.3858 46.5907 79.9261 47.6376 79.9261 47.6376C79.9261 47.6376 81.1879 46.5772 81.1879 45.6376C81.1912 44.6947 79.9261 43.6343 79.9261 43.6343Z" fill="#FBD678"/>
<path d="M139.205 56.8658C135.631 61.1611 129.218 67.2953 123.346 71.2147C117.473 75.1342 114.222 76.6141 114.222 76.6141C114.222 76.6141 120.342 82.0436 122.165 86.1812C124.104 90.5839 124.228 91.057 124.973 94.1107C124.973 94.1107 142.047 86.6845 149.342 82.1678C157.108 77.3624 171.282 65.9463 171.282 65.9463C171.282 65.9463 169.936 63.2114 169.977 60.1141C158.614 51.7382 149.306 42.1174 149.306 42.1174C149.306 42.1174 142.779 52.5705 139.205 56.8658Z" fill="#78B55A" stroke="#178E3F" stroke-width="0.33557" stroke-miterlimit="10"/>
<path d="M169.976 60.1175C169.976 60.1175 158.523 72.6545 148.181 78.5974C138.466 84.1779 124.285 91.1175 124.285 91.1175L123.483 89.2618C123.55 89.2182 126.487 88.1578 135.916 83.537C146.178 78.5068 147.963 77.0941 154.544 72.3021C161.268 67.4028 167.849 58.7551 167.849 58.7551L169.976 60.1175Z" fill="#178E3F"/>
<path d="M150.101 42.9162C150.101 42.9162 148.785 45.4464 145.185 51.188C141.611 56.8893 131.728 66.4363 127.004 70.1745C122.275 73.9128 115.289 77.443 115.289 77.443L114.222 76.6141C114.222 76.6141 120.806 73.396 125.671 69.688C130.43 66.0604 131.789 65.1578 135.893 60.4128C144.594 50.349 149.309 42.1208 149.309 42.1208L150.101 42.9162Z" fill="#178E3F"/>
<path d="M169.977 60.1175C169.977 60.1175 162.443 54.339 158.862 51.1108C155.282 47.8826 149.305 42.1208 149.305 42.1208L148.305 43.6947C148.305 43.6947 152.785 48.849 157.466 52.99C163.121 57.9933 168.034 61.4262 168.171 61.1544C168.409 60.6947 169.977 60.1175 169.977 60.1175Z" fill="#178E3F"/>
<path d="M115.943 76.5805C116.155 76.5033 119.141 78.859 122.118 82.8758C124.285 85.7986 125.228 89.9999 125.228 89.9999L123.987 90.7281C123.96 89.9798 122.426 84.9697 119.208 81.6174C116.769 79.0737 114.218 76.614 114.218 76.614" fill="#178E3F"/>
<path d="M144.048 74.3555C148.203 71.7706 150.301 67.6353 148.736 65.1192C147.17 62.6031 142.533 62.6585 138.379 65.2434C134.224 67.8283 132.126 71.9635 133.691 74.4796C135.257 76.9961 139.894 76.9404 144.048 74.3555Z" fill="#178E3F"/>
<path d="M144.644 75.3129C149.672 72.1847 152.212 67.1803 150.317 64.1353C148.423 61.0904 142.811 61.1578 137.783 64.286C132.755 67.4142 130.215 72.4186 132.11 75.4635C134.005 78.5085 139.616 78.441 144.644 75.3129Z" stroke="#178E3F" stroke-width="1.00671" stroke-miterlimit="10"/>
<path d="M147.121 46.5739C147.121 46.5739 147.594 48.6981 149.923 48.4296C152.245 48.1645 151.983 46.2148 151.983 46.2148" stroke="#178E3F" stroke-width="0.671141" stroke-miterlimit="10"/>
<path d="M166.003 62.537C162.054 60.4497 165.564 58.5437 165.564 58.5437" stroke="#178E3F" stroke-width="0.671141" stroke-miterlimit="10"/>
<path d="M117.161 78.7147C120.429 76.5267 115.943 76.5804 115.943 76.5804" stroke="#178E3F" stroke-width="0.671141" stroke-miterlimit="10"/>
<path d="M126.211 88.5503C126.634 84.1644 123.164 86.7282 123.164 86.7282" stroke="#178E3F" stroke-width="0.671141" stroke-miterlimit="10"/>
<path d="M124.957 43.3892C122.494 48.6643 117.739 56.3959 113.017 61.6006C108.296 66.8053 104.383 70.5939 104.383 70.5939C104.383 70.5939 111.638 73.6811 116.034 78.4563C119.581 82.312 121.406 84.7449 121.406 84.7449C121.406 84.7449 132.235 74.916 138.235 69.8221C145.081 64.0133 157.302 48.6073 157.302 48.6073C157.302 48.6073 155.44 45.7919 154.812 42.3657C142.249 34.8254 131.359 25.6006 131.359 25.6006C131.359 25.6006 127.42 38.114 124.957 43.3892Z" fill="#78B55A" stroke="#178E3F" stroke-width="0.33557" stroke-miterlimit="10"/>
<path d="M154.812 42.3691C154.812 42.3691 146.658 57.9228 138.134 66.0268C130.128 73.6409 119.497 82.2886 119.497 82.2886L118.349 80.9027C118.349 80.9027 119.624 79.8389 127.574 73.3154C136.212 66.2248 137.604 64.4027 142.809 58.1275C148.128 51.7148 152.503 41.1846 152.503 41.1846L154.812 42.3691Z" fill="#178E3F"/>
<path d="M132.282 26.3624C132.282 26.3624 131.577 29.3523 129.403 36.2282C127.242 43.0537 119.933 55.0738 116.258 59.906C112.584 64.7416 106.04 71.3557 106.04 71.3557L105.473 69.2751C105.473 69.2751 111.081 64.3892 114.893 59.5671C118.621 54.8523 119.715 53.651 122.581 47.802C128.661 35.3926 131.359 25.604 131.359 25.604L132.282 26.3624Z" fill="#178E3F"/>
<path d="M154.812 42.3691C154.812 42.3691 146.433 37.1174 142.346 34.0939C138.258 31.0704 131.359 25.604 131.359 25.604L130.752 27.4899C130.752 27.4899 136.104 32.5067 141.43 36.3758C147.862 41.0503 153.255 44.104 153.329 43.7852C153.45 43.2449 154.812 42.3691 154.812 42.3691Z" fill="#178E3F"/>
<path d="M105.94 69.2281C106.611 68.6073 110.923 70.9227 114.725 74.7617C118.527 78.6006 120.322 80.7382 120.322 80.7382L118.685 81.2617C118.497 80.4395 115.963 78.3154 112.195 75.0972C109.336 72.6543 104.591 70.6878 104.591 70.6878" fill="#178E3F"/>
<path d="M134.171 60.9839C137.212 57.1698 137.647 52.4594 135.143 50.4631C132.639 48.4665 128.144 49.94 125.103 53.7541C122.062 57.5681 121.627 62.2786 124.131 64.2749C126.635 66.2715 131.13 64.798 134.171 60.9839Z" fill="#178E3F"/>
<path d="M135.126 61.7454C138.807 57.1286 139.333 51.4266 136.302 49.0095C133.27 46.5927 127.829 48.3759 124.148 52.9927C120.467 57.6095 119.94 63.3115 122.972 65.7286C126.003 68.1454 131.445 66.3622 135.126 61.7454Z" stroke="#178E3F" stroke-width="1.00671" stroke-miterlimit="10"/>
<path d="M130.245 30.8455C130.245 30.8455 131.151 33.1173 133.299 32.4731C135.443 31.8321 134.775 29.718 134.775 29.718" stroke="#178E3F" stroke-width="0.671141" stroke-miterlimit="10"/>
<path d="M151.567 45.6343C147.376 43.9229 150.295 41.2954 150.295 41.2954" stroke="#178E3F" stroke-width="0.671141" stroke-miterlimit="10"/>
<path d="M108.252 71.4497C110.879 68.547 107.158 68.6309 107.158 68.6309" stroke="#178E3F" stroke-width="0.671141" stroke-miterlimit="10"/>
<path d="M120.624 79.8657C120.08 74.963 116.872 78.8624 116.872 78.8624" stroke="#178E3F" stroke-width="0.671141" stroke-miterlimit="10"/>
<path d="M107.044 39.6176C106.812 44.9532 105.561 53.2149 103.514 59.3625C101.467 65.5102 99.7686 69.2485 99.7686 69.2485C99.7686 69.2485 106.316 70.9666 109.785 72.7988C113.752 74.8928 115.527 76.1377 115.527 76.1377C115.527 76.1377 123.151 63.037 126.258 56.4901C129.799 49.0236 134.47 31.5035 134.47 31.5035C134.47 31.5035 132.067 29.8793 130.446 27.2719C117.987 25.8391 106.309 22.3625 106.309 22.3625C106.309 22.3625 107.275 34.2854 107.044 39.6176Z" fill="#78B55A" stroke="#178E3F" stroke-width="0.33557" stroke-miterlimit="10"/>
<path d="M130.446 27.2719C130.446 27.2719 129.054 43.3458 124.933 53.3693C121.06 62.782 114.117 75.2652 114.117 75.2652L112.933 74.5639C112.933 74.5639 114.742 71.9834 118.926 63.4968C123.473 54.2753 123.983 52.2216 126.064 45.0001C128.191 37.6176 128.225 27.178 128.225 27.178L130.446 27.2719Z" fill="#178E3F"/>
<path d="M107.292 22.6377C107.292 22.6377 107.712 25.3927 108.232 31.9498C108.748 38.4565 106.873 51.2686 105.534 56.7048C104.195 62.1411 101.061 69.6344 101.061 69.6344L99.7686 69.2485C99.7686 69.2485 102.883 62.4263 104.336 56.9464C105.755 51.5874 106.232 50.1713 106.597 44.2015C107.369 31.5404 106.309 22.3625 106.309 22.3625L107.292 22.6377Z" fill="#178E3F"/>
<path d="M130.446 27.2719C130.446 27.2719 122.064 26.131 117.825 25.1914C113.584 24.2518 106.309 22.3625 106.309 22.3625L106.443 24.1646C106.443 24.1646 112.342 26.2753 117.842 27.4431C124.49 28.8525 129.775 29.3156 129.728 29.0203C129.651 28.5236 130.446 27.2719 130.446 27.2719Z" fill="#178E3F"/>
<path d="M100.101 68.4196C100.208 68.2518 104.242 68.782 108.523 70.5102C112.805 72.2384 114.681 74.2384 114.681 74.2384L113.913 75.2551C113.493 74.6444 110.57 72.6545 106.52 71.4296C103.45 70.5001 100 69.2585 100 69.2585" fill="#178E3F"/>
<path d="M120.119 50.74C121.302 46.4004 120.122 42.2991 117.483 41.5793C114.844 40.8595 111.745 43.7941 110.561 48.1337C109.378 52.4733 110.558 56.5749 113.197 57.2944C115.837 58.0142 118.935 55.0796 120.119 50.74Z" fill="#178E3F"/>
<path d="M121.122 51.0139C122.554 45.7622 121.126 40.7991 117.933 39.9283C114.739 39.0572 110.99 42.6085 109.558 47.8602C108.125 53.1115 109.554 58.0749 112.747 58.9458C115.94 59.8166 119.69 56.2652 121.122 51.0139Z" stroke="#178E3F" stroke-width="1.00671" stroke-miterlimit="10"/>
<path d="M107.141 27.1509C107.141 27.1509 108.604 28.6912 110.104 27.3288C111.597 25.9697 110.376 24.4697 110.376 24.4697" stroke="#178E3F" stroke-width="0.671141" stroke-miterlimit="10"/>
<path d="M128.94 31.2383C125.047 31.4296 126.507 28.1208 126.507 28.1208" stroke="#178E3F" stroke-width="0.671141" stroke-miterlimit="10"/>
<path d="M102.95 69.386C104.087 65.9598 101.158 67.4632 101.158 67.4632" stroke="#178E3F" stroke-width="0.671141" stroke-miterlimit="10"/>
<path d="M114.758 72.4362C112.721 68.5671 111.644 72.406 111.644 72.406" stroke="#178E3F" stroke-width="0.671141" stroke-miterlimit="10"/>
<path d="M88.6946 40.7986C88.6946 40.7986 102.51 47.6107 95.4429 61.7482C88.3758 75.8858 71.604 66.5033 71.604 66.5033L88.6946 40.7986Z" fill="#78B55A"/>
<path d="M72.4966 65.1577C73.1275 65.3859 87.1744 72.9295 93.6006 61.6846C100.688 49.2819 87.7952 42.1577 87.7952 42.1577L72.4966 65.1577Z" fill="#F3DB79"/>
<path d="M73.4832 63.6711C73.4832 63.6711 79.5201 66.9295 85.2483 66C87.916 65.5671 90.5201 64.2215 92.4127 61.2148C99.0536 50.6778 86.8254 43.6074 86.8187 43.6174" stroke="white" stroke-width="0.671141" stroke-miterlimit="10"/>
<path d="M80.6174 52.9429L92.7449 60.6643" stroke="white" stroke-width="0.671141" stroke-miterlimit="10"/>
<path d="M86.2449 65.8122L80.6677 53.0471" stroke="white" stroke-width="0.671141" stroke-miterlimit="10"/>
<path d="M94.1946 53.047L80.7617 52.9597" stroke="white" stroke-width="0.671141" stroke-miterlimit="10"/>
<path d="M91.2818 47.416L80.7617 52.9596" stroke="white" stroke-width="0.671141" stroke-miterlimit="10"/>
<path d="M79.8491 65.8121L80.6679 53.1846" stroke="white" stroke-width="0.671141" stroke-miterlimit="10"/>
<path d="M53.3489 8.4128L94.4831 150.678L61.4294 5.66448C61.4294 5.66448 60.1207 4.40273 56.1274 5.68797C53.4831 6.53696 53.3489 8.4128 53.3489 8.4128Z" fill="black"/>
<path d="M38.7784 12.963L93.9697 150.403L46.5435 9.41942C46.5435 9.41942 45.114 8.29526 41.2684 9.97312C38.7214 11.0805 38.7784 12.963 38.7784 12.963Z" fill="black"/>
<path d="M53.3489 8.4128L59.8522 30.9094C59.8522 30.9094 61.6039 29.4229 63.218 28.8591C64.8321 28.2953 66.8657 29.5135 66.8657 29.5135L61.4294 5.66448C61.4294 5.66448 60.1207 4.40273 56.1274 5.68797C53.4831 6.53696 53.3489 8.4128 53.3489 8.4128Z" fill="#D75146"/>
<path d="M38.7784 12.963L47.369 34.359C47.369 34.359 49.2549 32.557 50.2818 32.2013C51.3086 31.8456 54.0603 31.7684 54.0603 31.7684L46.5435 9.41942C46.5435 9.41942 45.114 8.29526 41.2684 9.97312C38.7214 11.0805 38.7784 12.963 38.7784 12.963Z" fill="#D75146"/>
</svg>
