<svg width="127" height="127" viewBox="0 0 127 127" fill="none" xmlns="http://www.w3.org/2000/svg">
<g clip-path="url(#clip0_557_14032)">
<path d="M127 63.5C127 28.4299 98.5701 0 63.5 0C28.4299 0 0 28.4299 0 63.5C0 98.5701 28.4299 127 63.5 127C98.5701 127 127 98.5701 127 63.5Z" fill="#34393E"/>
<path d="M127 63.5C127 28.4299 98.5701 0 63.5 0C28.4299 0 0 28.4299 0 63.5C0 98.5701 28.4299 127 63.5 127C98.5701 127 127 98.5701 127 63.5Z" fill="black" fill-opacity="0.2"/>
<path d="M127 63.5C127 28.4299 98.5701 0 63.5 0C28.4299 0 0 28.4299 0 63.5C0 98.5701 28.4299 127 63.5 127C98.5701 127 127 98.5701 127 63.5Z" fill="black" fill-opacity="0.2"/>
<path d="M40.9881 40.7458C40.9881 46.7806 43.3862 52.5682 47.6548 56.8355C51.9234 61.1027 57.713 63.5 63.7497 63.5H17.8594C17.8584 57.5068 19.0384 51.5721 21.3321 46.0347C23.6257 40.4974 26.9879 35.4659 31.2268 31.2276C35.4657 26.9895 40.4982 23.6275 46.037 21.3337C51.5757 19.04 57.5122 17.8594 63.5074 17.8594H63.7497V17.9916C57.713 17.9916 51.9234 20.3888 47.6548 24.6562C43.3862 28.9234 40.9881 34.711 40.9881 40.7458Z" fill="white"/>
<path d="M109.141 63.5C109.141 75.559 104.367 87.128 95.8622 95.6797C87.3573 104.231 75.8124 109.071 63.7498 109.141V109.009C69.7865 109.009 75.576 106.611 79.8446 102.344C84.1133 98.0766 86.5113 92.289 86.5113 86.2542C86.5113 80.2194 84.1133 74.4318 79.8446 70.1646C75.576 65.8973 69.7865 63.5 63.7498 63.5H109.141Z" fill="white"/>
</g>
<defs>
<clipPath id="clip0_557_14032">
<rect width="127" height="127" fill="white"/>
</clipPath>
</defs>
</svg>
