<svg width="24" height="24" viewBox="0 0 24 24" fill="none" xmlns="http://www.w3.org/2000/svg">
<rect x="0.5" y="0.5" width="23" height="23" rx="5.5" stroke="#A19C9C" stroke-opacity="0.25"/>
<path d="M10.1197 9.54678C10.3429 9.32362 10.3429 8.96181 10.1197 8.73866C9.89658 8.5155 9.53478 8.5155 9.31162 8.73866L6.45448 11.5958C6.23132 11.819 6.23132 12.1808 6.45448 12.4039L9.31162 15.2611C9.53478 15.4842 9.89658 15.4842 10.1197 15.2611C10.3429 15.0379 10.3429 14.6761 10.1197 14.4529L7.66666 11.9999L10.1197 9.54678Z" fill="#F5F5F6"/>
<path d="M14.6912 8.73866C14.468 8.5155 14.1062 8.5155 13.883 8.73866C13.6599 8.96181 13.6599 9.32362 13.883 9.54678L16.3361 11.9999L13.883 14.4529C13.6599 14.6761 13.6599 15.0379 13.883 15.2611C14.1062 15.4842 14.468 15.4842 14.6912 15.2611L17.5483 12.4039C17.7715 12.1808 17.7715 11.819 17.5483 11.5958L14.6912 8.73866Z" fill="#F5F5F6"/>
</svg>
