

<svg width="32" height="32" viewBox="0 0 32 32" fill="none" xmlns="http://www.w3.org/2000/svg">
<mask id="path-1-inside-1_10481_57125" fill="white">
<path fill-rule="evenodd" clip-rule="evenodd" d="M16 3C8.8203 3 3 8.8203 3 16C3 23.1797 8.8203 29 16 29C23.1797 29 29 23.1797 29 16C29 8.8203 23.1797 3 16 3ZM22.4321 12.0803C22.4964 12.0773 22.5361 12.1449 22.5022 12.1996C22.2963 12.5317 21.9167 12.9716 21.3594 13.4911C20.7611 14.0487 19.9937 14.6653 19.0987 15.2997C18.931 15.4186 18.7074 15.4196 18.5355 15.3066C18.3999 15.2175 18.2622 15.1283 18.1227 15.0392C17.982 14.9495 17.8944 14.7962 17.8884 14.6294C17.8805 14.4121 17.8709 14.1974 17.8595 13.9859C17.8485 13.7834 17.9586 13.593 18.1419 13.5061C18.5851 13.2961 19.0123 13.1069 19.4185 12.9401C19.5678 12.8787 19.7352 12.9055 19.8909 12.9483C19.9628 12.968 20.0385 12.9786 20.1167 12.9786C20.4015 12.9786 20.6536 12.8385 20.8079 12.6235C20.9027 12.4914 21.0171 12.3641 21.1736 12.3198C21.6985 12.1715 22.1218 12.0945 22.4321 12.0803ZM20.5485 11.3958C20.7325 11.5045 20.9474 11.5936 21.1541 11.5391C22.3181 11.2321 23.1236 11.2359 23.35 11.6215C23.7317 12.2715 22.3644 13.8296 20.0598 15.5395C19.7826 15.7452 19.7823 16.1643 20.0593 16.3703C22.37 18.0885 23.7413 19.6544 23.3577 20.3051C22.9801 20.9456 21.0037 20.5279 18.4414 19.3801C18.1226 19.2373 17.7531 19.4486 17.7146 19.7958C17.4033 22.6015 16.7576 24.5293 16.0115 24.5293C15.5544 24.5293 15.135 23.8055 14.807 22.5994C14.7595 22.4247 14.6178 22.2948 14.4701 22.1902C14.2524 22.0363 14.1103 21.7826 14.1103 21.4957C14.1103 21.327 14.1594 21.1698 14.2441 21.0376C14.3424 20.8842 14.4254 20.7093 14.4002 20.5288C14.365 20.2776 14.3327 20.0177 14.3034 19.7498C14.2655 19.4025 13.8962 19.1914 13.5772 19.3339C11.0033 20.4839 9.01707 20.9019 8.63964 20.2591C8.25956 19.6118 9.61379 18.064 11.901 16.3626C12.1773 16.157 12.1784 15.7395 11.9025 15.5333C11.6752 15.3633 11.4572 15.195 11.2493 15.0289C11.1031 14.9121 10.9041 14.8965 10.7172 14.9055C10.7035 14.9061 10.6897 14.9064 10.6759 14.9064C10.2063 14.9064 9.82565 14.5258 9.82565 14.0562C9.82565 13.9022 9.793 13.7421 9.68591 13.6315C8.83223 12.7493 8.43271 12.0315 8.66243 11.6418C9.04043 11.0007 11.0206 11.42 13.587 12.5706C13.9055 12.7134 14.2748 12.5027 14.3139 12.1559C14.6272 9.37623 15.2698 7.4705 16.0115 7.4705C16.7504 7.4705 17.3909 9.36154 17.7056 12.1237C17.745 12.4698 18.1126 12.6805 18.4307 12.5386C18.7 12.4186 18.9627 12.3065 19.2178 12.2029C19.2479 12.1907 19.2664 12.1607 19.2664 12.1283C19.2664 11.6588 19.6471 11.2781 20.1167 11.2781C20.2743 11.2781 20.4219 11.321 20.5485 11.3958ZM15.9423 23.5055C15.8151 23.2641 15.6855 22.923 15.5624 22.4859C15.5086 22.2947 15.5932 22.0973 15.6939 21.9261C15.7682 21.7999 15.8108 21.6527 15.8108 21.4957C15.8108 21.2201 15.6796 20.9751 15.4764 20.8197C15.3197 20.7 15.1684 20.5508 15.1417 20.3554C15.0835 19.9301 15.0333 19.4777 14.9925 19.0027C14.9752 18.8016 15.0832 18.6112 15.2623 18.5181C15.4167 18.4379 15.5721 18.3556 15.7286 18.2714C15.8795 18.1902 16.0612 18.1905 16.2117 18.2723C16.395 18.3718 16.577 18.4686 16.7574 18.5626C16.9365 18.656 17.0443 18.8466 17.0267 19.0477C16.9327 20.1217 16.7912 21.0792 16.6158 21.8661C16.45 22.6097 16.2629 23.1598 16.0807 23.5055C16.0507 23.5624 15.9723 23.5624 15.9423 23.5055ZM11.6601 14.3864C11.5631 14.3083 11.5261 14.1807 11.5261 14.0562C11.5261 13.5866 11.1454 13.206 10.6759 13.206C10.4933 13.206 10.2991 13.1764 10.1733 13.0441C9.87024 12.7255 9.64933 12.4483 9.50925 12.2214C9.47545 12.1667 9.51527 12.0991 9.57954 12.1022C9.96985 12.1208 10.5387 12.239 11.2635 12.4738C12.0252 12.7207 12.9151 13.0818 13.8803 13.5418C14.0628 13.6288 14.1725 13.8186 14.1618 14.0205C14.152 14.2053 14.1435 14.3924 14.1365 14.5816C14.1303 14.7485 14.0423 14.9018 13.9012 14.9913C13.7391 15.0942 13.5796 15.1973 13.4228 15.3004C13.2503 15.4137 13.0259 15.4123 12.8581 15.2923C12.427 14.9844 12.0261 14.6808 11.6601 14.3864ZM15.2699 13.3881C15.0906 13.2946 14.9829 13.1037 15.0008 12.9023C15.0947 11.8485 15.2346 10.9084 15.4073 10.1337C15.5731 9.39008 15.7602 8.84001 15.9423 8.49432C15.9723 8.4374 16.0507 8.4374 16.0807 8.49432C16.2629 8.84001 16.45 9.39008 16.6158 10.1337C16.7864 10.8991 16.925 11.826 17.0189 12.8644C17.0371 13.0664 16.9289 13.258 16.7489 13.3513C16.5726 13.4428 16.3947 13.537 16.2155 13.6338C16.0649 13.7151 15.8834 13.7151 15.7328 13.6338C15.5775 13.5499 15.4231 13.468 15.2699 13.3881ZM15.0321 14.3008C14.9769 14.3334 14.9075 14.2917 14.9106 14.2276C14.9109 14.22 14.9113 14.2124 14.9117 14.2048C14.915 14.1372 14.9868 14.0957 15.0467 14.1272C15.1112 14.1612 15.1134 14.2532 15.0505 14.2901C15.0444 14.2937 15.0383 14.2972 15.0321 14.3008ZM14.1103 15.9513C14.1105 15.8678 14.0175 15.8176 13.9476 15.8631C13.8845 15.9043 13.885 15.9962 13.948 16.0375C13.9621 16.0467 13.9762 16.0559 13.9903 16.0652C14.042 16.0989 14.1104 16.0617 14.1103 15.9999C14.1103 15.9837 14.1103 15.9675 14.1103 15.9513ZM15.1084 16.7666C14.9619 16.6783 14.8718 16.5204 14.8702 16.3493C14.8692 16.2335 14.8686 16.117 14.8686 15.9999C14.8686 15.8498 14.8695 15.7007 14.8712 15.5527C14.8732 15.3818 14.9637 15.2241 15.1104 15.1362C15.2114 15.0756 15.3133 15.0151 15.4161 14.9547C15.5207 14.8933 15.625 14.8328 15.7289 14.773C15.8808 14.6858 16.0676 14.6858 16.2195 14.773C16.3427 14.8438 16.4664 14.9158 16.5905 14.9889C16.6993 15.0531 16.8073 15.1175 16.9142 15.1819C17.0605 15.2701 17.1506 15.4277 17.1524 15.5985C17.1538 15.7314 17.1545 15.8653 17.1545 15.9999C17.1545 16.1021 17.1541 16.2039 17.1532 16.3052C17.1519 16.4766 17.0615 16.6349 16.9146 16.7233C16.802 16.791 16.6883 16.8585 16.5735 16.9259C16.4545 16.9958 16.3359 17.0646 16.2177 17.1323C16.0655 17.2194 15.8786 17.2191 15.7267 17.1314C15.628 17.0744 15.5289 17.0166 15.4296 16.9581C15.3216 16.8944 15.2145 16.8306 15.1084 16.7666ZM14.1329 17.319C14.1271 17.152 14.0395 16.9984 13.8986 16.9085C13.7369 16.8053 13.5777 16.702 13.4212 16.5986C13.2491 16.4849 13.0247 16.4858 12.8565 16.6054C11.9763 17.2311 11.2209 17.8391 10.6302 18.3896C10.0729 18.909 9.69333 19.3489 9.48747 19.681C9.45358 19.7357 9.49328 19.8033 9.55755 19.8004C9.94789 19.7824 10.517 19.6653 11.2421 19.4317C12.008 19.185 12.9033 18.8232 13.8748 18.3617C14.0571 18.2751 14.167 18.0857 14.1569 17.8841C14.1475 17.6979 14.1395 17.5095 14.1329 17.319ZM15.0431 17.7771C14.9826 17.8088 14.9102 17.7668 14.9071 17.6985C14.907 17.6969 14.907 17.6953 14.9069 17.6937C14.9036 17.6214 14.9821 17.5745 15.0445 17.6113C15.0454 17.6118 15.0464 17.6124 15.0473 17.6129C15.1106 17.6503 15.1082 17.7429 15.0431 17.7771ZM17.8639 17.9299C17.8535 18.1315 17.9631 18.3211 18.1455 18.4079C19.1085 18.8667 19.9964 19.2268 20.7566 19.4732C21.4814 19.708 22.0502 19.8262 22.4406 19.8448C22.5048 19.8479 22.5446 19.7803 22.5108 19.7256C22.3056 19.3931 21.9267 18.9526 21.3703 18.4321C20.7697 17.8703 19.9982 17.2487 19.098 16.609C18.9303 16.4899 18.7067 16.4886 18.5347 16.6014C18.4006 16.6893 18.2644 16.7773 18.1264 16.8652C17.9851 16.9551 17.8972 17.1091 17.8916 17.2765C17.8842 17.4972 17.875 17.7151 17.8639 17.9299ZM16.9575 17.5798C17.0299 17.5373 17.1208 17.5916 17.117 17.6754C17.1166 17.6844 17.1162 17.6933 17.1158 17.7023C17.1118 17.7899 17.019 17.8438 16.9414 17.8029C16.858 17.7588 16.8551 17.6398 16.9365 17.5921C16.9435 17.588 16.9505 17.5839 16.9575 17.5798ZM17.9128 15.9999C17.9127 16.0437 17.9612 16.0701 17.9979 16.0462C18.0109 16.0378 18.024 16.0293 18.037 16.0208C18.0855 15.9892 18.0859 15.9185 18.0374 15.8869C17.9839 15.8518 17.9127 15.8904 17.9127 15.9543C17.9128 15.9695 17.9128 15.9847 17.9128 15.9999ZM17.1137 14.2528C17.1172 14.3255 17.0383 14.3727 16.9756 14.3357C16.9624 14.3279 16.9492 14.3202 16.936 14.3124C16.8565 14.2657 16.8595 14.1493 16.9412 14.1064C17.0168 14.0666 17.1072 14.1192 17.1114 14.2045C17.1122 14.2206 17.1129 14.2367 17.1137 14.2528ZM16.8436 15.9406C16.8436 16.4101 16.463 16.7908 15.9934 16.7908C15.5238 16.7908 15.1432 16.4101 15.1432 15.9406C15.1432 15.471 15.5238 15.0903 15.9934 15.0903C16.463 15.0903 16.8436 15.471 16.8436 15.9406Z"/>
</mask>
<g filter="url(#filter0_i_10481_57125)">
<path fill-rule="evenodd" clip-rule="evenodd" d="M16 3C8.8203 3 3 8.8203 3 16C3 23.1797 8.8203 29 16 29C23.1797 29 29 23.1797 29 16C29 8.8203 23.1797 3 16 3ZM22.4321 12.0803C22.4964 12.0773 22.5361 12.1449 22.5022 12.1996C22.2963 12.5317 21.9167 12.9716 21.3594 13.4911C20.7611 14.0487 19.9937 14.6653 19.0987 15.2997C18.931 15.4186 18.7074 15.4196 18.5355 15.3066C18.3999 15.2175 18.2622 15.1283 18.1227 15.0392C17.982 14.9495 17.8944 14.7962 17.8884 14.6294C17.8805 14.4121 17.8709 14.1974 17.8595 13.9859C17.8485 13.7834 17.9586 13.593 18.1419 13.5061C18.5851 13.2961 19.0123 13.1069 19.4185 12.9401C19.5678 12.8787 19.7352 12.9055 19.8909 12.9483C19.9628 12.968 20.0385 12.9786 20.1167 12.9786C20.4015 12.9786 20.6536 12.8385 20.8079 12.6235C20.9027 12.4914 21.0171 12.3641 21.1736 12.3198C21.6985 12.1715 22.1218 12.0945 22.4321 12.0803ZM20.5485 11.3958C20.7325 11.5045 20.9474 11.5936 21.1541 11.5391C22.3181 11.2321 23.1236 11.2359 23.35 11.6215C23.7317 12.2715 22.3644 13.8296 20.0598 15.5395C19.7826 15.7452 19.7823 16.1643 20.0593 16.3703C22.37 18.0885 23.7413 19.6544 23.3577 20.3051C22.9801 20.9456 21.0037 20.5279 18.4414 19.3801C18.1226 19.2373 17.7531 19.4486 17.7146 19.7958C17.4033 22.6015 16.7576 24.5293 16.0115 24.5293C15.5544 24.5293 15.135 23.8055 14.807 22.5994C14.7595 22.4247 14.6178 22.2948 14.4701 22.1902C14.2524 22.0363 14.1103 21.7826 14.1103 21.4957C14.1103 21.327 14.1594 21.1698 14.2441 21.0376C14.3424 20.8842 14.4254 20.7093 14.4002 20.5288C14.365 20.2776 14.3327 20.0177 14.3034 19.7498C14.2655 19.4025 13.8962 19.1914 13.5772 19.3339C11.0033 20.4839 9.01707 20.9019 8.63964 20.2591C8.25956 19.6118 9.61379 18.064 11.901 16.3626C12.1773 16.157 12.1784 15.7395 11.9025 15.5333C11.6752 15.3633 11.4572 15.195 11.2493 15.0289C11.1031 14.9121 10.9041 14.8965 10.7172 14.9055C10.7035 14.9061 10.6897 14.9064 10.6759 14.9064C10.2063 14.9064 9.82565 14.5258 9.82565 14.0562C9.82565 13.9022 9.793 13.7421 9.68591 13.6315C8.83223 12.7493 8.43271 12.0315 8.66243 11.6418C9.04043 11.0007 11.0206 11.42 13.587 12.5706C13.9055 12.7134 14.2748 12.5027 14.3139 12.1559C14.6272 9.37623 15.2698 7.4705 16.0115 7.4705C16.7504 7.4705 17.3909 9.36154 17.7056 12.1237C17.745 12.4698 18.1126 12.6805 18.4307 12.5386C18.7 12.4186 18.9627 12.3065 19.2178 12.2029C19.2479 12.1907 19.2664 12.1607 19.2664 12.1283C19.2664 11.6588 19.6471 11.2781 20.1167 11.2781C20.2743 11.2781 20.4219 11.321 20.5485 11.3958ZM15.9423 23.5055C15.8151 23.2641 15.6855 22.923 15.5624 22.4859C15.5086 22.2947 15.5932 22.0973 15.6939 21.9261C15.7682 21.7999 15.8108 21.6527 15.8108 21.4957C15.8108 21.2201 15.6796 20.9751 15.4764 20.8197C15.3197 20.7 15.1684 20.5508 15.1417 20.3554C15.0835 19.9301 15.0333 19.4777 14.9925 19.0027C14.9752 18.8016 15.0832 18.6112 15.2623 18.5181C15.4167 18.4379 15.5721 18.3556 15.7286 18.2714C15.8795 18.1902 16.0612 18.1905 16.2117 18.2723C16.395 18.3718 16.577 18.4686 16.7574 18.5626C16.9365 18.656 17.0443 18.8466 17.0267 19.0477C16.9327 20.1217 16.7912 21.0792 16.6158 21.8661C16.45 22.6097 16.2629 23.1598 16.0807 23.5055C16.0507 23.5624 15.9723 23.5624 15.9423 23.5055ZM11.6601 14.3864C11.5631 14.3083 11.5261 14.1807 11.5261 14.0562C11.5261 13.5866 11.1454 13.206 10.6759 13.206C10.4933 13.206 10.2991 13.1764 10.1733 13.0441C9.87024 12.7255 9.64933 12.4483 9.50925 12.2214C9.47545 12.1667 9.51527 12.0991 9.57954 12.1022C9.96985 12.1208 10.5387 12.239 11.2635 12.4738C12.0252 12.7207 12.9151 13.0818 13.8803 13.5418C14.0628 13.6288 14.1725 13.8186 14.1618 14.0205C14.152 14.2053 14.1435 14.3924 14.1365 14.5816C14.1303 14.7485 14.0423 14.9018 13.9012 14.9913C13.7391 15.0942 13.5796 15.1973 13.4228 15.3004C13.2503 15.4137 13.0259 15.4123 12.8581 15.2923C12.427 14.9844 12.0261 14.6808 11.6601 14.3864ZM15.2699 13.3881C15.0906 13.2946 14.9829 13.1037 15.0008 12.9023C15.0947 11.8485 15.2346 10.9084 15.4073 10.1337C15.5731 9.39008 15.7602 8.84001 15.9423 8.49432C15.9723 8.4374 16.0507 8.4374 16.0807 8.49432C16.2629 8.84001 16.45 9.39008 16.6158 10.1337C16.7864 10.8991 16.925 11.826 17.0189 12.8644C17.0371 13.0664 16.9289 13.258 16.7489 13.3513C16.5726 13.4428 16.3947 13.537 16.2155 13.6338C16.0649 13.7151 15.8834 13.7151 15.7328 13.6338C15.5775 13.5499 15.4231 13.468 15.2699 13.3881ZM15.0321 14.3008C14.9769 14.3334 14.9075 14.2917 14.9106 14.2276C14.9109 14.22 14.9113 14.2124 14.9117 14.2048C14.915 14.1372 14.9868 14.0957 15.0467 14.1272C15.1112 14.1612 15.1134 14.2532 15.0505 14.2901C15.0444 14.2937 15.0383 14.2972 15.0321 14.3008ZM14.1103 15.9513C14.1105 15.8678 14.0175 15.8176 13.9476 15.8631C13.8845 15.9043 13.885 15.9962 13.948 16.0375C13.9621 16.0467 13.9762 16.0559 13.9903 16.0652C14.042 16.0989 14.1104 16.0617 14.1103 15.9999C14.1103 15.9837 14.1103 15.9675 14.1103 15.9513ZM15.1084 16.7666C14.9619 16.6783 14.8718 16.5204 14.8702 16.3493C14.8692 16.2335 14.8686 16.117 14.8686 15.9999C14.8686 15.8498 14.8695 15.7007 14.8712 15.5527C14.8732 15.3818 14.9637 15.2241 15.1104 15.1362C15.2114 15.0756 15.3133 15.0151 15.4161 14.9547C15.5207 14.8933 15.625 14.8328 15.7289 14.773C15.8808 14.6858 16.0676 14.6858 16.2195 14.773C16.3427 14.8438 16.4664 14.9158 16.5905 14.9889C16.6993 15.0531 16.8073 15.1175 16.9142 15.1819C17.0605 15.2701 17.1506 15.4277 17.1524 15.5985C17.1538 15.7314 17.1545 15.8653 17.1545 15.9999C17.1545 16.1021 17.1541 16.2039 17.1532 16.3052C17.1519 16.4766 17.0615 16.6349 16.9146 16.7233C16.802 16.791 16.6883 16.8585 16.5735 16.9259C16.4545 16.9958 16.3359 17.0646 16.2177 17.1323C16.0655 17.2194 15.8786 17.2191 15.7267 17.1314C15.628 17.0744 15.5289 17.0166 15.4296 16.9581C15.3216 16.8944 15.2145 16.8306 15.1084 16.7666ZM14.1329 17.319C14.1271 17.152 14.0395 16.9984 13.8986 16.9085C13.7369 16.8053 13.5777 16.702 13.4212 16.5986C13.2491 16.4849 13.0247 16.4858 12.8565 16.6054C11.9763 17.2311 11.2209 17.8391 10.6302 18.3896C10.0729 18.909 9.69333 19.3489 9.48747 19.681C9.45358 19.7357 9.49328 19.8033 9.55755 19.8004C9.94789 19.7824 10.517 19.6653 11.2421 19.4317C12.008 19.185 12.9033 18.8232 13.8748 18.3617C14.0571 18.2751 14.167 18.0857 14.1569 17.8841C14.1475 17.6979 14.1395 17.5095 14.1329 17.319ZM15.0431 17.7771C14.9826 17.8088 14.9102 17.7668 14.9071 17.6985C14.907 17.6969 14.907 17.6953 14.9069 17.6937C14.9036 17.6214 14.9821 17.5745 15.0445 17.6113C15.0454 17.6118 15.0464 17.6124 15.0473 17.6129C15.1106 17.6503 15.1082 17.7429 15.0431 17.7771ZM17.8639 17.9299C17.8535 18.1315 17.9631 18.3211 18.1455 18.4079C19.1085 18.8667 19.9964 19.2268 20.7566 19.4732C21.4814 19.708 22.0502 19.8262 22.4406 19.8448C22.5048 19.8479 22.5446 19.7803 22.5108 19.7256C22.3056 19.3931 21.9267 18.9526 21.3703 18.4321C20.7697 17.8703 19.9982 17.2487 19.098 16.609C18.9303 16.4899 18.7067 16.4886 18.5347 16.6014C18.4006 16.6893 18.2644 16.7773 18.1264 16.8652C17.9851 16.9551 17.8972 17.1091 17.8916 17.2765C17.8842 17.4972 17.875 17.7151 17.8639 17.9299ZM16.9575 17.5798C17.0299 17.5373 17.1208 17.5916 17.117 17.6754C17.1166 17.6844 17.1162 17.6933 17.1158 17.7023C17.1118 17.7899 17.019 17.8438 16.9414 17.8029C16.858 17.7588 16.8551 17.6398 16.9365 17.5921C16.9435 17.588 16.9505 17.5839 16.9575 17.5798ZM17.9128 15.9999C17.9127 16.0437 17.9612 16.0701 17.9979 16.0462C18.0109 16.0378 18.024 16.0293 18.037 16.0208C18.0855 15.9892 18.0859 15.9185 18.0374 15.8869C17.9839 15.8518 17.9127 15.8904 17.9127 15.9543C17.9128 15.9695 17.9128 15.9847 17.9128 15.9999ZM17.1137 14.2528C17.1172 14.3255 17.0383 14.3727 16.9756 14.3357C16.9624 14.3279 16.9492 14.3202 16.936 14.3124C16.8565 14.2657 16.8595 14.1493 16.9412 14.1064C17.0168 14.0666 17.1072 14.1192 17.1114 14.2045C17.1122 14.2206 17.1129 14.2367 17.1137 14.2528ZM16.8436 15.9406C16.8436 16.4101 16.463 16.7908 15.9934 16.7908C15.5238 16.7908 15.1432 16.4101 15.1432 15.9406C15.1432 15.471 15.5238 15.0903 15.9934 15.0903C16.463 15.0903 16.8436 15.471 16.8436 15.9406Z" fill="#9497A2"/>
</g>
<path d="M21.3594 13.4911L21.0185 13.1253L21.3594 13.4911ZM23.35 11.6215L23.7812 11.3684L23.7812 11.3684L23.35 11.6215ZM23.3577 20.3051L22.9269 20.0512L23.3577 20.3051ZM8.63964 20.2591L9.0708 20.0059L9.0708 20.0059L8.63964 20.2591ZM8.66243 11.6418L8.23171 11.3879H8.23171L8.66243 11.6418ZM16.6158 21.8661L17.1038 21.9749L16.6158 21.8661ZM11.2635 12.4738L11.1093 12.9495L11.1093 12.9495L11.2635 12.4738ZM15.4073 10.1337L15.8953 10.2425L15.4073 10.1337ZM16.6158 10.1337L16.1278 10.2425L16.6158 10.1337ZM15.4161 14.9547L15.1629 14.5236H15.1629L15.4161 14.9547ZM16.5905 14.9889L16.8444 14.5582H16.8444L16.5905 14.9889ZM16.5735 16.9259L16.3204 16.4947H16.3204L16.5735 16.9259ZM15.4296 16.9581L15.1757 17.3888L15.1757 17.3888L15.4296 16.9581ZM10.6302 18.3896L10.2893 18.0238L10.6302 18.3896ZM11.2421 19.4317L11.0888 18.9558L11.2421 19.4317ZM20.7566 19.4732L20.9107 18.9975L20.7566 19.4732ZM21.3703 18.4321L21.7119 18.067H21.7119L21.3703 18.4321ZM16.936 14.3124L16.6826 14.7434L16.936 14.3124ZM17.9979 16.0462L17.7255 15.627L17.9979 16.0462ZM19.098 16.609L18.8084 17.0166L19.098 16.609ZM18.1455 18.4079L17.9304 18.8593L18.1455 18.4079ZM17.8639 17.9299L17.3646 17.9041L17.8639 17.9299ZM15.0473 17.6129L14.7934 18.0437L15.0473 17.6129ZM14.9071 17.6985L14.4076 17.7215L14.9071 17.6985ZM14.9069 17.6937L14.4074 17.7167L14.9069 17.6937ZM13.8748 18.3617L14.0893 18.8133L13.8748 18.3617ZM13.8986 16.9085L13.6296 17.33L13.8986 16.9085ZM13.4212 16.5986L13.1457 17.0158L13.4212 16.5986ZM12.8565 16.6054L12.5668 16.1979L12.8565 16.6054ZM17.1532 16.3052L16.6533 16.3012L17.1532 16.3052ZM16.9146 16.7233L16.6569 16.2948L16.9146 16.7233ZM15.1084 16.7666L14.8503 17.1948L15.1084 16.7666ZM15.0505 14.2901L14.7976 13.8588L15.0505 14.2901ZM14.9117 14.2048L15.4111 14.2292L14.9117 14.2048ZM17.0189 12.8644L16.5209 12.9094L17.0189 12.8644ZM16.7489 13.3513L16.5187 12.9075L16.7489 13.3513ZM15.0008 12.9023L14.5028 12.8579L15.0008 12.9023ZM10.1733 13.0441L10.5355 12.6995L10.1733 13.0441ZM11.6601 14.3864L11.3467 14.776L11.6601 14.3864ZM15.7286 18.2714L15.4916 17.8312L15.7286 18.2714ZM16.2117 18.2723L16.4503 17.8329L16.2117 18.2723ZM15.1417 20.3554L15.6371 20.2876L15.1417 20.3554ZM16.2177 17.1323L15.9692 16.6984L16.2177 17.1323ZM15.7267 17.1314L15.9767 16.6984L15.7267 17.1314ZM15.5624 22.4859L16.0437 22.3504L15.5624 22.4859ZM15.6939 21.9261L16.1249 22.1796L15.6939 21.9261ZM14.8712 15.5527L14.3713 15.5469L14.8712 15.5527ZM15.1104 15.1362L15.3675 15.565L15.1104 15.1362ZM9.68591 13.6315L9.32661 13.9792L9.68591 13.6315ZM11.2493 15.0289L11.5613 14.6382L11.2493 15.0289ZM10.7172 14.9055L10.741 15.4049L10.7172 14.9055ZM13.9903 16.0652L13.7169 16.4838L13.9903 16.0652ZM11.901 16.3626L12.1994 16.7638L11.901 16.3626ZM11.9025 15.5333L11.6031 15.9337L11.9025 15.5333ZM13.948 16.0375L13.674 16.4557L13.948 16.0375ZM14.3034 19.7498L13.8064 19.8041L14.3034 19.7498ZM13.5772 19.3339L13.7812 19.7904L13.5772 19.3339ZM14.9925 19.0027L14.4944 19.0455L14.9925 19.0027ZM15.2623 18.5181L15.0318 18.0744L15.2623 18.5181ZM16.2155 13.6338L15.9779 13.1939L16.2155 13.6338ZM15.7328 13.6338L15.4952 14.0737L15.7328 13.6338ZM17.1137 14.2528L17.6132 14.2291L17.1137 14.2528ZM18.4414 19.3801L18.2369 19.8364L18.4414 19.3801ZM17.7146 19.7958L17.2176 19.7406L17.7146 19.7958ZM20.0598 15.5395L20.3577 15.941L20.0598 15.5395ZM20.0593 16.3703L20.3577 15.9691L20.0593 16.3703ZM18.037 16.0208L18.31 16.4397L18.037 16.0208ZM20.8079 12.6235L20.4017 12.332L20.8079 12.6235ZM21.1736 12.3198L21.3096 12.801L21.1736 12.3198ZM14.2441 21.0376L13.8231 20.7679L14.2441 21.0376ZM14.4002 20.5288L14.8953 20.4595L14.4002 20.5288ZM19.2178 12.2029L19.406 12.6662L19.2178 12.2029ZM16.9365 17.5921L17.1894 18.0234L16.9365 17.5921ZM19.4185 12.9401L19.2285 12.4776L19.4185 12.9401ZM19.8909 12.9483L20.0233 12.4661L19.8909 12.9483ZM16.9142 15.1819L17.1724 14.7537L16.9142 15.1819ZM17.1524 15.5985L17.6523 15.5932L17.1524 15.5985ZM17.7056 12.1237L17.2088 12.1803L17.7056 12.1237ZM18.4307 12.5386L18.2271 12.082L18.4307 12.5386ZM13.4228 15.3004L13.1481 14.8825L13.4228 15.3004ZM12.8581 15.2923L12.5674 15.6992L12.8581 15.2923ZM17.117 17.6754L17.6165 17.6981L17.117 17.6754ZM17.8595 13.9859L18.3587 13.9589L17.8595 13.9859ZM18.1419 13.5061L18.356 13.958L18.1419 13.5061ZM15.7289 14.773L15.4799 14.3395L15.7289 14.773ZM16.2195 14.773L16.4686 14.3395L16.2195 14.773ZM14.3139 12.1559L13.817 12.0998L14.3139 12.1559ZM13.8803 13.5418L13.6652 13.9931L13.8803 13.5418ZM14.1618 14.0205L13.6625 13.9941L14.1618 14.0205ZM18.1264 16.8652L17.8579 16.4434L18.1264 16.8652ZM17.8916 17.2765L17.3919 17.2598L17.8916 17.2765ZM19.0987 15.2997L18.8096 14.8917L19.0987 15.2997ZM18.5355 15.3066L18.2608 15.7244L18.5355 15.3066ZM16.7574 18.5626L16.5264 19.0061L16.7574 18.5626ZM17.0267 19.0477L16.5286 19.0042L17.0267 19.0477ZM14.9106 14.2276L14.4112 14.2036L14.9106 14.2276ZM17.1114 14.2045L17.6108 14.1802L17.1114 14.2045ZM14.807 22.5994L14.3245 22.7306L14.807 22.5994ZM14.4701 22.1902L14.1813 22.5984L14.4701 22.1902ZM14.1365 14.5816L13.6368 14.5629L14.1365 14.5816ZM13.9012 14.9913L13.6332 14.5692L13.9012 14.9913ZM17.1158 17.7023L17.6153 17.7253L17.1158 17.7023ZM18.1227 15.0392L18.3916 14.6177L18.1227 15.0392ZM17.8884 14.6294L18.388 14.6114L17.8884 14.6294ZM17.9127 15.9543L17.4127 15.9549L17.9127 15.9543ZM21.1541 11.5391L21.0266 11.0556L21.1541 11.5391ZM20.5485 11.3958L20.8028 10.9653L20.5485 11.3958ZM3.5 16C3.5 9.09644 9.09644 3.5 16 3.5V2.5C8.54416 2.5 2.5 8.54416 2.5 16H3.5ZM16 28.5C9.09644 28.5 3.5 22.9036 3.5 16H2.5C2.5 23.4558 8.54416 29.5 16 29.5V28.5ZM28.5 16C28.5 22.9036 22.9036 28.5 16 28.5V29.5C23.4558 29.5 29.5 23.4558 29.5 16H28.5ZM16 3.5C22.9036 3.5 28.5 9.09644 28.5 16H29.5C29.5 8.54416 23.4558 2.5 16 2.5V3.5ZM21.7003 13.8568C22.2715 13.3245 22.6875 12.8496 22.9272 12.463L22.0772 11.9362C21.9051 12.2139 21.5619 12.6188 21.0185 13.1253L21.7003 13.8568ZM19.3879 15.7076C20.2963 15.0637 21.082 14.4332 21.7003 13.8568L21.0185 13.1253C20.4402 13.6643 19.6911 14.2669 18.8096 14.8917L19.3879 15.7076ZM17.8537 15.4607C17.9914 15.5486 18.1271 15.6365 18.2608 15.7244L18.8102 14.8888C18.6726 14.7984 18.5331 14.708 18.3916 14.6177L17.8537 15.4607ZM17.3602 14.0128C17.3714 14.2214 17.381 14.433 17.3887 14.6474L18.388 14.6114C18.3801 14.3911 18.3703 14.1735 18.3587 13.9589L17.3602 14.0128ZM19.2285 12.4776C18.8136 12.648 18.3783 12.8408 17.9278 13.0543L18.356 13.958C18.7919 13.7514 19.2111 13.5658 19.6085 13.4026L19.2285 12.4776ZM20.1167 12.4786C20.0837 12.4786 20.0525 12.4741 20.0233 12.4661L19.7584 13.4304C19.8731 13.4619 19.9933 13.4786 20.1167 13.4786V12.4786ZM20.4017 12.332C20.3373 12.4217 20.2336 12.4786 20.1167 12.4786V13.4786C20.5694 13.4786 20.97 13.2553 21.2141 12.915L20.4017 12.332ZM22.4091 11.5808C22.0454 11.5975 21.5811 11.6851 21.0376 11.8387L21.3096 12.801C21.8158 12.6579 22.1981 12.5915 22.455 12.5797L22.4091 11.5808ZM23.7812 11.3684C23.5291 10.939 23.0296 10.8326 22.618 10.8208C22.1739 10.808 21.6286 10.8968 21.0266 11.0556L21.2816 12.0225C21.8436 11.8743 22.283 11.8116 22.5893 11.8204C22.9281 11.8301 22.9445 11.9184 22.9188 11.8747L23.7812 11.3684ZM20.3577 15.941C21.5252 15.0748 22.4765 14.2321 23.0931 13.507C23.3994 13.1469 23.6434 12.7926 23.7823 12.4604C23.916 12.1407 23.9951 11.7327 23.7812 11.3684L22.9188 11.8747C22.8957 11.8353 22.947 11.8659 22.8597 12.0745C22.7776 12.2708 22.6073 12.5348 22.3314 12.8591C21.7837 13.5031 20.899 14.2943 19.7619 15.1379L20.3577 15.941ZM23.7884 20.5591C24.0034 20.1943 23.9243 19.7853 23.7905 19.4648C23.6514 19.1317 23.4071 18.7761 23.1001 18.4145C22.4819 17.6863 21.5282 16.8395 20.3577 15.9691L19.761 16.7715C20.9011 17.6193 21.7884 18.4146 22.3377 19.0616C22.6144 19.3876 22.7853 19.6528 22.8677 19.8501C22.9553 20.0598 22.9037 20.0906 22.9269 20.0512L23.7884 20.5591ZM18.2369 19.8364C19.5353 20.418 20.709 20.8259 21.6232 21.004C22.0773 21.0925 22.4975 21.1304 22.8493 21.0888C23.1891 21.0485 23.5767 20.9182 23.7884 20.5591L22.9269 20.0512C22.9499 20.0123 22.9488 20.07 22.7317 20.0957C22.5267 20.12 22.2219 20.1018 21.8144 20.0225C21.0054 19.8648 19.9098 19.49 18.6458 18.9238L18.2369 19.8364ZM16.0115 25.0293C16.4298 25.0293 16.7396 24.7599 16.947 24.4864C17.1619 24.203 17.343 23.8196 17.4976 23.381C17.809 22.4978 18.0538 21.2725 18.2115 19.8509L17.2176 19.7406C17.0641 21.1248 16.8303 22.2662 16.5545 23.0484C16.4156 23.4425 16.2759 23.7164 16.1502 23.8821C16.017 24.0578 15.9663 24.0293 16.0115 24.0293V25.0293ZM14.3245 22.7306C14.4939 23.3534 14.6957 23.8876 14.9344 24.2776C15.1544 24.6372 15.5033 25.0293 16.0115 25.0293V24.0293C16.0626 24.0293 15.9733 24.0595 15.7873 23.7556C15.62 23.4822 15.4481 23.0516 15.2895 22.4682L14.3245 22.7306ZM13.6103 21.4957C13.6103 21.9517 13.8369 22.3547 14.1813 22.5984L14.7588 21.7821C14.668 21.7178 14.6103 21.6134 14.6103 21.4957H13.6103ZM13.8231 20.7679C13.6884 20.9782 13.6103 21.2286 13.6103 21.4957H14.6103C14.6103 21.4254 14.6305 21.3615 14.6651 21.3074L13.8231 20.7679ZM13.8064 19.8041C13.8362 20.0767 13.8691 20.3417 13.905 20.5981L14.8953 20.4595C14.8609 20.2136 14.8292 19.9586 14.8005 19.6955L13.8064 19.8041ZM8.20847 20.5123C8.42009 20.8727 8.80882 21.0035 9.14937 21.0439C9.50224 21.0859 9.924 21.0481 10.38 20.9596C11.298 20.7815 12.477 20.3731 13.7812 19.7904L13.3733 18.8774C12.1035 19.4447 11.0025 19.8202 10.1895 19.9779C9.78001 20.0574 9.47358 20.0754 9.26744 20.0509C9.04899 20.025 9.04789 19.9669 9.0708 20.0059L8.20847 20.5123ZM11.6025 15.9614C10.4438 16.8234 9.50013 17.6616 8.8887 18.3828C8.585 18.7411 8.34312 19.0937 8.20557 19.4245C8.07301 19.7433 7.9954 20.1494 8.20847 20.5123L9.0708 20.0059C9.09384 20.0452 9.04298 20.0151 9.12892 19.8085C9.20986 19.6138 9.37822 19.3518 9.65147 19.0295C10.1939 18.3896 11.071 17.6032 12.1994 16.7638L11.6025 15.9614ZM10.9373 15.4196C11.1496 15.5892 11.3718 15.7608 11.6031 15.9337L12.2019 15.1328C11.9786 14.9659 11.7649 14.8008 11.5613 14.6382L10.9373 15.4196ZM10.6759 15.4064C10.6977 15.4064 10.7194 15.4059 10.741 15.4049L10.6933 14.406C10.6876 14.4063 10.6818 14.4064 10.6759 14.4064V15.4064ZM9.32565 14.0562C9.32565 14.8019 9.93017 15.4064 10.6759 15.4064V14.4064C10.4825 14.4064 10.3256 14.2496 10.3256 14.0562H9.32565ZM8.23171 11.3879C7.97613 11.8214 8.1314 12.3157 8.3253 12.6846C8.53512 13.0838 8.88547 13.5233 9.32661 13.9792L10.0452 13.2838C9.63267 12.8575 9.35642 12.497 9.21048 12.2194C9.04864 11.9114 9.119 11.8519 9.09315 11.8958L8.23171 11.3879ZM13.7916 12.1144C12.4912 11.5314 11.3156 11.1224 10.3999 10.9436C9.94509 10.8548 9.52425 10.8166 9.17194 10.8581C8.83182 10.8982 8.44365 11.0284 8.23171 11.3879L9.09315 11.8958C9.0702 11.9347 9.07131 11.8769 9.289 11.8512C9.49449 11.827 9.79998 11.8453 10.2083 11.925C11.0188 12.0833 12.1165 12.4593 13.3825 13.0269L13.7916 12.1144ZM16.0115 6.9705C15.5956 6.9705 15.287 7.23702 15.0799 7.50842C14.8656 7.78934 14.6851 8.16919 14.5309 8.60352C14.2204 9.47797 13.9758 10.6914 13.817 12.0998L14.8107 12.2119C14.9653 10.8407 15.1987 9.71144 15.4732 8.93811C15.6115 8.54856 15.7504 8.27825 15.8749 8.11498C16.0068 7.94219 16.0566 7.9705 16.0115 7.9705V6.9705ZM18.2023 12.0671C18.0429 10.6674 17.7984 9.46196 17.4886 8.5933C17.3347 8.16183 17.1545 7.78433 16.9406 7.50508C16.7338 7.23508 16.4259 6.9705 16.0115 6.9705V7.9705C15.9666 7.9705 16.0159 7.9423 16.1468 8.11319C16.2706 8.27482 16.4088 8.54271 16.5467 8.92928C16.8204 9.69668 17.0536 10.8179 17.2088 12.1803L18.2023 12.0671ZM19.0297 11.7397C18.7691 11.8455 18.5012 11.9597 18.2271 12.082L18.6343 12.9953C18.8987 12.8774 19.1563 12.7676 19.406 12.6662L19.0297 11.7397ZM19.7664 12.1283C19.7664 11.9349 19.9232 11.7781 20.1167 11.7781V10.7781C19.3709 10.7781 18.7664 11.3826 18.7664 12.1283H19.7664ZM20.1167 11.7781C20.1824 11.7781 20.2425 11.7958 20.2942 11.8263L20.8028 10.9653C20.6014 10.8463 20.3662 10.7781 20.1167 10.7781V11.7781ZM15.0811 22.6214C15.2094 23.0771 15.3504 23.4547 15.5 23.7386L16.3847 23.2724C16.2798 23.0734 16.1615 22.7689 16.0437 22.3504L15.0811 22.6214ZM15.3108 21.4957C15.3108 21.5612 15.2933 21.6211 15.2629 21.6726L16.1249 22.1796C16.2431 21.9786 16.3108 21.7443 16.3108 21.4957H15.3108ZM15.1727 21.217C15.2576 21.2818 15.3108 21.3824 15.3108 21.4957H16.3108C16.3108 21.0577 16.1017 20.6683 15.78 20.4225L15.1727 21.217ZM14.4944 19.0455C14.5358 19.5282 14.5869 19.989 14.6463 20.4232L15.6371 20.2876C15.5801 19.8712 15.5308 19.4271 15.4907 18.9599L14.4944 19.0455ZM15.4916 17.8312C15.3372 17.9143 15.1839 17.9954 15.0318 18.0744L15.4929 18.9618C15.6494 18.8804 15.807 18.797 15.9656 18.7117L15.4916 17.8312ZM16.9885 18.1192C16.8106 18.0266 16.6312 17.9311 16.4503 17.8329L15.9731 18.7117C16.1589 18.8126 16.3434 18.9107 16.5264 19.0061L16.9885 18.1192ZM17.1038 21.9749C17.2851 21.1616 17.4294 20.1816 17.5248 19.0913L16.5286 19.0042C16.4361 20.0618 16.2973 20.9968 16.1278 21.7573L17.1038 21.9749ZM16.5231 23.7386C16.7351 23.3362 16.9339 22.737 17.1038 21.9749L16.1278 21.7573C15.9661 22.4825 15.7907 22.9834 15.6384 23.2724L16.5231 23.7386ZM10.6759 13.706C10.8693 13.706 11.0261 13.8628 11.0261 14.0562H12.0261C12.0261 13.3105 11.4216 12.706 10.6759 12.706V13.706ZM9.0838 12.4841C9.24863 12.7511 9.49467 13.0562 9.81096 13.3887L10.5355 12.6995C10.2458 12.3949 10.05 12.1456 9.9347 11.9587L9.0838 12.4841ZM11.4176 11.9982C10.6748 11.7575 10.0577 11.6244 9.60336 11.6028L9.55571 12.6016C9.88201 12.6172 10.4026 12.7205 11.1093 12.9495L11.4176 11.9982ZM14.0954 13.0904C13.1155 12.6234 12.2049 12.2533 11.4176 11.9982L11.1093 12.9495C11.8455 13.188 12.7147 13.5401 13.6652 13.9931L14.0954 13.0904ZM14.6361 14.6002C14.6431 14.4136 14.6514 14.2291 14.6611 14.047L13.6625 13.9941C13.6526 14.1815 13.644 14.3711 13.6368 14.5629L14.6361 14.6002ZM13.6974 15.7182C13.852 15.6166 14.0093 15.515 14.1692 15.4134L13.6332 14.5692C13.4689 14.6735 13.3072 14.778 13.1481 14.8825L13.6974 15.7182ZM11.3467 14.776C11.7208 15.0769 12.1293 15.3862 12.5674 15.6992L13.1487 14.8855C12.7247 14.5826 12.3315 14.2848 11.9735 13.9968L11.3467 14.776ZM14.9193 10.0249C14.7408 10.8256 14.5981 11.788 14.5028 12.8579L15.4988 12.9467C15.5913 11.909 15.7284 10.9912 15.8953 10.2425L14.9193 10.0249ZM15.5 8.26121C15.2879 8.66359 15.0892 9.26281 14.9193 10.0249L15.8953 10.2425C16.057 9.51734 16.2324 9.01642 16.3847 8.72743L15.5 8.26121ZM17.1038 10.0249C16.9339 9.26281 16.7351 8.66359 16.5231 8.26121L15.6384 8.72743C15.7907 9.01642 15.9661 9.51734 16.1278 10.2425L17.1038 10.0249ZM17.5168 12.8194C17.4215 11.7649 17.2802 10.8161 17.1038 10.0249L16.1278 10.2425C16.2926 10.9821 16.4285 11.887 16.5209 12.9094L17.5168 12.8194ZM16.4532 14.0737C16.6299 13.9782 16.8053 13.8854 16.9792 13.7952L16.5187 12.9075C16.3398 13.0003 16.1595 13.0958 15.9779 13.1939L16.4532 14.0737ZM15.0387 13.8315C15.1898 13.9102 15.342 13.991 15.4952 14.0737L15.9704 13.1939C15.8129 13.1088 15.6564 13.0258 15.501 12.9447L15.0387 13.8315ZM14.4123 14.1805C14.4119 14.1882 14.4115 14.1959 14.4112 14.2036L15.41 14.2517C15.4104 14.2442 15.4107 14.2367 15.4111 14.2292L14.4123 14.1805ZM15.2853 14.732C15.2914 14.7285 15.2974 14.7249 15.3034 14.7214L14.7976 13.8588C14.7914 13.8624 14.7852 13.866 14.779 13.8697L15.2853 14.732ZM14.2637 15.6465C14.2498 15.6374 14.2359 15.6283 14.222 15.6192L13.674 16.4557C13.6883 16.4651 13.7026 16.4744 13.7169 16.4838L14.2637 15.6465ZM13.6103 15.9506C13.6103 15.9671 13.6103 15.9835 13.6103 15.9999H14.6103C14.6103 15.9839 14.6103 15.9679 14.6103 15.9519L13.6103 15.9506ZM14.3686 15.9999C14.3686 16.1185 14.3692 16.2366 14.3702 16.3539L15.3702 16.3448C15.3691 16.2304 15.3686 16.1155 15.3686 15.9999H14.3686ZM14.3713 15.5469C14.3695 15.6968 14.3686 15.8478 14.3686 15.9999H15.3686C15.3686 15.8517 15.3695 15.7046 15.3712 15.5586L14.3713 15.5469ZM15.1629 14.5236C15.0588 14.5847 14.9556 14.646 14.8532 14.7074L15.3675 15.565C15.4673 15.5052 15.5679 15.4455 15.6693 15.3859L15.1629 14.5236ZM15.4799 14.3395C15.3745 14.4 15.2689 14.4614 15.1629 14.5236L15.6693 15.3859C15.7725 15.3253 15.8754 15.2655 15.978 15.2066L15.4799 14.3395ZM16.8444 14.5582C16.7187 14.4841 16.5934 14.4112 16.4686 14.3395L15.9704 15.2066C16.092 15.2764 16.2141 15.3475 16.3366 15.4197L16.8444 14.5582ZM17.1724 14.7537C17.064 14.6884 16.9547 14.6232 16.8444 14.5582L16.3366 15.4197C16.444 15.483 16.5505 15.5465 16.656 15.6101L17.1724 14.7537ZM17.6545 15.9999C17.6545 15.8635 17.6537 15.7279 17.6523 15.5932L16.6524 15.6038C16.6538 15.7349 16.6545 15.867 16.6545 15.9999H17.6545ZM17.6532 16.3092C17.6541 16.2066 17.6545 16.1035 17.6545 15.9999H16.6545C16.6545 16.1008 16.6541 16.2012 16.6533 16.3012L17.6532 16.3092ZM16.8267 17.3571C16.9429 17.2888 17.0581 17.2204 17.1722 17.1518L16.6569 16.2948C16.5458 16.3616 16.4336 16.4283 16.3204 16.4947L16.8267 17.3571ZM16.4662 17.5662C16.5859 17.4976 16.7061 17.4279 16.8267 17.3571L16.3204 16.4947C16.2029 16.5637 16.0858 16.6316 15.9692 16.6984L16.4662 17.5662ZM15.1757 17.3888C15.2763 17.4481 15.3766 17.5066 15.4767 17.5644L15.9767 16.6984C15.8793 16.6422 15.7815 16.5851 15.6835 16.5273L15.1757 17.3888ZM14.8503 17.1948C14.9578 17.2596 15.0663 17.3243 15.1757 17.3888L15.6835 16.5273C15.5769 16.4645 15.4713 16.4015 15.3666 16.3384L14.8503 17.1948ZM13.1457 17.0158C13.3043 17.1206 13.4657 17.2254 13.6296 17.33L14.1675 16.487C14.008 16.3852 13.851 16.2833 13.6968 16.1814L13.1457 17.0158ZM10.9711 18.7553C11.542 18.2233 12.2793 17.6292 13.1462 17.0129L12.5668 16.1979C11.6732 16.8331 10.8998 17.4549 10.2893 18.0238L10.9711 18.7553ZM9.91246 19.9444C10.0846 19.6668 10.4277 19.2619 10.9711 18.7553L10.2893 18.0238C9.71816 18.5562 9.3021 19.031 9.06248 19.4176L9.91246 19.9444ZM11.0888 18.9558C10.3817 19.1835 9.86092 19.2859 9.53459 19.3009L9.5805 20.2999C10.0349 20.279 10.6522 20.147 11.3954 19.9076L11.0888 18.9558ZM13.6602 17.9101C12.7036 18.3645 11.829 18.7174 11.0888 18.9558L11.3954 19.9076C12.187 19.6526 13.1031 19.2818 14.0893 18.8133L13.6602 17.9101ZM13.6332 17.3363C13.6399 17.5294 13.648 17.7204 13.6575 17.9092L14.6562 17.859C14.647 17.6755 14.6391 17.4896 14.6326 17.3017L13.6332 17.3363ZM14.4074 17.7167C14.4075 17.7183 14.4076 17.7199 14.4076 17.7215L15.4066 17.6755C15.4065 17.674 15.4064 17.6724 15.4064 17.6708L14.4074 17.7167ZM15.3012 17.1822C15.3003 17.1817 15.2994 17.1811 15.2984 17.1806L14.7906 18.042C14.7915 18.0426 14.7925 18.0431 14.7934 18.0437L15.3012 17.1822ZM20.9107 18.9975C20.176 18.7594 19.3088 18.4082 18.3605 17.9565L17.9304 18.8593C18.9082 19.3251 19.8167 19.6942 20.6025 19.9488L20.9107 18.9975ZM22.4644 19.3454C22.1381 19.3298 21.6175 19.2265 20.9107 18.9975L20.6025 19.9488C21.3452 20.1895 21.9624 20.3226 22.4167 20.3442L22.4644 19.3454ZM21.0288 18.7973C21.5714 19.3048 21.9138 19.7103 22.0854 19.9883L22.9363 19.4629C22.6973 19.0759 22.2821 18.6003 21.7119 18.067L21.0288 18.7973ZM18.8084 17.0166C19.6951 17.6467 20.4482 18.2543 21.0288 18.7973L21.7119 18.067C21.0911 17.4864 20.3013 16.8507 19.3876 16.2014L18.8084 17.0166ZM18.3949 17.2869C18.5348 17.1979 18.6728 17.1087 18.8089 17.0195L18.2606 16.1832C18.1283 16.27 17.994 16.3567 17.8579 16.4434L18.3949 17.2869ZM18.3632 17.9556C18.3745 17.7378 18.3839 17.5169 18.3913 17.2933L17.3919 17.2598C17.3846 17.4775 17.3755 17.6924 17.3646 17.9041L18.3632 17.9556ZM17.6153 17.7253C17.6157 17.7162 17.6161 17.7072 17.6165 17.6981L16.6175 17.6528C16.6171 17.6616 16.6167 17.6704 16.6163 17.6792L17.6153 17.7253ZM16.7043 17.1487C16.6974 17.1527 16.6905 17.1567 16.6836 17.1608L17.1894 18.0234C17.1965 18.0193 17.2036 18.0151 17.2107 18.011L16.7043 17.1487ZM17.764 15.6019C17.7512 15.6102 17.7383 15.6186 17.7255 15.627L18.2703 16.4655C18.2836 16.4569 18.2968 16.4483 18.31 16.4397L17.764 15.6019ZM18.4128 15.9999C18.4128 15.9845 18.4128 15.9691 18.4127 15.9538L17.4127 15.9549C17.4128 15.9699 17.4128 15.9849 17.4128 15.9999H18.4128ZM16.6826 14.7434C16.6956 14.7511 16.7086 14.7587 16.7217 14.7664L17.2295 13.905C17.2162 13.8971 17.2028 13.8892 17.1895 13.8814L16.6826 14.7434ZM17.6132 14.2291C17.6124 14.2128 17.6116 14.1965 17.6108 14.1802L16.612 14.2289C16.6128 14.2447 16.6135 14.2606 16.6143 14.2765L17.6132 14.2291ZM15.9934 17.2908C16.7391 17.2908 17.3436 16.6863 17.3436 15.9406H16.3436C16.3436 16.134 16.1868 16.2908 15.9934 16.2908V17.2908ZM14.6432 15.9406C14.6432 16.6863 15.2477 17.2908 15.9934 17.2908V16.2908C15.8 16.2908 15.6432 16.134 15.6432 15.9406H14.6432ZM15.9934 14.5903C15.2477 14.5903 14.6432 15.1949 14.6432 15.9406H15.6432C15.6432 15.7471 15.8 15.5903 15.9934 15.5903V14.5903ZM17.3436 15.9406C17.3436 15.1949 16.7391 14.5903 15.9934 14.5903V15.5903C16.1868 15.5903 16.3436 15.7471 16.3436 15.9406H17.3436ZM17.1895 13.8814C17.4493 14.0341 17.4377 14.4104 17.1737 14.5491L16.7087 13.6637C16.2813 13.8882 16.2638 14.4972 16.6826 14.7434L17.1895 13.8814ZM17.7255 15.627C18.0227 15.4338 18.4132 15.6486 18.4128 16.0006L17.4128 15.9992C17.4122 16.4387 17.8996 16.7064 18.2703 16.4655L17.7255 15.627ZM19.3876 16.2014C19.0473 15.9596 18.5997 15.9609 18.2606 16.1832L18.8089 17.0195C18.8108 17.0183 18.812 17.0182 18.8123 17.0182C18.8124 17.0182 18.8119 17.0182 18.8111 17.0179C18.8101 17.0176 18.8091 17.0171 18.8084 17.0166L19.3876 16.2014ZM18.3605 17.9565C18.3613 17.9569 18.3622 17.9575 18.3629 17.9582C18.3636 17.9588 18.3638 17.9592 18.3638 17.9592C18.3637 17.959 18.3631 17.9578 18.3632 17.9556L17.3646 17.9041C17.344 18.3018 17.5603 18.683 17.9304 18.8593L18.3605 17.9565ZM14.7934 18.0437C14.518 17.8814 14.53 17.4817 14.8107 17.3344L15.2756 18.2198C15.6864 18.004 15.7032 17.4192 15.3012 17.1822L14.7934 18.0437ZM14.4076 17.7215C14.4274 18.1505 14.8867 18.4239 15.2756 18.2198L14.8107 17.3344C15.0786 17.1937 15.3931 17.3831 15.4066 17.6755L14.4076 17.7215ZM15.4064 17.6708C15.4214 17.9993 15.0668 18.2049 14.7906 18.042L15.2984 17.1806C14.8973 16.9441 14.3857 17.2434 14.4074 17.7167L15.4064 17.6708ZM14.0893 18.8133C14.4595 18.6375 14.6762 18.2566 14.6562 17.859L13.6575 17.9092C13.6576 17.9114 13.657 17.9125 13.6569 17.9127C13.6569 17.9128 13.6571 17.9124 13.6578 17.9117C13.6585 17.9111 13.6595 17.9104 13.6602 17.9101L14.0893 18.8133ZM9.06248 19.4176C8.81668 19.8142 9.11442 20.3213 9.58049 20.2999L9.5346 19.3009C9.87214 19.2854 10.0905 19.6572 9.91246 19.9444L9.06248 19.4176ZM13.6296 17.33C13.6318 17.3314 13.6331 17.3338 13.6332 17.3363L14.6326 17.3017C14.6211 16.9702 14.4472 16.6654 14.1675 16.487L13.6296 17.33ZM13.6968 16.1814C13.3574 15.9572 12.9082 15.9552 12.5668 16.1979L13.1462 17.0129C13.1456 17.0134 13.1445 17.0139 13.1435 17.0142C13.1426 17.0145 13.1422 17.0145 13.1422 17.0145C13.1425 17.0145 13.1438 17.0146 13.1457 17.0158L13.6968 16.1814ZM16.6533 16.3012C16.6533 16.2986 16.6547 16.2961 16.6569 16.2948L17.1722 17.1518C17.4683 16.9738 17.6505 16.6546 17.6532 16.3092L16.6533 16.3012ZM14.3702 16.3539C14.3734 16.6986 14.5551 17.0169 14.8503 17.1948L15.3666 16.3384C15.3688 16.3397 15.3702 16.3422 15.3702 16.3448L14.3702 16.3539ZM14.2207 16.282C13.9589 16.4527 13.61 16.2658 13.6103 15.9506L14.6103 15.9519C14.6109 15.4698 14.0762 15.1824 13.6746 15.4443L14.2207 16.282ZM14.8137 14.5696C14.5325 14.4216 14.5212 14.0208 14.7976 13.8588L15.3034 14.7214C15.7057 14.4855 15.69 13.9009 15.2797 13.6848L14.8137 14.5696ZM15.4111 14.2292C15.3968 14.5219 15.0816 14.7108 14.8137 14.5696L15.2797 13.6848C14.8919 13.4806 14.4331 13.7525 14.4123 14.1805L15.4111 14.2292ZM16.5209 12.9094C16.5208 12.9086 16.5209 12.9075 16.5211 12.9064C16.5213 12.9055 16.5215 12.9051 16.5215 12.9052C16.5214 12.9054 16.5207 12.9065 16.5187 12.9075L16.9792 13.7952C17.3341 13.6111 17.5539 13.2294 17.5168 12.8194L16.5209 12.9094ZM16.3847 8.72743C16.2271 9.02637 15.7959 9.02637 15.6384 8.72743L16.5231 8.26121C16.3055 7.84844 15.7175 7.84844 15.5 8.26121L16.3847 8.72743ZM14.5028 12.8579C14.4664 13.2667 14.6852 13.6472 15.0387 13.8315L15.501 12.9447C15.499 12.9437 15.4984 12.9427 15.4982 12.9425C15.4982 12.9424 15.4984 12.9428 15.4986 12.9437C15.4989 12.9447 15.4989 12.9458 15.4988 12.9467L14.5028 12.8579ZM9.9347 11.9587C10.1122 12.2463 9.89324 12.6177 9.5557 12.6016L9.60337 11.6028C9.13731 11.5805 8.8387 12.0871 9.0838 12.4841L9.9347 11.9587ZM10.6759 12.706C10.6078 12.706 10.563 12.7 10.5358 12.6925C10.5114 12.6858 10.5201 12.6832 10.5355 12.6995L9.81096 13.3887C10.0886 13.6806 10.4713 13.706 10.6759 13.706V12.706ZM11.0261 14.0562C11.0261 14.2602 11.0852 14.5656 11.3467 14.776L11.9735 13.9968C12.0069 14.0237 12.0209 14.0524 12.0251 14.0638C12.0287 14.0732 12.0261 14.0714 12.0261 14.0562H11.0261ZM15.6384 23.2724C15.7959 22.9734 16.2271 22.9734 16.3847 23.2724L15.5 23.7386C15.7175 24.1513 16.3055 24.1514 16.5231 23.7386L15.6384 23.2724ZM15.9656 18.7117C15.9679 18.7104 15.9708 18.7104 15.9731 18.7117L16.4503 17.8329C16.1515 17.6706 15.791 17.67 15.4916 17.8312L15.9656 18.7117ZM15.78 20.4225C15.7164 20.3739 15.6762 20.3357 15.6523 20.3055C15.6302 20.2777 15.6351 20.2731 15.6371 20.2876L14.6463 20.4232C14.7025 20.8334 15.0068 21.0901 15.1727 21.217L15.78 20.4225ZM15.9692 16.6984C15.9715 16.6971 15.9744 16.6971 15.9767 16.6984L15.4767 17.5644C15.7827 17.7411 16.1595 17.7418 16.4662 17.5662L15.9692 16.6984ZM16.0437 22.3504C16.0486 22.3679 16.0416 22.3686 16.051 22.3358C16.0613 22.2997 16.0839 22.2493 16.1249 22.1796L15.2629 21.6726C15.1575 21.8519 14.9662 22.2134 15.0811 22.6214L16.0437 22.3504ZM15.3712 15.5586C15.3712 15.5612 15.3698 15.5636 15.3675 15.565L14.8532 14.7074C14.5577 14.8846 14.3753 15.2023 14.3713 15.5469L15.3712 15.5586ZM10.3256 14.0562C10.3256 13.8512 10.2855 13.5321 10.0452 13.2838L9.32661 13.9792C9.31249 13.9646 9.31246 13.9558 9.31634 13.969C9.32071 13.9838 9.32565 14.0122 9.32565 14.0562H10.3256ZM11.5613 14.6382C11.2622 14.3993 10.8982 14.3962 10.6933 14.406L10.741 15.4049C10.8155 15.4013 10.8681 15.4042 10.905 15.4112C10.9397 15.4178 10.944 15.425 10.9373 15.4196L11.5613 14.6382ZM13.7169 16.4838C14.1031 16.736 14.6112 16.4565 14.6103 15.999L13.6103 16.0008C13.6097 15.6668 13.981 15.4619 14.2637 15.6465L13.7169 16.4838ZM12.1994 16.7638C12.7434 16.3591 12.7464 15.5399 12.2019 15.1328L11.6031 15.9337C11.6061 15.936 11.6067 15.9372 11.607 15.938C11.6078 15.9395 11.6088 15.9427 11.6088 15.9472C11.6088 15.9516 11.6078 15.9549 11.6069 15.9567C11.6064 15.9577 11.6057 15.9591 11.6025 15.9614L12.1994 16.7638ZM13.6746 15.4443C13.3047 15.6854 13.3137 16.2197 13.674 16.4557L14.222 15.6192C14.4562 15.7727 14.4642 16.1232 14.2207 16.282L13.6746 15.4443ZM14.8005 19.6955C14.7256 19.01 14.0009 18.597 13.3733 18.8774L13.7812 19.7904C13.7849 19.7887 13.7866 19.7888 13.7877 19.7889C13.7897 19.789 13.7932 19.7898 13.7973 19.7921C13.8014 19.7944 13.8037 19.797 13.8047 19.7985C13.8052 19.7992 13.806 19.8003 13.8064 19.8041L14.8005 19.6955ZM15.4907 18.9599C15.4908 18.9608 15.4907 18.9619 15.4905 18.9628C15.4903 18.9637 15.4901 18.9641 15.4901 18.9641C15.4902 18.9638 15.4909 18.9628 15.4929 18.9618L15.0318 18.0744C14.6785 18.258 14.4593 18.6373 14.4944 19.0455L15.4907 18.9599ZM15.9779 13.1939C15.9756 13.1951 15.9727 13.1951 15.9704 13.1939L15.4952 14.0737C15.7941 14.2352 16.1543 14.2352 16.4532 14.0737L15.9779 13.1939ZM16.7217 14.7664C17.1233 15.0032 17.6356 14.703 17.6132 14.2291L16.6143 14.2765C16.5987 13.948 16.9533 13.7421 17.2295 13.905L16.7217 14.7664ZM18.6458 18.9238C18.0177 18.6424 17.2935 19.0565 17.2176 19.7406L18.2115 19.8509C18.212 19.847 18.2128 19.8458 18.2134 19.8449C18.2145 19.8433 18.2169 19.8406 18.2211 19.8382C18.2253 19.8358 18.2289 19.8351 18.2308 19.8349C18.2319 19.8349 18.2333 19.8348 18.2369 19.8364L18.6458 18.9238ZM19.7619 15.1379C19.2154 15.5434 19.2149 16.3655 19.761 16.7715L20.3577 15.9691C20.3547 15.9668 20.354 15.9655 20.3536 15.9646C20.3528 15.963 20.3517 15.9596 20.3517 15.9551C20.3517 15.9505 20.3528 15.9472 20.3536 15.9455C20.354 15.9446 20.3547 15.9433 20.3577 15.941L19.7619 15.1379ZM18.31 16.4397C18.6575 16.2132 18.6651 15.6997 18.311 15.4683L17.7639 16.3054C17.5067 16.1373 17.5135 15.7651 17.764 15.6019L18.31 16.4397ZM21.2141 12.915C21.2522 12.862 21.2802 12.83 21.3016 12.8108C21.3213 12.7931 21.3235 12.7971 21.3096 12.801L21.0376 11.8387C20.705 11.9327 20.5049 12.1881 20.4017 12.332L21.2141 12.915ZM14.6651 21.3074C14.774 21.1374 14.9471 20.8292 14.8953 20.4595L13.905 20.5981C13.9038 20.5897 13.9076 20.5966 13.8965 20.6283C13.8847 20.6622 13.8619 20.7074 13.8231 20.7679L14.6651 21.3074ZM19.406 12.6662C19.6404 12.571 19.7664 12.3466 19.7664 12.1283H18.7664C18.7664 11.9749 18.8553 11.8105 19.0297 11.7397L19.406 12.6662ZM17.1749 17.3607C17.4365 17.4988 17.4475 17.8721 17.1894 18.0234L16.6836 17.1608C16.2628 17.4075 16.2795 18.0188 16.708 18.245L17.1749 17.3607ZM19.6085 13.4026C19.5971 13.4073 19.5981 13.4029 19.625 13.4044C19.6542 13.406 19.6961 13.4133 19.7584 13.4304L20.0233 12.4661C19.8525 12.4192 19.5425 12.3486 19.2285 12.4776L19.6085 13.4026ZM16.656 15.6101C16.6538 15.6088 16.6524 15.6063 16.6524 15.6038L17.6523 15.5932C17.6487 15.2491 17.4671 14.9314 17.1724 14.7537L16.656 15.6101ZM17.2088 12.1803C17.2863 12.8611 18.0065 13.2752 18.6343 12.9953L18.2271 12.082C18.2235 12.0835 18.2221 12.0834 18.2213 12.0834C18.2195 12.0832 18.2161 12.0825 18.212 12.0802C18.208 12.0779 18.2055 12.0752 18.2043 12.0735C18.2037 12.0726 18.2028 12.0712 18.2023 12.0671L17.2088 12.1803ZM13.1481 14.8825C13.1462 14.8838 13.145 14.8839 13.1447 14.8839C13.1446 14.8839 13.1451 14.8839 13.146 14.8842C13.147 14.8845 13.148 14.885 13.1487 14.8855L12.5674 15.6992C12.9082 15.9427 13.3574 15.9416 13.6974 15.7182L13.1481 14.8825ZM17.6165 17.6981C17.6385 17.2133 17.1148 16.9076 16.7043 17.1487L17.2107 18.011C16.945 18.167 16.6032 17.9699 16.6175 17.6528L17.6165 17.6981ZM18.3587 13.9589C18.3586 13.9567 18.3592 13.9555 18.3593 13.9553C18.3593 13.9553 18.3591 13.9557 18.3584 13.9563C18.3577 13.957 18.3567 13.9576 18.356 13.958L17.9278 13.0543C17.5558 13.2306 17.3386 13.6136 17.3602 14.0128L18.3587 13.9589ZM15.978 15.2066C15.9757 15.2079 15.9728 15.2079 15.9704 15.2066L16.4686 14.3395C16.1624 14.1636 15.786 14.1636 15.4799 14.3395L15.978 15.2066ZM13.3825 13.0269C14.01 13.3082 14.7337 12.8952 14.8107 12.2119L13.817 12.0998C13.8166 12.1038 13.8158 12.105 13.8152 12.1059C13.8141 12.1075 13.8116 12.1102 13.8074 12.1126C13.8032 12.115 13.7996 12.1157 13.7977 12.1158C13.7967 12.1159 13.7952 12.116 13.7916 12.1144L13.3825 13.0269ZM13.6652 13.9931C13.6644 13.9928 13.6635 13.9922 13.6628 13.9915C13.6621 13.9908 13.6619 13.9904 13.6619 13.9905C13.662 13.9907 13.6626 13.9918 13.6625 13.9941L14.6611 14.047C14.6822 13.6489 14.4659 13.267 14.0954 13.0904L13.6652 13.9931ZM17.8579 16.4434C17.5774 16.6219 17.403 16.9275 17.3919 17.2598L18.3913 17.2933C18.3914 17.2907 18.3928 17.2883 18.3949 17.2869L17.8579 16.4434ZM18.8096 14.8917C18.8103 14.8913 18.8113 14.8907 18.8123 14.8904C18.8132 14.8901 18.8137 14.8901 18.8136 14.8901C18.8133 14.8901 18.8121 14.8901 18.8102 14.8888L18.2608 15.7244C18.5997 15.9472 19.0473 15.949 19.3879 15.7076L18.8096 14.8917ZM16.5264 19.0061C16.5283 19.0071 16.529 19.0081 16.5292 19.0084C16.5292 19.0084 16.529 19.008 16.5288 19.0071C16.5286 19.0061 16.5285 19.005 16.5286 19.0042L17.5248 19.0913C17.5605 18.683 17.3416 18.3032 16.9885 18.1192L16.5264 19.0061ZM14.4112 14.2036C14.3889 14.6669 14.8899 14.9652 15.2861 14.7315L14.7782 13.8702C15.0638 13.7017 15.4261 13.9166 15.41 14.2517L14.4112 14.2036ZM17.1737 14.5491C16.9204 14.6821 16.6253 14.5024 16.612 14.2289L17.6108 14.1802C17.5891 13.7359 17.1133 13.4512 16.7087 13.6637L17.1737 14.5491ZM15.2895 22.4682C15.1935 22.1153 14.9238 21.8988 14.7588 21.7821L14.1813 22.5984C14.2393 22.6395 14.2778 22.673 14.3022 22.7005C14.3254 22.7266 14.3261 22.7362 14.3245 22.7306L15.2895 22.4682ZM13.6368 14.5629C13.6367 14.5655 13.6354 14.5679 13.6332 14.5692L14.1692 15.4134C14.4492 15.2357 14.6238 14.9316 14.6361 14.6002L13.6368 14.5629ZM16.6163 17.6792C16.6289 17.4071 16.9228 17.2276 17.1749 17.3607L16.708 18.245C17.1152 18.46 17.5946 18.1727 17.6153 17.7253L16.6163 17.6792ZM18.3916 14.6177C18.3895 14.6164 18.3881 14.614 18.388 14.6114L17.3887 14.6474C17.4006 14.9784 17.5745 15.2825 17.8537 15.4607L18.3916 14.6177ZM18.311 15.4683C17.9254 15.2164 17.4122 15.4924 17.4127 15.9549L18.4127 15.9538C18.4131 16.2883 18.0423 16.4873 17.7639 16.3054L18.311 15.4683ZM21.0266 11.0556C21.0326 11.054 21.0215 11.0596 20.979 11.0476C20.9343 11.0349 20.8762 11.0086 20.8028 10.9653L20.2942 11.8263C20.4935 11.944 20.8654 12.1323 21.2816 12.0225L21.0266 11.0556ZM22.4167 20.3442C22.8828 20.3665 23.1814 19.8599 22.9363 19.4629L22.0854 19.9883C21.9079 19.7007 22.1268 19.3293 22.4644 19.3454L22.4167 20.3442ZM22.455 12.5797C22.1175 12.5952 21.8992 12.2234 22.0772 11.9362L22.9272 12.463C23.173 12.0664 22.8752 11.5594 22.4091 11.5808L22.455 12.5797Z" fill="#6F727E" fill-opacity="0.5" mask="url(#path-1-inside-1_10481_57125)"/>
<defs>
<filter id="filter0_i_10481_57125" x="3" y="3" width="26" height="30" filterUnits="userSpaceOnUse" color-interpolation-filters="sRGB">
<feFlood flood-opacity="0" result="BackgroundImageFix"/>
<feBlend mode="normal" in="SourceGraphic" in2="BackgroundImageFix" result="shape"/>
<feColorMatrix in="SourceAlpha" type="matrix" values="0 0 0 0 0 0 0 0 0 0 0 0 0 0 0 0 0 0 127 0" result="hardAlpha"/>
<feOffset dy="4"/>
<feGaussianBlur stdDeviation="2"/>
<feComposite in2="hardAlpha" operator="arithmetic" k2="-1" k3="1"/>
<feColorMatrix type="matrix" values="0 0 0 0 0 0 0 0 0 0 0 0 0 0 0 0 0 0 0.25 0"/>
<feBlend mode="normal" in2="shape" result="effect1_innerShadow_10481_57125"/>
</filter>
</defs>
</svg>
