<svg width="32" height="32" viewBox="0 0 32 32" fill="none" xmlns="http://www.w3.org/2000/svg">
<g filter="url(#filter0_i_10378_32439)">
<path fill-rule="evenodd" clip-rule="evenodd" d="M16 3C8.8203 3 3 8.8203 3 16C3 23.1797 8.8203 29 16 29C23.1797 29 29 23.1797 29 16C29 8.8203 23.1797 3 16 3ZM22.4321 12.0803C22.4964 12.0773 22.5361 12.1449 22.5022 12.1996C22.2963 12.5317 21.9167 12.9716 21.3594 13.4911C20.7611 14.0487 19.9937 14.6653 19.0987 15.2997C18.931 15.4186 18.7074 15.4196 18.5355 15.3066C18.3999 15.2175 18.2622 15.1283 18.1227 15.0392C17.982 14.9495 17.8944 14.7962 17.8884 14.6294C17.8805 14.4121 17.8709 14.1974 17.8595 13.9859C17.8485 13.7834 17.9586 13.593 18.1419 13.5061C18.5851 13.2961 19.0123 13.1069 19.4185 12.9401C19.5678 12.8787 19.7352 12.9055 19.8909 12.9483C19.9628 12.968 20.0385 12.9786 20.1167 12.9786C20.4015 12.9786 20.6536 12.8385 20.8079 12.6235C20.9027 12.4914 21.0171 12.3641 21.1736 12.3198C21.6985 12.1715 22.1218 12.0945 22.4321 12.0803ZM20.5485 11.3958C20.7325 11.5045 20.9474 11.5936 21.1541 11.5391C22.3181 11.2321 23.1236 11.2359 23.35 11.6215C23.7317 12.2715 22.3644 13.8296 20.0598 15.5395C19.7826 15.7452 19.7823 16.1643 20.0593 16.3703C22.37 18.0885 23.7413 19.6544 23.3577 20.3051C22.9801 20.9456 21.0037 20.5279 18.4414 19.3801C18.1226 19.2373 17.7531 19.4486 17.7146 19.7958C17.4033 22.6015 16.7576 24.5293 16.0115 24.5293C15.5544 24.5293 15.135 23.8055 14.807 22.5994C14.7595 22.4247 14.6178 22.2948 14.4701 22.1902C14.2524 22.0363 14.1103 21.7826 14.1103 21.4957C14.1103 21.327 14.1594 21.1698 14.2441 21.0376C14.3424 20.8842 14.4254 20.7093 14.4002 20.5288C14.365 20.2776 14.3327 20.0177 14.3034 19.7498C14.2655 19.4025 13.8962 19.1914 13.5772 19.3339C11.0033 20.4839 9.01707 20.9019 8.63964 20.2591C8.25956 19.6118 9.61379 18.064 11.901 16.3626C12.1773 16.157 12.1784 15.7395 11.9025 15.5333C11.6752 15.3633 11.4572 15.195 11.2493 15.0289C11.1031 14.9121 10.9041 14.8965 10.7172 14.9055C10.7035 14.9061 10.6897 14.9064 10.6759 14.9064C10.2063 14.9064 9.82565 14.5258 9.82565 14.0562C9.82565 13.9022 9.793 13.7421 9.68591 13.6315C8.83223 12.7493 8.43271 12.0315 8.66243 11.6418C9.04043 11.0007 11.0206 11.42 13.587 12.5706C13.9055 12.7134 14.2748 12.5027 14.3139 12.1559C14.6272 9.37623 15.2698 7.4705 16.0115 7.4705C16.7504 7.4705 17.3909 9.36154 17.7056 12.1237C17.745 12.4698 18.1126 12.6805 18.4307 12.5386C18.7 12.4186 18.9627 12.3065 19.2178 12.2029C19.2479 12.1907 19.2664 12.1607 19.2664 12.1283C19.2664 11.6588 19.6471 11.2781 20.1167 11.2781C20.2743 11.2781 20.4219 11.321 20.5485 11.3958ZM15.9423 23.5055C15.8151 23.2641 15.6855 22.923 15.5624 22.4859C15.5086 22.2947 15.5932 22.0973 15.6939 21.9261C15.7682 21.7999 15.8108 21.6527 15.8108 21.4957C15.8108 21.2201 15.6796 20.9751 15.4764 20.8197C15.3197 20.7 15.1684 20.5508 15.1417 20.3554C15.0835 19.9301 15.0333 19.4777 14.9925 19.0027C14.9752 18.8016 15.0832 18.6112 15.2623 18.5181C15.4167 18.4379 15.5721 18.3556 15.7286 18.2714C15.8795 18.1902 16.0612 18.1905 16.2117 18.2723C16.395 18.3718 16.577 18.4686 16.7574 18.5626C16.9365 18.656 17.0443 18.8466 17.0267 19.0477C16.9327 20.1217 16.7912 21.0792 16.6158 21.8661C16.45 22.6097 16.2629 23.1598 16.0807 23.5055C16.0507 23.5624 15.9723 23.5624 15.9423 23.5055ZM11.6601 14.3864C11.5631 14.3083 11.5261 14.1807 11.5261 14.0562C11.5261 13.5866 11.1454 13.206 10.6759 13.206C10.4933 13.206 10.2991 13.1764 10.1733 13.0441C9.87024 12.7255 9.64933 12.4483 9.50925 12.2214C9.47545 12.1667 9.51527 12.0991 9.57954 12.1022C9.96985 12.1208 10.5387 12.239 11.2635 12.4738C12.0252 12.7207 12.9151 13.0818 13.8803 13.5418C14.0628 13.6288 14.1725 13.8186 14.1618 14.0205C14.152 14.2053 14.1435 14.3924 14.1365 14.5816C14.1303 14.7485 14.0423 14.9018 13.9012 14.9913C13.7391 15.0942 13.5796 15.1973 13.4228 15.3004C13.2503 15.4137 13.0259 15.4123 12.8581 15.2923C12.427 14.9844 12.0261 14.6808 11.6601 14.3864ZM15.2699 13.3881C15.0906 13.2946 14.9829 13.1037 15.0008 12.9023C15.0947 11.8485 15.2346 10.9084 15.4073 10.1337C15.5731 9.39008 15.7602 8.84001 15.9423 8.49432C15.9723 8.4374 16.0507 8.4374 16.0807 8.49432C16.2629 8.84001 16.45 9.39008 16.6158 10.1337C16.7864 10.8991 16.925 11.826 17.0189 12.8644C17.0371 13.0664 16.9289 13.258 16.7489 13.3513C16.5726 13.4428 16.3947 13.537 16.2155 13.6338C16.0649 13.7151 15.8834 13.7151 15.7328 13.6338C15.5775 13.5499 15.4231 13.468 15.2699 13.3881ZM15.0321 14.3008C14.9769 14.3334 14.9075 14.2917 14.9106 14.2276C14.9109 14.22 14.9113 14.2124 14.9117 14.2048C14.915 14.1372 14.9868 14.0957 15.0467 14.1272C15.1112 14.1612 15.1134 14.2532 15.0505 14.2901C15.0444 14.2937 15.0383 14.2972 15.0321 14.3008ZM14.1103 15.9513C14.1105 15.8678 14.0175 15.8176 13.9476 15.8631C13.8845 15.9043 13.885 15.9962 13.948 16.0375C13.9621 16.0467 13.9762 16.0559 13.9903 16.0652C14.042 16.0989 14.1104 16.0617 14.1103 15.9999C14.1103 15.9837 14.1103 15.9675 14.1103 15.9513ZM15.1084 16.7666C14.9619 16.6783 14.8718 16.5204 14.8702 16.3493C14.8692 16.2335 14.8686 16.117 14.8686 15.9999C14.8686 15.8498 14.8695 15.7007 14.8712 15.5527C14.8732 15.3818 14.9637 15.2241 15.1104 15.1362C15.2114 15.0756 15.3133 15.0151 15.4161 14.9547C15.5207 14.8933 15.625 14.8328 15.7289 14.773C15.8808 14.6858 16.0676 14.6858 16.2195 14.773C16.3427 14.8438 16.4664 14.9158 16.5905 14.9889C16.6993 15.0531 16.8073 15.1175 16.9142 15.1819C17.0605 15.2701 17.1506 15.4277 17.1524 15.5985C17.1538 15.7314 17.1545 15.8653 17.1545 15.9999C17.1545 16.1021 17.1541 16.2039 17.1532 16.3052C17.1519 16.4766 17.0615 16.6349 16.9146 16.7233C16.802 16.791 16.6883 16.8585 16.5735 16.9259C16.4545 16.9958 16.3359 17.0646 16.2177 17.1323C16.0655 17.2194 15.8786 17.2191 15.7267 17.1314C15.628 17.0744 15.5289 17.0166 15.4296 16.9581C15.3216 16.8944 15.2145 16.8306 15.1084 16.7666ZM14.1329 17.319C14.1271 17.152 14.0395 16.9984 13.8986 16.9085C13.7369 16.8053 13.5777 16.702 13.4212 16.5986C13.2491 16.4849 13.0247 16.4858 12.8565 16.6054C11.9763 17.2311 11.2209 17.8391 10.6302 18.3896C10.0729 18.909 9.69333 19.3489 9.48747 19.681C9.45358 19.7357 9.49328 19.8033 9.55755 19.8004C9.94789 19.7824 10.517 19.6653 11.2421 19.4317C12.008 19.185 12.9033 18.8232 13.8748 18.3617C14.0571 18.2751 14.167 18.0857 14.1569 17.8841C14.1475 17.6979 14.1395 17.5095 14.1329 17.319ZM15.0431 17.7771C14.9826 17.8088 14.9102 17.7668 14.9071 17.6985C14.907 17.6969 14.907 17.6953 14.9069 17.6937C14.9036 17.6214 14.9821 17.5745 15.0445 17.6113C15.0454 17.6118 15.0464 17.6124 15.0473 17.6129C15.1106 17.6503 15.1082 17.7429 15.0431 17.7771ZM17.8639 17.9299C17.8535 18.1315 17.9631 18.3211 18.1455 18.4079C19.1085 18.8667 19.9964 19.2268 20.7566 19.4732C21.4814 19.708 22.0502 19.8262 22.4406 19.8448C22.5048 19.8479 22.5446 19.7803 22.5108 19.7256C22.3056 19.3931 21.9267 18.9526 21.3703 18.4321C20.7697 17.8703 19.9982 17.2487 19.098 16.609C18.9303 16.4899 18.7067 16.4886 18.5347 16.6014C18.4006 16.6893 18.2644 16.7773 18.1264 16.8652C17.9851 16.9551 17.8972 17.1091 17.8916 17.2765C17.8842 17.4972 17.875 17.7151 17.8639 17.9299ZM16.9575 17.5798C17.0299 17.5373 17.1208 17.5916 17.117 17.6754C17.1166 17.6844 17.1162 17.6933 17.1158 17.7023C17.1118 17.7899 17.019 17.8438 16.9414 17.8029C16.858 17.7588 16.8551 17.6398 16.9365 17.5921C16.9435 17.588 16.9505 17.5839 16.9575 17.5798ZM17.9128 15.9999C17.9127 16.0437 17.9612 16.0701 17.9979 16.0462C18.0109 16.0378 18.024 16.0293 18.037 16.0208C18.0855 15.9892 18.0859 15.9185 18.0374 15.8869C17.9839 15.8518 17.9127 15.8904 17.9127 15.9543C17.9128 15.9695 17.9128 15.9847 17.9128 15.9999ZM17.1137 14.2528C17.1172 14.3255 17.0383 14.3727 16.9756 14.3357C16.9624 14.3279 16.9492 14.3202 16.936 14.3124C16.8565 14.2657 16.8595 14.1493 16.9412 14.1064C17.0168 14.0666 17.1072 14.1192 17.1114 14.2045C17.1122 14.2206 17.1129 14.2367 17.1137 14.2528ZM16.8436 15.9406C16.8436 16.4101 16.463 16.7908 15.9934 16.7908C15.5238 16.7908 15.1432 16.4101 15.1432 15.9406C15.1432 15.471 15.5238 15.0903 15.9934 15.0903C16.463 15.0903 16.8436 15.471 16.8436 15.9406Z" fill="#5A5D68"/>
</g>
<defs>
<filter id="filter0_i_10378_32439" x="3" y="3" width="26" height="28.5" filterUnits="userSpaceOnUse" color-interpolation-filters="sRGB">
<feFlood flood-opacity="0" result="BackgroundImageFix"/>
<feBlend mode="normal" in="SourceGraphic" in2="BackgroundImageFix" result="shape"/>
<feColorMatrix in="SourceAlpha" type="matrix" values="0 0 0 0 0 0 0 0 0 0 0 0 0 0 0 0 0 0 127 0" result="hardAlpha"/>
<feOffset dy="2.5"/>
<feGaussianBlur stdDeviation="1.25"/>
<feComposite in2="hardAlpha" operator="arithmetic" k2="-1" k3="1"/>
<feColorMatrix type="matrix" values="0 0 0 0 0 0 0 0 0 0 0 0 0 0 0 0 0 0 0.25 0"/>
<feBlend mode="normal" in2="shape" result="effect1_innerShadow_10378_32439"/>
</filter>
</defs>
</svg>
